<?xml version="1.0" encoding="UTF-8" standalone="no"?>
<!-- Generator: Fusion 360, Shaper Origin Export Add-In, Version 1.6.3  -->

<svg
   shaper:fusionaddin="version:1.6.3"
   width="17.52cm"
   height="7.32cm"
   version="1.1"
   x="0cm"
   y="0cm"
   viewBox="0 0 17.52 7.32"
   enable-background="new 0 0 17.52 7.32"
   xml:space="preserve"
   id="svg938"
   sodipodi:docname="bancouver40_3DP_Case.svg"
   inkscape:version="1.1.1 (c3084ef, 2021-09-22)"
   xmlns:inkscape="http://www.inkscape.org/namespaces/inkscape"
   xmlns:sodipodi="http://sodipodi.sourceforge.net/DTD/sodipodi-0.dtd"
   xmlns="http://www.w3.org/2000/svg"
   xmlns:svg="http://www.w3.org/2000/svg"
   xmlns:shaper="http://www.shapertools.com/namespaces/shaper"><defs
     id="defs942" /><sodipodi:namedview
     id="namedview940"
     pagecolor="#505050"
     bordercolor="#eeeeee"
     borderopacity="1"
     inkscape:pageshadow="0"
     inkscape:pageopacity="0"
     inkscape:pagecheckerboard="0"
     inkscape:document-units="cm"
     showgrid="false"
     inkscape:zoom="1.1988598"
     inkscape:cx="329.06266"
     inkscape:cy="15.848392"
     inkscape:window-width="1648"
     inkscape:window-height="1076"
     inkscape:window-x="2409"
     inkscape:window-y="251"
     inkscape:window-maximized="0"
     inkscape:current-layer="svg938" /><path
     d="M17.32,0.1 L17.32,6.82 A0.3,0.3 0 0,1 17.02,7.12 L4.31,7.12 4.21,7.12 3.25,7.12 3.15,7.12 0.1,7.12 A0.3,0.3 90 0,1 -0.2,6.82 L-0.2,0.1 A0.3,0.3 180 0,1 0.1,-0.2 L17.02,-0.2 A0.3,0.3 270 0,1 17.32,0.1z"
     transform="matrix(1,0,0,-1,0.2,7.12)"
     fill="rgb(0,0,0)"
     shaper:cutDepth="0.0125"
     stroke-linecap="round"
     stroke-linejoin="round"
     id="path906"
     style="fill:none" /><path
     d="M4.31,6.27 L4.31,6.92 17.12,6.92 17.12,0 0,0 -0,6.92 3.15,6.92 3.15,6.27 A0.1,0.1 180 0,1 3.25,6.17 L4.21,6.17 A0.1,0.1 270 0,1 4.31,6.27z M15.18,3.46 a0.18,0.18 0 1,1 0.36,0 a0.18,0.18 0 1,1 -0.36,0z M4.98,1.76 a0.18,0.18 0 1,1 0.36,0 a0.18,0.18 0 1,1 -0.36,0z M1.58,3.46 a0.18,0.18 0 1,1 0.36,0 a0.18,0.18 0 1,1 -0.36,0z M11.78,1.76 a0.18,0.18 0 1,1 0.36,0 a0.18,0.18 0 1,1 -0.36,0z M11.78,5.16 a0.18,0.18 0 1,1 0.36,0 a0.18,0.18 0 1,1 -0.36,0z M4.98,5.16 a0.18,0.18 0 1,1 0.36,0 a0.18,0.18 0 1,1 -0.36,0z"
     transform="matrix(1,0,0,-1,0.2,7.12)"
     fill="rgb(184,184,184)"
     fill-rule="nonzero"
     shaper:cutDepth="0.0105"
     stroke-linecap="round"
     stroke-linejoin="round"
     id="path908"
     style="fill:#808080;stroke:#ff0000;stroke-opacity:1;stroke-width:0.1;stroke-miterlimit:4;stroke-dasharray:none" /><path
     d="M5.0725,5.16 a0.0875,0.0875 0 1,1 0.175,0 a0.0875,0.0875 0 1,1 -0.175,0z"
     transform="matrix(1,0,0,-1,0.2,7.12)"
     fill="rgb(192,192,192)"
     fill-rule="nonzero"
     shaper:cutDepth="0.0115"
     stroke-linecap="round"
     stroke-linejoin="round"
     id="path910" /><path
     d="M11.8725,5.16 a0.0875,0.0875 0 1,1 0.175,0 a0.0875,0.0875 0 1,1 -0.175,0z"
     transform="matrix(1,0,0,-1,0.2,7.12)"
     fill="rgb(192,192,192)"
     fill-rule="nonzero"
     shaper:cutDepth="0.0115"
     stroke-linecap="round"
     stroke-linejoin="round"
     id="path912" /><path
     d="M11.8725,1.76 a0.0875,0.0875 0 1,1 0.175,0 a0.0875,0.0875 0 1,1 -0.175,0z"
     transform="matrix(1,0,0,-1,0.2,7.12)"
     fill="rgb(192,192,192)"
     fill-rule="nonzero"
     shaper:cutDepth="0.0115"
     stroke-linecap="round"
     stroke-linejoin="round"
     id="path914" /><path
     d="M15.2725,3.46 a0.0875,0.0875 0 1,1 0.175,0 a0.0875,0.0875 0 1,1 -0.175,0z"
     transform="matrix(1,0,0,-1,0.2,7.12)"
     fill="rgb(192,192,192)"
     fill-rule="nonzero"
     shaper:cutDepth="0.0115"
     stroke-linecap="round"
     stroke-linejoin="round"
     id="path916" /><path
     d="M5.0725,1.76 a0.0875,0.0875 0 1,1 0.175,0 a0.0875,0.0875 0 1,1 -0.175,0z"
     transform="matrix(1,0,0,-1,0.2,7.12)"
     fill="rgb(192,192,192)"
     fill-rule="nonzero"
     shaper:cutDepth="0.0115"
     stroke-linecap="round"
     stroke-linejoin="round"
     id="path918" /><path
     d="M1.6725,3.46 a0.0875,0.0875 0 1,1 0.175,0 a0.0875,0.0875 0 1,1 -0.175,0z"
     transform="matrix(1,0,0,-1,0.2,7.12)"
     fill="rgb(192,192,192)"
     fill-rule="nonzero"
     shaper:cutDepth="0.0115"
     stroke-linecap="round"
     stroke-linejoin="round"
     id="path920" /><path
     d="M15.18,3.46 a0.18,0.18 0 1,0 0.36,0 a0.18,0.18 0 1,0 -0.36,0z"
     transform="matrix(1,0,0,-1,0.2,7.12)"
     fill="rgb(164,164,164)"
     fill-rule="nonzero"
     shaper:cutDepth="0.008"
     stroke-linecap="round"
     stroke-linejoin="round"
     id="path922" /><path
     d="M4.98,5.16 a0.18,0.18 0 1,0 0.36,0 a0.18,0.18 0 1,0 -0.36,0z"
     transform="matrix(1,0,0,-1,0.2,7.12)"
     fill="rgb(164,164,164)"
     fill-rule="nonzero"
     shaper:cutDepth="0.008"
     stroke-linecap="round"
     stroke-linejoin="round"
     id="path924" /><path
     d="M4.98,1.76 a0.18,0.18 0 1,0 0.36,0 a0.18,0.18 0 1,0 -0.36,0z"
     transform="matrix(1,0,0,-1,0.2,7.12)"
     fill="rgb(164,164,164)"
     fill-rule="nonzero"
     shaper:cutDepth="0.008"
     stroke-linecap="round"
     stroke-linejoin="round"
     id="path926" /><path
     d="M11.78,5.16 a0.18,0.18 0 1,0 0.36,0 a0.18,0.18 0 1,0 -0.36,0z"
     transform="matrix(1,0,0,-1,0.2,7.12)"
     fill="rgb(164,164,164)"
     fill-rule="nonzero"
     shaper:cutDepth="0.008"
     stroke-linecap="round"
     stroke-linejoin="round"
     id="path928" /><path
     d="M1.58,3.46 a0.18,0.18 0 1,0 0.36,0 a0.18,0.18 0 1,0 -0.36,0z"
     transform="matrix(1,0,0,-1,0.2,7.12)"
     fill="rgb(164,164,164)"
     fill-rule="nonzero"
     shaper:cutDepth="0.008"
     stroke-linecap="round"
     stroke-linejoin="round"
     id="path930" /><path
     d="M11.78,1.76 a0.18,0.18 0 1,0 0.36,0 a0.18,0.18 0 1,0 -0.36,0z"
     transform="matrix(1,0,0,-1,0.2,7.12)"
     fill="rgb(164,164,164)"
     fill-rule="nonzero"
     shaper:cutDepth="0.008"
     stroke-linecap="round"
     stroke-linejoin="round"
     id="path932" /><path
     d="M5.91,4.76 a0.1,0.1 0 1,1 0.2,0 a0.1,0.1 0 1,1 -0.2,0z"
     transform="matrix(1,0,0,-1,0.2,7.12)"
     fill="rgb(255,255,255)"
     stroke="rgb(0,0,0)"
     stroke-width="0.0010cm"
     stroke-linecap="round"
     stroke-linejoin="round"
     shaper:cutDepth="0.0125"
     id="path936"
     style="stroke:#ff0000;stroke-opacity:1;stroke-width:0.0378;stroke-miterlimit:4;stroke-dasharray:none" /></svg>
