%TF.GenerationSoftware,KiCad,Pcbnew,(6.0.4-0)*%
%TF.CreationDate,2022-10-11T18:59:22-05:00*%
%TF.ProjectId,bancouver40_cfx,62616e63-6f75-4766-9572-34305f636678,rev?*%
%TF.SameCoordinates,Original*%
%TF.FileFunction,Copper,L2,Bot*%
%TF.FilePolarity,Positive*%
%FSLAX46Y46*%
G04 Gerber Fmt 4.6, Leading zero omitted, Abs format (unit mm)*
G04 Created by KiCad (PCBNEW (6.0.4-0)) date 2022-10-11 18:59:22*
%MOMM*%
%LPD*%
G01*
G04 APERTURE LIST*
G04 Aperture macros list*
%AMRoundRect*
0 Rectangle with rounded corners*
0 $1 Rounding radius*
0 $2 $3 $4 $5 $6 $7 $8 $9 X,Y pos of 4 corners*
0 Add a 4 corners polygon primitive as box body*
4,1,4,$2,$3,$4,$5,$6,$7,$8,$9,$2,$3,0*
0 Add four circle primitives for the rounded corners*
1,1,$1+$1,$2,$3*
1,1,$1+$1,$4,$5*
1,1,$1+$1,$6,$7*
1,1,$1+$1,$8,$9*
0 Add four rect primitives between the rounded corners*
20,1,$1+$1,$2,$3,$4,$5,0*
20,1,$1+$1,$4,$5,$6,$7,0*
20,1,$1+$1,$6,$7,$8,$9,0*
20,1,$1+$1,$8,$9,$2,$3,0*%
%AMRotRect*
0 Rectangle, with rotation*
0 The origin of the aperture is its center*
0 $1 length*
0 $2 width*
0 $3 Rotation angle, in degrees counterclockwise*
0 Add horizontal line*
21,1,$1,$2,0,0,$3*%
G04 Aperture macros list end*
%TA.AperFunction,SMDPad,CuDef*%
%ADD10R,2.600000X2.600000*%
%TD*%
%TA.AperFunction,SMDPad,CuDef*%
%ADD11R,0.450000X0.600000*%
%TD*%
%TA.AperFunction,SMDPad,CuDef*%
%ADD12RoundRect,0.140000X0.219203X0.021213X0.021213X0.219203X-0.219203X-0.021213X-0.021213X-0.219203X0*%
%TD*%
%TA.AperFunction,SMDPad,CuDef*%
%ADD13RoundRect,0.135000X-0.185000X0.135000X-0.185000X-0.135000X0.185000X-0.135000X0.185000X0.135000X0*%
%TD*%
%TA.AperFunction,SMDPad,CuDef*%
%ADD14RoundRect,0.140000X0.021213X-0.219203X0.219203X-0.021213X-0.021213X0.219203X-0.219203X0.021213X0*%
%TD*%
%TA.AperFunction,SMDPad,CuDef*%
%ADD15RoundRect,0.062500X0.291682X0.380070X-0.380070X-0.291682X-0.291682X-0.380070X0.380070X0.291682X0*%
%TD*%
%TA.AperFunction,SMDPad,CuDef*%
%ADD16RoundRect,0.062500X-0.291682X0.380070X-0.380070X0.291682X0.291682X-0.380070X0.380070X-0.291682X0*%
%TD*%
%TA.AperFunction,SMDPad,CuDef*%
%ADD17RotRect,5.200000X5.200000X225.000000*%
%TD*%
%TA.AperFunction,SMDPad,CuDef*%
%ADD18RoundRect,0.140000X-0.140000X-0.170000X0.140000X-0.170000X0.140000X0.170000X-0.140000X0.170000X0*%
%TD*%
%TA.AperFunction,SMDPad,CuDef*%
%ADD19R,1.200000X1.400000*%
%TD*%
%TA.AperFunction,SMDPad,CuDef*%
%ADD20RoundRect,0.140000X-0.021213X0.219203X-0.219203X0.021213X0.021213X-0.219203X0.219203X-0.021213X0*%
%TD*%
%TA.AperFunction,SMDPad,CuDef*%
%ADD21RoundRect,0.135000X0.135000X0.185000X-0.135000X0.185000X-0.135000X-0.185000X0.135000X-0.185000X0*%
%TD*%
%TA.AperFunction,SMDPad,CuDef*%
%ADD22R,1.800000X1.100000*%
%TD*%
%TA.AperFunction,SMDPad,CuDef*%
%ADD23RoundRect,0.135000X-0.135000X-0.185000X0.135000X-0.185000X0.135000X0.185000X-0.135000X0.185000X0*%
%TD*%
%TA.AperFunction,SMDPad,CuDef*%
%ADD24RoundRect,0.140000X0.140000X0.170000X-0.140000X0.170000X-0.140000X-0.170000X0.140000X-0.170000X0*%
%TD*%
%TA.AperFunction,SMDPad,CuDef*%
%ADD25R,0.300000X1.150000*%
%TD*%
%TA.AperFunction,ComponentPad*%
%ADD26O,1.000000X2.100000*%
%TD*%
%TA.AperFunction,ComponentPad*%
%ADD27O,1.000000X1.600000*%
%TD*%
%TA.AperFunction,SMDPad,CuDef*%
%ADD28RoundRect,0.250000X-0.625000X0.375000X-0.625000X-0.375000X0.625000X-0.375000X0.625000X0.375000X0*%
%TD*%
%TA.AperFunction,SMDPad,CuDef*%
%ADD29RoundRect,0.140000X-0.219203X-0.021213X-0.021213X-0.219203X0.219203X0.021213X0.021213X0.219203X0*%
%TD*%
%TA.AperFunction,ViaPad*%
%ADD30C,0.800000*%
%TD*%
%TA.AperFunction,Conductor*%
%ADD31C,0.250000*%
%TD*%
%TA.AperFunction,Conductor*%
%ADD32C,0.200000*%
%TD*%
G04 APERTURE END LIST*
D10*
%TO.P,SW25,1,1*%
%TO.N,Net-(D25-Pad2)*%
X154149929Y-63324973D03*
%TO.P,SW25,2,2*%
%TO.N,col5*%
X142599929Y-61124973D03*
%TD*%
%TO.P,SW17,1,1*%
%TO.N,Net-(D17-Pad2)*%
X188149913Y-46324981D03*
%TO.P,SW17,2,2*%
%TO.N,col7*%
X176599913Y-44124981D03*
%TD*%
%TO.P,SW23,1,1*%
%TO.N,Net-(D23-Pad2)*%
X120149945Y-63324973D03*
%TO.P,SW23,2,2*%
%TO.N,col3*%
X108599945Y-61124973D03*
%TD*%
%TO.P,SW26,1,1*%
%TO.N,Net-(D26-Pad2)*%
X171149921Y-63324973D03*
%TO.P,SW26,2,2*%
%TO.N,col6*%
X159599921Y-61124973D03*
%TD*%
%TO.P,SW13,1,1*%
%TO.N,Net-(D13-Pad2)*%
X120149945Y-46324981D03*
%TO.P,SW13,2,2*%
%TO.N,col3*%
X108599945Y-44124981D03*
%TD*%
%TO.P,SW20,1,1*%
%TO.N,Net-(D20-Pad2)*%
X239149889Y-46324981D03*
%TO.P,SW20,2,2*%
%TO.N,col10*%
X227599889Y-44124981D03*
%TD*%
%TO.P,SW16,1,1*%
%TO.N,Net-(D16-Pad2)*%
X171149921Y-46324981D03*
%TO.P,SW16,2,2*%
%TO.N,col6*%
X159599921Y-44124981D03*
%TD*%
%TO.P,SW4,1,1*%
%TO.N,Net-(D4-Pad2)*%
X137149937Y-29324989D03*
%TO.P,SW4,2,2*%
%TO.N,col4*%
X125599937Y-27124989D03*
%TD*%
%TO.P,SW1,1,1*%
%TO.N,Net-(D1-Pad2)*%
X79599961Y-17424989D03*
%TO.P,SW1,2,2*%
%TO.N,col1*%
X91149961Y-19624989D03*
%TD*%
%TO.P,SW29,1,1*%
%TO.N,Net-(D29-Pad2)*%
X222149897Y-63324973D03*
%TO.P,SW29,2,2*%
%TO.N,col9*%
X210599897Y-61124973D03*
%TD*%
%TO.P,SW15,1,1*%
%TO.N,Net-(D15-Pad2)*%
X154149929Y-46324981D03*
%TO.P,SW15,2,2*%
%TO.N,col5*%
X142599929Y-44124981D03*
%TD*%
%TO.P,SW34,1,1*%
%TO.N,Net-(D34-Pad2)*%
X137149937Y-80324965D03*
%TO.P,SW34,2,2*%
%TO.N,col4*%
X125599937Y-78124965D03*
%TD*%
%TO.P,SW6,1,1*%
%TO.N,Net-(D6-Pad2)*%
X171149921Y-29324989D03*
%TO.P,SW6,2,2*%
%TO.N,col6*%
X159599921Y-27124989D03*
%TD*%
%TO.P,SW10,1,1*%
%TO.N,Net-(D10-Pad2)*%
X239149889Y-29324989D03*
%TO.P,SW10,2,2*%
%TO.N,col10*%
X227599889Y-27124989D03*
%TD*%
%TO.P,SW33,1,1*%
%TO.N,Net-(D33-Pad2)*%
X120149945Y-80324965D03*
%TO.P,SW33,2,2*%
%TO.N,col3*%
X108599945Y-78124965D03*
%TD*%
%TO.P,SW27,1,1*%
%TO.N,Net-(D27-Pad2)*%
X188149913Y-63324973D03*
%TO.P,SW27,2,2*%
%TO.N,col7*%
X176599913Y-61124973D03*
%TD*%
%TO.P,SW30,1,1*%
%TO.N,Net-(D30-Pad2)*%
X239149889Y-63324973D03*
%TO.P,SW30,2,2*%
%TO.N,col10*%
X227599889Y-61124973D03*
%TD*%
%TO.P,SW7,1,1*%
%TO.N,Net-(D7-Pad2)*%
X188149913Y-29324989D03*
%TO.P,SW7,2,2*%
%TO.N,col7*%
X176599913Y-27124989D03*
%TD*%
%TO.P,SW19,1,1*%
%TO.N,Net-(D19-Pad2)*%
X222149897Y-46324981D03*
%TO.P,SW19,2,2*%
%TO.N,col9*%
X210599897Y-44124981D03*
%TD*%
%TO.P,SW40,1,1*%
%TO.N,Net-(D40-Pad2)*%
X239149889Y-80324965D03*
%TO.P,SW40,2,2*%
%TO.N,col10*%
X227599889Y-78124965D03*
%TD*%
%TO.P,SW24,1,1*%
%TO.N,Net-(D24-Pad2)*%
X137149937Y-63324973D03*
%TO.P,SW24,2,2*%
%TO.N,col4*%
X125599937Y-61124973D03*
%TD*%
%TO.P,SW32,1,1*%
%TO.N,Net-(D32-Pad2)*%
X103149953Y-80324965D03*
%TO.P,SW32,2,2*%
%TO.N,col2*%
X91599953Y-78124965D03*
%TD*%
%TO.P,SW5,1,1*%
%TO.N,Net-(D5-Pad2)*%
X154149929Y-29324989D03*
%TO.P,SW5,2,2*%
%TO.N,col5*%
X142599929Y-27124989D03*
%TD*%
%TO.P,SW31,1,1*%
%TO.N,Net-(D31-Pad2)*%
X79599961Y-68424965D03*
%TO.P,SW31,2,2*%
%TO.N,col1*%
X91149961Y-70624965D03*
%TD*%
%TO.P,SW38,1,1*%
%TO.N,Net-(D38-Pad2)*%
X205149905Y-80324965D03*
%TO.P,SW38,2,2*%
%TO.N,col8*%
X193599905Y-78124965D03*
%TD*%
%TO.P,SW35,1,1*%
%TO.N,Net-(D35-Pad2)*%
X154149929Y-80324965D03*
%TO.P,SW35,2,2*%
%TO.N,col5*%
X142599929Y-78124965D03*
%TD*%
%TO.P,SW18,1,1*%
%TO.N,Net-(D18-Pad2)*%
X205149905Y-46324981D03*
%TO.P,SW18,2,2*%
%TO.N,col8*%
X193599905Y-44124981D03*
%TD*%
%TO.P,SW3,1,1*%
%TO.N,Net-(D3-Pad2)*%
X120149945Y-29324989D03*
%TO.P,SW3,2,2*%
%TO.N,col3*%
X108599945Y-27124989D03*
%TD*%
%TO.P,SW9,1,1*%
%TO.N,Net-(D9-Pad2)*%
X222149897Y-29324989D03*
%TO.P,SW9,2,2*%
%TO.N,col9*%
X210599897Y-27124989D03*
%TD*%
%TO.P,SW14,1,1*%
%TO.N,Net-(D14-Pad2)*%
X137149937Y-46324981D03*
%TO.P,SW14,2,2*%
%TO.N,col4*%
X125599937Y-44124981D03*
%TD*%
%TO.P,SW21,1,1*%
%TO.N,Net-(D21-Pad2)*%
X79599961Y-51424973D03*
%TO.P,SW21,2,2*%
%TO.N,col1*%
X91149961Y-53624973D03*
%TD*%
%TO.P,SW2,1,1*%
%TO.N,Net-(D2-Pad2)*%
X103149953Y-29324989D03*
%TO.P,SW2,2,2*%
%TO.N,col2*%
X91599953Y-27124989D03*
%TD*%
%TO.P,SW12,1,1*%
%TO.N,Net-(D12-Pad2)*%
X103149953Y-46324981D03*
%TO.P,SW12,2,2*%
%TO.N,col2*%
X91599953Y-44124981D03*
%TD*%
%TO.P,SW36,1,1*%
%TO.N,Net-(D36-Pad2)*%
X171149921Y-80324965D03*
%TO.P,SW36,2,2*%
%TO.N,col6*%
X159599921Y-78124965D03*
%TD*%
%TO.P,SW22,1,1*%
%TO.N,Net-(D22-Pad2)*%
X103149953Y-63324973D03*
%TO.P,SW22,2,2*%
%TO.N,col2*%
X91599953Y-61124973D03*
%TD*%
%TO.P,SW28,1,1*%
%TO.N,Net-(D28-Pad2)*%
X205149905Y-63324973D03*
%TO.P,SW28,2,2*%
%TO.N,col8*%
X193599905Y-61124973D03*
%TD*%
%TO.P,SW37,1,1*%
%TO.N,Net-(D37-Pad2)*%
X188149913Y-80324965D03*
%TO.P,SW37,2,2*%
%TO.N,col7*%
X176599913Y-78124965D03*
%TD*%
%TO.P,SW11,1,1*%
%TO.N,Net-(D11-Pad2)*%
X79599961Y-34424981D03*
%TO.P,SW11,2,2*%
%TO.N,col1*%
X91149961Y-36624981D03*
%TD*%
%TO.P,SW39,1,1*%
%TO.N,Net-(D39-Pad2)*%
X222149897Y-80324965D03*
%TO.P,SW39,2,2*%
%TO.N,col9*%
X210599897Y-78124965D03*
%TD*%
%TO.P,SW8,1,1*%
%TO.N,Net-(D8-Pad2)*%
X205149905Y-29324989D03*
%TO.P,SW8,2,2*%
%TO.N,col8*%
X193599905Y-27124989D03*
%TD*%
D11*
%TO.P,D35,1,K*%
%TO.N,row4*%
X156541593Y-78283296D03*
%TO.P,D35,2,A*%
%TO.N,Net-(D35-Pad2)*%
X156541593Y-80383296D03*
%TD*%
%TO.P,D31,1,K*%
%TO.N,row4*%
X88541625Y-78283296D03*
%TO.P,D31,2,A*%
%TO.N,Net-(D31-Pad2)*%
X88541625Y-80383296D03*
%TD*%
%TO.P,D30,1,K*%
%TO.N,row3*%
X241541553Y-61283304D03*
%TO.P,D30,2,A*%
%TO.N,Net-(D30-Pad2)*%
X241541553Y-63383304D03*
%TD*%
%TO.P,D34,1,K*%
%TO.N,row4*%
X139541601Y-78283296D03*
%TO.P,D34,2,A*%
%TO.N,Net-(D34-Pad2)*%
X139541601Y-80383296D03*
%TD*%
D12*
%TO.P,C5,1*%
%TO.N,+5V*%
X105839411Y-33089411D03*
%TO.P,C5,2*%
%TO.N,GND*%
X105160589Y-32410589D03*
%TD*%
D13*
%TO.P,R4,1*%
%TO.N,D+*%
X114250000Y-23240000D03*
%TO.P,R4,2*%
%TO.N,D_res+*%
X114250000Y-24260000D03*
%TD*%
D11*
%TO.P,D11,1,K*%
%TO.N,row2*%
X88541625Y-44283312D03*
%TO.P,D11,2,A*%
%TO.N,Net-(D11-Pad2)*%
X88541625Y-46383312D03*
%TD*%
%TO.P,D8,1,K*%
%TO.N,row1*%
X207541569Y-27283320D03*
%TO.P,D8,2,A*%
%TO.N,Net-(D8-Pad2)*%
X207541569Y-29383320D03*
%TD*%
%TO.P,D22,1,K*%
%TO.N,row3*%
X105541617Y-61283304D03*
%TO.P,D22,2,A*%
%TO.N,Net-(D22-Pad2)*%
X105541617Y-63383304D03*
%TD*%
%TO.P,D24,1,K*%
%TO.N,row3*%
X139541601Y-61283304D03*
%TO.P,D24,2,A*%
%TO.N,Net-(D24-Pad2)*%
X139541601Y-63383304D03*
%TD*%
D14*
%TO.P,C4,1*%
%TO.N,+5V*%
X116660589Y-36539411D03*
%TO.P,C4,2*%
%TO.N,GND*%
X117339411Y-35860589D03*
%TD*%
D15*
%TO.P,U1,1,PE6*%
%TO.N,unconnected-(U1-Pad1)*%
X111800483Y-30580581D03*
%TO.P,U1,2,UVCC*%
%TO.N,+5V*%
X112154036Y-30934135D03*
%TO.P,U1,3,D-*%
%TO.N,D_res-*%
X112507590Y-31287688D03*
%TO.P,U1,4,D+*%
%TO.N,D_res+*%
X112861143Y-31641241D03*
%TO.P,U1,5,UGND*%
%TO.N,GND*%
X113214696Y-31994795D03*
%TO.P,U1,6,UCAP*%
%TO.N,Net-(C3-Pad1)*%
X113568250Y-32348348D03*
%TO.P,U1,7,VBUS*%
%TO.N,+5V*%
X113921803Y-32701902D03*
%TO.P,U1,8,PB0*%
%TO.N,unconnected-(U1-Pad8)*%
X114275357Y-33055455D03*
%TO.P,U1,9,PB1*%
%TO.N,unconnected-(U1-Pad9)*%
X114628910Y-33409008D03*
%TO.P,U1,10,PB2*%
%TO.N,unconnected-(U1-Pad10)*%
X114982463Y-33762562D03*
%TO.P,U1,11,PB3*%
%TO.N,unconnected-(U1-Pad11)*%
X115336017Y-34116115D03*
D16*
%TO.P,U1,12,PB7*%
%TO.N,unconnected-(U1-Pad12)*%
X115336017Y-35300519D03*
%TO.P,U1,13,~{RESET}*%
%TO.N,Net-(B1-Pad2)*%
X114982463Y-35654072D03*
%TO.P,U1,14,VCC*%
%TO.N,+5V*%
X114628910Y-36007626D03*
%TO.P,U1,15,GND*%
%TO.N,GND*%
X114275357Y-36361179D03*
%TO.P,U1,16,XTAL2*%
%TO.N,Net-(C2-Pad2)*%
X113921803Y-36714732D03*
%TO.P,U1,17,XTAL1*%
%TO.N,Net-(C1-Pad2)*%
X113568250Y-37068286D03*
%TO.P,U1,18,PD0*%
%TO.N,col10*%
X113214696Y-37421839D03*
%TO.P,U1,19,PD1*%
%TO.N,col9*%
X112861143Y-37775393D03*
%TO.P,U1,20,PD2*%
%TO.N,col8*%
X112507590Y-38128946D03*
%TO.P,U1,21,PD3*%
%TO.N,col7*%
X112154036Y-38482499D03*
%TO.P,U1,22,PD5*%
%TO.N,col6*%
X111800483Y-38836053D03*
D15*
%TO.P,U1,23,GND*%
%TO.N,GND*%
X110616079Y-38836053D03*
%TO.P,U1,24,AVCC*%
%TO.N,+5V*%
X110262526Y-38482499D03*
%TO.P,U1,25,PD4*%
%TO.N,col5*%
X109908972Y-38128946D03*
%TO.P,U1,26,PD6*%
%TO.N,col4*%
X109555419Y-37775393D03*
%TO.P,U1,27,PD7*%
%TO.N,col3*%
X109201866Y-37421839D03*
%TO.P,U1,28,PB4*%
%TO.N,col2*%
X108848312Y-37068286D03*
%TO.P,U1,29,PB5*%
%TO.N,col1*%
X108494759Y-36714732D03*
%TO.P,U1,30,PB6*%
%TO.N,unconnected-(U1-Pad30)*%
X108141205Y-36361179D03*
%TO.P,U1,31,PC6*%
%TO.N,unconnected-(U1-Pad31)*%
X107787652Y-36007626D03*
%TO.P,U1,32,PC7*%
%TO.N,unconnected-(U1-Pad32)*%
X107434099Y-35654072D03*
%TO.P,U1,33,~{HWB}/PE2*%
%TO.N,Net-(R6-Pad1)*%
X107080545Y-35300519D03*
D16*
%TO.P,U1,34,VCC*%
%TO.N,+5V*%
X107080545Y-34116115D03*
%TO.P,U1,35,GND*%
%TO.N,GND*%
X107434099Y-33762562D03*
%TO.P,U1,36,PF7*%
%TO.N,unconnected-(U1-Pad36)*%
X107787652Y-33409008D03*
%TO.P,U1,37,PF6*%
%TO.N,unconnected-(U1-Pad37)*%
X108141205Y-33055455D03*
%TO.P,U1,38,PF5*%
%TO.N,row4*%
X108494759Y-32701902D03*
%TO.P,U1,39,PF4*%
%TO.N,row3*%
X108848312Y-32348348D03*
%TO.P,U1,40,PF1*%
%TO.N,row2*%
X109201866Y-31994795D03*
%TO.P,U1,41,PF0*%
%TO.N,row1*%
X109555419Y-31641241D03*
%TO.P,U1,42,AREF*%
%TO.N,unconnected-(U1-Pad42)*%
X109908972Y-31287688D03*
%TO.P,U1,43,GND*%
%TO.N,GND*%
X110262526Y-30934135D03*
%TO.P,U1,44,AVCC*%
%TO.N,+5V*%
X110616079Y-30580581D03*
D17*
%TO.P,U1,45,GND*%
%TO.N,GND*%
X111208281Y-34708317D03*
%TD*%
D11*
%TO.P,D27,1,K*%
%TO.N,row3*%
X190541577Y-61283304D03*
%TO.P,D27,2,A*%
%TO.N,Net-(D27-Pad2)*%
X190541577Y-63383304D03*
%TD*%
%TO.P,D4,1,K*%
%TO.N,row1*%
X139541601Y-27283320D03*
%TO.P,D4,2,A*%
%TO.N,Net-(D4-Pad2)*%
X139541601Y-29383320D03*
%TD*%
%TO.P,D40,1,K*%
%TO.N,row4*%
X241541553Y-78283296D03*
%TO.P,D40,2,A*%
%TO.N,Net-(D40-Pad2)*%
X241541553Y-80383296D03*
%TD*%
%TO.P,D29,1,K*%
%TO.N,row3*%
X224541561Y-61283304D03*
%TO.P,D29,2,A*%
%TO.N,Net-(D29-Pad2)*%
X224541561Y-63383304D03*
%TD*%
%TO.P,D28,1,K*%
%TO.N,row3*%
X207541569Y-61283304D03*
%TO.P,D28,2,A*%
%TO.N,Net-(D28-Pad2)*%
X207541569Y-63383304D03*
%TD*%
%TO.P,D33,1,K*%
%TO.N,row4*%
X122541609Y-78283296D03*
%TO.P,D33,2,A*%
%TO.N,Net-(D33-Pad2)*%
X122541609Y-80383296D03*
%TD*%
%TO.P,D15,1,K*%
%TO.N,row2*%
X156541593Y-44283312D03*
%TO.P,D15,2,A*%
%TO.N,Net-(D15-Pad2)*%
X156541593Y-46383312D03*
%TD*%
%TO.P,D9,1,K*%
%TO.N,row1*%
X224541561Y-27283320D03*
%TO.P,D9,2,A*%
%TO.N,Net-(D9-Pad2)*%
X224541561Y-29383320D03*
%TD*%
%TO.P,D21,1,K*%
%TO.N,row3*%
X88541625Y-61283304D03*
%TO.P,D21,2,A*%
%TO.N,Net-(D21-Pad2)*%
X88541625Y-63383304D03*
%TD*%
D18*
%TO.P,C2,1*%
%TO.N,GND*%
X119520000Y-34000000D03*
%TO.P,C2,2*%
%TO.N,Net-(C2-Pad2)*%
X120480000Y-34000000D03*
%TD*%
D19*
%TO.P,Y1,1,1*%
%TO.N,Net-(C1-Pad2)*%
X118900000Y-37850000D03*
%TO.P,Y1,2,2*%
%TO.N,GND*%
X118900000Y-35650000D03*
%TO.P,Y1,3,3*%
%TO.N,Net-(C2-Pad2)*%
X120600000Y-35650000D03*
%TO.P,Y1,4,4*%
%TO.N,GND*%
X120600000Y-37850000D03*
%TD*%
D11*
%TO.P,D32,1,K*%
%TO.N,row4*%
X105541617Y-78283296D03*
%TO.P,D32,2,A*%
%TO.N,Net-(D32-Pad2)*%
X105541617Y-80383296D03*
%TD*%
D13*
%TO.P,R5,1*%
%TO.N,D-*%
X113000000Y-23240000D03*
%TO.P,R5,2*%
%TO.N,D_res-*%
X113000000Y-24260000D03*
%TD*%
D11*
%TO.P,D19,1,K*%
%TO.N,row2*%
X224541561Y-44283312D03*
%TO.P,D19,2,A*%
%TO.N,Net-(D19-Pad2)*%
X224541561Y-46383312D03*
%TD*%
%TO.P,D10,1,K*%
%TO.N,row1*%
X241541553Y-27283320D03*
%TO.P,D10,2,A*%
%TO.N,Net-(D10-Pad2)*%
X241541553Y-29383320D03*
%TD*%
%TO.P,D14,1,K*%
%TO.N,row2*%
X139541601Y-44283312D03*
%TO.P,D14,2,A*%
%TO.N,Net-(D14-Pad2)*%
X139541601Y-46383312D03*
%TD*%
%TO.P,D6,1,K*%
%TO.N,row1*%
X173541585Y-27283320D03*
%TO.P,D6,2,A*%
%TO.N,Net-(D6-Pad2)*%
X173541585Y-29383320D03*
%TD*%
D20*
%TO.P,C7,1*%
%TO.N,+5V*%
X109689411Y-29535589D03*
%TO.P,C7,2*%
%TO.N,GND*%
X109010589Y-30214411D03*
%TD*%
D11*
%TO.P,D18,1,K*%
%TO.N,row2*%
X207541569Y-44283312D03*
%TO.P,D18,2,A*%
%TO.N,Net-(D18-Pad2)*%
X207541569Y-46383312D03*
%TD*%
D21*
%TO.P,R6,1*%
%TO.N,Net-(R6-Pad1)*%
X104760000Y-35000000D03*
%TO.P,R6,2*%
%TO.N,GND*%
X103740000Y-35000000D03*
%TD*%
D11*
%TO.P,D16,1,K*%
%TO.N,row2*%
X173541585Y-44283312D03*
%TO.P,D16,2,A*%
%TO.N,Net-(D16-Pad2)*%
X173541585Y-46383312D03*
%TD*%
%TO.P,D13,1,K*%
%TO.N,row2*%
X122541609Y-44283312D03*
%TO.P,D13,2,A*%
%TO.N,Net-(D13-Pad2)*%
X122541609Y-46383312D03*
%TD*%
%TO.P,D25,1,K*%
%TO.N,row3*%
X156541593Y-61283304D03*
%TO.P,D25,2,A*%
%TO.N,Net-(D25-Pad2)*%
X156541593Y-63383304D03*
%TD*%
D22*
%TO.P,B1,1,1*%
%TO.N,GND*%
X136940000Y-33820000D03*
X130740000Y-33820000D03*
%TO.P,B1,2,2*%
%TO.N,Net-(B1-Pad2)*%
X136940000Y-37520000D03*
X130740000Y-37520000D03*
%TD*%
D11*
%TO.P,D26,1,K*%
%TO.N,row3*%
X173541585Y-61283304D03*
%TO.P,D26,2,A*%
%TO.N,Net-(D26-Pad2)*%
X173541585Y-63383304D03*
%TD*%
%TO.P,D1,1,K*%
%TO.N,row1*%
X88541625Y-27283320D03*
%TO.P,D1,2,A*%
%TO.N,Net-(D1-Pad2)*%
X88541625Y-29383320D03*
%TD*%
%TO.P,D3,1,K*%
%TO.N,row1*%
X122541609Y-27283320D03*
%TO.P,D3,2,A*%
%TO.N,Net-(D3-Pad2)*%
X122541609Y-29383320D03*
%TD*%
D18*
%TO.P,C6,1*%
%TO.N,+5V*%
X108831615Y-40374981D03*
%TO.P,C6,2*%
%TO.N,GND*%
X109791615Y-40374981D03*
%TD*%
D11*
%TO.P,D7,1,K*%
%TO.N,row1*%
X190541577Y-27283320D03*
%TO.P,D7,2,A*%
%TO.N,Net-(D7-Pad2)*%
X190541577Y-29383320D03*
%TD*%
D23*
%TO.P,R3,1*%
%TO.N,Net-(J1-PadB5)*%
X116990000Y-21000000D03*
%TO.P,R3,2*%
%TO.N,GND*%
X118010000Y-21000000D03*
%TD*%
D11*
%TO.P,D23,1,K*%
%TO.N,row3*%
X122541609Y-61283304D03*
%TO.P,D23,2,A*%
%TO.N,Net-(D23-Pad2)*%
X122541609Y-63383304D03*
%TD*%
D24*
%TO.P,C1,1*%
%TO.N,GND*%
X120730000Y-39500000D03*
%TO.P,C1,2*%
%TO.N,Net-(C1-Pad2)*%
X119770000Y-39500000D03*
%TD*%
D11*
%TO.P,D17,1,K*%
%TO.N,row2*%
X190541577Y-44283312D03*
%TO.P,D17,2,A*%
%TO.N,Net-(D17-Pad2)*%
X190541577Y-46383312D03*
%TD*%
D25*
%TO.P,J1,A1,GND*%
%TO.N,GND*%
X107858281Y-20669992D03*
%TO.P,J1,A4,VBUS*%
%TO.N,VBUS*%
X108658281Y-20669992D03*
%TO.P,J1,A5,CC1*%
%TO.N,Net-(J1-PadA5)*%
X109958281Y-20669992D03*
%TO.P,J1,A6,D+*%
%TO.N,D+*%
X110958281Y-20669992D03*
%TO.P,J1,A7,D-*%
%TO.N,D-*%
X111458281Y-20669992D03*
%TO.P,J1,A8,SBU1*%
%TO.N,unconnected-(J1-PadA8)*%
X112458281Y-20669992D03*
%TO.P,J1,A9,VBUS*%
%TO.N,VBUS*%
X113758281Y-20669992D03*
%TO.P,J1,A12,GND*%
%TO.N,GND*%
X114558281Y-20669992D03*
%TO.P,J1,B1,GND*%
X114258281Y-20669992D03*
%TO.P,J1,B4,VBUS*%
%TO.N,VBUS*%
X113458281Y-20669992D03*
%TO.P,J1,B5,CC2*%
%TO.N,Net-(J1-PadB5)*%
X112958281Y-20669992D03*
%TO.P,J1,B6,D+*%
%TO.N,D+*%
X111958281Y-20669992D03*
%TO.P,J1,B7,D-*%
%TO.N,D-*%
X110458281Y-20669992D03*
%TO.P,J1,B8,SBU2*%
%TO.N,unconnected-(J1-PadB8)*%
X109458281Y-20669992D03*
%TO.P,J1,B9,VBUS*%
%TO.N,VBUS*%
X108958281Y-20669992D03*
%TO.P,J1,B12,GND*%
%TO.N,GND*%
X108158281Y-20669992D03*
D26*
%TO.P,J1,S1,SHIELD*%
X106888281Y-20104992D03*
D27*
X106888281Y-15924992D03*
X115528281Y-15924992D03*
D26*
X115528281Y-20104992D03*
%TD*%
D11*
%TO.P,D12,1,K*%
%TO.N,row2*%
X105541617Y-44283312D03*
%TO.P,D12,2,A*%
%TO.N,Net-(D12-Pad2)*%
X105541617Y-46383312D03*
%TD*%
%TO.P,D5,1,K*%
%TO.N,row1*%
X156541593Y-27283320D03*
%TO.P,D5,2,A*%
%TO.N,Net-(D5-Pad2)*%
X156541593Y-29383320D03*
%TD*%
%TO.P,D37,1,K*%
%TO.N,row4*%
X190541577Y-78283296D03*
%TO.P,D37,2,A*%
%TO.N,Net-(D37-Pad2)*%
X190541577Y-80383296D03*
%TD*%
%TO.P,D36,1,K*%
%TO.N,row4*%
X173541585Y-78283296D03*
%TO.P,D36,2,A*%
%TO.N,Net-(D36-Pad2)*%
X173541585Y-80383296D03*
%TD*%
D28*
%TO.P,F1,1*%
%TO.N,VBUS*%
X103000000Y-22600000D03*
%TO.P,F1,2*%
%TO.N,+5V*%
X103000000Y-25400000D03*
%TD*%
D29*
%TO.P,C3,1*%
%TO.N,Net-(C3-Pad1)*%
X117140589Y-31980589D03*
%TO.P,C3,2*%
%TO.N,GND*%
X117819411Y-32659411D03*
%TD*%
D13*
%TO.P,R2,1*%
%TO.N,Net-(J1-PadA5)*%
X107750000Y-22480000D03*
%TO.P,R2,2*%
%TO.N,GND*%
X107750000Y-23500000D03*
%TD*%
D11*
%TO.P,D39,1,K*%
%TO.N,row4*%
X224541561Y-78283296D03*
%TO.P,D39,2,A*%
%TO.N,Net-(D39-Pad2)*%
X224541561Y-80383296D03*
%TD*%
D13*
%TO.P,R1,1*%
%TO.N,+5V*%
X128950000Y-35100000D03*
%TO.P,R1,2*%
%TO.N,Net-(B1-Pad2)*%
X128950000Y-36120000D03*
%TD*%
D11*
%TO.P,D20,1,K*%
%TO.N,row2*%
X241541553Y-44283312D03*
%TO.P,D20,2,A*%
%TO.N,Net-(D20-Pad2)*%
X241541553Y-46383312D03*
%TD*%
%TO.P,D38,1,K*%
%TO.N,row4*%
X207541569Y-78283296D03*
%TO.P,D38,2,A*%
%TO.N,Net-(D38-Pad2)*%
X207541569Y-80383296D03*
%TD*%
%TO.P,D2,1,K*%
%TO.N,row1*%
X105541617Y-27283320D03*
%TO.P,D2,2,A*%
%TO.N,Net-(D2-Pad2)*%
X105541617Y-29383320D03*
%TD*%
D30*
%TO.N,GND*%
X103800000Y-34224500D03*
X126791607Y-29749986D03*
X106760000Y-24220000D03*
X103900000Y-32775500D03*
X124666608Y-29749986D03*
%TO.N,Net-(B1-Pad2)*%
X117760089Y-34400000D03*
X115838365Y-34638365D03*
%TO.N,Net-(C2-Pad2)*%
X121934486Y-37521348D03*
X115474446Y-38249982D03*
%TO.N,+5V*%
X111938982Y-29500000D03*
X115400000Y-31614500D03*
X123249942Y-31874985D03*
X127499940Y-33999984D03*
%TO.N,row1*%
X114041613Y-16775500D03*
X123400000Y-27200000D03*
X207541569Y-26208321D03*
X140400000Y-27200000D03*
X173541585Y-26208321D03*
X241541553Y-26208321D03*
X116874945Y-16999992D03*
X122600000Y-26400000D03*
X88600000Y-25000000D03*
X155800000Y-27200000D03*
X172800000Y-27200000D03*
X190541577Y-26208321D03*
X157400000Y-27200000D03*
X103800000Y-27000000D03*
X224541561Y-26208321D03*
X138800000Y-27200000D03*
%TO.N,Net-(D3-Pad2)*%
X122541609Y-28333320D03*
X120416610Y-26916654D03*
%TO.N,row2*%
X241541553Y-43208313D03*
X190541577Y-43208313D03*
X224541561Y-43208313D03*
X106356406Y-29790789D03*
X156541593Y-43208313D03*
X122541609Y-43208313D03*
X207541569Y-43208313D03*
X112425408Y-46749978D03*
X107666616Y-46749978D03*
X123958275Y-47100980D03*
X88541625Y-43208313D03*
X173541585Y-43208313D03*
X139541601Y-43208313D03*
X123958275Y-54541641D03*
X112624947Y-54541641D03*
X104626176Y-43415420D03*
%TO.N,row3*%
X98208767Y-59250452D03*
X103703597Y-36061495D03*
X207541569Y-60208305D03*
X190541577Y-60208305D03*
X97749954Y-38249982D03*
X105049454Y-30220001D03*
X224541561Y-60208305D03*
X122541609Y-60208305D03*
X101999952Y-36124983D03*
X97749954Y-41574981D03*
X105541617Y-60208305D03*
X173541585Y-60208305D03*
X241541553Y-60208305D03*
X139541601Y-60208305D03*
X156541593Y-60208305D03*
X99874953Y-36124983D03*
X88541625Y-60208305D03*
%TO.N,row4*%
X190541577Y-77208297D03*
X122541609Y-77208297D03*
X95984531Y-40026225D03*
X96333288Y-32583318D03*
X173541585Y-77208297D03*
X88541625Y-77208297D03*
X96792101Y-76250444D03*
X105541617Y-77208297D03*
X156541593Y-77208297D03*
X241541553Y-77208297D03*
X139541601Y-77208297D03*
X100262268Y-31487670D03*
X96333288Y-41791647D03*
X224541561Y-77208297D03*
X207541569Y-77208297D03*
%TO.N,VBUS*%
X113750000Y-18500000D03*
X111750000Y-18500000D03*
%TO.N,col1*%
X90000442Y-31800442D03*
X100525500Y-37200000D03*
X98462701Y-31737299D03*
X101974500Y-37200000D03*
%TO.N,col2*%
X99735416Y-37812187D03*
X102397256Y-38105693D03*
%TO.N,col3*%
X103000000Y-40800000D03*
X108600000Y-42000000D03*
X103104011Y-38812449D03*
X108599945Y-28775500D03*
%TO.N,col4*%
X128208273Y-33291651D03*
X125600000Y-48899500D03*
X103887548Y-39595985D03*
X128916606Y-38249982D03*
X103705378Y-42494622D03*
X103800000Y-44200000D03*
%TO.N,col5*%
X106800000Y-40885500D03*
X142600000Y-48200000D03*
%TO.N,col6*%
X113400000Y-49600000D03*
X159600000Y-49600000D03*
%TO.N,col7*%
X113954424Y-50431636D03*
X176599913Y-55024978D03*
X176600000Y-50400000D03*
%TO.N,col8*%
X114749946Y-51131136D03*
X193600000Y-51400000D03*
%TO.N,col9*%
X210599897Y-55024978D03*
X115458279Y-54463285D03*
%TO.N,col10*%
X227374893Y-46749978D03*
X115800000Y-44400000D03*
%TD*%
D31*
%TO.N,GND*%
X115292668Y-37378490D02*
X116921510Y-37378490D01*
X116921510Y-37378490D02*
X117422488Y-37378490D01*
X117344311Y-35865489D02*
X117344311Y-36955689D01*
X117344311Y-36955689D02*
X116921510Y-37378490D01*
X117339411Y-35860589D02*
X117344311Y-35865489D01*
X110262526Y-30934135D02*
X109617802Y-30289411D01*
D32*
X105171178Y-32400000D02*
X106178282Y-32400000D01*
X105160589Y-32410589D02*
X105171178Y-32400000D01*
D31*
X111029615Y-37299615D02*
X106250934Y-32520934D01*
X118900000Y-35750000D02*
X120600000Y-37450000D01*
X109617802Y-30289411D02*
X109085589Y-30289411D01*
X108379854Y-34708317D02*
X111208281Y-34708317D01*
D32*
X121749456Y-30920544D02*
X123496050Y-30920544D01*
X126791607Y-29871607D02*
X130740000Y-33820000D01*
D31*
X110616079Y-38836053D02*
X110030000Y-39422132D01*
X111208281Y-38209175D02*
X111208281Y-34708317D01*
X114275357Y-36361179D02*
X112622495Y-34708317D01*
X120600000Y-37450000D02*
X120600000Y-37850000D01*
D32*
X121745500Y-30924500D02*
X121749456Y-30920544D01*
D31*
X107480000Y-23500000D02*
X106760000Y-24220000D01*
X107453281Y-20669992D02*
X106888281Y-20104992D01*
D32*
X103740000Y-34284500D02*
X103800000Y-34224500D01*
D31*
X114963281Y-20669992D02*
X115528281Y-20104992D01*
X113214696Y-31994795D02*
X111208281Y-34001210D01*
X110030000Y-40136596D02*
X109791615Y-40374981D01*
D32*
X121749456Y-24739456D02*
X118010000Y-21000000D01*
D31*
X110262526Y-30934135D02*
X111208281Y-31879890D01*
X111208281Y-34001210D02*
X111208281Y-34708317D01*
X119520000Y-35030000D02*
X118900000Y-35650000D01*
D32*
X106178282Y-32400000D02*
X108486599Y-34708317D01*
X121749456Y-30920544D02*
X121749456Y-24739456D01*
D31*
X108158281Y-20669992D02*
X107453281Y-20669992D01*
X114275357Y-36361179D02*
X115292668Y-37378490D01*
D32*
X130740000Y-33820000D02*
X136940000Y-33820000D01*
D31*
X118900000Y-35900978D02*
X118900000Y-35650000D01*
D32*
X119554322Y-30924500D02*
X121745500Y-30924500D01*
D31*
X120730000Y-37980000D02*
X120600000Y-37850000D01*
X120730000Y-39500000D02*
X120730000Y-37980000D01*
D32*
X108486599Y-34708317D02*
X111208281Y-34708317D01*
X117819411Y-32659411D02*
X119554322Y-30924500D01*
D31*
X119520000Y-34000000D02*
X119520000Y-35030000D01*
X114258281Y-20669992D02*
X114963281Y-20669992D01*
X118710589Y-35460589D02*
X118900000Y-35650000D01*
X112622495Y-34708317D02*
X111208281Y-34708317D01*
D32*
X103900000Y-32775500D02*
X104795678Y-32775500D01*
D31*
X110030000Y-39422132D02*
X110030000Y-40136596D01*
X111029615Y-38422517D02*
X111029615Y-37299615D01*
X109085589Y-30289411D02*
X109010589Y-30214411D01*
X117422488Y-37378490D02*
X118900000Y-35900978D01*
X118900000Y-35650000D02*
X118900000Y-35750000D01*
D32*
X123496050Y-30920544D02*
X124666608Y-29749986D01*
X103740000Y-35000000D02*
X103740000Y-34284500D01*
D31*
X107750000Y-23500000D02*
X107480000Y-23500000D01*
D32*
X126791607Y-29749986D02*
X126791607Y-29871607D01*
D31*
X107434099Y-33762562D02*
X108379854Y-34708317D01*
X110616079Y-38801377D02*
X111208281Y-38209175D01*
D32*
X104795678Y-32775500D02*
X105160589Y-32410589D01*
D31*
X111208281Y-31879890D02*
X111208281Y-34708317D01*
D32*
%TO.N,Net-(B1-Pad2)*%
X115371000Y-36042609D02*
X115777653Y-36042609D01*
X125835203Y-33324506D02*
X128630697Y-36120000D01*
X114982463Y-35654072D02*
X115371000Y-36042609D01*
X129640000Y-37520000D02*
X130740000Y-37520000D01*
X119494506Y-33324506D02*
X125835203Y-33324506D01*
X115777653Y-36042609D02*
X116078107Y-35742155D01*
X128950000Y-36830000D02*
X129640000Y-37520000D01*
X128950000Y-36120000D02*
X128950000Y-36830000D01*
X128630697Y-36120000D02*
X128950000Y-36120000D01*
X116078107Y-35742155D02*
X116078107Y-34878107D01*
X117760089Y-34400000D02*
X117770000Y-34400000D01*
X119170000Y-33000000D02*
X119494506Y-33324506D01*
X117770000Y-34400000D02*
X119170000Y-33000000D01*
X116078107Y-34878107D02*
X115838365Y-34638365D01*
X130740000Y-37520000D02*
X136940000Y-37520000D01*
D31*
%TO.N,Net-(C1-Pad2)*%
X114749946Y-38249982D02*
X114749946Y-41204305D01*
X119770000Y-40434249D02*
X119770000Y-39500000D01*
X118900000Y-37850000D02*
X118900000Y-38630000D01*
X113568250Y-37068286D02*
X114749946Y-38249982D01*
X114749946Y-41204305D02*
X116009643Y-42464002D01*
X116009643Y-42464002D02*
X117740247Y-42464002D01*
X117740247Y-42464002D02*
X119770000Y-40434249D01*
X118900000Y-38630000D02*
X119770000Y-39500000D01*
%TO.N,Net-(C2-Pad2)*%
X121934486Y-37521348D02*
X120600000Y-35650000D01*
X120600000Y-34120000D02*
X120480000Y-34000000D01*
X115433478Y-38226407D02*
X115450871Y-38226407D01*
X113921803Y-36714732D02*
X115433478Y-38226407D01*
X115450871Y-38226407D02*
X115474446Y-38249982D01*
X120600000Y-35650000D02*
X120600000Y-34120000D01*
%TO.N,Net-(C3-Pad1)*%
X116810589Y-31980589D02*
X117140589Y-31980589D01*
X113568250Y-32348348D02*
X113639641Y-32348348D01*
X113639641Y-32348348D02*
X115097989Y-30890000D01*
X115097989Y-30890000D02*
X115720000Y-30890000D01*
X115720000Y-30890000D02*
X116810589Y-31980589D01*
%TO.N,+5V*%
X128599956Y-35100000D02*
X127499940Y-33999984D01*
X105839411Y-33089411D02*
X106053841Y-33089411D01*
X98000432Y-28548536D02*
X98000432Y-30250432D01*
X104876964Y-41610000D02*
X107376930Y-41610000D01*
X119515015Y-31874985D02*
X119009520Y-32380480D01*
X107376930Y-41610000D02*
X109230000Y-39756930D01*
X113921803Y-32701902D02*
X115009205Y-31614500D01*
D32*
X117145500Y-33360000D02*
X118030000Y-33360000D01*
D31*
X110580581Y-30580581D02*
X109500000Y-29500000D01*
X109230000Y-39515025D02*
X110262526Y-38482499D01*
X112154036Y-30934135D02*
X112567572Y-30520599D01*
X107725934Y-29500000D02*
X106975434Y-28749500D01*
X106053841Y-33089411D02*
X107080545Y-34116115D01*
X109500000Y-29500000D02*
X107725934Y-29500000D01*
X101250000Y-33500000D02*
X105428822Y-33500000D01*
X110616079Y-30580581D02*
X110580581Y-30580581D01*
X112567572Y-30128590D02*
X111938982Y-29500000D01*
X101148968Y-25400000D02*
X98000432Y-28548536D01*
X109230000Y-39750000D02*
X109230000Y-39515025D01*
D32*
X116660589Y-33844911D02*
X117145500Y-33360000D01*
D31*
X103000000Y-25400000D02*
X101148968Y-25400000D01*
X106975434Y-24944511D02*
X103455489Y-24944511D01*
X111938982Y-29500000D02*
X109500000Y-29500000D01*
D32*
X115251284Y-36630000D02*
X116570000Y-36630000D01*
D31*
X112567572Y-30520599D02*
X112567572Y-30128590D01*
X103455489Y-24944511D02*
X103000000Y-25400000D01*
X128950000Y-35100000D02*
X128599956Y-35100000D01*
D32*
X115400000Y-31614500D02*
X117145500Y-33360000D01*
D31*
X109230000Y-39756930D02*
X109230000Y-39750000D01*
D32*
X114628910Y-36007626D02*
X115251284Y-36630000D01*
D31*
X106975434Y-28749500D02*
X106975434Y-24944511D01*
X98000432Y-30250432D02*
X101250000Y-33500000D01*
X105428822Y-33500000D02*
X105839411Y-33089411D01*
X115009205Y-31614500D02*
X115400000Y-31614500D01*
X101250000Y-37983036D02*
X104876964Y-41610000D01*
D32*
X118030000Y-33360000D02*
X119009520Y-32380480D01*
D31*
X101250000Y-33500000D02*
X101250000Y-37983036D01*
X123249942Y-31874985D02*
X119515015Y-31874985D01*
D32*
X116660589Y-36539411D02*
X116660589Y-33844911D01*
D31*
%TO.N,row1*%
X103800000Y-27000000D02*
X105258297Y-27000000D01*
X173541585Y-27283320D02*
X173541585Y-26208321D01*
X155800000Y-27200000D02*
X156458273Y-27200000D01*
X122600000Y-26400000D02*
X122600000Y-27224929D01*
X107863698Y-29949520D02*
X107539736Y-29949520D01*
X122541609Y-27283320D02*
X123316680Y-27283320D01*
X123316680Y-27283320D02*
X123400000Y-27200000D01*
X224541561Y-26208321D02*
X224541561Y-27283320D01*
X156458273Y-27200000D02*
X156541593Y-27283320D01*
X173458265Y-27200000D02*
X173541585Y-27283320D01*
X88541625Y-27283320D02*
X88541625Y-25058375D01*
X105258297Y-27000000D02*
X105541617Y-27283320D01*
X88541625Y-25058375D02*
X88600000Y-25000000D01*
X138800000Y-27200000D02*
X139458281Y-27200000D01*
X241541553Y-26208321D02*
X241541553Y-27283320D01*
X105541617Y-27951401D02*
X105541617Y-27283320D01*
X156541593Y-27283320D02*
X157316680Y-27283320D01*
X109555419Y-31641241D02*
X107863698Y-29949520D01*
X122600000Y-27224929D02*
X122541609Y-27283320D01*
X114041613Y-16775500D02*
X114315625Y-17049512D01*
X157316680Y-27283320D02*
X157400000Y-27200000D01*
X139458281Y-27200000D02*
X139541601Y-27283320D01*
X114315625Y-17049512D02*
X116825425Y-17049512D01*
X139541601Y-27283320D02*
X140316680Y-27283320D01*
X116825425Y-17049512D02*
X116874945Y-16999992D01*
X190541577Y-26208321D02*
X190541577Y-27283320D01*
X140316680Y-27283320D02*
X140400000Y-27200000D01*
X172800000Y-27200000D02*
X173458265Y-27200000D01*
X107539736Y-29949520D02*
X105541617Y-27951401D01*
X207541569Y-26208321D02*
X207541569Y-27283320D01*
%TO.N,Net-(D1-Pad2)*%
X79599961Y-23054312D02*
X85928969Y-29383320D01*
X85928969Y-29383320D02*
X88541625Y-29383320D01*
X79599961Y-17424989D02*
X79599961Y-23054312D01*
%TO.N,Net-(D2-Pad2)*%
X105541617Y-29383320D02*
X103208284Y-29383320D01*
X103208284Y-29383320D02*
X103149953Y-29324989D01*
%TO.N,Net-(D3-Pad2)*%
X120149945Y-29324989D02*
X120149945Y-27183319D01*
X120149945Y-27183319D02*
X120416610Y-26916654D01*
X122541609Y-28333320D02*
X122541609Y-29383320D01*
%TO.N,Net-(D4-Pad2)*%
X137149937Y-29324989D02*
X139483270Y-29324989D01*
X139483270Y-29324989D02*
X139541601Y-29383320D01*
%TO.N,Net-(D5-Pad2)*%
X156483262Y-29324989D02*
X156541593Y-29383320D01*
X154149929Y-29324989D02*
X156483262Y-29324989D01*
%TO.N,Net-(D6-Pad2)*%
X173483254Y-29324989D02*
X173541585Y-29383320D01*
X171149921Y-29324989D02*
X173483254Y-29324989D01*
%TO.N,Net-(D7-Pad2)*%
X190483246Y-29324989D02*
X190541577Y-29383320D01*
X188149913Y-29324989D02*
X190483246Y-29324989D01*
%TO.N,Net-(D8-Pad2)*%
X207483238Y-29324989D02*
X207541569Y-29383320D01*
X205149905Y-29324989D02*
X207483238Y-29324989D01*
%TO.N,Net-(D9-Pad2)*%
X224483230Y-29324989D02*
X224541561Y-29383320D01*
X222149897Y-29324989D02*
X224483230Y-29324989D01*
%TO.N,Net-(D10-Pad2)*%
X239149889Y-29324989D02*
X241483222Y-29324989D01*
X241483222Y-29324989D02*
X241541553Y-29383320D01*
%TO.N,row2*%
X112624947Y-54541641D02*
X112624947Y-46949517D01*
X105541617Y-44624979D02*
X105541617Y-44283312D01*
X106964657Y-30399040D02*
X106356406Y-29790789D01*
X107666616Y-46749978D02*
X105541617Y-44624979D01*
X104626176Y-43415420D02*
X104673725Y-43415420D01*
X107606111Y-30399040D02*
X106964657Y-30399040D01*
X88541625Y-44283312D02*
X88541625Y-43208313D01*
X173541585Y-43208313D02*
X173541585Y-44283312D01*
X139541601Y-43208313D02*
X139541601Y-44283312D01*
X104673725Y-43415420D02*
X105541617Y-44283312D01*
X109201866Y-31994795D02*
X107606111Y-30399040D01*
X156541593Y-43208313D02*
X156541593Y-44283312D01*
X123958275Y-47100980D02*
X123958275Y-54541641D01*
X112624947Y-46949517D02*
X112425408Y-46749978D01*
X241541553Y-43208313D02*
X241541553Y-44283312D01*
X190541577Y-43208313D02*
X190541577Y-44283312D01*
X207541569Y-43208313D02*
X207541569Y-44283312D01*
X224541561Y-43208313D02*
X224541561Y-44283312D01*
X122541609Y-43208313D02*
X122541609Y-44283312D01*
%TO.N,Net-(D11-Pad2)*%
X79599961Y-34424981D02*
X79599961Y-40054304D01*
X85928969Y-46383312D02*
X88541625Y-46383312D01*
X79599961Y-40054304D02*
X85928969Y-46383312D01*
%TO.N,Net-(D12-Pad2)*%
X103149953Y-46324981D02*
X105483286Y-46324981D01*
X105483286Y-46324981D02*
X105541617Y-46383312D01*
%TO.N,Net-(D13-Pad2)*%
X122483278Y-46324981D02*
X122541609Y-46383312D01*
X120149945Y-46324981D02*
X122483278Y-46324981D01*
%TO.N,Net-(D14-Pad2)*%
X139483270Y-46324981D02*
X139541601Y-46383312D01*
X137149937Y-46324981D02*
X139483270Y-46324981D01*
%TO.N,Net-(D15-Pad2)*%
X156483262Y-46324981D02*
X156541593Y-46383312D01*
X154149929Y-46324981D02*
X156483262Y-46324981D01*
%TO.N,Net-(D16-Pad2)*%
X173483254Y-46324981D02*
X173541585Y-46383312D01*
X171149921Y-46324981D02*
X173483254Y-46324981D01*
%TO.N,Net-(D17-Pad2)*%
X190483246Y-46324981D02*
X190541577Y-46383312D01*
X188149913Y-46324981D02*
X190483246Y-46324981D01*
%TO.N,Net-(D18-Pad2)*%
X207483238Y-46324981D02*
X207541569Y-46383312D01*
X205149905Y-46324981D02*
X207483238Y-46324981D01*
%TO.N,Net-(D19-Pad2)*%
X224483230Y-46324981D02*
X224541561Y-46383312D01*
X222149897Y-46324981D02*
X224483230Y-46324981D01*
%TO.N,Net-(D20-Pad2)*%
X239149889Y-46324981D02*
X241483222Y-46324981D01*
X241483222Y-46324981D02*
X241541553Y-46383312D01*
%TO.N,row3*%
X107348524Y-30848560D02*
X105923970Y-30848560D01*
X207541569Y-60208305D02*
X207541569Y-61283304D01*
X190541577Y-60208305D02*
X190541577Y-61283304D01*
X97749954Y-41574981D02*
X97749954Y-58791639D01*
X241541553Y-60208305D02*
X241541553Y-61283304D01*
X122541609Y-60208305D02*
X122541609Y-61283304D01*
X103703597Y-36061495D02*
X102063440Y-36061495D01*
X105295411Y-30220001D02*
X105049454Y-30220001D01*
X105541617Y-60208305D02*
X105541617Y-61283304D01*
X105923970Y-30848560D02*
X105295411Y-30220001D01*
X156541593Y-60208305D02*
X156541593Y-61283304D01*
X102063440Y-36061495D02*
X101999952Y-36124983D01*
X224541561Y-60208305D02*
X224541561Y-61283304D01*
X97749954Y-58791639D02*
X98208767Y-59250452D01*
X108848312Y-32348348D02*
X107348524Y-30848560D01*
X173541585Y-60208305D02*
X173541585Y-61283304D01*
X139541601Y-60208305D02*
X139541601Y-61283304D01*
X99874953Y-36124983D02*
X97749954Y-38249982D01*
X88541625Y-61283304D02*
X88541625Y-60208305D01*
%TO.N,Net-(D21-Pad2)*%
X79599961Y-51424973D02*
X79599961Y-57054296D01*
X79599961Y-57054296D02*
X85928969Y-63383304D01*
X85928969Y-63383304D02*
X88541625Y-63383304D01*
%TO.N,Net-(D22-Pad2)*%
X103149953Y-63324973D02*
X105483286Y-63324973D01*
X105483286Y-63324973D02*
X105541617Y-63383304D01*
%TO.N,Net-(D23-Pad2)*%
X122483278Y-63324973D02*
X122541609Y-63383304D01*
X120149945Y-63324973D02*
X122483278Y-63324973D01*
%TO.N,Net-(D24-Pad2)*%
X139483270Y-63324973D02*
X139541601Y-63383304D01*
X137149937Y-63324973D02*
X139483270Y-63324973D01*
%TO.N,Net-(D25-Pad2)*%
X156483262Y-63324973D02*
X156541593Y-63383304D01*
X154149929Y-63324973D02*
X156483262Y-63324973D01*
%TO.N,Net-(D26-Pad2)*%
X171149921Y-63324973D02*
X173483254Y-63324973D01*
X173483254Y-63324973D02*
X173541585Y-63383304D01*
%TO.N,Net-(D27-Pad2)*%
X188149913Y-63324973D02*
X190483246Y-63324973D01*
X190483246Y-63324973D02*
X190541577Y-63383304D01*
%TO.N,Net-(D28-Pad2)*%
X205149905Y-63324973D02*
X207483238Y-63324973D01*
X207483238Y-63324973D02*
X207541569Y-63383304D01*
%TO.N,Net-(D29-Pad2)*%
X222149897Y-63324973D02*
X224483230Y-63324973D01*
X224483230Y-63324973D02*
X224541561Y-63383304D01*
%TO.N,Net-(D30-Pad2)*%
X241483222Y-63324973D02*
X241541553Y-63383304D01*
X239149889Y-63324973D02*
X241483222Y-63324973D01*
%TO.N,row4*%
X107280527Y-31487670D02*
X100262268Y-31487670D01*
X139541601Y-77208297D02*
X139541601Y-78283296D01*
X96333288Y-42499980D02*
X97041621Y-43208313D01*
X97041621Y-76000924D02*
X96792101Y-76250444D01*
X88541625Y-78283296D02*
X88541625Y-77208297D01*
X96333288Y-41791647D02*
X96333288Y-42499980D01*
X173541585Y-77208297D02*
X173541585Y-78283296D01*
X190541577Y-77208297D02*
X190541577Y-78283296D01*
X96333288Y-39677468D02*
X95984531Y-40026225D01*
X156541593Y-77208297D02*
X156541593Y-78283296D01*
X96333288Y-32583318D02*
X96333288Y-39677468D01*
X108494759Y-32701902D02*
X107280527Y-31487670D01*
X224541561Y-77208297D02*
X224541561Y-78283296D01*
X207541569Y-77208297D02*
X207541569Y-78283296D01*
X97041621Y-43208313D02*
X97041621Y-76000924D01*
X122541609Y-77208297D02*
X122541609Y-78283296D01*
X105541617Y-77208297D02*
X105541617Y-78283296D01*
X241541553Y-77208297D02*
X241541553Y-78283296D01*
%TO.N,Net-(D31-Pad2)*%
X79599961Y-68424965D02*
X79599961Y-74054288D01*
X79599961Y-74054288D02*
X85928969Y-80383296D01*
X85928969Y-80383296D02*
X88541625Y-80383296D01*
%TO.N,Net-(D32-Pad2)*%
X105483286Y-80324965D02*
X105541617Y-80383296D01*
X103149953Y-80324965D02*
X105483286Y-80324965D01*
%TO.N,Net-(D33-Pad2)*%
X122483278Y-80324965D02*
X122541609Y-80383296D01*
X120149945Y-80324965D02*
X122483278Y-80324965D01*
%TO.N,Net-(D34-Pad2)*%
X137149937Y-80324965D02*
X139483270Y-80324965D01*
X139483270Y-80324965D02*
X139541601Y-80383296D01*
%TO.N,Net-(D35-Pad2)*%
X156483262Y-80324965D02*
X156541593Y-80383296D01*
X154149929Y-80324965D02*
X156483262Y-80324965D01*
%TO.N,Net-(D36-Pad2)*%
X173483254Y-80324965D02*
X173541585Y-80383296D01*
X171149921Y-80324965D02*
X173483254Y-80324965D01*
%TO.N,Net-(D37-Pad2)*%
X188149913Y-80324965D02*
X190483246Y-80324965D01*
X190483246Y-80324965D02*
X190541577Y-80383296D01*
%TO.N,Net-(D38-Pad2)*%
X207483238Y-80324965D02*
X207541569Y-80383296D01*
X205149905Y-80324965D02*
X207483238Y-80324965D01*
%TO.N,Net-(D39-Pad2)*%
X222149897Y-80324965D02*
X224483230Y-80324965D01*
X224483230Y-80324965D02*
X224541561Y-80383296D01*
D32*
%TO.N,VBUS*%
X113423760Y-19290240D02*
X113500000Y-19214000D01*
D31*
X108658281Y-20254265D02*
X110412546Y-18500000D01*
X108303273Y-21750000D02*
X103850000Y-21750000D01*
X113500000Y-18750000D02*
X113500000Y-19214000D01*
X103850000Y-21750000D02*
X103000000Y-22600000D01*
X108958281Y-20669992D02*
X108958281Y-21094992D01*
X113750000Y-18500000D02*
X113500000Y-18750000D01*
D32*
X113423760Y-20335471D02*
X113423760Y-19290240D01*
D31*
X110412546Y-18500000D02*
X111750000Y-18500000D01*
X108958281Y-21094992D02*
X108303273Y-21750000D01*
D32*
X113758281Y-20669992D02*
X113423760Y-20335471D01*
D31*
X108658281Y-20669992D02*
X108658281Y-20254265D01*
%TO.N,Net-(J1-PadA5)*%
X109022295Y-22480000D02*
X109958281Y-21544014D01*
X107750000Y-22480000D02*
X109022295Y-22480000D01*
X109958281Y-21544014D02*
X109958281Y-20669992D01*
D32*
%TO.N,D+*%
X110958281Y-20669992D02*
X111008770Y-20669992D01*
X111907792Y-21544503D02*
X111907792Y-20897792D01*
X111008770Y-20669992D02*
X111008770Y-21544503D01*
X112008770Y-21544503D02*
X112554503Y-21544503D01*
X111907792Y-20897792D02*
X112008770Y-20998770D01*
X111008770Y-21544503D02*
X111907792Y-21544503D01*
X112008770Y-20998770D02*
X112008770Y-21544503D01*
X112554503Y-21544503D02*
X114250000Y-23240000D01*
%TO.N,D-*%
X110458281Y-20669992D02*
X110508290Y-20720001D01*
X111458281Y-19845970D02*
X111362311Y-19750000D01*
X110822378Y-21994494D02*
X112368097Y-21994494D01*
X110508290Y-21680406D02*
X110822378Y-21994494D01*
X110508290Y-20720001D02*
X110508290Y-21680406D01*
X110458281Y-19845970D02*
X110458281Y-20669992D01*
X113000000Y-22626397D02*
X113000000Y-23240000D01*
X111362311Y-19750000D02*
X110554251Y-19750000D01*
X112368097Y-21994494D02*
X113000000Y-22626397D01*
X111458281Y-20669992D02*
X111458281Y-19845970D01*
X110554251Y-19750000D02*
X110458281Y-19845970D01*
D31*
%TO.N,Net-(J1-PadB5)*%
X113000000Y-17500000D02*
X112958281Y-17541719D01*
X112958281Y-17541719D02*
X112958281Y-20669992D01*
X116990000Y-21000000D02*
X116990000Y-18852758D01*
X116990000Y-18852758D02*
X115637242Y-17500000D01*
X115637242Y-17500000D02*
X113000000Y-17500000D01*
%TO.N,Net-(R6-Pad1)*%
X104760000Y-35000000D02*
X106780026Y-35000000D01*
X106780026Y-35000000D02*
X107080545Y-35300519D01*
D32*
%TO.N,col1*%
X108494759Y-36714732D02*
X108106223Y-37103268D01*
X100525500Y-37200000D02*
X100600000Y-37125500D01*
D31*
X91149961Y-70624965D02*
X89975442Y-69450446D01*
X91149961Y-53624973D02*
X89900436Y-52375448D01*
X89900436Y-52375448D02*
X89900436Y-37874506D01*
X89975442Y-54799492D02*
X91149961Y-53624973D01*
D32*
X98886937Y-31737299D02*
X98462701Y-31737299D01*
X100600000Y-37125500D02*
X100600000Y-33450362D01*
D31*
X89900436Y-37874506D02*
X91149961Y-36624981D01*
D32*
X90000442Y-35475462D02*
X90000442Y-31800442D01*
X102071232Y-37103268D02*
X101974500Y-37200000D01*
X90000442Y-31800442D02*
X90000442Y-20774508D01*
X91149961Y-36624981D02*
X90000442Y-35475462D01*
X108106223Y-37103268D02*
X102071232Y-37103268D01*
X90000442Y-20774508D02*
X91149961Y-19624989D01*
X100600000Y-33450362D02*
X99074819Y-31925181D01*
X99074819Y-31925181D02*
X98886937Y-31737299D01*
D31*
X89975442Y-69450446D02*
X89975442Y-54799492D01*
D32*
%TO.N,col2*%
X91599953Y-61124973D02*
X92749472Y-62274492D01*
D31*
X92774472Y-28299508D02*
X92774472Y-42950462D01*
X91599953Y-27124989D02*
X92774472Y-28299508D01*
D32*
X103000000Y-37502788D02*
X102397256Y-38105532D01*
X99187813Y-37812187D02*
X94724540Y-42275460D01*
X94724540Y-42275460D02*
X93449474Y-42275460D01*
X92824478Y-59900448D02*
X91599953Y-61124973D01*
X108413810Y-37502788D02*
X103000000Y-37502788D01*
X108848312Y-37068286D02*
X108413810Y-37502788D01*
X91599953Y-44124981D02*
X92824478Y-45349506D01*
D31*
X92774472Y-42950462D02*
X91599953Y-44124981D01*
D32*
X102397256Y-38105532D02*
X102397256Y-38105693D01*
X92749472Y-76975446D02*
X91599953Y-78124965D01*
X93449474Y-42275460D02*
X91599953Y-44124981D01*
X92749472Y-62274492D02*
X92749472Y-76975446D01*
X92824478Y-45349506D02*
X92824478Y-59900448D01*
X99735416Y-37812187D02*
X99187813Y-37812187D01*
D31*
%TO.N,col3*%
X108599945Y-44124981D02*
X108599945Y-78124965D01*
D32*
X103297692Y-37902308D02*
X108721397Y-37902308D01*
D31*
X108599945Y-27124989D02*
X108599945Y-28775500D01*
X108600000Y-44124926D02*
X108599945Y-44124981D01*
D32*
X105883801Y-43683801D02*
X108158765Y-43683801D01*
X108158765Y-43683801D02*
X108599945Y-44124981D01*
X103104011Y-38812449D02*
X103104011Y-38095989D01*
D31*
X108600000Y-42000000D02*
X108600000Y-44124926D01*
D32*
X103000000Y-40800000D02*
X105883801Y-43683801D01*
X108721397Y-37902308D02*
X109201866Y-37421839D01*
X103104011Y-38095989D02*
X103297692Y-37902308D01*
%TO.N,col4*%
X125600000Y-48899500D02*
X125599937Y-48899563D01*
X125599937Y-78124965D02*
X126824462Y-76900440D01*
X103705378Y-44105378D02*
X103800000Y-44200000D01*
X126824462Y-76900440D02*
X126824462Y-62349498D01*
X125599937Y-48899563D02*
X125599937Y-61124973D01*
D31*
X125599937Y-30014692D02*
X128208273Y-32623028D01*
X128916606Y-38249982D02*
X128766928Y-38249982D01*
D32*
X103705378Y-42494622D02*
X103705378Y-44105378D01*
D31*
X125599937Y-41416973D02*
X125599937Y-44124981D01*
D32*
X108589852Y-38740960D02*
X104742573Y-38740960D01*
X125600000Y-48899500D02*
X125599937Y-48899437D01*
X109555419Y-37775393D02*
X108589852Y-38740960D01*
D31*
X128766928Y-38249982D02*
X125599937Y-41416973D01*
D32*
X104742573Y-38740960D02*
X103887548Y-39595985D01*
X125599937Y-48899437D02*
X125599937Y-44124981D01*
D31*
X128208273Y-32623028D02*
X128208273Y-33291651D01*
X125599937Y-27124989D02*
X125599937Y-30014692D01*
D32*
X126824462Y-62349498D02*
X125599937Y-61124973D01*
%TO.N,col5*%
X106800000Y-40288425D02*
X106800000Y-40885500D01*
X107947945Y-39140480D02*
X106800000Y-40288425D01*
X142599929Y-48199929D02*
X142599929Y-44124981D01*
D31*
X142599929Y-27124989D02*
X142599929Y-78124965D01*
D32*
X142600000Y-48200000D02*
X142599929Y-48199929D01*
X108897438Y-39140480D02*
X107947945Y-39140480D01*
X109908972Y-38128946D02*
X108897438Y-39140480D01*
D31*
%TO.N,col6*%
X159599921Y-78124965D02*
X159599921Y-27124989D01*
D32*
X159599921Y-49599921D02*
X159599921Y-44124981D01*
X113800000Y-43400000D02*
X113800000Y-43800000D01*
X113800000Y-43800000D02*
X113800000Y-49200000D01*
X112600000Y-39635570D02*
X111800483Y-38836053D01*
X112600000Y-42200000D02*
X113800000Y-43400000D01*
X159600000Y-49600000D02*
X159599921Y-49599921D01*
X159600000Y-49600000D02*
X159599921Y-49600079D01*
X112600000Y-42200000D02*
X112600000Y-39635570D01*
X159599921Y-49600079D02*
X159599921Y-61124973D01*
X113800000Y-49200000D02*
X113400000Y-49600000D01*
%TO.N,col7*%
X112154036Y-38482499D02*
X112154036Y-38589030D01*
X176600000Y-50400000D02*
X176599913Y-50399913D01*
D31*
X176599913Y-27124989D02*
X176599913Y-55024978D01*
D32*
X112154036Y-38589030D02*
X112999520Y-39434514D01*
X112999520Y-39434514D02*
X112999520Y-42000000D01*
X114200000Y-43200000D02*
X114200000Y-50186060D01*
X114200000Y-50186060D02*
X113954424Y-50431636D01*
D31*
X176599913Y-55024978D02*
X176599913Y-78124965D01*
D32*
X114199520Y-43200000D02*
X114200000Y-43200000D01*
X176599913Y-50399913D02*
X176599913Y-44124981D01*
X112999520Y-42000000D02*
X114199520Y-43200000D01*
D31*
%TO.N,col8*%
X193599905Y-51400095D02*
X193600000Y-51400000D01*
D32*
X193599905Y-44124981D02*
X194824430Y-42900456D01*
X112507590Y-38128946D02*
X113400000Y-39021356D01*
X194824430Y-42900456D02*
X194824430Y-28349514D01*
X114653935Y-51098167D02*
X114716977Y-51098167D01*
X114600000Y-43000000D02*
X114600000Y-50087953D01*
X113400000Y-41800000D02*
X114600000Y-43000000D01*
X194824430Y-28349514D02*
X193599905Y-27124989D01*
D31*
X193599905Y-61124973D02*
X193599905Y-51400095D01*
D32*
X114600000Y-50087953D02*
X114653935Y-50141888D01*
D31*
X194849430Y-62374498D02*
X193599905Y-61124973D01*
D32*
X193600000Y-51400000D02*
X193599905Y-51399905D01*
X113400000Y-39021356D02*
X113400000Y-41800000D01*
X193599905Y-51399905D02*
X193599905Y-44124981D01*
D31*
X194849430Y-76875440D02*
X194849430Y-62374498D01*
D32*
X114653935Y-50141888D02*
X114653935Y-51098167D01*
X114716977Y-51098167D02*
X114749946Y-51131136D01*
D31*
X193599905Y-78124965D02*
X194849430Y-76875440D01*
D32*
%TO.N,col9*%
X115000000Y-49922947D02*
X115200000Y-50122947D01*
X113800000Y-38714250D02*
X113800000Y-41634994D01*
X210599897Y-51999897D02*
X210599897Y-44124981D01*
X210600000Y-52000000D02*
X210599897Y-51999897D01*
D31*
X210599897Y-55024978D02*
X210599897Y-78124965D01*
X210599897Y-27124989D02*
X210599897Y-55024978D01*
D32*
X112861143Y-37775393D02*
X113800000Y-38714250D01*
X115000000Y-42834994D02*
X115000000Y-49922947D01*
X113800000Y-41634994D02*
X115000000Y-42834994D01*
X115200000Y-50122947D02*
X115458279Y-50381226D01*
X115458279Y-50381226D02*
X115458279Y-54463285D01*
D31*
%TO.N,col10*%
X227599889Y-27124989D02*
X227599889Y-44124981D01*
D32*
X227599889Y-61124973D02*
X227599889Y-78124965D01*
X113214696Y-37421839D02*
X114200000Y-38407143D01*
X115800000Y-43069988D02*
X115800000Y-44400000D01*
X227374893Y-46749978D02*
X228824414Y-48199499D01*
X227374893Y-46749978D02*
X227599889Y-46524982D01*
X228824414Y-59900448D02*
X227599889Y-61124973D01*
X114200000Y-41469988D02*
X115800000Y-43069988D01*
X114200000Y-38407143D02*
X114200000Y-41469988D01*
X228824414Y-48199499D02*
X228824414Y-59900448D01*
X227599889Y-46524982D02*
X227599889Y-44124981D01*
D31*
%TO.N,Net-(D40-Pad2)*%
X239149889Y-80324965D02*
X241483222Y-80324965D01*
X241483222Y-80324965D02*
X241541553Y-80383296D01*
D32*
%TO.N,D_res+*%
X114174457Y-30292573D02*
X112861143Y-31605887D01*
X114250000Y-24260000D02*
X113850001Y-24659999D01*
X113850001Y-25848042D02*
X114174457Y-26172499D01*
X114174457Y-26172499D02*
X114174457Y-30292573D01*
X112861143Y-31605887D02*
X112861143Y-31641241D01*
X113850001Y-24659999D02*
X113850001Y-25848042D01*
%TO.N,D_res-*%
X112542944Y-31287688D02*
X112507590Y-31287688D01*
X113000000Y-24260000D02*
X113399999Y-24659999D01*
X113724466Y-26358891D02*
X113724466Y-30106166D01*
X113724466Y-30106166D02*
X112542944Y-31287688D01*
X113399999Y-26034424D02*
X113724466Y-26358891D01*
X113399999Y-24659999D02*
X113399999Y-26034424D01*
%TD*%
%TA.AperFunction,Conductor*%
%TO.N,GND*%
G36*
X124152121Y-33953008D02*
G01*
X124198614Y-34006664D01*
X124210000Y-34059006D01*
X124210000Y-42228268D01*
X124189998Y-42296389D01*
X124136342Y-42342882D01*
X124128230Y-42346250D01*
X124064479Y-42370150D01*
X124053232Y-42374366D01*
X123936676Y-42461720D01*
X123849322Y-42578276D01*
X123846170Y-42586684D01*
X123800812Y-42707675D01*
X123758170Y-42764439D01*
X123685092Y-42789425D01*
X123426509Y-42794068D01*
X123358040Y-42775292D01*
X123315128Y-42731088D01*
X123283950Y-42677087D01*
X123280649Y-42671369D01*
X123204399Y-42586684D01*
X123157284Y-42534358D01*
X123157283Y-42534357D01*
X123152862Y-42529447D01*
X122998361Y-42417195D01*
X122992333Y-42414511D01*
X122992331Y-42414510D01*
X122829928Y-42342204D01*
X122829927Y-42342204D01*
X122823897Y-42339519D01*
X122730496Y-42319666D01*
X122643553Y-42301185D01*
X122643548Y-42301185D01*
X122637096Y-42299813D01*
X122446122Y-42299813D01*
X122439670Y-42301185D01*
X122439665Y-42301185D01*
X122352722Y-42319666D01*
X122259321Y-42339519D01*
X122253291Y-42342204D01*
X122253290Y-42342204D01*
X122090887Y-42414510D01*
X122090885Y-42414511D01*
X122084857Y-42417195D01*
X121930356Y-42529447D01*
X121925935Y-42534357D01*
X121925934Y-42534358D01*
X121878820Y-42586684D01*
X121802569Y-42671369D01*
X121799268Y-42677087D01*
X121749598Y-42763117D01*
X121698215Y-42812110D01*
X121642742Y-42826097D01*
X120575641Y-42845257D01*
X118524499Y-42882086D01*
X118456030Y-42863310D01*
X118408582Y-42810497D01*
X118397218Y-42740416D01*
X118425547Y-42675316D01*
X118433142Y-42667011D01*
X120162247Y-40937906D01*
X120170537Y-40930362D01*
X120177018Y-40926249D01*
X120223659Y-40876581D01*
X120226413Y-40873740D01*
X120246134Y-40854019D01*
X120248612Y-40850824D01*
X120256318Y-40841802D01*
X120281158Y-40815350D01*
X120286586Y-40809570D01*
X120296346Y-40791817D01*
X120307199Y-40775294D01*
X120314753Y-40765555D01*
X120319613Y-40759290D01*
X120337176Y-40718706D01*
X120342383Y-40708076D01*
X120363695Y-40669309D01*
X120365666Y-40661632D01*
X120365668Y-40661627D01*
X120368732Y-40649691D01*
X120375138Y-40630979D01*
X120380033Y-40619668D01*
X120383181Y-40612394D01*
X120384421Y-40604566D01*
X120384423Y-40604559D01*
X120390099Y-40568725D01*
X120392505Y-40557105D01*
X120401528Y-40521960D01*
X120401528Y-40521959D01*
X120403500Y-40514279D01*
X120403500Y-40494025D01*
X120405051Y-40474314D01*
X120406980Y-40462135D01*
X120408220Y-40454306D01*
X120406074Y-40431604D01*
X120419577Y-40361903D01*
X120463091Y-40313944D01*
X120471969Y-40308202D01*
X120476000Y-40299309D01*
X120476000Y-40021379D01*
X120493546Y-39957240D01*
X120505859Y-39936420D01*
X120505859Y-39936419D01*
X120509894Y-39929597D01*
X120555606Y-39772254D01*
X120558500Y-39735484D01*
X120558500Y-39264516D01*
X120555606Y-39227746D01*
X120509894Y-39070403D01*
X120503501Y-39059592D01*
X120430522Y-38936192D01*
X120426488Y-38929371D01*
X120382905Y-38885788D01*
X120348879Y-38823476D01*
X120346000Y-38796693D01*
X120346000Y-37722000D01*
X120366002Y-37653879D01*
X120419658Y-37607386D01*
X120472000Y-37596000D01*
X120728000Y-37596000D01*
X120796121Y-37616002D01*
X120842614Y-37669658D01*
X120854000Y-37722000D01*
X120854000Y-38623885D01*
X120858475Y-38639124D01*
X120859865Y-38640329D01*
X120880783Y-38644879D01*
X120880004Y-38648461D01*
X120926121Y-38662002D01*
X120972614Y-38715658D01*
X120984000Y-38768000D01*
X120984000Y-40293558D01*
X120994794Y-40330319D01*
X121009903Y-40353827D01*
X121014919Y-40384602D01*
X121020799Y-40541249D01*
X121068173Y-40767031D01*
X121070131Y-40771990D01*
X121070132Y-40771992D01*
X121087255Y-40815350D01*
X121152912Y-40981603D01*
X121272592Y-41178830D01*
X121276089Y-41182860D01*
X121380396Y-41303063D01*
X121423792Y-41353073D01*
X121427923Y-41356460D01*
X121598060Y-41495965D01*
X121598066Y-41495969D01*
X121602188Y-41499349D01*
X121802680Y-41613475D01*
X121807696Y-41615296D01*
X121807701Y-41615298D01*
X122014520Y-41690370D01*
X122014524Y-41690371D01*
X122019535Y-41692190D01*
X122024784Y-41693139D01*
X122024787Y-41693140D01*
X122242468Y-41732503D01*
X122242475Y-41732504D01*
X122246552Y-41733241D01*
X122264289Y-41734077D01*
X122269237Y-41734311D01*
X122269244Y-41734311D01*
X122270725Y-41734381D01*
X122432870Y-41734381D01*
X122499826Y-41728700D01*
X122599507Y-41720242D01*
X122599511Y-41720241D01*
X122604818Y-41719791D01*
X122609973Y-41718453D01*
X122609979Y-41718452D01*
X122822948Y-41663176D01*
X122822952Y-41663175D01*
X122828117Y-41661834D01*
X122832983Y-41659642D01*
X122832986Y-41659641D01*
X123033594Y-41569274D01*
X123038460Y-41567082D01*
X123042880Y-41564106D01*
X123042884Y-41564104D01*
X123169491Y-41478866D01*
X123229830Y-41438243D01*
X123396757Y-41279003D01*
X123534466Y-41093915D01*
X123589250Y-40986164D01*
X123636603Y-40893027D01*
X123636603Y-40893026D01*
X123639022Y-40888269D01*
X123691668Y-40718722D01*
X123705850Y-40673051D01*
X123705851Y-40673045D01*
X123707434Y-40667948D01*
X123734712Y-40462135D01*
X123737045Y-40444534D01*
X123737045Y-40444529D01*
X123737745Y-40439249D01*
X123737340Y-40428444D01*
X123730601Y-40248930D01*
X123729091Y-40208713D01*
X123681717Y-39982931D01*
X123596978Y-39768359D01*
X123477298Y-39571132D01*
X123326098Y-39396889D01*
X123222226Y-39311719D01*
X123151830Y-39253997D01*
X123151824Y-39253993D01*
X123147702Y-39250613D01*
X122947210Y-39136487D01*
X122942194Y-39134666D01*
X122942189Y-39134664D01*
X122735370Y-39059592D01*
X122735366Y-39059591D01*
X122730355Y-39057772D01*
X122725106Y-39056823D01*
X122725103Y-39056822D01*
X122507422Y-39017459D01*
X122507415Y-39017458D01*
X122503338Y-39016721D01*
X122485601Y-39015885D01*
X122480653Y-39015651D01*
X122480646Y-39015651D01*
X122479165Y-39015581D01*
X122317020Y-39015581D01*
X122250064Y-39021262D01*
X122150383Y-39029720D01*
X122150379Y-39029721D01*
X122145072Y-39030171D01*
X122139917Y-39031509D01*
X122139911Y-39031510D01*
X121926942Y-39086786D01*
X121926938Y-39086787D01*
X121921773Y-39088128D01*
X121916907Y-39090320D01*
X121916904Y-39090321D01*
X121818466Y-39134664D01*
X121711430Y-39182880D01*
X121707010Y-39185856D01*
X121707006Y-39185858D01*
X121679507Y-39204372D01*
X121611828Y-39225823D01*
X121543296Y-39207280D01*
X121495669Y-39154629D01*
X121488142Y-39135006D01*
X121472839Y-39082334D01*
X121473042Y-39011337D01*
X121511595Y-38951721D01*
X121518272Y-38946353D01*
X121555725Y-38918284D01*
X121568285Y-38905724D01*
X121644786Y-38803649D01*
X121653324Y-38788054D01*
X121698478Y-38667606D01*
X121702105Y-38652351D01*
X121707631Y-38601486D01*
X121708000Y-38594672D01*
X121708000Y-38555323D01*
X121728002Y-38487202D01*
X121781658Y-38440709D01*
X121838999Y-38431345D01*
X121838999Y-38429848D01*
X122029973Y-38429848D01*
X122036425Y-38428476D01*
X122036430Y-38428476D01*
X122123373Y-38409995D01*
X122216774Y-38390142D01*
X122307757Y-38349634D01*
X122385208Y-38315151D01*
X122385210Y-38315150D01*
X122391238Y-38312466D01*
X122545739Y-38200214D01*
X122576025Y-38166578D01*
X122669107Y-38063200D01*
X122669108Y-38063199D01*
X122673526Y-38058292D01*
X122751669Y-37922945D01*
X122765709Y-37898627D01*
X122765710Y-37898626D01*
X122769013Y-37892904D01*
X122828028Y-37711276D01*
X122847990Y-37521348D01*
X122836718Y-37414097D01*
X122828718Y-37337983D01*
X122828718Y-37337981D01*
X122828028Y-37331420D01*
X122769013Y-37149792D01*
X122732297Y-37086198D01*
X122715560Y-37017203D01*
X122738781Y-36950111D01*
X122759419Y-36927531D01*
X122820771Y-36874945D01*
X122825618Y-36870791D01*
X122950606Y-36709657D01*
X123040641Y-36526682D01*
X123050550Y-36488641D01*
X123090435Y-36335522D01*
X123090436Y-36335518D01*
X123092045Y-36329340D01*
X123097371Y-36227705D01*
X123102383Y-36132075D01*
X123102383Y-36132071D01*
X123102717Y-36125693D01*
X123072223Y-35924059D01*
X123033927Y-35819972D01*
X123004012Y-35738665D01*
X123004011Y-35738664D01*
X123001808Y-35732675D01*
X122894347Y-35559359D01*
X122859019Y-35522000D01*
X122758616Y-35415827D01*
X122754231Y-35411190D01*
X122748799Y-35407386D01*
X122592417Y-35297887D01*
X122592416Y-35297886D01*
X122587184Y-35294223D01*
X122400029Y-35213234D01*
X122323931Y-35197336D01*
X122205157Y-35172522D01*
X122205153Y-35172522D01*
X122200412Y-35171531D01*
X122195575Y-35171278D01*
X122195571Y-35171277D01*
X122195505Y-35171274D01*
X122193733Y-35171181D01*
X122043978Y-35171181D01*
X121971332Y-35178560D01*
X121898411Y-35185967D01*
X121898410Y-35185967D01*
X121892062Y-35186612D01*
X121875606Y-35191769D01*
X121872179Y-35192843D01*
X121801194Y-35194127D01*
X121740784Y-35156830D01*
X121710127Y-35092794D01*
X121708500Y-35072609D01*
X121708500Y-34901866D01*
X121701745Y-34839684D01*
X121650615Y-34703295D01*
X121563261Y-34586739D01*
X121446705Y-34499385D01*
X121438296Y-34496233D01*
X121438295Y-34496232D01*
X121333235Y-34456847D01*
X121276470Y-34414206D01*
X121251770Y-34347644D01*
X121256467Y-34303714D01*
X121263810Y-34278437D01*
X121263811Y-34278434D01*
X121265606Y-34272254D01*
X121268500Y-34235484D01*
X121268500Y-34059006D01*
X121288502Y-33990885D01*
X121342158Y-33944392D01*
X121394500Y-33933006D01*
X124084000Y-33933006D01*
X124152121Y-33953008D01*
G37*
%TD.AperFunction*%
%TA.AperFunction,Conductor*%
G36*
X117865360Y-36625834D02*
G01*
X117890964Y-36651350D01*
X117907952Y-36674016D01*
X117932801Y-36740522D01*
X117917749Y-36809904D01*
X117907953Y-36825148D01*
X117849385Y-36903295D01*
X117798255Y-37039684D01*
X117791500Y-37101866D01*
X117791500Y-38159417D01*
X117771498Y-38227538D01*
X117717842Y-38274031D01*
X117647568Y-38284135D01*
X117629503Y-38280166D01*
X117372549Y-38203565D01*
X117372547Y-38203565D01*
X117368550Y-38202373D01*
X117364430Y-38201720D01*
X117364428Y-38201720D01*
X117080353Y-38156726D01*
X117080347Y-38156725D01*
X117076872Y-38156175D01*
X117052313Y-38155060D01*
X116985928Y-38152045D01*
X116985907Y-38152045D01*
X116984508Y-38151981D01*
X116800044Y-38151981D01*
X116580281Y-38166578D01*
X116519096Y-38178915D01*
X116448368Y-38172772D01*
X116392187Y-38129365D01*
X116370571Y-38072972D01*
X116370052Y-38073082D01*
X116369354Y-38069797D01*
X116368883Y-38068569D01*
X116368678Y-38066618D01*
X116368678Y-38066617D01*
X116367988Y-38060054D01*
X116308973Y-37878426D01*
X116213486Y-37713038D01*
X116176724Y-37672209D01*
X116090121Y-37576027D01*
X116090120Y-37576026D01*
X116085699Y-37571116D01*
X115941620Y-37466436D01*
X115898266Y-37410214D01*
X115892191Y-37339477D01*
X115925323Y-37276686D01*
X115987143Y-37241774D01*
X116015681Y-37238500D01*
X116193821Y-37238500D01*
X116261942Y-37258502D01*
X116275642Y-37268682D01*
X116297594Y-37287431D01*
X116303234Y-37290532D01*
X116303236Y-37290533D01*
X116354390Y-37318655D01*
X116441176Y-37366366D01*
X116599878Y-37407114D01*
X116763727Y-37407114D01*
X116890638Y-37374529D01*
X116914745Y-37368339D01*
X116914746Y-37368339D01*
X116922429Y-37366366D01*
X116967692Y-37341482D01*
X117060368Y-37290533D01*
X117060370Y-37290532D01*
X117066010Y-37287431D01*
X117094057Y-37263477D01*
X117384655Y-36972879D01*
X117408609Y-36944832D01*
X117418121Y-36927531D01*
X117483723Y-36808201D01*
X117487544Y-36801251D01*
X117492385Y-36782396D01*
X117528697Y-36721391D01*
X117583092Y-36691689D01*
X117593389Y-36689045D01*
X117608014Y-36683255D01*
X117729439Y-36616502D01*
X117798770Y-36601213D01*
X117865360Y-36625834D01*
G37*
%TD.AperFunction*%
%TA.AperFunction,Conductor*%
G36*
X119096121Y-35416002D02*
G01*
X119142614Y-35469658D01*
X119154000Y-35522000D01*
X119154000Y-35778000D01*
X119133998Y-35846121D01*
X119080342Y-35892614D01*
X119028000Y-35904000D01*
X117878000Y-35904000D01*
X117809879Y-35883998D01*
X117763386Y-35830342D01*
X117752000Y-35778000D01*
X117752000Y-35522000D01*
X117772002Y-35453879D01*
X117825658Y-35407386D01*
X117878000Y-35396000D01*
X119028000Y-35396000D01*
X119096121Y-35416002D01*
G37*
%TD.AperFunction*%
%TA.AperFunction,Conductor*%
G36*
X107034054Y-32141172D02*
G01*
X107055028Y-32158075D01*
X107231599Y-32334646D01*
X107265625Y-32396958D01*
X107260560Y-32467773D01*
X107218013Y-32524609D01*
X107212241Y-32528416D01*
X107208007Y-32530170D01*
X107118676Y-32598717D01*
X106977362Y-32740032D01*
X106908814Y-32829363D01*
X106908770Y-32829468D01*
X106860118Y-32875855D01*
X106790404Y-32889289D01*
X106724494Y-32862900D01*
X106713290Y-32852955D01*
X106652745Y-32792410D01*
X106631426Y-32764016D01*
X106590533Y-32689632D01*
X106590532Y-32689630D01*
X106587431Y-32683990D01*
X106563477Y-32655943D01*
X106272879Y-32365345D01*
X106246695Y-32342982D01*
X106207886Y-32283531D01*
X106207378Y-32212536D01*
X106245334Y-32152538D01*
X106309703Y-32122584D01*
X106328525Y-32121170D01*
X106965933Y-32121170D01*
X107034054Y-32141172D01*
G37*
%TD.AperFunction*%
%TA.AperFunction,Conductor*%
G36*
X104257808Y-32141172D02*
G01*
X104304301Y-32194828D01*
X104314405Y-32265102D01*
X104311728Y-32278506D01*
X104295357Y-32342263D01*
X104293386Y-32357865D01*
X104293386Y-32505739D01*
X104295357Y-32521341D01*
X104332131Y-32664562D01*
X104337924Y-32679193D01*
X104338260Y-32679805D01*
X104338378Y-32680341D01*
X104340840Y-32686559D01*
X104339837Y-32686956D01*
X104353546Y-32749136D01*
X104328922Y-32815726D01*
X104272206Y-32858432D01*
X104227842Y-32866500D01*
X103247963Y-32866500D01*
X103179842Y-32846498D01*
X103133349Y-32792842D01*
X103123245Y-32722568D01*
X103152739Y-32657988D01*
X103188300Y-32629521D01*
X103250259Y-32596212D01*
X104105945Y-32136191D01*
X104165608Y-32121170D01*
X104189687Y-32121170D01*
X104257808Y-32141172D01*
G37*
%TD.AperFunction*%
%TA.AperFunction,Conductor*%
G36*
X122578410Y-30959881D02*
G01*
X122646148Y-30981137D01*
X122691643Y-31035642D01*
X122700448Y-31106090D01*
X122669768Y-31170116D01*
X122650147Y-31187794D01*
X122638689Y-31196119D01*
X122634274Y-31201022D01*
X122629362Y-31205445D01*
X122628237Y-31204196D01*
X122574928Y-31237036D01*
X122541742Y-31241485D01*
X121853534Y-31241485D01*
X121785413Y-31221483D01*
X121738920Y-31167827D01*
X121728816Y-31097553D01*
X121758310Y-31032973D01*
X121777966Y-31014661D01*
X121813206Y-30988250D01*
X121816689Y-30983603D01*
X121877603Y-30950340D01*
X121906709Y-30947482D01*
X122578410Y-30959881D01*
G37*
%TD.AperFunction*%
%TD*%
%TA.AperFunction,Conductor*%
%TO.N,GND*%
G36*
X110226800Y-22275567D02*
G01*
X110271863Y-22304528D01*
X110312495Y-22345160D01*
X110346521Y-22407472D01*
X110341456Y-22478287D01*
X110324493Y-22509461D01*
X110215424Y-22656055D01*
X110213009Y-22660805D01*
X110158322Y-22768367D01*
X110110868Y-22861701D01*
X110084856Y-22945472D01*
X110044040Y-23076919D01*
X110044039Y-23076925D01*
X110042456Y-23082022D01*
X110039408Y-23105022D01*
X110013706Y-23298946D01*
X110012145Y-23310721D01*
X110012345Y-23316051D01*
X110012345Y-23316052D01*
X110014915Y-23384500D01*
X110020799Y-23541257D01*
X110068173Y-23767039D01*
X110152912Y-23981611D01*
X110272592Y-24178838D01*
X110276089Y-24182868D01*
X110410036Y-24337228D01*
X110423792Y-24353081D01*
X110427923Y-24356468D01*
X110598060Y-24495973D01*
X110598066Y-24495977D01*
X110602188Y-24499357D01*
X110616325Y-24507404D01*
X110628787Y-24514498D01*
X110678093Y-24565580D01*
X110691955Y-24635210D01*
X110665972Y-24701281D01*
X110608392Y-24742816D01*
X110566455Y-24750000D01*
X107668467Y-24750000D01*
X107600346Y-24729998D01*
X107555043Y-24678316D01*
X107553198Y-24672636D01*
X107548949Y-24665940D01*
X107548784Y-24665680D01*
X107538019Y-24644553D01*
X107537905Y-24644265D01*
X107537902Y-24644260D01*
X107534986Y-24636894D01*
X107530330Y-24630486D01*
X107530327Y-24630480D01*
X107501976Y-24591459D01*
X107497526Y-24584912D01*
X107486216Y-24567090D01*
X107467434Y-24537493D01*
X107461427Y-24531852D01*
X107445746Y-24514065D01*
X107445568Y-24513820D01*
X107445566Y-24513818D01*
X107440906Y-24507404D01*
X107427022Y-24495918D01*
X107387284Y-24437084D01*
X107385663Y-24366106D01*
X107422672Y-24305519D01*
X107481435Y-24275525D01*
X107493030Y-24273089D01*
X107496000Y-24261626D01*
X107496000Y-24259566D01*
X108004000Y-24259566D01*
X108008344Y-24274361D01*
X108020003Y-24276421D01*
X108029977Y-24275637D01*
X108042564Y-24273338D01*
X108184783Y-24232019D01*
X108199222Y-24225770D01*
X108325405Y-24151146D01*
X108337841Y-24141499D01*
X108441499Y-24037841D01*
X108451146Y-24025405D01*
X108525770Y-23899222D01*
X108532019Y-23884783D01*
X108564961Y-23771395D01*
X108564921Y-23757295D01*
X108557651Y-23754000D01*
X108022115Y-23754000D01*
X108006876Y-23758475D01*
X108005671Y-23759865D01*
X108004000Y-23767548D01*
X108004000Y-24259566D01*
X107496000Y-24259566D01*
X107496000Y-23384500D01*
X107516002Y-23316379D01*
X107569658Y-23269886D01*
X107622000Y-23258500D01*
X107990058Y-23258499D01*
X107999988Y-23258499D01*
X108036466Y-23255629D01*
X108042648Y-23253833D01*
X108042653Y-23253832D01*
X108052390Y-23251003D01*
X108087542Y-23246000D01*
X108551900Y-23246000D01*
X108565430Y-23242027D01*
X108568371Y-23221569D01*
X108597864Y-23156988D01*
X108657590Y-23118604D01*
X108693089Y-23113500D01*
X108943528Y-23113500D01*
X108954711Y-23114027D01*
X108962204Y-23115702D01*
X108970130Y-23115453D01*
X108970131Y-23115453D01*
X109030281Y-23113562D01*
X109034240Y-23113500D01*
X109062151Y-23113500D01*
X109066086Y-23113003D01*
X109066151Y-23112995D01*
X109077988Y-23112062D01*
X109110246Y-23111048D01*
X109114265Y-23110922D01*
X109122184Y-23110673D01*
X109141638Y-23105021D01*
X109160995Y-23101013D01*
X109173225Y-23099468D01*
X109173226Y-23099468D01*
X109181092Y-23098474D01*
X109188463Y-23095555D01*
X109188465Y-23095555D01*
X109222207Y-23082196D01*
X109233437Y-23078351D01*
X109268278Y-23068229D01*
X109268279Y-23068229D01*
X109275888Y-23066018D01*
X109282707Y-23061985D01*
X109282712Y-23061983D01*
X109293323Y-23055707D01*
X109311071Y-23047012D01*
X109329912Y-23039552D01*
X109365682Y-23013564D01*
X109375602Y-23007048D01*
X109406830Y-22988580D01*
X109406833Y-22988578D01*
X109413657Y-22984542D01*
X109427978Y-22970221D01*
X109443012Y-22957380D01*
X109452989Y-22950131D01*
X109459402Y-22945472D01*
X109464453Y-22939367D01*
X109464458Y-22939362D01*
X109487589Y-22911402D01*
X109495577Y-22902624D01*
X110093673Y-22304528D01*
X110155985Y-22270502D01*
X110226800Y-22275567D01*
G37*
%TD.AperFunction*%
%TA.AperFunction,Conductor*%
G36*
X119442121Y-15403495D02*
G01*
X119488614Y-15457151D01*
X119500000Y-15509493D01*
X119500000Y-24624000D01*
X119479998Y-24692121D01*
X119426342Y-24738614D01*
X119374000Y-24750000D01*
X118864781Y-24750000D01*
X118796660Y-24729998D01*
X118750167Y-24676342D01*
X118740063Y-24606068D01*
X118759108Y-24555376D01*
X118779679Y-24523700D01*
X118819794Y-24461928D01*
X118946464Y-24195161D01*
X118977597Y-24098195D01*
X119035460Y-23917972D01*
X119035460Y-23917971D01*
X119036740Y-23913985D01*
X119064470Y-23759865D01*
X119088296Y-23627448D01*
X119088297Y-23627443D01*
X119089035Y-23623339D01*
X119092526Y-23546475D01*
X119102242Y-23332500D01*
X119102242Y-23332495D01*
X119102431Y-23328330D01*
X119101386Y-23316379D01*
X119077057Y-23038301D01*
X119076693Y-23034140D01*
X119075782Y-23030063D01*
X119013185Y-22750017D01*
X119013183Y-22750010D01*
X119012273Y-22745939D01*
X118910301Y-22468790D01*
X118906458Y-22461500D01*
X118808426Y-22275567D01*
X118772571Y-22207562D01*
X118656253Y-22043886D01*
X118603926Y-21970254D01*
X118603921Y-21970248D01*
X118601502Y-21966844D01*
X118598658Y-21963794D01*
X118598653Y-21963788D01*
X118524094Y-21883834D01*
X118492265Y-21820372D01*
X118499798Y-21749776D01*
X118539018Y-21698343D01*
X118547841Y-21691499D01*
X118651499Y-21587841D01*
X118661146Y-21575405D01*
X118735770Y-21449222D01*
X118742019Y-21434783D01*
X118783338Y-21292564D01*
X118785637Y-21279977D01*
X118786260Y-21272057D01*
X118783090Y-21256970D01*
X118771626Y-21254000D01*
X117894500Y-21254000D01*
X117826379Y-21233998D01*
X117779886Y-21180342D01*
X117768500Y-21128000D01*
X117768499Y-20752484D01*
X117768499Y-20750012D01*
X117766758Y-20727885D01*
X118264000Y-20727885D01*
X118268475Y-20743124D01*
X118269865Y-20744329D01*
X118277548Y-20746000D01*
X118769566Y-20746000D01*
X118784361Y-20741656D01*
X118786421Y-20729997D01*
X118785637Y-20720023D01*
X118783338Y-20707436D01*
X118742019Y-20565217D01*
X118735770Y-20550778D01*
X118661146Y-20424595D01*
X118651499Y-20412159D01*
X118547841Y-20308501D01*
X118535405Y-20298854D01*
X118409222Y-20224230D01*
X118394783Y-20217981D01*
X118281395Y-20185039D01*
X118267295Y-20185079D01*
X118264000Y-20192349D01*
X118264000Y-20727885D01*
X117766758Y-20727885D01*
X117765629Y-20713534D01*
X117761003Y-20697610D01*
X117756000Y-20662458D01*
X117756000Y-20198100D01*
X117752027Y-20184570D01*
X117731569Y-20181629D01*
X117666988Y-20152136D01*
X117628604Y-20092410D01*
X117623500Y-20056911D01*
X117623500Y-18931526D01*
X117624027Y-18920343D01*
X117625702Y-18912850D01*
X117624826Y-18884960D01*
X117623562Y-18844760D01*
X117623500Y-18840802D01*
X117623500Y-18812902D01*
X117622996Y-18808911D01*
X117622063Y-18797069D01*
X117621720Y-18786135D01*
X117620674Y-18752869D01*
X117618462Y-18745255D01*
X117618461Y-18745250D01*
X117615023Y-18733417D01*
X117611012Y-18714053D01*
X117609467Y-18701822D01*
X117608474Y-18693961D01*
X117605557Y-18686594D01*
X117605556Y-18686589D01*
X117592198Y-18652850D01*
X117588354Y-18641623D01*
X117583288Y-18624188D01*
X117576018Y-18599165D01*
X117566897Y-18583742D01*
X117565707Y-18581730D01*
X117557012Y-18563982D01*
X117549552Y-18545141D01*
X117523564Y-18509371D01*
X117517048Y-18499451D01*
X117498580Y-18468223D01*
X117498578Y-18468220D01*
X117494542Y-18461396D01*
X117480221Y-18447075D01*
X117467380Y-18432041D01*
X117460131Y-18422064D01*
X117455472Y-18415651D01*
X117421395Y-18387460D01*
X117412616Y-18379470D01*
X117109384Y-18076238D01*
X117075358Y-18013926D01*
X117080423Y-17943111D01*
X117122970Y-17886275D01*
X117156324Y-17868979D01*
X117157233Y-17868786D01*
X117323780Y-17794635D01*
X117325667Y-17793795D01*
X117325669Y-17793794D01*
X117331697Y-17791110D01*
X117486198Y-17678858D01*
X117490620Y-17673947D01*
X117609566Y-17541844D01*
X117609567Y-17541843D01*
X117613985Y-17536936D01*
X117685477Y-17413108D01*
X117706168Y-17377271D01*
X117706169Y-17377270D01*
X117709472Y-17371548D01*
X117768487Y-17189920D01*
X117771017Y-17165854D01*
X117787759Y-17006557D01*
X117788449Y-16999992D01*
X117781407Y-16932992D01*
X117769177Y-16816627D01*
X117769177Y-16816625D01*
X117768487Y-16810064D01*
X117709472Y-16628436D01*
X117695981Y-16605068D01*
X117617286Y-16468766D01*
X117613985Y-16463048D01*
X117486198Y-16321126D01*
X117331697Y-16208874D01*
X117325669Y-16206190D01*
X117325667Y-16206189D01*
X117163264Y-16133883D01*
X117163263Y-16133883D01*
X117157233Y-16131198D01*
X117063832Y-16111345D01*
X116976889Y-16092864D01*
X116976884Y-16092864D01*
X116970432Y-16091492D01*
X116779458Y-16091492D01*
X116773006Y-16092864D01*
X116773001Y-16092864D01*
X116634285Y-16122350D01*
X116592657Y-16131198D01*
X116586624Y-16133884D01*
X116586621Y-16133885D01*
X116509775Y-16168099D01*
X116458527Y-16178992D01*
X115400281Y-16178992D01*
X115332160Y-16158990D01*
X115285667Y-16105334D01*
X115274281Y-16052992D01*
X115274281Y-15796992D01*
X115294283Y-15728871D01*
X115347939Y-15682378D01*
X115400281Y-15670992D01*
X116518166Y-15670992D01*
X116533405Y-15666517D01*
X116534610Y-15665127D01*
X116536281Y-15657444D01*
X116536281Y-15578335D01*
X116535980Y-15572186D01*
X116531039Y-15521788D01*
X116544299Y-15452041D01*
X116593162Y-15400534D01*
X116656438Y-15383493D01*
X119374000Y-15383493D01*
X119442121Y-15403495D01*
G37*
%TD.AperFunction*%
%TA.AperFunction,Conductor*%
G36*
X106859595Y-23663309D02*
G01*
X106912525Y-23710626D01*
X106926483Y-23741946D01*
X106967981Y-23884783D01*
X106974230Y-23899222D01*
X107048854Y-24025405D01*
X107058501Y-24037841D01*
X107114147Y-24093487D01*
X107148173Y-24155799D01*
X107143108Y-24226614D01*
X107100561Y-24283450D01*
X107034041Y-24308261D01*
X107021188Y-24308316D01*
X107015528Y-24307236D01*
X106959483Y-24310762D01*
X106951572Y-24311011D01*
X106623751Y-24311011D01*
X106555630Y-24291009D01*
X106509137Y-24237353D01*
X106499033Y-24167079D01*
X106522660Y-24109802D01*
X106534474Y-24093923D01*
X106589258Y-23986172D01*
X106636611Y-23893035D01*
X106636611Y-23893034D01*
X106639030Y-23888277D01*
X106685154Y-23739734D01*
X106724457Y-23680609D01*
X106789486Y-23652119D01*
X106859595Y-23663309D01*
G37*
%TD.AperFunction*%
%TA.AperFunction,Conductor*%
G36*
X114898402Y-20539994D02*
G01*
X114944895Y-20593650D01*
X114956281Y-20645992D01*
X114956281Y-20693992D01*
X114936279Y-20762113D01*
X114882623Y-20808606D01*
X114830281Y-20819992D01*
X114726396Y-20819992D01*
X114711157Y-20824467D01*
X114709952Y-20825857D01*
X114708281Y-20833540D01*
X114708281Y-21734876D01*
X114712756Y-21750115D01*
X114714146Y-21751320D01*
X114721829Y-21752991D01*
X114752950Y-21752991D01*
X114759771Y-21752621D01*
X114810633Y-21747097D01*
X114825885Y-21743471D01*
X114946335Y-21698316D01*
X114961929Y-21689779D01*
X115056739Y-21618723D01*
X115123245Y-21593876D01*
X115169561Y-21599184D01*
X115223041Y-21615738D01*
X115282201Y-21654989D01*
X115310749Y-21719993D01*
X115299621Y-21790112D01*
X115281451Y-21818102D01*
X115151041Y-21970254D01*
X115090936Y-22040379D01*
X115088662Y-22043881D01*
X115088658Y-22043886D01*
X114932375Y-22284540D01*
X114930096Y-22288050D01*
X114928300Y-22291833D01*
X114928298Y-22291836D01*
X114878412Y-22396897D01*
X114856993Y-22442006D01*
X114854059Y-22448184D01*
X114806772Y-22501141D01*
X114738360Y-22520125D01*
X114694084Y-22510611D01*
X114692596Y-22509731D01*
X114684985Y-22507520D01*
X114684983Y-22507519D01*
X114565169Y-22472710D01*
X114536466Y-22464371D01*
X114530059Y-22463867D01*
X114530055Y-22463866D01*
X114502444Y-22461693D01*
X114502438Y-22461693D01*
X114499989Y-22461500D01*
X114384239Y-22461500D01*
X114316118Y-22441498D01*
X114295144Y-22424595D01*
X113839136Y-21968587D01*
X113805110Y-21906275D01*
X113810175Y-21835460D01*
X113852722Y-21778624D01*
X113919242Y-21753813D01*
X113928231Y-21753492D01*
X113956415Y-21753492D01*
X113997001Y-21749083D01*
X114024214Y-21749083D01*
X114056798Y-21752623D01*
X114063609Y-21752992D01*
X114090166Y-21752992D01*
X114105405Y-21748517D01*
X114127670Y-21722822D01*
X114128199Y-21723280D01*
X114134963Y-21710892D01*
X114155120Y-21695785D01*
X114154986Y-21695607D01*
X114264362Y-21613634D01*
X114271542Y-21608253D01*
X114358896Y-21491697D01*
X114410026Y-21355308D01*
X114416781Y-21293126D01*
X114416781Y-20645992D01*
X114436783Y-20577871D01*
X114490439Y-20531378D01*
X114542781Y-20519992D01*
X114830281Y-20519992D01*
X114898402Y-20539994D01*
G37*
%TD.AperFunction*%
%TA.AperFunction,Conductor*%
G36*
X114576609Y-15020002D02*
G01*
X114623102Y-15073658D01*
X114633206Y-15143932D01*
X114618903Y-15186701D01*
X114600276Y-15220584D01*
X114595447Y-15231850D01*
X114539401Y-15408530D01*
X114536851Y-15420524D01*
X114520674Y-15564753D01*
X114520281Y-15571777D01*
X114520281Y-15800117D01*
X114500279Y-15868238D01*
X114446623Y-15914731D01*
X114376349Y-15924835D01*
X114343031Y-15915223D01*
X114329936Y-15909392D01*
X114329928Y-15909389D01*
X114323901Y-15906706D01*
X114230500Y-15886853D01*
X114143557Y-15868372D01*
X114143552Y-15868372D01*
X114137100Y-15867000D01*
X113946126Y-15867000D01*
X113939674Y-15868372D01*
X113939669Y-15868372D01*
X113852726Y-15886853D01*
X113759325Y-15906706D01*
X113753295Y-15909391D01*
X113753294Y-15909391D01*
X113590891Y-15981697D01*
X113590889Y-15981698D01*
X113584861Y-15984382D01*
X113430360Y-16096634D01*
X113425939Y-16101544D01*
X113425938Y-16101545D01*
X113356205Y-16178992D01*
X113302573Y-16238556D01*
X113207086Y-16403944D01*
X113148071Y-16585572D01*
X113147381Y-16592133D01*
X113147381Y-16592135D01*
X113130460Y-16753132D01*
X113103447Y-16818789D01*
X113045225Y-16859419D01*
X113009111Y-16865900D01*
X112996686Y-16866291D01*
X112991998Y-16866438D01*
X112988044Y-16866500D01*
X112960144Y-16866500D01*
X112956154Y-16867004D01*
X112944320Y-16867936D01*
X112900111Y-16869326D01*
X112892495Y-16871539D01*
X112892493Y-16871539D01*
X112880652Y-16874979D01*
X112861293Y-16878988D01*
X112859983Y-16879154D01*
X112841203Y-16881526D01*
X112833837Y-16884442D01*
X112833831Y-16884444D01*
X112800098Y-16897800D01*
X112788868Y-16901645D01*
X112754017Y-16911770D01*
X112746407Y-16913981D01*
X112739584Y-16918016D01*
X112728966Y-16924295D01*
X112711213Y-16932992D01*
X112708857Y-16933925D01*
X112692383Y-16940448D01*
X112685968Y-16945109D01*
X112656612Y-16966437D01*
X112646695Y-16972951D01*
X112608638Y-16995458D01*
X112594314Y-17009782D01*
X112579287Y-17022617D01*
X112562893Y-17034528D01*
X112557842Y-17040634D01*
X112557835Y-17040640D01*
X112545908Y-17055057D01*
X112540678Y-17060989D01*
X112504651Y-17099356D01*
X112501894Y-17102202D01*
X112482146Y-17121949D01*
X112479666Y-17125146D01*
X112471963Y-17134166D01*
X112441695Y-17166398D01*
X112437876Y-17173344D01*
X112437874Y-17173347D01*
X112431933Y-17184153D01*
X112421082Y-17200672D01*
X112408667Y-17216678D01*
X112405522Y-17223947D01*
X112405519Y-17223951D01*
X112391107Y-17257256D01*
X112385890Y-17267906D01*
X112364586Y-17306659D01*
X112362615Y-17314334D01*
X112362615Y-17314335D01*
X112359548Y-17326281D01*
X112353144Y-17344985D01*
X112345100Y-17363574D01*
X112343861Y-17371397D01*
X112343858Y-17371407D01*
X112338182Y-17407243D01*
X112335776Y-17418863D01*
X112324781Y-17461689D01*
X112324781Y-17481943D01*
X112323230Y-17501653D01*
X112320061Y-17521662D01*
X112320807Y-17529554D01*
X112320807Y-17529556D01*
X112323222Y-17555108D01*
X112309719Y-17624808D01*
X112260676Y-17676144D01*
X112191664Y-17692815D01*
X112146535Y-17682072D01*
X112032288Y-17631206D01*
X111938887Y-17611353D01*
X111851944Y-17592872D01*
X111851939Y-17592872D01*
X111845487Y-17591500D01*
X111654513Y-17591500D01*
X111648061Y-17592872D01*
X111648056Y-17592872D01*
X111561112Y-17611353D01*
X111467712Y-17631206D01*
X111461682Y-17633891D01*
X111461681Y-17633891D01*
X111299278Y-17706197D01*
X111299276Y-17706198D01*
X111293248Y-17708882D01*
X111138747Y-17821134D01*
X111134332Y-17826037D01*
X111129420Y-17830460D01*
X111128295Y-17829211D01*
X111074986Y-17862051D01*
X111041800Y-17866500D01*
X110491309Y-17866500D01*
X110480125Y-17865973D01*
X110472637Y-17864299D01*
X110464714Y-17864548D01*
X110404579Y-17866438D01*
X110400621Y-17866500D01*
X110372690Y-17866500D01*
X110368775Y-17866995D01*
X110368771Y-17866995D01*
X110368713Y-17867003D01*
X110368684Y-17867006D01*
X110356842Y-17867939D01*
X110312656Y-17869327D01*
X110295290Y-17874372D01*
X110293204Y-17874978D01*
X110273852Y-17878986D01*
X110266781Y-17879880D01*
X110253749Y-17881526D01*
X110246380Y-17884443D01*
X110246378Y-17884444D01*
X110212643Y-17897800D01*
X110201415Y-17901645D01*
X110158953Y-17913982D01*
X110152131Y-17918016D01*
X110152125Y-17918019D01*
X110141514Y-17924294D01*
X110123764Y-17932990D01*
X110112302Y-17937528D01*
X110112297Y-17937531D01*
X110104929Y-17940448D01*
X110098514Y-17945109D01*
X110069171Y-17966427D01*
X110059253Y-17972943D01*
X110040565Y-17983995D01*
X110021183Y-17995458D01*
X110006859Y-18009782D01*
X109991827Y-18022621D01*
X109975439Y-18034528D01*
X109947258Y-18068593D01*
X109939268Y-18077373D01*
X109043796Y-18972845D01*
X108981484Y-19006871D01*
X108910669Y-19001806D01*
X108878172Y-18983847D01*
X108863782Y-18972845D01*
X108752603Y-18887842D01*
X108614956Y-18823656D01*
X108594650Y-18814187D01*
X108594647Y-18814186D01*
X108588473Y-18811307D01*
X108581825Y-18809821D01*
X108581822Y-18809820D01*
X108431154Y-18776142D01*
X108411738Y-18771802D01*
X108406193Y-18771492D01*
X108273037Y-18771492D01*
X108138244Y-18786135D01*
X108024014Y-18824578D01*
X107973077Y-18841720D01*
X107973075Y-18841721D01*
X107966606Y-18843898D01*
X107820243Y-18931841D01*
X107751554Y-18949780D01*
X107684067Y-18927733D01*
X107657709Y-18903473D01*
X107610884Y-18846059D01*
X107602240Y-18837355D01*
X107459425Y-18719208D01*
X107449254Y-18712348D01*
X107286205Y-18624188D01*
X107274900Y-18619436D01*
X107159589Y-18583742D01*
X107145486Y-18583536D01*
X107142281Y-18590291D01*
X107142281Y-19832877D01*
X107146756Y-19848116D01*
X107148146Y-19849321D01*
X107155829Y-19850992D01*
X107429707Y-19850992D01*
X107497828Y-19870994D01*
X107541164Y-19918227D01*
X107583542Y-19998604D01*
X107623203Y-20073828D01*
X107627608Y-20079041D01*
X107627611Y-20079045D01*
X107681437Y-20142738D01*
X107688694Y-20151325D01*
X107688980Y-20151664D01*
X107717672Y-20216605D01*
X107706699Y-20286748D01*
X107659546Y-20339825D01*
X107592742Y-20358992D01*
X105898396Y-20358992D01*
X105883157Y-20363467D01*
X105881952Y-20364857D01*
X105880281Y-20372540D01*
X105880281Y-20701649D01*
X105880582Y-20707797D01*
X105894093Y-20845595D01*
X105896475Y-20857627D01*
X105925597Y-20954081D01*
X105926138Y-21025076D01*
X105888211Y-21085093D01*
X105823857Y-21115077D01*
X105804975Y-21116500D01*
X104376000Y-21116500D01*
X104307879Y-21096498D01*
X104261386Y-21042842D01*
X104250000Y-20990500D01*
X104250000Y-20050818D01*
X104270002Y-19982697D01*
X104323658Y-19936204D01*
X104393932Y-19926100D01*
X104448271Y-19947605D01*
X104602714Y-20055747D01*
X104789869Y-20136736D01*
X104840326Y-20147277D01*
X104984741Y-20177448D01*
X104984745Y-20177448D01*
X104989486Y-20178439D01*
X104994323Y-20178692D01*
X104994327Y-20178693D01*
X104994393Y-20178696D01*
X104996165Y-20178789D01*
X105145920Y-20178789D01*
X105218566Y-20171410D01*
X105291487Y-20164003D01*
X105291488Y-20164003D01*
X105297836Y-20163358D01*
X105492431Y-20102375D01*
X105670790Y-20003510D01*
X105813347Y-19881324D01*
X105878085Y-19852180D01*
X105895344Y-19850992D01*
X106616166Y-19850992D01*
X106631405Y-19846517D01*
X106632610Y-19845127D01*
X106634281Y-19837444D01*
X106634281Y-18597068D01*
X106630308Y-18583537D01*
X106622513Y-18582417D01*
X106514760Y-18614130D01*
X106503392Y-18618723D01*
X106339127Y-18704599D01*
X106328866Y-18711313D01*
X106207065Y-18809243D01*
X106141442Y-18836339D01*
X106071588Y-18823656D01*
X106019680Y-18775219D01*
X106009864Y-18754556D01*
X106004020Y-18738673D01*
X106004019Y-18738672D01*
X106001816Y-18732683D01*
X105909341Y-18583537D01*
X105897717Y-18564789D01*
X105897716Y-18564788D01*
X105894355Y-18559367D01*
X105842533Y-18504566D01*
X105758624Y-18415835D01*
X105754239Y-18411198D01*
X105736609Y-18398853D01*
X105592425Y-18297895D01*
X105592424Y-18297894D01*
X105587192Y-18294231D01*
X105400037Y-18213242D01*
X105349580Y-18202701D01*
X105205165Y-18172530D01*
X105205161Y-18172530D01*
X105200420Y-18171539D01*
X105195583Y-18171286D01*
X105195579Y-18171285D01*
X105195513Y-18171282D01*
X105193741Y-18171189D01*
X105043986Y-18171189D01*
X104971340Y-18178568D01*
X104898419Y-18185975D01*
X104898418Y-18185975D01*
X104892070Y-18186620D01*
X104697475Y-18247603D01*
X104519116Y-18346468D01*
X104514273Y-18350619D01*
X104457998Y-18398853D01*
X104393259Y-18427997D01*
X104323041Y-18417515D01*
X104269636Y-18370733D01*
X104250000Y-18303185D01*
X104250000Y-16271649D01*
X105880281Y-16271649D01*
X105880582Y-16277797D01*
X105894093Y-16415595D01*
X105896476Y-16427630D01*
X105950048Y-16605068D01*
X105954722Y-16616408D01*
X106041741Y-16780069D01*
X106048530Y-16790286D01*
X106165678Y-16933925D01*
X106174322Y-16942629D01*
X106317137Y-17060776D01*
X106327308Y-17067636D01*
X106490357Y-17155796D01*
X106501662Y-17160548D01*
X106616973Y-17196242D01*
X106631076Y-17196448D01*
X106634281Y-17189693D01*
X106634281Y-17182916D01*
X107142281Y-17182916D01*
X107146254Y-17196447D01*
X107154049Y-17197567D01*
X107261802Y-17165854D01*
X107273170Y-17161261D01*
X107437435Y-17075385D01*
X107447696Y-17068671D01*
X107592154Y-16952524D01*
X107600913Y-16943946D01*
X107720059Y-16801953D01*
X107726989Y-16791833D01*
X107816283Y-16629407D01*
X107821115Y-16618134D01*
X107877161Y-16441454D01*
X107879711Y-16429460D01*
X107895888Y-16285231D01*
X107896281Y-16278207D01*
X107896281Y-16197107D01*
X107891806Y-16181868D01*
X107890416Y-16180663D01*
X107882733Y-16178992D01*
X107160396Y-16178992D01*
X107145157Y-16183467D01*
X107143952Y-16184857D01*
X107142281Y-16192540D01*
X107142281Y-17182916D01*
X106634281Y-17182916D01*
X106634281Y-16197107D01*
X106629806Y-16181868D01*
X106628416Y-16180663D01*
X106620733Y-16178992D01*
X105898396Y-16178992D01*
X105883157Y-16183467D01*
X105881952Y-16184857D01*
X105880281Y-16192540D01*
X105880281Y-16271649D01*
X104250000Y-16271649D01*
X104250000Y-15509493D01*
X104270002Y-15441372D01*
X104323658Y-15394879D01*
X104376000Y-15383493D01*
X105760082Y-15383493D01*
X105828203Y-15403495D01*
X105874696Y-15457151D01*
X105885297Y-15523539D01*
X105880673Y-15564755D01*
X105880281Y-15571777D01*
X105880281Y-15652877D01*
X105884756Y-15668116D01*
X105886146Y-15669321D01*
X105893829Y-15670992D01*
X107878166Y-15670992D01*
X107893405Y-15666517D01*
X107894610Y-15665127D01*
X107896281Y-15657444D01*
X107896281Y-15578335D01*
X107895980Y-15572187D01*
X107882469Y-15434389D01*
X107880086Y-15422354D01*
X107826514Y-15244916D01*
X107821838Y-15233572D01*
X107796094Y-15185154D01*
X107781774Y-15115616D01*
X107807322Y-15049375D01*
X107864626Y-15007463D01*
X107907345Y-15000000D01*
X114508488Y-15000000D01*
X114576609Y-15020002D01*
G37*
%TD.AperFunction*%
%TA.AperFunction,Conductor*%
G36*
X107941902Y-20539994D02*
G01*
X107988395Y-20593650D01*
X107999781Y-20645992D01*
X107999781Y-20693992D01*
X107979779Y-20762113D01*
X107926123Y-20808606D01*
X107873781Y-20819992D01*
X107586281Y-20819992D01*
X107518160Y-20799990D01*
X107471667Y-20746334D01*
X107460281Y-20693992D01*
X107460281Y-20645992D01*
X107480283Y-20577871D01*
X107533939Y-20531378D01*
X107586281Y-20519992D01*
X107873781Y-20519992D01*
X107941902Y-20539994D01*
G37*
%TD.AperFunction*%
%TA.AperFunction,Conductor*%
G36*
X115390769Y-18153502D02*
G01*
X115411743Y-18170405D01*
X115745376Y-18504038D01*
X115779402Y-18566350D01*
X115782281Y-18593133D01*
X115782281Y-20232992D01*
X115762279Y-20301113D01*
X115708623Y-20347606D01*
X115656281Y-20358992D01*
X114829246Y-20358992D01*
X114761125Y-20338990D01*
X114714632Y-20285334D01*
X114704528Y-20215060D01*
X114733025Y-20151922D01*
X114736766Y-20148385D01*
X114838558Y-19998604D01*
X114865918Y-19930198D01*
X114909785Y-19874379D01*
X114982906Y-19850992D01*
X115256166Y-19850992D01*
X115271405Y-19846517D01*
X115272610Y-19845127D01*
X115274281Y-19837444D01*
X115274281Y-18597068D01*
X115270308Y-18583537D01*
X115262513Y-18582417D01*
X115154760Y-18614130D01*
X115143392Y-18618723D01*
X114979127Y-18704599D01*
X114968866Y-18711313D01*
X114845919Y-18810165D01*
X114780297Y-18837261D01*
X114710442Y-18824578D01*
X114658534Y-18776142D01*
X114641052Y-18707331D01*
X114642998Y-18691602D01*
X114643542Y-18689928D01*
X114663504Y-18500000D01*
X114647804Y-18350619D01*
X114644232Y-18316635D01*
X114644232Y-18316633D01*
X114643542Y-18310072D01*
X114641503Y-18303797D01*
X114641502Y-18303792D01*
X114639762Y-18298438D01*
X114637733Y-18227471D01*
X114674394Y-18166672D01*
X114738106Y-18135346D01*
X114759594Y-18133500D01*
X115322648Y-18133500D01*
X115390769Y-18153502D01*
G37*
%TD.AperFunction*%
%TD*%
M02*
