%TF.GenerationSoftware,KiCad,Pcbnew,(6.0.4-0)*%
%TF.CreationDate,2022-10-11T18:59:23-05:00*%
%TF.ProjectId,bancouver40_cfx,62616e63-6f75-4766-9572-34305f636678,rev?*%
%TF.SameCoordinates,Original*%
%TF.FileFunction,Legend,Top*%
%TF.FilePolarity,Positive*%
%FSLAX46Y46*%
G04 Gerber Fmt 4.6, Leading zero omitted, Abs format (unit mm)*
G04 Created by KiCad (PCBNEW (6.0.4-0)) date 2022-10-11 18:59:23*
%MOMM*%
%LPD*%
G01*
G04 APERTURE LIST*
%ADD10C,0.150000*%
G04 APERTURE END LIST*
D10*
%TO.C,H4*%
X226612988Y-46577357D02*
X226612988Y-45577357D01*
X226612988Y-46053548D02*
X227184416Y-46053548D01*
X227184416Y-46577357D02*
X227184416Y-45577357D01*
X228089178Y-45910691D02*
X228089178Y-46577357D01*
X227851083Y-45529738D02*
X227612988Y-46244024D01*
X228232035Y-46244024D01*
%TO.C,H5*%
X124613036Y-63577349D02*
X124613036Y-62577349D01*
X124613036Y-63053540D02*
X125184464Y-63053540D01*
X125184464Y-63577349D02*
X125184464Y-62577349D01*
X126136845Y-62577349D02*
X125660655Y-62577349D01*
X125613036Y-63053540D01*
X125660655Y-63005921D01*
X125755893Y-62958302D01*
X125993988Y-62958302D01*
X126089226Y-63005921D01*
X126136845Y-63053540D01*
X126184464Y-63148778D01*
X126184464Y-63386873D01*
X126136845Y-63482111D01*
X126089226Y-63529730D01*
X125993988Y-63577349D01*
X125755893Y-63577349D01*
X125660655Y-63529730D01*
X125613036Y-63482111D01*
%TO.C,H2*%
X192613004Y-29577365D02*
X192613004Y-28577365D01*
X192613004Y-29053556D02*
X193184432Y-29053556D01*
X193184432Y-29577365D02*
X193184432Y-28577365D01*
X193613004Y-28672604D02*
X193660623Y-28624985D01*
X193755861Y-28577365D01*
X193993956Y-28577365D01*
X194089194Y-28624985D01*
X194136813Y-28672604D01*
X194184432Y-28767842D01*
X194184432Y-28863080D01*
X194136813Y-29005937D01*
X193565385Y-29577365D01*
X194184432Y-29577365D01*
%TO.C,H6*%
X192613004Y-63577349D02*
X192613004Y-62577349D01*
X192613004Y-63053540D02*
X193184432Y-63053540D01*
X193184432Y-63577349D02*
X193184432Y-62577349D01*
X194089194Y-62577349D02*
X193898718Y-62577349D01*
X193803480Y-62624969D01*
X193755861Y-62672588D01*
X193660623Y-62815445D01*
X193613004Y-63005921D01*
X193613004Y-63386873D01*
X193660623Y-63482111D01*
X193708242Y-63529730D01*
X193803480Y-63577349D01*
X193993956Y-63577349D01*
X194089194Y-63529730D01*
X194136813Y-63482111D01*
X194184432Y-63386873D01*
X194184432Y-63148778D01*
X194136813Y-63053540D01*
X194089194Y-63005921D01*
X193993956Y-62958302D01*
X193803480Y-62958302D01*
X193708242Y-63005921D01*
X193660623Y-63053540D01*
X193613004Y-63148778D01*
%TO.C,H3*%
X90613052Y-46577357D02*
X90613052Y-45577357D01*
X90613052Y-46053548D02*
X91184480Y-46053548D01*
X91184480Y-46577357D02*
X91184480Y-45577357D01*
X91565433Y-45577357D02*
X92184480Y-45577357D01*
X91851147Y-45958310D01*
X91994004Y-45958310D01*
X92089242Y-46005929D01*
X92136861Y-46053548D01*
X92184480Y-46148786D01*
X92184480Y-46386881D01*
X92136861Y-46482119D01*
X92089242Y-46529738D01*
X91994004Y-46577357D01*
X91708290Y-46577357D01*
X91613052Y-46529738D01*
X91565433Y-46482119D01*
%TO.C,H1*%
X124613036Y-29577365D02*
X124613036Y-28577365D01*
X124613036Y-29053556D02*
X125184464Y-29053556D01*
X125184464Y-29577365D02*
X125184464Y-28577365D01*
X126184464Y-29577365D02*
X125613036Y-29577365D01*
X125898750Y-29577365D02*
X125898750Y-28577365D01*
X125803512Y-28720223D01*
X125708274Y-28815461D01*
X125613036Y-28863080D01*
%TO.C,SW25*%
X157874929Y-63374973D02*
X157874929Y-64374973D01*
X143874929Y-64374973D02*
X144874929Y-64374973D01*
X156874929Y-64374973D02*
X157874929Y-64374973D01*
X157874929Y-50374973D02*
X156874929Y-50374973D01*
X157874929Y-50374973D02*
X157874929Y-51374973D01*
X144874929Y-50374973D02*
X143874929Y-50374973D01*
X143874929Y-51374973D02*
X143874929Y-50374973D01*
X143874929Y-64374973D02*
X143874929Y-63374973D01*
X157874929Y-64374973D02*
X156874929Y-64374973D01*
%TO.C,SW17*%
X177874913Y-47374981D02*
X177874913Y-46374981D01*
X178874913Y-33374981D02*
X177874913Y-33374981D01*
X191874913Y-47374981D02*
X190874913Y-47374981D01*
X191874913Y-33374981D02*
X190874913Y-33374981D01*
X191874913Y-33374981D02*
X191874913Y-34374981D01*
X177874913Y-34374981D02*
X177874913Y-33374981D01*
X191874913Y-46374981D02*
X191874913Y-47374981D01*
X190874913Y-47374981D02*
X191874913Y-47374981D01*
X177874913Y-47374981D02*
X178874913Y-47374981D01*
%TO.C,SW23*%
X109874945Y-64374973D02*
X109874945Y-63374973D01*
X123874945Y-64374973D02*
X122874945Y-64374973D01*
X109874945Y-64374973D02*
X110874945Y-64374973D01*
X123874945Y-50374973D02*
X122874945Y-50374973D01*
X123874945Y-63374973D02*
X123874945Y-64374973D01*
X109874945Y-51374973D02*
X109874945Y-50374973D01*
X110874945Y-50374973D02*
X109874945Y-50374973D01*
X123874945Y-50374973D02*
X123874945Y-51374973D01*
X122874945Y-64374973D02*
X123874945Y-64374973D01*
%TO.C,SW26*%
X161874921Y-50374973D02*
X160874921Y-50374973D01*
X160874921Y-64374973D02*
X160874921Y-63374973D01*
X160874921Y-51374973D02*
X160874921Y-50374973D01*
X173874921Y-64374973D02*
X174874921Y-64374973D01*
X174874921Y-50374973D02*
X174874921Y-51374973D01*
X160874921Y-64374973D02*
X161874921Y-64374973D01*
X174874921Y-64374973D02*
X173874921Y-64374973D01*
X174874921Y-50374973D02*
X173874921Y-50374973D01*
X174874921Y-63374973D02*
X174874921Y-64374973D01*
%TO.C,SW13*%
X109874945Y-47374981D02*
X109874945Y-46374981D01*
X123874945Y-33374981D02*
X122874945Y-33374981D01*
X109874945Y-47374981D02*
X110874945Y-47374981D01*
X123874945Y-46374981D02*
X123874945Y-47374981D01*
X110874945Y-33374981D02*
X109874945Y-33374981D01*
X123874945Y-47374981D02*
X122874945Y-47374981D01*
X109874945Y-34374981D02*
X109874945Y-33374981D01*
X122874945Y-47374981D02*
X123874945Y-47374981D01*
X123874945Y-33374981D02*
X123874945Y-34374981D01*
%TO.C,SW20*%
X242874889Y-46374981D02*
X242874889Y-47374981D01*
X241874889Y-47374981D02*
X242874889Y-47374981D01*
X228874889Y-47374981D02*
X229874889Y-47374981D01*
X242874889Y-33374981D02*
X241874889Y-33374981D01*
X228874889Y-47374981D02*
X228874889Y-46374981D01*
X228874889Y-34374981D02*
X228874889Y-33374981D01*
X229874889Y-33374981D02*
X228874889Y-33374981D01*
X242874889Y-33374981D02*
X242874889Y-34374981D01*
X242874889Y-47374981D02*
X241874889Y-47374981D01*
%TO.C,SW16*%
X161874921Y-33374981D02*
X160874921Y-33374981D01*
X160874921Y-34374981D02*
X160874921Y-33374981D01*
X160874921Y-47374981D02*
X160874921Y-46374981D01*
X174874921Y-33374981D02*
X173874921Y-33374981D01*
X174874921Y-47374981D02*
X173874921Y-47374981D01*
X174874921Y-33374981D02*
X174874921Y-34374981D01*
X174874921Y-46374981D02*
X174874921Y-47374981D01*
X160874921Y-47374981D02*
X161874921Y-47374981D01*
X173874921Y-47374981D02*
X174874921Y-47374981D01*
%TO.C,SW4*%
X126874937Y-17374989D02*
X126874937Y-16374989D01*
X140874937Y-16374989D02*
X140874937Y-17374989D01*
X127874937Y-16374989D02*
X126874937Y-16374989D01*
X126874937Y-30374989D02*
X126874937Y-29374989D01*
X139874937Y-30374989D02*
X140874937Y-30374989D01*
X140874937Y-30374989D02*
X139874937Y-30374989D01*
X126874937Y-30374989D02*
X127874937Y-30374989D01*
X140874937Y-29374989D02*
X140874937Y-30374989D01*
X140874937Y-16374989D02*
X139874937Y-16374989D01*
%TO.C,SW1*%
X75874961Y-16374989D02*
X76874961Y-16374989D01*
X89874961Y-16374989D02*
X89874961Y-17374989D01*
X75874961Y-17374989D02*
X75874961Y-16374989D01*
X89874961Y-29374989D02*
X89874961Y-30374989D01*
X75874961Y-30374989D02*
X76874961Y-30374989D01*
X88874961Y-30374989D02*
X89874961Y-30374989D01*
X75874961Y-30374989D02*
X75874961Y-29374989D01*
X89874961Y-16374989D02*
X88874961Y-16374989D01*
X76874961Y-16374989D02*
X75874961Y-16374989D01*
%TO.C,SW29*%
X211874897Y-64374973D02*
X212874897Y-64374973D01*
X225874897Y-50374973D02*
X224874897Y-50374973D01*
X212874897Y-50374973D02*
X211874897Y-50374973D01*
X211874897Y-51374973D02*
X211874897Y-50374973D01*
X224874897Y-64374973D02*
X225874897Y-64374973D01*
X225874897Y-64374973D02*
X224874897Y-64374973D01*
X211874897Y-64374973D02*
X211874897Y-63374973D01*
X225874897Y-63374973D02*
X225874897Y-64374973D01*
X225874897Y-50374973D02*
X225874897Y-51374973D01*
%TO.C,SW15*%
X157874929Y-33374981D02*
X157874929Y-34374981D01*
X157874929Y-33374981D02*
X156874929Y-33374981D01*
X156874929Y-47374981D02*
X157874929Y-47374981D01*
X144874929Y-33374981D02*
X143874929Y-33374981D01*
X143874929Y-47374981D02*
X144874929Y-47374981D01*
X157874929Y-46374981D02*
X157874929Y-47374981D01*
X143874929Y-47374981D02*
X143874929Y-46374981D01*
X157874929Y-47374981D02*
X156874929Y-47374981D01*
X143874929Y-34374981D02*
X143874929Y-33374981D01*
%TO.C,SW34*%
X126874937Y-68374965D02*
X126874937Y-67374965D01*
X126874937Y-81374965D02*
X127874937Y-81374965D01*
X140874937Y-81374965D02*
X139874937Y-81374965D01*
X140874937Y-67374965D02*
X140874937Y-68374965D01*
X140874937Y-80374965D02*
X140874937Y-81374965D01*
X140874937Y-67374965D02*
X139874937Y-67374965D01*
X126874937Y-81374965D02*
X126874937Y-80374965D01*
X139874937Y-81374965D02*
X140874937Y-81374965D01*
X127874937Y-67374965D02*
X126874937Y-67374965D01*
%TO.C,SW6*%
X160874921Y-30374989D02*
X161874921Y-30374989D01*
X160874921Y-30374989D02*
X160874921Y-29374989D01*
X161874921Y-16374989D02*
X160874921Y-16374989D01*
X174874921Y-29374989D02*
X174874921Y-30374989D01*
X173874921Y-30374989D02*
X174874921Y-30374989D01*
X160874921Y-17374989D02*
X160874921Y-16374989D01*
X174874921Y-16374989D02*
X174874921Y-17374989D01*
X174874921Y-16374989D02*
X173874921Y-16374989D01*
X174874921Y-30374989D02*
X173874921Y-30374989D01*
%TO.C,SW10*%
X242874889Y-29374989D02*
X242874889Y-30374989D01*
X241874889Y-30374989D02*
X242874889Y-30374989D01*
X228874889Y-30374989D02*
X229874889Y-30374989D01*
X242874889Y-30374989D02*
X241874889Y-30374989D01*
X228874889Y-17374989D02*
X228874889Y-16374989D01*
X229874889Y-16374989D02*
X228874889Y-16374989D01*
X228874889Y-30374989D02*
X228874889Y-29374989D01*
X242874889Y-16374989D02*
X241874889Y-16374989D01*
X242874889Y-16374989D02*
X242874889Y-17374989D01*
%TO.C,SW33*%
X123874945Y-81374965D02*
X122874945Y-81374965D01*
X109874945Y-81374965D02*
X110874945Y-81374965D01*
X110874945Y-67374965D02*
X109874945Y-67374965D01*
X123874945Y-80374965D02*
X123874945Y-81374965D01*
X122874945Y-81374965D02*
X123874945Y-81374965D01*
X109874945Y-68374965D02*
X109874945Y-67374965D01*
X123874945Y-67374965D02*
X122874945Y-67374965D01*
X123874945Y-67374965D02*
X123874945Y-68374965D01*
X109874945Y-81374965D02*
X109874945Y-80374965D01*
%TO.C,SW27*%
X191874913Y-50374973D02*
X190874913Y-50374973D01*
X191874913Y-64374973D02*
X190874913Y-64374973D01*
X177874913Y-64374973D02*
X178874913Y-64374973D01*
X191874913Y-63374973D02*
X191874913Y-64374973D01*
X177874913Y-51374973D02*
X177874913Y-50374973D01*
X190874913Y-64374973D02*
X191874913Y-64374973D01*
X191874913Y-50374973D02*
X191874913Y-51374973D01*
X178874913Y-50374973D02*
X177874913Y-50374973D01*
X177874913Y-64374973D02*
X177874913Y-63374973D01*
%TO.C,SW30*%
X229874889Y-50374973D02*
X228874889Y-50374973D01*
X242874889Y-50374973D02*
X241874889Y-50374973D01*
X241874889Y-64374973D02*
X242874889Y-64374973D01*
X242874889Y-50374973D02*
X242874889Y-51374973D01*
X228874889Y-64374973D02*
X228874889Y-63374973D01*
X228874889Y-51374973D02*
X228874889Y-50374973D01*
X242874889Y-63374973D02*
X242874889Y-64374973D01*
X242874889Y-64374973D02*
X241874889Y-64374973D01*
X228874889Y-64374973D02*
X229874889Y-64374973D01*
%TO.C,SW7*%
X178874913Y-16374989D02*
X177874913Y-16374989D01*
X191874913Y-30374989D02*
X190874913Y-30374989D01*
X191874913Y-16374989D02*
X191874913Y-17374989D01*
X191874913Y-16374989D02*
X190874913Y-16374989D01*
X190874913Y-30374989D02*
X191874913Y-30374989D01*
X177874913Y-17374989D02*
X177874913Y-16374989D01*
X191874913Y-29374989D02*
X191874913Y-30374989D01*
X177874913Y-30374989D02*
X177874913Y-29374989D01*
X177874913Y-30374989D02*
X178874913Y-30374989D01*
%TO.C,SW19*%
X225874897Y-46374981D02*
X225874897Y-47374981D01*
X211874897Y-34374981D02*
X211874897Y-33374981D01*
X225874897Y-33374981D02*
X225874897Y-34374981D01*
X224874897Y-47374981D02*
X225874897Y-47374981D01*
X225874897Y-33374981D02*
X224874897Y-33374981D01*
X225874897Y-47374981D02*
X224874897Y-47374981D01*
X211874897Y-47374981D02*
X211874897Y-46374981D01*
X211874897Y-47374981D02*
X212874897Y-47374981D01*
X212874897Y-33374981D02*
X211874897Y-33374981D01*
%TO.C,SW40*%
X229874889Y-67374965D02*
X228874889Y-67374965D01*
X241874889Y-81374965D02*
X242874889Y-81374965D01*
X228874889Y-81374965D02*
X229874889Y-81374965D01*
X242874889Y-67374965D02*
X241874889Y-67374965D01*
X242874889Y-81374965D02*
X241874889Y-81374965D01*
X242874889Y-67374965D02*
X242874889Y-68374965D01*
X228874889Y-68374965D02*
X228874889Y-67374965D01*
X228874889Y-81374965D02*
X228874889Y-80374965D01*
X242874889Y-80374965D02*
X242874889Y-81374965D01*
%TO.C,SW24*%
X140874937Y-63374973D02*
X140874937Y-64374973D01*
X127874937Y-50374973D02*
X126874937Y-50374973D01*
X126874937Y-51374973D02*
X126874937Y-50374973D01*
X126874937Y-64374973D02*
X127874937Y-64374973D01*
X140874937Y-50374973D02*
X139874937Y-50374973D01*
X139874937Y-64374973D02*
X140874937Y-64374973D01*
X140874937Y-50374973D02*
X140874937Y-51374973D01*
X140874937Y-64374973D02*
X139874937Y-64374973D01*
X126874937Y-64374973D02*
X126874937Y-63374973D01*
%TO.C,SW32*%
X92874953Y-81374965D02*
X92874953Y-80374965D01*
X106874953Y-67374965D02*
X106874953Y-68374965D01*
X106874953Y-80374965D02*
X106874953Y-81374965D01*
X106874953Y-81374965D02*
X105874953Y-81374965D01*
X92874953Y-68374965D02*
X92874953Y-67374965D01*
X106874953Y-67374965D02*
X105874953Y-67374965D01*
X92874953Y-81374965D02*
X93874953Y-81374965D01*
X93874953Y-67374965D02*
X92874953Y-67374965D01*
X105874953Y-81374965D02*
X106874953Y-81374965D01*
%TO.C,SW5*%
X144874929Y-16374989D02*
X143874929Y-16374989D01*
X143874929Y-30374989D02*
X143874929Y-29374989D01*
X156874929Y-30374989D02*
X157874929Y-30374989D01*
X143874929Y-17374989D02*
X143874929Y-16374989D01*
X157874929Y-16374989D02*
X157874929Y-17374989D01*
X157874929Y-30374989D02*
X156874929Y-30374989D01*
X157874929Y-29374989D02*
X157874929Y-30374989D01*
X157874929Y-16374989D02*
X156874929Y-16374989D01*
X143874929Y-30374989D02*
X144874929Y-30374989D01*
%TO.C,SW31*%
X76874961Y-67374965D02*
X75874961Y-67374965D01*
X75874961Y-68374965D02*
X75874961Y-67374965D01*
X89874961Y-80374965D02*
X89874961Y-81374965D01*
X89874961Y-67374965D02*
X89874961Y-68374965D01*
X75874961Y-67374965D02*
X76874961Y-67374965D01*
X75874961Y-81374965D02*
X76874961Y-81374965D01*
X88874961Y-81374965D02*
X89874961Y-81374965D01*
X75874961Y-81374965D02*
X75874961Y-80374965D01*
X89874961Y-67374965D02*
X88874961Y-67374965D01*
%TO.C,SW38*%
X208874905Y-80374965D02*
X208874905Y-81374965D01*
X194874905Y-81374965D02*
X194874905Y-80374965D01*
X208874905Y-67374965D02*
X208874905Y-68374965D01*
X208874905Y-67374965D02*
X207874905Y-67374965D01*
X195874905Y-67374965D02*
X194874905Y-67374965D01*
X208874905Y-81374965D02*
X207874905Y-81374965D01*
X207874905Y-81374965D02*
X208874905Y-81374965D01*
X194874905Y-68374965D02*
X194874905Y-67374965D01*
X194874905Y-81374965D02*
X195874905Y-81374965D01*
%TO.C,SW35*%
X157874929Y-67374965D02*
X156874929Y-67374965D01*
X143874929Y-81374965D02*
X144874929Y-81374965D01*
X157874929Y-81374965D02*
X156874929Y-81374965D01*
X143874929Y-68374965D02*
X143874929Y-67374965D01*
X144874929Y-67374965D02*
X143874929Y-67374965D01*
X157874929Y-67374965D02*
X157874929Y-68374965D01*
X157874929Y-80374965D02*
X157874929Y-81374965D01*
X143874929Y-81374965D02*
X143874929Y-80374965D01*
X156874929Y-81374965D02*
X157874929Y-81374965D01*
%TO.C,SW18*%
X208874905Y-47374981D02*
X207874905Y-47374981D01*
X208874905Y-33374981D02*
X208874905Y-34374981D01*
X208874905Y-46374981D02*
X208874905Y-47374981D01*
X194874905Y-34374981D02*
X194874905Y-33374981D01*
X194874905Y-47374981D02*
X195874905Y-47374981D01*
X195874905Y-33374981D02*
X194874905Y-33374981D01*
X208874905Y-33374981D02*
X207874905Y-33374981D01*
X194874905Y-47374981D02*
X194874905Y-46374981D01*
X207874905Y-47374981D02*
X208874905Y-47374981D01*
%TO.C,SW3*%
X123874945Y-29374989D02*
X123874945Y-30374989D01*
X109874945Y-30374989D02*
X109874945Y-29374989D01*
X109874945Y-30374989D02*
X110874945Y-30374989D01*
X110874945Y-16374989D02*
X109874945Y-16374989D01*
X109874945Y-17374989D02*
X109874945Y-16374989D01*
X122874945Y-30374989D02*
X123874945Y-30374989D01*
X123874945Y-16374989D02*
X123874945Y-17374989D01*
X123874945Y-16374989D02*
X122874945Y-16374989D01*
X123874945Y-30374989D02*
X122874945Y-30374989D01*
%TO.C,SW9*%
X212874897Y-16374989D02*
X211874897Y-16374989D01*
X225874897Y-16374989D02*
X224874897Y-16374989D01*
X225874897Y-16374989D02*
X225874897Y-17374989D01*
X211874897Y-17374989D02*
X211874897Y-16374989D01*
X211874897Y-30374989D02*
X212874897Y-30374989D01*
X211874897Y-30374989D02*
X211874897Y-29374989D01*
X225874897Y-29374989D02*
X225874897Y-30374989D01*
X224874897Y-30374989D02*
X225874897Y-30374989D01*
X225874897Y-30374989D02*
X224874897Y-30374989D01*
%TO.C,SW14*%
X126874937Y-34374981D02*
X126874937Y-33374981D01*
X126874937Y-47374981D02*
X126874937Y-46374981D01*
X126874937Y-47374981D02*
X127874937Y-47374981D01*
X140874937Y-46374981D02*
X140874937Y-47374981D01*
X140874937Y-33374981D02*
X139874937Y-33374981D01*
X140874937Y-33374981D02*
X140874937Y-34374981D01*
X127874937Y-33374981D02*
X126874937Y-33374981D01*
X139874937Y-47374981D02*
X140874937Y-47374981D01*
X140874937Y-47374981D02*
X139874937Y-47374981D01*
%TO.C,SW21*%
X76874961Y-50374973D02*
X75874961Y-50374973D01*
X75874961Y-64374973D02*
X76874961Y-64374973D01*
X89874961Y-50374973D02*
X89874961Y-51374973D01*
X75874961Y-64374973D02*
X75874961Y-63374973D01*
X89874961Y-63374973D02*
X89874961Y-64374973D01*
X75874961Y-50374973D02*
X76874961Y-50374973D01*
X89874961Y-50374973D02*
X88874961Y-50374973D01*
X88874961Y-64374973D02*
X89874961Y-64374973D01*
X75874961Y-51374973D02*
X75874961Y-50374973D01*
%TO.C,SW2*%
X92874953Y-17374989D02*
X92874953Y-16374989D01*
X106874953Y-16374989D02*
X105874953Y-16374989D01*
X92874953Y-30374989D02*
X92874953Y-29374989D01*
X93874953Y-16374989D02*
X92874953Y-16374989D01*
X92874953Y-30374989D02*
X93874953Y-30374989D01*
X106874953Y-29374989D02*
X106874953Y-30374989D01*
X106874953Y-30374989D02*
X105874953Y-30374989D01*
X105874953Y-30374989D02*
X106874953Y-30374989D01*
X106874953Y-16374989D02*
X106874953Y-17374989D01*
%TO.C,SW12*%
X92874953Y-47374981D02*
X93874953Y-47374981D01*
X93874953Y-33374981D02*
X92874953Y-33374981D01*
X106874953Y-33374981D02*
X106874953Y-34374981D01*
X106874953Y-33374981D02*
X105874953Y-33374981D01*
X105874953Y-47374981D02*
X106874953Y-47374981D01*
X106874953Y-47374981D02*
X105874953Y-47374981D01*
X106874953Y-46374981D02*
X106874953Y-47374981D01*
X92874953Y-47374981D02*
X92874953Y-46374981D01*
X92874953Y-34374981D02*
X92874953Y-33374981D01*
%TO.C,SW36*%
X174874921Y-67374965D02*
X174874921Y-68374965D01*
X161874921Y-67374965D02*
X160874921Y-67374965D01*
X174874921Y-80374965D02*
X174874921Y-81374965D01*
X160874921Y-68374965D02*
X160874921Y-67374965D01*
X173874921Y-81374965D02*
X174874921Y-81374965D01*
X174874921Y-67374965D02*
X173874921Y-67374965D01*
X174874921Y-81374965D02*
X173874921Y-81374965D01*
X160874921Y-81374965D02*
X161874921Y-81374965D01*
X160874921Y-81374965D02*
X160874921Y-80374965D01*
%TO.C,SW22*%
X92874953Y-51374973D02*
X92874953Y-50374973D01*
X106874953Y-50374973D02*
X105874953Y-50374973D01*
X105874953Y-64374973D02*
X106874953Y-64374973D01*
X106874953Y-64374973D02*
X105874953Y-64374973D01*
X92874953Y-64374973D02*
X93874953Y-64374973D01*
X106874953Y-63374973D02*
X106874953Y-64374973D01*
X106874953Y-50374973D02*
X106874953Y-51374973D01*
X93874953Y-50374973D02*
X92874953Y-50374973D01*
X92874953Y-64374973D02*
X92874953Y-63374973D01*
%TO.C,SW28*%
X208874905Y-64374973D02*
X207874905Y-64374973D01*
X208874905Y-50374973D02*
X208874905Y-51374973D01*
X208874905Y-50374973D02*
X207874905Y-50374973D01*
X194874905Y-64374973D02*
X195874905Y-64374973D01*
X195874905Y-50374973D02*
X194874905Y-50374973D01*
X194874905Y-64374973D02*
X194874905Y-63374973D01*
X194874905Y-51374973D02*
X194874905Y-50374973D01*
X208874905Y-63374973D02*
X208874905Y-64374973D01*
X207874905Y-64374973D02*
X208874905Y-64374973D01*
%TO.C,SW37*%
X191874913Y-67374965D02*
X190874913Y-67374965D01*
X191874913Y-80374965D02*
X191874913Y-81374965D01*
X177874913Y-68374965D02*
X177874913Y-67374965D01*
X190874913Y-81374965D02*
X191874913Y-81374965D01*
X178874913Y-67374965D02*
X177874913Y-67374965D01*
X177874913Y-81374965D02*
X178874913Y-81374965D01*
X191874913Y-67374965D02*
X191874913Y-68374965D01*
X191874913Y-81374965D02*
X190874913Y-81374965D01*
X177874913Y-81374965D02*
X177874913Y-80374965D01*
%TO.C,SW11*%
X76874961Y-33374981D02*
X75874961Y-33374981D01*
X75874961Y-33374981D02*
X76874961Y-33374981D01*
X75874961Y-34374981D02*
X75874961Y-33374981D01*
X89874961Y-46374981D02*
X89874961Y-47374981D01*
X89874961Y-33374981D02*
X88874961Y-33374981D01*
X89874961Y-33374981D02*
X89874961Y-34374981D01*
X75874961Y-47374981D02*
X75874961Y-46374981D01*
X75874961Y-47374981D02*
X76874961Y-47374981D01*
X88874961Y-47374981D02*
X89874961Y-47374981D01*
%TO.C,SW39*%
X225874897Y-67374965D02*
X224874897Y-67374965D01*
X225874897Y-67374965D02*
X225874897Y-68374965D01*
X211874897Y-68374965D02*
X211874897Y-67374965D01*
X211874897Y-81374965D02*
X211874897Y-80374965D01*
X211874897Y-81374965D02*
X212874897Y-81374965D01*
X225874897Y-80374965D02*
X225874897Y-81374965D01*
X212874897Y-67374965D02*
X211874897Y-67374965D01*
X225874897Y-81374965D02*
X224874897Y-81374965D01*
X224874897Y-81374965D02*
X225874897Y-81374965D01*
%TO.C,SW8*%
X208874905Y-16374989D02*
X207874905Y-16374989D01*
X208874905Y-30374989D02*
X207874905Y-30374989D01*
X194874905Y-30374989D02*
X194874905Y-29374989D01*
X194874905Y-17374989D02*
X194874905Y-16374989D01*
X207874905Y-30374989D02*
X208874905Y-30374989D01*
X194874905Y-30374989D02*
X195874905Y-30374989D01*
X208874905Y-16374989D02*
X208874905Y-17374989D01*
X195874905Y-16374989D02*
X194874905Y-16374989D01*
X208874905Y-29374989D02*
X208874905Y-30374989D01*
%TD*%
M02*
