%TF.GenerationSoftware,KiCad,Pcbnew,(6.0.4-0)*%
%TF.CreationDate,2022-10-11T18:59:23-05:00*%
%TF.ProjectId,bancouver40_cfx,62616e63-6f75-4766-9572-34305f636678,rev?*%
%TF.SameCoordinates,Original*%
%TF.FileFunction,Soldermask,Top*%
%TF.FilePolarity,Negative*%
%FSLAX46Y46*%
G04 Gerber Fmt 4.6, Leading zero omitted, Abs format (unit mm)*
G04 Created by KiCad (PCBNEW (6.0.4-0)) date 2022-10-11 18:59:23*
%MOMM*%
%LPD*%
G01*
G04 APERTURE LIST*
%ADD10C,3.429000*%
%ADD11C,1.701800*%
%ADD12C,3.000000*%
%ADD13C,0.990600*%
%ADD14C,2.200000*%
%ADD15C,0.650000*%
%ADD16O,1.000000X2.100000*%
%ADD17O,1.000000X1.600000*%
G04 APERTURE END LIST*
D10*
%TO.C,SW25*%
X150874929Y-57374973D03*
D11*
X156374929Y-57374973D03*
D12*
X150874929Y-63324973D03*
D11*
X145374929Y-57374973D03*
D12*
X145874929Y-61124973D03*
D13*
X156094929Y-53174973D03*
%TD*%
D11*
%TO.C,SW17*%
X190374913Y-40374981D03*
D12*
X184874913Y-46324981D03*
D11*
X179374913Y-40374981D03*
D12*
X179874913Y-44124981D03*
D10*
X184874913Y-40374981D03*
D13*
X190094913Y-36174981D03*
%TD*%
D12*
%TO.C,SW23*%
X116874945Y-63324973D03*
D10*
X116874945Y-57374973D03*
D11*
X111374945Y-57374973D03*
D12*
X111874945Y-61124973D03*
D11*
X122374945Y-57374973D03*
D13*
X122094945Y-53174973D03*
%TD*%
D11*
%TO.C,SW26*%
X173374921Y-57374973D03*
D12*
X167874921Y-63324973D03*
X162874921Y-61124973D03*
D13*
X173094921Y-53174973D03*
D10*
X167874921Y-57374973D03*
D11*
X162374921Y-57374973D03*
%TD*%
D10*
%TO.C,SW13*%
X116874945Y-40374981D03*
D11*
X111374945Y-40374981D03*
D13*
X122094945Y-36174981D03*
D12*
X111874945Y-44124981D03*
D11*
X122374945Y-40374981D03*
D12*
X116874945Y-46324981D03*
%TD*%
D14*
%TO.C,H4*%
X227374893Y-48874977D03*
%TD*%
D12*
%TO.C,SW20*%
X230874889Y-44124981D03*
D11*
X241374889Y-40374981D03*
X230374889Y-40374981D03*
D12*
X235874889Y-46324981D03*
D10*
X235874889Y-40374981D03*
D13*
X241094889Y-36174981D03*
%TD*%
D11*
%TO.C,SW16*%
X162374921Y-40374981D03*
X173374921Y-40374981D03*
D13*
X173094921Y-36174981D03*
D12*
X162874921Y-44124981D03*
X167874921Y-46324981D03*
D10*
X167874921Y-40374981D03*
%TD*%
D12*
%TO.C,SW4*%
X128874937Y-27124989D03*
X133874937Y-29324989D03*
D10*
X133874937Y-23374989D03*
D13*
X139094937Y-19174989D03*
D11*
X128374937Y-23374989D03*
X139374937Y-23374989D03*
%TD*%
D10*
%TO.C,SW1*%
X82874961Y-23374989D03*
D12*
X82874961Y-17424989D03*
X87874961Y-19624989D03*
D11*
X77374961Y-23374989D03*
X88374961Y-23374989D03*
D13*
X77654961Y-27574989D03*
%TD*%
D12*
%TO.C,SW29*%
X218874897Y-63324973D03*
D10*
X218874897Y-57374973D03*
D11*
X224374897Y-57374973D03*
D13*
X224094897Y-53174973D03*
D11*
X213374897Y-57374973D03*
D12*
X213874897Y-61124973D03*
%TD*%
%TO.C,SW15*%
X150874929Y-46324981D03*
D11*
X156374929Y-40374981D03*
D13*
X156094929Y-36174981D03*
D11*
X145374929Y-40374981D03*
D12*
X145874929Y-44124981D03*
D10*
X150874929Y-40374981D03*
%TD*%
D11*
%TO.C,SW34*%
X139374937Y-74374965D03*
D13*
X139094937Y-70174965D03*
D10*
X133874937Y-74374965D03*
D11*
X128374937Y-74374965D03*
D12*
X133874937Y-80324965D03*
X128874937Y-78124965D03*
%TD*%
D10*
%TO.C,SW6*%
X167874921Y-23374989D03*
D12*
X167874921Y-29324989D03*
D11*
X173374921Y-23374989D03*
D12*
X162874921Y-27124989D03*
D13*
X173094921Y-19174989D03*
D11*
X162374921Y-23374989D03*
%TD*%
D13*
%TO.C,SW10*%
X241094889Y-19174989D03*
D12*
X230874889Y-27124989D03*
D10*
X235874889Y-23374989D03*
D12*
X235874889Y-29324989D03*
D11*
X230374889Y-23374989D03*
X241374889Y-23374989D03*
%TD*%
D13*
%TO.C,SW33*%
X122094945Y-70174965D03*
D12*
X111874945Y-78124965D03*
D11*
X122374945Y-74374965D03*
D10*
X116874945Y-74374965D03*
D12*
X116874945Y-80324965D03*
D11*
X111374945Y-74374965D03*
%TD*%
D13*
%TO.C,SW27*%
X190094913Y-53174973D03*
D11*
X190374913Y-57374973D03*
D12*
X184874913Y-63324973D03*
D11*
X179374913Y-57374973D03*
D10*
X184874913Y-57374973D03*
D12*
X179874913Y-61124973D03*
%TD*%
D11*
%TO.C,SW30*%
X230374889Y-57374973D03*
X241374889Y-57374973D03*
D13*
X241094889Y-53174973D03*
D12*
X230874889Y-61124973D03*
X235874889Y-63324973D03*
D10*
X235874889Y-57374973D03*
%TD*%
D14*
%TO.C,H5*%
X125374941Y-65874969D03*
%TD*%
%TO.C,H2*%
X193374909Y-31874985D03*
%TD*%
D11*
%TO.C,SW7*%
X190374913Y-23374989D03*
D12*
X184874913Y-29324989D03*
X179874913Y-27124989D03*
D11*
X179374913Y-23374989D03*
D10*
X184874913Y-23374989D03*
D13*
X190094913Y-19174989D03*
%TD*%
D12*
%TO.C,SW19*%
X213874897Y-44124981D03*
X218874897Y-46324981D03*
D10*
X218874897Y-40374981D03*
D11*
X213374897Y-40374981D03*
X224374897Y-40374981D03*
D13*
X224094897Y-36174981D03*
%TD*%
D12*
%TO.C,SW40*%
X235874889Y-80324965D03*
D10*
X235874889Y-74374965D03*
D13*
X241094889Y-70174965D03*
D11*
X230374889Y-74374965D03*
X241374889Y-74374965D03*
D12*
X230874889Y-78124965D03*
%TD*%
D14*
%TO.C,H6*%
X193374909Y-65874969D03*
%TD*%
D11*
%TO.C,SW24*%
X139374937Y-57374973D03*
D13*
X139094937Y-53174973D03*
D12*
X128874937Y-61124973D03*
D10*
X133874937Y-57374973D03*
D12*
X133874937Y-63324973D03*
D11*
X128374937Y-57374973D03*
%TD*%
D12*
%TO.C,SW32*%
X99874953Y-80324965D03*
X94874953Y-78124965D03*
D11*
X105374953Y-74374965D03*
D10*
X99874953Y-74374965D03*
D13*
X105094953Y-70174965D03*
D11*
X94374953Y-74374965D03*
%TD*%
D12*
%TO.C,SW5*%
X150874929Y-29324989D03*
D10*
X150874929Y-23374989D03*
D13*
X156094929Y-19174989D03*
D11*
X156374929Y-23374989D03*
X145374929Y-23374989D03*
D12*
X145874929Y-27124989D03*
%TD*%
D11*
%TO.C,SW31*%
X88374961Y-74374965D03*
D12*
X87874961Y-70624965D03*
D10*
X82874961Y-74374965D03*
D11*
X77374961Y-74374965D03*
D13*
X77654961Y-78574965D03*
D12*
X82874961Y-68424965D03*
%TD*%
%TO.C,SW38*%
X201874905Y-80324965D03*
D13*
X207094905Y-70174965D03*
D10*
X201874905Y-74374965D03*
D11*
X196374905Y-74374965D03*
D12*
X196874905Y-78124965D03*
D11*
X207374905Y-74374965D03*
%TD*%
%TO.C,SW35*%
X145374929Y-74374965D03*
D10*
X150874929Y-74374965D03*
D11*
X156374929Y-74374965D03*
D12*
X145874929Y-78124965D03*
X150874929Y-80324965D03*
D13*
X156094929Y-70174965D03*
%TD*%
%TO.C,SW18*%
X207094905Y-36174981D03*
D11*
X196374905Y-40374981D03*
X207374905Y-40374981D03*
D12*
X201874905Y-46324981D03*
D10*
X201874905Y-40374981D03*
D12*
X196874905Y-44124981D03*
%TD*%
%TO.C,SW3*%
X116874945Y-29324989D03*
D11*
X111374945Y-23374989D03*
D12*
X111874945Y-27124989D03*
D11*
X122374945Y-23374989D03*
D13*
X122094945Y-19174989D03*
D10*
X116874945Y-23374989D03*
%TD*%
%TO.C,SW9*%
X218874897Y-23374989D03*
D11*
X224374897Y-23374989D03*
X213374897Y-23374989D03*
D12*
X218874897Y-29324989D03*
X213874897Y-27124989D03*
D13*
X224094897Y-19174989D03*
%TD*%
%TO.C,SW14*%
X139094937Y-36174981D03*
D11*
X128374937Y-40374981D03*
X139374937Y-40374981D03*
D12*
X128874937Y-44124981D03*
D10*
X133874937Y-40374981D03*
D12*
X133874937Y-46324981D03*
%TD*%
%TO.C,SW21*%
X87874961Y-53624973D03*
X82874961Y-51424973D03*
D11*
X77374961Y-57374973D03*
X88374961Y-57374973D03*
D10*
X82874961Y-57374973D03*
D13*
X77654961Y-61574973D03*
%TD*%
D12*
%TO.C,SW2*%
X94874953Y-27124989D03*
D10*
X99874953Y-23374989D03*
D13*
X105094953Y-19174989D03*
D12*
X99874953Y-29324989D03*
D11*
X94374953Y-23374989D03*
X105374953Y-23374989D03*
%TD*%
D12*
%TO.C,SW12*%
X94874953Y-44124981D03*
D13*
X105094953Y-36174981D03*
D12*
X99874953Y-46324981D03*
D10*
X99874953Y-40374981D03*
D11*
X105374953Y-40374981D03*
X94374953Y-40374981D03*
%TD*%
D12*
%TO.C,SW36*%
X162874921Y-78124965D03*
D11*
X173374921Y-74374965D03*
D12*
X167874921Y-80324965D03*
D10*
X167874921Y-74374965D03*
D13*
X173094921Y-70174965D03*
D11*
X162374921Y-74374965D03*
%TD*%
%TO.C,SW22*%
X94374953Y-57374973D03*
D12*
X99874953Y-63324973D03*
D13*
X105094953Y-53174973D03*
D11*
X105374953Y-57374973D03*
D10*
X99874953Y-57374973D03*
D12*
X94874953Y-61124973D03*
%TD*%
D11*
%TO.C,SW28*%
X196374905Y-57374973D03*
X207374905Y-57374973D03*
D12*
X201874905Y-63324973D03*
D13*
X207094905Y-53174973D03*
D12*
X196874905Y-61124973D03*
D10*
X201874905Y-57374973D03*
%TD*%
D14*
%TO.C,H3*%
X91374957Y-48874977D03*
%TD*%
D11*
%TO.C,SW37*%
X179374913Y-74374965D03*
D10*
X184874913Y-74374965D03*
D12*
X179874913Y-78124965D03*
X184874913Y-80324965D03*
D11*
X190374913Y-74374965D03*
D13*
X190094913Y-70174965D03*
%TD*%
D11*
%TO.C,SW11*%
X88374961Y-40374981D03*
X77374961Y-40374981D03*
D12*
X87874961Y-36624981D03*
D13*
X77654961Y-44574981D03*
D12*
X82874961Y-34424981D03*
D10*
X82874961Y-40374981D03*
%TD*%
D13*
%TO.C,SW39*%
X224094897Y-70174965D03*
D12*
X213874897Y-78124965D03*
X218874897Y-80324965D03*
D11*
X213374897Y-74374965D03*
D10*
X218874897Y-74374965D03*
D11*
X224374897Y-74374965D03*
%TD*%
D14*
%TO.C,H1*%
X125374941Y-31874985D03*
%TD*%
D10*
%TO.C,SW8*%
X201874905Y-23374989D03*
D12*
X201874905Y-29324989D03*
D13*
X207094905Y-19174989D03*
D12*
X196874905Y-27124989D03*
D11*
X196374905Y-23374989D03*
X207374905Y-23374989D03*
%TD*%
D15*
%TO.C,J1*%
X108318281Y-19604992D03*
X114098281Y-19604992D03*
D16*
X106888281Y-20104992D03*
D17*
X106888281Y-15924992D03*
X115528281Y-15924992D03*
D16*
X115528281Y-20104992D03*
%TD*%
M02*
