%TF.GenerationSoftware,KiCad,Pcbnew,(6.0.4-0)*%
%TF.CreationDate,2022-10-11T18:59:22-05:00*%
%TF.ProjectId,bancouver40_cfx,62616e63-6f75-4766-9572-34305f636678,rev?*%
%TF.SameCoordinates,Original*%
%TF.FileFunction,Paste,Bot*%
%TF.FilePolarity,Positive*%
%FSLAX46Y46*%
G04 Gerber Fmt 4.6, Leading zero omitted, Abs format (unit mm)*
G04 Created by KiCad (PCBNEW (6.0.4-0)) date 2022-10-11 18:59:22*
%MOMM*%
%LPD*%
G01*
G04 APERTURE LIST*
G04 Aperture macros list*
%AMRoundRect*
0 Rectangle with rounded corners*
0 $1 Rounding radius*
0 $2 $3 $4 $5 $6 $7 $8 $9 X,Y pos of 4 corners*
0 Add a 4 corners polygon primitive as box body*
4,1,4,$2,$3,$4,$5,$6,$7,$8,$9,$2,$3,0*
0 Add four circle primitives for the rounded corners*
1,1,$1+$1,$2,$3*
1,1,$1+$1,$4,$5*
1,1,$1+$1,$6,$7*
1,1,$1+$1,$8,$9*
0 Add four rect primitives between the rounded corners*
20,1,$1+$1,$2,$3,$4,$5,0*
20,1,$1+$1,$4,$5,$6,$7,0*
20,1,$1+$1,$6,$7,$8,$9,0*
20,1,$1+$1,$8,$9,$2,$3,0*%
G04 Aperture macros list end*
%ADD10R,2.600000X2.600000*%
%ADD11R,0.450000X0.600000*%
%ADD12RoundRect,0.140000X0.219203X0.021213X0.021213X0.219203X-0.219203X-0.021213X-0.021213X-0.219203X0*%
%ADD13RoundRect,0.135000X-0.185000X0.135000X-0.185000X-0.135000X0.185000X-0.135000X0.185000X0.135000X0*%
%ADD14RoundRect,0.140000X0.021213X-0.219203X0.219203X-0.021213X-0.021213X0.219203X-0.219203X0.021213X0*%
%ADD15RoundRect,0.250000X0.000000X0.388909X-0.388909X0.000000X0.000000X-0.388909X0.388909X0.000000X0*%
%ADD16RoundRect,0.062500X0.291682X0.380070X-0.380070X-0.291682X-0.291682X-0.380070X0.380070X0.291682X0*%
%ADD17RoundRect,0.062500X-0.291682X0.380070X-0.380070X0.291682X0.291682X-0.380070X0.380070X-0.291682X0*%
%ADD18RoundRect,0.140000X-0.140000X-0.170000X0.140000X-0.170000X0.140000X0.170000X-0.140000X0.170000X0*%
%ADD19R,1.200000X1.400000*%
%ADD20RoundRect,0.140000X-0.021213X0.219203X-0.219203X0.021213X0.021213X-0.219203X0.219203X-0.021213X0*%
%ADD21RoundRect,0.135000X0.135000X0.185000X-0.135000X0.185000X-0.135000X-0.185000X0.135000X-0.185000X0*%
%ADD22R,1.800000X1.100000*%
%ADD23RoundRect,0.135000X-0.135000X-0.185000X0.135000X-0.185000X0.135000X0.185000X-0.135000X0.185000X0*%
%ADD24RoundRect,0.140000X0.140000X0.170000X-0.140000X0.170000X-0.140000X-0.170000X0.140000X-0.170000X0*%
%ADD25R,0.300000X1.150000*%
%ADD26RoundRect,0.250000X-0.625000X0.375000X-0.625000X-0.375000X0.625000X-0.375000X0.625000X0.375000X0*%
%ADD27RoundRect,0.140000X-0.219203X-0.021213X-0.021213X-0.219203X0.219203X0.021213X0.021213X0.219203X0*%
G04 APERTURE END LIST*
D10*
%TO.C,SW25*%
X154149929Y-63324973D03*
X142599929Y-61124973D03*
%TD*%
%TO.C,SW17*%
X188149913Y-46324981D03*
X176599913Y-44124981D03*
%TD*%
%TO.C,SW23*%
X120149945Y-63324973D03*
X108599945Y-61124973D03*
%TD*%
%TO.C,SW26*%
X171149921Y-63324973D03*
X159599921Y-61124973D03*
%TD*%
%TO.C,SW13*%
X120149945Y-46324981D03*
X108599945Y-44124981D03*
%TD*%
%TO.C,SW20*%
X239149889Y-46324981D03*
X227599889Y-44124981D03*
%TD*%
%TO.C,SW16*%
X171149921Y-46324981D03*
X159599921Y-44124981D03*
%TD*%
%TO.C,SW4*%
X137149937Y-29324989D03*
X125599937Y-27124989D03*
%TD*%
%TO.C,SW1*%
X79599961Y-17424989D03*
X91149961Y-19624989D03*
%TD*%
%TO.C,SW29*%
X222149897Y-63324973D03*
X210599897Y-61124973D03*
%TD*%
%TO.C,SW15*%
X154149929Y-46324981D03*
X142599929Y-44124981D03*
%TD*%
%TO.C,SW34*%
X137149937Y-80324965D03*
X125599937Y-78124965D03*
%TD*%
%TO.C,SW6*%
X171149921Y-29324989D03*
X159599921Y-27124989D03*
%TD*%
%TO.C,SW10*%
X239149889Y-29324989D03*
X227599889Y-27124989D03*
%TD*%
%TO.C,SW33*%
X120149945Y-80324965D03*
X108599945Y-78124965D03*
%TD*%
%TO.C,SW27*%
X188149913Y-63324973D03*
X176599913Y-61124973D03*
%TD*%
%TO.C,SW30*%
X239149889Y-63324973D03*
X227599889Y-61124973D03*
%TD*%
%TO.C,SW7*%
X188149913Y-29324989D03*
X176599913Y-27124989D03*
%TD*%
%TO.C,SW19*%
X222149897Y-46324981D03*
X210599897Y-44124981D03*
%TD*%
%TO.C,SW40*%
X239149889Y-80324965D03*
X227599889Y-78124965D03*
%TD*%
%TO.C,SW24*%
X137149937Y-63324973D03*
X125599937Y-61124973D03*
%TD*%
%TO.C,SW32*%
X103149953Y-80324965D03*
X91599953Y-78124965D03*
%TD*%
%TO.C,SW5*%
X154149929Y-29324989D03*
X142599929Y-27124989D03*
%TD*%
%TO.C,SW31*%
X79599961Y-68424965D03*
X91149961Y-70624965D03*
%TD*%
%TO.C,SW38*%
X205149905Y-80324965D03*
X193599905Y-78124965D03*
%TD*%
%TO.C,SW35*%
X154149929Y-80324965D03*
X142599929Y-78124965D03*
%TD*%
%TO.C,SW18*%
X205149905Y-46324981D03*
X193599905Y-44124981D03*
%TD*%
%TO.C,SW3*%
X120149945Y-29324989D03*
X108599945Y-27124989D03*
%TD*%
%TO.C,SW9*%
X222149897Y-29324989D03*
X210599897Y-27124989D03*
%TD*%
%TO.C,SW14*%
X137149937Y-46324981D03*
X125599937Y-44124981D03*
%TD*%
%TO.C,SW21*%
X79599961Y-51424973D03*
X91149961Y-53624973D03*
%TD*%
%TO.C,SW2*%
X103149953Y-29324989D03*
X91599953Y-27124989D03*
%TD*%
%TO.C,SW12*%
X103149953Y-46324981D03*
X91599953Y-44124981D03*
%TD*%
%TO.C,SW36*%
X171149921Y-80324965D03*
X159599921Y-78124965D03*
%TD*%
%TO.C,SW22*%
X103149953Y-63324973D03*
X91599953Y-61124973D03*
%TD*%
%TO.C,SW28*%
X205149905Y-63324973D03*
X193599905Y-61124973D03*
%TD*%
%TO.C,SW37*%
X188149913Y-80324965D03*
X176599913Y-78124965D03*
%TD*%
%TO.C,SW11*%
X79599961Y-34424981D03*
X91149961Y-36624981D03*
%TD*%
%TO.C,SW39*%
X222149897Y-80324965D03*
X210599897Y-78124965D03*
%TD*%
%TO.C,SW8*%
X205149905Y-29324989D03*
X193599905Y-27124989D03*
%TD*%
D11*
%TO.C,D35*%
X156541593Y-78283296D03*
X156541593Y-80383296D03*
%TD*%
%TO.C,D31*%
X88541625Y-78283296D03*
X88541625Y-80383296D03*
%TD*%
%TO.C,D30*%
X241541553Y-61283304D03*
X241541553Y-63383304D03*
%TD*%
%TO.C,D34*%
X139541601Y-78283296D03*
X139541601Y-80383296D03*
%TD*%
D12*
%TO.C,C5*%
X105839411Y-33089411D03*
X105160589Y-32410589D03*
%TD*%
D13*
%TO.C,R4*%
X114250000Y-23240000D03*
X114250000Y-24260000D03*
%TD*%
D11*
%TO.C,D11*%
X88541625Y-44283312D03*
X88541625Y-46383312D03*
%TD*%
%TO.C,D8*%
X207541569Y-27283320D03*
X207541569Y-29383320D03*
%TD*%
%TO.C,D22*%
X105541617Y-61283304D03*
X105541617Y-63383304D03*
%TD*%
%TO.C,D24*%
X139541601Y-61283304D03*
X139541601Y-63383304D03*
%TD*%
D14*
%TO.C,C4*%
X116660589Y-36539411D03*
X117339411Y-35860589D03*
%TD*%
D15*
%TO.C,U1*%
X108450565Y-34708317D03*
X111208281Y-35627556D03*
X111208281Y-31950601D03*
X111208281Y-37466033D03*
X109369803Y-35627556D03*
X112127520Y-32869839D03*
X110289042Y-32869839D03*
X110289042Y-36546795D03*
X111208281Y-33789078D03*
X113046759Y-33789078D03*
X113965997Y-34708317D03*
X110289042Y-34708317D03*
X112127520Y-34708317D03*
X113046759Y-35627556D03*
X112127520Y-36546795D03*
X109369803Y-33789078D03*
D16*
X111800483Y-30580581D03*
X112154036Y-30934135D03*
X112507590Y-31287688D03*
X112861143Y-31641241D03*
X113214696Y-31994795D03*
X113568250Y-32348348D03*
X113921803Y-32701902D03*
X114275357Y-33055455D03*
X114628910Y-33409008D03*
X114982463Y-33762562D03*
X115336017Y-34116115D03*
D17*
X115336017Y-35300519D03*
X114982463Y-35654072D03*
X114628910Y-36007626D03*
X114275357Y-36361179D03*
X113921803Y-36714732D03*
X113568250Y-37068286D03*
X113214696Y-37421839D03*
X112861143Y-37775393D03*
X112507590Y-38128946D03*
X112154036Y-38482499D03*
X111800483Y-38836053D03*
D16*
X110616079Y-38836053D03*
X110262526Y-38482499D03*
X109908972Y-38128946D03*
X109555419Y-37775393D03*
X109201866Y-37421839D03*
X108848312Y-37068286D03*
X108494759Y-36714732D03*
X108141205Y-36361179D03*
X107787652Y-36007626D03*
X107434099Y-35654072D03*
X107080545Y-35300519D03*
D17*
X107080545Y-34116115D03*
X107434099Y-33762562D03*
X107787652Y-33409008D03*
X108141205Y-33055455D03*
X108494759Y-32701902D03*
X108848312Y-32348348D03*
X109201866Y-31994795D03*
X109555419Y-31641241D03*
X109908972Y-31287688D03*
X110262526Y-30934135D03*
X110616079Y-30580581D03*
%TD*%
D11*
%TO.C,D27*%
X190541577Y-61283304D03*
X190541577Y-63383304D03*
%TD*%
%TO.C,D4*%
X139541601Y-27283320D03*
X139541601Y-29383320D03*
%TD*%
%TO.C,D40*%
X241541553Y-78283296D03*
X241541553Y-80383296D03*
%TD*%
%TO.C,D29*%
X224541561Y-61283304D03*
X224541561Y-63383304D03*
%TD*%
%TO.C,D28*%
X207541569Y-61283304D03*
X207541569Y-63383304D03*
%TD*%
%TO.C,D33*%
X122541609Y-78283296D03*
X122541609Y-80383296D03*
%TD*%
%TO.C,D15*%
X156541593Y-44283312D03*
X156541593Y-46383312D03*
%TD*%
%TO.C,D9*%
X224541561Y-27283320D03*
X224541561Y-29383320D03*
%TD*%
%TO.C,D21*%
X88541625Y-61283304D03*
X88541625Y-63383304D03*
%TD*%
D18*
%TO.C,C2*%
X119520000Y-34000000D03*
X120480000Y-34000000D03*
%TD*%
D19*
%TO.C,Y1*%
X118900000Y-37850000D03*
X118900000Y-35650000D03*
X120600000Y-35650000D03*
X120600000Y-37850000D03*
%TD*%
D11*
%TO.C,D32*%
X105541617Y-78283296D03*
X105541617Y-80383296D03*
%TD*%
D13*
%TO.C,R5*%
X113000000Y-23240000D03*
X113000000Y-24260000D03*
%TD*%
D11*
%TO.C,D19*%
X224541561Y-44283312D03*
X224541561Y-46383312D03*
%TD*%
%TO.C,D10*%
X241541553Y-27283320D03*
X241541553Y-29383320D03*
%TD*%
%TO.C,D14*%
X139541601Y-44283312D03*
X139541601Y-46383312D03*
%TD*%
%TO.C,D6*%
X173541585Y-27283320D03*
X173541585Y-29383320D03*
%TD*%
D20*
%TO.C,C7*%
X109689411Y-29535589D03*
X109010589Y-30214411D03*
%TD*%
D11*
%TO.C,D18*%
X207541569Y-44283312D03*
X207541569Y-46383312D03*
%TD*%
D21*
%TO.C,R6*%
X104760000Y-35000000D03*
X103740000Y-35000000D03*
%TD*%
D11*
%TO.C,D16*%
X173541585Y-44283312D03*
X173541585Y-46383312D03*
%TD*%
%TO.C,D13*%
X122541609Y-44283312D03*
X122541609Y-46383312D03*
%TD*%
%TO.C,D25*%
X156541593Y-61283304D03*
X156541593Y-63383304D03*
%TD*%
D22*
%TO.C,B1*%
X136940000Y-33820000D03*
X130740000Y-33820000D03*
X136940000Y-37520000D03*
X130740000Y-37520000D03*
%TD*%
D11*
%TO.C,D26*%
X173541585Y-61283304D03*
X173541585Y-63383304D03*
%TD*%
%TO.C,D1*%
X88541625Y-27283320D03*
X88541625Y-29383320D03*
%TD*%
%TO.C,D3*%
X122541609Y-27283320D03*
X122541609Y-29383320D03*
%TD*%
D18*
%TO.C,C6*%
X108831615Y-40374981D03*
X109791615Y-40374981D03*
%TD*%
D11*
%TO.C,D7*%
X190541577Y-27283320D03*
X190541577Y-29383320D03*
%TD*%
D23*
%TO.C,R3*%
X116990000Y-21000000D03*
X118010000Y-21000000D03*
%TD*%
D11*
%TO.C,D23*%
X122541609Y-61283304D03*
X122541609Y-63383304D03*
%TD*%
D24*
%TO.C,C1*%
X120730000Y-39500000D03*
X119770000Y-39500000D03*
%TD*%
D11*
%TO.C,D17*%
X190541577Y-44283312D03*
X190541577Y-46383312D03*
%TD*%
D25*
%TO.C,J1*%
X107858281Y-20669992D03*
X108658281Y-20669992D03*
X109958281Y-20669992D03*
X110958281Y-20669992D03*
X111458281Y-20669992D03*
X112458281Y-20669992D03*
X113758281Y-20669992D03*
X114558281Y-20669992D03*
X114258281Y-20669992D03*
X113458281Y-20669992D03*
X112958281Y-20669992D03*
X111958281Y-20669992D03*
X110458281Y-20669992D03*
X109458281Y-20669992D03*
X108958281Y-20669992D03*
X108158281Y-20669992D03*
%TD*%
D11*
%TO.C,D12*%
X105541617Y-44283312D03*
X105541617Y-46383312D03*
%TD*%
%TO.C,D5*%
X156541593Y-27283320D03*
X156541593Y-29383320D03*
%TD*%
%TO.C,D37*%
X190541577Y-78283296D03*
X190541577Y-80383296D03*
%TD*%
%TO.C,D36*%
X173541585Y-78283296D03*
X173541585Y-80383296D03*
%TD*%
D26*
%TO.C,F1*%
X103000000Y-22600000D03*
X103000000Y-25400000D03*
%TD*%
D27*
%TO.C,C3*%
X117140589Y-31980589D03*
X117819411Y-32659411D03*
%TD*%
D13*
%TO.C,R2*%
X107750000Y-22480000D03*
X107750000Y-23500000D03*
%TD*%
D11*
%TO.C,D39*%
X224541561Y-78283296D03*
X224541561Y-80383296D03*
%TD*%
D13*
%TO.C,R1*%
X128950000Y-35100000D03*
X128950000Y-36120000D03*
%TD*%
D11*
%TO.C,D20*%
X241541553Y-44283312D03*
X241541553Y-46383312D03*
%TD*%
%TO.C,D38*%
X207541569Y-78283296D03*
X207541569Y-80383296D03*
%TD*%
%TO.C,D2*%
X105541617Y-27283320D03*
X105541617Y-29383320D03*
%TD*%
M02*
