%TF.GenerationSoftware,KiCad,Pcbnew,(6.0.4-0)*%
%TF.CreationDate,2022-10-11T18:59:23-05:00*%
%TF.ProjectId,bancouver40_cfx,62616e63-6f75-4766-9572-34305f636678,rev?*%
%TF.SameCoordinates,Original*%
%TF.FileFunction,Legend,Bot*%
%TF.FilePolarity,Positive*%
%FSLAX46Y46*%
G04 Gerber Fmt 4.6, Leading zero omitted, Abs format (unit mm)*
G04 Created by KiCad (PCBNEW (6.0.4-0)) date 2022-10-11 18:59:23*
%MOMM*%
%LPD*%
G01*
G04 APERTURE LIST*
%ADD10C,0.004500*%
%ADD11C,0.150000*%
%ADD12C,0.300000*%
%ADD13C,0.120000*%
G04 APERTURE END LIST*
D10*
G36*
X235737177Y-21226202D02*
G01*
X233306317Y-19822745D01*
X233306317Y-18462864D01*
X233714671Y-18462864D01*
X233716517Y-18550010D01*
X233722008Y-18636217D01*
X233731066Y-18721413D01*
X233743619Y-18805521D01*
X233759592Y-18888467D01*
X233778909Y-18970177D01*
X233801497Y-19050576D01*
X233827280Y-19129589D01*
X233856184Y-19207142D01*
X233888134Y-19283159D01*
X233923055Y-19357567D01*
X233960873Y-19430290D01*
X234001514Y-19501255D01*
X234044902Y-19570385D01*
X234090962Y-19637607D01*
X234139621Y-19702846D01*
X234146659Y-19654201D01*
X234155137Y-19606035D01*
X234165031Y-19558371D01*
X234176320Y-19511231D01*
X234188981Y-19464637D01*
X234202990Y-19418613D01*
X234217974Y-19374223D01*
X234901383Y-19374223D01*
X234901535Y-19377784D01*
X234901852Y-19381337D01*
X234902335Y-19384875D01*
X234902983Y-19388391D01*
X234903797Y-19391879D01*
X234904776Y-19395333D01*
X234905921Y-19398747D01*
X234907232Y-19402115D01*
X234908708Y-19405429D01*
X234910349Y-19408684D01*
X234912157Y-19411874D01*
X234914129Y-19414992D01*
X234916268Y-19418032D01*
X234918571Y-19420988D01*
X234921041Y-19423853D01*
X234923676Y-19426622D01*
X234926444Y-19429256D01*
X234929309Y-19431726D01*
X234932265Y-19434030D01*
X234935305Y-19436168D01*
X234938423Y-19438141D01*
X234941613Y-19439948D01*
X234944868Y-19441589D01*
X234948182Y-19443065D01*
X234951550Y-19444376D01*
X234954964Y-19445521D01*
X234958418Y-19446500D01*
X234961906Y-19447314D01*
X234965422Y-19447962D01*
X234968960Y-19448445D01*
X234972513Y-19448762D01*
X234976074Y-19448914D01*
X234979639Y-19448900D01*
X234983199Y-19448720D01*
X234986750Y-19448375D01*
X234990284Y-19447865D01*
X234993796Y-19447189D01*
X234997279Y-19446347D01*
X235000727Y-19445340D01*
X235004134Y-19444167D01*
X235007493Y-19442829D01*
X235010798Y-19441325D01*
X235014043Y-19439655D01*
X235017221Y-19437820D01*
X235020326Y-19435820D01*
X235023353Y-19433654D01*
X235026294Y-19431322D01*
X235029143Y-19428825D01*
X235029149Y-19428830D01*
X235029154Y-19428836D01*
X235029166Y-19428848D01*
X235029177Y-19428860D01*
X235029189Y-19428871D01*
X235031439Y-19426622D01*
X235200204Y-19257856D01*
X235371220Y-19428871D01*
X235371242Y-19428848D01*
X235371254Y-19428836D01*
X235371266Y-19428825D01*
X235374115Y-19431322D01*
X235377056Y-19433654D01*
X235380082Y-19435820D01*
X235383187Y-19437820D01*
X235386366Y-19439655D01*
X235389610Y-19441325D01*
X235392915Y-19442829D01*
X235396274Y-19444167D01*
X235399681Y-19445340D01*
X235403129Y-19446347D01*
X235406612Y-19447189D01*
X235410124Y-19447865D01*
X235413658Y-19448375D01*
X235417209Y-19448720D01*
X235420769Y-19448900D01*
X235424333Y-19448914D01*
X235427895Y-19448762D01*
X235431448Y-19448445D01*
X235434985Y-19447962D01*
X235438501Y-19447314D01*
X235441990Y-19446500D01*
X235445444Y-19445521D01*
X235448858Y-19444376D01*
X235452225Y-19443065D01*
X235455540Y-19441589D01*
X235458795Y-19439948D01*
X235461985Y-19438141D01*
X235465103Y-19436168D01*
X235468143Y-19434030D01*
X235471099Y-19431726D01*
X235473964Y-19429256D01*
X235476732Y-19426622D01*
X235479367Y-19423853D01*
X235481837Y-19420988D01*
X235484141Y-19418032D01*
X235486279Y-19414992D01*
X235488252Y-19411874D01*
X235490059Y-19408684D01*
X235491700Y-19405429D01*
X235493177Y-19402115D01*
X235494487Y-19398747D01*
X235495632Y-19395333D01*
X235496611Y-19391879D01*
X235497425Y-19388391D01*
X235498074Y-19384875D01*
X235498556Y-19381337D01*
X235498874Y-19377784D01*
X235499025Y-19374223D01*
X235499011Y-19370659D01*
X235498832Y-19367098D01*
X235498487Y-19363547D01*
X235497976Y-19360013D01*
X235497300Y-19356501D01*
X235496458Y-19353018D01*
X235495451Y-19349570D01*
X235494278Y-19346164D01*
X235492940Y-19342805D01*
X235491436Y-19339500D01*
X235489767Y-19336255D01*
X235487932Y-19333077D01*
X235485931Y-19329971D01*
X235483765Y-19326945D01*
X235481434Y-19324004D01*
X235478936Y-19321155D01*
X235478982Y-19321108D01*
X235307967Y-19150093D01*
X235883078Y-19150093D01*
X235883172Y-19153913D01*
X235883452Y-19157685D01*
X235883913Y-19161404D01*
X235884551Y-19165066D01*
X235885361Y-19168666D01*
X235886338Y-19172199D01*
X235887479Y-19175662D01*
X235888779Y-19179049D01*
X235890234Y-19182357D01*
X235891838Y-19185581D01*
X235893588Y-19188716D01*
X235895479Y-19191758D01*
X235897507Y-19194703D01*
X235899667Y-19197545D01*
X235901955Y-19200282D01*
X235904366Y-19202908D01*
X235906897Y-19205418D01*
X235909541Y-19207809D01*
X235912296Y-19210076D01*
X235915156Y-19212214D01*
X235918117Y-19214219D01*
X235921175Y-19216087D01*
X235924326Y-19217813D01*
X235927564Y-19219392D01*
X235930885Y-19220821D01*
X235934286Y-19222094D01*
X235937760Y-19223208D01*
X235941305Y-19224158D01*
X235944916Y-19224939D01*
X235948587Y-19225548D01*
X235952315Y-19225978D01*
X235956096Y-19226227D01*
X235956096Y-19226293D01*
X236197948Y-19226293D01*
X236197948Y-19468144D01*
X236198014Y-19468144D01*
X236198263Y-19471925D01*
X236198693Y-19475653D01*
X236199302Y-19479325D01*
X236200083Y-19482935D01*
X236201033Y-19486480D01*
X236202147Y-19489955D01*
X236203420Y-19493355D01*
X236204849Y-19496677D01*
X236206429Y-19499915D01*
X236208154Y-19503065D01*
X236210022Y-19506123D01*
X236212027Y-19509085D01*
X236214165Y-19511945D01*
X236216432Y-19514699D01*
X236218823Y-19517344D01*
X236221333Y-19519874D01*
X236223959Y-19522285D01*
X236226696Y-19524573D01*
X236229538Y-19526733D01*
X236232483Y-19528761D01*
X236235525Y-19530652D01*
X236238660Y-19532402D01*
X236241884Y-19534007D01*
X236245191Y-19535461D01*
X236248579Y-19536761D01*
X236252041Y-19537902D01*
X236255575Y-19538880D01*
X236259174Y-19539690D01*
X236262836Y-19540327D01*
X236266555Y-19540788D01*
X236270327Y-19541068D01*
X236274147Y-19541162D01*
X236277968Y-19541068D01*
X236281740Y-19540788D01*
X236285459Y-19540327D01*
X236289121Y-19539690D01*
X236292721Y-19538880D01*
X236296254Y-19537902D01*
X236299717Y-19536761D01*
X236303104Y-19535461D01*
X236306412Y-19534007D01*
X236309636Y-19532402D01*
X236312771Y-19530652D01*
X236315813Y-19528761D01*
X236318758Y-19526733D01*
X236321600Y-19524573D01*
X236324337Y-19522285D01*
X236326963Y-19519874D01*
X236329473Y-19517344D01*
X236331864Y-19514699D01*
X236334131Y-19511945D01*
X236336269Y-19509085D01*
X236338274Y-19506123D01*
X236340142Y-19503065D01*
X236341868Y-19499915D01*
X236343447Y-19496677D01*
X236344876Y-19493355D01*
X236346150Y-19489955D01*
X236347264Y-19486480D01*
X236348213Y-19482935D01*
X236348995Y-19479325D01*
X236349603Y-19475653D01*
X236350034Y-19471925D01*
X236350283Y-19468144D01*
X236350347Y-19468144D01*
X236350347Y-19226293D01*
X236592200Y-19226293D01*
X236592200Y-19226227D01*
X236595980Y-19225978D01*
X236599708Y-19225548D01*
X236603380Y-19224939D01*
X236606990Y-19224158D01*
X236610535Y-19223208D01*
X236614010Y-19222094D01*
X236617410Y-19220821D01*
X236620732Y-19219392D01*
X236623970Y-19217813D01*
X236627120Y-19216087D01*
X236630178Y-19214219D01*
X236633140Y-19212214D01*
X236636000Y-19210076D01*
X236638754Y-19207809D01*
X236641399Y-19205418D01*
X236643929Y-19202908D01*
X236646340Y-19200282D01*
X236648628Y-19197545D01*
X236650788Y-19194703D01*
X236652816Y-19191758D01*
X236654707Y-19188716D01*
X236656457Y-19185581D01*
X236658062Y-19182357D01*
X236659516Y-19179049D01*
X236660816Y-19175662D01*
X236661957Y-19172199D01*
X236662935Y-19168666D01*
X236663745Y-19165066D01*
X236664382Y-19161404D01*
X236664843Y-19157685D01*
X236665123Y-19153913D01*
X236665217Y-19150093D01*
X236665123Y-19146272D01*
X236664843Y-19142500D01*
X236664382Y-19138781D01*
X236663745Y-19135119D01*
X236662935Y-19131520D01*
X236661957Y-19127986D01*
X236660816Y-19124524D01*
X236659516Y-19121136D01*
X236658062Y-19117828D01*
X236656457Y-19114605D01*
X236654707Y-19111470D01*
X236652816Y-19108428D01*
X236650789Y-19105483D01*
X236648628Y-19102640D01*
X236646341Y-19099904D01*
X236643929Y-19097278D01*
X236641399Y-19094768D01*
X236638755Y-19092377D01*
X236636000Y-19090110D01*
X236633140Y-19087972D01*
X236630179Y-19085967D01*
X236627120Y-19084099D01*
X236623970Y-19082373D01*
X236620732Y-19080794D01*
X236617411Y-19079365D01*
X236614010Y-19078091D01*
X236610535Y-19076977D01*
X236606991Y-19076028D01*
X236603380Y-19075246D01*
X236599708Y-19074638D01*
X236595980Y-19074207D01*
X236592200Y-19073958D01*
X236592200Y-19073893D01*
X236350347Y-19073893D01*
X236350347Y-18832041D01*
X236350283Y-18832041D01*
X236350034Y-18828260D01*
X236349603Y-18824532D01*
X236348995Y-18820860D01*
X236348213Y-18817250D01*
X236347264Y-18813705D01*
X236346150Y-18810230D01*
X236344876Y-18806830D01*
X236343447Y-18803508D01*
X236341868Y-18800270D01*
X236340142Y-18797120D01*
X236338274Y-18794062D01*
X236336269Y-18791101D01*
X236334131Y-18788240D01*
X236331864Y-18785486D01*
X236329473Y-18782841D01*
X236326963Y-18780311D01*
X236324337Y-18777900D01*
X236321600Y-18775612D01*
X236318758Y-18773452D01*
X236315813Y-18771424D01*
X236312771Y-18769533D01*
X236309636Y-18767783D01*
X236306412Y-18766178D01*
X236303104Y-18764724D01*
X236299717Y-18763424D01*
X236296254Y-18762283D01*
X236292721Y-18761305D01*
X236289121Y-18760495D01*
X236285459Y-18759858D01*
X236281740Y-18759397D01*
X236277968Y-18759117D01*
X236274147Y-18759023D01*
X236270327Y-18759117D01*
X236266555Y-18759397D01*
X236262836Y-18759858D01*
X236259174Y-18760495D01*
X236255575Y-18761305D01*
X236252041Y-18762283D01*
X236248579Y-18763424D01*
X236245191Y-18764724D01*
X236241884Y-18766178D01*
X236238660Y-18767783D01*
X236235525Y-18769533D01*
X236232483Y-18771424D01*
X236229538Y-18773452D01*
X236226695Y-18775612D01*
X236223959Y-18777900D01*
X236221333Y-18780311D01*
X236218823Y-18782841D01*
X236216432Y-18785486D01*
X236214165Y-18788240D01*
X236212027Y-18791101D01*
X236210022Y-18794062D01*
X236208154Y-18797120D01*
X236206428Y-18800270D01*
X236204848Y-18803508D01*
X236203420Y-18806830D01*
X236202146Y-18810230D01*
X236201032Y-18813705D01*
X236200082Y-18817250D01*
X236199301Y-18820860D01*
X236198693Y-18824532D01*
X236198262Y-18828260D01*
X236198013Y-18832041D01*
X236197948Y-18832041D01*
X236197948Y-19073894D01*
X235959184Y-19073894D01*
X235956096Y-19073893D01*
X235956096Y-19073958D01*
X235952315Y-19074207D01*
X235948587Y-19074637D01*
X235944916Y-19075246D01*
X235941305Y-19076027D01*
X235937760Y-19076977D01*
X235934286Y-19078091D01*
X235930885Y-19079364D01*
X235927564Y-19080793D01*
X235924326Y-19082373D01*
X235921175Y-19084098D01*
X235918117Y-19085966D01*
X235915156Y-19087971D01*
X235912296Y-19090109D01*
X235909541Y-19092376D01*
X235906897Y-19094767D01*
X235904366Y-19097277D01*
X235901955Y-19099903D01*
X235899667Y-19102640D01*
X235897507Y-19105482D01*
X235895479Y-19108427D01*
X235893588Y-19111469D01*
X235891838Y-19114604D01*
X235890234Y-19117828D01*
X235888779Y-19121136D01*
X235887479Y-19124523D01*
X235886338Y-19127986D01*
X235885361Y-19131519D01*
X235884551Y-19135119D01*
X235883913Y-19138781D01*
X235883452Y-19142500D01*
X235883172Y-19146272D01*
X235883078Y-19150093D01*
X235307967Y-19150093D01*
X235476732Y-18981327D01*
X235478982Y-18979078D01*
X235478936Y-18979032D01*
X235481434Y-18976182D01*
X235483765Y-18973241D01*
X235485931Y-18970215D01*
X235487932Y-18967110D01*
X235489767Y-18963931D01*
X235491436Y-18960687D01*
X235492940Y-18957382D01*
X235494278Y-18954023D01*
X235495451Y-18950616D01*
X235496458Y-18947168D01*
X235497300Y-18943685D01*
X235497976Y-18940173D01*
X235498487Y-18936639D01*
X235498832Y-18933088D01*
X235499011Y-18929528D01*
X235499025Y-18925963D01*
X235498874Y-18922402D01*
X235498556Y-18918849D01*
X235498074Y-18915311D01*
X235497425Y-18911795D01*
X235496611Y-18908307D01*
X235495632Y-18904853D01*
X235494487Y-18901439D01*
X235493177Y-18898071D01*
X235491700Y-18894757D01*
X235490059Y-18891502D01*
X235488252Y-18888312D01*
X235486279Y-18885194D01*
X235484141Y-18882154D01*
X235481837Y-18879198D01*
X235479367Y-18876333D01*
X235476732Y-18873564D01*
X235473964Y-18870929D01*
X235471099Y-18868460D01*
X235468143Y-18866156D01*
X235465103Y-18864018D01*
X235461985Y-18862045D01*
X235458795Y-18860238D01*
X235455540Y-18858596D01*
X235452225Y-18857120D01*
X235448858Y-18855810D01*
X235445444Y-18854665D01*
X235441990Y-18853685D01*
X235438501Y-18852872D01*
X235434985Y-18852223D01*
X235431448Y-18851741D01*
X235427895Y-18851423D01*
X235424333Y-18851272D01*
X235420769Y-18851286D01*
X235417209Y-18851465D01*
X235413658Y-18851810D01*
X235410124Y-18852321D01*
X235406612Y-18852997D01*
X235403129Y-18853839D01*
X235399681Y-18854846D01*
X235396274Y-18856019D01*
X235392915Y-18857357D01*
X235389610Y-18858861D01*
X235386366Y-18860530D01*
X235383187Y-18862365D01*
X235380082Y-18864366D01*
X235377056Y-18866532D01*
X235374115Y-18868864D01*
X235371266Y-18871361D01*
X235371220Y-18871314D01*
X235368969Y-18873564D01*
X235200204Y-19042330D01*
X235031438Y-18873565D01*
X235031405Y-18873532D01*
X235031389Y-18873515D01*
X235031372Y-18873498D01*
X235029190Y-18871314D01*
X235029143Y-18871361D01*
X235026294Y-18868864D01*
X235023353Y-18866532D01*
X235020326Y-18864366D01*
X235017221Y-18862365D01*
X235014043Y-18860530D01*
X235010798Y-18858861D01*
X235007493Y-18857357D01*
X235004134Y-18856019D01*
X235000727Y-18854846D01*
X234997279Y-18853839D01*
X234993796Y-18852997D01*
X234990284Y-18852321D01*
X234986750Y-18851810D01*
X234983199Y-18851465D01*
X234979639Y-18851286D01*
X234976075Y-18851272D01*
X234972513Y-18851424D01*
X234968960Y-18851741D01*
X234965423Y-18852224D01*
X234961907Y-18852872D01*
X234958418Y-18853686D01*
X234954964Y-18854665D01*
X234951550Y-18855810D01*
X234948183Y-18857121D01*
X234944868Y-18858597D01*
X234941613Y-18860238D01*
X234938423Y-18862046D01*
X234935305Y-18864018D01*
X234932265Y-18866157D01*
X234929309Y-18868461D01*
X234926444Y-18870930D01*
X234923676Y-18873565D01*
X234921041Y-18876333D01*
X234918571Y-18879198D01*
X234916268Y-18882154D01*
X234914129Y-18885194D01*
X234912157Y-18888312D01*
X234910349Y-18891502D01*
X234908708Y-18894757D01*
X234907232Y-18898072D01*
X234905921Y-18901439D01*
X234904776Y-18904853D01*
X234903797Y-18908307D01*
X234902983Y-18911796D01*
X234902335Y-18915312D01*
X234901852Y-18918849D01*
X234901535Y-18922402D01*
X234901383Y-18925964D01*
X234901397Y-18929528D01*
X234901577Y-18933089D01*
X234901922Y-18936639D01*
X234902432Y-18940174D01*
X234903108Y-18943685D01*
X234903950Y-18947168D01*
X234904957Y-18950616D01*
X234906130Y-18954023D01*
X234907468Y-18957382D01*
X234908972Y-18960687D01*
X234910642Y-18963932D01*
X234912477Y-18967110D01*
X234914477Y-18970215D01*
X234916643Y-18973241D01*
X234918975Y-18976182D01*
X234921472Y-18979032D01*
X234921449Y-18979055D01*
X234921437Y-18979066D01*
X234921426Y-18979078D01*
X234923676Y-18981328D01*
X235092442Y-19150093D01*
X234923676Y-19318858D01*
X234921426Y-19321108D01*
X234921472Y-19321155D01*
X234918975Y-19324004D01*
X234916643Y-19326945D01*
X234914477Y-19329971D01*
X234912477Y-19333077D01*
X234910642Y-19336255D01*
X234908972Y-19339500D01*
X234907468Y-19342805D01*
X234906130Y-19346164D01*
X234904957Y-19349570D01*
X234903950Y-19353018D01*
X234903108Y-19356501D01*
X234902432Y-19360013D01*
X234901922Y-19363547D01*
X234901577Y-19367098D01*
X234901397Y-19370659D01*
X234901383Y-19374223D01*
X234217974Y-19374223D01*
X234218325Y-19373182D01*
X234234965Y-19328365D01*
X234252885Y-19284186D01*
X234272063Y-19240668D01*
X234292477Y-19197832D01*
X234314104Y-19155702D01*
X234336921Y-19114300D01*
X234360905Y-19073649D01*
X234386035Y-19033772D01*
X234412286Y-18994691D01*
X234380452Y-18969069D01*
X234350133Y-18941722D01*
X234321403Y-18912723D01*
X234294337Y-18882147D01*
X234269009Y-18850068D01*
X234245493Y-18816561D01*
X234223864Y-18781700D01*
X234204196Y-18745560D01*
X234186564Y-18708214D01*
X234171041Y-18669736D01*
X234157702Y-18630203D01*
X234146622Y-18589687D01*
X234137875Y-18548263D01*
X234131535Y-18506005D01*
X234127677Y-18462989D01*
X234126374Y-18419287D01*
X234127314Y-18382145D01*
X234130104Y-18345488D01*
X234134699Y-18309363D01*
X234141053Y-18273814D01*
X234149121Y-18238886D01*
X234158857Y-18204627D01*
X234170215Y-18171080D01*
X234183150Y-18138292D01*
X234197618Y-18106308D01*
X234213571Y-18075173D01*
X234230965Y-18044933D01*
X234249755Y-18015633D01*
X234269894Y-17987320D01*
X234291337Y-17960037D01*
X234314039Y-17933832D01*
X234337955Y-17908748D01*
X234363038Y-17884833D01*
X234389244Y-17862131D01*
X234416526Y-17840687D01*
X234444840Y-17820548D01*
X234474139Y-17801759D01*
X234504379Y-17784365D01*
X234535514Y-17768411D01*
X234567498Y-17753944D01*
X234600287Y-17741009D01*
X234633833Y-17729650D01*
X234668093Y-17719914D01*
X234703020Y-17711847D01*
X234738569Y-17705493D01*
X234774694Y-17700898D01*
X234811351Y-17698108D01*
X234848493Y-17697167D01*
X234882174Y-17697940D01*
X234915459Y-17700236D01*
X234948315Y-17704021D01*
X234980708Y-17709261D01*
X235012605Y-17715923D01*
X235043971Y-17723972D01*
X235074772Y-17733375D01*
X235104975Y-17744098D01*
X235134545Y-17756107D01*
X235163449Y-17769368D01*
X235191654Y-17783848D01*
X235219124Y-17799511D01*
X235245827Y-17816326D01*
X235271728Y-17834257D01*
X235296794Y-17853271D01*
X235320991Y-17873334D01*
X235344284Y-17894412D01*
X235366641Y-17916472D01*
X235388027Y-17939479D01*
X235408408Y-17963400D01*
X235427750Y-17988200D01*
X235446020Y-18013846D01*
X235463184Y-18040305D01*
X235479208Y-18067541D01*
X235494058Y-18095522D01*
X235507700Y-18124213D01*
X235520100Y-18153581D01*
X235531225Y-18183592D01*
X235541040Y-18214211D01*
X235549512Y-18245406D01*
X235556607Y-18277141D01*
X235562291Y-18309384D01*
X235583876Y-18307197D01*
X235605543Y-18305296D01*
X235627291Y-18303681D01*
X235649118Y-18302356D01*
X235671021Y-18301322D01*
X235693000Y-18300582D01*
X235715052Y-18300136D01*
X235737176Y-18299987D01*
X235760901Y-18300158D01*
X235784543Y-18300671D01*
X235808101Y-18301522D01*
X235831572Y-18302711D01*
X235854954Y-18304233D01*
X235878245Y-18306088D01*
X235901441Y-18308271D01*
X235924541Y-18310782D01*
X235930582Y-18278979D01*
X235937998Y-18247683D01*
X235946757Y-18216927D01*
X235956826Y-18186745D01*
X235968172Y-18157169D01*
X235980761Y-18128232D01*
X235994562Y-18099968D01*
X236009540Y-18072408D01*
X236025664Y-18045587D01*
X236042899Y-18019536D01*
X236061214Y-17994289D01*
X236080575Y-17969879D01*
X236100950Y-17946339D01*
X236122305Y-17923702D01*
X236144608Y-17902000D01*
X236167825Y-17881267D01*
X236191923Y-17861535D01*
X236216871Y-17842837D01*
X236242634Y-17825207D01*
X236269181Y-17808677D01*
X236296477Y-17793280D01*
X236324490Y-17779049D01*
X236353187Y-17766018D01*
X236382535Y-17754218D01*
X236412502Y-17743683D01*
X236443054Y-17734446D01*
X236474158Y-17726540D01*
X236505782Y-17719997D01*
X236537892Y-17714851D01*
X236570456Y-17711135D01*
X236603440Y-17708881D01*
X236636812Y-17708122D01*
X236673954Y-17709062D01*
X236710611Y-17711852D01*
X236746736Y-17716447D01*
X236782285Y-17722801D01*
X236817213Y-17730869D01*
X236851472Y-17740605D01*
X236885019Y-17751963D01*
X236917807Y-17764898D01*
X236949791Y-17779366D01*
X236980926Y-17795319D01*
X237011166Y-17812713D01*
X237040466Y-17831503D01*
X237068779Y-17851642D01*
X237096062Y-17873085D01*
X237122267Y-17895787D01*
X237147351Y-17919703D01*
X237171266Y-17944786D01*
X237193968Y-17970992D01*
X237215412Y-17998274D01*
X237235551Y-18026588D01*
X237254340Y-18055887D01*
X237271734Y-18086127D01*
X237287688Y-18117262D01*
X237302155Y-18149246D01*
X237315091Y-18182035D01*
X237326449Y-18215581D01*
X237336185Y-18249841D01*
X237344252Y-18284768D01*
X237350606Y-18320317D01*
X237355201Y-18356443D01*
X237357991Y-18393099D01*
X237358932Y-18430241D01*
X237358931Y-18430241D01*
X237357617Y-18474131D01*
X237353726Y-18517329D01*
X237347331Y-18559761D01*
X237338510Y-18601352D01*
X237327337Y-18642025D01*
X237313888Y-18681705D01*
X237298237Y-18720318D01*
X237280460Y-18757788D01*
X237260633Y-18794039D01*
X237238831Y-18828997D01*
X237215129Y-18862586D01*
X237189602Y-18894730D01*
X237162326Y-18925354D01*
X237133376Y-18954384D01*
X237102827Y-18981743D01*
X237070755Y-19007357D01*
X237096126Y-19045890D01*
X237120414Y-19085180D01*
X237143596Y-19125206D01*
X237157069Y-19150093D01*
X237165652Y-19165948D01*
X237186561Y-19207382D01*
X237206302Y-19249490D01*
X237224852Y-19292248D01*
X237242190Y-19335635D01*
X237258296Y-19379631D01*
X237273148Y-19424214D01*
X237286724Y-19469363D01*
X237299004Y-19515056D01*
X237309966Y-19561272D01*
X237319589Y-19607990D01*
X237327850Y-19655188D01*
X237334730Y-19702846D01*
X237383389Y-19637607D01*
X237429450Y-19570385D01*
X237472838Y-19501254D01*
X237513478Y-19430290D01*
X237551296Y-19357567D01*
X237586218Y-19283159D01*
X237618168Y-19207141D01*
X237647071Y-19129589D01*
X237672854Y-19050576D01*
X237695442Y-18970177D01*
X237714759Y-18888467D01*
X237730732Y-18805521D01*
X237743285Y-18721413D01*
X237752344Y-18636217D01*
X237757834Y-18550010D01*
X237759680Y-18462864D01*
X237757047Y-18358837D01*
X237749232Y-18256170D01*
X237736363Y-18154989D01*
X237718567Y-18055424D01*
X237695971Y-17957601D01*
X237668703Y-17861647D01*
X237636891Y-17767690D01*
X237600661Y-17675857D01*
X237560141Y-17586275D01*
X237515459Y-17499073D01*
X237466741Y-17414377D01*
X237414116Y-17332315D01*
X237357711Y-17253014D01*
X237297652Y-17176602D01*
X237234068Y-17103206D01*
X237167086Y-17032953D01*
X237096833Y-16965971D01*
X237023437Y-16902387D01*
X236947025Y-16842329D01*
X236867724Y-16785923D01*
X236785662Y-16733298D01*
X236700966Y-16684581D01*
X236613764Y-16639898D01*
X236524183Y-16599379D01*
X236432350Y-16563149D01*
X236338393Y-16531336D01*
X236242439Y-16504069D01*
X236144615Y-16481473D01*
X236045050Y-16463677D01*
X235943870Y-16450808D01*
X235841203Y-16442993D01*
X235737176Y-16440359D01*
X235633148Y-16442993D01*
X235530481Y-16450808D01*
X235429301Y-16463677D01*
X235329736Y-16481473D01*
X235231912Y-16504069D01*
X235135958Y-16531336D01*
X235042001Y-16563149D01*
X234950168Y-16599379D01*
X234860587Y-16639898D01*
X234773385Y-16684581D01*
X234688689Y-16733298D01*
X234606627Y-16785923D01*
X234527326Y-16842329D01*
X234450914Y-16902387D01*
X234377518Y-16965971D01*
X234307265Y-17032953D01*
X234240283Y-17103206D01*
X234176699Y-17176602D01*
X234116640Y-17253014D01*
X234060235Y-17332315D01*
X234007610Y-17414377D01*
X233958892Y-17499073D01*
X233914210Y-17586275D01*
X233873690Y-17675857D01*
X233837460Y-17767690D01*
X233805648Y-17861647D01*
X233778380Y-17957601D01*
X233755785Y-18055424D01*
X233737988Y-18154989D01*
X233725119Y-18256170D01*
X233717304Y-18358837D01*
X233714671Y-18462864D01*
X233306317Y-18462864D01*
X233306318Y-17015829D01*
X235737175Y-15612374D01*
X238168035Y-17015830D01*
X238168035Y-18462864D01*
X238168034Y-19822746D01*
X235737177Y-21226202D01*
G37*
X235737177Y-21226202D02*
X233306317Y-19822745D01*
X233306317Y-18462864D01*
X233714671Y-18462864D01*
X233716517Y-18550010D01*
X233722008Y-18636217D01*
X233731066Y-18721413D01*
X233743619Y-18805521D01*
X233759592Y-18888467D01*
X233778909Y-18970177D01*
X233801497Y-19050576D01*
X233827280Y-19129589D01*
X233856184Y-19207142D01*
X233888134Y-19283159D01*
X233923055Y-19357567D01*
X233960873Y-19430290D01*
X234001514Y-19501255D01*
X234044902Y-19570385D01*
X234090962Y-19637607D01*
X234139621Y-19702846D01*
X234146659Y-19654201D01*
X234155137Y-19606035D01*
X234165031Y-19558371D01*
X234176320Y-19511231D01*
X234188981Y-19464637D01*
X234202990Y-19418613D01*
X234217974Y-19374223D01*
X234901383Y-19374223D01*
X234901535Y-19377784D01*
X234901852Y-19381337D01*
X234902335Y-19384875D01*
X234902983Y-19388391D01*
X234903797Y-19391879D01*
X234904776Y-19395333D01*
X234905921Y-19398747D01*
X234907232Y-19402115D01*
X234908708Y-19405429D01*
X234910349Y-19408684D01*
X234912157Y-19411874D01*
X234914129Y-19414992D01*
X234916268Y-19418032D01*
X234918571Y-19420988D01*
X234921041Y-19423853D01*
X234923676Y-19426622D01*
X234926444Y-19429256D01*
X234929309Y-19431726D01*
X234932265Y-19434030D01*
X234935305Y-19436168D01*
X234938423Y-19438141D01*
X234941613Y-19439948D01*
X234944868Y-19441589D01*
X234948182Y-19443065D01*
X234951550Y-19444376D01*
X234954964Y-19445521D01*
X234958418Y-19446500D01*
X234961906Y-19447314D01*
X234965422Y-19447962D01*
X234968960Y-19448445D01*
X234972513Y-19448762D01*
X234976074Y-19448914D01*
X234979639Y-19448900D01*
X234983199Y-19448720D01*
X234986750Y-19448375D01*
X234990284Y-19447865D01*
X234993796Y-19447189D01*
X234997279Y-19446347D01*
X235000727Y-19445340D01*
X235004134Y-19444167D01*
X235007493Y-19442829D01*
X235010798Y-19441325D01*
X235014043Y-19439655D01*
X235017221Y-19437820D01*
X235020326Y-19435820D01*
X235023353Y-19433654D01*
X235026294Y-19431322D01*
X235029143Y-19428825D01*
X235029149Y-19428830D01*
X235029154Y-19428836D01*
X235029166Y-19428848D01*
X235029177Y-19428860D01*
X235029189Y-19428871D01*
X235031439Y-19426622D01*
X235200204Y-19257856D01*
X235371220Y-19428871D01*
X235371242Y-19428848D01*
X235371254Y-19428836D01*
X235371266Y-19428825D01*
X235374115Y-19431322D01*
X235377056Y-19433654D01*
X235380082Y-19435820D01*
X235383187Y-19437820D01*
X235386366Y-19439655D01*
X235389610Y-19441325D01*
X235392915Y-19442829D01*
X235396274Y-19444167D01*
X235399681Y-19445340D01*
X235403129Y-19446347D01*
X235406612Y-19447189D01*
X235410124Y-19447865D01*
X235413658Y-19448375D01*
X235417209Y-19448720D01*
X235420769Y-19448900D01*
X235424333Y-19448914D01*
X235427895Y-19448762D01*
X235431448Y-19448445D01*
X235434985Y-19447962D01*
X235438501Y-19447314D01*
X235441990Y-19446500D01*
X235445444Y-19445521D01*
X235448858Y-19444376D01*
X235452225Y-19443065D01*
X235455540Y-19441589D01*
X235458795Y-19439948D01*
X235461985Y-19438141D01*
X235465103Y-19436168D01*
X235468143Y-19434030D01*
X235471099Y-19431726D01*
X235473964Y-19429256D01*
X235476732Y-19426622D01*
X235479367Y-19423853D01*
X235481837Y-19420988D01*
X235484141Y-19418032D01*
X235486279Y-19414992D01*
X235488252Y-19411874D01*
X235490059Y-19408684D01*
X235491700Y-19405429D01*
X235493177Y-19402115D01*
X235494487Y-19398747D01*
X235495632Y-19395333D01*
X235496611Y-19391879D01*
X235497425Y-19388391D01*
X235498074Y-19384875D01*
X235498556Y-19381337D01*
X235498874Y-19377784D01*
X235499025Y-19374223D01*
X235499011Y-19370659D01*
X235498832Y-19367098D01*
X235498487Y-19363547D01*
X235497976Y-19360013D01*
X235497300Y-19356501D01*
X235496458Y-19353018D01*
X235495451Y-19349570D01*
X235494278Y-19346164D01*
X235492940Y-19342805D01*
X235491436Y-19339500D01*
X235489767Y-19336255D01*
X235487932Y-19333077D01*
X235485931Y-19329971D01*
X235483765Y-19326945D01*
X235481434Y-19324004D01*
X235478936Y-19321155D01*
X235478982Y-19321108D01*
X235307967Y-19150093D01*
X235883078Y-19150093D01*
X235883172Y-19153913D01*
X235883452Y-19157685D01*
X235883913Y-19161404D01*
X235884551Y-19165066D01*
X235885361Y-19168666D01*
X235886338Y-19172199D01*
X235887479Y-19175662D01*
X235888779Y-19179049D01*
X235890234Y-19182357D01*
X235891838Y-19185581D01*
X235893588Y-19188716D01*
X235895479Y-19191758D01*
X235897507Y-19194703D01*
X235899667Y-19197545D01*
X235901955Y-19200282D01*
X235904366Y-19202908D01*
X235906897Y-19205418D01*
X235909541Y-19207809D01*
X235912296Y-19210076D01*
X235915156Y-19212214D01*
X235918117Y-19214219D01*
X235921175Y-19216087D01*
X235924326Y-19217813D01*
X235927564Y-19219392D01*
X235930885Y-19220821D01*
X235934286Y-19222094D01*
X235937760Y-19223208D01*
X235941305Y-19224158D01*
X235944916Y-19224939D01*
X235948587Y-19225548D01*
X235952315Y-19225978D01*
X235956096Y-19226227D01*
X235956096Y-19226293D01*
X236197948Y-19226293D01*
X236197948Y-19468144D01*
X236198014Y-19468144D01*
X236198263Y-19471925D01*
X236198693Y-19475653D01*
X236199302Y-19479325D01*
X236200083Y-19482935D01*
X236201033Y-19486480D01*
X236202147Y-19489955D01*
X236203420Y-19493355D01*
X236204849Y-19496677D01*
X236206429Y-19499915D01*
X236208154Y-19503065D01*
X236210022Y-19506123D01*
X236212027Y-19509085D01*
X236214165Y-19511945D01*
X236216432Y-19514699D01*
X236218823Y-19517344D01*
X236221333Y-19519874D01*
X236223959Y-19522285D01*
X236226696Y-19524573D01*
X236229538Y-19526733D01*
X236232483Y-19528761D01*
X236235525Y-19530652D01*
X236238660Y-19532402D01*
X236241884Y-19534007D01*
X236245191Y-19535461D01*
X236248579Y-19536761D01*
X236252041Y-19537902D01*
X236255575Y-19538880D01*
X236259174Y-19539690D01*
X236262836Y-19540327D01*
X236266555Y-19540788D01*
X236270327Y-19541068D01*
X236274147Y-19541162D01*
X236277968Y-19541068D01*
X236281740Y-19540788D01*
X236285459Y-19540327D01*
X236289121Y-19539690D01*
X236292721Y-19538880D01*
X236296254Y-19537902D01*
X236299717Y-19536761D01*
X236303104Y-19535461D01*
X236306412Y-19534007D01*
X236309636Y-19532402D01*
X236312771Y-19530652D01*
X236315813Y-19528761D01*
X236318758Y-19526733D01*
X236321600Y-19524573D01*
X236324337Y-19522285D01*
X236326963Y-19519874D01*
X236329473Y-19517344D01*
X236331864Y-19514699D01*
X236334131Y-19511945D01*
X236336269Y-19509085D01*
X236338274Y-19506123D01*
X236340142Y-19503065D01*
X236341868Y-19499915D01*
X236343447Y-19496677D01*
X236344876Y-19493355D01*
X236346150Y-19489955D01*
X236347264Y-19486480D01*
X236348213Y-19482935D01*
X236348995Y-19479325D01*
X236349603Y-19475653D01*
X236350034Y-19471925D01*
X236350283Y-19468144D01*
X236350347Y-19468144D01*
X236350347Y-19226293D01*
X236592200Y-19226293D01*
X236592200Y-19226227D01*
X236595980Y-19225978D01*
X236599708Y-19225548D01*
X236603380Y-19224939D01*
X236606990Y-19224158D01*
X236610535Y-19223208D01*
X236614010Y-19222094D01*
X236617410Y-19220821D01*
X236620732Y-19219392D01*
X236623970Y-19217813D01*
X236627120Y-19216087D01*
X236630178Y-19214219D01*
X236633140Y-19212214D01*
X236636000Y-19210076D01*
X236638754Y-19207809D01*
X236641399Y-19205418D01*
X236643929Y-19202908D01*
X236646340Y-19200282D01*
X236648628Y-19197545D01*
X236650788Y-19194703D01*
X236652816Y-19191758D01*
X236654707Y-19188716D01*
X236656457Y-19185581D01*
X236658062Y-19182357D01*
X236659516Y-19179049D01*
X236660816Y-19175662D01*
X236661957Y-19172199D01*
X236662935Y-19168666D01*
X236663745Y-19165066D01*
X236664382Y-19161404D01*
X236664843Y-19157685D01*
X236665123Y-19153913D01*
X236665217Y-19150093D01*
X236665123Y-19146272D01*
X236664843Y-19142500D01*
X236664382Y-19138781D01*
X236663745Y-19135119D01*
X236662935Y-19131520D01*
X236661957Y-19127986D01*
X236660816Y-19124524D01*
X236659516Y-19121136D01*
X236658062Y-19117828D01*
X236656457Y-19114605D01*
X236654707Y-19111470D01*
X236652816Y-19108428D01*
X236650789Y-19105483D01*
X236648628Y-19102640D01*
X236646341Y-19099904D01*
X236643929Y-19097278D01*
X236641399Y-19094768D01*
X236638755Y-19092377D01*
X236636000Y-19090110D01*
X236633140Y-19087972D01*
X236630179Y-19085967D01*
X236627120Y-19084099D01*
X236623970Y-19082373D01*
X236620732Y-19080794D01*
X236617411Y-19079365D01*
X236614010Y-19078091D01*
X236610535Y-19076977D01*
X236606991Y-19076028D01*
X236603380Y-19075246D01*
X236599708Y-19074638D01*
X236595980Y-19074207D01*
X236592200Y-19073958D01*
X236592200Y-19073893D01*
X236350347Y-19073893D01*
X236350347Y-18832041D01*
X236350283Y-18832041D01*
X236350034Y-18828260D01*
X236349603Y-18824532D01*
X236348995Y-18820860D01*
X236348213Y-18817250D01*
X236347264Y-18813705D01*
X236346150Y-18810230D01*
X236344876Y-18806830D01*
X236343447Y-18803508D01*
X236341868Y-18800270D01*
X236340142Y-18797120D01*
X236338274Y-18794062D01*
X236336269Y-18791101D01*
X236334131Y-18788240D01*
X236331864Y-18785486D01*
X236329473Y-18782841D01*
X236326963Y-18780311D01*
X236324337Y-18777900D01*
X236321600Y-18775612D01*
X236318758Y-18773452D01*
X236315813Y-18771424D01*
X236312771Y-18769533D01*
X236309636Y-18767783D01*
X236306412Y-18766178D01*
X236303104Y-18764724D01*
X236299717Y-18763424D01*
X236296254Y-18762283D01*
X236292721Y-18761305D01*
X236289121Y-18760495D01*
X236285459Y-18759858D01*
X236281740Y-18759397D01*
X236277968Y-18759117D01*
X236274147Y-18759023D01*
X236270327Y-18759117D01*
X236266555Y-18759397D01*
X236262836Y-18759858D01*
X236259174Y-18760495D01*
X236255575Y-18761305D01*
X236252041Y-18762283D01*
X236248579Y-18763424D01*
X236245191Y-18764724D01*
X236241884Y-18766178D01*
X236238660Y-18767783D01*
X236235525Y-18769533D01*
X236232483Y-18771424D01*
X236229538Y-18773452D01*
X236226695Y-18775612D01*
X236223959Y-18777900D01*
X236221333Y-18780311D01*
X236218823Y-18782841D01*
X236216432Y-18785486D01*
X236214165Y-18788240D01*
X236212027Y-18791101D01*
X236210022Y-18794062D01*
X236208154Y-18797120D01*
X236206428Y-18800270D01*
X236204848Y-18803508D01*
X236203420Y-18806830D01*
X236202146Y-18810230D01*
X236201032Y-18813705D01*
X236200082Y-18817250D01*
X236199301Y-18820860D01*
X236198693Y-18824532D01*
X236198262Y-18828260D01*
X236198013Y-18832041D01*
X236197948Y-18832041D01*
X236197948Y-19073894D01*
X235959184Y-19073894D01*
X235956096Y-19073893D01*
X235956096Y-19073958D01*
X235952315Y-19074207D01*
X235948587Y-19074637D01*
X235944916Y-19075246D01*
X235941305Y-19076027D01*
X235937760Y-19076977D01*
X235934286Y-19078091D01*
X235930885Y-19079364D01*
X235927564Y-19080793D01*
X235924326Y-19082373D01*
X235921175Y-19084098D01*
X235918117Y-19085966D01*
X235915156Y-19087971D01*
X235912296Y-19090109D01*
X235909541Y-19092376D01*
X235906897Y-19094767D01*
X235904366Y-19097277D01*
X235901955Y-19099903D01*
X235899667Y-19102640D01*
X235897507Y-19105482D01*
X235895479Y-19108427D01*
X235893588Y-19111469D01*
X235891838Y-19114604D01*
X235890234Y-19117828D01*
X235888779Y-19121136D01*
X235887479Y-19124523D01*
X235886338Y-19127986D01*
X235885361Y-19131519D01*
X235884551Y-19135119D01*
X235883913Y-19138781D01*
X235883452Y-19142500D01*
X235883172Y-19146272D01*
X235883078Y-19150093D01*
X235307967Y-19150093D01*
X235476732Y-18981327D01*
X235478982Y-18979078D01*
X235478936Y-18979032D01*
X235481434Y-18976182D01*
X235483765Y-18973241D01*
X235485931Y-18970215D01*
X235487932Y-18967110D01*
X235489767Y-18963931D01*
X235491436Y-18960687D01*
X235492940Y-18957382D01*
X235494278Y-18954023D01*
X235495451Y-18950616D01*
X235496458Y-18947168D01*
X235497300Y-18943685D01*
X235497976Y-18940173D01*
X235498487Y-18936639D01*
X235498832Y-18933088D01*
X235499011Y-18929528D01*
X235499025Y-18925963D01*
X235498874Y-18922402D01*
X235498556Y-18918849D01*
X235498074Y-18915311D01*
X235497425Y-18911795D01*
X235496611Y-18908307D01*
X235495632Y-18904853D01*
X235494487Y-18901439D01*
X235493177Y-18898071D01*
X235491700Y-18894757D01*
X235490059Y-18891502D01*
X235488252Y-18888312D01*
X235486279Y-18885194D01*
X235484141Y-18882154D01*
X235481837Y-18879198D01*
X235479367Y-18876333D01*
X235476732Y-18873564D01*
X235473964Y-18870929D01*
X235471099Y-18868460D01*
X235468143Y-18866156D01*
X235465103Y-18864018D01*
X235461985Y-18862045D01*
X235458795Y-18860238D01*
X235455540Y-18858596D01*
X235452225Y-18857120D01*
X235448858Y-18855810D01*
X235445444Y-18854665D01*
X235441990Y-18853685D01*
X235438501Y-18852872D01*
X235434985Y-18852223D01*
X235431448Y-18851741D01*
X235427895Y-18851423D01*
X235424333Y-18851272D01*
X235420769Y-18851286D01*
X235417209Y-18851465D01*
X235413658Y-18851810D01*
X235410124Y-18852321D01*
X235406612Y-18852997D01*
X235403129Y-18853839D01*
X235399681Y-18854846D01*
X235396274Y-18856019D01*
X235392915Y-18857357D01*
X235389610Y-18858861D01*
X235386366Y-18860530D01*
X235383187Y-18862365D01*
X235380082Y-18864366D01*
X235377056Y-18866532D01*
X235374115Y-18868864D01*
X235371266Y-18871361D01*
X235371220Y-18871314D01*
X235368969Y-18873564D01*
X235200204Y-19042330D01*
X235031438Y-18873565D01*
X235031405Y-18873532D01*
X235031389Y-18873515D01*
X235031372Y-18873498D01*
X235029190Y-18871314D01*
X235029143Y-18871361D01*
X235026294Y-18868864D01*
X235023353Y-18866532D01*
X235020326Y-18864366D01*
X235017221Y-18862365D01*
X235014043Y-18860530D01*
X235010798Y-18858861D01*
X235007493Y-18857357D01*
X235004134Y-18856019D01*
X235000727Y-18854846D01*
X234997279Y-18853839D01*
X234993796Y-18852997D01*
X234990284Y-18852321D01*
X234986750Y-18851810D01*
X234983199Y-18851465D01*
X234979639Y-18851286D01*
X234976075Y-18851272D01*
X234972513Y-18851424D01*
X234968960Y-18851741D01*
X234965423Y-18852224D01*
X234961907Y-18852872D01*
X234958418Y-18853686D01*
X234954964Y-18854665D01*
X234951550Y-18855810D01*
X234948183Y-18857121D01*
X234944868Y-18858597D01*
X234941613Y-18860238D01*
X234938423Y-18862046D01*
X234935305Y-18864018D01*
X234932265Y-18866157D01*
X234929309Y-18868461D01*
X234926444Y-18870930D01*
X234923676Y-18873565D01*
X234921041Y-18876333D01*
X234918571Y-18879198D01*
X234916268Y-18882154D01*
X234914129Y-18885194D01*
X234912157Y-18888312D01*
X234910349Y-18891502D01*
X234908708Y-18894757D01*
X234907232Y-18898072D01*
X234905921Y-18901439D01*
X234904776Y-18904853D01*
X234903797Y-18908307D01*
X234902983Y-18911796D01*
X234902335Y-18915312D01*
X234901852Y-18918849D01*
X234901535Y-18922402D01*
X234901383Y-18925964D01*
X234901397Y-18929528D01*
X234901577Y-18933089D01*
X234901922Y-18936639D01*
X234902432Y-18940174D01*
X234903108Y-18943685D01*
X234903950Y-18947168D01*
X234904957Y-18950616D01*
X234906130Y-18954023D01*
X234907468Y-18957382D01*
X234908972Y-18960687D01*
X234910642Y-18963932D01*
X234912477Y-18967110D01*
X234914477Y-18970215D01*
X234916643Y-18973241D01*
X234918975Y-18976182D01*
X234921472Y-18979032D01*
X234921449Y-18979055D01*
X234921437Y-18979066D01*
X234921426Y-18979078D01*
X234923676Y-18981328D01*
X235092442Y-19150093D01*
X234923676Y-19318858D01*
X234921426Y-19321108D01*
X234921472Y-19321155D01*
X234918975Y-19324004D01*
X234916643Y-19326945D01*
X234914477Y-19329971D01*
X234912477Y-19333077D01*
X234910642Y-19336255D01*
X234908972Y-19339500D01*
X234907468Y-19342805D01*
X234906130Y-19346164D01*
X234904957Y-19349570D01*
X234903950Y-19353018D01*
X234903108Y-19356501D01*
X234902432Y-19360013D01*
X234901922Y-19363547D01*
X234901577Y-19367098D01*
X234901397Y-19370659D01*
X234901383Y-19374223D01*
X234217974Y-19374223D01*
X234218325Y-19373182D01*
X234234965Y-19328365D01*
X234252885Y-19284186D01*
X234272063Y-19240668D01*
X234292477Y-19197832D01*
X234314104Y-19155702D01*
X234336921Y-19114300D01*
X234360905Y-19073649D01*
X234386035Y-19033772D01*
X234412286Y-18994691D01*
X234380452Y-18969069D01*
X234350133Y-18941722D01*
X234321403Y-18912723D01*
X234294337Y-18882147D01*
X234269009Y-18850068D01*
X234245493Y-18816561D01*
X234223864Y-18781700D01*
X234204196Y-18745560D01*
X234186564Y-18708214D01*
X234171041Y-18669736D01*
X234157702Y-18630203D01*
X234146622Y-18589687D01*
X234137875Y-18548263D01*
X234131535Y-18506005D01*
X234127677Y-18462989D01*
X234126374Y-18419287D01*
X234127314Y-18382145D01*
X234130104Y-18345488D01*
X234134699Y-18309363D01*
X234141053Y-18273814D01*
X234149121Y-18238886D01*
X234158857Y-18204627D01*
X234170215Y-18171080D01*
X234183150Y-18138292D01*
X234197618Y-18106308D01*
X234213571Y-18075173D01*
X234230965Y-18044933D01*
X234249755Y-18015633D01*
X234269894Y-17987320D01*
X234291337Y-17960037D01*
X234314039Y-17933832D01*
X234337955Y-17908748D01*
X234363038Y-17884833D01*
X234389244Y-17862131D01*
X234416526Y-17840687D01*
X234444840Y-17820548D01*
X234474139Y-17801759D01*
X234504379Y-17784365D01*
X234535514Y-17768411D01*
X234567498Y-17753944D01*
X234600287Y-17741009D01*
X234633833Y-17729650D01*
X234668093Y-17719914D01*
X234703020Y-17711847D01*
X234738569Y-17705493D01*
X234774694Y-17700898D01*
X234811351Y-17698108D01*
X234848493Y-17697167D01*
X234882174Y-17697940D01*
X234915459Y-17700236D01*
X234948315Y-17704021D01*
X234980708Y-17709261D01*
X235012605Y-17715923D01*
X235043971Y-17723972D01*
X235074772Y-17733375D01*
X235104975Y-17744098D01*
X235134545Y-17756107D01*
X235163449Y-17769368D01*
X235191654Y-17783848D01*
X235219124Y-17799511D01*
X235245827Y-17816326D01*
X235271728Y-17834257D01*
X235296794Y-17853271D01*
X235320991Y-17873334D01*
X235344284Y-17894412D01*
X235366641Y-17916472D01*
X235388027Y-17939479D01*
X235408408Y-17963400D01*
X235427750Y-17988200D01*
X235446020Y-18013846D01*
X235463184Y-18040305D01*
X235479208Y-18067541D01*
X235494058Y-18095522D01*
X235507700Y-18124213D01*
X235520100Y-18153581D01*
X235531225Y-18183592D01*
X235541040Y-18214211D01*
X235549512Y-18245406D01*
X235556607Y-18277141D01*
X235562291Y-18309384D01*
X235583876Y-18307197D01*
X235605543Y-18305296D01*
X235627291Y-18303681D01*
X235649118Y-18302356D01*
X235671021Y-18301322D01*
X235693000Y-18300582D01*
X235715052Y-18300136D01*
X235737176Y-18299987D01*
X235760901Y-18300158D01*
X235784543Y-18300671D01*
X235808101Y-18301522D01*
X235831572Y-18302711D01*
X235854954Y-18304233D01*
X235878245Y-18306088D01*
X235901441Y-18308271D01*
X235924541Y-18310782D01*
X235930582Y-18278979D01*
X235937998Y-18247683D01*
X235946757Y-18216927D01*
X235956826Y-18186745D01*
X235968172Y-18157169D01*
X235980761Y-18128232D01*
X235994562Y-18099968D01*
X236009540Y-18072408D01*
X236025664Y-18045587D01*
X236042899Y-18019536D01*
X236061214Y-17994289D01*
X236080575Y-17969879D01*
X236100950Y-17946339D01*
X236122305Y-17923702D01*
X236144608Y-17902000D01*
X236167825Y-17881267D01*
X236191923Y-17861535D01*
X236216871Y-17842837D01*
X236242634Y-17825207D01*
X236269181Y-17808677D01*
X236296477Y-17793280D01*
X236324490Y-17779049D01*
X236353187Y-17766018D01*
X236382535Y-17754218D01*
X236412502Y-17743683D01*
X236443054Y-17734446D01*
X236474158Y-17726540D01*
X236505782Y-17719997D01*
X236537892Y-17714851D01*
X236570456Y-17711135D01*
X236603440Y-17708881D01*
X236636812Y-17708122D01*
X236673954Y-17709062D01*
X236710611Y-17711852D01*
X236746736Y-17716447D01*
X236782285Y-17722801D01*
X236817213Y-17730869D01*
X236851472Y-17740605D01*
X236885019Y-17751963D01*
X236917807Y-17764898D01*
X236949791Y-17779366D01*
X236980926Y-17795319D01*
X237011166Y-17812713D01*
X237040466Y-17831503D01*
X237068779Y-17851642D01*
X237096062Y-17873085D01*
X237122267Y-17895787D01*
X237147351Y-17919703D01*
X237171266Y-17944786D01*
X237193968Y-17970992D01*
X237215412Y-17998274D01*
X237235551Y-18026588D01*
X237254340Y-18055887D01*
X237271734Y-18086127D01*
X237287688Y-18117262D01*
X237302155Y-18149246D01*
X237315091Y-18182035D01*
X237326449Y-18215581D01*
X237336185Y-18249841D01*
X237344252Y-18284768D01*
X237350606Y-18320317D01*
X237355201Y-18356443D01*
X237357991Y-18393099D01*
X237358932Y-18430241D01*
X237358931Y-18430241D01*
X237357617Y-18474131D01*
X237353726Y-18517329D01*
X237347331Y-18559761D01*
X237338510Y-18601352D01*
X237327337Y-18642025D01*
X237313888Y-18681705D01*
X237298237Y-18720318D01*
X237280460Y-18757788D01*
X237260633Y-18794039D01*
X237238831Y-18828997D01*
X237215129Y-18862586D01*
X237189602Y-18894730D01*
X237162326Y-18925354D01*
X237133376Y-18954384D01*
X237102827Y-18981743D01*
X237070755Y-19007357D01*
X237096126Y-19045890D01*
X237120414Y-19085180D01*
X237143596Y-19125206D01*
X237157069Y-19150093D01*
X237165652Y-19165948D01*
X237186561Y-19207382D01*
X237206302Y-19249490D01*
X237224852Y-19292248D01*
X237242190Y-19335635D01*
X237258296Y-19379631D01*
X237273148Y-19424214D01*
X237286724Y-19469363D01*
X237299004Y-19515056D01*
X237309966Y-19561272D01*
X237319589Y-19607990D01*
X237327850Y-19655188D01*
X237334730Y-19702846D01*
X237383389Y-19637607D01*
X237429450Y-19570385D01*
X237472838Y-19501254D01*
X237513478Y-19430290D01*
X237551296Y-19357567D01*
X237586218Y-19283159D01*
X237618168Y-19207141D01*
X237647071Y-19129589D01*
X237672854Y-19050576D01*
X237695442Y-18970177D01*
X237714759Y-18888467D01*
X237730732Y-18805521D01*
X237743285Y-18721413D01*
X237752344Y-18636217D01*
X237757834Y-18550010D01*
X237759680Y-18462864D01*
X237757047Y-18358837D01*
X237749232Y-18256170D01*
X237736363Y-18154989D01*
X237718567Y-18055424D01*
X237695971Y-17957601D01*
X237668703Y-17861647D01*
X237636891Y-17767690D01*
X237600661Y-17675857D01*
X237560141Y-17586275D01*
X237515459Y-17499073D01*
X237466741Y-17414377D01*
X237414116Y-17332315D01*
X237357711Y-17253014D01*
X237297652Y-17176602D01*
X237234068Y-17103206D01*
X237167086Y-17032953D01*
X237096833Y-16965971D01*
X237023437Y-16902387D01*
X236947025Y-16842329D01*
X236867724Y-16785923D01*
X236785662Y-16733298D01*
X236700966Y-16684581D01*
X236613764Y-16639898D01*
X236524183Y-16599379D01*
X236432350Y-16563149D01*
X236338393Y-16531336D01*
X236242439Y-16504069D01*
X236144615Y-16481473D01*
X236045050Y-16463677D01*
X235943870Y-16450808D01*
X235841203Y-16442993D01*
X235737176Y-16440359D01*
X235633148Y-16442993D01*
X235530481Y-16450808D01*
X235429301Y-16463677D01*
X235329736Y-16481473D01*
X235231912Y-16504069D01*
X235135958Y-16531336D01*
X235042001Y-16563149D01*
X234950168Y-16599379D01*
X234860587Y-16639898D01*
X234773385Y-16684581D01*
X234688689Y-16733298D01*
X234606627Y-16785923D01*
X234527326Y-16842329D01*
X234450914Y-16902387D01*
X234377518Y-16965971D01*
X234307265Y-17032953D01*
X234240283Y-17103206D01*
X234176699Y-17176602D01*
X234116640Y-17253014D01*
X234060235Y-17332315D01*
X234007610Y-17414377D01*
X233958892Y-17499073D01*
X233914210Y-17586275D01*
X233873690Y-17675857D01*
X233837460Y-17767690D01*
X233805648Y-17861647D01*
X233778380Y-17957601D01*
X233755785Y-18055424D01*
X233737988Y-18154989D01*
X233725119Y-18256170D01*
X233717304Y-18358837D01*
X233714671Y-18462864D01*
X233306317Y-18462864D01*
X233306318Y-17015829D01*
X235737175Y-15612374D01*
X238168035Y-17015830D01*
X238168035Y-18462864D01*
X238168034Y-19822746D01*
X235737177Y-21226202D01*
D11*
X223398706Y-16550705D02*
X223398706Y-15550705D01*
X223398706Y-15931658D02*
X223303468Y-15884039D01*
X223112992Y-15884039D01*
X223017754Y-15931658D01*
X222970135Y-15979277D01*
X222922516Y-16074515D01*
X222922516Y-16360229D01*
X222970135Y-16455467D01*
X223017754Y-16503086D01*
X223112992Y-16550705D01*
X223303468Y-16550705D01*
X223398706Y-16503086D01*
X222065373Y-16550705D02*
X222065373Y-16026896D01*
X222112992Y-15931658D01*
X222208230Y-15884039D01*
X222398706Y-15884039D01*
X222493944Y-15931658D01*
X222065373Y-16503086D02*
X222160611Y-16550705D01*
X222398706Y-16550705D01*
X222493944Y-16503086D01*
X222541563Y-16407848D01*
X222541563Y-16312610D01*
X222493944Y-16217372D01*
X222398706Y-16169753D01*
X222160611Y-16169753D01*
X222065373Y-16122134D01*
X221589182Y-15884039D02*
X221589182Y-16550705D01*
X221589182Y-15979277D02*
X221541563Y-15931658D01*
X221446325Y-15884039D01*
X221303468Y-15884039D01*
X221208230Y-15931658D01*
X221160611Y-16026896D01*
X221160611Y-16550705D01*
X220255849Y-16503086D02*
X220351087Y-16550705D01*
X220541563Y-16550705D01*
X220636801Y-16503086D01*
X220684420Y-16455467D01*
X220732039Y-16360229D01*
X220732039Y-16074515D01*
X220684420Y-15979277D01*
X220636801Y-15931658D01*
X220541563Y-15884039D01*
X220351087Y-15884039D01*
X220255849Y-15931658D01*
X219684420Y-16550705D02*
X219779658Y-16503086D01*
X219827277Y-16455467D01*
X219874897Y-16360229D01*
X219874897Y-16074515D01*
X219827277Y-15979277D01*
X219779658Y-15931658D01*
X219684420Y-15884039D01*
X219541563Y-15884039D01*
X219446325Y-15931658D01*
X219398706Y-15979277D01*
X219351087Y-16074515D01*
X219351087Y-16360229D01*
X219398706Y-16455467D01*
X219446325Y-16503086D01*
X219541563Y-16550705D01*
X219684420Y-16550705D01*
X218493944Y-15884039D02*
X218493944Y-16550705D01*
X218922516Y-15884039D02*
X218922516Y-16407848D01*
X218874897Y-16503086D01*
X218779658Y-16550705D01*
X218636801Y-16550705D01*
X218541563Y-16503086D01*
X218493944Y-16455467D01*
X218112992Y-15884039D02*
X217874897Y-16550705D01*
X217636801Y-15884039D01*
X216874897Y-16503086D02*
X216970135Y-16550705D01*
X217160611Y-16550705D01*
X217255849Y-16503086D01*
X217303468Y-16407848D01*
X217303468Y-16026896D01*
X217255849Y-15931658D01*
X217160611Y-15884039D01*
X216970135Y-15884039D01*
X216874897Y-15931658D01*
X216827277Y-16026896D01*
X216827277Y-16122134D01*
X217303468Y-16217372D01*
X216398706Y-16550705D02*
X216398706Y-15884039D01*
X216398706Y-16074515D02*
X216351087Y-15979277D01*
X216303468Y-15931658D01*
X216208230Y-15884039D01*
X216112992Y-15884039D01*
X215351087Y-15884039D02*
X215351087Y-16550705D01*
X215589182Y-15503086D02*
X215827277Y-16217372D01*
X215208230Y-16217372D01*
X214636801Y-15550705D02*
X214541563Y-15550705D01*
X214446325Y-15598325D01*
X214398706Y-15645944D01*
X214351087Y-15741182D01*
X214303468Y-15931658D01*
X214303468Y-16169753D01*
X214351087Y-16360229D01*
X214398706Y-16455467D01*
X214446325Y-16503086D01*
X214541563Y-16550705D01*
X214636801Y-16550705D01*
X214732039Y-16503086D01*
X214779658Y-16455467D01*
X214827277Y-16360229D01*
X214874897Y-16169753D01*
X214874897Y-15931658D01*
X214827277Y-15741182D01*
X214779658Y-15645944D01*
X214732039Y-15598325D01*
X214636801Y-15550705D01*
X223327277Y-18160705D02*
X223327277Y-17160705D01*
X223327277Y-17541658D02*
X223232039Y-17494039D01*
X223041563Y-17494039D01*
X222946325Y-17541658D01*
X222898706Y-17589277D01*
X222851087Y-17684515D01*
X222851087Y-17970229D01*
X222898706Y-18065467D01*
X222946325Y-18113086D01*
X223041563Y-18160705D01*
X223232039Y-18160705D01*
X223327277Y-18113086D01*
X222517754Y-17494039D02*
X222279658Y-18160705D01*
X222041563Y-17494039D02*
X222279658Y-18160705D01*
X222374897Y-18398801D01*
X222422516Y-18446420D01*
X222517754Y-18494039D01*
X220946325Y-18113086D02*
X220851087Y-18160705D01*
X220660611Y-18160705D01*
X220565373Y-18113086D01*
X220517754Y-18017848D01*
X220517754Y-17970229D01*
X220565373Y-17874991D01*
X220660611Y-17827372D01*
X220803468Y-17827372D01*
X220898706Y-17779753D01*
X220946325Y-17684515D01*
X220946325Y-17636896D01*
X220898706Y-17541658D01*
X220803468Y-17494039D01*
X220660611Y-17494039D01*
X220565373Y-17541658D01*
X220089182Y-17494039D02*
X220089182Y-18494039D01*
X220089182Y-17541658D02*
X219993944Y-17494039D01*
X219803468Y-17494039D01*
X219708230Y-17541658D01*
X219660611Y-17589277D01*
X219612992Y-17684515D01*
X219612992Y-17970229D01*
X219660611Y-18065467D01*
X219708230Y-18113086D01*
X219803468Y-18160705D01*
X219993944Y-18160705D01*
X220089182Y-18113086D01*
X219041563Y-18160705D02*
X219136801Y-18113086D01*
X219184420Y-18065467D01*
X219232039Y-17970229D01*
X219232039Y-17684515D01*
X219184420Y-17589277D01*
X219136801Y-17541658D01*
X219041563Y-17494039D01*
X218898706Y-17494039D01*
X218803468Y-17541658D01*
X218755849Y-17589277D01*
X218708230Y-17684515D01*
X218708230Y-17970229D01*
X218755849Y-18065467D01*
X218803468Y-18113086D01*
X218898706Y-18160705D01*
X219041563Y-18160705D01*
X218279658Y-18160705D02*
X218279658Y-17494039D01*
X218279658Y-17684515D02*
X218232039Y-17589277D01*
X218184420Y-17541658D01*
X218089182Y-17494039D01*
X217993944Y-17494039D01*
X217279658Y-18113086D02*
X217374897Y-18160705D01*
X217565373Y-18160705D01*
X217660611Y-18113086D01*
X217708230Y-18017848D01*
X217708230Y-17636896D01*
X217660611Y-17541658D01*
X217565373Y-17494039D01*
X217374897Y-17494039D01*
X217279658Y-17541658D01*
X217232039Y-17636896D01*
X217232039Y-17732134D01*
X217708230Y-17827372D01*
X216898706Y-17494039D02*
X216708230Y-18160705D01*
X216517754Y-17684515D01*
X216327277Y-18160705D01*
X216136801Y-17494039D01*
X215612992Y-18160705D02*
X215708230Y-18113086D01*
X215755849Y-18065467D01*
X215803468Y-17970229D01*
X215803468Y-17684515D01*
X215755849Y-17589277D01*
X215708230Y-17541658D01*
X215612992Y-17494039D01*
X215470135Y-17494039D01*
X215374897Y-17541658D01*
X215327277Y-17589277D01*
X215279658Y-17684515D01*
X215279658Y-17970229D01*
X215327277Y-18065467D01*
X215374897Y-18113086D01*
X215470135Y-18160705D01*
X215612992Y-18160705D01*
X214851087Y-18160705D02*
X214851087Y-17160705D01*
X214422516Y-18160705D02*
X214422516Y-17636896D01*
X214470135Y-17541658D01*
X214565373Y-17494039D01*
X214708230Y-17494039D01*
X214803468Y-17541658D01*
X214851087Y-17589277D01*
X220303468Y-19104039D02*
X220065373Y-19770705D01*
X219827277Y-19104039D01*
X219255849Y-18770705D02*
X219160611Y-18770705D01*
X219065373Y-18818325D01*
X219017754Y-18865944D01*
X218970135Y-18961182D01*
X218922516Y-19151658D01*
X218922516Y-19389753D01*
X218970135Y-19580229D01*
X219017754Y-19675467D01*
X219065373Y-19723086D01*
X219160611Y-19770705D01*
X219255849Y-19770705D01*
X219351087Y-19723086D01*
X219398706Y-19675467D01*
X219446325Y-19580229D01*
X219493944Y-19389753D01*
X219493944Y-19151658D01*
X219446325Y-18961182D01*
X219398706Y-18865944D01*
X219351087Y-18818325D01*
X219255849Y-18770705D01*
X218493944Y-19675467D02*
X218446325Y-19723086D01*
X218493944Y-19770705D01*
X218541563Y-19723086D01*
X218493944Y-19675467D01*
X218493944Y-19770705D01*
X217827277Y-18770705D02*
X217732039Y-18770705D01*
X217636801Y-18818325D01*
X217589182Y-18865944D01*
X217541563Y-18961182D01*
X217493944Y-19151658D01*
X217493944Y-19389753D01*
X217541563Y-19580229D01*
X217589182Y-19675467D01*
X217636801Y-19723086D01*
X217732039Y-19770705D01*
X217827277Y-19770705D01*
X217922516Y-19723086D01*
X217970135Y-19675467D01*
X218017754Y-19580229D01*
X218065373Y-19389753D01*
X218065373Y-19151658D01*
X218017754Y-18961182D01*
X217970135Y-18865944D01*
X217922516Y-18818325D01*
X217827277Y-18770705D01*
D12*
X211755714Y-17048571D02*
X211755714Y-18548571D01*
X211755714Y-17120000D02*
X211612857Y-17048571D01*
X211327142Y-17048571D01*
X211184285Y-17120000D01*
X211112857Y-17191428D01*
X211041428Y-17334285D01*
X211041428Y-17762857D01*
X211112857Y-17905714D01*
X211184285Y-17977142D01*
X211327142Y-18048571D01*
X211612857Y-18048571D01*
X211755714Y-17977142D01*
X210184285Y-18048571D02*
X210327142Y-17977142D01*
X210398571Y-17834285D01*
X210398571Y-16548571D01*
X209041428Y-17977142D02*
X209184285Y-18048571D01*
X209470000Y-18048571D01*
X209612857Y-17977142D01*
X209684285Y-17834285D01*
X209684285Y-17262857D01*
X209612857Y-17120000D01*
X209470000Y-17048571D01*
X209184285Y-17048571D01*
X209041428Y-17120000D01*
X208970000Y-17262857D01*
X208970000Y-17405714D01*
X209684285Y-17548571D01*
X207684285Y-18048571D02*
X207684285Y-17262857D01*
X207755714Y-17120000D01*
X207898571Y-17048571D01*
X208184285Y-17048571D01*
X208327142Y-17120000D01*
X207684285Y-17977142D02*
X207827142Y-18048571D01*
X208184285Y-18048571D01*
X208327142Y-17977142D01*
X208398571Y-17834285D01*
X208398571Y-17691428D01*
X208327142Y-17548571D01*
X208184285Y-17477142D01*
X207827142Y-17477142D01*
X207684285Y-17405714D01*
X207041428Y-17977142D02*
X206898571Y-18048571D01*
X206612857Y-18048571D01*
X206470000Y-17977142D01*
X206398571Y-17834285D01*
X206398571Y-17762857D01*
X206470000Y-17620000D01*
X206612857Y-17548571D01*
X206827142Y-17548571D01*
X206970000Y-17477142D01*
X207041428Y-17334285D01*
X207041428Y-17262857D01*
X206970000Y-17120000D01*
X206827142Y-17048571D01*
X206612857Y-17048571D01*
X206470000Y-17120000D01*
X205184285Y-17977142D02*
X205327142Y-18048571D01*
X205612857Y-18048571D01*
X205755714Y-17977142D01*
X205827142Y-17834285D01*
X205827142Y-17262857D01*
X205755714Y-17120000D01*
X205612857Y-17048571D01*
X205327142Y-17048571D01*
X205184285Y-17120000D01*
X205112857Y-17262857D01*
X205112857Y-17405714D01*
X205827142Y-17548571D01*
X203470000Y-17048571D02*
X203184285Y-18048571D01*
X202898571Y-17334285D01*
X202612857Y-18048571D01*
X202327142Y-17048571D01*
X201541428Y-18048571D02*
X201684285Y-17977142D01*
X201755714Y-17905714D01*
X201827142Y-17762857D01*
X201827142Y-17334285D01*
X201755714Y-17191428D01*
X201684285Y-17120000D01*
X201541428Y-17048571D01*
X201327142Y-17048571D01*
X201184285Y-17120000D01*
X201112857Y-17191428D01*
X201041428Y-17334285D01*
X201041428Y-17762857D01*
X201112857Y-17905714D01*
X201184285Y-17977142D01*
X201327142Y-18048571D01*
X201541428Y-18048571D01*
X200398571Y-18048571D02*
X200398571Y-17048571D01*
X200398571Y-17334285D02*
X200327142Y-17191428D01*
X200255714Y-17120000D01*
X200112857Y-17048571D01*
X199970000Y-17048571D01*
X199470000Y-18048571D02*
X199470000Y-16548571D01*
X199327142Y-17477142D02*
X198898571Y-18048571D01*
X198898571Y-17048571D02*
X199470000Y-17620000D01*
X197112857Y-17048571D02*
X197112857Y-18548571D01*
X197112857Y-17120000D02*
X196970000Y-17048571D01*
X196684285Y-17048571D01*
X196541428Y-17120000D01*
X196470000Y-17191428D01*
X196398571Y-17334285D01*
X196398571Y-17762857D01*
X196470000Y-17905714D01*
X196541428Y-17977142D01*
X196684285Y-18048571D01*
X196970000Y-18048571D01*
X197112857Y-17977142D01*
X195541428Y-18048571D02*
X195684285Y-17977142D01*
X195755714Y-17834285D01*
X195755714Y-16548571D01*
X194398571Y-17977142D02*
X194541428Y-18048571D01*
X194827142Y-18048571D01*
X194970000Y-17977142D01*
X195041428Y-17834285D01*
X195041428Y-17262857D01*
X194970000Y-17120000D01*
X194827142Y-17048571D01*
X194541428Y-17048571D01*
X194398571Y-17120000D01*
X194327142Y-17262857D01*
X194327142Y-17405714D01*
X195041428Y-17548571D01*
X193041428Y-18048571D02*
X193041428Y-17262857D01*
X193112857Y-17120000D01*
X193255714Y-17048571D01*
X193541428Y-17048571D01*
X193684285Y-17120000D01*
X193041428Y-17977142D02*
X193184285Y-18048571D01*
X193541428Y-18048571D01*
X193684285Y-17977142D01*
X193755714Y-17834285D01*
X193755714Y-17691428D01*
X193684285Y-17548571D01*
X193541428Y-17477142D01*
X193184285Y-17477142D01*
X193041428Y-17405714D01*
X192398571Y-17977142D02*
X192255714Y-18048571D01*
X191970000Y-18048571D01*
X191827142Y-17977142D01*
X191755714Y-17834285D01*
X191755714Y-17762857D01*
X191827142Y-17620000D01*
X191970000Y-17548571D01*
X192184285Y-17548571D01*
X192327142Y-17477142D01*
X192398571Y-17334285D01*
X192398571Y-17262857D01*
X192327142Y-17120000D01*
X192184285Y-17048571D01*
X191970000Y-17048571D01*
X191827142Y-17120000D01*
X190541428Y-17977142D02*
X190684285Y-18048571D01*
X190970000Y-18048571D01*
X191112857Y-17977142D01*
X191184285Y-17834285D01*
X191184285Y-17262857D01*
X191112857Y-17120000D01*
X190970000Y-17048571D01*
X190684285Y-17048571D01*
X190541428Y-17120000D01*
X190470000Y-17262857D01*
X190470000Y-17405714D01*
X191184285Y-17548571D01*
X188827142Y-17048571D02*
X188541428Y-18048571D01*
X188255714Y-17334285D01*
X187970000Y-18048571D01*
X187684285Y-17048571D01*
X186898571Y-18048571D02*
X187041428Y-17977142D01*
X187112857Y-17905714D01*
X187184285Y-17762857D01*
X187184285Y-17334285D01*
X187112857Y-17191428D01*
X187041428Y-17120000D01*
X186898571Y-17048571D01*
X186684285Y-17048571D01*
X186541428Y-17120000D01*
X186470000Y-17191428D01*
X186398571Y-17334285D01*
X186398571Y-17762857D01*
X186470000Y-17905714D01*
X186541428Y-17977142D01*
X186684285Y-18048571D01*
X186898571Y-18048571D01*
X185755714Y-18048571D02*
X185755714Y-17048571D01*
X185755714Y-17334285D02*
X185684285Y-17191428D01*
X185612857Y-17120000D01*
X185470000Y-17048571D01*
X185327142Y-17048571D01*
X184827142Y-18048571D02*
X184827142Y-16548571D01*
X184684285Y-17477142D02*
X184255714Y-18048571D01*
X184255714Y-17048571D02*
X184827142Y-17620000D01*
X182470000Y-17048571D02*
X182470000Y-18548571D01*
X182470000Y-17120000D02*
X182327142Y-17048571D01*
X182041428Y-17048571D01*
X181898571Y-17120000D01*
X181827142Y-17191428D01*
X181755714Y-17334285D01*
X181755714Y-17762857D01*
X181827142Y-17905714D01*
X181898571Y-17977142D01*
X182041428Y-18048571D01*
X182327142Y-18048571D01*
X182470000Y-17977142D01*
X180898571Y-18048571D02*
X181041428Y-17977142D01*
X181112857Y-17834285D01*
X181112857Y-16548571D01*
X179755714Y-17977142D02*
X179898571Y-18048571D01*
X180184285Y-18048571D01*
X180327142Y-17977142D01*
X180398571Y-17834285D01*
X180398571Y-17262857D01*
X180327142Y-17120000D01*
X180184285Y-17048571D01*
X179898571Y-17048571D01*
X179755714Y-17120000D01*
X179684285Y-17262857D01*
X179684285Y-17405714D01*
X180398571Y-17548571D01*
X178398571Y-18048571D02*
X178398571Y-17262857D01*
X178470000Y-17120000D01*
X178612857Y-17048571D01*
X178898571Y-17048571D01*
X179041428Y-17120000D01*
X178398571Y-17977142D02*
X178541428Y-18048571D01*
X178898571Y-18048571D01*
X179041428Y-17977142D01*
X179112857Y-17834285D01*
X179112857Y-17691428D01*
X179041428Y-17548571D01*
X178898571Y-17477142D01*
X178541428Y-17477142D01*
X178398571Y-17405714D01*
X177755714Y-17977142D02*
X177612857Y-18048571D01*
X177327142Y-18048571D01*
X177184285Y-17977142D01*
X177112857Y-17834285D01*
X177112857Y-17762857D01*
X177184285Y-17620000D01*
X177327142Y-17548571D01*
X177541428Y-17548571D01*
X177684285Y-17477142D01*
X177755714Y-17334285D01*
X177755714Y-17262857D01*
X177684285Y-17120000D01*
X177541428Y-17048571D01*
X177327142Y-17048571D01*
X177184285Y-17120000D01*
X175898571Y-17977142D02*
X176041428Y-18048571D01*
X176327142Y-18048571D01*
X176470000Y-17977142D01*
X176541428Y-17834285D01*
X176541428Y-17262857D01*
X176470000Y-17120000D01*
X176327142Y-17048571D01*
X176041428Y-17048571D01*
X175898571Y-17120000D01*
X175827142Y-17262857D01*
X175827142Y-17405714D01*
X176541428Y-17548571D01*
X174184285Y-17048571D02*
X173898571Y-18048571D01*
X173612857Y-17334285D01*
X173327142Y-18048571D01*
X173041428Y-17048571D01*
X172255714Y-18048571D02*
X172398571Y-17977142D01*
X172470000Y-17905714D01*
X172541428Y-17762857D01*
X172541428Y-17334285D01*
X172470000Y-17191428D01*
X172398571Y-17120000D01*
X172255714Y-17048571D01*
X172041428Y-17048571D01*
X171898571Y-17120000D01*
X171827142Y-17191428D01*
X171755714Y-17334285D01*
X171755714Y-17762857D01*
X171827142Y-17905714D01*
X171898571Y-17977142D01*
X172041428Y-18048571D01*
X172255714Y-18048571D01*
X171112857Y-18048571D02*
X171112857Y-17048571D01*
X171112857Y-17334285D02*
X171041428Y-17191428D01*
X170970000Y-17120000D01*
X170827142Y-17048571D01*
X170684285Y-17048571D01*
X170184285Y-18048571D02*
X170184285Y-16548571D01*
X170041428Y-17477142D02*
X169612857Y-18048571D01*
X169612857Y-17048571D02*
X170184285Y-17620000D01*
D11*
%TO.C,SW25*%
X147684452Y-55779734D02*
X147541595Y-55827353D01*
X147303500Y-55827353D01*
X147208262Y-55779734D01*
X147160643Y-55732115D01*
X147113024Y-55636877D01*
X147113024Y-55541639D01*
X147160643Y-55446401D01*
X147208262Y-55398782D01*
X147303500Y-55351163D01*
X147493976Y-55303544D01*
X147589214Y-55255925D01*
X147636833Y-55208306D01*
X147684452Y-55113068D01*
X147684452Y-55017830D01*
X147636833Y-54922592D01*
X147589214Y-54874973D01*
X147493976Y-54827353D01*
X147255881Y-54827353D01*
X147113024Y-54874973D01*
X146779690Y-54827353D02*
X146541595Y-55827353D01*
X146351119Y-55113068D01*
X146160643Y-55827353D01*
X145922548Y-54827353D01*
X145589214Y-54922592D02*
X145541595Y-54874973D01*
X145446357Y-54827353D01*
X145208262Y-54827353D01*
X145113024Y-54874973D01*
X145065405Y-54922592D01*
X145017786Y-55017830D01*
X145017786Y-55113068D01*
X145065405Y-55255925D01*
X145636833Y-55827353D01*
X145017786Y-55827353D01*
X144113024Y-54827353D02*
X144589214Y-54827353D01*
X144636833Y-55303544D01*
X144589214Y-55255925D01*
X144493976Y-55208306D01*
X144255881Y-55208306D01*
X144160643Y-55255925D01*
X144113024Y-55303544D01*
X144065405Y-55398782D01*
X144065405Y-55636877D01*
X144113024Y-55732115D01*
X144160643Y-55779734D01*
X144255881Y-55827353D01*
X144493976Y-55827353D01*
X144589214Y-55779734D01*
X144636833Y-55732115D01*
%TO.C,SW17*%
X181684436Y-38779742D02*
X181541579Y-38827361D01*
X181303484Y-38827361D01*
X181208246Y-38779742D01*
X181160627Y-38732123D01*
X181113008Y-38636885D01*
X181113008Y-38541647D01*
X181160627Y-38446409D01*
X181208246Y-38398790D01*
X181303484Y-38351171D01*
X181493960Y-38303552D01*
X181589198Y-38255933D01*
X181636817Y-38208314D01*
X181684436Y-38113076D01*
X181684436Y-38017838D01*
X181636817Y-37922600D01*
X181589198Y-37874981D01*
X181493960Y-37827361D01*
X181255865Y-37827361D01*
X181113008Y-37874981D01*
X180779674Y-37827361D02*
X180541579Y-38827361D01*
X180351103Y-38113076D01*
X180160627Y-38827361D01*
X179922532Y-37827361D01*
X179017770Y-38827361D02*
X179589198Y-38827361D01*
X179303484Y-38827361D02*
X179303484Y-37827361D01*
X179398722Y-37970219D01*
X179493960Y-38065457D01*
X179589198Y-38113076D01*
X178684436Y-37827361D02*
X178017770Y-37827361D01*
X178446341Y-38827361D01*
%TO.C,SW23*%
X113684468Y-55779734D02*
X113541611Y-55827353D01*
X113303516Y-55827353D01*
X113208278Y-55779734D01*
X113160659Y-55732115D01*
X113113040Y-55636877D01*
X113113040Y-55541639D01*
X113160659Y-55446401D01*
X113208278Y-55398782D01*
X113303516Y-55351163D01*
X113493992Y-55303544D01*
X113589230Y-55255925D01*
X113636849Y-55208306D01*
X113684468Y-55113068D01*
X113684468Y-55017830D01*
X113636849Y-54922592D01*
X113589230Y-54874973D01*
X113493992Y-54827353D01*
X113255897Y-54827353D01*
X113113040Y-54874973D01*
X112779706Y-54827353D02*
X112541611Y-55827353D01*
X112351135Y-55113068D01*
X112160659Y-55827353D01*
X111922564Y-54827353D01*
X111589230Y-54922592D02*
X111541611Y-54874973D01*
X111446373Y-54827353D01*
X111208278Y-54827353D01*
X111113040Y-54874973D01*
X111065421Y-54922592D01*
X111017802Y-55017830D01*
X111017802Y-55113068D01*
X111065421Y-55255925D01*
X111636849Y-55827353D01*
X111017802Y-55827353D01*
X110684468Y-54827353D02*
X110065421Y-54827353D01*
X110398754Y-55208306D01*
X110255897Y-55208306D01*
X110160659Y-55255925D01*
X110113040Y-55303544D01*
X110065421Y-55398782D01*
X110065421Y-55636877D01*
X110113040Y-55732115D01*
X110160659Y-55779734D01*
X110255897Y-55827353D01*
X110541611Y-55827353D01*
X110636849Y-55779734D01*
X110684468Y-55732115D01*
%TO.C,SW26*%
X164684444Y-55779734D02*
X164541587Y-55827353D01*
X164303492Y-55827353D01*
X164208254Y-55779734D01*
X164160635Y-55732115D01*
X164113016Y-55636877D01*
X164113016Y-55541639D01*
X164160635Y-55446401D01*
X164208254Y-55398782D01*
X164303492Y-55351163D01*
X164493968Y-55303544D01*
X164589206Y-55255925D01*
X164636825Y-55208306D01*
X164684444Y-55113068D01*
X164684444Y-55017830D01*
X164636825Y-54922592D01*
X164589206Y-54874973D01*
X164493968Y-54827353D01*
X164255873Y-54827353D01*
X164113016Y-54874973D01*
X163779682Y-54827353D02*
X163541587Y-55827353D01*
X163351111Y-55113068D01*
X163160635Y-55827353D01*
X162922540Y-54827353D01*
X162589206Y-54922592D02*
X162541587Y-54874973D01*
X162446349Y-54827353D01*
X162208254Y-54827353D01*
X162113016Y-54874973D01*
X162065397Y-54922592D01*
X162017778Y-55017830D01*
X162017778Y-55113068D01*
X162065397Y-55255925D01*
X162636825Y-55827353D01*
X162017778Y-55827353D01*
X161160635Y-54827353D02*
X161351111Y-54827353D01*
X161446349Y-54874973D01*
X161493968Y-54922592D01*
X161589206Y-55065449D01*
X161636825Y-55255925D01*
X161636825Y-55636877D01*
X161589206Y-55732115D01*
X161541587Y-55779734D01*
X161446349Y-55827353D01*
X161255873Y-55827353D01*
X161160635Y-55779734D01*
X161113016Y-55732115D01*
X161065397Y-55636877D01*
X161065397Y-55398782D01*
X161113016Y-55303544D01*
X161160635Y-55255925D01*
X161255873Y-55208306D01*
X161446349Y-55208306D01*
X161541587Y-55255925D01*
X161589206Y-55303544D01*
X161636825Y-55398782D01*
%TO.C,SW13*%
X113684468Y-38779742D02*
X113541611Y-38827361D01*
X113303516Y-38827361D01*
X113208278Y-38779742D01*
X113160659Y-38732123D01*
X113113040Y-38636885D01*
X113113040Y-38541647D01*
X113160659Y-38446409D01*
X113208278Y-38398790D01*
X113303516Y-38351171D01*
X113493992Y-38303552D01*
X113589230Y-38255933D01*
X113636849Y-38208314D01*
X113684468Y-38113076D01*
X113684468Y-38017838D01*
X113636849Y-37922600D01*
X113589230Y-37874981D01*
X113493992Y-37827361D01*
X113255897Y-37827361D01*
X113113040Y-37874981D01*
X112779706Y-37827361D02*
X112541611Y-38827361D01*
X112351135Y-38113076D01*
X112160659Y-38827361D01*
X111922564Y-37827361D01*
X111017802Y-38827361D02*
X111589230Y-38827361D01*
X111303516Y-38827361D02*
X111303516Y-37827361D01*
X111398754Y-37970219D01*
X111493992Y-38065457D01*
X111589230Y-38113076D01*
X110684468Y-37827361D02*
X110065421Y-37827361D01*
X110398754Y-38208314D01*
X110255897Y-38208314D01*
X110160659Y-38255933D01*
X110113040Y-38303552D01*
X110065421Y-38398790D01*
X110065421Y-38636885D01*
X110113040Y-38732123D01*
X110160659Y-38779742D01*
X110255897Y-38827361D01*
X110541611Y-38827361D01*
X110636849Y-38779742D01*
X110684468Y-38732123D01*
%TO.C,SW20*%
X232684412Y-38779742D02*
X232541555Y-38827361D01*
X232303460Y-38827361D01*
X232208222Y-38779742D01*
X232160603Y-38732123D01*
X232112984Y-38636885D01*
X232112984Y-38541647D01*
X232160603Y-38446409D01*
X232208222Y-38398790D01*
X232303460Y-38351171D01*
X232493936Y-38303552D01*
X232589174Y-38255933D01*
X232636793Y-38208314D01*
X232684412Y-38113076D01*
X232684412Y-38017838D01*
X232636793Y-37922600D01*
X232589174Y-37874981D01*
X232493936Y-37827361D01*
X232255841Y-37827361D01*
X232112984Y-37874981D01*
X231779650Y-37827361D02*
X231541555Y-38827361D01*
X231351079Y-38113076D01*
X231160603Y-38827361D01*
X230922508Y-37827361D01*
X230589174Y-37922600D02*
X230541555Y-37874981D01*
X230446317Y-37827361D01*
X230208222Y-37827361D01*
X230112984Y-37874981D01*
X230065365Y-37922600D01*
X230017746Y-38017838D01*
X230017746Y-38113076D01*
X230065365Y-38255933D01*
X230636793Y-38827361D01*
X230017746Y-38827361D01*
X229398698Y-37827361D02*
X229303460Y-37827361D01*
X229208222Y-37874981D01*
X229160603Y-37922600D01*
X229112984Y-38017838D01*
X229065365Y-38208314D01*
X229065365Y-38446409D01*
X229112984Y-38636885D01*
X229160603Y-38732123D01*
X229208222Y-38779742D01*
X229303460Y-38827361D01*
X229398698Y-38827361D01*
X229493936Y-38779742D01*
X229541555Y-38732123D01*
X229589174Y-38636885D01*
X229636793Y-38446409D01*
X229636793Y-38208314D01*
X229589174Y-38017838D01*
X229541555Y-37922600D01*
X229493936Y-37874981D01*
X229398698Y-37827361D01*
%TO.C,SW16*%
X164684444Y-38779742D02*
X164541587Y-38827361D01*
X164303492Y-38827361D01*
X164208254Y-38779742D01*
X164160635Y-38732123D01*
X164113016Y-38636885D01*
X164113016Y-38541647D01*
X164160635Y-38446409D01*
X164208254Y-38398790D01*
X164303492Y-38351171D01*
X164493968Y-38303552D01*
X164589206Y-38255933D01*
X164636825Y-38208314D01*
X164684444Y-38113076D01*
X164684444Y-38017838D01*
X164636825Y-37922600D01*
X164589206Y-37874981D01*
X164493968Y-37827361D01*
X164255873Y-37827361D01*
X164113016Y-37874981D01*
X163779682Y-37827361D02*
X163541587Y-38827361D01*
X163351111Y-38113076D01*
X163160635Y-38827361D01*
X162922540Y-37827361D01*
X162017778Y-38827361D02*
X162589206Y-38827361D01*
X162303492Y-38827361D02*
X162303492Y-37827361D01*
X162398730Y-37970219D01*
X162493968Y-38065457D01*
X162589206Y-38113076D01*
X161160635Y-37827361D02*
X161351111Y-37827361D01*
X161446349Y-37874981D01*
X161493968Y-37922600D01*
X161589206Y-38065457D01*
X161636825Y-38255933D01*
X161636825Y-38636885D01*
X161589206Y-38732123D01*
X161541587Y-38779742D01*
X161446349Y-38827361D01*
X161255873Y-38827361D01*
X161160635Y-38779742D01*
X161113016Y-38732123D01*
X161065397Y-38636885D01*
X161065397Y-38398790D01*
X161113016Y-38303552D01*
X161160635Y-38255933D01*
X161255873Y-38208314D01*
X161446349Y-38208314D01*
X161541587Y-38255933D01*
X161589206Y-38303552D01*
X161636825Y-38398790D01*
%TO.C,SW4*%
X130208270Y-21779750D02*
X130065413Y-21827369D01*
X129827317Y-21827369D01*
X129732079Y-21779750D01*
X129684460Y-21732131D01*
X129636841Y-21636893D01*
X129636841Y-21541655D01*
X129684460Y-21446417D01*
X129732079Y-21398798D01*
X129827317Y-21351179D01*
X130017794Y-21303560D01*
X130113032Y-21255941D01*
X130160651Y-21208322D01*
X130208270Y-21113084D01*
X130208270Y-21017846D01*
X130160651Y-20922608D01*
X130113032Y-20874989D01*
X130017794Y-20827369D01*
X129779698Y-20827369D01*
X129636841Y-20874989D01*
X129303508Y-20827369D02*
X129065413Y-21827369D01*
X128874937Y-21113084D01*
X128684460Y-21827369D01*
X128446365Y-20827369D01*
X127636841Y-21160703D02*
X127636841Y-21827369D01*
X127874937Y-20779750D02*
X128113032Y-21494036D01*
X127493984Y-21494036D01*
%TO.C,SW1*%
X89208294Y-25779750D02*
X89065437Y-25827369D01*
X88827341Y-25827369D01*
X88732103Y-25779750D01*
X88684484Y-25732131D01*
X88636865Y-25636893D01*
X88636865Y-25541655D01*
X88684484Y-25446417D01*
X88732103Y-25398798D01*
X88827341Y-25351179D01*
X89017818Y-25303560D01*
X89113056Y-25255941D01*
X89160675Y-25208322D01*
X89208294Y-25113084D01*
X89208294Y-25017846D01*
X89160675Y-24922608D01*
X89113056Y-24874989D01*
X89017818Y-24827369D01*
X88779722Y-24827369D01*
X88636865Y-24874989D01*
X88303532Y-24827369D02*
X88065437Y-25827369D01*
X87874961Y-25113084D01*
X87684484Y-25827369D01*
X87446389Y-24827369D01*
X86541627Y-25827369D02*
X87113056Y-25827369D01*
X86827341Y-25827369D02*
X86827341Y-24827369D01*
X86922580Y-24970227D01*
X87017818Y-25065465D01*
X87113056Y-25113084D01*
%TO.C,SW29*%
X215684420Y-55779734D02*
X215541563Y-55827353D01*
X215303468Y-55827353D01*
X215208230Y-55779734D01*
X215160611Y-55732115D01*
X215112992Y-55636877D01*
X215112992Y-55541639D01*
X215160611Y-55446401D01*
X215208230Y-55398782D01*
X215303468Y-55351163D01*
X215493944Y-55303544D01*
X215589182Y-55255925D01*
X215636801Y-55208306D01*
X215684420Y-55113068D01*
X215684420Y-55017830D01*
X215636801Y-54922592D01*
X215589182Y-54874973D01*
X215493944Y-54827353D01*
X215255849Y-54827353D01*
X215112992Y-54874973D01*
X214779658Y-54827353D02*
X214541563Y-55827353D01*
X214351087Y-55113068D01*
X214160611Y-55827353D01*
X213922516Y-54827353D01*
X213589182Y-54922592D02*
X213541563Y-54874973D01*
X213446325Y-54827353D01*
X213208230Y-54827353D01*
X213112992Y-54874973D01*
X213065373Y-54922592D01*
X213017754Y-55017830D01*
X213017754Y-55113068D01*
X213065373Y-55255925D01*
X213636801Y-55827353D01*
X213017754Y-55827353D01*
X212541563Y-55827353D02*
X212351087Y-55827353D01*
X212255849Y-55779734D01*
X212208230Y-55732115D01*
X212112992Y-55589258D01*
X212065373Y-55398782D01*
X212065373Y-55017830D01*
X212112992Y-54922592D01*
X212160611Y-54874973D01*
X212255849Y-54827353D01*
X212446325Y-54827353D01*
X212541563Y-54874973D01*
X212589182Y-54922592D01*
X212636801Y-55017830D01*
X212636801Y-55255925D01*
X212589182Y-55351163D01*
X212541563Y-55398782D01*
X212446325Y-55446401D01*
X212255849Y-55446401D01*
X212160611Y-55398782D01*
X212112992Y-55351163D01*
X212065373Y-55255925D01*
%TO.C,SW15*%
X147684452Y-38779742D02*
X147541595Y-38827361D01*
X147303500Y-38827361D01*
X147208262Y-38779742D01*
X147160643Y-38732123D01*
X147113024Y-38636885D01*
X147113024Y-38541647D01*
X147160643Y-38446409D01*
X147208262Y-38398790D01*
X147303500Y-38351171D01*
X147493976Y-38303552D01*
X147589214Y-38255933D01*
X147636833Y-38208314D01*
X147684452Y-38113076D01*
X147684452Y-38017838D01*
X147636833Y-37922600D01*
X147589214Y-37874981D01*
X147493976Y-37827361D01*
X147255881Y-37827361D01*
X147113024Y-37874981D01*
X146779690Y-37827361D02*
X146541595Y-38827361D01*
X146351119Y-38113076D01*
X146160643Y-38827361D01*
X145922548Y-37827361D01*
X145017786Y-38827361D02*
X145589214Y-38827361D01*
X145303500Y-38827361D02*
X145303500Y-37827361D01*
X145398738Y-37970219D01*
X145493976Y-38065457D01*
X145589214Y-38113076D01*
X144113024Y-37827361D02*
X144589214Y-37827361D01*
X144636833Y-38303552D01*
X144589214Y-38255933D01*
X144493976Y-38208314D01*
X144255881Y-38208314D01*
X144160643Y-38255933D01*
X144113024Y-38303552D01*
X144065405Y-38398790D01*
X144065405Y-38636885D01*
X144113024Y-38732123D01*
X144160643Y-38779742D01*
X144255881Y-38827361D01*
X144493976Y-38827361D01*
X144589214Y-38779742D01*
X144636833Y-38732123D01*
%TO.C,SW34*%
X130684460Y-72779726D02*
X130541603Y-72827345D01*
X130303508Y-72827345D01*
X130208270Y-72779726D01*
X130160651Y-72732107D01*
X130113032Y-72636869D01*
X130113032Y-72541631D01*
X130160651Y-72446393D01*
X130208270Y-72398774D01*
X130303508Y-72351155D01*
X130493984Y-72303536D01*
X130589222Y-72255917D01*
X130636841Y-72208298D01*
X130684460Y-72113060D01*
X130684460Y-72017822D01*
X130636841Y-71922584D01*
X130589222Y-71874965D01*
X130493984Y-71827345D01*
X130255889Y-71827345D01*
X130113032Y-71874965D01*
X129779698Y-71827345D02*
X129541603Y-72827345D01*
X129351127Y-72113060D01*
X129160651Y-72827345D01*
X128922556Y-71827345D01*
X128636841Y-71827345D02*
X128017794Y-71827345D01*
X128351127Y-72208298D01*
X128208270Y-72208298D01*
X128113032Y-72255917D01*
X128065413Y-72303536D01*
X128017794Y-72398774D01*
X128017794Y-72636869D01*
X128065413Y-72732107D01*
X128113032Y-72779726D01*
X128208270Y-72827345D01*
X128493984Y-72827345D01*
X128589222Y-72779726D01*
X128636841Y-72732107D01*
X127160651Y-72160679D02*
X127160651Y-72827345D01*
X127398746Y-71779726D02*
X127636841Y-72494012D01*
X127017794Y-72494012D01*
%TO.C,SW6*%
X164208254Y-21779750D02*
X164065397Y-21827369D01*
X163827301Y-21827369D01*
X163732063Y-21779750D01*
X163684444Y-21732131D01*
X163636825Y-21636893D01*
X163636825Y-21541655D01*
X163684444Y-21446417D01*
X163732063Y-21398798D01*
X163827301Y-21351179D01*
X164017778Y-21303560D01*
X164113016Y-21255941D01*
X164160635Y-21208322D01*
X164208254Y-21113084D01*
X164208254Y-21017846D01*
X164160635Y-20922608D01*
X164113016Y-20874989D01*
X164017778Y-20827369D01*
X163779682Y-20827369D01*
X163636825Y-20874989D01*
X163303492Y-20827369D02*
X163065397Y-21827369D01*
X162874921Y-21113084D01*
X162684444Y-21827369D01*
X162446349Y-20827369D01*
X161636825Y-20827369D02*
X161827301Y-20827369D01*
X161922540Y-20874989D01*
X161970159Y-20922608D01*
X162065397Y-21065465D01*
X162113016Y-21255941D01*
X162113016Y-21636893D01*
X162065397Y-21732131D01*
X162017778Y-21779750D01*
X161922540Y-21827369D01*
X161732063Y-21827369D01*
X161636825Y-21779750D01*
X161589206Y-21732131D01*
X161541587Y-21636893D01*
X161541587Y-21398798D01*
X161589206Y-21303560D01*
X161636825Y-21255941D01*
X161732063Y-21208322D01*
X161922540Y-21208322D01*
X162017778Y-21255941D01*
X162065397Y-21303560D01*
X162113016Y-21398798D01*
%TO.C,SW10*%
X232684412Y-21779750D02*
X232541555Y-21827369D01*
X232303460Y-21827369D01*
X232208222Y-21779750D01*
X232160603Y-21732131D01*
X232112984Y-21636893D01*
X232112984Y-21541655D01*
X232160603Y-21446417D01*
X232208222Y-21398798D01*
X232303460Y-21351179D01*
X232493936Y-21303560D01*
X232589174Y-21255941D01*
X232636793Y-21208322D01*
X232684412Y-21113084D01*
X232684412Y-21017846D01*
X232636793Y-20922608D01*
X232589174Y-20874989D01*
X232493936Y-20827369D01*
X232255841Y-20827369D01*
X232112984Y-20874989D01*
X231779650Y-20827369D02*
X231541555Y-21827369D01*
X231351079Y-21113084D01*
X231160603Y-21827369D01*
X230922508Y-20827369D01*
X230017746Y-21827369D02*
X230589174Y-21827369D01*
X230303460Y-21827369D02*
X230303460Y-20827369D01*
X230398698Y-20970227D01*
X230493936Y-21065465D01*
X230589174Y-21113084D01*
X229398698Y-20827369D02*
X229303460Y-20827369D01*
X229208222Y-20874989D01*
X229160603Y-20922608D01*
X229112984Y-21017846D01*
X229065365Y-21208322D01*
X229065365Y-21446417D01*
X229112984Y-21636893D01*
X229160603Y-21732131D01*
X229208222Y-21779750D01*
X229303460Y-21827369D01*
X229398698Y-21827369D01*
X229493936Y-21779750D01*
X229541555Y-21732131D01*
X229589174Y-21636893D01*
X229636793Y-21446417D01*
X229636793Y-21208322D01*
X229589174Y-21017846D01*
X229541555Y-20922608D01*
X229493936Y-20874989D01*
X229398698Y-20827369D01*
%TO.C,SW33*%
X113684468Y-72779726D02*
X113541611Y-72827345D01*
X113303516Y-72827345D01*
X113208278Y-72779726D01*
X113160659Y-72732107D01*
X113113040Y-72636869D01*
X113113040Y-72541631D01*
X113160659Y-72446393D01*
X113208278Y-72398774D01*
X113303516Y-72351155D01*
X113493992Y-72303536D01*
X113589230Y-72255917D01*
X113636849Y-72208298D01*
X113684468Y-72113060D01*
X113684468Y-72017822D01*
X113636849Y-71922584D01*
X113589230Y-71874965D01*
X113493992Y-71827345D01*
X113255897Y-71827345D01*
X113113040Y-71874965D01*
X112779706Y-71827345D02*
X112541611Y-72827345D01*
X112351135Y-72113060D01*
X112160659Y-72827345D01*
X111922564Y-71827345D01*
X111636849Y-71827345D02*
X111017802Y-71827345D01*
X111351135Y-72208298D01*
X111208278Y-72208298D01*
X111113040Y-72255917D01*
X111065421Y-72303536D01*
X111017802Y-72398774D01*
X111017802Y-72636869D01*
X111065421Y-72732107D01*
X111113040Y-72779726D01*
X111208278Y-72827345D01*
X111493992Y-72827345D01*
X111589230Y-72779726D01*
X111636849Y-72732107D01*
X110684468Y-71827345D02*
X110065421Y-71827345D01*
X110398754Y-72208298D01*
X110255897Y-72208298D01*
X110160659Y-72255917D01*
X110113040Y-72303536D01*
X110065421Y-72398774D01*
X110065421Y-72636869D01*
X110113040Y-72732107D01*
X110160659Y-72779726D01*
X110255897Y-72827345D01*
X110541611Y-72827345D01*
X110636849Y-72779726D01*
X110684468Y-72732107D01*
%TO.C,SW27*%
X181684436Y-55779734D02*
X181541579Y-55827353D01*
X181303484Y-55827353D01*
X181208246Y-55779734D01*
X181160627Y-55732115D01*
X181113008Y-55636877D01*
X181113008Y-55541639D01*
X181160627Y-55446401D01*
X181208246Y-55398782D01*
X181303484Y-55351163D01*
X181493960Y-55303544D01*
X181589198Y-55255925D01*
X181636817Y-55208306D01*
X181684436Y-55113068D01*
X181684436Y-55017830D01*
X181636817Y-54922592D01*
X181589198Y-54874973D01*
X181493960Y-54827353D01*
X181255865Y-54827353D01*
X181113008Y-54874973D01*
X180779674Y-54827353D02*
X180541579Y-55827353D01*
X180351103Y-55113068D01*
X180160627Y-55827353D01*
X179922532Y-54827353D01*
X179589198Y-54922592D02*
X179541579Y-54874973D01*
X179446341Y-54827353D01*
X179208246Y-54827353D01*
X179113008Y-54874973D01*
X179065389Y-54922592D01*
X179017770Y-55017830D01*
X179017770Y-55113068D01*
X179065389Y-55255925D01*
X179636817Y-55827353D01*
X179017770Y-55827353D01*
X178684436Y-54827353D02*
X178017770Y-54827353D01*
X178446341Y-55827353D01*
%TO.C,SW30*%
X232684412Y-55779734D02*
X232541555Y-55827353D01*
X232303460Y-55827353D01*
X232208222Y-55779734D01*
X232160603Y-55732115D01*
X232112984Y-55636877D01*
X232112984Y-55541639D01*
X232160603Y-55446401D01*
X232208222Y-55398782D01*
X232303460Y-55351163D01*
X232493936Y-55303544D01*
X232589174Y-55255925D01*
X232636793Y-55208306D01*
X232684412Y-55113068D01*
X232684412Y-55017830D01*
X232636793Y-54922592D01*
X232589174Y-54874973D01*
X232493936Y-54827353D01*
X232255841Y-54827353D01*
X232112984Y-54874973D01*
X231779650Y-54827353D02*
X231541555Y-55827353D01*
X231351079Y-55113068D01*
X231160603Y-55827353D01*
X230922508Y-54827353D01*
X230636793Y-54827353D02*
X230017746Y-54827353D01*
X230351079Y-55208306D01*
X230208222Y-55208306D01*
X230112984Y-55255925D01*
X230065365Y-55303544D01*
X230017746Y-55398782D01*
X230017746Y-55636877D01*
X230065365Y-55732115D01*
X230112984Y-55779734D01*
X230208222Y-55827353D01*
X230493936Y-55827353D01*
X230589174Y-55779734D01*
X230636793Y-55732115D01*
X229398698Y-54827353D02*
X229303460Y-54827353D01*
X229208222Y-54874973D01*
X229160603Y-54922592D01*
X229112984Y-55017830D01*
X229065365Y-55208306D01*
X229065365Y-55446401D01*
X229112984Y-55636877D01*
X229160603Y-55732115D01*
X229208222Y-55779734D01*
X229303460Y-55827353D01*
X229398698Y-55827353D01*
X229493936Y-55779734D01*
X229541555Y-55732115D01*
X229589174Y-55636877D01*
X229636793Y-55446401D01*
X229636793Y-55208306D01*
X229589174Y-55017830D01*
X229541555Y-54922592D01*
X229493936Y-54874973D01*
X229398698Y-54827353D01*
%TO.C,SW7*%
X181208246Y-21779750D02*
X181065389Y-21827369D01*
X180827293Y-21827369D01*
X180732055Y-21779750D01*
X180684436Y-21732131D01*
X180636817Y-21636893D01*
X180636817Y-21541655D01*
X180684436Y-21446417D01*
X180732055Y-21398798D01*
X180827293Y-21351179D01*
X181017770Y-21303560D01*
X181113008Y-21255941D01*
X181160627Y-21208322D01*
X181208246Y-21113084D01*
X181208246Y-21017846D01*
X181160627Y-20922608D01*
X181113008Y-20874989D01*
X181017770Y-20827369D01*
X180779674Y-20827369D01*
X180636817Y-20874989D01*
X180303484Y-20827369D02*
X180065389Y-21827369D01*
X179874913Y-21113084D01*
X179684436Y-21827369D01*
X179446341Y-20827369D01*
X179160627Y-20827369D02*
X178493960Y-20827369D01*
X178922532Y-21827369D01*
%TO.C,SW19*%
X215684420Y-38779742D02*
X215541563Y-38827361D01*
X215303468Y-38827361D01*
X215208230Y-38779742D01*
X215160611Y-38732123D01*
X215112992Y-38636885D01*
X215112992Y-38541647D01*
X215160611Y-38446409D01*
X215208230Y-38398790D01*
X215303468Y-38351171D01*
X215493944Y-38303552D01*
X215589182Y-38255933D01*
X215636801Y-38208314D01*
X215684420Y-38113076D01*
X215684420Y-38017838D01*
X215636801Y-37922600D01*
X215589182Y-37874981D01*
X215493944Y-37827361D01*
X215255849Y-37827361D01*
X215112992Y-37874981D01*
X214779658Y-37827361D02*
X214541563Y-38827361D01*
X214351087Y-38113076D01*
X214160611Y-38827361D01*
X213922516Y-37827361D01*
X213017754Y-38827361D02*
X213589182Y-38827361D01*
X213303468Y-38827361D02*
X213303468Y-37827361D01*
X213398706Y-37970219D01*
X213493944Y-38065457D01*
X213589182Y-38113076D01*
X212541563Y-38827361D02*
X212351087Y-38827361D01*
X212255849Y-38779742D01*
X212208230Y-38732123D01*
X212112992Y-38589266D01*
X212065373Y-38398790D01*
X212065373Y-38017838D01*
X212112992Y-37922600D01*
X212160611Y-37874981D01*
X212255849Y-37827361D01*
X212446325Y-37827361D01*
X212541563Y-37874981D01*
X212589182Y-37922600D01*
X212636801Y-38017838D01*
X212636801Y-38255933D01*
X212589182Y-38351171D01*
X212541563Y-38398790D01*
X212446325Y-38446409D01*
X212255849Y-38446409D01*
X212160611Y-38398790D01*
X212112992Y-38351171D01*
X212065373Y-38255933D01*
%TO.C,SW40*%
X232684412Y-72779726D02*
X232541555Y-72827345D01*
X232303460Y-72827345D01*
X232208222Y-72779726D01*
X232160603Y-72732107D01*
X232112984Y-72636869D01*
X232112984Y-72541631D01*
X232160603Y-72446393D01*
X232208222Y-72398774D01*
X232303460Y-72351155D01*
X232493936Y-72303536D01*
X232589174Y-72255917D01*
X232636793Y-72208298D01*
X232684412Y-72113060D01*
X232684412Y-72017822D01*
X232636793Y-71922584D01*
X232589174Y-71874965D01*
X232493936Y-71827345D01*
X232255841Y-71827345D01*
X232112984Y-71874965D01*
X231779650Y-71827345D02*
X231541555Y-72827345D01*
X231351079Y-72113060D01*
X231160603Y-72827345D01*
X230922508Y-71827345D01*
X230112984Y-72160679D02*
X230112984Y-72827345D01*
X230351079Y-71779726D02*
X230589174Y-72494012D01*
X229970127Y-72494012D01*
X229398698Y-71827345D02*
X229303460Y-71827345D01*
X229208222Y-71874965D01*
X229160603Y-71922584D01*
X229112984Y-72017822D01*
X229065365Y-72208298D01*
X229065365Y-72446393D01*
X229112984Y-72636869D01*
X229160603Y-72732107D01*
X229208222Y-72779726D01*
X229303460Y-72827345D01*
X229398698Y-72827345D01*
X229493936Y-72779726D01*
X229541555Y-72732107D01*
X229589174Y-72636869D01*
X229636793Y-72446393D01*
X229636793Y-72208298D01*
X229589174Y-72017822D01*
X229541555Y-71922584D01*
X229493936Y-71874965D01*
X229398698Y-71827345D01*
%TO.C,SW24*%
X130684460Y-55779734D02*
X130541603Y-55827353D01*
X130303508Y-55827353D01*
X130208270Y-55779734D01*
X130160651Y-55732115D01*
X130113032Y-55636877D01*
X130113032Y-55541639D01*
X130160651Y-55446401D01*
X130208270Y-55398782D01*
X130303508Y-55351163D01*
X130493984Y-55303544D01*
X130589222Y-55255925D01*
X130636841Y-55208306D01*
X130684460Y-55113068D01*
X130684460Y-55017830D01*
X130636841Y-54922592D01*
X130589222Y-54874973D01*
X130493984Y-54827353D01*
X130255889Y-54827353D01*
X130113032Y-54874973D01*
X129779698Y-54827353D02*
X129541603Y-55827353D01*
X129351127Y-55113068D01*
X129160651Y-55827353D01*
X128922556Y-54827353D01*
X128589222Y-54922592D02*
X128541603Y-54874973D01*
X128446365Y-54827353D01*
X128208270Y-54827353D01*
X128113032Y-54874973D01*
X128065413Y-54922592D01*
X128017794Y-55017830D01*
X128017794Y-55113068D01*
X128065413Y-55255925D01*
X128636841Y-55827353D01*
X128017794Y-55827353D01*
X127160651Y-55160687D02*
X127160651Y-55827353D01*
X127398746Y-54779734D02*
X127636841Y-55494020D01*
X127017794Y-55494020D01*
%TO.C,SW32*%
X96684476Y-72779726D02*
X96541619Y-72827345D01*
X96303524Y-72827345D01*
X96208286Y-72779726D01*
X96160667Y-72732107D01*
X96113048Y-72636869D01*
X96113048Y-72541631D01*
X96160667Y-72446393D01*
X96208286Y-72398774D01*
X96303524Y-72351155D01*
X96494000Y-72303536D01*
X96589238Y-72255917D01*
X96636857Y-72208298D01*
X96684476Y-72113060D01*
X96684476Y-72017822D01*
X96636857Y-71922584D01*
X96589238Y-71874965D01*
X96494000Y-71827345D01*
X96255905Y-71827345D01*
X96113048Y-71874965D01*
X95779714Y-71827345D02*
X95541619Y-72827345D01*
X95351143Y-72113060D01*
X95160667Y-72827345D01*
X94922572Y-71827345D01*
X94636857Y-71827345D02*
X94017810Y-71827345D01*
X94351143Y-72208298D01*
X94208286Y-72208298D01*
X94113048Y-72255917D01*
X94065429Y-72303536D01*
X94017810Y-72398774D01*
X94017810Y-72636869D01*
X94065429Y-72732107D01*
X94113048Y-72779726D01*
X94208286Y-72827345D01*
X94494000Y-72827345D01*
X94589238Y-72779726D01*
X94636857Y-72732107D01*
X93636857Y-71922584D02*
X93589238Y-71874965D01*
X93494000Y-71827345D01*
X93255905Y-71827345D01*
X93160667Y-71874965D01*
X93113048Y-71922584D01*
X93065429Y-72017822D01*
X93065429Y-72113060D01*
X93113048Y-72255917D01*
X93684476Y-72827345D01*
X93065429Y-72827345D01*
%TO.C,SW5*%
X147208262Y-21779750D02*
X147065405Y-21827369D01*
X146827309Y-21827369D01*
X146732071Y-21779750D01*
X146684452Y-21732131D01*
X146636833Y-21636893D01*
X146636833Y-21541655D01*
X146684452Y-21446417D01*
X146732071Y-21398798D01*
X146827309Y-21351179D01*
X147017786Y-21303560D01*
X147113024Y-21255941D01*
X147160643Y-21208322D01*
X147208262Y-21113084D01*
X147208262Y-21017846D01*
X147160643Y-20922608D01*
X147113024Y-20874989D01*
X147017786Y-20827369D01*
X146779690Y-20827369D01*
X146636833Y-20874989D01*
X146303500Y-20827369D02*
X146065405Y-21827369D01*
X145874929Y-21113084D01*
X145684452Y-21827369D01*
X145446357Y-20827369D01*
X144589214Y-20827369D02*
X145065405Y-20827369D01*
X145113024Y-21303560D01*
X145065405Y-21255941D01*
X144970167Y-21208322D01*
X144732071Y-21208322D01*
X144636833Y-21255941D01*
X144589214Y-21303560D01*
X144541595Y-21398798D01*
X144541595Y-21636893D01*
X144589214Y-21732131D01*
X144636833Y-21779750D01*
X144732071Y-21827369D01*
X144970167Y-21827369D01*
X145065405Y-21779750D01*
X145113024Y-21732131D01*
%TO.C,SW31*%
X89684484Y-76779726D02*
X89541627Y-76827345D01*
X89303532Y-76827345D01*
X89208294Y-76779726D01*
X89160675Y-76732107D01*
X89113056Y-76636869D01*
X89113056Y-76541631D01*
X89160675Y-76446393D01*
X89208294Y-76398774D01*
X89303532Y-76351155D01*
X89494008Y-76303536D01*
X89589246Y-76255917D01*
X89636865Y-76208298D01*
X89684484Y-76113060D01*
X89684484Y-76017822D01*
X89636865Y-75922584D01*
X89589246Y-75874965D01*
X89494008Y-75827345D01*
X89255913Y-75827345D01*
X89113056Y-75874965D01*
X88779722Y-75827345D02*
X88541627Y-76827345D01*
X88351151Y-76113060D01*
X88160675Y-76827345D01*
X87922580Y-75827345D01*
X87636865Y-75827345D02*
X87017818Y-75827345D01*
X87351151Y-76208298D01*
X87208294Y-76208298D01*
X87113056Y-76255917D01*
X87065437Y-76303536D01*
X87017818Y-76398774D01*
X87017818Y-76636869D01*
X87065437Y-76732107D01*
X87113056Y-76779726D01*
X87208294Y-76827345D01*
X87494008Y-76827345D01*
X87589246Y-76779726D01*
X87636865Y-76732107D01*
X86065437Y-76827345D02*
X86636865Y-76827345D01*
X86351151Y-76827345D02*
X86351151Y-75827345D01*
X86446389Y-75970203D01*
X86541627Y-76065441D01*
X86636865Y-76113060D01*
%TO.C,SW38*%
X198684428Y-72779726D02*
X198541571Y-72827345D01*
X198303476Y-72827345D01*
X198208238Y-72779726D01*
X198160619Y-72732107D01*
X198113000Y-72636869D01*
X198113000Y-72541631D01*
X198160619Y-72446393D01*
X198208238Y-72398774D01*
X198303476Y-72351155D01*
X198493952Y-72303536D01*
X198589190Y-72255917D01*
X198636809Y-72208298D01*
X198684428Y-72113060D01*
X198684428Y-72017822D01*
X198636809Y-71922584D01*
X198589190Y-71874965D01*
X198493952Y-71827345D01*
X198255857Y-71827345D01*
X198113000Y-71874965D01*
X197779666Y-71827345D02*
X197541571Y-72827345D01*
X197351095Y-72113060D01*
X197160619Y-72827345D01*
X196922524Y-71827345D01*
X196636809Y-71827345D02*
X196017762Y-71827345D01*
X196351095Y-72208298D01*
X196208238Y-72208298D01*
X196113000Y-72255917D01*
X196065381Y-72303536D01*
X196017762Y-72398774D01*
X196017762Y-72636869D01*
X196065381Y-72732107D01*
X196113000Y-72779726D01*
X196208238Y-72827345D01*
X196493952Y-72827345D01*
X196589190Y-72779726D01*
X196636809Y-72732107D01*
X195446333Y-72255917D02*
X195541571Y-72208298D01*
X195589190Y-72160679D01*
X195636809Y-72065441D01*
X195636809Y-72017822D01*
X195589190Y-71922584D01*
X195541571Y-71874965D01*
X195446333Y-71827345D01*
X195255857Y-71827345D01*
X195160619Y-71874965D01*
X195113000Y-71922584D01*
X195065381Y-72017822D01*
X195065381Y-72065441D01*
X195113000Y-72160679D01*
X195160619Y-72208298D01*
X195255857Y-72255917D01*
X195446333Y-72255917D01*
X195541571Y-72303536D01*
X195589190Y-72351155D01*
X195636809Y-72446393D01*
X195636809Y-72636869D01*
X195589190Y-72732107D01*
X195541571Y-72779726D01*
X195446333Y-72827345D01*
X195255857Y-72827345D01*
X195160619Y-72779726D01*
X195113000Y-72732107D01*
X195065381Y-72636869D01*
X195065381Y-72446393D01*
X195113000Y-72351155D01*
X195160619Y-72303536D01*
X195255857Y-72255917D01*
%TO.C,SW35*%
X147684452Y-72779726D02*
X147541595Y-72827345D01*
X147303500Y-72827345D01*
X147208262Y-72779726D01*
X147160643Y-72732107D01*
X147113024Y-72636869D01*
X147113024Y-72541631D01*
X147160643Y-72446393D01*
X147208262Y-72398774D01*
X147303500Y-72351155D01*
X147493976Y-72303536D01*
X147589214Y-72255917D01*
X147636833Y-72208298D01*
X147684452Y-72113060D01*
X147684452Y-72017822D01*
X147636833Y-71922584D01*
X147589214Y-71874965D01*
X147493976Y-71827345D01*
X147255881Y-71827345D01*
X147113024Y-71874965D01*
X146779690Y-71827345D02*
X146541595Y-72827345D01*
X146351119Y-72113060D01*
X146160643Y-72827345D01*
X145922548Y-71827345D01*
X145636833Y-71827345D02*
X145017786Y-71827345D01*
X145351119Y-72208298D01*
X145208262Y-72208298D01*
X145113024Y-72255917D01*
X145065405Y-72303536D01*
X145017786Y-72398774D01*
X145017786Y-72636869D01*
X145065405Y-72732107D01*
X145113024Y-72779726D01*
X145208262Y-72827345D01*
X145493976Y-72827345D01*
X145589214Y-72779726D01*
X145636833Y-72732107D01*
X144113024Y-71827345D02*
X144589214Y-71827345D01*
X144636833Y-72303536D01*
X144589214Y-72255917D01*
X144493976Y-72208298D01*
X144255881Y-72208298D01*
X144160643Y-72255917D01*
X144113024Y-72303536D01*
X144065405Y-72398774D01*
X144065405Y-72636869D01*
X144113024Y-72732107D01*
X144160643Y-72779726D01*
X144255881Y-72827345D01*
X144493976Y-72827345D01*
X144589214Y-72779726D01*
X144636833Y-72732107D01*
%TO.C,SW18*%
X198684428Y-38779742D02*
X198541571Y-38827361D01*
X198303476Y-38827361D01*
X198208238Y-38779742D01*
X198160619Y-38732123D01*
X198113000Y-38636885D01*
X198113000Y-38541647D01*
X198160619Y-38446409D01*
X198208238Y-38398790D01*
X198303476Y-38351171D01*
X198493952Y-38303552D01*
X198589190Y-38255933D01*
X198636809Y-38208314D01*
X198684428Y-38113076D01*
X198684428Y-38017838D01*
X198636809Y-37922600D01*
X198589190Y-37874981D01*
X198493952Y-37827361D01*
X198255857Y-37827361D01*
X198113000Y-37874981D01*
X197779666Y-37827361D02*
X197541571Y-38827361D01*
X197351095Y-38113076D01*
X197160619Y-38827361D01*
X196922524Y-37827361D01*
X196017762Y-38827361D02*
X196589190Y-38827361D01*
X196303476Y-38827361D02*
X196303476Y-37827361D01*
X196398714Y-37970219D01*
X196493952Y-38065457D01*
X196589190Y-38113076D01*
X195446333Y-38255933D02*
X195541571Y-38208314D01*
X195589190Y-38160695D01*
X195636809Y-38065457D01*
X195636809Y-38017838D01*
X195589190Y-37922600D01*
X195541571Y-37874981D01*
X195446333Y-37827361D01*
X195255857Y-37827361D01*
X195160619Y-37874981D01*
X195113000Y-37922600D01*
X195065381Y-38017838D01*
X195065381Y-38065457D01*
X195113000Y-38160695D01*
X195160619Y-38208314D01*
X195255857Y-38255933D01*
X195446333Y-38255933D01*
X195541571Y-38303552D01*
X195589190Y-38351171D01*
X195636809Y-38446409D01*
X195636809Y-38636885D01*
X195589190Y-38732123D01*
X195541571Y-38779742D01*
X195446333Y-38827361D01*
X195255857Y-38827361D01*
X195160619Y-38779742D01*
X195113000Y-38732123D01*
X195065381Y-38636885D01*
X195065381Y-38446409D01*
X195113000Y-38351171D01*
X195160619Y-38303552D01*
X195255857Y-38255933D01*
%TO.C,SW3*%
X113208278Y-21779750D02*
X113065421Y-21827369D01*
X112827325Y-21827369D01*
X112732087Y-21779750D01*
X112684468Y-21732131D01*
X112636849Y-21636893D01*
X112636849Y-21541655D01*
X112684468Y-21446417D01*
X112732087Y-21398798D01*
X112827325Y-21351179D01*
X113017802Y-21303560D01*
X113113040Y-21255941D01*
X113160659Y-21208322D01*
X113208278Y-21113084D01*
X113208278Y-21017846D01*
X113160659Y-20922608D01*
X113113040Y-20874989D01*
X113017802Y-20827369D01*
X112779706Y-20827369D01*
X112636849Y-20874989D01*
X112303516Y-20827369D02*
X112065421Y-21827369D01*
X111874945Y-21113084D01*
X111684468Y-21827369D01*
X111446373Y-20827369D01*
X111160659Y-20827369D02*
X110541611Y-20827369D01*
X110874945Y-21208322D01*
X110732087Y-21208322D01*
X110636849Y-21255941D01*
X110589230Y-21303560D01*
X110541611Y-21398798D01*
X110541611Y-21636893D01*
X110589230Y-21732131D01*
X110636849Y-21779750D01*
X110732087Y-21827369D01*
X111017802Y-21827369D01*
X111113040Y-21779750D01*
X111160659Y-21732131D01*
%TO.C,SW9*%
X215208230Y-21779750D02*
X215065373Y-21827369D01*
X214827277Y-21827369D01*
X214732039Y-21779750D01*
X214684420Y-21732131D01*
X214636801Y-21636893D01*
X214636801Y-21541655D01*
X214684420Y-21446417D01*
X214732039Y-21398798D01*
X214827277Y-21351179D01*
X215017754Y-21303560D01*
X215112992Y-21255941D01*
X215160611Y-21208322D01*
X215208230Y-21113084D01*
X215208230Y-21017846D01*
X215160611Y-20922608D01*
X215112992Y-20874989D01*
X215017754Y-20827369D01*
X214779658Y-20827369D01*
X214636801Y-20874989D01*
X214303468Y-20827369D02*
X214065373Y-21827369D01*
X213874897Y-21113084D01*
X213684420Y-21827369D01*
X213446325Y-20827369D01*
X213017754Y-21827369D02*
X212827277Y-21827369D01*
X212732039Y-21779750D01*
X212684420Y-21732131D01*
X212589182Y-21589274D01*
X212541563Y-21398798D01*
X212541563Y-21017846D01*
X212589182Y-20922608D01*
X212636801Y-20874989D01*
X212732039Y-20827369D01*
X212922516Y-20827369D01*
X213017754Y-20874989D01*
X213065373Y-20922608D01*
X213112992Y-21017846D01*
X213112992Y-21255941D01*
X213065373Y-21351179D01*
X213017754Y-21398798D01*
X212922516Y-21446417D01*
X212732039Y-21446417D01*
X212636801Y-21398798D01*
X212589182Y-21351179D01*
X212541563Y-21255941D01*
%TO.C,SW14*%
X130684460Y-38779742D02*
X130541603Y-38827361D01*
X130303508Y-38827361D01*
X130208270Y-38779742D01*
X130160651Y-38732123D01*
X130113032Y-38636885D01*
X130113032Y-38541647D01*
X130160651Y-38446409D01*
X130208270Y-38398790D01*
X130303508Y-38351171D01*
X130493984Y-38303552D01*
X130589222Y-38255933D01*
X130636841Y-38208314D01*
X130684460Y-38113076D01*
X130684460Y-38017838D01*
X130636841Y-37922600D01*
X130589222Y-37874981D01*
X130493984Y-37827361D01*
X130255889Y-37827361D01*
X130113032Y-37874981D01*
X129779698Y-37827361D02*
X129541603Y-38827361D01*
X129351127Y-38113076D01*
X129160651Y-38827361D01*
X128922556Y-37827361D01*
X128017794Y-38827361D02*
X128589222Y-38827361D01*
X128303508Y-38827361D02*
X128303508Y-37827361D01*
X128398746Y-37970219D01*
X128493984Y-38065457D01*
X128589222Y-38113076D01*
X127160651Y-38160695D02*
X127160651Y-38827361D01*
X127398746Y-37779742D02*
X127636841Y-38494028D01*
X127017794Y-38494028D01*
%TO.C,SW21*%
X89684484Y-59779734D02*
X89541627Y-59827353D01*
X89303532Y-59827353D01*
X89208294Y-59779734D01*
X89160675Y-59732115D01*
X89113056Y-59636877D01*
X89113056Y-59541639D01*
X89160675Y-59446401D01*
X89208294Y-59398782D01*
X89303532Y-59351163D01*
X89494008Y-59303544D01*
X89589246Y-59255925D01*
X89636865Y-59208306D01*
X89684484Y-59113068D01*
X89684484Y-59017830D01*
X89636865Y-58922592D01*
X89589246Y-58874973D01*
X89494008Y-58827353D01*
X89255913Y-58827353D01*
X89113056Y-58874973D01*
X88779722Y-58827353D02*
X88541627Y-59827353D01*
X88351151Y-59113068D01*
X88160675Y-59827353D01*
X87922580Y-58827353D01*
X87589246Y-58922592D02*
X87541627Y-58874973D01*
X87446389Y-58827353D01*
X87208294Y-58827353D01*
X87113056Y-58874973D01*
X87065437Y-58922592D01*
X87017818Y-59017830D01*
X87017818Y-59113068D01*
X87065437Y-59255925D01*
X87636865Y-59827353D01*
X87017818Y-59827353D01*
X86065437Y-59827353D02*
X86636865Y-59827353D01*
X86351151Y-59827353D02*
X86351151Y-58827353D01*
X86446389Y-58970211D01*
X86541627Y-59065449D01*
X86636865Y-59113068D01*
%TO.C,SW2*%
X96208286Y-21779750D02*
X96065429Y-21827369D01*
X95827333Y-21827369D01*
X95732095Y-21779750D01*
X95684476Y-21732131D01*
X95636857Y-21636893D01*
X95636857Y-21541655D01*
X95684476Y-21446417D01*
X95732095Y-21398798D01*
X95827333Y-21351179D01*
X96017810Y-21303560D01*
X96113048Y-21255941D01*
X96160667Y-21208322D01*
X96208286Y-21113084D01*
X96208286Y-21017846D01*
X96160667Y-20922608D01*
X96113048Y-20874989D01*
X96017810Y-20827369D01*
X95779714Y-20827369D01*
X95636857Y-20874989D01*
X95303524Y-20827369D02*
X95065429Y-21827369D01*
X94874953Y-21113084D01*
X94684476Y-21827369D01*
X94446381Y-20827369D01*
X94113048Y-20922608D02*
X94065429Y-20874989D01*
X93970191Y-20827369D01*
X93732095Y-20827369D01*
X93636857Y-20874989D01*
X93589238Y-20922608D01*
X93541619Y-21017846D01*
X93541619Y-21113084D01*
X93589238Y-21255941D01*
X94160667Y-21827369D01*
X93541619Y-21827369D01*
%TO.C,SW12*%
X96684476Y-38779742D02*
X96541619Y-38827361D01*
X96303524Y-38827361D01*
X96208286Y-38779742D01*
X96160667Y-38732123D01*
X96113048Y-38636885D01*
X96113048Y-38541647D01*
X96160667Y-38446409D01*
X96208286Y-38398790D01*
X96303524Y-38351171D01*
X96494000Y-38303552D01*
X96589238Y-38255933D01*
X96636857Y-38208314D01*
X96684476Y-38113076D01*
X96684476Y-38017838D01*
X96636857Y-37922600D01*
X96589238Y-37874981D01*
X96494000Y-37827361D01*
X96255905Y-37827361D01*
X96113048Y-37874981D01*
X95779714Y-37827361D02*
X95541619Y-38827361D01*
X95351143Y-38113076D01*
X95160667Y-38827361D01*
X94922572Y-37827361D01*
X94017810Y-38827361D02*
X94589238Y-38827361D01*
X94303524Y-38827361D02*
X94303524Y-37827361D01*
X94398762Y-37970219D01*
X94494000Y-38065457D01*
X94589238Y-38113076D01*
X93636857Y-37922600D02*
X93589238Y-37874981D01*
X93494000Y-37827361D01*
X93255905Y-37827361D01*
X93160667Y-37874981D01*
X93113048Y-37922600D01*
X93065429Y-38017838D01*
X93065429Y-38113076D01*
X93113048Y-38255933D01*
X93684476Y-38827361D01*
X93065429Y-38827361D01*
%TO.C,SW36*%
X164684444Y-72779726D02*
X164541587Y-72827345D01*
X164303492Y-72827345D01*
X164208254Y-72779726D01*
X164160635Y-72732107D01*
X164113016Y-72636869D01*
X164113016Y-72541631D01*
X164160635Y-72446393D01*
X164208254Y-72398774D01*
X164303492Y-72351155D01*
X164493968Y-72303536D01*
X164589206Y-72255917D01*
X164636825Y-72208298D01*
X164684444Y-72113060D01*
X164684444Y-72017822D01*
X164636825Y-71922584D01*
X164589206Y-71874965D01*
X164493968Y-71827345D01*
X164255873Y-71827345D01*
X164113016Y-71874965D01*
X163779682Y-71827345D02*
X163541587Y-72827345D01*
X163351111Y-72113060D01*
X163160635Y-72827345D01*
X162922540Y-71827345D01*
X162636825Y-71827345D02*
X162017778Y-71827345D01*
X162351111Y-72208298D01*
X162208254Y-72208298D01*
X162113016Y-72255917D01*
X162065397Y-72303536D01*
X162017778Y-72398774D01*
X162017778Y-72636869D01*
X162065397Y-72732107D01*
X162113016Y-72779726D01*
X162208254Y-72827345D01*
X162493968Y-72827345D01*
X162589206Y-72779726D01*
X162636825Y-72732107D01*
X161160635Y-71827345D02*
X161351111Y-71827345D01*
X161446349Y-71874965D01*
X161493968Y-71922584D01*
X161589206Y-72065441D01*
X161636825Y-72255917D01*
X161636825Y-72636869D01*
X161589206Y-72732107D01*
X161541587Y-72779726D01*
X161446349Y-72827345D01*
X161255873Y-72827345D01*
X161160635Y-72779726D01*
X161113016Y-72732107D01*
X161065397Y-72636869D01*
X161065397Y-72398774D01*
X161113016Y-72303536D01*
X161160635Y-72255917D01*
X161255873Y-72208298D01*
X161446349Y-72208298D01*
X161541587Y-72255917D01*
X161589206Y-72303536D01*
X161636825Y-72398774D01*
%TO.C,SW22*%
X96684476Y-55779734D02*
X96541619Y-55827353D01*
X96303524Y-55827353D01*
X96208286Y-55779734D01*
X96160667Y-55732115D01*
X96113048Y-55636877D01*
X96113048Y-55541639D01*
X96160667Y-55446401D01*
X96208286Y-55398782D01*
X96303524Y-55351163D01*
X96494000Y-55303544D01*
X96589238Y-55255925D01*
X96636857Y-55208306D01*
X96684476Y-55113068D01*
X96684476Y-55017830D01*
X96636857Y-54922592D01*
X96589238Y-54874973D01*
X96494000Y-54827353D01*
X96255905Y-54827353D01*
X96113048Y-54874973D01*
X95779714Y-54827353D02*
X95541619Y-55827353D01*
X95351143Y-55113068D01*
X95160667Y-55827353D01*
X94922572Y-54827353D01*
X94589238Y-54922592D02*
X94541619Y-54874973D01*
X94446381Y-54827353D01*
X94208286Y-54827353D01*
X94113048Y-54874973D01*
X94065429Y-54922592D01*
X94017810Y-55017830D01*
X94017810Y-55113068D01*
X94065429Y-55255925D01*
X94636857Y-55827353D01*
X94017810Y-55827353D01*
X93636857Y-54922592D02*
X93589238Y-54874973D01*
X93494000Y-54827353D01*
X93255905Y-54827353D01*
X93160667Y-54874973D01*
X93113048Y-54922592D01*
X93065429Y-55017830D01*
X93065429Y-55113068D01*
X93113048Y-55255925D01*
X93684476Y-55827353D01*
X93065429Y-55827353D01*
%TO.C,SW28*%
X198684428Y-55779734D02*
X198541571Y-55827353D01*
X198303476Y-55827353D01*
X198208238Y-55779734D01*
X198160619Y-55732115D01*
X198113000Y-55636877D01*
X198113000Y-55541639D01*
X198160619Y-55446401D01*
X198208238Y-55398782D01*
X198303476Y-55351163D01*
X198493952Y-55303544D01*
X198589190Y-55255925D01*
X198636809Y-55208306D01*
X198684428Y-55113068D01*
X198684428Y-55017830D01*
X198636809Y-54922592D01*
X198589190Y-54874973D01*
X198493952Y-54827353D01*
X198255857Y-54827353D01*
X198113000Y-54874973D01*
X197779666Y-54827353D02*
X197541571Y-55827353D01*
X197351095Y-55113068D01*
X197160619Y-55827353D01*
X196922524Y-54827353D01*
X196589190Y-54922592D02*
X196541571Y-54874973D01*
X196446333Y-54827353D01*
X196208238Y-54827353D01*
X196113000Y-54874973D01*
X196065381Y-54922592D01*
X196017762Y-55017830D01*
X196017762Y-55113068D01*
X196065381Y-55255925D01*
X196636809Y-55827353D01*
X196017762Y-55827353D01*
X195446333Y-55255925D02*
X195541571Y-55208306D01*
X195589190Y-55160687D01*
X195636809Y-55065449D01*
X195636809Y-55017830D01*
X195589190Y-54922592D01*
X195541571Y-54874973D01*
X195446333Y-54827353D01*
X195255857Y-54827353D01*
X195160619Y-54874973D01*
X195113000Y-54922592D01*
X195065381Y-55017830D01*
X195065381Y-55065449D01*
X195113000Y-55160687D01*
X195160619Y-55208306D01*
X195255857Y-55255925D01*
X195446333Y-55255925D01*
X195541571Y-55303544D01*
X195589190Y-55351163D01*
X195636809Y-55446401D01*
X195636809Y-55636877D01*
X195589190Y-55732115D01*
X195541571Y-55779734D01*
X195446333Y-55827353D01*
X195255857Y-55827353D01*
X195160619Y-55779734D01*
X195113000Y-55732115D01*
X195065381Y-55636877D01*
X195065381Y-55446401D01*
X195113000Y-55351163D01*
X195160619Y-55303544D01*
X195255857Y-55255925D01*
%TO.C,SW37*%
X181684436Y-72779726D02*
X181541579Y-72827345D01*
X181303484Y-72827345D01*
X181208246Y-72779726D01*
X181160627Y-72732107D01*
X181113008Y-72636869D01*
X181113008Y-72541631D01*
X181160627Y-72446393D01*
X181208246Y-72398774D01*
X181303484Y-72351155D01*
X181493960Y-72303536D01*
X181589198Y-72255917D01*
X181636817Y-72208298D01*
X181684436Y-72113060D01*
X181684436Y-72017822D01*
X181636817Y-71922584D01*
X181589198Y-71874965D01*
X181493960Y-71827345D01*
X181255865Y-71827345D01*
X181113008Y-71874965D01*
X180779674Y-71827345D02*
X180541579Y-72827345D01*
X180351103Y-72113060D01*
X180160627Y-72827345D01*
X179922532Y-71827345D01*
X179636817Y-71827345D02*
X179017770Y-71827345D01*
X179351103Y-72208298D01*
X179208246Y-72208298D01*
X179113008Y-72255917D01*
X179065389Y-72303536D01*
X179017770Y-72398774D01*
X179017770Y-72636869D01*
X179065389Y-72732107D01*
X179113008Y-72779726D01*
X179208246Y-72827345D01*
X179493960Y-72827345D01*
X179589198Y-72779726D01*
X179636817Y-72732107D01*
X178684436Y-71827345D02*
X178017770Y-71827345D01*
X178446341Y-72827345D01*
%TO.C,SW11*%
X89684484Y-42779742D02*
X89541627Y-42827361D01*
X89303532Y-42827361D01*
X89208294Y-42779742D01*
X89160675Y-42732123D01*
X89113056Y-42636885D01*
X89113056Y-42541647D01*
X89160675Y-42446409D01*
X89208294Y-42398790D01*
X89303532Y-42351171D01*
X89494008Y-42303552D01*
X89589246Y-42255933D01*
X89636865Y-42208314D01*
X89684484Y-42113076D01*
X89684484Y-42017838D01*
X89636865Y-41922600D01*
X89589246Y-41874981D01*
X89494008Y-41827361D01*
X89255913Y-41827361D01*
X89113056Y-41874981D01*
X88779722Y-41827361D02*
X88541627Y-42827361D01*
X88351151Y-42113076D01*
X88160675Y-42827361D01*
X87922580Y-41827361D01*
X87017818Y-42827361D02*
X87589246Y-42827361D01*
X87303532Y-42827361D02*
X87303532Y-41827361D01*
X87398770Y-41970219D01*
X87494008Y-42065457D01*
X87589246Y-42113076D01*
X86065437Y-42827361D02*
X86636865Y-42827361D01*
X86351151Y-42827361D02*
X86351151Y-41827361D01*
X86446389Y-41970219D01*
X86541627Y-42065457D01*
X86636865Y-42113076D01*
%TO.C,SW39*%
X215684420Y-72779726D02*
X215541563Y-72827345D01*
X215303468Y-72827345D01*
X215208230Y-72779726D01*
X215160611Y-72732107D01*
X215112992Y-72636869D01*
X215112992Y-72541631D01*
X215160611Y-72446393D01*
X215208230Y-72398774D01*
X215303468Y-72351155D01*
X215493944Y-72303536D01*
X215589182Y-72255917D01*
X215636801Y-72208298D01*
X215684420Y-72113060D01*
X215684420Y-72017822D01*
X215636801Y-71922584D01*
X215589182Y-71874965D01*
X215493944Y-71827345D01*
X215255849Y-71827345D01*
X215112992Y-71874965D01*
X214779658Y-71827345D02*
X214541563Y-72827345D01*
X214351087Y-72113060D01*
X214160611Y-72827345D01*
X213922516Y-71827345D01*
X213636801Y-71827345D02*
X213017754Y-71827345D01*
X213351087Y-72208298D01*
X213208230Y-72208298D01*
X213112992Y-72255917D01*
X213065373Y-72303536D01*
X213017754Y-72398774D01*
X213017754Y-72636869D01*
X213065373Y-72732107D01*
X213112992Y-72779726D01*
X213208230Y-72827345D01*
X213493944Y-72827345D01*
X213589182Y-72779726D01*
X213636801Y-72732107D01*
X212541563Y-72827345D02*
X212351087Y-72827345D01*
X212255849Y-72779726D01*
X212208230Y-72732107D01*
X212112992Y-72589250D01*
X212065373Y-72398774D01*
X212065373Y-72017822D01*
X212112992Y-71922584D01*
X212160611Y-71874965D01*
X212255849Y-71827345D01*
X212446325Y-71827345D01*
X212541563Y-71874965D01*
X212589182Y-71922584D01*
X212636801Y-72017822D01*
X212636801Y-72255917D01*
X212589182Y-72351155D01*
X212541563Y-72398774D01*
X212446325Y-72446393D01*
X212255849Y-72446393D01*
X212160611Y-72398774D01*
X212112992Y-72351155D01*
X212065373Y-72255917D01*
%TO.C,SW8*%
X198208238Y-21779750D02*
X198065381Y-21827369D01*
X197827285Y-21827369D01*
X197732047Y-21779750D01*
X197684428Y-21732131D01*
X197636809Y-21636893D01*
X197636809Y-21541655D01*
X197684428Y-21446417D01*
X197732047Y-21398798D01*
X197827285Y-21351179D01*
X198017762Y-21303560D01*
X198113000Y-21255941D01*
X198160619Y-21208322D01*
X198208238Y-21113084D01*
X198208238Y-21017846D01*
X198160619Y-20922608D01*
X198113000Y-20874989D01*
X198017762Y-20827369D01*
X197779666Y-20827369D01*
X197636809Y-20874989D01*
X197303476Y-20827369D02*
X197065381Y-21827369D01*
X196874905Y-21113084D01*
X196684428Y-21827369D01*
X196446333Y-20827369D01*
X195922524Y-21255941D02*
X196017762Y-21208322D01*
X196065381Y-21160703D01*
X196113000Y-21065465D01*
X196113000Y-21017846D01*
X196065381Y-20922608D01*
X196017762Y-20874989D01*
X195922524Y-20827369D01*
X195732047Y-20827369D01*
X195636809Y-20874989D01*
X195589190Y-20922608D01*
X195541571Y-21017846D01*
X195541571Y-21065465D01*
X195589190Y-21160703D01*
X195636809Y-21208322D01*
X195732047Y-21255941D01*
X195922524Y-21255941D01*
X196017762Y-21303560D01*
X196065381Y-21351179D01*
X196113000Y-21446417D01*
X196113000Y-21636893D01*
X196065381Y-21732131D01*
X196017762Y-21779750D01*
X195922524Y-21827369D01*
X195732047Y-21827369D01*
X195636809Y-21779750D01*
X195589190Y-21732131D01*
X195541571Y-21636893D01*
X195541571Y-21446417D01*
X195589190Y-21351179D01*
X195636809Y-21303560D01*
X195732047Y-21255941D01*
%TO.C,D35*%
X155143973Y-78119010D02*
X154143973Y-78119010D01*
X154143973Y-78357105D01*
X154191593Y-78499962D01*
X154286831Y-78595200D01*
X154382069Y-78642819D01*
X154572545Y-78690438D01*
X154715402Y-78690438D01*
X154905878Y-78642819D01*
X155001116Y-78595200D01*
X155096354Y-78499962D01*
X155143973Y-78357105D01*
X155143973Y-78119010D01*
X154143973Y-79023772D02*
X154143973Y-79642819D01*
X154524926Y-79309486D01*
X154524926Y-79452343D01*
X154572545Y-79547581D01*
X154620164Y-79595200D01*
X154715402Y-79642819D01*
X154953497Y-79642819D01*
X155048735Y-79595200D01*
X155096354Y-79547581D01*
X155143973Y-79452343D01*
X155143973Y-79166629D01*
X155096354Y-79071391D01*
X155048735Y-79023772D01*
X154143973Y-80547581D02*
X154143973Y-80071391D01*
X154620164Y-80023772D01*
X154572545Y-80071391D01*
X154524926Y-80166629D01*
X154524926Y-80404724D01*
X154572545Y-80499962D01*
X154620164Y-80547581D01*
X154715402Y-80595200D01*
X154953497Y-80595200D01*
X155048735Y-80547581D01*
X155096354Y-80499962D01*
X155143973Y-80404724D01*
X155143973Y-80166629D01*
X155096354Y-80071391D01*
X155048735Y-80023772D01*
%TO.C,D31*%
X87144005Y-78119010D02*
X86144005Y-78119010D01*
X86144005Y-78357105D01*
X86191625Y-78499962D01*
X86286863Y-78595200D01*
X86382101Y-78642819D01*
X86572577Y-78690438D01*
X86715434Y-78690438D01*
X86905910Y-78642819D01*
X87001148Y-78595200D01*
X87096386Y-78499962D01*
X87144005Y-78357105D01*
X87144005Y-78119010D01*
X86144005Y-79023772D02*
X86144005Y-79642819D01*
X86524958Y-79309486D01*
X86524958Y-79452343D01*
X86572577Y-79547581D01*
X86620196Y-79595200D01*
X86715434Y-79642819D01*
X86953529Y-79642819D01*
X87048767Y-79595200D01*
X87096386Y-79547581D01*
X87144005Y-79452343D01*
X87144005Y-79166629D01*
X87096386Y-79071391D01*
X87048767Y-79023772D01*
X87144005Y-80595200D02*
X87144005Y-80023772D01*
X87144005Y-80309486D02*
X86144005Y-80309486D01*
X86286863Y-80214248D01*
X86382101Y-80119010D01*
X86429720Y-80023772D01*
%TO.C,D30*%
X240143933Y-61119018D02*
X239143933Y-61119018D01*
X239143933Y-61357113D01*
X239191553Y-61499970D01*
X239286791Y-61595208D01*
X239382029Y-61642827D01*
X239572505Y-61690446D01*
X239715362Y-61690446D01*
X239905838Y-61642827D01*
X240001076Y-61595208D01*
X240096314Y-61499970D01*
X240143933Y-61357113D01*
X240143933Y-61119018D01*
X239143933Y-62023780D02*
X239143933Y-62642827D01*
X239524886Y-62309494D01*
X239524886Y-62452351D01*
X239572505Y-62547589D01*
X239620124Y-62595208D01*
X239715362Y-62642827D01*
X239953457Y-62642827D01*
X240048695Y-62595208D01*
X240096314Y-62547589D01*
X240143933Y-62452351D01*
X240143933Y-62166637D01*
X240096314Y-62071399D01*
X240048695Y-62023780D01*
X239143933Y-63261875D02*
X239143933Y-63357113D01*
X239191553Y-63452351D01*
X239239172Y-63499970D01*
X239334410Y-63547589D01*
X239524886Y-63595208D01*
X239762981Y-63595208D01*
X239953457Y-63547589D01*
X240048695Y-63499970D01*
X240096314Y-63452351D01*
X240143933Y-63357113D01*
X240143933Y-63261875D01*
X240096314Y-63166637D01*
X240048695Y-63119018D01*
X239953457Y-63071399D01*
X239762981Y-63023780D01*
X239524886Y-63023780D01*
X239334410Y-63071399D01*
X239239172Y-63119018D01*
X239191553Y-63166637D01*
X239143933Y-63261875D01*
%TO.C,D34*%
X138143981Y-78119010D02*
X137143981Y-78119010D01*
X137143981Y-78357105D01*
X137191601Y-78499962D01*
X137286839Y-78595200D01*
X137382077Y-78642819D01*
X137572553Y-78690438D01*
X137715410Y-78690438D01*
X137905886Y-78642819D01*
X138001124Y-78595200D01*
X138096362Y-78499962D01*
X138143981Y-78357105D01*
X138143981Y-78119010D01*
X137143981Y-79023772D02*
X137143981Y-79642819D01*
X137524934Y-79309486D01*
X137524934Y-79452343D01*
X137572553Y-79547581D01*
X137620172Y-79595200D01*
X137715410Y-79642819D01*
X137953505Y-79642819D01*
X138048743Y-79595200D01*
X138096362Y-79547581D01*
X138143981Y-79452343D01*
X138143981Y-79166629D01*
X138096362Y-79071391D01*
X138048743Y-79023772D01*
X137477315Y-80499962D02*
X138143981Y-80499962D01*
X137096362Y-80261867D02*
X137810648Y-80023772D01*
X137810648Y-80642819D01*
%TO.C,C5*%
X106454931Y-31559366D02*
X106454931Y-31492023D01*
X106387587Y-31357336D01*
X106320244Y-31289992D01*
X106185556Y-31222649D01*
X106050869Y-31222649D01*
X105949854Y-31256320D01*
X105781495Y-31357336D01*
X105680480Y-31458351D01*
X105579465Y-31626710D01*
X105545793Y-31727725D01*
X105545793Y-31862412D01*
X105613137Y-31997099D01*
X105680480Y-32064443D01*
X105815167Y-32131786D01*
X105882511Y-32131786D01*
X106454931Y-32838893D02*
X106118213Y-32502175D01*
X106421259Y-32131786D01*
X106421259Y-32199130D01*
X106454931Y-32300145D01*
X106623289Y-32468504D01*
X106724305Y-32502175D01*
X106791648Y-32502175D01*
X106892663Y-32468504D01*
X107061022Y-32300145D01*
X107094694Y-32199130D01*
X107094694Y-32131786D01*
X107061022Y-32030771D01*
X106892663Y-31862412D01*
X106791648Y-31828740D01*
X106724305Y-31828740D01*
%TO.C,R4*%
X113532380Y-23583333D02*
X113056190Y-23250000D01*
X113532380Y-23011904D02*
X112532380Y-23011904D01*
X112532380Y-23392857D01*
X112580000Y-23488095D01*
X112627619Y-23535714D01*
X112722857Y-23583333D01*
X112865714Y-23583333D01*
X112960952Y-23535714D01*
X113008571Y-23488095D01*
X113056190Y-23392857D01*
X113056190Y-23011904D01*
X112865714Y-24440476D02*
X113532380Y-24440476D01*
X112484761Y-24202380D02*
X113199047Y-23964285D01*
X113199047Y-24583333D01*
%TO.C,D11*%
X87144005Y-44119026D02*
X86144005Y-44119026D01*
X86144005Y-44357121D01*
X86191625Y-44499978D01*
X86286863Y-44595216D01*
X86382101Y-44642835D01*
X86572577Y-44690454D01*
X86715434Y-44690454D01*
X86905910Y-44642835D01*
X87001148Y-44595216D01*
X87096386Y-44499978D01*
X87144005Y-44357121D01*
X87144005Y-44119026D01*
X87144005Y-45642835D02*
X87144005Y-45071407D01*
X87144005Y-45357121D02*
X86144005Y-45357121D01*
X86286863Y-45261883D01*
X86382101Y-45166645D01*
X86429720Y-45071407D01*
X87144005Y-46595216D02*
X87144005Y-46023788D01*
X87144005Y-46309502D02*
X86144005Y-46309502D01*
X86286863Y-46214264D01*
X86382101Y-46119026D01*
X86429720Y-46023788D01*
%TO.C,D8*%
X206143949Y-27595224D02*
X205143949Y-27595224D01*
X205143949Y-27833320D01*
X205191569Y-27976177D01*
X205286807Y-28071415D01*
X205382045Y-28119034D01*
X205572521Y-28166653D01*
X205715378Y-28166653D01*
X205905854Y-28119034D01*
X206001092Y-28071415D01*
X206096330Y-27976177D01*
X206143949Y-27833320D01*
X206143949Y-27595224D01*
X205572521Y-28738081D02*
X205524902Y-28642843D01*
X205477283Y-28595224D01*
X205382045Y-28547605D01*
X205334426Y-28547605D01*
X205239188Y-28595224D01*
X205191569Y-28642843D01*
X205143949Y-28738081D01*
X205143949Y-28928558D01*
X205191569Y-29023796D01*
X205239188Y-29071415D01*
X205334426Y-29119034D01*
X205382045Y-29119034D01*
X205477283Y-29071415D01*
X205524902Y-29023796D01*
X205572521Y-28928558D01*
X205572521Y-28738081D01*
X205620140Y-28642843D01*
X205667759Y-28595224D01*
X205762997Y-28547605D01*
X205953473Y-28547605D01*
X206048711Y-28595224D01*
X206096330Y-28642843D01*
X206143949Y-28738081D01*
X206143949Y-28928558D01*
X206096330Y-29023796D01*
X206048711Y-29071415D01*
X205953473Y-29119034D01*
X205762997Y-29119034D01*
X205667759Y-29071415D01*
X205620140Y-29023796D01*
X205572521Y-28928558D01*
%TO.C,D22*%
X104143997Y-61119018D02*
X103143997Y-61119018D01*
X103143997Y-61357113D01*
X103191617Y-61499970D01*
X103286855Y-61595208D01*
X103382093Y-61642827D01*
X103572569Y-61690446D01*
X103715426Y-61690446D01*
X103905902Y-61642827D01*
X104001140Y-61595208D01*
X104096378Y-61499970D01*
X104143997Y-61357113D01*
X104143997Y-61119018D01*
X103239236Y-62071399D02*
X103191617Y-62119018D01*
X103143997Y-62214256D01*
X103143997Y-62452351D01*
X103191617Y-62547589D01*
X103239236Y-62595208D01*
X103334474Y-62642827D01*
X103429712Y-62642827D01*
X103572569Y-62595208D01*
X104143997Y-62023780D01*
X104143997Y-62642827D01*
X103239236Y-63023780D02*
X103191617Y-63071399D01*
X103143997Y-63166637D01*
X103143997Y-63404732D01*
X103191617Y-63499970D01*
X103239236Y-63547589D01*
X103334474Y-63595208D01*
X103429712Y-63595208D01*
X103572569Y-63547589D01*
X104143997Y-62976161D01*
X104143997Y-63595208D01*
%TO.C,D24*%
X138143981Y-61119018D02*
X137143981Y-61119018D01*
X137143981Y-61357113D01*
X137191601Y-61499970D01*
X137286839Y-61595208D01*
X137382077Y-61642827D01*
X137572553Y-61690446D01*
X137715410Y-61690446D01*
X137905886Y-61642827D01*
X138001124Y-61595208D01*
X138096362Y-61499970D01*
X138143981Y-61357113D01*
X138143981Y-61119018D01*
X137239220Y-62071399D02*
X137191601Y-62119018D01*
X137143981Y-62214256D01*
X137143981Y-62452351D01*
X137191601Y-62547589D01*
X137239220Y-62595208D01*
X137334458Y-62642827D01*
X137429696Y-62642827D01*
X137572553Y-62595208D01*
X138143981Y-62023780D01*
X138143981Y-62642827D01*
X137477315Y-63499970D02*
X138143981Y-63499970D01*
X137096362Y-63261875D02*
X137810648Y-63023780D01*
X137810648Y-63642827D01*
%TO.C,C4*%
X118190633Y-37154931D02*
X118257976Y-37154931D01*
X118392663Y-37087587D01*
X118460007Y-37020244D01*
X118527350Y-36885556D01*
X118527350Y-36750869D01*
X118493679Y-36649854D01*
X118392663Y-36481495D01*
X118291648Y-36380480D01*
X118123289Y-36279465D01*
X118022274Y-36245793D01*
X117887587Y-36245793D01*
X117752900Y-36313137D01*
X117685556Y-36380480D01*
X117618213Y-36515167D01*
X117618213Y-36582511D01*
X117180480Y-37356961D02*
X117651885Y-37828366D01*
X117079465Y-36919228D02*
X117752900Y-37255946D01*
X117315167Y-37693679D01*
%TO.C,U1*%
X107951548Y-30374088D02*
X108523968Y-30946508D01*
X108557640Y-31047523D01*
X108557640Y-31114867D01*
X108523968Y-31215882D01*
X108389281Y-31350569D01*
X108288266Y-31384241D01*
X108220922Y-31384241D01*
X108119907Y-31350569D01*
X107547487Y-30778149D01*
X107547487Y-32192363D02*
X107951548Y-31788302D01*
X107749518Y-31990332D02*
X107042411Y-31283226D01*
X107210770Y-31316897D01*
X107345457Y-31316897D01*
X107446472Y-31283226D01*
%TO.C,D27*%
X189143957Y-61119018D02*
X188143957Y-61119018D01*
X188143957Y-61357113D01*
X188191577Y-61499970D01*
X188286815Y-61595208D01*
X188382053Y-61642827D01*
X188572529Y-61690446D01*
X188715386Y-61690446D01*
X188905862Y-61642827D01*
X189001100Y-61595208D01*
X189096338Y-61499970D01*
X189143957Y-61357113D01*
X189143957Y-61119018D01*
X188239196Y-62071399D02*
X188191577Y-62119018D01*
X188143957Y-62214256D01*
X188143957Y-62452351D01*
X188191577Y-62547589D01*
X188239196Y-62595208D01*
X188334434Y-62642827D01*
X188429672Y-62642827D01*
X188572529Y-62595208D01*
X189143957Y-62023780D01*
X189143957Y-62642827D01*
X188143957Y-62976161D02*
X188143957Y-63642827D01*
X189143957Y-63214256D01*
%TO.C,D4*%
X138143981Y-27595224D02*
X137143981Y-27595224D01*
X137143981Y-27833320D01*
X137191601Y-27976177D01*
X137286839Y-28071415D01*
X137382077Y-28119034D01*
X137572553Y-28166653D01*
X137715410Y-28166653D01*
X137905886Y-28119034D01*
X138001124Y-28071415D01*
X138096362Y-27976177D01*
X138143981Y-27833320D01*
X138143981Y-27595224D01*
X137477315Y-29023796D02*
X138143981Y-29023796D01*
X137096362Y-28785700D02*
X137810648Y-28547605D01*
X137810648Y-29166653D01*
%TO.C,D40*%
X240143933Y-78119010D02*
X239143933Y-78119010D01*
X239143933Y-78357105D01*
X239191553Y-78499962D01*
X239286791Y-78595200D01*
X239382029Y-78642819D01*
X239572505Y-78690438D01*
X239715362Y-78690438D01*
X239905838Y-78642819D01*
X240001076Y-78595200D01*
X240096314Y-78499962D01*
X240143933Y-78357105D01*
X240143933Y-78119010D01*
X239477267Y-79547581D02*
X240143933Y-79547581D01*
X239096314Y-79309486D02*
X239810600Y-79071391D01*
X239810600Y-79690438D01*
X239143933Y-80261867D02*
X239143933Y-80357105D01*
X239191553Y-80452343D01*
X239239172Y-80499962D01*
X239334410Y-80547581D01*
X239524886Y-80595200D01*
X239762981Y-80595200D01*
X239953457Y-80547581D01*
X240048695Y-80499962D01*
X240096314Y-80452343D01*
X240143933Y-80357105D01*
X240143933Y-80261867D01*
X240096314Y-80166629D01*
X240048695Y-80119010D01*
X239953457Y-80071391D01*
X239762981Y-80023772D01*
X239524886Y-80023772D01*
X239334410Y-80071391D01*
X239239172Y-80119010D01*
X239191553Y-80166629D01*
X239143933Y-80261867D01*
%TO.C,D29*%
X223143941Y-61119018D02*
X222143941Y-61119018D01*
X222143941Y-61357113D01*
X222191561Y-61499970D01*
X222286799Y-61595208D01*
X222382037Y-61642827D01*
X222572513Y-61690446D01*
X222715370Y-61690446D01*
X222905846Y-61642827D01*
X223001084Y-61595208D01*
X223096322Y-61499970D01*
X223143941Y-61357113D01*
X223143941Y-61119018D01*
X222239180Y-62071399D02*
X222191561Y-62119018D01*
X222143941Y-62214256D01*
X222143941Y-62452351D01*
X222191561Y-62547589D01*
X222239180Y-62595208D01*
X222334418Y-62642827D01*
X222429656Y-62642827D01*
X222572513Y-62595208D01*
X223143941Y-62023780D01*
X223143941Y-62642827D01*
X223143941Y-63119018D02*
X223143941Y-63309494D01*
X223096322Y-63404732D01*
X223048703Y-63452351D01*
X222905846Y-63547589D01*
X222715370Y-63595208D01*
X222334418Y-63595208D01*
X222239180Y-63547589D01*
X222191561Y-63499970D01*
X222143941Y-63404732D01*
X222143941Y-63214256D01*
X222191561Y-63119018D01*
X222239180Y-63071399D01*
X222334418Y-63023780D01*
X222572513Y-63023780D01*
X222667751Y-63071399D01*
X222715370Y-63119018D01*
X222762989Y-63214256D01*
X222762989Y-63404732D01*
X222715370Y-63499970D01*
X222667751Y-63547589D01*
X222572513Y-63595208D01*
%TO.C,D28*%
X206143949Y-61119018D02*
X205143949Y-61119018D01*
X205143949Y-61357113D01*
X205191569Y-61499970D01*
X205286807Y-61595208D01*
X205382045Y-61642827D01*
X205572521Y-61690446D01*
X205715378Y-61690446D01*
X205905854Y-61642827D01*
X206001092Y-61595208D01*
X206096330Y-61499970D01*
X206143949Y-61357113D01*
X206143949Y-61119018D01*
X205239188Y-62071399D02*
X205191569Y-62119018D01*
X205143949Y-62214256D01*
X205143949Y-62452351D01*
X205191569Y-62547589D01*
X205239188Y-62595208D01*
X205334426Y-62642827D01*
X205429664Y-62642827D01*
X205572521Y-62595208D01*
X206143949Y-62023780D01*
X206143949Y-62642827D01*
X205572521Y-63214256D02*
X205524902Y-63119018D01*
X205477283Y-63071399D01*
X205382045Y-63023780D01*
X205334426Y-63023780D01*
X205239188Y-63071399D01*
X205191569Y-63119018D01*
X205143949Y-63214256D01*
X205143949Y-63404732D01*
X205191569Y-63499970D01*
X205239188Y-63547589D01*
X205334426Y-63595208D01*
X205382045Y-63595208D01*
X205477283Y-63547589D01*
X205524902Y-63499970D01*
X205572521Y-63404732D01*
X205572521Y-63214256D01*
X205620140Y-63119018D01*
X205667759Y-63071399D01*
X205762997Y-63023780D01*
X205953473Y-63023780D01*
X206048711Y-63071399D01*
X206096330Y-63119018D01*
X206143949Y-63214256D01*
X206143949Y-63404732D01*
X206096330Y-63499970D01*
X206048711Y-63547589D01*
X205953473Y-63595208D01*
X205762997Y-63595208D01*
X205667759Y-63547589D01*
X205620140Y-63499970D01*
X205572521Y-63404732D01*
%TO.C,D33*%
X121143989Y-78119010D02*
X120143989Y-78119010D01*
X120143989Y-78357105D01*
X120191609Y-78499962D01*
X120286847Y-78595200D01*
X120382085Y-78642819D01*
X120572561Y-78690438D01*
X120715418Y-78690438D01*
X120905894Y-78642819D01*
X121001132Y-78595200D01*
X121096370Y-78499962D01*
X121143989Y-78357105D01*
X121143989Y-78119010D01*
X120143989Y-79023772D02*
X120143989Y-79642819D01*
X120524942Y-79309486D01*
X120524942Y-79452343D01*
X120572561Y-79547581D01*
X120620180Y-79595200D01*
X120715418Y-79642819D01*
X120953513Y-79642819D01*
X121048751Y-79595200D01*
X121096370Y-79547581D01*
X121143989Y-79452343D01*
X121143989Y-79166629D01*
X121096370Y-79071391D01*
X121048751Y-79023772D01*
X120143989Y-79976153D02*
X120143989Y-80595200D01*
X120524942Y-80261867D01*
X120524942Y-80404724D01*
X120572561Y-80499962D01*
X120620180Y-80547581D01*
X120715418Y-80595200D01*
X120953513Y-80595200D01*
X121048751Y-80547581D01*
X121096370Y-80499962D01*
X121143989Y-80404724D01*
X121143989Y-80119010D01*
X121096370Y-80023772D01*
X121048751Y-79976153D01*
%TO.C,D15*%
X155143973Y-44119026D02*
X154143973Y-44119026D01*
X154143973Y-44357121D01*
X154191593Y-44499978D01*
X154286831Y-44595216D01*
X154382069Y-44642835D01*
X154572545Y-44690454D01*
X154715402Y-44690454D01*
X154905878Y-44642835D01*
X155001116Y-44595216D01*
X155096354Y-44499978D01*
X155143973Y-44357121D01*
X155143973Y-44119026D01*
X155143973Y-45642835D02*
X155143973Y-45071407D01*
X155143973Y-45357121D02*
X154143973Y-45357121D01*
X154286831Y-45261883D01*
X154382069Y-45166645D01*
X154429688Y-45071407D01*
X154143973Y-46547597D02*
X154143973Y-46071407D01*
X154620164Y-46023788D01*
X154572545Y-46071407D01*
X154524926Y-46166645D01*
X154524926Y-46404740D01*
X154572545Y-46499978D01*
X154620164Y-46547597D01*
X154715402Y-46595216D01*
X154953497Y-46595216D01*
X155048735Y-46547597D01*
X155096354Y-46499978D01*
X155143973Y-46404740D01*
X155143973Y-46166645D01*
X155096354Y-46071407D01*
X155048735Y-46023788D01*
%TO.C,D9*%
X223143941Y-27595224D02*
X222143941Y-27595224D01*
X222143941Y-27833320D01*
X222191561Y-27976177D01*
X222286799Y-28071415D01*
X222382037Y-28119034D01*
X222572513Y-28166653D01*
X222715370Y-28166653D01*
X222905846Y-28119034D01*
X223001084Y-28071415D01*
X223096322Y-27976177D01*
X223143941Y-27833320D01*
X223143941Y-27595224D01*
X223143941Y-28642843D02*
X223143941Y-28833320D01*
X223096322Y-28928558D01*
X223048703Y-28976177D01*
X222905846Y-29071415D01*
X222715370Y-29119034D01*
X222334418Y-29119034D01*
X222239180Y-29071415D01*
X222191561Y-29023796D01*
X222143941Y-28928558D01*
X222143941Y-28738081D01*
X222191561Y-28642843D01*
X222239180Y-28595224D01*
X222334418Y-28547605D01*
X222572513Y-28547605D01*
X222667751Y-28595224D01*
X222715370Y-28642843D01*
X222762989Y-28738081D01*
X222762989Y-28928558D01*
X222715370Y-29023796D01*
X222667751Y-29071415D01*
X222572513Y-29119034D01*
%TO.C,D21*%
X87144005Y-61119018D02*
X86144005Y-61119018D01*
X86144005Y-61357113D01*
X86191625Y-61499970D01*
X86286863Y-61595208D01*
X86382101Y-61642827D01*
X86572577Y-61690446D01*
X86715434Y-61690446D01*
X86905910Y-61642827D01*
X87001148Y-61595208D01*
X87096386Y-61499970D01*
X87144005Y-61357113D01*
X87144005Y-61119018D01*
X86239244Y-62071399D02*
X86191625Y-62119018D01*
X86144005Y-62214256D01*
X86144005Y-62452351D01*
X86191625Y-62547589D01*
X86239244Y-62595208D01*
X86334482Y-62642827D01*
X86429720Y-62642827D01*
X86572577Y-62595208D01*
X87144005Y-62023780D01*
X87144005Y-62642827D01*
X87144005Y-63595208D02*
X87144005Y-63023780D01*
X87144005Y-63309494D02*
X86144005Y-63309494D01*
X86286863Y-63214256D01*
X86382101Y-63119018D01*
X86429720Y-63023780D01*
%TO.C,C2*%
X120166666Y-35517142D02*
X120214285Y-35564761D01*
X120357142Y-35612380D01*
X120452380Y-35612380D01*
X120595238Y-35564761D01*
X120690476Y-35469523D01*
X120738095Y-35374285D01*
X120785714Y-35183809D01*
X120785714Y-35040952D01*
X120738095Y-34850476D01*
X120690476Y-34755238D01*
X120595238Y-34660000D01*
X120452380Y-34612380D01*
X120357142Y-34612380D01*
X120214285Y-34660000D01*
X120166666Y-34707619D01*
X119785714Y-34707619D02*
X119738095Y-34660000D01*
X119642857Y-34612380D01*
X119404761Y-34612380D01*
X119309523Y-34660000D01*
X119261904Y-34707619D01*
X119214285Y-34802857D01*
X119214285Y-34898095D01*
X119261904Y-35040952D01*
X119833333Y-35612380D01*
X119214285Y-35612380D01*
%TO.C,Y1*%
X122176190Y-36273809D02*
X122652380Y-36273809D01*
X121652380Y-35940476D02*
X122176190Y-36273809D01*
X121652380Y-36607142D01*
X122652380Y-37464285D02*
X122652380Y-36892857D01*
X122652380Y-37178571D02*
X121652380Y-37178571D01*
X121795238Y-37083333D01*
X121890476Y-36988095D01*
X121938095Y-36892857D01*
%TO.C,D32*%
X104143997Y-78119010D02*
X103143997Y-78119010D01*
X103143997Y-78357105D01*
X103191617Y-78499962D01*
X103286855Y-78595200D01*
X103382093Y-78642819D01*
X103572569Y-78690438D01*
X103715426Y-78690438D01*
X103905902Y-78642819D01*
X104001140Y-78595200D01*
X104096378Y-78499962D01*
X104143997Y-78357105D01*
X104143997Y-78119010D01*
X103143997Y-79023772D02*
X103143997Y-79642819D01*
X103524950Y-79309486D01*
X103524950Y-79452343D01*
X103572569Y-79547581D01*
X103620188Y-79595200D01*
X103715426Y-79642819D01*
X103953521Y-79642819D01*
X104048759Y-79595200D01*
X104096378Y-79547581D01*
X104143997Y-79452343D01*
X104143997Y-79166629D01*
X104096378Y-79071391D01*
X104048759Y-79023772D01*
X103239236Y-80023772D02*
X103191617Y-80071391D01*
X103143997Y-80166629D01*
X103143997Y-80404724D01*
X103191617Y-80499962D01*
X103239236Y-80547581D01*
X103334474Y-80595200D01*
X103429712Y-80595200D01*
X103572569Y-80547581D01*
X104143997Y-79976153D01*
X104143997Y-80595200D01*
%TO.C,R5*%
X112282380Y-23583333D02*
X111806190Y-23250000D01*
X112282380Y-23011904D02*
X111282380Y-23011904D01*
X111282380Y-23392857D01*
X111330000Y-23488095D01*
X111377619Y-23535714D01*
X111472857Y-23583333D01*
X111615714Y-23583333D01*
X111710952Y-23535714D01*
X111758571Y-23488095D01*
X111806190Y-23392857D01*
X111806190Y-23011904D01*
X111282380Y-24488095D02*
X111282380Y-24011904D01*
X111758571Y-23964285D01*
X111710952Y-24011904D01*
X111663333Y-24107142D01*
X111663333Y-24345238D01*
X111710952Y-24440476D01*
X111758571Y-24488095D01*
X111853809Y-24535714D01*
X112091904Y-24535714D01*
X112187142Y-24488095D01*
X112234761Y-24440476D01*
X112282380Y-24345238D01*
X112282380Y-24107142D01*
X112234761Y-24011904D01*
X112187142Y-23964285D01*
%TO.C,D19*%
X223143941Y-44119026D02*
X222143941Y-44119026D01*
X222143941Y-44357121D01*
X222191561Y-44499978D01*
X222286799Y-44595216D01*
X222382037Y-44642835D01*
X222572513Y-44690454D01*
X222715370Y-44690454D01*
X222905846Y-44642835D01*
X223001084Y-44595216D01*
X223096322Y-44499978D01*
X223143941Y-44357121D01*
X223143941Y-44119026D01*
X223143941Y-45642835D02*
X223143941Y-45071407D01*
X223143941Y-45357121D02*
X222143941Y-45357121D01*
X222286799Y-45261883D01*
X222382037Y-45166645D01*
X222429656Y-45071407D01*
X223143941Y-46119026D02*
X223143941Y-46309502D01*
X223096322Y-46404740D01*
X223048703Y-46452359D01*
X222905846Y-46547597D01*
X222715370Y-46595216D01*
X222334418Y-46595216D01*
X222239180Y-46547597D01*
X222191561Y-46499978D01*
X222143941Y-46404740D01*
X222143941Y-46214264D01*
X222191561Y-46119026D01*
X222239180Y-46071407D01*
X222334418Y-46023788D01*
X222572513Y-46023788D01*
X222667751Y-46071407D01*
X222715370Y-46119026D01*
X222762989Y-46214264D01*
X222762989Y-46404740D01*
X222715370Y-46499978D01*
X222667751Y-46547597D01*
X222572513Y-46595216D01*
%TO.C,D10*%
X240143933Y-27119034D02*
X239143933Y-27119034D01*
X239143933Y-27357129D01*
X239191553Y-27499986D01*
X239286791Y-27595224D01*
X239382029Y-27642843D01*
X239572505Y-27690462D01*
X239715362Y-27690462D01*
X239905838Y-27642843D01*
X240001076Y-27595224D01*
X240096314Y-27499986D01*
X240143933Y-27357129D01*
X240143933Y-27119034D01*
X240143933Y-28642843D02*
X240143933Y-28071415D01*
X240143933Y-28357129D02*
X239143933Y-28357129D01*
X239286791Y-28261891D01*
X239382029Y-28166653D01*
X239429648Y-28071415D01*
X239143933Y-29261891D02*
X239143933Y-29357129D01*
X239191553Y-29452367D01*
X239239172Y-29499986D01*
X239334410Y-29547605D01*
X239524886Y-29595224D01*
X239762981Y-29595224D01*
X239953457Y-29547605D01*
X240048695Y-29499986D01*
X240096314Y-29452367D01*
X240143933Y-29357129D01*
X240143933Y-29261891D01*
X240096314Y-29166653D01*
X240048695Y-29119034D01*
X239953457Y-29071415D01*
X239762981Y-29023796D01*
X239524886Y-29023796D01*
X239334410Y-29071415D01*
X239239172Y-29119034D01*
X239191553Y-29166653D01*
X239143933Y-29261891D01*
%TO.C,D14*%
X138143981Y-44119026D02*
X137143981Y-44119026D01*
X137143981Y-44357121D01*
X137191601Y-44499978D01*
X137286839Y-44595216D01*
X137382077Y-44642835D01*
X137572553Y-44690454D01*
X137715410Y-44690454D01*
X137905886Y-44642835D01*
X138001124Y-44595216D01*
X138096362Y-44499978D01*
X138143981Y-44357121D01*
X138143981Y-44119026D01*
X138143981Y-45642835D02*
X138143981Y-45071407D01*
X138143981Y-45357121D02*
X137143981Y-45357121D01*
X137286839Y-45261883D01*
X137382077Y-45166645D01*
X137429696Y-45071407D01*
X137477315Y-46499978D02*
X138143981Y-46499978D01*
X137096362Y-46261883D02*
X137810648Y-46023788D01*
X137810648Y-46642835D01*
%TO.C,D6*%
X172143965Y-27595224D02*
X171143965Y-27595224D01*
X171143965Y-27833320D01*
X171191585Y-27976177D01*
X171286823Y-28071415D01*
X171382061Y-28119034D01*
X171572537Y-28166653D01*
X171715394Y-28166653D01*
X171905870Y-28119034D01*
X172001108Y-28071415D01*
X172096346Y-27976177D01*
X172143965Y-27833320D01*
X172143965Y-27595224D01*
X171143965Y-29023796D02*
X171143965Y-28833320D01*
X171191585Y-28738081D01*
X171239204Y-28690462D01*
X171382061Y-28595224D01*
X171572537Y-28547605D01*
X171953489Y-28547605D01*
X172048727Y-28595224D01*
X172096346Y-28642843D01*
X172143965Y-28738081D01*
X172143965Y-28928558D01*
X172096346Y-29023796D01*
X172048727Y-29071415D01*
X171953489Y-29119034D01*
X171715394Y-29119034D01*
X171620156Y-29071415D01*
X171572537Y-29023796D01*
X171524918Y-28928558D01*
X171524918Y-28738081D01*
X171572537Y-28642843D01*
X171620156Y-28595224D01*
X171715394Y-28547605D01*
%TO.C,C7*%
X108900145Y-29189443D02*
X108967488Y-29189443D01*
X109102175Y-29122099D01*
X109169519Y-29054755D01*
X109236862Y-28920068D01*
X109236862Y-28785381D01*
X109203191Y-28684366D01*
X109102175Y-28516007D01*
X109001160Y-28414992D01*
X108832801Y-28313977D01*
X108731786Y-28280305D01*
X108597099Y-28280305D01*
X108462412Y-28347649D01*
X108395068Y-28414992D01*
X108327725Y-28549679D01*
X108327725Y-28617023D01*
X108024679Y-28785381D02*
X107553275Y-29256786D01*
X108563427Y-29660847D01*
%TO.C,D18*%
X206143949Y-44119026D02*
X205143949Y-44119026D01*
X205143949Y-44357121D01*
X205191569Y-44499978D01*
X205286807Y-44595216D01*
X205382045Y-44642835D01*
X205572521Y-44690454D01*
X205715378Y-44690454D01*
X205905854Y-44642835D01*
X206001092Y-44595216D01*
X206096330Y-44499978D01*
X206143949Y-44357121D01*
X206143949Y-44119026D01*
X206143949Y-45642835D02*
X206143949Y-45071407D01*
X206143949Y-45357121D02*
X205143949Y-45357121D01*
X205286807Y-45261883D01*
X205382045Y-45166645D01*
X205429664Y-45071407D01*
X205572521Y-46214264D02*
X205524902Y-46119026D01*
X205477283Y-46071407D01*
X205382045Y-46023788D01*
X205334426Y-46023788D01*
X205239188Y-46071407D01*
X205191569Y-46119026D01*
X205143949Y-46214264D01*
X205143949Y-46404740D01*
X205191569Y-46499978D01*
X205239188Y-46547597D01*
X205334426Y-46595216D01*
X205382045Y-46595216D01*
X205477283Y-46547597D01*
X205524902Y-46499978D01*
X205572521Y-46404740D01*
X205572521Y-46214264D01*
X205620140Y-46119026D01*
X205667759Y-46071407D01*
X205762997Y-46023788D01*
X205953473Y-46023788D01*
X206048711Y-46071407D01*
X206096330Y-46119026D01*
X206143949Y-46214264D01*
X206143949Y-46404740D01*
X206096330Y-46499978D01*
X206048711Y-46547597D01*
X205953473Y-46595216D01*
X205762997Y-46595216D01*
X205667759Y-46547597D01*
X205620140Y-46499978D01*
X205572521Y-46404740D01*
%TO.C,R6*%
X104416666Y-34282380D02*
X104750000Y-33806190D01*
X104988095Y-34282380D02*
X104988095Y-33282380D01*
X104607142Y-33282380D01*
X104511904Y-33330000D01*
X104464285Y-33377619D01*
X104416666Y-33472857D01*
X104416666Y-33615714D01*
X104464285Y-33710952D01*
X104511904Y-33758571D01*
X104607142Y-33806190D01*
X104988095Y-33806190D01*
X103559523Y-33282380D02*
X103750000Y-33282380D01*
X103845238Y-33330000D01*
X103892857Y-33377619D01*
X103988095Y-33520476D01*
X104035714Y-33710952D01*
X104035714Y-34091904D01*
X103988095Y-34187142D01*
X103940476Y-34234761D01*
X103845238Y-34282380D01*
X103654761Y-34282380D01*
X103559523Y-34234761D01*
X103511904Y-34187142D01*
X103464285Y-34091904D01*
X103464285Y-33853809D01*
X103511904Y-33758571D01*
X103559523Y-33710952D01*
X103654761Y-33663333D01*
X103845238Y-33663333D01*
X103940476Y-33710952D01*
X103988095Y-33758571D01*
X104035714Y-33853809D01*
%TO.C,D16*%
X172143965Y-44119026D02*
X171143965Y-44119026D01*
X171143965Y-44357121D01*
X171191585Y-44499978D01*
X171286823Y-44595216D01*
X171382061Y-44642835D01*
X171572537Y-44690454D01*
X171715394Y-44690454D01*
X171905870Y-44642835D01*
X172001108Y-44595216D01*
X172096346Y-44499978D01*
X172143965Y-44357121D01*
X172143965Y-44119026D01*
X172143965Y-45642835D02*
X172143965Y-45071407D01*
X172143965Y-45357121D02*
X171143965Y-45357121D01*
X171286823Y-45261883D01*
X171382061Y-45166645D01*
X171429680Y-45071407D01*
X171143965Y-46499978D02*
X171143965Y-46309502D01*
X171191585Y-46214264D01*
X171239204Y-46166645D01*
X171382061Y-46071407D01*
X171572537Y-46023788D01*
X171953489Y-46023788D01*
X172048727Y-46071407D01*
X172096346Y-46119026D01*
X172143965Y-46214264D01*
X172143965Y-46404740D01*
X172096346Y-46499978D01*
X172048727Y-46547597D01*
X171953489Y-46595216D01*
X171715394Y-46595216D01*
X171620156Y-46547597D01*
X171572537Y-46499978D01*
X171524918Y-46404740D01*
X171524918Y-46214264D01*
X171572537Y-46119026D01*
X171620156Y-46071407D01*
X171715394Y-46023788D01*
%TO.C,D13*%
X121143989Y-44119026D02*
X120143989Y-44119026D01*
X120143989Y-44357121D01*
X120191609Y-44499978D01*
X120286847Y-44595216D01*
X120382085Y-44642835D01*
X120572561Y-44690454D01*
X120715418Y-44690454D01*
X120905894Y-44642835D01*
X121001132Y-44595216D01*
X121096370Y-44499978D01*
X121143989Y-44357121D01*
X121143989Y-44119026D01*
X121143989Y-45642835D02*
X121143989Y-45071407D01*
X121143989Y-45357121D02*
X120143989Y-45357121D01*
X120286847Y-45261883D01*
X120382085Y-45166645D01*
X120429704Y-45071407D01*
X120143989Y-45976169D02*
X120143989Y-46595216D01*
X120524942Y-46261883D01*
X120524942Y-46404740D01*
X120572561Y-46499978D01*
X120620180Y-46547597D01*
X120715418Y-46595216D01*
X120953513Y-46595216D01*
X121048751Y-46547597D01*
X121096370Y-46499978D01*
X121143989Y-46404740D01*
X121143989Y-46119026D01*
X121096370Y-46023788D01*
X121048751Y-45976169D01*
%TO.C,D25*%
X155143973Y-61119018D02*
X154143973Y-61119018D01*
X154143973Y-61357113D01*
X154191593Y-61499970D01*
X154286831Y-61595208D01*
X154382069Y-61642827D01*
X154572545Y-61690446D01*
X154715402Y-61690446D01*
X154905878Y-61642827D01*
X155001116Y-61595208D01*
X155096354Y-61499970D01*
X155143973Y-61357113D01*
X155143973Y-61119018D01*
X154239212Y-62071399D02*
X154191593Y-62119018D01*
X154143973Y-62214256D01*
X154143973Y-62452351D01*
X154191593Y-62547589D01*
X154239212Y-62595208D01*
X154334450Y-62642827D01*
X154429688Y-62642827D01*
X154572545Y-62595208D01*
X155143973Y-62023780D01*
X155143973Y-62642827D01*
X154143973Y-63547589D02*
X154143973Y-63071399D01*
X154620164Y-63023780D01*
X154572545Y-63071399D01*
X154524926Y-63166637D01*
X154524926Y-63404732D01*
X154572545Y-63499970D01*
X154620164Y-63547589D01*
X154715402Y-63595208D01*
X154953497Y-63595208D01*
X155048735Y-63547589D01*
X155096354Y-63499970D01*
X155143973Y-63404732D01*
X155143973Y-63166637D01*
X155096354Y-63071399D01*
X155048735Y-63023780D01*
%TO.C,B1*%
X134244761Y-31998571D02*
X134101904Y-32046190D01*
X134054285Y-32093809D01*
X134006666Y-32189047D01*
X134006666Y-32331904D01*
X134054285Y-32427142D01*
X134101904Y-32474761D01*
X134197142Y-32522380D01*
X134578095Y-32522380D01*
X134578095Y-31522380D01*
X134244761Y-31522380D01*
X134149523Y-31570000D01*
X134101904Y-31617619D01*
X134054285Y-31712857D01*
X134054285Y-31808095D01*
X134101904Y-31903333D01*
X134149523Y-31950952D01*
X134244761Y-31998571D01*
X134578095Y-31998571D01*
X133054285Y-32522380D02*
X133625714Y-32522380D01*
X133340000Y-32522380D02*
X133340000Y-31522380D01*
X133435238Y-31665238D01*
X133530476Y-31760476D01*
X133625714Y-31808095D01*
%TO.C,D26*%
X172143965Y-61119018D02*
X171143965Y-61119018D01*
X171143965Y-61357113D01*
X171191585Y-61499970D01*
X171286823Y-61595208D01*
X171382061Y-61642827D01*
X171572537Y-61690446D01*
X171715394Y-61690446D01*
X171905870Y-61642827D01*
X172001108Y-61595208D01*
X172096346Y-61499970D01*
X172143965Y-61357113D01*
X172143965Y-61119018D01*
X171239204Y-62071399D02*
X171191585Y-62119018D01*
X171143965Y-62214256D01*
X171143965Y-62452351D01*
X171191585Y-62547589D01*
X171239204Y-62595208D01*
X171334442Y-62642827D01*
X171429680Y-62642827D01*
X171572537Y-62595208D01*
X172143965Y-62023780D01*
X172143965Y-62642827D01*
X171143965Y-63499970D02*
X171143965Y-63309494D01*
X171191585Y-63214256D01*
X171239204Y-63166637D01*
X171382061Y-63071399D01*
X171572537Y-63023780D01*
X171953489Y-63023780D01*
X172048727Y-63071399D01*
X172096346Y-63119018D01*
X172143965Y-63214256D01*
X172143965Y-63404732D01*
X172096346Y-63499970D01*
X172048727Y-63547589D01*
X171953489Y-63595208D01*
X171715394Y-63595208D01*
X171620156Y-63547589D01*
X171572537Y-63499970D01*
X171524918Y-63404732D01*
X171524918Y-63214256D01*
X171572537Y-63119018D01*
X171620156Y-63071399D01*
X171715394Y-63023780D01*
%TO.C,D1*%
X87144005Y-27595224D02*
X86144005Y-27595224D01*
X86144005Y-27833320D01*
X86191625Y-27976177D01*
X86286863Y-28071415D01*
X86382101Y-28119034D01*
X86572577Y-28166653D01*
X86715434Y-28166653D01*
X86905910Y-28119034D01*
X87001148Y-28071415D01*
X87096386Y-27976177D01*
X87144005Y-27833320D01*
X87144005Y-27595224D01*
X87144005Y-29119034D02*
X87144005Y-28547605D01*
X87144005Y-28833320D02*
X86144005Y-28833320D01*
X86286863Y-28738081D01*
X86382101Y-28642843D01*
X86429720Y-28547605D01*
%TO.C,D3*%
X121143989Y-27595224D02*
X120143989Y-27595224D01*
X120143989Y-27833320D01*
X120191609Y-27976177D01*
X120286847Y-28071415D01*
X120382085Y-28119034D01*
X120572561Y-28166653D01*
X120715418Y-28166653D01*
X120905894Y-28119034D01*
X121001132Y-28071415D01*
X121096370Y-27976177D01*
X121143989Y-27833320D01*
X121143989Y-27595224D01*
X120143989Y-28499986D02*
X120143989Y-29119034D01*
X120524942Y-28785700D01*
X120524942Y-28928558D01*
X120572561Y-29023796D01*
X120620180Y-29071415D01*
X120715418Y-29119034D01*
X120953513Y-29119034D01*
X121048751Y-29071415D01*
X121096370Y-29023796D01*
X121143989Y-28928558D01*
X121143989Y-28642843D01*
X121096370Y-28547605D01*
X121048751Y-28499986D01*
%TO.C,C6*%
X109478281Y-41892123D02*
X109525900Y-41939742D01*
X109668757Y-41987361D01*
X109763995Y-41987361D01*
X109906853Y-41939742D01*
X110002091Y-41844504D01*
X110049710Y-41749266D01*
X110097329Y-41558790D01*
X110097329Y-41415933D01*
X110049710Y-41225457D01*
X110002091Y-41130219D01*
X109906853Y-41034981D01*
X109763995Y-40987361D01*
X109668757Y-40987361D01*
X109525900Y-41034981D01*
X109478281Y-41082600D01*
X108621138Y-40987361D02*
X108811615Y-40987361D01*
X108906853Y-41034981D01*
X108954472Y-41082600D01*
X109049710Y-41225457D01*
X109097329Y-41415933D01*
X109097329Y-41796885D01*
X109049710Y-41892123D01*
X109002091Y-41939742D01*
X108906853Y-41987361D01*
X108716376Y-41987361D01*
X108621138Y-41939742D01*
X108573519Y-41892123D01*
X108525900Y-41796885D01*
X108525900Y-41558790D01*
X108573519Y-41463552D01*
X108621138Y-41415933D01*
X108716376Y-41368314D01*
X108906853Y-41368314D01*
X109002091Y-41415933D01*
X109049710Y-41463552D01*
X109097329Y-41558790D01*
%TO.C,D7*%
X189143957Y-27595224D02*
X188143957Y-27595224D01*
X188143957Y-27833320D01*
X188191577Y-27976177D01*
X188286815Y-28071415D01*
X188382053Y-28119034D01*
X188572529Y-28166653D01*
X188715386Y-28166653D01*
X188905862Y-28119034D01*
X189001100Y-28071415D01*
X189096338Y-27976177D01*
X189143957Y-27833320D01*
X189143957Y-27595224D01*
X188143957Y-28499986D02*
X188143957Y-29166653D01*
X189143957Y-28738081D01*
%TO.C,R3*%
X117666666Y-22622380D02*
X118000000Y-22146190D01*
X118238095Y-22622380D02*
X118238095Y-21622380D01*
X117857142Y-21622380D01*
X117761904Y-21670000D01*
X117714285Y-21717619D01*
X117666666Y-21812857D01*
X117666666Y-21955714D01*
X117714285Y-22050952D01*
X117761904Y-22098571D01*
X117857142Y-22146190D01*
X118238095Y-22146190D01*
X117333333Y-21622380D02*
X116714285Y-21622380D01*
X117047619Y-22003333D01*
X116904761Y-22003333D01*
X116809523Y-22050952D01*
X116761904Y-22098571D01*
X116714285Y-22193809D01*
X116714285Y-22431904D01*
X116761904Y-22527142D01*
X116809523Y-22574761D01*
X116904761Y-22622380D01*
X117190476Y-22622380D01*
X117285714Y-22574761D01*
X117333333Y-22527142D01*
%TO.C,D23*%
X121143989Y-61119018D02*
X120143989Y-61119018D01*
X120143989Y-61357113D01*
X120191609Y-61499970D01*
X120286847Y-61595208D01*
X120382085Y-61642827D01*
X120572561Y-61690446D01*
X120715418Y-61690446D01*
X120905894Y-61642827D01*
X121001132Y-61595208D01*
X121096370Y-61499970D01*
X121143989Y-61357113D01*
X121143989Y-61119018D01*
X120239228Y-62071399D02*
X120191609Y-62119018D01*
X120143989Y-62214256D01*
X120143989Y-62452351D01*
X120191609Y-62547589D01*
X120239228Y-62595208D01*
X120334466Y-62642827D01*
X120429704Y-62642827D01*
X120572561Y-62595208D01*
X121143989Y-62023780D01*
X121143989Y-62642827D01*
X120143989Y-62976161D02*
X120143989Y-63595208D01*
X120524942Y-63261875D01*
X120524942Y-63404732D01*
X120572561Y-63499970D01*
X120620180Y-63547589D01*
X120715418Y-63595208D01*
X120953513Y-63595208D01*
X121048751Y-63547589D01*
X121096370Y-63499970D01*
X121143989Y-63404732D01*
X121143989Y-63119018D01*
X121096370Y-63023780D01*
X121048751Y-62976161D01*
%TO.C,C1*%
X120416666Y-38697142D02*
X120464285Y-38744761D01*
X120607142Y-38792380D01*
X120702380Y-38792380D01*
X120845238Y-38744761D01*
X120940476Y-38649523D01*
X120988095Y-38554285D01*
X121035714Y-38363809D01*
X121035714Y-38220952D01*
X120988095Y-38030476D01*
X120940476Y-37935238D01*
X120845238Y-37840000D01*
X120702380Y-37792380D01*
X120607142Y-37792380D01*
X120464285Y-37840000D01*
X120416666Y-37887619D01*
X119464285Y-38792380D02*
X120035714Y-38792380D01*
X119750000Y-38792380D02*
X119750000Y-37792380D01*
X119845238Y-37935238D01*
X119940476Y-38030476D01*
X120035714Y-38078095D01*
%TO.C,D17*%
X189143957Y-44119026D02*
X188143957Y-44119026D01*
X188143957Y-44357121D01*
X188191577Y-44499978D01*
X188286815Y-44595216D01*
X188382053Y-44642835D01*
X188572529Y-44690454D01*
X188715386Y-44690454D01*
X188905862Y-44642835D01*
X189001100Y-44595216D01*
X189096338Y-44499978D01*
X189143957Y-44357121D01*
X189143957Y-44119026D01*
X189143957Y-45642835D02*
X189143957Y-45071407D01*
X189143957Y-45357121D02*
X188143957Y-45357121D01*
X188286815Y-45261883D01*
X188382053Y-45166645D01*
X188429672Y-45071407D01*
X188143957Y-45976169D02*
X188143957Y-46642835D01*
X189143957Y-46214264D01*
%TO.C,J1*%
X111541614Y-22167372D02*
X111541614Y-22881658D01*
X111589233Y-23024515D01*
X111684471Y-23119753D01*
X111827328Y-23167372D01*
X111922566Y-23167372D01*
X110541614Y-23167372D02*
X111113042Y-23167372D01*
X110827328Y-23167372D02*
X110827328Y-22167372D01*
X110922566Y-22310230D01*
X111017804Y-22405468D01*
X111113042Y-22453087D01*
%TO.C,D12*%
X104143997Y-44119026D02*
X103143997Y-44119026D01*
X103143997Y-44357121D01*
X103191617Y-44499978D01*
X103286855Y-44595216D01*
X103382093Y-44642835D01*
X103572569Y-44690454D01*
X103715426Y-44690454D01*
X103905902Y-44642835D01*
X104001140Y-44595216D01*
X104096378Y-44499978D01*
X104143997Y-44357121D01*
X104143997Y-44119026D01*
X104143997Y-45642835D02*
X104143997Y-45071407D01*
X104143997Y-45357121D02*
X103143997Y-45357121D01*
X103286855Y-45261883D01*
X103382093Y-45166645D01*
X103429712Y-45071407D01*
X103239236Y-46023788D02*
X103191617Y-46071407D01*
X103143997Y-46166645D01*
X103143997Y-46404740D01*
X103191617Y-46499978D01*
X103239236Y-46547597D01*
X103334474Y-46595216D01*
X103429712Y-46595216D01*
X103572569Y-46547597D01*
X104143997Y-45976169D01*
X104143997Y-46595216D01*
%TO.C,D5*%
X155143973Y-27595224D02*
X154143973Y-27595224D01*
X154143973Y-27833320D01*
X154191593Y-27976177D01*
X154286831Y-28071415D01*
X154382069Y-28119034D01*
X154572545Y-28166653D01*
X154715402Y-28166653D01*
X154905878Y-28119034D01*
X155001116Y-28071415D01*
X155096354Y-27976177D01*
X155143973Y-27833320D01*
X155143973Y-27595224D01*
X154143973Y-29071415D02*
X154143973Y-28595224D01*
X154620164Y-28547605D01*
X154572545Y-28595224D01*
X154524926Y-28690462D01*
X154524926Y-28928558D01*
X154572545Y-29023796D01*
X154620164Y-29071415D01*
X154715402Y-29119034D01*
X154953497Y-29119034D01*
X155048735Y-29071415D01*
X155096354Y-29023796D01*
X155143973Y-28928558D01*
X155143973Y-28690462D01*
X155096354Y-28595224D01*
X155048735Y-28547605D01*
%TO.C,D37*%
X189143957Y-78119010D02*
X188143957Y-78119010D01*
X188143957Y-78357105D01*
X188191577Y-78499962D01*
X188286815Y-78595200D01*
X188382053Y-78642819D01*
X188572529Y-78690438D01*
X188715386Y-78690438D01*
X188905862Y-78642819D01*
X189001100Y-78595200D01*
X189096338Y-78499962D01*
X189143957Y-78357105D01*
X189143957Y-78119010D01*
X188143957Y-79023772D02*
X188143957Y-79642819D01*
X188524910Y-79309486D01*
X188524910Y-79452343D01*
X188572529Y-79547581D01*
X188620148Y-79595200D01*
X188715386Y-79642819D01*
X188953481Y-79642819D01*
X189048719Y-79595200D01*
X189096338Y-79547581D01*
X189143957Y-79452343D01*
X189143957Y-79166629D01*
X189096338Y-79071391D01*
X189048719Y-79023772D01*
X188143957Y-79976153D02*
X188143957Y-80642819D01*
X189143957Y-80214248D01*
%TO.C,D36*%
X172143965Y-78119010D02*
X171143965Y-78119010D01*
X171143965Y-78357105D01*
X171191585Y-78499962D01*
X171286823Y-78595200D01*
X171382061Y-78642819D01*
X171572537Y-78690438D01*
X171715394Y-78690438D01*
X171905870Y-78642819D01*
X172001108Y-78595200D01*
X172096346Y-78499962D01*
X172143965Y-78357105D01*
X172143965Y-78119010D01*
X171143965Y-79023772D02*
X171143965Y-79642819D01*
X171524918Y-79309486D01*
X171524918Y-79452343D01*
X171572537Y-79547581D01*
X171620156Y-79595200D01*
X171715394Y-79642819D01*
X171953489Y-79642819D01*
X172048727Y-79595200D01*
X172096346Y-79547581D01*
X172143965Y-79452343D01*
X172143965Y-79166629D01*
X172096346Y-79071391D01*
X172048727Y-79023772D01*
X171143965Y-80499962D02*
X171143965Y-80309486D01*
X171191585Y-80214248D01*
X171239204Y-80166629D01*
X171382061Y-80071391D01*
X171572537Y-80023772D01*
X171953489Y-80023772D01*
X172048727Y-80071391D01*
X172096346Y-80119010D01*
X172143965Y-80214248D01*
X172143965Y-80404724D01*
X172096346Y-80499962D01*
X172048727Y-80547581D01*
X171953489Y-80595200D01*
X171715394Y-80595200D01*
X171620156Y-80547581D01*
X171572537Y-80499962D01*
X171524918Y-80404724D01*
X171524918Y-80214248D01*
X171572537Y-80119010D01*
X171620156Y-80071391D01*
X171715394Y-80023772D01*
%TO.C,F1*%
X101108571Y-23666666D02*
X101108571Y-23333333D01*
X101632380Y-23333333D02*
X100632380Y-23333333D01*
X100632380Y-23809523D01*
X101632380Y-24714285D02*
X101632380Y-24142857D01*
X101632380Y-24428571D02*
X100632380Y-24428571D01*
X100775238Y-24333333D01*
X100870476Y-24238095D01*
X100918095Y-24142857D01*
%TO.C,C3*%
X116794443Y-32769854D02*
X116794443Y-32702511D01*
X116727099Y-32567824D01*
X116659756Y-32500480D01*
X116525068Y-32433137D01*
X116390381Y-32433137D01*
X116289366Y-32466808D01*
X116121007Y-32567824D01*
X116019992Y-32668839D01*
X115918977Y-32837198D01*
X115885305Y-32938213D01*
X115885305Y-33072900D01*
X115952649Y-33207587D01*
X116019992Y-33274931D01*
X116154679Y-33342274D01*
X116222023Y-33342274D01*
X116390381Y-33645320D02*
X116828114Y-34083053D01*
X116861786Y-33577976D01*
X116962801Y-33678992D01*
X117063817Y-33712663D01*
X117131160Y-33712663D01*
X117232175Y-33678992D01*
X117400534Y-33510633D01*
X117434206Y-33409618D01*
X117434206Y-33342274D01*
X117400534Y-33241259D01*
X117198504Y-33039228D01*
X117097488Y-33005556D01*
X117030145Y-33005556D01*
%TO.C,R2*%
X107032380Y-22823333D02*
X106556190Y-22490000D01*
X107032380Y-22251904D02*
X106032380Y-22251904D01*
X106032380Y-22632857D01*
X106080000Y-22728095D01*
X106127619Y-22775714D01*
X106222857Y-22823333D01*
X106365714Y-22823333D01*
X106460952Y-22775714D01*
X106508571Y-22728095D01*
X106556190Y-22632857D01*
X106556190Y-22251904D01*
X106127619Y-23204285D02*
X106080000Y-23251904D01*
X106032380Y-23347142D01*
X106032380Y-23585238D01*
X106080000Y-23680476D01*
X106127619Y-23728095D01*
X106222857Y-23775714D01*
X106318095Y-23775714D01*
X106460952Y-23728095D01*
X107032380Y-23156666D01*
X107032380Y-23775714D01*
%TO.C,D39*%
X223143941Y-78119010D02*
X222143941Y-78119010D01*
X222143941Y-78357105D01*
X222191561Y-78499962D01*
X222286799Y-78595200D01*
X222382037Y-78642819D01*
X222572513Y-78690438D01*
X222715370Y-78690438D01*
X222905846Y-78642819D01*
X223001084Y-78595200D01*
X223096322Y-78499962D01*
X223143941Y-78357105D01*
X223143941Y-78119010D01*
X222143941Y-79023772D02*
X222143941Y-79642819D01*
X222524894Y-79309486D01*
X222524894Y-79452343D01*
X222572513Y-79547581D01*
X222620132Y-79595200D01*
X222715370Y-79642819D01*
X222953465Y-79642819D01*
X223048703Y-79595200D01*
X223096322Y-79547581D01*
X223143941Y-79452343D01*
X223143941Y-79166629D01*
X223096322Y-79071391D01*
X223048703Y-79023772D01*
X223143941Y-80119010D02*
X223143941Y-80309486D01*
X223096322Y-80404724D01*
X223048703Y-80452343D01*
X222905846Y-80547581D01*
X222715370Y-80595200D01*
X222334418Y-80595200D01*
X222239180Y-80547581D01*
X222191561Y-80499962D01*
X222143941Y-80404724D01*
X222143941Y-80214248D01*
X222191561Y-80119010D01*
X222239180Y-80071391D01*
X222334418Y-80023772D01*
X222572513Y-80023772D01*
X222667751Y-80071391D01*
X222715370Y-80119010D01*
X222762989Y-80214248D01*
X222762989Y-80404724D01*
X222715370Y-80499962D01*
X222667751Y-80547581D01*
X222572513Y-80595200D01*
%TO.C,R1*%
X128232380Y-35443333D02*
X127756190Y-35110000D01*
X128232380Y-34871904D02*
X127232380Y-34871904D01*
X127232380Y-35252857D01*
X127280000Y-35348095D01*
X127327619Y-35395714D01*
X127422857Y-35443333D01*
X127565714Y-35443333D01*
X127660952Y-35395714D01*
X127708571Y-35348095D01*
X127756190Y-35252857D01*
X127756190Y-34871904D01*
X128232380Y-36395714D02*
X128232380Y-35824285D01*
X128232380Y-36110000D02*
X127232380Y-36110000D01*
X127375238Y-36014761D01*
X127470476Y-35919523D01*
X127518095Y-35824285D01*
%TO.C,D20*%
X240143933Y-44119026D02*
X239143933Y-44119026D01*
X239143933Y-44357121D01*
X239191553Y-44499978D01*
X239286791Y-44595216D01*
X239382029Y-44642835D01*
X239572505Y-44690454D01*
X239715362Y-44690454D01*
X239905838Y-44642835D01*
X240001076Y-44595216D01*
X240096314Y-44499978D01*
X240143933Y-44357121D01*
X240143933Y-44119026D01*
X239239172Y-45071407D02*
X239191553Y-45119026D01*
X239143933Y-45214264D01*
X239143933Y-45452359D01*
X239191553Y-45547597D01*
X239239172Y-45595216D01*
X239334410Y-45642835D01*
X239429648Y-45642835D01*
X239572505Y-45595216D01*
X240143933Y-45023788D01*
X240143933Y-45642835D01*
X239143933Y-46261883D02*
X239143933Y-46357121D01*
X239191553Y-46452359D01*
X239239172Y-46499978D01*
X239334410Y-46547597D01*
X239524886Y-46595216D01*
X239762981Y-46595216D01*
X239953457Y-46547597D01*
X240048695Y-46499978D01*
X240096314Y-46452359D01*
X240143933Y-46357121D01*
X240143933Y-46261883D01*
X240096314Y-46166645D01*
X240048695Y-46119026D01*
X239953457Y-46071407D01*
X239762981Y-46023788D01*
X239524886Y-46023788D01*
X239334410Y-46071407D01*
X239239172Y-46119026D01*
X239191553Y-46166645D01*
X239143933Y-46261883D01*
%TO.C,D38*%
X206143949Y-78119010D02*
X205143949Y-78119010D01*
X205143949Y-78357105D01*
X205191569Y-78499962D01*
X205286807Y-78595200D01*
X205382045Y-78642819D01*
X205572521Y-78690438D01*
X205715378Y-78690438D01*
X205905854Y-78642819D01*
X206001092Y-78595200D01*
X206096330Y-78499962D01*
X206143949Y-78357105D01*
X206143949Y-78119010D01*
X205143949Y-79023772D02*
X205143949Y-79642819D01*
X205524902Y-79309486D01*
X205524902Y-79452343D01*
X205572521Y-79547581D01*
X205620140Y-79595200D01*
X205715378Y-79642819D01*
X205953473Y-79642819D01*
X206048711Y-79595200D01*
X206096330Y-79547581D01*
X206143949Y-79452343D01*
X206143949Y-79166629D01*
X206096330Y-79071391D01*
X206048711Y-79023772D01*
X205572521Y-80214248D02*
X205524902Y-80119010D01*
X205477283Y-80071391D01*
X205382045Y-80023772D01*
X205334426Y-80023772D01*
X205239188Y-80071391D01*
X205191569Y-80119010D01*
X205143949Y-80214248D01*
X205143949Y-80404724D01*
X205191569Y-80499962D01*
X205239188Y-80547581D01*
X205334426Y-80595200D01*
X205382045Y-80595200D01*
X205477283Y-80547581D01*
X205524902Y-80499962D01*
X205572521Y-80404724D01*
X205572521Y-80214248D01*
X205620140Y-80119010D01*
X205667759Y-80071391D01*
X205762997Y-80023772D01*
X205953473Y-80023772D01*
X206048711Y-80071391D01*
X206096330Y-80119010D01*
X206143949Y-80214248D01*
X206143949Y-80404724D01*
X206096330Y-80499962D01*
X206048711Y-80547581D01*
X205953473Y-80595200D01*
X205762997Y-80595200D01*
X205667759Y-80547581D01*
X205620140Y-80499962D01*
X205572521Y-80404724D01*
%TO.C,D2*%
X104143997Y-27595224D02*
X103143997Y-27595224D01*
X103143997Y-27833320D01*
X103191617Y-27976177D01*
X103286855Y-28071415D01*
X103382093Y-28119034D01*
X103572569Y-28166653D01*
X103715426Y-28166653D01*
X103905902Y-28119034D01*
X104001140Y-28071415D01*
X104096378Y-27976177D01*
X104143997Y-27833320D01*
X104143997Y-27595224D01*
X103239236Y-28547605D02*
X103191617Y-28595224D01*
X103143997Y-28690462D01*
X103143997Y-28928558D01*
X103191617Y-29023796D01*
X103239236Y-29071415D01*
X103334474Y-29119034D01*
X103429712Y-29119034D01*
X103572569Y-29071415D01*
X104143997Y-28499986D01*
X104143997Y-29119034D01*
%TO.C,SW25*%
X148374929Y-59574973D02*
X148374929Y-58874973D01*
X143874929Y-58874973D02*
X143874929Y-59374973D01*
X148374929Y-58874973D02*
X143874929Y-58874973D01*
X143874929Y-62974973D02*
X143874929Y-63574973D01*
X143874929Y-63574973D02*
X148374929Y-63574973D01*
X152374929Y-61074973D02*
X149874929Y-61074973D01*
X152874929Y-61574973D02*
X152374929Y-61074973D01*
X152374929Y-65574973D02*
X149374929Y-65574973D01*
X149374929Y-65574973D02*
X148874929Y-65074973D01*
X148874929Y-64074973D02*
X148874929Y-65074973D01*
X152874929Y-65074973D02*
X152374929Y-65574973D01*
X148874929Y-64074973D02*
G75*
G03*
X148374929Y-63574973I-500001J-1D01*
G01*
X148374929Y-59574973D02*
G75*
G03*
X149874929Y-61074973I1500001J1D01*
G01*
%TO.C,SW17*%
X186874913Y-44574981D02*
X186374913Y-44074981D01*
X186874913Y-48074981D02*
X186374913Y-48574981D01*
X183374913Y-48574981D02*
X182874913Y-48074981D01*
X182874913Y-47074981D02*
X182874913Y-48074981D01*
X177874913Y-45974981D02*
X177874913Y-46574981D01*
X182374913Y-42574981D02*
X182374913Y-41874981D01*
X182374913Y-41874981D02*
X177874913Y-41874981D01*
X186374913Y-48574981D02*
X183374913Y-48574981D01*
X177874913Y-41874981D02*
X177874913Y-42374981D01*
X177874913Y-46574981D02*
X182374913Y-46574981D01*
X186374913Y-44074981D02*
X183874913Y-44074981D01*
X182874913Y-47074981D02*
G75*
G03*
X182374913Y-46574981I-500001J-1D01*
G01*
X182374913Y-42574981D02*
G75*
G03*
X183874913Y-44074981I1500001J1D01*
G01*
%TO.C,SW23*%
X109874945Y-58874973D02*
X109874945Y-59374973D01*
X114374945Y-59574973D02*
X114374945Y-58874973D01*
X109874945Y-62974973D02*
X109874945Y-63574973D01*
X115374945Y-65574973D02*
X114874945Y-65074973D01*
X118874945Y-65074973D02*
X118374945Y-65574973D01*
X114374945Y-58874973D02*
X109874945Y-58874973D01*
X114874945Y-64074973D02*
X114874945Y-65074973D01*
X109874945Y-63574973D02*
X114374945Y-63574973D01*
X118374945Y-61074973D02*
X115874945Y-61074973D01*
X118874945Y-61574973D02*
X118374945Y-61074973D01*
X118374945Y-65574973D02*
X115374945Y-65574973D01*
X114374945Y-59574973D02*
G75*
G03*
X115874945Y-61074973I1500001J1D01*
G01*
X114874945Y-64074973D02*
G75*
G03*
X114374945Y-63574973I-500001J-1D01*
G01*
%TO.C,SW26*%
X160874921Y-63574973D02*
X165374921Y-63574973D01*
X160874921Y-58874973D02*
X160874921Y-59374973D01*
X169374921Y-65574973D02*
X166374921Y-65574973D01*
X165374921Y-58874973D02*
X160874921Y-58874973D01*
X169874921Y-65074973D02*
X169374921Y-65574973D01*
X169374921Y-61074973D02*
X166874921Y-61074973D01*
X165374921Y-59574973D02*
X165374921Y-58874973D01*
X169874921Y-61574973D02*
X169374921Y-61074973D01*
X160874921Y-62974973D02*
X160874921Y-63574973D01*
X166374921Y-65574973D02*
X165874921Y-65074973D01*
X165874921Y-64074973D02*
X165874921Y-65074973D01*
X165874921Y-64074973D02*
G75*
G03*
X165374921Y-63574973I-500001J-1D01*
G01*
X165374921Y-59574973D02*
G75*
G03*
X166874921Y-61074973I1500001J1D01*
G01*
%TO.C,SW13*%
X109874945Y-45974981D02*
X109874945Y-46574981D01*
X118374945Y-48574981D02*
X115374945Y-48574981D01*
X118874945Y-48074981D02*
X118374945Y-48574981D01*
X114374945Y-42574981D02*
X114374945Y-41874981D01*
X109874945Y-41874981D02*
X109874945Y-42374981D01*
X109874945Y-46574981D02*
X114374945Y-46574981D01*
X115374945Y-48574981D02*
X114874945Y-48074981D01*
X114374945Y-41874981D02*
X109874945Y-41874981D01*
X118374945Y-44074981D02*
X115874945Y-44074981D01*
X118874945Y-44574981D02*
X118374945Y-44074981D01*
X114874945Y-47074981D02*
X114874945Y-48074981D01*
X114874945Y-47074981D02*
G75*
G03*
X114374945Y-46574981I-500001J-1D01*
G01*
X114374945Y-42574981D02*
G75*
G03*
X115874945Y-44074981I1500001J1D01*
G01*
%TO.C,SW20*%
X233874889Y-47074981D02*
X233874889Y-48074981D01*
X233374889Y-41874981D02*
X228874889Y-41874981D01*
X237874889Y-48074981D02*
X237374889Y-48574981D01*
X228874889Y-45974981D02*
X228874889Y-46574981D01*
X237374889Y-44074981D02*
X234874889Y-44074981D01*
X233374889Y-42574981D02*
X233374889Y-41874981D01*
X237374889Y-48574981D02*
X234374889Y-48574981D01*
X228874889Y-41874981D02*
X228874889Y-42374981D01*
X228874889Y-46574981D02*
X233374889Y-46574981D01*
X237874889Y-44574981D02*
X237374889Y-44074981D01*
X234374889Y-48574981D02*
X233874889Y-48074981D01*
X233874889Y-47074981D02*
G75*
G03*
X233374889Y-46574981I-500001J-1D01*
G01*
X233374889Y-42574981D02*
G75*
G03*
X234874889Y-44074981I1500001J1D01*
G01*
%TO.C,SW16*%
X160874921Y-41874981D02*
X160874921Y-42374981D01*
X169874921Y-48074981D02*
X169374921Y-48574981D01*
X166374921Y-48574981D02*
X165874921Y-48074981D01*
X169874921Y-44574981D02*
X169374921Y-44074981D01*
X160874921Y-46574981D02*
X165374921Y-46574981D01*
X165374921Y-42574981D02*
X165374921Y-41874981D01*
X165874921Y-47074981D02*
X165874921Y-48074981D01*
X160874921Y-45974981D02*
X160874921Y-46574981D01*
X165374921Y-41874981D02*
X160874921Y-41874981D01*
X169374921Y-48574981D02*
X166374921Y-48574981D01*
X169374921Y-44074981D02*
X166874921Y-44074981D01*
X165874921Y-47074981D02*
G75*
G03*
X165374921Y-46574981I-500001J-1D01*
G01*
X165374921Y-42574981D02*
G75*
G03*
X166874921Y-44074981I1500001J1D01*
G01*
%TO.C,SW4*%
X135874937Y-31074989D02*
X135374937Y-31574989D01*
X126874937Y-29574989D02*
X131374937Y-29574989D01*
X126874937Y-24874989D02*
X126874937Y-25374989D01*
X126874937Y-28974989D02*
X126874937Y-29574989D01*
X131374937Y-25574989D02*
X131374937Y-24874989D01*
X135374937Y-31574989D02*
X132374937Y-31574989D01*
X132374937Y-31574989D02*
X131874937Y-31074989D01*
X131374937Y-24874989D02*
X126874937Y-24874989D01*
X135874937Y-27574989D02*
X135374937Y-27074989D01*
X131874937Y-30074989D02*
X131874937Y-31074989D01*
X135374937Y-27074989D02*
X132874937Y-27074989D01*
X131874937Y-30074989D02*
G75*
G03*
X131374937Y-29574989I-500001J-1D01*
G01*
X131374937Y-25574989D02*
G75*
G03*
X132874937Y-27074989I1500001J1D01*
G01*
%TO.C,SW1*%
X89874961Y-17774989D02*
X89874961Y-17174989D01*
X81374961Y-15174989D02*
X84374961Y-15174989D01*
X84374961Y-15174989D02*
X84874961Y-15674989D01*
X81374961Y-19674989D02*
X83874961Y-19674989D01*
X89874961Y-21874989D02*
X89874961Y-21374989D01*
X84874961Y-16674989D02*
X84874961Y-15674989D01*
X89874961Y-17174989D02*
X85374961Y-17174989D01*
X80874961Y-15674989D02*
X81374961Y-15174989D01*
X85374961Y-21174989D02*
X85374961Y-21874989D01*
X80874961Y-19174989D02*
X81374961Y-19674989D01*
X85374961Y-21874989D02*
X89874961Y-21874989D01*
X85374961Y-21174989D02*
G75*
G03*
X83874961Y-19674989I-1500001J-1D01*
G01*
X84874961Y-16674989D02*
G75*
G03*
X85374961Y-17174989I500001J1D01*
G01*
%TO.C,SW29*%
X211874897Y-63574973D02*
X216374897Y-63574973D01*
X211874897Y-62974973D02*
X211874897Y-63574973D01*
X216874897Y-64074973D02*
X216874897Y-65074973D01*
X211874897Y-58874973D02*
X211874897Y-59374973D01*
X216374897Y-58874973D02*
X211874897Y-58874973D01*
X220874897Y-65074973D02*
X220374897Y-65574973D01*
X220874897Y-61574973D02*
X220374897Y-61074973D01*
X217374897Y-65574973D02*
X216874897Y-65074973D01*
X220374897Y-61074973D02*
X217874897Y-61074973D01*
X216374897Y-59574973D02*
X216374897Y-58874973D01*
X220374897Y-65574973D02*
X217374897Y-65574973D01*
X216874897Y-64074973D02*
G75*
G03*
X216374897Y-63574973I-500001J-1D01*
G01*
X216374897Y-59574973D02*
G75*
G03*
X217874897Y-61074973I1500001J1D01*
G01*
%TO.C,SW15*%
X152374929Y-44074981D02*
X149874929Y-44074981D01*
X148374929Y-41874981D02*
X143874929Y-41874981D01*
X152374929Y-48574981D02*
X149374929Y-48574981D01*
X148874929Y-47074981D02*
X148874929Y-48074981D01*
X143874929Y-45974981D02*
X143874929Y-46574981D01*
X143874929Y-41874981D02*
X143874929Y-42374981D01*
X143874929Y-46574981D02*
X148374929Y-46574981D01*
X148374929Y-42574981D02*
X148374929Y-41874981D01*
X152874929Y-44574981D02*
X152374929Y-44074981D01*
X149374929Y-48574981D02*
X148874929Y-48074981D01*
X152874929Y-48074981D02*
X152374929Y-48574981D01*
X148374929Y-42574981D02*
G75*
G03*
X149874929Y-44074981I1500001J1D01*
G01*
X148874929Y-47074981D02*
G75*
G03*
X148374929Y-46574981I-500001J-1D01*
G01*
%TO.C,SW34*%
X126874937Y-75874965D02*
X126874937Y-76374965D01*
X126874937Y-80574965D02*
X131374937Y-80574965D01*
X131374937Y-76574965D02*
X131374937Y-75874965D01*
X131374937Y-75874965D02*
X126874937Y-75874965D01*
X135374937Y-78074965D02*
X132874937Y-78074965D01*
X132374937Y-82574965D02*
X131874937Y-82074965D01*
X135374937Y-82574965D02*
X132374937Y-82574965D01*
X131874937Y-81074965D02*
X131874937Y-82074965D01*
X126874937Y-79974965D02*
X126874937Y-80574965D01*
X135874937Y-82074965D02*
X135374937Y-82574965D01*
X135874937Y-78574965D02*
X135374937Y-78074965D01*
X131874937Y-81074965D02*
G75*
G03*
X131374937Y-80574965I-500001J-1D01*
G01*
X131374937Y-76574965D02*
G75*
G03*
X132874937Y-78074965I1500001J1D01*
G01*
%TO.C,SW6*%
X165374921Y-25574989D02*
X165374921Y-24874989D01*
X169374921Y-31574989D02*
X166374921Y-31574989D01*
X165874921Y-30074989D02*
X165874921Y-31074989D01*
X165374921Y-24874989D02*
X160874921Y-24874989D01*
X169374921Y-27074989D02*
X166874921Y-27074989D01*
X160874921Y-29574989D02*
X165374921Y-29574989D01*
X160874921Y-28974989D02*
X160874921Y-29574989D01*
X160874921Y-24874989D02*
X160874921Y-25374989D01*
X169874921Y-31074989D02*
X169374921Y-31574989D01*
X166374921Y-31574989D02*
X165874921Y-31074989D01*
X169874921Y-27574989D02*
X169374921Y-27074989D01*
X165874921Y-30074989D02*
G75*
G03*
X165374921Y-29574989I-500001J-1D01*
G01*
X165374921Y-25574989D02*
G75*
G03*
X166874921Y-27074989I1500001J1D01*
G01*
%TO.C,SW10*%
X228874889Y-29574989D02*
X233374889Y-29574989D01*
X237874889Y-27574989D02*
X237374889Y-27074989D01*
X233374889Y-24874989D02*
X228874889Y-24874989D01*
X228874889Y-28974989D02*
X228874889Y-29574989D01*
X237374889Y-27074989D02*
X234874889Y-27074989D01*
X237874889Y-31074989D02*
X237374889Y-31574989D01*
X228874889Y-24874989D02*
X228874889Y-25374989D01*
X233874889Y-30074989D02*
X233874889Y-31074989D01*
X234374889Y-31574989D02*
X233874889Y-31074989D01*
X237374889Y-31574989D02*
X234374889Y-31574989D01*
X233374889Y-25574989D02*
X233374889Y-24874989D01*
X233374889Y-25574989D02*
G75*
G03*
X234874889Y-27074989I1500001J1D01*
G01*
X233874889Y-30074989D02*
G75*
G03*
X233374889Y-29574989I-500001J-1D01*
G01*
%TO.C,SW33*%
X114874945Y-81074965D02*
X114874945Y-82074965D01*
X114374945Y-76574965D02*
X114374945Y-75874965D01*
X114374945Y-75874965D02*
X109874945Y-75874965D01*
X118374945Y-78074965D02*
X115874945Y-78074965D01*
X109874945Y-75874965D02*
X109874945Y-76374965D01*
X118874945Y-78574965D02*
X118374945Y-78074965D01*
X115374945Y-82574965D02*
X114874945Y-82074965D01*
X109874945Y-79974965D02*
X109874945Y-80574965D01*
X109874945Y-80574965D02*
X114374945Y-80574965D01*
X118874945Y-82074965D02*
X118374945Y-82574965D01*
X118374945Y-82574965D02*
X115374945Y-82574965D01*
X114374945Y-76574965D02*
G75*
G03*
X115874945Y-78074965I1500001J1D01*
G01*
X114874945Y-81074965D02*
G75*
G03*
X114374945Y-80574965I-500001J-1D01*
G01*
%TO.C,SW27*%
X186874913Y-61574973D02*
X186374913Y-61074973D01*
X186374913Y-61074973D02*
X183874913Y-61074973D01*
X182374913Y-59574973D02*
X182374913Y-58874973D01*
X177874913Y-62974973D02*
X177874913Y-63574973D01*
X186874913Y-65074973D02*
X186374913Y-65574973D01*
X183374913Y-65574973D02*
X182874913Y-65074973D01*
X186374913Y-65574973D02*
X183374913Y-65574973D01*
X182874913Y-64074973D02*
X182874913Y-65074973D01*
X177874913Y-58874973D02*
X177874913Y-59374973D01*
X182374913Y-58874973D02*
X177874913Y-58874973D01*
X177874913Y-63574973D02*
X182374913Y-63574973D01*
X182874913Y-64074973D02*
G75*
G03*
X182374913Y-63574973I-500001J-1D01*
G01*
X182374913Y-59574973D02*
G75*
G03*
X183874913Y-61074973I1500001J1D01*
G01*
%TO.C,SW30*%
X233374889Y-59574973D02*
X233374889Y-58874973D01*
X237874889Y-61574973D02*
X237374889Y-61074973D01*
X237374889Y-65574973D02*
X234374889Y-65574973D01*
X237374889Y-61074973D02*
X234874889Y-61074973D01*
X237874889Y-65074973D02*
X237374889Y-65574973D01*
X233374889Y-58874973D02*
X228874889Y-58874973D01*
X233874889Y-64074973D02*
X233874889Y-65074973D01*
X234374889Y-65574973D02*
X233874889Y-65074973D01*
X228874889Y-58874973D02*
X228874889Y-59374973D01*
X228874889Y-62974973D02*
X228874889Y-63574973D01*
X228874889Y-63574973D02*
X233374889Y-63574973D01*
X233374889Y-59574973D02*
G75*
G03*
X234874889Y-61074973I1500001J1D01*
G01*
X233874889Y-64074973D02*
G75*
G03*
X233374889Y-63574973I-500001J-1D01*
G01*
%TO.C,SW7*%
X182374913Y-24874989D02*
X177874913Y-24874989D01*
X177874913Y-24874989D02*
X177874913Y-25374989D01*
X183374913Y-31574989D02*
X182874913Y-31074989D01*
X186374913Y-31574989D02*
X183374913Y-31574989D01*
X186374913Y-27074989D02*
X183874913Y-27074989D01*
X182874913Y-30074989D02*
X182874913Y-31074989D01*
X182374913Y-25574989D02*
X182374913Y-24874989D01*
X186874913Y-27574989D02*
X186374913Y-27074989D01*
X186874913Y-31074989D02*
X186374913Y-31574989D01*
X177874913Y-29574989D02*
X182374913Y-29574989D01*
X177874913Y-28974989D02*
X177874913Y-29574989D01*
X182874913Y-30074989D02*
G75*
G03*
X182374913Y-29574989I-500001J-1D01*
G01*
X182374913Y-25574989D02*
G75*
G03*
X183874913Y-27074989I1500001J1D01*
G01*
%TO.C,SW19*%
X216374897Y-41874981D02*
X211874897Y-41874981D01*
X220374897Y-48574981D02*
X217374897Y-48574981D01*
X220374897Y-44074981D02*
X217874897Y-44074981D01*
X211874897Y-41874981D02*
X211874897Y-42374981D01*
X216874897Y-47074981D02*
X216874897Y-48074981D01*
X220874897Y-44574981D02*
X220374897Y-44074981D01*
X211874897Y-45974981D02*
X211874897Y-46574981D01*
X217374897Y-48574981D02*
X216874897Y-48074981D01*
X211874897Y-46574981D02*
X216374897Y-46574981D01*
X216374897Y-42574981D02*
X216374897Y-41874981D01*
X220874897Y-48074981D02*
X220374897Y-48574981D01*
X216874897Y-47074981D02*
G75*
G03*
X216374897Y-46574981I-500001J-1D01*
G01*
X216374897Y-42574981D02*
G75*
G03*
X217874897Y-44074981I1500001J1D01*
G01*
%TO.C,SW40*%
X234374889Y-82574965D02*
X233874889Y-82074965D01*
X237374889Y-82574965D02*
X234374889Y-82574965D01*
X237874889Y-78574965D02*
X237374889Y-78074965D01*
X237374889Y-78074965D02*
X234874889Y-78074965D01*
X237874889Y-82074965D02*
X237374889Y-82574965D01*
X233374889Y-75874965D02*
X228874889Y-75874965D01*
X233374889Y-76574965D02*
X233374889Y-75874965D01*
X228874889Y-79974965D02*
X228874889Y-80574965D01*
X228874889Y-75874965D02*
X228874889Y-76374965D01*
X233874889Y-81074965D02*
X233874889Y-82074965D01*
X228874889Y-80574965D02*
X233374889Y-80574965D01*
X233874889Y-81074965D02*
G75*
G03*
X233374889Y-80574965I-500001J-1D01*
G01*
X233374889Y-76574965D02*
G75*
G03*
X234874889Y-78074965I1500001J1D01*
G01*
%TO.C,SW24*%
X135874937Y-61574973D02*
X135374937Y-61074973D01*
X126874937Y-63574973D02*
X131374937Y-63574973D01*
X131874937Y-64074973D02*
X131874937Y-65074973D01*
X131374937Y-59574973D02*
X131374937Y-58874973D01*
X135374937Y-65574973D02*
X132374937Y-65574973D01*
X135374937Y-61074973D02*
X132874937Y-61074973D01*
X135874937Y-65074973D02*
X135374937Y-65574973D01*
X126874937Y-62974973D02*
X126874937Y-63574973D01*
X131374937Y-58874973D02*
X126874937Y-58874973D01*
X126874937Y-58874973D02*
X126874937Y-59374973D01*
X132374937Y-65574973D02*
X131874937Y-65074973D01*
X131374937Y-59574973D02*
G75*
G03*
X132874937Y-61074973I1500001J1D01*
G01*
X131874937Y-64074973D02*
G75*
G03*
X131374937Y-63574973I-500001J-1D01*
G01*
%TO.C,SW32*%
X92874953Y-80574965D02*
X97374953Y-80574965D01*
X97374953Y-75874965D02*
X92874953Y-75874965D01*
X92874953Y-79974965D02*
X92874953Y-80574965D01*
X97374953Y-76574965D02*
X97374953Y-75874965D01*
X98374953Y-82574965D02*
X97874953Y-82074965D01*
X92874953Y-75874965D02*
X92874953Y-76374965D01*
X101374953Y-78074965D02*
X98874953Y-78074965D01*
X101374953Y-82574965D02*
X98374953Y-82574965D01*
X97874953Y-81074965D02*
X97874953Y-82074965D01*
X101874953Y-82074965D02*
X101374953Y-82574965D01*
X101874953Y-78574965D02*
X101374953Y-78074965D01*
X97374953Y-76574965D02*
G75*
G03*
X98874953Y-78074965I1500001J1D01*
G01*
X97874953Y-81074965D02*
G75*
G03*
X97374953Y-80574965I-500001J-1D01*
G01*
%TO.C,SW5*%
X143874929Y-24874989D02*
X143874929Y-25374989D01*
X152374929Y-31574989D02*
X149374929Y-31574989D01*
X143874929Y-28974989D02*
X143874929Y-29574989D01*
X152374929Y-27074989D02*
X149874929Y-27074989D01*
X148874929Y-30074989D02*
X148874929Y-31074989D01*
X152874929Y-31074989D02*
X152374929Y-31574989D01*
X148374929Y-24874989D02*
X143874929Y-24874989D01*
X152874929Y-27574989D02*
X152374929Y-27074989D01*
X143874929Y-29574989D02*
X148374929Y-29574989D01*
X148374929Y-25574989D02*
X148374929Y-24874989D01*
X149374929Y-31574989D02*
X148874929Y-31074989D01*
X148874929Y-30074989D02*
G75*
G03*
X148374929Y-29574989I-500001J-1D01*
G01*
X148374929Y-25574989D02*
G75*
G03*
X149874929Y-27074989I1500001J1D01*
G01*
%TO.C,SW31*%
X85374961Y-72174965D02*
X85374961Y-72874965D01*
X80874961Y-70174965D02*
X81374961Y-70674965D01*
X89874961Y-68774965D02*
X89874961Y-68174965D01*
X89874961Y-72874965D02*
X89874961Y-72374965D01*
X81374961Y-66174965D02*
X84374961Y-66174965D01*
X89874961Y-68174965D02*
X85374961Y-68174965D01*
X85374961Y-72874965D02*
X89874961Y-72874965D01*
X84374961Y-66174965D02*
X84874961Y-66674965D01*
X80874961Y-66674965D02*
X81374961Y-66174965D01*
X81374961Y-70674965D02*
X83874961Y-70674965D01*
X84874961Y-67674965D02*
X84874961Y-66674965D01*
X85374961Y-72174965D02*
G75*
G03*
X83874961Y-70674965I-1500001J-1D01*
G01*
X84874961Y-67674965D02*
G75*
G03*
X85374961Y-68174965I500001J1D01*
G01*
%TO.C,SW38*%
X203874905Y-82074965D02*
X203374905Y-82574965D01*
X194874905Y-80574965D02*
X199374905Y-80574965D01*
X203374905Y-82574965D02*
X200374905Y-82574965D01*
X194874905Y-75874965D02*
X194874905Y-76374965D01*
X199874905Y-81074965D02*
X199874905Y-82074965D01*
X194874905Y-79974965D02*
X194874905Y-80574965D01*
X199374905Y-76574965D02*
X199374905Y-75874965D01*
X203874905Y-78574965D02*
X203374905Y-78074965D01*
X199374905Y-75874965D02*
X194874905Y-75874965D01*
X200374905Y-82574965D02*
X199874905Y-82074965D01*
X203374905Y-78074965D02*
X200874905Y-78074965D01*
X199374905Y-76574965D02*
G75*
G03*
X200874905Y-78074965I1500001J1D01*
G01*
X199874905Y-81074965D02*
G75*
G03*
X199374905Y-80574965I-500001J-1D01*
G01*
%TO.C,SW35*%
X152874929Y-78574965D02*
X152374929Y-78074965D01*
X152874929Y-82074965D02*
X152374929Y-82574965D01*
X143874929Y-75874965D02*
X143874929Y-76374965D01*
X148874929Y-81074965D02*
X148874929Y-82074965D01*
X149374929Y-82574965D02*
X148874929Y-82074965D01*
X143874929Y-79974965D02*
X143874929Y-80574965D01*
X148374929Y-75874965D02*
X143874929Y-75874965D01*
X148374929Y-76574965D02*
X148374929Y-75874965D01*
X143874929Y-80574965D02*
X148374929Y-80574965D01*
X152374929Y-78074965D02*
X149874929Y-78074965D01*
X152374929Y-82574965D02*
X149374929Y-82574965D01*
X148874929Y-81074965D02*
G75*
G03*
X148374929Y-80574965I-500001J-1D01*
G01*
X148374929Y-76574965D02*
G75*
G03*
X149874929Y-78074965I1500001J1D01*
G01*
%TO.C,SW18*%
X194874905Y-46574981D02*
X199374905Y-46574981D01*
X203874905Y-48074981D02*
X203374905Y-48574981D01*
X194874905Y-41874981D02*
X194874905Y-42374981D01*
X199374905Y-41874981D02*
X194874905Y-41874981D01*
X203374905Y-48574981D02*
X200374905Y-48574981D01*
X200374905Y-48574981D02*
X199874905Y-48074981D01*
X199874905Y-47074981D02*
X199874905Y-48074981D01*
X199374905Y-42574981D02*
X199374905Y-41874981D01*
X203874905Y-44574981D02*
X203374905Y-44074981D01*
X203374905Y-44074981D02*
X200874905Y-44074981D01*
X194874905Y-45974981D02*
X194874905Y-46574981D01*
X199874905Y-47074981D02*
G75*
G03*
X199374905Y-46574981I-500001J-1D01*
G01*
X199374905Y-42574981D02*
G75*
G03*
X200874905Y-44074981I1500001J1D01*
G01*
%TO.C,SW3*%
X118874945Y-31074989D02*
X118374945Y-31574989D01*
X118874945Y-27574989D02*
X118374945Y-27074989D01*
X118374945Y-31574989D02*
X115374945Y-31574989D01*
X114374945Y-24874989D02*
X109874945Y-24874989D01*
X114874945Y-30074989D02*
X114874945Y-31074989D01*
X109874945Y-29574989D02*
X114374945Y-29574989D01*
X109874945Y-28974989D02*
X109874945Y-29574989D01*
X109874945Y-24874989D02*
X109874945Y-25374989D01*
X118374945Y-27074989D02*
X115874945Y-27074989D01*
X114374945Y-25574989D02*
X114374945Y-24874989D01*
X115374945Y-31574989D02*
X114874945Y-31074989D01*
X114874945Y-30074989D02*
G75*
G03*
X114374945Y-29574989I-500001J-1D01*
G01*
X114374945Y-25574989D02*
G75*
G03*
X115874945Y-27074989I1500001J1D01*
G01*
%TO.C,SW9*%
X220874897Y-27574989D02*
X220374897Y-27074989D01*
X216874897Y-30074989D02*
X216874897Y-31074989D01*
X216374897Y-25574989D02*
X216374897Y-24874989D01*
X217374897Y-31574989D02*
X216874897Y-31074989D01*
X211874897Y-24874989D02*
X211874897Y-25374989D01*
X220374897Y-31574989D02*
X217374897Y-31574989D01*
X211874897Y-28974989D02*
X211874897Y-29574989D01*
X216374897Y-24874989D02*
X211874897Y-24874989D01*
X211874897Y-29574989D02*
X216374897Y-29574989D01*
X220374897Y-27074989D02*
X217874897Y-27074989D01*
X220874897Y-31074989D02*
X220374897Y-31574989D01*
X216874897Y-30074989D02*
G75*
G03*
X216374897Y-29574989I-500001J-1D01*
G01*
X216374897Y-25574989D02*
G75*
G03*
X217874897Y-27074989I1500001J1D01*
G01*
%TO.C,SW14*%
X126874937Y-46574981D02*
X131374937Y-46574981D01*
X132374937Y-48574981D02*
X131874937Y-48074981D01*
X131374937Y-41874981D02*
X126874937Y-41874981D01*
X135874937Y-44574981D02*
X135374937Y-44074981D01*
X131874937Y-47074981D02*
X131874937Y-48074981D01*
X135874937Y-48074981D02*
X135374937Y-48574981D01*
X135374937Y-48574981D02*
X132374937Y-48574981D01*
X131374937Y-42574981D02*
X131374937Y-41874981D01*
X126874937Y-41874981D02*
X126874937Y-42374981D01*
X135374937Y-44074981D02*
X132874937Y-44074981D01*
X126874937Y-45974981D02*
X126874937Y-46574981D01*
X131874937Y-47074981D02*
G75*
G03*
X131374937Y-46574981I-500001J-1D01*
G01*
X131374937Y-42574981D02*
G75*
G03*
X132874937Y-44074981I1500001J1D01*
G01*
%TO.C,SW21*%
X89874961Y-51774973D02*
X89874961Y-51174973D01*
X84374961Y-49174973D02*
X84874961Y-49674973D01*
X85374961Y-55874973D02*
X89874961Y-55874973D01*
X85374961Y-55174973D02*
X85374961Y-55874973D01*
X89874961Y-55874973D02*
X89874961Y-55374973D01*
X81374961Y-49174973D02*
X84374961Y-49174973D01*
X81374961Y-53674973D02*
X83874961Y-53674973D01*
X84874961Y-50674973D02*
X84874961Y-49674973D01*
X80874961Y-53174973D02*
X81374961Y-53674973D01*
X89874961Y-51174973D02*
X85374961Y-51174973D01*
X80874961Y-49674973D02*
X81374961Y-49174973D01*
X85374961Y-55174973D02*
G75*
G03*
X83874961Y-53674973I-1500001J-1D01*
G01*
X84874961Y-50674973D02*
G75*
G03*
X85374961Y-51174973I500001J1D01*
G01*
%TO.C,SW2*%
X92874953Y-28974989D02*
X92874953Y-29574989D01*
X101874953Y-27574989D02*
X101374953Y-27074989D01*
X92874953Y-29574989D02*
X97374953Y-29574989D01*
X97374953Y-25574989D02*
X97374953Y-24874989D01*
X92874953Y-24874989D02*
X92874953Y-25374989D01*
X101874953Y-31074989D02*
X101374953Y-31574989D01*
X101374953Y-27074989D02*
X98874953Y-27074989D01*
X101374953Y-31574989D02*
X98374953Y-31574989D01*
X97374953Y-24874989D02*
X92874953Y-24874989D01*
X98374953Y-31574989D02*
X97874953Y-31074989D01*
X97874953Y-30074989D02*
X97874953Y-31074989D01*
X97374953Y-25574989D02*
G75*
G03*
X98874953Y-27074989I1500001J1D01*
G01*
X97874953Y-30074989D02*
G75*
G03*
X97374953Y-29574989I-500001J-1D01*
G01*
%TO.C,SW12*%
X97374953Y-41874981D02*
X92874953Y-41874981D01*
X97374953Y-42574981D02*
X97374953Y-41874981D01*
X101874953Y-44574981D02*
X101374953Y-44074981D01*
X101374953Y-44074981D02*
X98874953Y-44074981D01*
X97874953Y-47074981D02*
X97874953Y-48074981D01*
X92874953Y-45974981D02*
X92874953Y-46574981D01*
X92874953Y-41874981D02*
X92874953Y-42374981D01*
X101874953Y-48074981D02*
X101374953Y-48574981D01*
X98374953Y-48574981D02*
X97874953Y-48074981D01*
X101374953Y-48574981D02*
X98374953Y-48574981D01*
X92874953Y-46574981D02*
X97374953Y-46574981D01*
X97374953Y-42574981D02*
G75*
G03*
X98874953Y-44074981I1500001J1D01*
G01*
X97874953Y-47074981D02*
G75*
G03*
X97374953Y-46574981I-500001J-1D01*
G01*
%TO.C,SW36*%
X169874921Y-78574965D02*
X169374921Y-78074965D01*
X169374921Y-78074965D02*
X166874921Y-78074965D01*
X165874921Y-81074965D02*
X165874921Y-82074965D01*
X169374921Y-82574965D02*
X166374921Y-82574965D01*
X160874921Y-75874965D02*
X160874921Y-76374965D01*
X160874921Y-80574965D02*
X165374921Y-80574965D01*
X165374921Y-76574965D02*
X165374921Y-75874965D01*
X160874921Y-79974965D02*
X160874921Y-80574965D01*
X166374921Y-82574965D02*
X165874921Y-82074965D01*
X169874921Y-82074965D02*
X169374921Y-82574965D01*
X165374921Y-75874965D02*
X160874921Y-75874965D01*
X165874921Y-81074965D02*
G75*
G03*
X165374921Y-80574965I-500001J-1D01*
G01*
X165374921Y-76574965D02*
G75*
G03*
X166874921Y-78074965I1500001J1D01*
G01*
%TO.C,SW22*%
X101374953Y-65574973D02*
X98374953Y-65574973D01*
X92874953Y-62974973D02*
X92874953Y-63574973D01*
X101874953Y-65074973D02*
X101374953Y-65574973D01*
X98374953Y-65574973D02*
X97874953Y-65074973D01*
X92874953Y-63574973D02*
X97374953Y-63574973D01*
X101874953Y-61574973D02*
X101374953Y-61074973D01*
X97874953Y-64074973D02*
X97874953Y-65074973D01*
X97374953Y-58874973D02*
X92874953Y-58874973D01*
X97374953Y-59574973D02*
X97374953Y-58874973D01*
X101374953Y-61074973D02*
X98874953Y-61074973D01*
X92874953Y-58874973D02*
X92874953Y-59374973D01*
X97374953Y-59574973D02*
G75*
G03*
X98874953Y-61074973I1500001J1D01*
G01*
X97874953Y-64074973D02*
G75*
G03*
X97374953Y-63574973I-500001J-1D01*
G01*
%TO.C,SW28*%
X194874905Y-58874973D02*
X194874905Y-59374973D01*
X203874905Y-61574973D02*
X203374905Y-61074973D01*
X203874905Y-65074973D02*
X203374905Y-65574973D01*
X203374905Y-61074973D02*
X200874905Y-61074973D01*
X199374905Y-59574973D02*
X199374905Y-58874973D01*
X200374905Y-65574973D02*
X199874905Y-65074973D01*
X194874905Y-62974973D02*
X194874905Y-63574973D01*
X199374905Y-58874973D02*
X194874905Y-58874973D01*
X194874905Y-63574973D02*
X199374905Y-63574973D01*
X199874905Y-64074973D02*
X199874905Y-65074973D01*
X203374905Y-65574973D02*
X200374905Y-65574973D01*
X199874905Y-64074973D02*
G75*
G03*
X199374905Y-63574973I-500001J-1D01*
G01*
X199374905Y-59574973D02*
G75*
G03*
X200874905Y-61074973I1500001J1D01*
G01*
%TO.C,SW37*%
X186874913Y-82074965D02*
X186374913Y-82574965D01*
X182874913Y-81074965D02*
X182874913Y-82074965D01*
X182374913Y-75874965D02*
X177874913Y-75874965D01*
X186874913Y-78574965D02*
X186374913Y-78074965D01*
X186374913Y-78074965D02*
X183874913Y-78074965D01*
X177874913Y-80574965D02*
X182374913Y-80574965D01*
X177874913Y-75874965D02*
X177874913Y-76374965D01*
X183374913Y-82574965D02*
X182874913Y-82074965D01*
X186374913Y-82574965D02*
X183374913Y-82574965D01*
X182374913Y-76574965D02*
X182374913Y-75874965D01*
X177874913Y-79974965D02*
X177874913Y-80574965D01*
X182874913Y-81074965D02*
G75*
G03*
X182374913Y-80574965I-500001J-1D01*
G01*
X182374913Y-76574965D02*
G75*
G03*
X183874913Y-78074965I1500001J1D01*
G01*
%TO.C,SW11*%
X85374961Y-38174981D02*
X85374961Y-38874981D01*
X84874961Y-33674981D02*
X84874961Y-32674981D01*
X84374961Y-32174981D02*
X84874961Y-32674981D01*
X81374961Y-36674981D02*
X83874961Y-36674981D01*
X80874961Y-32674981D02*
X81374961Y-32174981D01*
X89874961Y-34774981D02*
X89874961Y-34174981D01*
X81374961Y-32174981D02*
X84374961Y-32174981D01*
X89874961Y-38874981D02*
X89874961Y-38374981D01*
X85374961Y-38874981D02*
X89874961Y-38874981D01*
X89874961Y-34174981D02*
X85374961Y-34174981D01*
X80874961Y-36174981D02*
X81374961Y-36674981D01*
X85374961Y-38174981D02*
G75*
G03*
X83874961Y-36674981I-1500001J-1D01*
G01*
X84874961Y-33674981D02*
G75*
G03*
X85374961Y-34174981I500001J1D01*
G01*
%TO.C,SW39*%
X220874897Y-78574965D02*
X220374897Y-78074965D01*
X211874897Y-75874965D02*
X211874897Y-76374965D01*
X211874897Y-79974965D02*
X211874897Y-80574965D01*
X216374897Y-75874965D02*
X211874897Y-75874965D01*
X216374897Y-76574965D02*
X216374897Y-75874965D01*
X220374897Y-82574965D02*
X217374897Y-82574965D01*
X220374897Y-78074965D02*
X217874897Y-78074965D01*
X220874897Y-82074965D02*
X220374897Y-82574965D01*
X211874897Y-80574965D02*
X216374897Y-80574965D01*
X217374897Y-82574965D02*
X216874897Y-82074965D01*
X216874897Y-81074965D02*
X216874897Y-82074965D01*
X216874897Y-81074965D02*
G75*
G03*
X216374897Y-80574965I-500001J-1D01*
G01*
X216374897Y-76574965D02*
G75*
G03*
X217874897Y-78074965I1500001J1D01*
G01*
%TO.C,SW8*%
X203374905Y-31574989D02*
X200374905Y-31574989D01*
X194874905Y-28974989D02*
X194874905Y-29574989D01*
X200374905Y-31574989D02*
X199874905Y-31074989D01*
X203374905Y-27074989D02*
X200874905Y-27074989D01*
X199374905Y-24874989D02*
X194874905Y-24874989D01*
X194874905Y-29574989D02*
X199374905Y-29574989D01*
X203874905Y-31074989D02*
X203374905Y-31574989D01*
X194874905Y-24874989D02*
X194874905Y-25374989D01*
X203874905Y-27574989D02*
X203374905Y-27074989D01*
X199374905Y-25574989D02*
X199374905Y-24874989D01*
X199874905Y-30074989D02*
X199874905Y-31074989D01*
X199874905Y-30074989D02*
G75*
G03*
X199374905Y-29574989I-500001J-1D01*
G01*
X199374905Y-25574989D02*
G75*
G03*
X200874905Y-27074989I1500001J1D01*
G01*
D13*
%TO.C,D35*%
X155691593Y-77833296D02*
X157391593Y-77833296D01*
X155691593Y-77833296D02*
X155691593Y-80383296D01*
X157391593Y-77833296D02*
X157391593Y-80383296D01*
%TO.C,D31*%
X89391625Y-77833296D02*
X89391625Y-80383296D01*
X87691625Y-77833296D02*
X89391625Y-77833296D01*
X87691625Y-77833296D02*
X87691625Y-80383296D01*
%TO.C,D30*%
X240691553Y-60833304D02*
X242391553Y-60833304D01*
X240691553Y-60833304D02*
X240691553Y-63383304D01*
X242391553Y-60833304D02*
X242391553Y-63383304D01*
%TO.C,D34*%
X138691601Y-77833296D02*
X140391601Y-77833296D01*
X140391601Y-77833296D02*
X140391601Y-80383296D01*
X138691601Y-77833296D02*
X138691601Y-80383296D01*
%TO.C,C5*%
X105321693Y-33080810D02*
X105169190Y-32928307D01*
X105830810Y-32571693D02*
X105678307Y-32419190D01*
%TO.C,R4*%
X113870000Y-23596359D02*
X113870000Y-23903641D01*
X114630000Y-23596359D02*
X114630000Y-23903641D01*
%TO.C,D11*%
X89391625Y-43833312D02*
X89391625Y-46383312D01*
X87691625Y-43833312D02*
X87691625Y-46383312D01*
X87691625Y-43833312D02*
X89391625Y-43833312D01*
%TO.C,D8*%
X208391569Y-26833320D02*
X208391569Y-29383320D01*
X206691569Y-26833320D02*
X206691569Y-29383320D01*
X206691569Y-26833320D02*
X208391569Y-26833320D01*
%TO.C,D22*%
X104691617Y-60833304D02*
X104691617Y-63383304D01*
X104691617Y-60833304D02*
X106391617Y-60833304D01*
X106391617Y-60833304D02*
X106391617Y-63383304D01*
%TO.C,D24*%
X138691601Y-60833304D02*
X140391601Y-60833304D01*
X138691601Y-60833304D02*
X138691601Y-63383304D01*
X140391601Y-60833304D02*
X140391601Y-63383304D01*
%TO.C,C4*%
X116669190Y-36021693D02*
X116821693Y-35869190D01*
X117178307Y-36530810D02*
X117330810Y-36378307D01*
%TO.C,U1*%
X116313592Y-34708317D02*
X115800940Y-34195665D01*
X110695629Y-30115658D02*
X111208281Y-29603006D01*
X106102970Y-34708317D02*
X106615622Y-35220969D01*
X106615622Y-34195665D02*
X106102970Y-34708317D01*
X111208281Y-39813628D02*
X110695629Y-39300976D01*
X115800940Y-35220969D02*
X116313592Y-34708317D01*
X111720933Y-39300976D02*
X111208281Y-39813628D01*
%TO.C,D27*%
X189691577Y-60833304D02*
X191391577Y-60833304D01*
X191391577Y-60833304D02*
X191391577Y-63383304D01*
X189691577Y-60833304D02*
X189691577Y-63383304D01*
%TO.C,D4*%
X140391601Y-26833320D02*
X140391601Y-29383320D01*
X138691601Y-26833320D02*
X140391601Y-26833320D01*
X138691601Y-26833320D02*
X138691601Y-29383320D01*
%TO.C,D40*%
X240691553Y-77833296D02*
X242391553Y-77833296D01*
X242391553Y-77833296D02*
X242391553Y-80383296D01*
X240691553Y-77833296D02*
X240691553Y-80383296D01*
%TO.C,D29*%
X223691561Y-60833304D02*
X225391561Y-60833304D01*
X223691561Y-60833304D02*
X223691561Y-63383304D01*
X225391561Y-60833304D02*
X225391561Y-63383304D01*
%TO.C,D28*%
X206691569Y-60833304D02*
X206691569Y-63383304D01*
X206691569Y-60833304D02*
X208391569Y-60833304D01*
X208391569Y-60833304D02*
X208391569Y-63383304D01*
%TO.C,D33*%
X121691609Y-77833296D02*
X121691609Y-80383296D01*
X121691609Y-77833296D02*
X123391609Y-77833296D01*
X123391609Y-77833296D02*
X123391609Y-80383296D01*
%TO.C,D15*%
X157391593Y-43833312D02*
X157391593Y-46383312D01*
X155691593Y-43833312D02*
X155691593Y-46383312D01*
X155691593Y-43833312D02*
X157391593Y-43833312D01*
%TO.C,D9*%
X225391561Y-26833320D02*
X225391561Y-29383320D01*
X223691561Y-26833320D02*
X225391561Y-26833320D01*
X223691561Y-26833320D02*
X223691561Y-29383320D01*
%TO.C,D21*%
X89391625Y-60833304D02*
X89391625Y-63383304D01*
X87691625Y-60833304D02*
X89391625Y-60833304D01*
X87691625Y-60833304D02*
X87691625Y-63383304D01*
%TO.C,C2*%
X119892164Y-34360000D02*
X120107836Y-34360000D01*
X119892164Y-33640000D02*
X120107836Y-33640000D01*
%TO.C,Y1*%
X121400000Y-38750000D02*
X118100000Y-38750000D01*
X118100000Y-38750000D02*
X118100000Y-34750000D01*
%TO.C,D32*%
X104691617Y-77833296D02*
X104691617Y-80383296D01*
X106391617Y-77833296D02*
X106391617Y-80383296D01*
X104691617Y-77833296D02*
X106391617Y-77833296D01*
%TO.C,R5*%
X112620000Y-23596359D02*
X112620000Y-23903641D01*
X113380000Y-23596359D02*
X113380000Y-23903641D01*
%TO.C,D19*%
X223691561Y-43833312D02*
X225391561Y-43833312D01*
X223691561Y-43833312D02*
X223691561Y-46383312D01*
X225391561Y-43833312D02*
X225391561Y-46383312D01*
%TO.C,D10*%
X240691553Y-26833320D02*
X240691553Y-29383320D01*
X242391553Y-26833320D02*
X242391553Y-29383320D01*
X240691553Y-26833320D02*
X242391553Y-26833320D01*
%TO.C,D14*%
X138691601Y-43833312D02*
X138691601Y-46383312D01*
X138691601Y-43833312D02*
X140391601Y-43833312D01*
X140391601Y-43833312D02*
X140391601Y-46383312D01*
%TO.C,D6*%
X174391585Y-26833320D02*
X174391585Y-29383320D01*
X172691585Y-26833320D02*
X174391585Y-26833320D01*
X172691585Y-26833320D02*
X172691585Y-29383320D01*
%TO.C,C7*%
X109680810Y-30053307D02*
X109528307Y-30205810D01*
X109171693Y-29544190D02*
X109019190Y-29696693D01*
%TO.C,D18*%
X206691569Y-43833312D02*
X206691569Y-46383312D01*
X208391569Y-43833312D02*
X208391569Y-46383312D01*
X206691569Y-43833312D02*
X208391569Y-43833312D01*
%TO.C,R6*%
X104403641Y-34620000D02*
X104096359Y-34620000D01*
X104403641Y-35380000D02*
X104096359Y-35380000D01*
%TO.C,D16*%
X172691585Y-43833312D02*
X172691585Y-46383312D01*
X172691585Y-43833312D02*
X174391585Y-43833312D01*
X174391585Y-43833312D02*
X174391585Y-46383312D01*
%TO.C,D13*%
X123391609Y-43833312D02*
X123391609Y-46383312D01*
X121691609Y-43833312D02*
X121691609Y-46383312D01*
X121691609Y-43833312D02*
X123391609Y-43833312D01*
%TO.C,D25*%
X155691593Y-60833304D02*
X155691593Y-63383304D01*
X157391593Y-60833304D02*
X157391593Y-63383304D01*
X155691593Y-60833304D02*
X157391593Y-60833304D01*
%TO.C,B1*%
X135290000Y-38390000D02*
X135780000Y-37900000D01*
X131120000Y-36710000D02*
X131120000Y-34630000D01*
X135290000Y-32950000D02*
X135780000Y-33440000D01*
X135290000Y-32950000D02*
X132390000Y-32950000D01*
X132390000Y-38390000D02*
X131900000Y-37900000D01*
X136560000Y-36710000D02*
X136560000Y-34630000D01*
X135290000Y-38390000D02*
X132390000Y-38390000D01*
X132390000Y-32950000D02*
X131900000Y-33440000D01*
%TO.C,D26*%
X174391585Y-60833304D02*
X174391585Y-63383304D01*
X172691585Y-60833304D02*
X174391585Y-60833304D01*
X172691585Y-60833304D02*
X172691585Y-63383304D01*
%TO.C,D1*%
X87691625Y-26833320D02*
X89391625Y-26833320D01*
X89391625Y-26833320D02*
X89391625Y-29383320D01*
X87691625Y-26833320D02*
X87691625Y-29383320D01*
%TO.C,D3*%
X123391609Y-26833320D02*
X123391609Y-29383320D01*
X121691609Y-26833320D02*
X121691609Y-29383320D01*
X121691609Y-26833320D02*
X123391609Y-26833320D01*
%TO.C,C6*%
X109203779Y-40014981D02*
X109419451Y-40014981D01*
X109203779Y-40734981D02*
X109419451Y-40734981D01*
%TO.C,D7*%
X189691577Y-26833320D02*
X189691577Y-29383320D01*
X189691577Y-26833320D02*
X191391577Y-26833320D01*
X191391577Y-26833320D02*
X191391577Y-29383320D01*
%TO.C,R3*%
X117346359Y-20620000D02*
X117653641Y-20620000D01*
X117346359Y-21380000D02*
X117653641Y-21380000D01*
%TO.C,D23*%
X121691609Y-60833304D02*
X121691609Y-63383304D01*
X121691609Y-60833304D02*
X123391609Y-60833304D01*
X123391609Y-60833304D02*
X123391609Y-63383304D01*
%TO.C,C1*%
X120357836Y-39140000D02*
X120142164Y-39140000D01*
X120357836Y-39860000D02*
X120142164Y-39860000D01*
%TO.C,D17*%
X189691577Y-43833312D02*
X189691577Y-46383312D01*
X189691577Y-43833312D02*
X191391577Y-43833312D01*
X191391577Y-43833312D02*
X191391577Y-46383312D01*
%TO.C,J1*%
X106628281Y-18849992D02*
X106628281Y-16929992D01*
X115788281Y-13214992D02*
X106628281Y-13214992D01*
X106628281Y-13214992D02*
X106628281Y-14919992D01*
X115788281Y-14919992D02*
X115788281Y-13214992D01*
X115788281Y-16929992D02*
X115788281Y-18849992D01*
%TO.C,D12*%
X106391617Y-43833312D02*
X106391617Y-46383312D01*
X104691617Y-43833312D02*
X104691617Y-46383312D01*
X104691617Y-43833312D02*
X106391617Y-43833312D01*
%TO.C,D5*%
X157391593Y-26833320D02*
X157391593Y-29383320D01*
X155691593Y-26833320D02*
X157391593Y-26833320D01*
X155691593Y-26833320D02*
X155691593Y-29383320D01*
%TO.C,D37*%
X189691577Y-77833296D02*
X191391577Y-77833296D01*
X191391577Y-77833296D02*
X191391577Y-80383296D01*
X189691577Y-77833296D02*
X189691577Y-80383296D01*
%TO.C,D36*%
X174391585Y-77833296D02*
X174391585Y-80383296D01*
X172691585Y-77833296D02*
X172691585Y-80383296D01*
X172691585Y-77833296D02*
X174391585Y-77833296D01*
%TO.C,F1*%
X103910000Y-23397936D02*
X103910000Y-24602064D01*
X102090000Y-23397936D02*
X102090000Y-24602064D01*
%TO.C,C3*%
X117658307Y-31989190D02*
X117810810Y-32141693D01*
X117149190Y-32498307D02*
X117301693Y-32650810D01*
%TO.C,R2*%
X108130000Y-22836359D02*
X108130000Y-23143641D01*
X107370000Y-22836359D02*
X107370000Y-23143641D01*
%TO.C,D39*%
X225391561Y-77833296D02*
X225391561Y-80383296D01*
X223691561Y-77833296D02*
X225391561Y-77833296D01*
X223691561Y-77833296D02*
X223691561Y-80383296D01*
%TO.C,R1*%
X128570000Y-35456359D02*
X128570000Y-35763641D01*
X129330000Y-35456359D02*
X129330000Y-35763641D01*
%TO.C,D20*%
X242391553Y-43833312D02*
X242391553Y-46383312D01*
X240691553Y-43833312D02*
X240691553Y-46383312D01*
X240691553Y-43833312D02*
X242391553Y-43833312D01*
%TO.C,D38*%
X206691569Y-77833296D02*
X206691569Y-80383296D01*
X206691569Y-77833296D02*
X208391569Y-77833296D01*
X208391569Y-77833296D02*
X208391569Y-80383296D01*
%TO.C,D2*%
X106391617Y-26833320D02*
X106391617Y-29383320D01*
X104691617Y-26833320D02*
X106391617Y-26833320D01*
X104691617Y-26833320D02*
X104691617Y-29383320D01*
%TD*%
M02*
