%TF.GenerationSoftware,KiCad,Pcbnew,(6.0.4-0)*%
%TF.CreationDate,2022-10-11T18:59:23-05:00*%
%TF.ProjectId,bancouver40_cfx,62616e63-6f75-4766-9572-34305f636678,rev?*%
%TF.SameCoordinates,Original*%
%TF.FileFunction,Soldermask,Bot*%
%TF.FilePolarity,Negative*%
%FSLAX46Y46*%
G04 Gerber Fmt 4.6, Leading zero omitted, Abs format (unit mm)*
G04 Created by KiCad (PCBNEW (6.0.4-0)) date 2022-10-11 18:59:23*
%MOMM*%
%LPD*%
G01*
G04 APERTURE LIST*
G04 Aperture macros list*
%AMRoundRect*
0 Rectangle with rounded corners*
0 $1 Rounding radius*
0 $2 $3 $4 $5 $6 $7 $8 $9 X,Y pos of 4 corners*
0 Add a 4 corners polygon primitive as box body*
4,1,4,$2,$3,$4,$5,$6,$7,$8,$9,$2,$3,0*
0 Add four circle primitives for the rounded corners*
1,1,$1+$1,$2,$3*
1,1,$1+$1,$4,$5*
1,1,$1+$1,$6,$7*
1,1,$1+$1,$8,$9*
0 Add four rect primitives between the rounded corners*
20,1,$1+$1,$2,$3,$4,$5,0*
20,1,$1+$1,$4,$5,$6,$7,0*
20,1,$1+$1,$6,$7,$8,$9,0*
20,1,$1+$1,$8,$9,$2,$3,0*%
%AMRotRect*
0 Rectangle, with rotation*
0 The origin of the aperture is its center*
0 $1 length*
0 $2 width*
0 $3 Rotation angle, in degrees counterclockwise*
0 Add horizontal line*
21,1,$1,$2,0,0,$3*%
G04 Aperture macros list end*
%ADD10C,3.429000*%
%ADD11C,1.701800*%
%ADD12C,3.000000*%
%ADD13C,0.990600*%
%ADD14R,2.600000X2.600000*%
%ADD15C,2.200000*%
%ADD16R,0.450000X0.600000*%
%ADD17RoundRect,0.140000X0.219203X0.021213X0.021213X0.219203X-0.219203X-0.021213X-0.021213X-0.219203X0*%
%ADD18RoundRect,0.135000X-0.185000X0.135000X-0.185000X-0.135000X0.185000X-0.135000X0.185000X0.135000X0*%
%ADD19RoundRect,0.140000X0.021213X-0.219203X0.219203X-0.021213X-0.021213X0.219203X-0.219203X0.021213X0*%
%ADD20RoundRect,0.062500X0.291682X0.380070X-0.380070X-0.291682X-0.291682X-0.380070X0.380070X0.291682X0*%
%ADD21RoundRect,0.062500X-0.291682X0.380070X-0.380070X0.291682X0.291682X-0.380070X0.380070X-0.291682X0*%
%ADD22RotRect,5.200000X5.200000X225.000000*%
%ADD23RoundRect,0.140000X-0.140000X-0.170000X0.140000X-0.170000X0.140000X0.170000X-0.140000X0.170000X0*%
%ADD24R,1.200000X1.400000*%
%ADD25RoundRect,0.140000X-0.021213X0.219203X-0.219203X0.021213X0.021213X-0.219203X0.219203X-0.021213X0*%
%ADD26RoundRect,0.135000X0.135000X0.185000X-0.135000X0.185000X-0.135000X-0.185000X0.135000X-0.185000X0*%
%ADD27R,1.800000X1.100000*%
%ADD28RoundRect,0.135000X-0.135000X-0.185000X0.135000X-0.185000X0.135000X0.185000X-0.135000X0.185000X0*%
%ADD29RoundRect,0.140000X0.140000X0.170000X-0.140000X0.170000X-0.140000X-0.170000X0.140000X-0.170000X0*%
%ADD30C,0.650000*%
%ADD31R,0.300000X1.150000*%
%ADD32O,1.000000X2.100000*%
%ADD33O,1.000000X1.600000*%
%ADD34RoundRect,0.250000X-0.625000X0.375000X-0.625000X-0.375000X0.625000X-0.375000X0.625000X0.375000X0*%
%ADD35RoundRect,0.140000X-0.219203X-0.021213X-0.021213X-0.219203X0.219203X0.021213X0.021213X0.219203X0*%
G04 APERTURE END LIST*
D10*
%TO.C,SW25*%
X150874929Y-57374973D03*
D11*
X156374929Y-57374973D03*
D12*
X150874929Y-63324973D03*
D11*
X145374929Y-57374973D03*
D12*
X145874929Y-61124973D03*
D13*
X156094929Y-53174973D03*
D14*
X154149929Y-63324973D03*
X142599929Y-61124973D03*
%TD*%
D11*
%TO.C,SW17*%
X190374913Y-40374981D03*
D12*
X184874913Y-46324981D03*
D11*
X179374913Y-40374981D03*
D12*
X179874913Y-44124981D03*
D10*
X184874913Y-40374981D03*
D13*
X190094913Y-36174981D03*
D14*
X188149913Y-46324981D03*
X176599913Y-44124981D03*
%TD*%
D12*
%TO.C,SW23*%
X116874945Y-63324973D03*
D10*
X116874945Y-57374973D03*
D11*
X111374945Y-57374973D03*
D12*
X111874945Y-61124973D03*
D11*
X122374945Y-57374973D03*
D13*
X122094945Y-53174973D03*
D14*
X120149945Y-63324973D03*
X108599945Y-61124973D03*
%TD*%
D11*
%TO.C,SW26*%
X173374921Y-57374973D03*
D12*
X167874921Y-63324973D03*
X162874921Y-61124973D03*
D13*
X173094921Y-53174973D03*
D10*
X167874921Y-57374973D03*
D11*
X162374921Y-57374973D03*
D14*
X171149921Y-63324973D03*
X159599921Y-61124973D03*
%TD*%
D10*
%TO.C,SW13*%
X116874945Y-40374981D03*
D11*
X111374945Y-40374981D03*
D13*
X122094945Y-36174981D03*
D12*
X111874945Y-44124981D03*
D11*
X122374945Y-40374981D03*
D12*
X116874945Y-46324981D03*
D14*
X120149945Y-46324981D03*
X108599945Y-44124981D03*
%TD*%
D15*
%TO.C,H4*%
X227374893Y-48874977D03*
%TD*%
D12*
%TO.C,SW20*%
X230874889Y-44124981D03*
D11*
X241374889Y-40374981D03*
X230374889Y-40374981D03*
D12*
X235874889Y-46324981D03*
D10*
X235874889Y-40374981D03*
D13*
X241094889Y-36174981D03*
D14*
X239149889Y-46324981D03*
X227599889Y-44124981D03*
%TD*%
D11*
%TO.C,SW16*%
X162374921Y-40374981D03*
X173374921Y-40374981D03*
D13*
X173094921Y-36174981D03*
D12*
X162874921Y-44124981D03*
X167874921Y-46324981D03*
D10*
X167874921Y-40374981D03*
D14*
X171149921Y-46324981D03*
X159599921Y-44124981D03*
%TD*%
D12*
%TO.C,SW4*%
X128874937Y-27124989D03*
X133874937Y-29324989D03*
D10*
X133874937Y-23374989D03*
D13*
X139094937Y-19174989D03*
D11*
X128374937Y-23374989D03*
X139374937Y-23374989D03*
D14*
X137149937Y-29324989D03*
X125599937Y-27124989D03*
%TD*%
D10*
%TO.C,SW1*%
X82874961Y-23374989D03*
D12*
X82874961Y-17424989D03*
X87874961Y-19624989D03*
D11*
X77374961Y-23374989D03*
X88374961Y-23374989D03*
D13*
X77654961Y-27574989D03*
D14*
X79599961Y-17424989D03*
X91149961Y-19624989D03*
%TD*%
D12*
%TO.C,SW29*%
X218874897Y-63324973D03*
D10*
X218874897Y-57374973D03*
D11*
X224374897Y-57374973D03*
D13*
X224094897Y-53174973D03*
D11*
X213374897Y-57374973D03*
D12*
X213874897Y-61124973D03*
D14*
X222149897Y-63324973D03*
X210599897Y-61124973D03*
%TD*%
D12*
%TO.C,SW15*%
X150874929Y-46324981D03*
D11*
X156374929Y-40374981D03*
D13*
X156094929Y-36174981D03*
D11*
X145374929Y-40374981D03*
D12*
X145874929Y-44124981D03*
D10*
X150874929Y-40374981D03*
D14*
X154149929Y-46324981D03*
X142599929Y-44124981D03*
%TD*%
D11*
%TO.C,SW34*%
X139374937Y-74374965D03*
D13*
X139094937Y-70174965D03*
D10*
X133874937Y-74374965D03*
D11*
X128374937Y-74374965D03*
D12*
X133874937Y-80324965D03*
X128874937Y-78124965D03*
D14*
X137149937Y-80324965D03*
X125599937Y-78124965D03*
%TD*%
D10*
%TO.C,SW6*%
X167874921Y-23374989D03*
D12*
X167874921Y-29324989D03*
D11*
X173374921Y-23374989D03*
D12*
X162874921Y-27124989D03*
D13*
X173094921Y-19174989D03*
D11*
X162374921Y-23374989D03*
D14*
X171149921Y-29324989D03*
X159599921Y-27124989D03*
%TD*%
D13*
%TO.C,SW10*%
X241094889Y-19174989D03*
D12*
X230874889Y-27124989D03*
D10*
X235874889Y-23374989D03*
D12*
X235874889Y-29324989D03*
D11*
X230374889Y-23374989D03*
X241374889Y-23374989D03*
D14*
X239149889Y-29324989D03*
X227599889Y-27124989D03*
%TD*%
D13*
%TO.C,SW33*%
X122094945Y-70174965D03*
D12*
X111874945Y-78124965D03*
D11*
X122374945Y-74374965D03*
D10*
X116874945Y-74374965D03*
D12*
X116874945Y-80324965D03*
D11*
X111374945Y-74374965D03*
D14*
X120149945Y-80324965D03*
X108599945Y-78124965D03*
%TD*%
D13*
%TO.C,SW27*%
X190094913Y-53174973D03*
D11*
X190374913Y-57374973D03*
D12*
X184874913Y-63324973D03*
D11*
X179374913Y-57374973D03*
D10*
X184874913Y-57374973D03*
D12*
X179874913Y-61124973D03*
D14*
X188149913Y-63324973D03*
X176599913Y-61124973D03*
%TD*%
D11*
%TO.C,SW30*%
X230374889Y-57374973D03*
X241374889Y-57374973D03*
D13*
X241094889Y-53174973D03*
D12*
X230874889Y-61124973D03*
X235874889Y-63324973D03*
D10*
X235874889Y-57374973D03*
D14*
X239149889Y-63324973D03*
X227599889Y-61124973D03*
%TD*%
D15*
%TO.C,H5*%
X125374941Y-65874969D03*
%TD*%
%TO.C,H2*%
X193374909Y-31874985D03*
%TD*%
D11*
%TO.C,SW7*%
X190374913Y-23374989D03*
D12*
X184874913Y-29324989D03*
X179874913Y-27124989D03*
D11*
X179374913Y-23374989D03*
D10*
X184874913Y-23374989D03*
D13*
X190094913Y-19174989D03*
D14*
X188149913Y-29324989D03*
X176599913Y-27124989D03*
%TD*%
D12*
%TO.C,SW19*%
X213874897Y-44124981D03*
X218874897Y-46324981D03*
D10*
X218874897Y-40374981D03*
D11*
X213374897Y-40374981D03*
X224374897Y-40374981D03*
D13*
X224094897Y-36174981D03*
D14*
X222149897Y-46324981D03*
X210599897Y-44124981D03*
%TD*%
D12*
%TO.C,SW40*%
X235874889Y-80324965D03*
D10*
X235874889Y-74374965D03*
D13*
X241094889Y-70174965D03*
D11*
X230374889Y-74374965D03*
X241374889Y-74374965D03*
D12*
X230874889Y-78124965D03*
D14*
X239149889Y-80324965D03*
X227599889Y-78124965D03*
%TD*%
D15*
%TO.C,H6*%
X193374909Y-65874969D03*
%TD*%
D11*
%TO.C,SW24*%
X139374937Y-57374973D03*
D13*
X139094937Y-53174973D03*
D12*
X128874937Y-61124973D03*
D10*
X133874937Y-57374973D03*
D12*
X133874937Y-63324973D03*
D11*
X128374937Y-57374973D03*
D14*
X137149937Y-63324973D03*
X125599937Y-61124973D03*
%TD*%
D12*
%TO.C,SW32*%
X99874953Y-80324965D03*
X94874953Y-78124965D03*
D11*
X105374953Y-74374965D03*
D10*
X99874953Y-74374965D03*
D13*
X105094953Y-70174965D03*
D11*
X94374953Y-74374965D03*
D14*
X103149953Y-80324965D03*
X91599953Y-78124965D03*
%TD*%
D12*
%TO.C,SW5*%
X150874929Y-29324989D03*
D10*
X150874929Y-23374989D03*
D13*
X156094929Y-19174989D03*
D11*
X156374929Y-23374989D03*
X145374929Y-23374989D03*
D12*
X145874929Y-27124989D03*
D14*
X154149929Y-29324989D03*
X142599929Y-27124989D03*
%TD*%
D11*
%TO.C,SW31*%
X88374961Y-74374965D03*
D12*
X87874961Y-70624965D03*
D10*
X82874961Y-74374965D03*
D11*
X77374961Y-74374965D03*
D13*
X77654961Y-78574965D03*
D12*
X82874961Y-68424965D03*
D14*
X79599961Y-68424965D03*
X91149961Y-70624965D03*
%TD*%
D12*
%TO.C,SW38*%
X201874905Y-80324965D03*
D13*
X207094905Y-70174965D03*
D10*
X201874905Y-74374965D03*
D11*
X196374905Y-74374965D03*
D12*
X196874905Y-78124965D03*
D11*
X207374905Y-74374965D03*
D14*
X205149905Y-80324965D03*
X193599905Y-78124965D03*
%TD*%
D11*
%TO.C,SW35*%
X145374929Y-74374965D03*
D10*
X150874929Y-74374965D03*
D11*
X156374929Y-74374965D03*
D12*
X145874929Y-78124965D03*
X150874929Y-80324965D03*
D13*
X156094929Y-70174965D03*
D14*
X154149929Y-80324965D03*
X142599929Y-78124965D03*
%TD*%
D13*
%TO.C,SW18*%
X207094905Y-36174981D03*
D11*
X196374905Y-40374981D03*
X207374905Y-40374981D03*
D12*
X201874905Y-46324981D03*
D10*
X201874905Y-40374981D03*
D12*
X196874905Y-44124981D03*
D14*
X205149905Y-46324981D03*
X193599905Y-44124981D03*
%TD*%
D12*
%TO.C,SW3*%
X116874945Y-29324989D03*
D11*
X111374945Y-23374989D03*
D12*
X111874945Y-27124989D03*
D11*
X122374945Y-23374989D03*
D13*
X122094945Y-19174989D03*
D10*
X116874945Y-23374989D03*
D14*
X120149945Y-29324989D03*
X108599945Y-27124989D03*
%TD*%
D10*
%TO.C,SW9*%
X218874897Y-23374989D03*
D11*
X224374897Y-23374989D03*
X213374897Y-23374989D03*
D12*
X218874897Y-29324989D03*
X213874897Y-27124989D03*
D13*
X224094897Y-19174989D03*
D14*
X222149897Y-29324989D03*
X210599897Y-27124989D03*
%TD*%
D13*
%TO.C,SW14*%
X139094937Y-36174981D03*
D11*
X128374937Y-40374981D03*
X139374937Y-40374981D03*
D12*
X128874937Y-44124981D03*
D10*
X133874937Y-40374981D03*
D12*
X133874937Y-46324981D03*
D14*
X137149937Y-46324981D03*
X125599937Y-44124981D03*
%TD*%
D12*
%TO.C,SW21*%
X87874961Y-53624973D03*
X82874961Y-51424973D03*
D11*
X77374961Y-57374973D03*
X88374961Y-57374973D03*
D10*
X82874961Y-57374973D03*
D13*
X77654961Y-61574973D03*
D14*
X79599961Y-51424973D03*
X91149961Y-53624973D03*
%TD*%
D12*
%TO.C,SW2*%
X94874953Y-27124989D03*
D10*
X99874953Y-23374989D03*
D13*
X105094953Y-19174989D03*
D12*
X99874953Y-29324989D03*
D11*
X94374953Y-23374989D03*
X105374953Y-23374989D03*
D14*
X103149953Y-29324989D03*
X91599953Y-27124989D03*
%TD*%
D12*
%TO.C,SW12*%
X94874953Y-44124981D03*
D13*
X105094953Y-36174981D03*
D12*
X99874953Y-46324981D03*
D10*
X99874953Y-40374981D03*
D11*
X105374953Y-40374981D03*
X94374953Y-40374981D03*
D14*
X103149953Y-46324981D03*
X91599953Y-44124981D03*
%TD*%
D12*
%TO.C,SW36*%
X162874921Y-78124965D03*
D11*
X173374921Y-74374965D03*
D12*
X167874921Y-80324965D03*
D10*
X167874921Y-74374965D03*
D13*
X173094921Y-70174965D03*
D11*
X162374921Y-74374965D03*
D14*
X171149921Y-80324965D03*
X159599921Y-78124965D03*
%TD*%
D11*
%TO.C,SW22*%
X94374953Y-57374973D03*
D12*
X99874953Y-63324973D03*
D13*
X105094953Y-53174973D03*
D11*
X105374953Y-57374973D03*
D10*
X99874953Y-57374973D03*
D12*
X94874953Y-61124973D03*
D14*
X103149953Y-63324973D03*
X91599953Y-61124973D03*
%TD*%
D11*
%TO.C,SW28*%
X196374905Y-57374973D03*
X207374905Y-57374973D03*
D12*
X201874905Y-63324973D03*
D13*
X207094905Y-53174973D03*
D12*
X196874905Y-61124973D03*
D10*
X201874905Y-57374973D03*
D14*
X205149905Y-63324973D03*
X193599905Y-61124973D03*
%TD*%
D15*
%TO.C,H3*%
X91374957Y-48874977D03*
%TD*%
D11*
%TO.C,SW37*%
X179374913Y-74374965D03*
D10*
X184874913Y-74374965D03*
D12*
X179874913Y-78124965D03*
X184874913Y-80324965D03*
D11*
X190374913Y-74374965D03*
D13*
X190094913Y-70174965D03*
D14*
X188149913Y-80324965D03*
X176599913Y-78124965D03*
%TD*%
D11*
%TO.C,SW11*%
X88374961Y-40374981D03*
X77374961Y-40374981D03*
D12*
X87874961Y-36624981D03*
D13*
X77654961Y-44574981D03*
D12*
X82874961Y-34424981D03*
D10*
X82874961Y-40374981D03*
D14*
X79599961Y-34424981D03*
X91149961Y-36624981D03*
%TD*%
D13*
%TO.C,SW39*%
X224094897Y-70174965D03*
D12*
X213874897Y-78124965D03*
X218874897Y-80324965D03*
D11*
X213374897Y-74374965D03*
D10*
X218874897Y-74374965D03*
D11*
X224374897Y-74374965D03*
D14*
X222149897Y-80324965D03*
X210599897Y-78124965D03*
%TD*%
D15*
%TO.C,H1*%
X125374941Y-31874985D03*
%TD*%
D10*
%TO.C,SW8*%
X201874905Y-23374989D03*
D12*
X201874905Y-29324989D03*
D13*
X207094905Y-19174989D03*
D12*
X196874905Y-27124989D03*
D11*
X196374905Y-23374989D03*
X207374905Y-23374989D03*
D14*
X205149905Y-29324989D03*
X193599905Y-27124989D03*
%TD*%
D16*
%TO.C,D35*%
X156541593Y-78283296D03*
X156541593Y-80383296D03*
%TD*%
%TO.C,D31*%
X88541625Y-78283296D03*
X88541625Y-80383296D03*
%TD*%
%TO.C,D30*%
X241541553Y-61283304D03*
X241541553Y-63383304D03*
%TD*%
%TO.C,D34*%
X139541601Y-78283296D03*
X139541601Y-80383296D03*
%TD*%
D17*
%TO.C,C5*%
X105839411Y-33089411D03*
X105160589Y-32410589D03*
%TD*%
D18*
%TO.C,R4*%
X114250000Y-23240000D03*
X114250000Y-24260000D03*
%TD*%
D16*
%TO.C,D11*%
X88541625Y-44283312D03*
X88541625Y-46383312D03*
%TD*%
%TO.C,D8*%
X207541569Y-27283320D03*
X207541569Y-29383320D03*
%TD*%
%TO.C,D22*%
X105541617Y-61283304D03*
X105541617Y-63383304D03*
%TD*%
%TO.C,D24*%
X139541601Y-61283304D03*
X139541601Y-63383304D03*
%TD*%
D19*
%TO.C,C4*%
X116660589Y-36539411D03*
X117339411Y-35860589D03*
%TD*%
D20*
%TO.C,U1*%
X111800483Y-30580581D03*
X112154036Y-30934135D03*
X112507590Y-31287688D03*
X112861143Y-31641241D03*
X113214696Y-31994795D03*
X113568250Y-32348348D03*
X113921803Y-32701902D03*
X114275357Y-33055455D03*
X114628910Y-33409008D03*
X114982463Y-33762562D03*
X115336017Y-34116115D03*
D21*
X115336017Y-35300519D03*
X114982463Y-35654072D03*
X114628910Y-36007626D03*
X114275357Y-36361179D03*
X113921803Y-36714732D03*
X113568250Y-37068286D03*
X113214696Y-37421839D03*
X112861143Y-37775393D03*
X112507590Y-38128946D03*
X112154036Y-38482499D03*
X111800483Y-38836053D03*
D20*
X110616079Y-38836053D03*
X110262526Y-38482499D03*
X109908972Y-38128946D03*
X109555419Y-37775393D03*
X109201866Y-37421839D03*
X108848312Y-37068286D03*
X108494759Y-36714732D03*
X108141205Y-36361179D03*
X107787652Y-36007626D03*
X107434099Y-35654072D03*
X107080545Y-35300519D03*
D21*
X107080545Y-34116115D03*
X107434099Y-33762562D03*
X107787652Y-33409008D03*
X108141205Y-33055455D03*
X108494759Y-32701902D03*
X108848312Y-32348348D03*
X109201866Y-31994795D03*
X109555419Y-31641241D03*
X109908972Y-31287688D03*
X110262526Y-30934135D03*
X110616079Y-30580581D03*
D22*
X111208281Y-34708317D03*
%TD*%
D16*
%TO.C,D27*%
X190541577Y-61283304D03*
X190541577Y-63383304D03*
%TD*%
%TO.C,D4*%
X139541601Y-27283320D03*
X139541601Y-29383320D03*
%TD*%
%TO.C,D40*%
X241541553Y-78283296D03*
X241541553Y-80383296D03*
%TD*%
%TO.C,D29*%
X224541561Y-61283304D03*
X224541561Y-63383304D03*
%TD*%
%TO.C,D28*%
X207541569Y-61283304D03*
X207541569Y-63383304D03*
%TD*%
%TO.C,D33*%
X122541609Y-78283296D03*
X122541609Y-80383296D03*
%TD*%
%TO.C,D15*%
X156541593Y-44283312D03*
X156541593Y-46383312D03*
%TD*%
%TO.C,D9*%
X224541561Y-27283320D03*
X224541561Y-29383320D03*
%TD*%
%TO.C,D21*%
X88541625Y-61283304D03*
X88541625Y-63383304D03*
%TD*%
D23*
%TO.C,C2*%
X119520000Y-34000000D03*
X120480000Y-34000000D03*
%TD*%
D24*
%TO.C,Y1*%
X118900000Y-37850000D03*
X118900000Y-35650000D03*
X120600000Y-35650000D03*
X120600000Y-37850000D03*
%TD*%
D16*
%TO.C,D32*%
X105541617Y-78283296D03*
X105541617Y-80383296D03*
%TD*%
D18*
%TO.C,R5*%
X113000000Y-23240000D03*
X113000000Y-24260000D03*
%TD*%
D16*
%TO.C,D19*%
X224541561Y-44283312D03*
X224541561Y-46383312D03*
%TD*%
%TO.C,D10*%
X241541553Y-27283320D03*
X241541553Y-29383320D03*
%TD*%
%TO.C,D14*%
X139541601Y-44283312D03*
X139541601Y-46383312D03*
%TD*%
%TO.C,D6*%
X173541585Y-27283320D03*
X173541585Y-29383320D03*
%TD*%
D25*
%TO.C,C7*%
X109689411Y-29535589D03*
X109010589Y-30214411D03*
%TD*%
D16*
%TO.C,D18*%
X207541569Y-44283312D03*
X207541569Y-46383312D03*
%TD*%
D26*
%TO.C,R6*%
X104760000Y-35000000D03*
X103740000Y-35000000D03*
%TD*%
D16*
%TO.C,D16*%
X173541585Y-44283312D03*
X173541585Y-46383312D03*
%TD*%
%TO.C,D13*%
X122541609Y-44283312D03*
X122541609Y-46383312D03*
%TD*%
%TO.C,D25*%
X156541593Y-61283304D03*
X156541593Y-63383304D03*
%TD*%
D27*
%TO.C,B1*%
X136940000Y-33820000D03*
X130740000Y-33820000D03*
X136940000Y-37520000D03*
X130740000Y-37520000D03*
%TD*%
D16*
%TO.C,D26*%
X173541585Y-61283304D03*
X173541585Y-63383304D03*
%TD*%
%TO.C,D1*%
X88541625Y-27283320D03*
X88541625Y-29383320D03*
%TD*%
%TO.C,D3*%
X122541609Y-27283320D03*
X122541609Y-29383320D03*
%TD*%
D23*
%TO.C,C6*%
X108831615Y-40374981D03*
X109791615Y-40374981D03*
%TD*%
D16*
%TO.C,D7*%
X190541577Y-27283320D03*
X190541577Y-29383320D03*
%TD*%
D28*
%TO.C,R3*%
X116990000Y-21000000D03*
X118010000Y-21000000D03*
%TD*%
D16*
%TO.C,D23*%
X122541609Y-61283304D03*
X122541609Y-63383304D03*
%TD*%
D29*
%TO.C,C1*%
X120730000Y-39500000D03*
X119770000Y-39500000D03*
%TD*%
D16*
%TO.C,D17*%
X190541577Y-44283312D03*
X190541577Y-46383312D03*
%TD*%
D30*
%TO.C,J1*%
X108318281Y-19604992D03*
X114098281Y-19604992D03*
D31*
X107858281Y-20669992D03*
X108658281Y-20669992D03*
X109958281Y-20669992D03*
X110958281Y-20669992D03*
X111458281Y-20669992D03*
X112458281Y-20669992D03*
X113758281Y-20669992D03*
X114558281Y-20669992D03*
X114258281Y-20669992D03*
X113458281Y-20669992D03*
X112958281Y-20669992D03*
X111958281Y-20669992D03*
X110458281Y-20669992D03*
X109458281Y-20669992D03*
X108958281Y-20669992D03*
X108158281Y-20669992D03*
D32*
X106888281Y-20104992D03*
D33*
X106888281Y-15924992D03*
X115528281Y-15924992D03*
D32*
X115528281Y-20104992D03*
%TD*%
D16*
%TO.C,D12*%
X105541617Y-44283312D03*
X105541617Y-46383312D03*
%TD*%
%TO.C,D5*%
X156541593Y-27283320D03*
X156541593Y-29383320D03*
%TD*%
%TO.C,D37*%
X190541577Y-78283296D03*
X190541577Y-80383296D03*
%TD*%
%TO.C,D36*%
X173541585Y-78283296D03*
X173541585Y-80383296D03*
%TD*%
D34*
%TO.C,F1*%
X103000000Y-22600000D03*
X103000000Y-25400000D03*
%TD*%
D35*
%TO.C,C3*%
X117140589Y-31980589D03*
X117819411Y-32659411D03*
%TD*%
D18*
%TO.C,R2*%
X107750000Y-22480000D03*
X107750000Y-23500000D03*
%TD*%
D16*
%TO.C,D39*%
X224541561Y-78283296D03*
X224541561Y-80383296D03*
%TD*%
D18*
%TO.C,R1*%
X128950000Y-35100000D03*
X128950000Y-36120000D03*
%TD*%
D16*
%TO.C,D20*%
X241541553Y-44283312D03*
X241541553Y-46383312D03*
%TD*%
%TO.C,D38*%
X207541569Y-78283296D03*
X207541569Y-80383296D03*
%TD*%
%TO.C,D2*%
X105541617Y-27283320D03*
X105541617Y-29383320D03*
%TD*%
M02*
