M48
METRIC,TZ
T1C0.650
T2C0.991
T3C1.702
T4C2.200
T5C3.000
T6C3.429
%
G90
G05
T1
X108318Y-19605
X114098Y-19605
T2
X77655Y-27575
X77655Y-44575
X77655Y-61575
X77655Y-78575
X105095Y-19175
X105095Y-36175
X105095Y-53175
X105095Y-70175
X122095Y-19175
X122095Y-36175
X122095Y-53175
X122095Y-70175
X139095Y-19175
X139095Y-36175
X139095Y-53175
X139095Y-70175
X156095Y-19175
X156095Y-36175
X156095Y-53175
X156095Y-70175
X173095Y-19175
X173095Y-36175
X173095Y-53175
X173095Y-70175
X190095Y-19175
X190095Y-36175
X190095Y-53175
X190095Y-70175
X207095Y-19175
X207095Y-36175
X207095Y-53175
X207095Y-70175
X224095Y-19175
X224095Y-36175
X224095Y-53175
X224095Y-70175
X241095Y-19175
X241095Y-36175
X241095Y-53175
X241095Y-70175
T3
X77375Y-23375
X77375Y-40375
X77375Y-57375
X77375Y-74375
X88375Y-23375
X88375Y-40375
X88375Y-57375
X88375Y-74375
X94375Y-23375
X94375Y-40375
X94375Y-57375
X94375Y-74375
X105375Y-23375
X105375Y-40375
X105375Y-57375
X105375Y-74375
X111375Y-23375
X111375Y-40375
X111375Y-57375
X111375Y-74375
X122375Y-23375
X122375Y-40375
X122375Y-57375
X122375Y-74375
X128375Y-23375
X128375Y-40375
X128375Y-57375
X128375Y-74375
X139375Y-23375
X139375Y-40375
X139375Y-57375
X139375Y-74375
X145375Y-23375
X145375Y-40375
X145375Y-57375
X145375Y-74375
X156375Y-23375
X156375Y-40375
X156375Y-57375
X156375Y-74375
X162375Y-23375
X162375Y-40375
X162375Y-57375
X162375Y-74375
X173375Y-23375
X173375Y-40375
X173375Y-57375
X173375Y-74375
X179375Y-23375
X179375Y-40375
X179375Y-57375
X179375Y-74375
X190375Y-23375
X190375Y-40375
X190375Y-57375
X190375Y-74375
X196375Y-23375
X196375Y-40375
X196375Y-57375
X196375Y-74375
X207375Y-23375
X207375Y-40375
X207375Y-57375
X207375Y-74375
X213375Y-23375
X213375Y-40375
X213375Y-57375
X213375Y-74375
X224375Y-23375
X224375Y-40375
X224375Y-57375
X224375Y-74375
X230375Y-23375
X230375Y-40375
X230375Y-57375
X230375Y-74375
X241375Y-23375
X241375Y-40375
X241375Y-57375
X241375Y-74375
T4
X91375Y-48875
X125375Y-31875
X125375Y-65875
X193375Y-31875
X193375Y-65875
X227375Y-48875
T5
X82875Y-17425
X82875Y-34425
X82875Y-51425
X82875Y-68425
X87875Y-19625
X87875Y-36625
X87875Y-53625
X87875Y-70625
X94875Y-27125
X94875Y-44125
X94875Y-61125
X94875Y-78125
X99875Y-29325
X99875Y-46325
X99875Y-63325
X99875Y-80325
X111875Y-27125
X111875Y-44125
X111875Y-61125
X111875Y-78125
X116875Y-29325
X116875Y-46325
X116875Y-63325
X116875Y-80325
X128875Y-27125
X128875Y-44125
X128875Y-61125
X128875Y-78125
X133875Y-29325
X133875Y-46325
X133875Y-63325
X133875Y-80325
X145875Y-27125
X145875Y-44125
X145875Y-61125
X145875Y-78125
X150875Y-29325
X150875Y-46325
X150875Y-63325
X150875Y-80325
X162875Y-27125
X162875Y-44125
X162875Y-61125
X162875Y-78125
X167875Y-29325
X167875Y-46325
X167875Y-63325
X167875Y-80325
X179875Y-27125
X179875Y-44125
X179875Y-61125
X179875Y-78125
X184875Y-29325
X184875Y-46325
X184875Y-63325
X184875Y-80325
X196875Y-27125
X196875Y-44125
X196875Y-61125
X196875Y-78125
X201875Y-29325
X201875Y-46325
X201875Y-63325
X201875Y-80325
X213875Y-27125
X213875Y-44125
X213875Y-61125
X213875Y-78125
X218875Y-29325
X218875Y-46325
X218875Y-63325
X218875Y-80325
X230875Y-27125
X230875Y-44125
X230875Y-61125
X230875Y-78125
X235875Y-29325
X235875Y-46325
X235875Y-63325
X235875Y-80325
T6
X82875Y-23375
X82875Y-40375
X82875Y-57375
X82875Y-74375
X99875Y-23375
X99875Y-40375
X99875Y-57375
X99875Y-74375
X116875Y-23375
X116875Y-40375
X116875Y-57375
X116875Y-74375
X133875Y-23375
X133875Y-40375
X133875Y-57375
X133875Y-74375
X150875Y-23375
X150875Y-40375
X150875Y-57375
X150875Y-74375
X167875Y-23375
X167875Y-40375
X167875Y-57375
X167875Y-74375
X184875Y-23375
X184875Y-40375
X184875Y-57375
X184875Y-74375
X201875Y-23375
X201875Y-40375
X201875Y-57375
X201875Y-74375
X218875Y-23375
X218875Y-40375
X218875Y-57375
X218875Y-74375
X235875Y-23375
X235875Y-40375
X235875Y-57375
X235875Y-74375
T0
M30
