M48
METRIC
T1C0.650
T2C0.991
T3C1.702
T4C2.200
T5C3.000
T6C3.429
%
G90
G05
T1
X108.318Y-19.605
X114.098Y-19.605
T2
X77.655Y-27.575
X77.655Y-44.575
X77.655Y-61.575
X77.655Y-78.575
X105.095Y-19.175
X105.095Y-36.175
X105.095Y-53.175
X105.095Y-70.175
X122.095Y-19.175
X122.095Y-36.175
X122.095Y-53.175
X122.095Y-70.175
X139.095Y-19.175
X139.095Y-36.175
X139.095Y-53.175
X139.095Y-70.175
X156.095Y-19.175
X156.095Y-36.175
X156.095Y-53.175
X156.095Y-70.175
X173.095Y-19.175
X173.095Y-36.175
X173.095Y-53.175
X173.095Y-70.175
X190.095Y-19.175
X190.095Y-36.175
X190.095Y-53.175
X190.095Y-70.175
X207.095Y-19.175
X207.095Y-36.175
X207.095Y-53.175
X207.095Y-70.175
X224.095Y-19.175
X224.095Y-36.175
X224.095Y-53.175
X224.095Y-70.175
X241.095Y-19.175
X241.095Y-36.175
X241.095Y-53.175
X241.095Y-70.175
T3
X77.375Y-23.375
X77.375Y-40.375
X77.375Y-57.375
X77.375Y-74.375
X88.375Y-23.375
X88.375Y-40.375
X88.375Y-57.375
X88.375Y-74.375
X94.375Y-23.375
X94.375Y-40.375
X94.375Y-57.375
X94.375Y-74.375
X105.375Y-23.375
X105.375Y-40.375
X105.375Y-57.375
X105.375Y-74.375
X111.375Y-23.375
X111.375Y-40.375
X111.375Y-57.375
X111.375Y-74.375
X122.375Y-23.375
X122.375Y-40.375
X122.375Y-57.375
X122.375Y-74.375
X128.375Y-23.375
X128.375Y-40.375
X128.375Y-57.375
X128.375Y-74.375
X139.375Y-23.375
X139.375Y-40.375
X139.375Y-57.375
X139.375Y-74.375
X145.375Y-23.375
X145.375Y-40.375
X145.375Y-57.375
X145.375Y-74.375
X156.375Y-23.375
X156.375Y-40.375
X156.375Y-57.375
X156.375Y-74.375
X162.375Y-23.375
X162.375Y-40.375
X162.375Y-57.375
X162.375Y-74.375
X173.375Y-23.375
X173.375Y-40.375
X173.375Y-57.375
X173.375Y-74.375
X179.375Y-23.375
X179.375Y-40.375
X179.375Y-57.375
X179.375Y-74.375
X190.375Y-23.375
X190.375Y-40.375
X190.375Y-57.375
X190.375Y-74.375
X196.375Y-23.375
X196.375Y-40.375
X196.375Y-57.375
X196.375Y-74.375
X207.375Y-23.375
X207.375Y-40.375
X207.375Y-57.375
X207.375Y-74.375
X213.375Y-23.375
X213.375Y-40.375
X213.375Y-57.375
X213.375Y-74.375
X224.375Y-23.375
X224.375Y-40.375
X224.375Y-57.375
X224.375Y-74.375
X230.375Y-23.375
X230.375Y-40.375
X230.375Y-57.375
X230.375Y-74.375
X241.375Y-23.375
X241.375Y-40.375
X241.375Y-57.375
X241.375Y-74.375
T4
X91.375Y-48.875
X125.375Y-31.875
X125.375Y-65.875
X193.375Y-31.875
X193.375Y-65.875
X227.375Y-48.875
T5
X82.875Y-17.425
X82.875Y-34.425
X82.875Y-51.425
X82.875Y-68.425
X87.875Y-19.625
X87.875Y-36.625
X87.875Y-53.625
X87.875Y-70.625
X94.875Y-27.125
X94.875Y-44.125
X94.875Y-61.125
X94.875Y-78.125
X99.875Y-29.325
X99.875Y-46.325
X99.875Y-63.325
X99.875Y-80.325
X111.875Y-27.125
X111.875Y-44.125
X111.875Y-61.125
X111.875Y-78.125
X116.875Y-29.325
X116.875Y-46.325
X116.875Y-63.325
X116.875Y-80.325
X128.875Y-27.125
X128.875Y-44.125
X128.875Y-61.125
X128.875Y-78.125
X133.875Y-29.325
X133.875Y-46.325
X133.875Y-63.325
X133.875Y-80.325
X145.875Y-27.125
X145.875Y-44.125
X145.875Y-61.125
X145.875Y-78.125
X150.875Y-29.325
X150.875Y-46.325
X150.875Y-63.325
X150.875Y-80.325
X162.875Y-27.125
X162.875Y-44.125
X162.875Y-61.125
X162.875Y-78.125
X167.875Y-29.325
X167.875Y-46.325
X167.875Y-63.325
X167.875Y-80.325
X179.875Y-27.125
X179.875Y-44.125
X179.875Y-61.125
X179.875Y-78.125
X184.875Y-29.325
X184.875Y-46.325
X184.875Y-63.325
X184.875Y-80.325
X196.875Y-27.125
X196.875Y-44.125
X196.875Y-61.125
X196.875Y-78.125
X201.875Y-29.325
X201.875Y-46.325
X201.875Y-63.325
X201.875Y-80.325
X213.875Y-27.125
X213.875Y-44.125
X213.875Y-61.125
X213.875Y-78.125
X218.875Y-29.325
X218.875Y-46.325
X218.875Y-63.325
X218.875Y-80.325
X230.875Y-27.125
X230.875Y-44.125
X230.875Y-61.125
X230.875Y-78.125
X235.875Y-29.325
X235.875Y-46.325
X235.875Y-63.325
X235.875Y-80.325
T6
X82.875Y-23.375
X82.875Y-40.375
X82.875Y-57.375
X82.875Y-74.375
X99.875Y-23.375
X99.875Y-40.375
X99.875Y-57.375
X99.875Y-74.375
X116.875Y-23.375
X116.875Y-40.375
X116.875Y-57.375
X116.875Y-74.375
X133.875Y-23.375
X133.875Y-40.375
X133.875Y-57.375
X133.875Y-74.375
X150.875Y-23.375
X150.875Y-40.375
X150.875Y-57.375
X150.875Y-74.375
X167.875Y-23.375
X167.875Y-40.375
X167.875Y-57.375
X167.875Y-74.375
X184.875Y-23.375
X184.875Y-40.375
X184.875Y-57.375
X184.875Y-74.375
X201.875Y-23.375
X201.875Y-40.375
X201.875Y-57.375
X201.875Y-74.375
X218.875Y-23.375
X218.875Y-40.375
X218.875Y-57.375
X218.875Y-74.375
X235.875Y-23.375
X235.875Y-40.375
X235.875Y-57.375
X235.875Y-74.375
T0
M30
