  0
SECTION
  2
HEADER
  9
$ANGBASE
  50
0.0
  9
$ANGDIR
  70
1
  9
$MEASUREMENT
  70
0
  0
ENDSEC
  0
SECTION
  2
TABLES
  0
TABLE
  2
LTYPE
  70
4
  0
LTYPE
  5
40F
  2
CONTINUOUS
  70
0
  3
Solid line
  72
65
  73
0
  40
0.0
  0
LTYPE
  5
410
  2
DASHDOT
 70
0
  3
Dash Dot ____ _ ____ _
 72
65
 73
4
 40
2.0
 49
1.25
 49
-0.25
 49
0.25
 49
-0.25
  0
LTYPE
  5
411
  2
DASHED
 70
0
  3
Dashed __ __ __ __ __
 72
65
 73
2
 40
0.75
 49
0.5
 49
-0.25
  0
LTYPE
  5
43B
  2
DOTTED
 70
0
  3
Dotted .  .  .  .
 72
65
 73
2
 40
0.2
 49
0.0
 49
-0.2
  0
ENDTAB
  0
TABLE
  2
STYLE
  70
4
  0
STYLE
  2
KICAD
  70
0
  40
0
  41
1
  42
1
  50
0
  71
0
  3
isocp.shx
  0
STYLE
  2
KICADB
  70
0
  40
0
  41
1
  42
1
  50
0
  71
0
  3
isocp.shx
  0
STYLE
  2
KICADI
  70
0
  40
0
  41
1
  42
1
  50
15
  71
0
  3
isocp.shx
  0
STYLE
  2
KICADBI
  70
0
  40
0
  41
1
  42
1
  50
15
  71
0
  3
isocp.shx
  0
ENDTAB
  0
TABLE
  2
LAYER
  70
1
  0
LAYER
  2
BLACK
  70
0
  62
7
  6
CONTINUOUS
  0
ENDTAB
  0
ENDSEC
  0
SECTION
  2
ENTITIES
0
LINE
8
BLACK
6
CONTINUOUS
10
9.46653
20
-3.21358
11
9.36417
21
-3.21358
0
LINE
8
BLACK
6
CONTINUOUS
10
9.36417
20
-3.21358
11
9.36417
21
-3.11122
0
LINE
8
BLACK
6
CONTINUOUS
10
9.36417
20
-3.11122
11
9.46653
21
-3.11122
0
LINE
8
BLACK
6
CONTINUOUS
10
9.46653
20
-3.11122
11
9.46653
21
-3.21358
0
LINE
8
BLACK
6
CONTINUOUS
10
4.1122
20
-3.21358
11
4.00984
21
-3.21358
0
LINE
8
BLACK
6
CONTINUOUS
10
4.00984
20
-3.21358
11
4.00984
21
-3.11122
0
LINE
8
BLACK
6
CONTINUOUS
10
4.00984
20
-3.11122
11
4.1122
21
-3.11122
0
LINE
8
BLACK
6
CONTINUOUS
10
4.1122
20
-3.11122
11
4.1122
21
-3.21358
0
LINE
8
BLACK
6
CONTINUOUS
10
8.12795
20
-3.21358
11
8.02559
21
-3.21358
0
LINE
8
BLACK
6
CONTINUOUS
10
8.02559
20
-3.21358
11
8.02559
21
-3.11122
0
LINE
8
BLACK
6
CONTINUOUS
10
8.02559
20
-3.11122
11
8.12795
21
-3.11122
0
LINE
8
BLACK
6
CONTINUOUS
10
8.12795
20
-3.11122
11
8.12795
21
-3.21358
0
LINE
8
BLACK
6
CONTINUOUS
10
6.12008
20
-3.21358
11
6.01771
21
-3.21358
0
LINE
8
BLACK
6
CONTINUOUS
10
6.01771
20
-3.21358
11
6.01771
21
-3.11122
0
LINE
8
BLACK
6
CONTINUOUS
10
6.01771
20
-3.11122
11
6.12008
21
-3.11122
0
LINE
8
BLACK
6
CONTINUOUS
10
6.12008
20
-3.11122
11
6.12008
21
-3.21358
0
LINE
8
BLACK
6
CONTINUOUS
10
8.79724
20
-3.21358
11
8.69488
21
-3.21358
0
LINE
8
BLACK
6
CONTINUOUS
10
8.69488
20
-3.21358
11
8.69488
21
-3.11122
0
LINE
8
BLACK
6
CONTINUOUS
10
8.69488
20
-3.11122
11
8.79724
21
-3.11122
0
LINE
8
BLACK
6
CONTINUOUS
10
8.79724
20
-3.11122
11
8.79724
21
-3.21358
0
LINE
8
BLACK
6
CONTINUOUS
10
4.78149
20
-3.21358
11
4.67913
21
-3.21358
0
LINE
8
BLACK
6
CONTINUOUS
10
4.67913
20
-3.21358
11
4.67913
21
-3.11122
0
LINE
8
BLACK
6
CONTINUOUS
10
4.67913
20
-3.11122
11
4.78149
21
-3.11122
0
LINE
8
BLACK
6
CONTINUOUS
10
4.78149
20
-3.11122
11
4.78149
21
-3.21358
0
LINE
8
BLACK
6
CONTINUOUS
10
7.45866
20
-3.21358
11
7.3563
21
-3.21358
0
LINE
8
BLACK
6
CONTINUOUS
10
7.3563
20
-3.21358
11
7.3563
21
-3.11122
0
LINE
8
BLACK
6
CONTINUOUS
10
7.3563
20
-3.11122
11
7.45866
21
-3.11122
0
LINE
8
BLACK
6
CONTINUOUS
10
7.45866
20
-3.11122
11
7.45866
21
-3.21358
0
LINE
8
BLACK
6
CONTINUOUS
10
5.45078
20
-3.21358
11
5.34842
21
-3.21358
0
LINE
8
BLACK
6
CONTINUOUS
10
5.34842
20
-3.21358
11
5.34842
21
-3.11122
0
LINE
8
BLACK
6
CONTINUOUS
10
5.34842
20
-3.11122
11
5.45078
21
-3.11122
0
LINE
8
BLACK
6
CONTINUOUS
10
5.45078
20
-3.11122
11
5.45078
21
-3.21358
0
LINE
8
BLACK
6
CONTINUOUS
10
6.78937
20
-3.21358
11
6.687
21
-3.21358
0
LINE
8
BLACK
6
CONTINUOUS
10
6.687
20
-3.21358
11
6.687
21
-3.11122
0
LINE
8
BLACK
6
CONTINUOUS
10
6.687
20
-3.11122
11
6.78937
21
-3.11122
0
LINE
8
BLACK
6
CONTINUOUS
10
6.78937
20
-3.11122
11
6.78937
21
-3.21358
0
LINE
8
BLACK
6
CONTINUOUS
10
5.50262
20
-3.17651
11
5.48491
21
-3.17651
0
LINE
8
BLACK
6
CONTINUOUS
10
5.48491
20
-3.17651
11
5.48491
21
-3.15289
0
LINE
8
BLACK
6
CONTINUOUS
10
5.48491
20
-3.15289
11
5.50262
21
-3.15289
0
LINE
8
BLACK
6
CONTINUOUS
10
5.50262
20
-3.15289
11
5.50262
21
-3.17651
0
LINE
8
BLACK
6
CONTINUOUS
10
3.49475
20
-3.17651
11
3.47703
21
-3.17651
0
LINE
8
BLACK
6
CONTINUOUS
10
3.47703
20
-3.17651
11
3.47703
21
-3.15289
0
LINE
8
BLACK
6
CONTINUOUS
10
3.47703
20
-3.15289
11
3.49475
21
-3.15289
0
LINE
8
BLACK
6
CONTINUOUS
10
3.49475
20
-3.15289
11
3.49475
21
-3.17651
0
LINE
8
BLACK
6
CONTINUOUS
10
7.5105
20
-3.17651
11
7.49278
21
-3.17651
0
LINE
8
BLACK
6
CONTINUOUS
10
7.49278
20
-3.17651
11
7.49278
21
-3.15289
0
LINE
8
BLACK
6
CONTINUOUS
10
7.49278
20
-3.15289
11
7.5105
21
-3.15289
0
LINE
8
BLACK
6
CONTINUOUS
10
7.5105
20
-3.15289
11
7.5105
21
-3.17651
0
LINE
8
BLACK
6
CONTINUOUS
10
6.17191
20
-3.17651
11
6.1542
21
-3.17651
0
LINE
8
BLACK
6
CONTINUOUS
10
6.1542
20
-3.17651
11
6.1542
21
-3.15289
0
LINE
8
BLACK
6
CONTINUOUS
10
6.1542
20
-3.15289
11
6.17191
21
-3.15289
0
LINE
8
BLACK
6
CONTINUOUS
10
6.17191
20
-3.15289
11
6.17191
21
-3.17651
0
LINE
8
BLACK
6
CONTINUOUS
10
4.16404
20
-3.17651
11
4.14632
21
-3.17651
0
LINE
8
BLACK
6
CONTINUOUS
10
4.14632
20
-3.17651
11
4.14632
21
-3.15289
0
LINE
8
BLACK
6
CONTINUOUS
10
4.14632
20
-3.15289
11
4.16404
21
-3.15289
0
LINE
8
BLACK
6
CONTINUOUS
10
4.16404
20
-3.15289
11
4.16404
21
-3.17651
0
LINE
8
BLACK
6
CONTINUOUS
10
6.8412
20
-3.17651
11
6.82349
21
-3.17651
0
LINE
8
BLACK
6
CONTINUOUS
10
6.82349
20
-3.17651
11
6.82349
21
-3.15289
0
LINE
8
BLACK
6
CONTINUOUS
10
6.82349
20
-3.15289
11
6.8412
21
-3.15289
0
LINE
8
BLACK
6
CONTINUOUS
10
6.8412
20
-3.15289
11
6.8412
21
-3.17651
0
LINE
8
BLACK
6
CONTINUOUS
10
9.51837
20
-3.17651
11
9.50065
21
-3.17651
0
LINE
8
BLACK
6
CONTINUOUS
10
9.50065
20
-3.17651
11
9.50065
21
-3.15289
0
LINE
8
BLACK
6
CONTINUOUS
10
9.50065
20
-3.15289
11
9.51837
21
-3.15289
0
LINE
8
BLACK
6
CONTINUOUS
10
9.51837
20
-3.15289
11
9.51837
21
-3.17651
0
LINE
8
BLACK
6
CONTINUOUS
10
8.17979
20
-3.17651
11
8.16207
21
-3.17651
0
LINE
8
BLACK
6
CONTINUOUS
10
8.16207
20
-3.17651
11
8.16207
21
-3.15289
0
LINE
8
BLACK
6
CONTINUOUS
10
8.16207
20
-3.15289
11
8.17979
21
-3.15289
0
LINE
8
BLACK
6
CONTINUOUS
10
8.17979
20
-3.15289
11
8.17979
21
-3.17651
0
LINE
8
BLACK
6
CONTINUOUS
10
8.84908
20
-3.17651
11
8.83136
21
-3.17651
0
LINE
8
BLACK
6
CONTINUOUS
10
8.83136
20
-3.17651
11
8.83136
21
-3.15289
0
LINE
8
BLACK
6
CONTINUOUS
10
8.83136
20
-3.15289
11
8.84908
21
-3.15289
0
LINE
8
BLACK
6
CONTINUOUS
10
8.84908
20
-3.15289
11
8.84908
21
-3.17651
0
LINE
8
BLACK
6
CONTINUOUS
10
4.83333
20
-3.17651
11
4.81561
21
-3.17651
0
LINE
8
BLACK
6
CONTINUOUS
10
4.81561
20
-3.17651
11
4.81561
21
-3.15289
0
LINE
8
BLACK
6
CONTINUOUS
10
4.81561
20
-3.15289
11
4.83333
21
-3.15289
0
LINE
8
BLACK
6
CONTINUOUS
10
4.83333
20
-3.15289
11
4.83333
21
-3.17651
0
LINE
8
BLACK
6
CONTINUOUS
10
9.01181
20
-3.12697
11
8.90944
21
-3.12697
0
LINE
8
BLACK
6
CONTINUOUS
10
8.90944
20
-3.12697
11
8.90944
21
-3.0246
0
LINE
8
BLACK
6
CONTINUOUS
10
8.90944
20
-3.0246
11
9.01181
21
-3.0246
0
LINE
8
BLACK
6
CONTINUOUS
10
9.01181
20
-3.0246
11
9.01181
21
-3.12697
0
LINE
8
BLACK
6
CONTINUOUS
10
5.66535
20
-3.12697
11
5.56299
21
-3.12697
0
LINE
8
BLACK
6
CONTINUOUS
10
5.56299
20
-3.12697
11
5.56299
21
-3.0246
0
LINE
8
BLACK
6
CONTINUOUS
10
5.56299
20
-3.0246
11
5.66535
21
-3.0246
0
LINE
8
BLACK
6
CONTINUOUS
10
5.66535
20
-3.0246
11
5.66535
21
-3.12697
0
LINE
8
BLACK
6
CONTINUOUS
10
6.33464
20
-3.12697
11
6.23228
21
-3.12697
0
LINE
8
BLACK
6
CONTINUOUS
10
6.23228
20
-3.12697
11
6.23228
21
-3.0246
0
LINE
8
BLACK
6
CONTINUOUS
10
6.23228
20
-3.0246
11
6.33464
21
-3.0246
0
LINE
8
BLACK
6
CONTINUOUS
10
6.33464
20
-3.0246
11
6.33464
21
-3.12697
0
LINE
8
BLACK
6
CONTINUOUS
10
4.99606
20
-3.12697
11
4.8937
21
-3.12697
0
LINE
8
BLACK
6
CONTINUOUS
10
4.8937
20
-3.12697
11
4.8937
21
-3.0246
0
LINE
8
BLACK
6
CONTINUOUS
10
4.8937
20
-3.0246
11
4.99606
21
-3.0246
0
LINE
8
BLACK
6
CONTINUOUS
10
4.99606
20
-3.0246
11
4.99606
21
-3.12697
0
LINE
8
BLACK
6
CONTINUOUS
10
7.00393
20
-3.12697
11
6.90157
21
-3.12697
0
LINE
8
BLACK
6
CONTINUOUS
10
6.90157
20
-3.12697
11
6.90157
21
-3.0246
0
LINE
8
BLACK
6
CONTINUOUS
10
6.90157
20
-3.0246
11
7.00393
21
-3.0246
0
LINE
8
BLACK
6
CONTINUOUS
10
7.00393
20
-3.0246
11
7.00393
21
-3.12697
0
LINE
8
BLACK
6
CONTINUOUS
10
4.32677
20
-3.12697
11
4.22441
21
-3.12697
0
LINE
8
BLACK
6
CONTINUOUS
10
4.22441
20
-3.12697
11
4.22441
21
-3.0246
0
LINE
8
BLACK
6
CONTINUOUS
10
4.22441
20
-3.0246
11
4.32677
21
-3.0246
0
LINE
8
BLACK
6
CONTINUOUS
10
4.32677
20
-3.0246
11
4.32677
21
-3.12697
0
LINE
8
BLACK
6
CONTINUOUS
10
8.34252
20
-3.12697
11
8.24015
21
-3.12697
0
LINE
8
BLACK
6
CONTINUOUS
10
8.24015
20
-3.12697
11
8.24015
21
-3.0246
0
LINE
8
BLACK
6
CONTINUOUS
10
8.24015
20
-3.0246
11
8.34252
21
-3.0246
0
LINE
8
BLACK
6
CONTINUOUS
10
8.34252
20
-3.0246
11
8.34252
21
-3.12697
0
LINE
8
BLACK
6
CONTINUOUS
10
3.65748
20
-3.12697
11
3.55512
21
-3.12697
0
LINE
8
BLACK
6
CONTINUOUS
10
3.55512
20
-3.12697
11
3.55512
21
-3.0246
0
LINE
8
BLACK
6
CONTINUOUS
10
3.55512
20
-3.0246
11
3.65748
21
-3.0246
0
LINE
8
BLACK
6
CONTINUOUS
10
3.65748
20
-3.0246
11
3.65748
21
-3.12697
0
LINE
8
BLACK
6
CONTINUOUS
10
7.67322
20
-3.12697
11
7.57086
21
-3.12697
0
LINE
8
BLACK
6
CONTINUOUS
10
7.57086
20
-3.12697
11
7.57086
21
-3.0246
0
LINE
8
BLACK
6
CONTINUOUS
10
7.57086
20
-3.0246
11
7.67322
21
-3.0246
0
LINE
8
BLACK
6
CONTINUOUS
10
7.67322
20
-3.0246
11
7.67322
21
-3.12697
0
LINE
8
BLACK
6
CONTINUOUS
10
4.16404
20
-3.09383
11
4.14632
21
-3.09383
0
LINE
8
BLACK
6
CONTINUOUS
10
4.14632
20
-3.09383
11
4.14632
21
-3.07021
0
LINE
8
BLACK
6
CONTINUOUS
10
4.14632
20
-3.07021
11
4.16404
21
-3.07021
0
LINE
8
BLACK
6
CONTINUOUS
10
4.16404
20
-3.07021
11
4.16404
21
-3.09383
0
LINE
8
BLACK
6
CONTINUOUS
10
8.17979
20
-3.09383
11
8.16207
21
-3.09383
0
LINE
8
BLACK
6
CONTINUOUS
10
8.16207
20
-3.09383
11
8.16207
21
-3.07021
0
LINE
8
BLACK
6
CONTINUOUS
10
8.16207
20
-3.07021
11
8.17979
21
-3.07021
0
LINE
8
BLACK
6
CONTINUOUS
10
8.17979
20
-3.07021
11
8.17979
21
-3.09383
0
LINE
8
BLACK
6
CONTINUOUS
10
8.84908
20
-3.09383
11
8.83136
21
-3.09383
0
LINE
8
BLACK
6
CONTINUOUS
10
8.83136
20
-3.09383
11
8.83136
21
-3.07021
0
LINE
8
BLACK
6
CONTINUOUS
10
8.83136
20
-3.07021
11
8.84908
21
-3.07021
0
LINE
8
BLACK
6
CONTINUOUS
10
8.84908
20
-3.07021
11
8.84908
21
-3.09383
0
LINE
8
BLACK
6
CONTINUOUS
10
9.51837
20
-3.09383
11
9.50065
21
-3.09383
0
LINE
8
BLACK
6
CONTINUOUS
10
9.50065
20
-3.09383
11
9.50065
21
-3.07021
0
LINE
8
BLACK
6
CONTINUOUS
10
9.50065
20
-3.07021
11
9.51837
21
-3.07021
0
LINE
8
BLACK
6
CONTINUOUS
10
9.51837
20
-3.07021
11
9.51837
21
-3.09383
0
LINE
8
BLACK
6
CONTINUOUS
10
6.8412
20
-3.09383
11
6.82349
21
-3.09383
0
LINE
8
BLACK
6
CONTINUOUS
10
6.82349
20
-3.09383
11
6.82349
21
-3.07021
0
LINE
8
BLACK
6
CONTINUOUS
10
6.82349
20
-3.07021
11
6.8412
21
-3.07021
0
LINE
8
BLACK
6
CONTINUOUS
10
6.8412
20
-3.07021
11
6.8412
21
-3.09383
0
LINE
8
BLACK
6
CONTINUOUS
10
6.17191
20
-3.09383
11
6.1542
21
-3.09383
0
LINE
8
BLACK
6
CONTINUOUS
10
6.1542
20
-3.09383
11
6.1542
21
-3.07021
0
LINE
8
BLACK
6
CONTINUOUS
10
6.1542
20
-3.07021
11
6.17191
21
-3.07021
0
LINE
8
BLACK
6
CONTINUOUS
10
6.17191
20
-3.07021
11
6.17191
21
-3.09383
0
LINE
8
BLACK
6
CONTINUOUS
10
3.49475
20
-3.09383
11
3.47703
21
-3.09383
0
LINE
8
BLACK
6
CONTINUOUS
10
3.47703
20
-3.09383
11
3.47703
21
-3.07021
0
LINE
8
BLACK
6
CONTINUOUS
10
3.47703
20
-3.07021
11
3.49475
21
-3.07021
0
LINE
8
BLACK
6
CONTINUOUS
10
3.49475
20
-3.07021
11
3.49475
21
-3.09383
0
LINE
8
BLACK
6
CONTINUOUS
10
7.5105
20
-3.09383
11
7.49278
21
-3.09383
0
LINE
8
BLACK
6
CONTINUOUS
10
7.49278
20
-3.09383
11
7.49278
21
-3.07021
0
LINE
8
BLACK
6
CONTINUOUS
10
7.49278
20
-3.07021
11
7.5105
21
-3.07021
0
LINE
8
BLACK
6
CONTINUOUS
10
7.5105
20
-3.07021
11
7.5105
21
-3.09383
0
LINE
8
BLACK
6
CONTINUOUS
10
5.50262
20
-3.09383
11
5.48491
21
-3.09383
0
LINE
8
BLACK
6
CONTINUOUS
10
5.48491
20
-3.09383
11
5.48491
21
-3.07021
0
LINE
8
BLACK
6
CONTINUOUS
10
5.48491
20
-3.07021
11
5.50262
21
-3.07021
0
LINE
8
BLACK
6
CONTINUOUS
10
5.50262
20
-3.07021
11
5.50262
21
-3.09383
0
LINE
8
BLACK
6
CONTINUOUS
10
4.83333
20
-3.09383
11
4.81561
21
-3.09383
0
LINE
8
BLACK
6
CONTINUOUS
10
4.81561
20
-3.09383
11
4.81561
21
-3.07021
0
LINE
8
BLACK
6
CONTINUOUS
10
4.81561
20
-3.07021
11
4.83333
21
-3.07021
0
LINE
8
BLACK
6
CONTINUOUS
10
4.83333
20
-3.07021
11
4.83333
21
-3.09383
0
LINE
8
BLACK
6
CONTINUOUS
10
3.63976
20
-2.83169
11
3.5374
21
-2.83169
0
LINE
8
BLACK
6
CONTINUOUS
10
3.5374
20
-2.83169
11
3.5374
21
-2.72933
0
LINE
8
BLACK
6
CONTINUOUS
10
3.5374
20
-2.72933
11
3.63976
21
-2.72933
0
LINE
8
BLACK
6
CONTINUOUS
10
3.63976
20
-2.72933
11
3.63976
21
-2.83169
0
LINE
8
BLACK
6
CONTINUOUS
10
3.18504
20
-2.74508
11
3.08268
21
-2.74508
0
LINE
8
BLACK
6
CONTINUOUS
10
3.08268
20
-2.74508
11
3.08268
21
-2.64272
0
LINE
8
BLACK
6
CONTINUOUS
10
3.08268
20
-2.64272
11
3.18504
21
-2.64272
0
LINE
8
BLACK
6
CONTINUOUS
10
3.18504
20
-2.64272
11
3.18504
21
-2.74508
0
LINE
8
BLACK
6
CONTINUOUS
10
5.45078
20
-2.54429
11
5.34842
21
-2.54429
0
LINE
8
BLACK
6
CONTINUOUS
10
5.34842
20
-2.54429
11
5.34842
21
-2.44193
0
LINE
8
BLACK
6
CONTINUOUS
10
5.34842
20
-2.44193
11
5.45078
21
-2.44193
0
LINE
8
BLACK
6
CONTINUOUS
10
5.45078
20
-2.44193
11
5.45078
21
-2.54429
0
LINE
8
BLACK
6
CONTINUOUS
10
8.12795
20
-2.54429
11
8.02559
21
-2.54429
0
LINE
8
BLACK
6
CONTINUOUS
10
8.02559
20
-2.54429
11
8.02559
21
-2.44193
0
LINE
8
BLACK
6
CONTINUOUS
10
8.02559
20
-2.44193
11
8.12795
21
-2.44193
0
LINE
8
BLACK
6
CONTINUOUS
10
8.12795
20
-2.44193
11
8.12795
21
-2.54429
0
LINE
8
BLACK
6
CONTINUOUS
10
9.46653
20
-2.54429
11
9.36417
21
-2.54429
0
LINE
8
BLACK
6
CONTINUOUS
10
9.36417
20
-2.54429
11
9.36417
21
-2.44193
0
LINE
8
BLACK
6
CONTINUOUS
10
9.36417
20
-2.44193
11
9.46653
21
-2.44193
0
LINE
8
BLACK
6
CONTINUOUS
10
9.46653
20
-2.44193
11
9.46653
21
-2.54429
0
LINE
8
BLACK
6
CONTINUOUS
10
4.78149
20
-2.54429
11
4.67913
21
-2.54429
0
LINE
8
BLACK
6
CONTINUOUS
10
4.67913
20
-2.54429
11
4.67913
21
-2.44193
0
LINE
8
BLACK
6
CONTINUOUS
10
4.67913
20
-2.44193
11
4.78149
21
-2.44193
0
LINE
8
BLACK
6
CONTINUOUS
10
4.78149
20
-2.44193
11
4.78149
21
-2.54429
0
LINE
8
BLACK
6
CONTINUOUS
10
6.12008
20
-2.54429
11
6.01771
21
-2.54429
0
LINE
8
BLACK
6
CONTINUOUS
10
6.01771
20
-2.54429
11
6.01771
21
-2.44193
0
LINE
8
BLACK
6
CONTINUOUS
10
6.01771
20
-2.44193
11
6.12008
21
-2.44193
0
LINE
8
BLACK
6
CONTINUOUS
10
6.12008
20
-2.44193
11
6.12008
21
-2.54429
0
LINE
8
BLACK
6
CONTINUOUS
10
7.45866
20
-2.54429
11
7.3563
21
-2.54429
0
LINE
8
BLACK
6
CONTINUOUS
10
7.3563
20
-2.54429
11
7.3563
21
-2.44193
0
LINE
8
BLACK
6
CONTINUOUS
10
7.3563
20
-2.44193
11
7.45866
21
-2.44193
0
LINE
8
BLACK
6
CONTINUOUS
10
7.45866
20
-2.44193
11
7.45866
21
-2.54429
0
LINE
8
BLACK
6
CONTINUOUS
10
6.78937
20
-2.54429
11
6.687
21
-2.54429
0
LINE
8
BLACK
6
CONTINUOUS
10
6.687
20
-2.54429
11
6.687
21
-2.44193
0
LINE
8
BLACK
6
CONTINUOUS
10
6.687
20
-2.44193
11
6.78937
21
-2.44193
0
LINE
8
BLACK
6
CONTINUOUS
10
6.78937
20
-2.44193
11
6.78937
21
-2.54429
0
LINE
8
BLACK
6
CONTINUOUS
10
4.1122
20
-2.54429
11
4.00984
21
-2.54429
0
LINE
8
BLACK
6
CONTINUOUS
10
4.00984
20
-2.54429
11
4.00984
21
-2.44193
0
LINE
8
BLACK
6
CONTINUOUS
10
4.00984
20
-2.44193
11
4.1122
21
-2.44193
0
LINE
8
BLACK
6
CONTINUOUS
10
4.1122
20
-2.44193
11
4.1122
21
-2.54429
0
LINE
8
BLACK
6
CONTINUOUS
10
8.79724
20
-2.54429
11
8.69488
21
-2.54429
0
LINE
8
BLACK
6
CONTINUOUS
10
8.69488
20
-2.54429
11
8.69488
21
-2.44193
0
LINE
8
BLACK
6
CONTINUOUS
10
8.69488
20
-2.44193
11
8.79724
21
-2.44193
0
LINE
8
BLACK
6
CONTINUOUS
10
8.79724
20
-2.44193
11
8.79724
21
-2.54429
0
LINE
8
BLACK
6
CONTINUOUS
10
4.16404
20
-2.50722
11
4.14632
21
-2.50722
0
LINE
8
BLACK
6
CONTINUOUS
10
4.14632
20
-2.50722
11
4.14632
21
-2.48359
0
LINE
8
BLACK
6
CONTINUOUS
10
4.14632
20
-2.48359
11
4.16404
21
-2.48359
0
LINE
8
BLACK
6
CONTINUOUS
10
4.16404
20
-2.48359
11
4.16404
21
-2.50722
0
LINE
8
BLACK
6
CONTINUOUS
10
5.50262
20
-2.50722
11
5.48491
21
-2.50722
0
LINE
8
BLACK
6
CONTINUOUS
10
5.48491
20
-2.50722
11
5.48491
21
-2.48359
0
LINE
8
BLACK
6
CONTINUOUS
10
5.48491
20
-2.48359
11
5.50262
21
-2.48359
0
LINE
8
BLACK
6
CONTINUOUS
10
5.50262
20
-2.48359
11
5.50262
21
-2.50722
0
LINE
8
BLACK
6
CONTINUOUS
10
6.17191
20
-2.50722
11
6.1542
21
-2.50722
0
LINE
8
BLACK
6
CONTINUOUS
10
6.1542
20
-2.50722
11
6.1542
21
-2.48359
0
LINE
8
BLACK
6
CONTINUOUS
10
6.1542
20
-2.48359
11
6.17191
21
-2.48359
0
LINE
8
BLACK
6
CONTINUOUS
10
6.17191
20
-2.48359
11
6.17191
21
-2.50722
0
LINE
8
BLACK
6
CONTINUOUS
10
8.17979
20
-2.50722
11
8.16207
21
-2.50722
0
LINE
8
BLACK
6
CONTINUOUS
10
8.16207
20
-2.50722
11
8.16207
21
-2.48359
0
LINE
8
BLACK
6
CONTINUOUS
10
8.16207
20
-2.48359
11
8.17979
21
-2.48359
0
LINE
8
BLACK
6
CONTINUOUS
10
8.17979
20
-2.48359
11
8.17979
21
-2.50722
0
LINE
8
BLACK
6
CONTINUOUS
10
9.51837
20
-2.50722
11
9.50065
21
-2.50722
0
LINE
8
BLACK
6
CONTINUOUS
10
9.50065
20
-2.50722
11
9.50065
21
-2.48359
0
LINE
8
BLACK
6
CONTINUOUS
10
9.50065
20
-2.48359
11
9.51837
21
-2.48359
0
LINE
8
BLACK
6
CONTINUOUS
10
9.51837
20
-2.48359
11
9.51837
21
-2.50722
0
LINE
8
BLACK
6
CONTINUOUS
10
8.84908
20
-2.50722
11
8.83136
21
-2.50722
0
LINE
8
BLACK
6
CONTINUOUS
10
8.83136
20
-2.50722
11
8.83136
21
-2.48359
0
LINE
8
BLACK
6
CONTINUOUS
10
8.83136
20
-2.48359
11
8.84908
21
-2.48359
0
LINE
8
BLACK
6
CONTINUOUS
10
8.84908
20
-2.48359
11
8.84908
21
-2.50722
0
LINE
8
BLACK
6
CONTINUOUS
10
6.8412
20
-2.50722
11
6.82349
21
-2.50722
0
LINE
8
BLACK
6
CONTINUOUS
10
6.82349
20
-2.50722
11
6.82349
21
-2.48359
0
LINE
8
BLACK
6
CONTINUOUS
10
6.82349
20
-2.48359
11
6.8412
21
-2.48359
0
LINE
8
BLACK
6
CONTINUOUS
10
6.8412
20
-2.48359
11
6.8412
21
-2.50722
0
LINE
8
BLACK
6
CONTINUOUS
10
7.5105
20
-2.50722
11
7.49278
21
-2.50722
0
LINE
8
BLACK
6
CONTINUOUS
10
7.49278
20
-2.50722
11
7.49278
21
-2.48359
0
LINE
8
BLACK
6
CONTINUOUS
10
7.49278
20
-2.48359
11
7.5105
21
-2.48359
0
LINE
8
BLACK
6
CONTINUOUS
10
7.5105
20
-2.48359
11
7.5105
21
-2.50722
0
LINE
8
BLACK
6
CONTINUOUS
10
4.83333
20
-2.50722
11
4.81561
21
-2.50722
0
LINE
8
BLACK
6
CONTINUOUS
10
4.81561
20
-2.50722
11
4.81561
21
-2.48359
0
LINE
8
BLACK
6
CONTINUOUS
10
4.81561
20
-2.48359
11
4.83333
21
-2.48359
0
LINE
8
BLACK
6
CONTINUOUS
10
4.83333
20
-2.48359
11
4.83333
21
-2.50722
0
LINE
8
BLACK
6
CONTINUOUS
10
3.49475
20
-2.50722
11
3.47703
21
-2.50722
0
LINE
8
BLACK
6
CONTINUOUS
10
3.47703
20
-2.50722
11
3.47703
21
-2.48359
0
LINE
8
BLACK
6
CONTINUOUS
10
3.47703
20
-2.48359
11
3.49475
21
-2.48359
0
LINE
8
BLACK
6
CONTINUOUS
10
3.49475
20
-2.48359
11
3.49475
21
-2.50722
0
LINE
8
BLACK
6
CONTINUOUS
10
4.99606
20
-2.45768
11
4.8937
21
-2.45768
0
LINE
8
BLACK
6
CONTINUOUS
10
4.8937
20
-2.45768
11
4.8937
21
-2.35531
0
LINE
8
BLACK
6
CONTINUOUS
10
4.8937
20
-2.35531
11
4.99606
21
-2.35531
0
LINE
8
BLACK
6
CONTINUOUS
10
4.99606
20
-2.35531
11
4.99606
21
-2.45768
0
LINE
8
BLACK
6
CONTINUOUS
10
5.66535
20
-2.45768
11
5.56299
21
-2.45768
0
LINE
8
BLACK
6
CONTINUOUS
10
5.56299
20
-2.45768
11
5.56299
21
-2.35531
0
LINE
8
BLACK
6
CONTINUOUS
10
5.56299
20
-2.35531
11
5.66535
21
-2.35531
0
LINE
8
BLACK
6
CONTINUOUS
10
5.66535
20
-2.35531
11
5.66535
21
-2.45768
0
LINE
8
BLACK
6
CONTINUOUS
10
9.01181
20
-2.45768
11
8.90944
21
-2.45768
0
LINE
8
BLACK
6
CONTINUOUS
10
8.90944
20
-2.45768
11
8.90944
21
-2.35531
0
LINE
8
BLACK
6
CONTINUOUS
10
8.90944
20
-2.35531
11
9.01181
21
-2.35531
0
LINE
8
BLACK
6
CONTINUOUS
10
9.01181
20
-2.35531
11
9.01181
21
-2.45768
0
LINE
8
BLACK
6
CONTINUOUS
10
7.00393
20
-2.45768
11
6.90157
21
-2.45768
0
LINE
8
BLACK
6
CONTINUOUS
10
6.90157
20
-2.45768
11
6.90157
21
-2.35531
0
LINE
8
BLACK
6
CONTINUOUS
10
6.90157
20
-2.35531
11
7.00393
21
-2.35531
0
LINE
8
BLACK
6
CONTINUOUS
10
7.00393
20
-2.35531
11
7.00393
21
-2.45768
0
LINE
8
BLACK
6
CONTINUOUS
10
4.32677
20
-2.45768
11
4.22441
21
-2.45768
0
LINE
8
BLACK
6
CONTINUOUS
10
4.22441
20
-2.45768
11
4.22441
21
-2.35531
0
LINE
8
BLACK
6
CONTINUOUS
10
4.22441
20
-2.35531
11
4.32677
21
-2.35531
0
LINE
8
BLACK
6
CONTINUOUS
10
4.32677
20
-2.35531
11
4.32677
21
-2.45768
0
LINE
8
BLACK
6
CONTINUOUS
10
6.33464
20
-2.45768
11
6.23228
21
-2.45768
0
LINE
8
BLACK
6
CONTINUOUS
10
6.23228
20
-2.45768
11
6.23228
21
-2.35531
0
LINE
8
BLACK
6
CONTINUOUS
10
6.23228
20
-2.35531
11
6.33464
21
-2.35531
0
LINE
8
BLACK
6
CONTINUOUS
10
6.33464
20
-2.35531
11
6.33464
21
-2.45768
0
LINE
8
BLACK
6
CONTINUOUS
10
7.67322
20
-2.45768
11
7.57086
21
-2.45768
0
LINE
8
BLACK
6
CONTINUOUS
10
7.57086
20
-2.45768
11
7.57086
21
-2.35531
0
LINE
8
BLACK
6
CONTINUOUS
10
7.57086
20
-2.35531
11
7.67322
21
-2.35531
0
LINE
8
BLACK
6
CONTINUOUS
10
7.67322
20
-2.35531
11
7.67322
21
-2.45768
0
LINE
8
BLACK
6
CONTINUOUS
10
3.65748
20
-2.45768
11
3.55512
21
-2.45768
0
LINE
8
BLACK
6
CONTINUOUS
10
3.55512
20
-2.45768
11
3.55512
21
-2.35531
0
LINE
8
BLACK
6
CONTINUOUS
10
3.55512
20
-2.35531
11
3.65748
21
-2.35531
0
LINE
8
BLACK
6
CONTINUOUS
10
3.65748
20
-2.35531
11
3.65748
21
-2.45768
0
LINE
8
BLACK
6
CONTINUOUS
10
8.34252
20
-2.45768
11
8.24015
21
-2.45768
0
LINE
8
BLACK
6
CONTINUOUS
10
8.24015
20
-2.45768
11
8.24015
21
-2.35531
0
LINE
8
BLACK
6
CONTINUOUS
10
8.24015
20
-2.35531
11
8.34252
21
-2.35531
0
LINE
8
BLACK
6
CONTINUOUS
10
8.34252
20
-2.35531
11
8.34252
21
-2.45768
0
LINE
8
BLACK
6
CONTINUOUS
10
5.50262
20
-2.42454
11
5.48491
21
-2.42454
0
LINE
8
BLACK
6
CONTINUOUS
10
5.48491
20
-2.42454
11
5.48491
21
-2.40092
0
LINE
8
BLACK
6
CONTINUOUS
10
5.48491
20
-2.40092
11
5.50262
21
-2.40092
0
LINE
8
BLACK
6
CONTINUOUS
10
5.50262
20
-2.40092
11
5.50262
21
-2.42454
0
LINE
8
BLACK
6
CONTINUOUS
10
8.84908
20
-2.42454
11
8.83136
21
-2.42454
0
LINE
8
BLACK
6
CONTINUOUS
10
8.83136
20
-2.42454
11
8.83136
21
-2.40092
0
LINE
8
BLACK
6
CONTINUOUS
10
8.83136
20
-2.40092
11
8.84908
21
-2.40092
0
LINE
8
BLACK
6
CONTINUOUS
10
8.84908
20
-2.40092
11
8.84908
21
-2.42454
0
LINE
8
BLACK
6
CONTINUOUS
10
4.83333
20
-2.42454
11
4.81561
21
-2.42454
0
LINE
8
BLACK
6
CONTINUOUS
10
4.81561
20
-2.42454
11
4.81561
21
-2.40092
0
LINE
8
BLACK
6
CONTINUOUS
10
4.81561
20
-2.40092
11
4.83333
21
-2.40092
0
LINE
8
BLACK
6
CONTINUOUS
10
4.83333
20
-2.40092
11
4.83333
21
-2.42454
0
LINE
8
BLACK
6
CONTINUOUS
10
3.49475
20
-2.42454
11
3.47703
21
-2.42454
0
LINE
8
BLACK
6
CONTINUOUS
10
3.47703
20
-2.42454
11
3.47703
21
-2.40092
0
LINE
8
BLACK
6
CONTINUOUS
10
3.47703
20
-2.40092
11
3.49475
21
-2.40092
0
LINE
8
BLACK
6
CONTINUOUS
10
3.49475
20
-2.40092
11
3.49475
21
-2.42454
0
LINE
8
BLACK
6
CONTINUOUS
10
7.5105
20
-2.42454
11
7.49278
21
-2.42454
0
LINE
8
BLACK
6
CONTINUOUS
10
7.49278
20
-2.42454
11
7.49278
21
-2.40092
0
LINE
8
BLACK
6
CONTINUOUS
10
7.49278
20
-2.40092
11
7.5105
21
-2.40092
0
LINE
8
BLACK
6
CONTINUOUS
10
7.5105
20
-2.40092
11
7.5105
21
-2.42454
0
LINE
8
BLACK
6
CONTINUOUS
10
9.51837
20
-2.42454
11
9.50065
21
-2.42454
0
LINE
8
BLACK
6
CONTINUOUS
10
9.50065
20
-2.42454
11
9.50065
21
-2.40092
0
LINE
8
BLACK
6
CONTINUOUS
10
9.50065
20
-2.40092
11
9.51837
21
-2.40092
0
LINE
8
BLACK
6
CONTINUOUS
10
9.51837
20
-2.40092
11
9.51837
21
-2.42454
0
LINE
8
BLACK
6
CONTINUOUS
10
6.8412
20
-2.42454
11
6.82349
21
-2.42454
0
LINE
8
BLACK
6
CONTINUOUS
10
6.82349
20
-2.42454
11
6.82349
21
-2.40092
0
LINE
8
BLACK
6
CONTINUOUS
10
6.82349
20
-2.40092
11
6.8412
21
-2.40092
0
LINE
8
BLACK
6
CONTINUOUS
10
6.8412
20
-2.40092
11
6.8412
21
-2.42454
0
LINE
8
BLACK
6
CONTINUOUS
10
6.17191
20
-2.42454
11
6.1542
21
-2.42454
0
LINE
8
BLACK
6
CONTINUOUS
10
6.1542
20
-2.42454
11
6.1542
21
-2.40092
0
LINE
8
BLACK
6
CONTINUOUS
10
6.1542
20
-2.40092
11
6.17191
21
-2.40092
0
LINE
8
BLACK
6
CONTINUOUS
10
6.17191
20
-2.40092
11
6.17191
21
-2.42454
0
LINE
8
BLACK
6
CONTINUOUS
10
4.16404
20
-2.42454
11
4.14632
21
-2.42454
0
LINE
8
BLACK
6
CONTINUOUS
10
4.14632
20
-2.42454
11
4.14632
21
-2.40092
0
LINE
8
BLACK
6
CONTINUOUS
10
4.14632
20
-2.40092
11
4.16404
21
-2.40092
0
LINE
8
BLACK
6
CONTINUOUS
10
4.16404
20
-2.40092
11
4.16404
21
-2.42454
0
LINE
8
BLACK
6
CONTINUOUS
10
8.17979
20
-2.42454
11
8.16207
21
-2.42454
0
LINE
8
BLACK
6
CONTINUOUS
10
8.16207
20
-2.42454
11
8.16207
21
-2.40092
0
LINE
8
BLACK
6
CONTINUOUS
10
8.16207
20
-2.40092
11
8.17979
21
-2.40092
0
LINE
8
BLACK
6
CONTINUOUS
10
8.17979
20
-2.40092
11
8.17979
21
-2.42454
0
LINE
8
BLACK
6
CONTINUOUS
10
3.63976
20
-2.1624
11
3.5374
21
-2.1624
0
LINE
8
BLACK
6
CONTINUOUS
10
3.5374
20
-2.1624
11
3.5374
21
-2.06004
0
LINE
8
BLACK
6
CONTINUOUS
10
3.5374
20
-2.06004
11
3.63976
21
-2.06004
0
LINE
8
BLACK
6
CONTINUOUS
10
3.63976
20
-2.06004
11
3.63976
21
-2.1624
0
LINE
8
BLACK
6
CONTINUOUS
10
3.18504
20
-2.07579
11
3.08268
21
-2.07579
0
LINE
8
BLACK
6
CONTINUOUS
10
3.08268
20
-2.07579
11
3.08268
21
-1.97342
0
LINE
8
BLACK
6
CONTINUOUS
10
3.08268
20
-1.97342
11
3.18504
21
-1.97342
0
LINE
8
BLACK
6
CONTINUOUS
10
3.18504
20
-1.97342
11
3.18504
21
-2.07579
0
LINE
8
BLACK
6
CONTINUOUS
10
5.45078
20
-1.875
11
5.34842
21
-1.875
0
LINE
8
BLACK
6
CONTINUOUS
10
5.34842
20
-1.875
11
5.34842
21
-1.77264
0
LINE
8
BLACK
6
CONTINUOUS
10
5.34842
20
-1.77264
11
5.45078
21
-1.77264
0
LINE
8
BLACK
6
CONTINUOUS
10
5.45078
20
-1.77264
11
5.45078
21
-1.875
0
LINE
8
BLACK
6
CONTINUOUS
10
6.78937
20
-1.875
11
6.687
21
-1.875
0
LINE
8
BLACK
6
CONTINUOUS
10
6.687
20
-1.875
11
6.687
21
-1.77264
0
LINE
8
BLACK
6
CONTINUOUS
10
6.687
20
-1.77264
11
6.78937
21
-1.77264
0
LINE
8
BLACK
6
CONTINUOUS
10
6.78937
20
-1.77264
11
6.78937
21
-1.875
0
LINE
8
BLACK
6
CONTINUOUS
10
9.46653
20
-1.875
11
9.36417
21
-1.875
0
LINE
8
BLACK
6
CONTINUOUS
10
9.36417
20
-1.875
11
9.36417
21
-1.77264
0
LINE
8
BLACK
6
CONTINUOUS
10
9.36417
20
-1.77264
11
9.46653
21
-1.77264
0
LINE
8
BLACK
6
CONTINUOUS
10
9.46653
20
-1.77264
11
9.46653
21
-1.875
0
LINE
8
BLACK
6
CONTINUOUS
10
4.78149
20
-1.875
11
4.67913
21
-1.875
0
LINE
8
BLACK
6
CONTINUOUS
10
4.67913
20
-1.875
11
4.67913
21
-1.77264
0
LINE
8
BLACK
6
CONTINUOUS
10
4.67913
20
-1.77264
11
4.78149
21
-1.77264
0
LINE
8
BLACK
6
CONTINUOUS
10
4.78149
20
-1.77264
11
4.78149
21
-1.875
0
LINE
8
BLACK
6
CONTINUOUS
10
4.1122
20
-1.875
11
4.00984
21
-1.875
0
LINE
8
BLACK
6
CONTINUOUS
10
4.00984
20
-1.875
11
4.00984
21
-1.77264
0
LINE
8
BLACK
6
CONTINUOUS
10
4.00984
20
-1.77264
11
4.1122
21
-1.77264
0
LINE
8
BLACK
6
CONTINUOUS
10
4.1122
20
-1.77264
11
4.1122
21
-1.875
0
LINE
8
BLACK
6
CONTINUOUS
10
6.12008
20
-1.875
11
6.01771
21
-1.875
0
LINE
8
BLACK
6
CONTINUOUS
10
6.01771
20
-1.875
11
6.01771
21
-1.77264
0
LINE
8
BLACK
6
CONTINUOUS
10
6.01771
20
-1.77264
11
6.12008
21
-1.77264
0
LINE
8
BLACK
6
CONTINUOUS
10
6.12008
20
-1.77264
11
6.12008
21
-1.875
0
LINE
8
BLACK
6
CONTINUOUS
10
8.12795
20
-1.875
11
8.02559
21
-1.875
0
LINE
8
BLACK
6
CONTINUOUS
10
8.02559
20
-1.875
11
8.02559
21
-1.77264
0
LINE
8
BLACK
6
CONTINUOUS
10
8.02559
20
-1.77264
11
8.12795
21
-1.77264
0
LINE
8
BLACK
6
CONTINUOUS
10
8.12795
20
-1.77264
11
8.12795
21
-1.875
0
LINE
8
BLACK
6
CONTINUOUS
10
7.45866
20
-1.875
11
7.3563
21
-1.875
0
LINE
8
BLACK
6
CONTINUOUS
10
7.3563
20
-1.875
11
7.3563
21
-1.77264
0
LINE
8
BLACK
6
CONTINUOUS
10
7.3563
20
-1.77264
11
7.45866
21
-1.77264
0
LINE
8
BLACK
6
CONTINUOUS
10
7.45866
20
-1.77264
11
7.45866
21
-1.875
0
LINE
8
BLACK
6
CONTINUOUS
10
8.79724
20
-1.875
11
8.69488
21
-1.875
0
LINE
8
BLACK
6
CONTINUOUS
10
8.69488
20
-1.875
11
8.69488
21
-1.77264
0
LINE
8
BLACK
6
CONTINUOUS
10
8.69488
20
-1.77264
11
8.79724
21
-1.77264
0
LINE
8
BLACK
6
CONTINUOUS
10
8.79724
20
-1.77264
11
8.79724
21
-1.875
0
LINE
8
BLACK
6
CONTINUOUS
10
6.17191
20
-1.83793
11
6.1542
21
-1.83793
0
LINE
8
BLACK
6
CONTINUOUS
10
6.1542
20
-1.83793
11
6.1542
21
-1.8143
0
LINE
8
BLACK
6
CONTINUOUS
10
6.1542
20
-1.8143
11
6.17191
21
-1.8143
0
LINE
8
BLACK
6
CONTINUOUS
10
6.17191
20
-1.8143
11
6.17191
21
-1.83793
0
LINE
8
BLACK
6
CONTINUOUS
10
7.5105
20
-1.83793
11
7.49278
21
-1.83793
0
LINE
8
BLACK
6
CONTINUOUS
10
7.49278
20
-1.83793
11
7.49278
21
-1.8143
0
LINE
8
BLACK
6
CONTINUOUS
10
7.49278
20
-1.8143
11
7.5105
21
-1.8143
0
LINE
8
BLACK
6
CONTINUOUS
10
7.5105
20
-1.8143
11
7.5105
21
-1.83793
0
LINE
8
BLACK
6
CONTINUOUS
10
8.84908
20
-1.83793
11
8.83136
21
-1.83793
0
LINE
8
BLACK
6
CONTINUOUS
10
8.83136
20
-1.83793
11
8.83136
21
-1.8143
0
LINE
8
BLACK
6
CONTINUOUS
10
8.83136
20
-1.8143
11
8.84908
21
-1.8143
0
LINE
8
BLACK
6
CONTINUOUS
10
8.84908
20
-1.8143
11
8.84908
21
-1.83793
0
LINE
8
BLACK
6
CONTINUOUS
10
9.51837
20
-1.83793
11
9.50065
21
-1.83793
0
LINE
8
BLACK
6
CONTINUOUS
10
9.50065
20
-1.83793
11
9.50065
21
-1.8143
0
LINE
8
BLACK
6
CONTINUOUS
10
9.50065
20
-1.8143
11
9.51837
21
-1.8143
0
LINE
8
BLACK
6
CONTINUOUS
10
9.51837
20
-1.8143
11
9.51837
21
-1.83793
0
LINE
8
BLACK
6
CONTINUOUS
10
4.16404
20
-1.83793
11
4.14632
21
-1.83793
0
LINE
8
BLACK
6
CONTINUOUS
10
4.14632
20
-1.83793
11
4.14632
21
-1.8143
0
LINE
8
BLACK
6
CONTINUOUS
10
4.14632
20
-1.8143
11
4.16404
21
-1.8143
0
LINE
8
BLACK
6
CONTINUOUS
10
4.16404
20
-1.8143
11
4.16404
21
-1.83793
0
LINE
8
BLACK
6
CONTINUOUS
10
4.83333
20
-1.83793
11
4.81561
21
-1.83793
0
LINE
8
BLACK
6
CONTINUOUS
10
4.81561
20
-1.83793
11
4.81561
21
-1.8143
0
LINE
8
BLACK
6
CONTINUOUS
10
4.81561
20
-1.8143
11
4.83333
21
-1.8143
0
LINE
8
BLACK
6
CONTINUOUS
10
4.83333
20
-1.8143
11
4.83333
21
-1.83793
0
LINE
8
BLACK
6
CONTINUOUS
10
5.50262
20
-1.83793
11
5.48491
21
-1.83793
0
LINE
8
BLACK
6
CONTINUOUS
10
5.48491
20
-1.83793
11
5.48491
21
-1.8143
0
LINE
8
BLACK
6
CONTINUOUS
10
5.48491
20
-1.8143
11
5.50262
21
-1.8143
0
LINE
8
BLACK
6
CONTINUOUS
10
5.50262
20
-1.8143
11
5.50262
21
-1.83793
0
LINE
8
BLACK
6
CONTINUOUS
10
8.17979
20
-1.83793
11
8.16207
21
-1.83793
0
LINE
8
BLACK
6
CONTINUOUS
10
8.16207
20
-1.83793
11
8.16207
21
-1.8143
0
LINE
8
BLACK
6
CONTINUOUS
10
8.16207
20
-1.8143
11
8.17979
21
-1.8143
0
LINE
8
BLACK
6
CONTINUOUS
10
8.17979
20
-1.8143
11
8.17979
21
-1.83793
0
LINE
8
BLACK
6
CONTINUOUS
10
3.49475
20
-1.83793
11
3.47703
21
-1.83793
0
LINE
8
BLACK
6
CONTINUOUS
10
3.47703
20
-1.83793
11
3.47703
21
-1.8143
0
LINE
8
BLACK
6
CONTINUOUS
10
3.47703
20
-1.8143
11
3.49475
21
-1.8143
0
LINE
8
BLACK
6
CONTINUOUS
10
3.49475
20
-1.8143
11
3.49475
21
-1.83793
0
LINE
8
BLACK
6
CONTINUOUS
10
6.8412
20
-1.83793
11
6.82349
21
-1.83793
0
LINE
8
BLACK
6
CONTINUOUS
10
6.82349
20
-1.83793
11
6.82349
21
-1.8143
0
LINE
8
BLACK
6
CONTINUOUS
10
6.82349
20
-1.8143
11
6.8412
21
-1.8143
0
LINE
8
BLACK
6
CONTINUOUS
10
6.8412
20
-1.8143
11
6.8412
21
-1.83793
0
LINE
8
BLACK
6
CONTINUOUS
10
3.65748
20
-1.78839
11
3.55512
21
-1.78839
0
LINE
8
BLACK
6
CONTINUOUS
10
3.55512
20
-1.78839
11
3.55512
21
-1.68602
0
LINE
8
BLACK
6
CONTINUOUS
10
3.55512
20
-1.68602
11
3.65748
21
-1.68602
0
LINE
8
BLACK
6
CONTINUOUS
10
3.65748
20
-1.68602
11
3.65748
21
-1.78839
0
LINE
8
BLACK
6
CONTINUOUS
10
4.99606
20
-1.78839
11
4.8937
21
-1.78839
0
LINE
8
BLACK
6
CONTINUOUS
10
4.8937
20
-1.78839
11
4.8937
21
-1.68602
0
LINE
8
BLACK
6
CONTINUOUS
10
4.8937
20
-1.68602
11
4.99606
21
-1.68602
0
LINE
8
BLACK
6
CONTINUOUS
10
4.99606
20
-1.68602
11
4.99606
21
-1.78839
0
LINE
8
BLACK
6
CONTINUOUS
10
7.67322
20
-1.78839
11
7.57086
21
-1.78839
0
LINE
8
BLACK
6
CONTINUOUS
10
7.57086
20
-1.78839
11
7.57086
21
-1.68602
0
LINE
8
BLACK
6
CONTINUOUS
10
7.57086
20
-1.68602
11
7.67322
21
-1.68602
0
LINE
8
BLACK
6
CONTINUOUS
10
7.67322
20
-1.68602
11
7.67322
21
-1.78839
0
LINE
8
BLACK
6
CONTINUOUS
10
8.34252
20
-1.78839
11
8.24015
21
-1.78839
0
LINE
8
BLACK
6
CONTINUOUS
10
8.24015
20
-1.78839
11
8.24015
21
-1.68602
0
LINE
8
BLACK
6
CONTINUOUS
10
8.24015
20
-1.68602
11
8.34252
21
-1.68602
0
LINE
8
BLACK
6
CONTINUOUS
10
8.34252
20
-1.68602
11
8.34252
21
-1.78839
0
LINE
8
BLACK
6
CONTINUOUS
10
5.66535
20
-1.78839
11
5.56299
21
-1.78839
0
LINE
8
BLACK
6
CONTINUOUS
10
5.56299
20
-1.78839
11
5.56299
21
-1.68602
0
LINE
8
BLACK
6
CONTINUOUS
10
5.56299
20
-1.68602
11
5.66535
21
-1.68602
0
LINE
8
BLACK
6
CONTINUOUS
10
5.66535
20
-1.68602
11
5.66535
21
-1.78839
0
LINE
8
BLACK
6
CONTINUOUS
10
6.33464
20
-1.78839
11
6.23228
21
-1.78839
0
LINE
8
BLACK
6
CONTINUOUS
10
6.23228
20
-1.78839
11
6.23228
21
-1.68602
0
LINE
8
BLACK
6
CONTINUOUS
10
6.23228
20
-1.68602
11
6.33464
21
-1.68602
0
LINE
8
BLACK
6
CONTINUOUS
10
6.33464
20
-1.68602
11
6.33464
21
-1.78839
0
LINE
8
BLACK
6
CONTINUOUS
10
9.01181
20
-1.78839
11
8.90944
21
-1.78839
0
LINE
8
BLACK
6
CONTINUOUS
10
8.90944
20
-1.78839
11
8.90944
21
-1.68602
0
LINE
8
BLACK
6
CONTINUOUS
10
8.90944
20
-1.68602
11
9.01181
21
-1.68602
0
LINE
8
BLACK
6
CONTINUOUS
10
9.01181
20
-1.68602
11
9.01181
21
-1.78839
0
LINE
8
BLACK
6
CONTINUOUS
10
4.32677
20
-1.78839
11
4.22441
21
-1.78839
0
LINE
8
BLACK
6
CONTINUOUS
10
4.22441
20
-1.78839
11
4.22441
21
-1.68602
0
LINE
8
BLACK
6
CONTINUOUS
10
4.22441
20
-1.68602
11
4.32677
21
-1.68602
0
LINE
8
BLACK
6
CONTINUOUS
10
4.32677
20
-1.68602
11
4.32677
21
-1.78839
0
LINE
8
BLACK
6
CONTINUOUS
10
7.00393
20
-1.78839
11
6.90157
21
-1.78839
0
LINE
8
BLACK
6
CONTINUOUS
10
6.90157
20
-1.78839
11
6.90157
21
-1.68602
0
LINE
8
BLACK
6
CONTINUOUS
10
6.90157
20
-1.68602
11
7.00393
21
-1.68602
0
LINE
8
BLACK
6
CONTINUOUS
10
7.00393
20
-1.68602
11
7.00393
21
-1.78839
0
LINE
8
BLACK
6
CONTINUOUS
10
3.49475
20
-1.75525
11
3.47703
21
-1.75525
0
LINE
8
BLACK
6
CONTINUOUS
10
3.47703
20
-1.75525
11
3.47703
21
-1.73163
0
LINE
8
BLACK
6
CONTINUOUS
10
3.47703
20
-1.73163
11
3.49475
21
-1.73163
0
LINE
8
BLACK
6
CONTINUOUS
10
3.49475
20
-1.73163
11
3.49475
21
-1.75525
0
LINE
8
BLACK
6
CONTINUOUS
10
8.17979
20
-1.75525
11
8.16207
21
-1.75525
0
LINE
8
BLACK
6
CONTINUOUS
10
8.16207
20
-1.75525
11
8.16207
21
-1.73163
0
LINE
8
BLACK
6
CONTINUOUS
10
8.16207
20
-1.73163
11
8.17979
21
-1.73163
0
LINE
8
BLACK
6
CONTINUOUS
10
8.17979
20
-1.73163
11
8.17979
21
-1.75525
0
LINE
8
BLACK
6
CONTINUOUS
10
4.83333
20
-1.75525
11
4.81561
21
-1.75525
0
LINE
8
BLACK
6
CONTINUOUS
10
4.81561
20
-1.75525
11
4.81561
21
-1.73163
0
LINE
8
BLACK
6
CONTINUOUS
10
4.81561
20
-1.73163
11
4.83333
21
-1.73163
0
LINE
8
BLACK
6
CONTINUOUS
10
4.83333
20
-1.73163
11
4.83333
21
-1.75525
0
LINE
8
BLACK
6
CONTINUOUS
10
5.50262
20
-1.75525
11
5.48491
21
-1.75525
0
LINE
8
BLACK
6
CONTINUOUS
10
5.48491
20
-1.75525
11
5.48491
21
-1.73163
0
LINE
8
BLACK
6
CONTINUOUS
10
5.48491
20
-1.73163
11
5.50262
21
-1.73163
0
LINE
8
BLACK
6
CONTINUOUS
10
5.50262
20
-1.73163
11
5.50262
21
-1.75525
0
LINE
8
BLACK
6
CONTINUOUS
10
8.84908
20
-1.75525
11
8.83136
21
-1.75525
0
LINE
8
BLACK
6
CONTINUOUS
10
8.83136
20
-1.75525
11
8.83136
21
-1.73163
0
LINE
8
BLACK
6
CONTINUOUS
10
8.83136
20
-1.73163
11
8.84908
21
-1.73163
0
LINE
8
BLACK
6
CONTINUOUS
10
8.84908
20
-1.73163
11
8.84908
21
-1.75525
0
LINE
8
BLACK
6
CONTINUOUS
10
6.8412
20
-1.75525
11
6.82349
21
-1.75525
0
LINE
8
BLACK
6
CONTINUOUS
10
6.82349
20
-1.75525
11
6.82349
21
-1.73163
0
LINE
8
BLACK
6
CONTINUOUS
10
6.82349
20
-1.73163
11
6.8412
21
-1.73163
0
LINE
8
BLACK
6
CONTINUOUS
10
6.8412
20
-1.73163
11
6.8412
21
-1.75525
0
LINE
8
BLACK
6
CONTINUOUS
10
6.17191
20
-1.75525
11
6.1542
21
-1.75525
0
LINE
8
BLACK
6
CONTINUOUS
10
6.1542
20
-1.75525
11
6.1542
21
-1.73163
0
LINE
8
BLACK
6
CONTINUOUS
10
6.1542
20
-1.73163
11
6.17191
21
-1.73163
0
LINE
8
BLACK
6
CONTINUOUS
10
6.17191
20
-1.73163
11
6.17191
21
-1.75525
0
LINE
8
BLACK
6
CONTINUOUS
10
7.5105
20
-1.75525
11
7.49278
21
-1.75525
0
LINE
8
BLACK
6
CONTINUOUS
10
7.49278
20
-1.75525
11
7.49278
21
-1.73163
0
LINE
8
BLACK
6
CONTINUOUS
10
7.49278
20
-1.73163
11
7.5105
21
-1.73163
0
LINE
8
BLACK
6
CONTINUOUS
10
7.5105
20
-1.73163
11
7.5105
21
-1.75525
0
LINE
8
BLACK
6
CONTINUOUS
10
4.16404
20
-1.75525
11
4.14632
21
-1.75525
0
LINE
8
BLACK
6
CONTINUOUS
10
4.14632
20
-1.75525
11
4.14632
21
-1.73163
0
LINE
8
BLACK
6
CONTINUOUS
10
4.14632
20
-1.73163
11
4.16404
21
-1.73163
0
LINE
8
BLACK
6
CONTINUOUS
10
4.16404
20
-1.73163
11
4.16404
21
-1.75525
0
LINE
8
BLACK
6
CONTINUOUS
10
9.51837
20
-1.75525
11
9.50065
21
-1.75525
0
LINE
8
BLACK
6
CONTINUOUS
10
9.50065
20
-1.75525
11
9.50065
21
-1.73163
0
LINE
8
BLACK
6
CONTINUOUS
10
9.50065
20
-1.73163
11
9.51837
21
-1.73163
0
LINE
8
BLACK
6
CONTINUOUS
10
9.51837
20
-1.73163
11
9.51837
21
-1.75525
0
LINE
8
BLACK
6
CONTINUOUS
10
4.29233
20
-1.57778
11
4.29412
21
-1.57898
0
LINE
8
BLACK
6
CONTINUOUS
10
4.29412
20
-1.57898
11
4.29531
21
-1.58076
0
LINE
8
BLACK
6
CONTINUOUS
10
4.29531
20
-1.58076
11
4.29573
21
-1.58287
0
LINE
8
BLACK
6
CONTINUOUS
10
4.29573
20
-1.58287
11
4.29573
21
-1.59626
0
LINE
8
BLACK
6
CONTINUOUS
10
4.29573
20
-1.59626
11
4.29531
21
-1.59837
0
LINE
8
BLACK
6
CONTINUOUS
10
4.29531
20
-1.59837
11
4.29412
21
-1.60016
0
LINE
8
BLACK
6
CONTINUOUS
10
4.29412
20
-1.60016
11
4.29233
21
-1.60135
0
LINE
8
BLACK
6
CONTINUOUS
10
4.29233
20
-1.60135
11
4.29022
21
-1.60177
0
LINE
8
BLACK
6
CONTINUOUS
10
4.29022
20
-1.60177
11
4.2792
21
-1.60177
0
LINE
8
BLACK
6
CONTINUOUS
10
4.2792
20
-1.60177
11
4.27709
21
-1.60135
0
LINE
8
BLACK
6
CONTINUOUS
10
4.27709
20
-1.60135
11
4.2753
21
-1.60016
0
LINE
8
BLACK
6
CONTINUOUS
10
4.2753
20
-1.60016
11
4.27411
21
-1.59837
0
LINE
8
BLACK
6
CONTINUOUS
10
4.27411
20
-1.59837
11
4.27369
21
-1.59626
0
LINE
8
BLACK
6
CONTINUOUS
10
4.27369
20
-1.59626
11
4.27369
21
-1.58287
0
LINE
8
BLACK
6
CONTINUOUS
10
4.27369
20
-1.58287
11
4.27411
21
-1.58076
0
LINE
8
BLACK
6
CONTINUOUS
10
4.27411
20
-1.58076
11
4.2753
21
-1.57898
0
LINE
8
BLACK
6
CONTINUOUS
10
4.2753
20
-1.57898
11
4.27709
21
-1.57778
0
LINE
8
BLACK
6
CONTINUOUS
10
4.27709
20
-1.57778
11
4.2792
21
-1.57736
0
LINE
8
BLACK
6
CONTINUOUS
10
4.2792
20
-1.57736
11
4.29022
21
-1.57736
0
LINE
8
BLACK
6
CONTINUOUS
10
4.29022
20
-1.57736
11
4.29233
21
-1.57778
0
LINE
8
BLACK
6
CONTINUOUS
10
4.33013
20
-1.57778
11
4.33191
21
-1.57898
0
LINE
8
BLACK
6
CONTINUOUS
10
4.33191
20
-1.57898
11
4.33311
21
-1.58076
0
LINE
8
BLACK
6
CONTINUOUS
10
4.33311
20
-1.58076
11
4.33353
21
-1.58287
0
LINE
8
BLACK
6
CONTINUOUS
10
4.33353
20
-1.58287
11
4.33353
21
-1.59626
0
LINE
8
BLACK
6
CONTINUOUS
10
4.33353
20
-1.59626
11
4.33311
21
-1.59837
0
LINE
8
BLACK
6
CONTINUOUS
10
4.33311
20
-1.59837
11
4.33191
21
-1.60016
0
LINE
8
BLACK
6
CONTINUOUS
10
4.33191
20
-1.60016
11
4.33013
21
-1.60135
0
LINE
8
BLACK
6
CONTINUOUS
10
4.33013
20
-1.60135
11
4.32802
21
-1.60177
0
LINE
8
BLACK
6
CONTINUOUS
10
4.32802
20
-1.60177
11
4.31699
21
-1.60177
0
LINE
8
BLACK
6
CONTINUOUS
10
4.31699
20
-1.60177
11
4.31488
21
-1.60135
0
LINE
8
BLACK
6
CONTINUOUS
10
4.31488
20
-1.60135
11
4.3131
21
-1.60016
0
LINE
8
BLACK
6
CONTINUOUS
10
4.3131
20
-1.60016
11
4.3119
21
-1.59837
0
LINE
8
BLACK
6
CONTINUOUS
10
4.3119
20
-1.59837
11
4.31148
21
-1.59626
0
LINE
8
BLACK
6
CONTINUOUS
10
4.31148
20
-1.59626
11
4.31148
21
-1.58287
0
LINE
8
BLACK
6
CONTINUOUS
10
4.31148
20
-1.58287
11
4.3119
21
-1.58076
0
LINE
8
BLACK
6
CONTINUOUS
10
4.3119
20
-1.58076
11
4.3131
21
-1.57898
0
LINE
8
BLACK
6
CONTINUOUS
10
4.3131
20
-1.57898
11
4.31488
21
-1.57778
0
LINE
8
BLACK
6
CONTINUOUS
10
4.31488
20
-1.57778
11
4.31699
21
-1.57736
0
LINE
8
BLACK
6
CONTINUOUS
10
4.31699
20
-1.57736
11
4.32802
21
-1.57736
0
LINE
8
BLACK
6
CONTINUOUS
10
4.32802
20
-1.57736
11
4.33013
21
-1.57778
0
LINE
8
BLACK
6
CONTINUOUS
10
4.76077
20
-1.54333
11
4.76256
21
-1.54453
0
LINE
8
BLACK
6
CONTINUOUS
10
4.76256
20
-1.54453
11
4.76375
21
-1.54632
0
LINE
8
BLACK
6
CONTINUOUS
10
4.76375
20
-1.54632
11
4.76417
21
-1.54843
0
LINE
8
BLACK
6
CONTINUOUS
10
4.76417
20
-1.54843
11
4.76417
21
-1.56181
0
LINE
8
BLACK
6
CONTINUOUS
10
4.76417
20
-1.56181
11
4.76375
21
-1.56392
0
LINE
8
BLACK
6
CONTINUOUS
10
4.76375
20
-1.56392
11
4.76256
21
-1.56571
0
LINE
8
BLACK
6
CONTINUOUS
10
4.76256
20
-1.56571
11
4.76077
21
-1.5669
0
LINE
8
BLACK
6
CONTINUOUS
10
4.76077
20
-1.5669
11
4.75866
21
-1.56732
0
LINE
8
BLACK
6
CONTINUOUS
10
4.75866
20
-1.56732
11
4.74764
21
-1.56732
0
LINE
8
BLACK
6
CONTINUOUS
10
4.74764
20
-1.56732
11
4.74553
21
-1.5669
0
LINE
8
BLACK
6
CONTINUOUS
10
4.74553
20
-1.5669
11
4.74374
21
-1.56571
0
LINE
8
BLACK
6
CONTINUOUS
10
4.74374
20
-1.56571
11
4.74255
21
-1.56392
0
LINE
8
BLACK
6
CONTINUOUS
10
4.74255
20
-1.56392
11
4.74213
21
-1.56181
0
LINE
8
BLACK
6
CONTINUOUS
10
4.74213
20
-1.56181
11
4.74213
21
-1.54843
0
LINE
8
BLACK
6
CONTINUOUS
10
4.74213
20
-1.54843
11
4.74255
21
-1.54632
0
LINE
8
BLACK
6
CONTINUOUS
10
4.74255
20
-1.54632
11
4.74374
21
-1.54453
0
LINE
8
BLACK
6
CONTINUOUS
10
4.74374
20
-1.54453
11
4.74553
21
-1.54333
0
LINE
8
BLACK
6
CONTINUOUS
10
4.74553
20
-1.54333
11
4.74764
21
-1.54291
0
LINE
8
BLACK
6
CONTINUOUS
10
4.74764
20
-1.54291
11
4.75866
21
-1.54291
0
LINE
8
BLACK
6
CONTINUOUS
10
4.75866
20
-1.54291
11
4.76077
21
-1.54333
0
LINE
8
BLACK
6
CONTINUOUS
10
4.72298
20
-1.54333
11
4.72476
21
-1.54453
0
LINE
8
BLACK
6
CONTINUOUS
10
4.72476
20
-1.54453
11
4.72596
21
-1.54632
0
LINE
8
BLACK
6
CONTINUOUS
10
4.72596
20
-1.54632
11
4.72638
21
-1.54843
0
LINE
8
BLACK
6
CONTINUOUS
10
4.72638
20
-1.54843
11
4.72638
21
-1.56181
0
LINE
8
BLACK
6
CONTINUOUS
10
4.72638
20
-1.56181
11
4.72596
21
-1.56392
0
LINE
8
BLACK
6
CONTINUOUS
10
4.72596
20
-1.56392
11
4.72476
21
-1.56571
0
LINE
8
BLACK
6
CONTINUOUS
10
4.72476
20
-1.56571
11
4.72298
21
-1.5669
0
LINE
8
BLACK
6
CONTINUOUS
10
4.72298
20
-1.5669
11
4.72087
21
-1.56732
0
LINE
8
BLACK
6
CONTINUOUS
10
4.72087
20
-1.56732
11
4.70984
21
-1.56732
0
LINE
8
BLACK
6
CONTINUOUS
10
4.70984
20
-1.56732
11
4.70773
21
-1.5669
0
LINE
8
BLACK
6
CONTINUOUS
10
4.70773
20
-1.5669
11
4.70595
21
-1.56571
0
LINE
8
BLACK
6
CONTINUOUS
10
4.70595
20
-1.56571
11
4.70475
21
-1.56392
0
LINE
8
BLACK
6
CONTINUOUS
10
4.70475
20
-1.56392
11
4.70433
21
-1.56181
0
LINE
8
BLACK
6
CONTINUOUS
10
4.70433
20
-1.56181
11
4.70433
21
-1.54843
0
LINE
8
BLACK
6
CONTINUOUS
10
4.70433
20
-1.54843
11
4.70475
21
-1.54632
0
LINE
8
BLACK
6
CONTINUOUS
10
4.70475
20
-1.54632
11
4.70595
21
-1.54453
0
LINE
8
BLACK
6
CONTINUOUS
10
4.70595
20
-1.54453
11
4.70773
21
-1.54333
0
LINE
8
BLACK
6
CONTINUOUS
10
4.70773
20
-1.54333
11
4.70984
21
-1.54291
0
LINE
8
BLACK
6
CONTINUOUS
10
4.70984
20
-1.54291
11
4.72087
21
-1.54291
0
LINE
8
BLACK
6
CONTINUOUS
10
4.72087
20
-1.54291
11
4.72298
21
-1.54333
0
LINE
8
BLACK
6
CONTINUOUS
10
4.36739
20
-1.51174
11
4.36819
21
-1.51228
0
LINE
8
BLACK
6
CONTINUOUS
10
4.36819
20
-1.51228
11
4.37167
21
-1.51575
0
LINE
8
BLACK
6
CONTINUOUS
10
4.37167
20
-1.51575
11
4.3722
21
-1.51655
0
LINE
8
BLACK
6
CONTINUOUS
10
4.3722
20
-1.51655
11
4.37239
21
-1.51749
0
LINE
8
BLACK
6
CONTINUOUS
10
4.37239
20
-1.51749
11
4.3722
21
-1.51844
0
LINE
8
BLACK
6
CONTINUOUS
10
4.3722
20
-1.51844
11
4.37167
21
-1.51923
0
LINE
8
BLACK
6
CONTINUOUS
10
4.37167
20
-1.51923
11
4.34522
21
-1.54568
0
LINE
8
BLACK
6
CONTINUOUS
10
4.34522
20
-1.54568
11
4.34442
21
-1.54622
0
LINE
8
BLACK
6
CONTINUOUS
10
4.34442
20
-1.54622
11
4.34348
21
-1.5464
0
LINE
8
BLACK
6
CONTINUOUS
10
4.34348
20
-1.5464
11
4.34254
21
-1.54622
0
LINE
8
BLACK
6
CONTINUOUS
10
4.34254
20
-1.54622
11
4.34174
21
-1.54568
0
LINE
8
BLACK
6
CONTINUOUS
10
4.34174
20
-1.54568
11
4.33826
21
-1.5422
0
LINE
8
BLACK
6
CONTINUOUS
10
4.33826
20
-1.5422
11
4.33773
21
-1.5414
0
LINE
8
BLACK
6
CONTINUOUS
10
4.33773
20
-1.5414
11
4.33754
21
-1.54046
0
LINE
8
BLACK
6
CONTINUOUS
10
4.33754
20
-1.54046
11
4.33773
21
-1.53952
0
LINE
8
BLACK
6
CONTINUOUS
10
4.33773
20
-1.53952
11
4.33826
21
-1.53872
0
LINE
8
BLACK
6
CONTINUOUS
10
4.33826
20
-1.53872
11
4.36471
21
-1.51228
0
LINE
8
BLACK
6
CONTINUOUS
10
4.36471
20
-1.51228
11
4.36551
21
-1.51174
0
LINE
8
BLACK
6
CONTINUOUS
10
4.36551
20
-1.51174
11
4.36645
21
-1.51155
0
LINE
8
BLACK
6
CONTINUOUS
10
4.36645
20
-1.51155
11
4.36739
21
-1.51174
0
LINE
8
BLACK
6
CONTINUOUS
10
4.39105
20
-1.51174
11
4.39185
21
-1.51228
0
LINE
8
BLACK
6
CONTINUOUS
10
4.39185
20
-1.51228
11
4.4183
21
-1.53872
0
LINE
8
BLACK
6
CONTINUOUS
10
4.4183
20
-1.53872
11
4.41883
21
-1.53952
0
LINE
8
BLACK
6
CONTINUOUS
10
4.41883
20
-1.53952
11
4.41902
21
-1.54046
0
LINE
8
BLACK
6
CONTINUOUS
10
4.41902
20
-1.54046
11
4.41883
21
-1.5414
0
LINE
8
BLACK
6
CONTINUOUS
10
4.41883
20
-1.5414
11
4.4183
21
-1.5422
0
LINE
8
BLACK
6
CONTINUOUS
10
4.4183
20
-1.5422
11
4.41482
21
-1.54568
0
LINE
8
BLACK
6
CONTINUOUS
10
4.41482
20
-1.54568
11
4.41402
21
-1.54622
0
LINE
8
BLACK
6
CONTINUOUS
10
4.41402
20
-1.54622
11
4.41308
21
-1.5464
0
LINE
8
BLACK
6
CONTINUOUS
10
4.41308
20
-1.5464
11
4.41214
21
-1.54622
0
LINE
8
BLACK
6
CONTINUOUS
10
4.41214
20
-1.54622
11
4.41134
21
-1.54568
0
LINE
8
BLACK
6
CONTINUOUS
10
4.41134
20
-1.54568
11
4.38489
21
-1.51923
0
LINE
8
BLACK
6
CONTINUOUS
10
4.38489
20
-1.51923
11
4.38436
21
-1.51844
0
LINE
8
BLACK
6
CONTINUOUS
10
4.38436
20
-1.51844
11
4.38417
21
-1.51749
0
LINE
8
BLACK
6
CONTINUOUS
10
4.38417
20
-1.51749
11
4.38436
21
-1.51655
0
LINE
8
BLACK
6
CONTINUOUS
10
4.38436
20
-1.51655
11
4.38489
21
-1.51575
0
LINE
8
BLACK
6
CONTINUOUS
10
4.38489
20
-1.51575
11
4.38837
21
-1.51228
0
LINE
8
BLACK
6
CONTINUOUS
10
4.38837
20
-1.51228
11
4.38917
21
-1.51174
0
LINE
8
BLACK
6
CONTINUOUS
10
4.38917
20
-1.51174
11
4.39011
21
-1.51155
0
LINE
8
BLACK
6
CONTINUOUS
10
4.39011
20
-1.51155
11
4.39105
21
-1.51174
0
LINE
8
BLACK
6
CONTINUOUS
10
4.35347
20
-1.49782
11
4.35427
21
-1.49836
0
LINE
8
BLACK
6
CONTINUOUS
10
4.35427
20
-1.49836
11
4.35775
21
-1.50184
0
LINE
8
BLACK
6
CONTINUOUS
10
4.35775
20
-1.50184
11
4.35828
21
-1.50263
0
LINE
8
BLACK
6
CONTINUOUS
10
4.35828
20
-1.50263
11
4.35847
21
-1.50358
0
LINE
8
BLACK
6
CONTINUOUS
10
4.35847
20
-1.50358
11
4.35828
21
-1.50452
0
LINE
8
BLACK
6
CONTINUOUS
10
4.35828
20
-1.50452
11
4.35775
21
-1.50532
0
LINE
8
BLACK
6
CONTINUOUS
10
4.35775
20
-1.50532
11
4.3313
21
-1.53176
0
LINE
8
BLACK
6
CONTINUOUS
10
4.3313
20
-1.53176
11
4.3305
21
-1.5323
0
LINE
8
BLACK
6
CONTINUOUS
10
4.3305
20
-1.5323
11
4.32956
21
-1.53248
0
LINE
8
BLACK
6
CONTINUOUS
10
4.32956
20
-1.53248
11
4.32862
21
-1.5323
0
LINE
8
BLACK
6
CONTINUOUS
10
4.32862
20
-1.5323
11
4.32782
21
-1.53176
0
LINE
8
BLACK
6
CONTINUOUS
10
4.32782
20
-1.53176
11
4.32434
21
-1.52828
0
LINE
8
BLACK
6
CONTINUOUS
10
4.32434
20
-1.52828
11
4.32381
21
-1.52748
0
LINE
8
BLACK
6
CONTINUOUS
10
4.32381
20
-1.52748
11
4.32362
21
-1.52654
0
LINE
8
BLACK
6
CONTINUOUS
10
4.32362
20
-1.52654
11
4.32381
21
-1.5256
0
LINE
8
BLACK
6
CONTINUOUS
10
4.32381
20
-1.5256
11
4.32434
21
-1.5248
0
LINE
8
BLACK
6
CONTINUOUS
10
4.32434
20
-1.5248
11
4.35079
21
-1.49836
0
LINE
8
BLACK
6
CONTINUOUS
10
4.35079
20
-1.49836
11
4.35159
21
-1.49782
0
LINE
8
BLACK
6
CONTINUOUS
10
4.35159
20
-1.49782
11
4.35253
21
-1.49764
0
LINE
8
BLACK
6
CONTINUOUS
10
4.35253
20
-1.49764
11
4.35347
21
-1.49782
0
LINE
8
BLACK
6
CONTINUOUS
10
4.40497
20
-1.49782
11
4.40577
21
-1.49836
0
LINE
8
BLACK
6
CONTINUOUS
10
4.40577
20
-1.49836
11
4.43222
21
-1.5248
0
LINE
8
BLACK
6
CONTINUOUS
10
4.43222
20
-1.5248
11
4.43275
21
-1.5256
0
LINE
8
BLACK
6
CONTINUOUS
10
4.43275
20
-1.5256
11
4.43294
21
-1.52654
0
LINE
8
BLACK
6
CONTINUOUS
10
4.43294
20
-1.52654
11
4.43275
21
-1.52748
0
LINE
8
BLACK
6
CONTINUOUS
10
4.43275
20
-1.52748
11
4.43222
21
-1.52828
0
LINE
8
BLACK
6
CONTINUOUS
10
4.43222
20
-1.52828
11
4.42874
21
-1.53176
0
LINE
8
BLACK
6
CONTINUOUS
10
4.42874
20
-1.53176
11
4.42794
21
-1.5323
0
LINE
8
BLACK
6
CONTINUOUS
10
4.42794
20
-1.5323
11
4.427
21
-1.53248
0
LINE
8
BLACK
6
CONTINUOUS
10
4.427
20
-1.53248
11
4.42606
21
-1.5323
0
LINE
8
BLACK
6
CONTINUOUS
10
4.42606
20
-1.5323
11
4.42526
21
-1.53176
0
LINE
8
BLACK
6
CONTINUOUS
10
4.42526
20
-1.53176
11
4.39881
21
-1.50532
0
LINE
8
BLACK
6
CONTINUOUS
10
4.39881
20
-1.50532
11
4.39828
21
-1.50452
0
LINE
8
BLACK
6
CONTINUOUS
10
4.39828
20
-1.50452
11
4.39809
21
-1.50358
0
LINE
8
BLACK
6
CONTINUOUS
10
4.39809
20
-1.50358
11
4.39828
21
-1.50263
0
LINE
8
BLACK
6
CONTINUOUS
10
4.39828
20
-1.50263
11
4.39881
21
-1.50184
0
LINE
8
BLACK
6
CONTINUOUS
10
4.39881
20
-1.50184
11
4.40229
21
-1.49836
0
LINE
8
BLACK
6
CONTINUOUS
10
4.40229
20
-1.49836
11
4.40309
21
-1.49782
0
LINE
8
BLACK
6
CONTINUOUS
10
4.40309
20
-1.49782
11
4.40403
21
-1.49764
0
LINE
8
BLACK
6
CONTINUOUS
10
4.40403
20
-1.49764
11
4.40497
21
-1.49782
0
LINE
8
BLACK
6
CONTINUOUS
10
4.33955
20
-1.4839
11
4.34035
21
-1.48444
0
LINE
8
BLACK
6
CONTINUOUS
10
4.34035
20
-1.48444
11
4.34383
21
-1.48792
0
LINE
8
BLACK
6
CONTINUOUS
10
4.34383
20
-1.48792
11
4.34436
21
-1.48871
0
LINE
8
BLACK
6
CONTINUOUS
10
4.34436
20
-1.48871
11
4.34455
21
-1.48966
0
LINE
8
BLACK
6
CONTINUOUS
10
4.34455
20
-1.48966
11
4.34436
21
-1.4906
0
LINE
8
BLACK
6
CONTINUOUS
10
4.34436
20
-1.4906
11
4.34383
21
-1.4914
0
LINE
8
BLACK
6
CONTINUOUS
10
4.34383
20
-1.4914
11
4.31738
21
-1.51784
0
LINE
8
BLACK
6
CONTINUOUS
10
4.31738
20
-1.51784
11
4.31658
21
-1.51838
0
LINE
8
BLACK
6
CONTINUOUS
10
4.31658
20
-1.51838
11
4.31564
21
-1.51856
0
LINE
8
BLACK
6
CONTINUOUS
10
4.31564
20
-1.51856
11
4.3147
21
-1.51838
0
LINE
8
BLACK
6
CONTINUOUS
10
4.3147
20
-1.51838
11
4.3139
21
-1.51784
0
LINE
8
BLACK
6
CONTINUOUS
10
4.3139
20
-1.51784
11
4.31042
21
-1.51436
0
LINE
8
BLACK
6
CONTINUOUS
10
4.31042
20
-1.51436
11
4.30989
21
-1.51356
0
LINE
8
BLACK
6
CONTINUOUS
10
4.30989
20
-1.51356
11
4.3097
21
-1.51262
0
LINE
8
BLACK
6
CONTINUOUS
10
4.3097
20
-1.51262
11
4.30989
21
-1.51168
0
LINE
8
BLACK
6
CONTINUOUS
10
4.30989
20
-1.51168
11
4.31042
21
-1.51088
0
LINE
8
BLACK
6
CONTINUOUS
10
4.31042
20
-1.51088
11
4.33687
21
-1.48444
0
LINE
8
BLACK
6
CONTINUOUS
10
4.33687
20
-1.48444
11
4.33767
21
-1.4839
0
LINE
8
BLACK
6
CONTINUOUS
10
4.33767
20
-1.4839
11
4.33861
21
-1.48372
0
LINE
8
BLACK
6
CONTINUOUS
10
4.33861
20
-1.48372
11
4.33955
21
-1.4839
0
LINE
8
BLACK
6
CONTINUOUS
10
4.41889
20
-1.4839
11
4.41969
21
-1.48444
0
LINE
8
BLACK
6
CONTINUOUS
10
4.41969
20
-1.48444
11
4.44614
21
-1.51088
0
LINE
8
BLACK
6
CONTINUOUS
10
4.44614
20
-1.51088
11
4.44667
21
-1.51168
0
LINE
8
BLACK
6
CONTINUOUS
10
4.44667
20
-1.51168
11
4.44686
21
-1.51262
0
LINE
8
BLACK
6
CONTINUOUS
10
4.44686
20
-1.51262
11
4.44667
21
-1.51356
0
LINE
8
BLACK
6
CONTINUOUS
10
4.44667
20
-1.51356
11
4.44614
21
-1.51436
0
LINE
8
BLACK
6
CONTINUOUS
10
4.44614
20
-1.51436
11
4.44266
21
-1.51784
0
LINE
8
BLACK
6
CONTINUOUS
10
4.44266
20
-1.51784
11
4.44186
21
-1.51838
0
LINE
8
BLACK
6
CONTINUOUS
10
4.44186
20
-1.51838
11
4.44092
21
-1.51856
0
LINE
8
BLACK
6
CONTINUOUS
10
4.44092
20
-1.51856
11
4.43997
21
-1.51838
0
LINE
8
BLACK
6
CONTINUOUS
10
4.43997
20
-1.51838
11
4.43918
21
-1.51784
0
LINE
8
BLACK
6
CONTINUOUS
10
4.43918
20
-1.51784
11
4.41273
21
-1.4914
0
LINE
8
BLACK
6
CONTINUOUS
10
4.41273
20
-1.4914
11
4.4122
21
-1.4906
0
LINE
8
BLACK
6
CONTINUOUS
10
4.4122
20
-1.4906
11
4.41201
21
-1.48966
0
LINE
8
BLACK
6
CONTINUOUS
10
4.41201
20
-1.48966
11
4.4122
21
-1.48871
0
LINE
8
BLACK
6
CONTINUOUS
10
4.4122
20
-1.48871
11
4.41273
21
-1.48792
0
LINE
8
BLACK
6
CONTINUOUS
10
4.41273
20
-1.48792
11
4.41621
21
-1.48444
0
LINE
8
BLACK
6
CONTINUOUS
10
4.41621
20
-1.48444
11
4.41701
21
-1.4839
0
LINE
8
BLACK
6
CONTINUOUS
10
4.41701
20
-1.4839
11
4.41795
21
-1.48372
0
LINE
8
BLACK
6
CONTINUOUS
10
4.41795
20
-1.48372
11
4.41889
21
-1.4839
0
LINE
8
BLACK
6
CONTINUOUS
10
4.77165
20
-1.51772
11
4.72441
21
-1.51772
0
LINE
8
BLACK
6
CONTINUOUS
10
4.72441
20
-1.51772
11
4.72441
21
-1.4626
0
LINE
8
BLACK
6
CONTINUOUS
10
4.72441
20
-1.4626
11
4.77165
21
-1.4626
0
LINE
8
BLACK
6
CONTINUOUS
10
4.77165
20
-1.4626
11
4.77165
21
-1.51772
0
LINE
8
BLACK
6
CONTINUOUS
10
4.70472
20
-1.51772
11
4.65748
21
-1.51772
0
LINE
8
BLACK
6
CONTINUOUS
10
4.65748
20
-1.51772
11
4.65748
21
-1.4626
0
LINE
8
BLACK
6
CONTINUOUS
10
4.65748
20
-1.4626
11
4.70472
21
-1.4626
0
LINE
8
BLACK
6
CONTINUOUS
10
4.70472
20
-1.4626
11
4.70472
21
-1.51772
0
LINE
8
BLACK
6
CONTINUOUS
10
4.43281
20
-1.46998
11
4.43361
21
-1.47052
0
LINE
8
BLACK
6
CONTINUOUS
10
4.43361
20
-1.47052
11
4.46006
21
-1.49696
0
LINE
8
BLACK
6
CONTINUOUS
10
4.46006
20
-1.49696
11
4.46059
21
-1.49776
0
LINE
8
BLACK
6
CONTINUOUS
10
4.46059
20
-1.49776
11
4.46078
21
-1.4987
0
LINE
8
BLACK
6
CONTINUOUS
10
4.46078
20
-1.4987
11
4.46059
21
-1.49965
0
LINE
8
BLACK
6
CONTINUOUS
10
4.46059
20
-1.49965
11
4.46006
21
-1.50044
0
LINE
8
BLACK
6
CONTINUOUS
10
4.46006
20
-1.50044
11
4.45658
21
-1.50392
0
LINE
8
BLACK
6
CONTINUOUS
10
4.45658
20
-1.50392
11
4.45578
21
-1.50446
0
LINE
8
BLACK
6
CONTINUOUS
10
4.45578
20
-1.50446
11
4.45484
21
-1.50464
0
LINE
8
BLACK
6
CONTINUOUS
10
4.45484
20
-1.50464
11
4.45389
21
-1.50446
0
LINE
8
BLACK
6
CONTINUOUS
10
4.45389
20
-1.50446
11
4.4531
21
-1.50392
0
LINE
8
BLACK
6
CONTINUOUS
10
4.4531
20
-1.50392
11
4.42665
21
-1.47748
0
LINE
8
BLACK
6
CONTINUOUS
10
4.42665
20
-1.47748
11
4.42612
21
-1.47668
0
LINE
8
BLACK
6
CONTINUOUS
10
4.42612
20
-1.47668
11
4.42593
21
-1.47574
0
LINE
8
BLACK
6
CONTINUOUS
10
4.42593
20
-1.47574
11
4.42612
21
-1.4748
0
LINE
8
BLACK
6
CONTINUOUS
10
4.42612
20
-1.4748
11
4.42665
21
-1.474
0
LINE
8
BLACK
6
CONTINUOUS
10
4.42665
20
-1.474
11
4.43013
21
-1.47052
0
LINE
8
BLACK
6
CONTINUOUS
10
4.43013
20
-1.47052
11
4.43093
21
-1.46998
0
LINE
8
BLACK
6
CONTINUOUS
10
4.43093
20
-1.46998
11
4.43187
21
-1.4698
0
LINE
8
BLACK
6
CONTINUOUS
10
4.43187
20
-1.4698
11
4.43281
21
-1.46998
0
LINE
8
BLACK
6
CONTINUOUS
10
4.32563
20
-1.46998
11
4.32643
21
-1.47052
0
LINE
8
BLACK
6
CONTINUOUS
10
4.32643
20
-1.47052
11
4.32991
21
-1.474
0
LINE
8
BLACK
6
CONTINUOUS
10
4.32991
20
-1.474
11
4.33044
21
-1.4748
0
LINE
8
BLACK
6
CONTINUOUS
10
4.33044
20
-1.4748
11
4.33063
21
-1.47574
0
LINE
8
BLACK
6
CONTINUOUS
10
4.33063
20
-1.47574
11
4.33044
21
-1.47668
0
LINE
8
BLACK
6
CONTINUOUS
10
4.33044
20
-1.47668
11
4.32991
21
-1.47748
0
LINE
8
BLACK
6
CONTINUOUS
10
4.32991
20
-1.47748
11
4.30346
21
-1.50392
0
LINE
8
BLACK
6
CONTINUOUS
10
4.30346
20
-1.50392
11
4.30266
21
-1.50446
0
LINE
8
BLACK
6
CONTINUOUS
10
4.30266
20
-1.50446
11
4.30172
21
-1.50464
0
LINE
8
BLACK
6
CONTINUOUS
10
4.30172
20
-1.50464
11
4.30078
21
-1.50446
0
LINE
8
BLACK
6
CONTINUOUS
10
4.30078
20
-1.50446
11
4.29998
21
-1.50392
0
LINE
8
BLACK
6
CONTINUOUS
10
4.29998
20
-1.50392
11
4.2965
21
-1.50044
0
LINE
8
BLACK
6
CONTINUOUS
10
4.2965
20
-1.50044
11
4.29597
21
-1.49965
0
LINE
8
BLACK
6
CONTINUOUS
10
4.29597
20
-1.49965
11
4.29578
21
-1.4987
0
LINE
8
BLACK
6
CONTINUOUS
10
4.29578
20
-1.4987
11
4.29597
21
-1.49776
0
LINE
8
BLACK
6
CONTINUOUS
10
4.29597
20
-1.49776
11
4.2965
21
-1.49696
0
LINE
8
BLACK
6
CONTINUOUS
10
4.2965
20
-1.49696
11
4.32295
21
-1.47052
0
LINE
8
BLACK
6
CONTINUOUS
10
4.32295
20
-1.47052
11
4.32375
21
-1.46998
0
LINE
8
BLACK
6
CONTINUOUS
10
4.32375
20
-1.46998
11
4.32469
21
-1.4698
0
LINE
8
BLACK
6
CONTINUOUS
10
4.32469
20
-1.4698
11
4.32563
21
-1.46998
0
LINE
8
BLACK
6
CONTINUOUS
10
4.38205
20
-1.45064
11
4.38524
21
-1.45277
0
LINE
8
BLACK
6
CONTINUOUS
10
4.38524
20
-1.45277
11
4.40055
21
-1.46808
0
LINE
8
BLACK
6
CONTINUOUS
10
4.40055
20
-1.46808
11
4.40268
21
-1.47127
0
LINE
8
BLACK
6
CONTINUOUS
10
4.40268
20
-1.47127
11
4.40343
21
-1.47504
0
LINE
8
BLACK
6
CONTINUOUS
10
4.40343
20
-1.47504
11
4.40268
21
-1.47881
0
LINE
8
BLACK
6
CONTINUOUS
10
4.40268
20
-1.47881
11
4.40055
21
-1.482
0
LINE
8
BLACK
6
CONTINUOUS
10
4.40055
20
-1.482
11
4.38524
21
-1.49731
0
LINE
8
BLACK
6
CONTINUOUS
10
4.38524
20
-1.49731
11
4.38205
21
-1.49945
0
LINE
8
BLACK
6
CONTINUOUS
10
4.38205
20
-1.49945
11
4.37828
21
-1.50019
0
LINE
8
BLACK
6
CONTINUOUS
10
4.37828
20
-1.50019
11
4.37451
21
-1.49945
0
LINE
8
BLACK
6
CONTINUOUS
10
4.37451
20
-1.49945
11
4.37132
21
-1.49731
0
LINE
8
BLACK
6
CONTINUOUS
10
4.37132
20
-1.49731
11
4.35601
21
-1.482
0
LINE
8
BLACK
6
CONTINUOUS
10
4.35601
20
-1.482
11
4.35387
21
-1.47881
0
LINE
8
BLACK
6
CONTINUOUS
10
4.35387
20
-1.47881
11
4.35312
21
-1.47504
0
LINE
8
BLACK
6
CONTINUOUS
10
4.35312
20
-1.47504
11
4.35387
21
-1.47127
0
LINE
8
BLACK
6
CONTINUOUS
10
4.35387
20
-1.47127
11
4.35601
21
-1.46808
0
LINE
8
BLACK
6
CONTINUOUS
10
4.35601
20
-1.46808
11
4.37132
21
-1.45277
0
LINE
8
BLACK
6
CONTINUOUS
10
4.37132
20
-1.45277
11
4.37451
21
-1.45064
0
LINE
8
BLACK
6
CONTINUOUS
10
4.37451
20
-1.45064
11
4.37828
21
-1.44989
0
LINE
8
BLACK
6
CONTINUOUS
10
4.37828
20
-1.44989
11
4.38205
21
-1.45064
0
LINE
8
BLACK
6
CONTINUOUS
10
5.18268
20
-1.49882
11
5.11181
21
-1.49882
0
LINE
8
BLACK
6
CONTINUOUS
10
5.11181
20
-1.49882
11
5.11181
21
-1.45551
0
LINE
8
BLACK
6
CONTINUOUS
10
5.11181
20
-1.45551
11
5.18268
21
-1.45551
0
LINE
8
BLACK
6
CONTINUOUS
10
5.18268
20
-1.45551
11
5.18268
21
-1.49882
0
LINE
8
BLACK
6
CONTINUOUS
10
5.42677
20
-1.49882
11
5.35591
21
-1.49882
0
LINE
8
BLACK
6
CONTINUOUS
10
5.35591
20
-1.49882
11
5.35591
21
-1.45551
0
LINE
8
BLACK
6
CONTINUOUS
10
5.35591
20
-1.45551
11
5.42677
21
-1.45551
0
LINE
8
BLACK
6
CONTINUOUS
10
5.42677
20
-1.45551
11
5.42677
21
-1.49882
0
LINE
8
BLACK
6
CONTINUOUS
10
3.63976
20
-1.49311
11
3.5374
21
-1.49311
0
LINE
8
BLACK
6
CONTINUOUS
10
3.5374
20
-1.49311
11
3.5374
21
-1.39075
0
LINE
8
BLACK
6
CONTINUOUS
10
3.5374
20
-1.39075
11
3.63976
21
-1.39075
0
LINE
8
BLACK
6
CONTINUOUS
10
3.63976
20
-1.39075
11
3.63976
21
-1.49311
0
LINE
8
BLACK
6
CONTINUOUS
10
4.44673
20
-1.45606
11
4.44753
21
-1.4566
0
LINE
8
BLACK
6
CONTINUOUS
10
4.44753
20
-1.4566
11
4.47397
21
-1.48304
0
LINE
8
BLACK
6
CONTINUOUS
10
4.47397
20
-1.48304
11
4.47451
21
-1.48384
0
LINE
8
BLACK
6
CONTINUOUS
10
4.47451
20
-1.48384
11
4.4747
21
-1.48478
0
LINE
8
BLACK
6
CONTINUOUS
10
4.4747
20
-1.48478
11
4.47451
21
-1.48573
0
LINE
8
BLACK
6
CONTINUOUS
10
4.47451
20
-1.48573
11
4.47397
21
-1.48652
0
LINE
8
BLACK
6
CONTINUOUS
10
4.47397
20
-1.48652
11
4.47049
21
-1.49
0
LINE
8
BLACK
6
CONTINUOUS
10
4.47049
20
-1.49
11
4.4697
21
-1.49054
0
LINE
8
BLACK
6
CONTINUOUS
10
4.4697
20
-1.49054
11
4.46876
21
-1.49072
0
LINE
8
BLACK
6
CONTINUOUS
10
4.46876
20
-1.49072
11
4.46781
21
-1.49054
0
LINE
8
BLACK
6
CONTINUOUS
10
4.46781
20
-1.49054
11
4.46702
21
-1.49
0
LINE
8
BLACK
6
CONTINUOUS
10
4.46702
20
-1.49
11
4.44057
21
-1.46356
0
LINE
8
BLACK
6
CONTINUOUS
10
4.44057
20
-1.46356
11
4.44003
21
-1.46276
0
LINE
8
BLACK
6
CONTINUOUS
10
4.44003
20
-1.46276
11
4.43985
21
-1.46182
0
LINE
8
BLACK
6
CONTINUOUS
10
4.43985
20
-1.46182
11
4.44003
21
-1.46088
0
LINE
8
BLACK
6
CONTINUOUS
10
4.44003
20
-1.46088
11
4.44057
21
-1.46008
0
LINE
8
BLACK
6
CONTINUOUS
10
4.44057
20
-1.46008
11
4.44405
21
-1.4566
0
LINE
8
BLACK
6
CONTINUOUS
10
4.44405
20
-1.4566
11
4.44485
21
-1.45606
0
LINE
8
BLACK
6
CONTINUOUS
10
4.44485
20
-1.45606
11
4.44579
21
-1.45588
0
LINE
8
BLACK
6
CONTINUOUS
10
4.44579
20
-1.45588
11
4.44673
21
-1.45606
0
LINE
8
BLACK
6
CONTINUOUS
10
4.31171
20
-1.45606
11
4.31251
21
-1.4566
0
LINE
8
BLACK
6
CONTINUOUS
10
4.31251
20
-1.4566
11
4.31599
21
-1.46008
0
LINE
8
BLACK
6
CONTINUOUS
10
4.31599
20
-1.46008
11
4.31652
21
-1.46088
0
LINE
8
BLACK
6
CONTINUOUS
10
4.31652
20
-1.46088
11
4.31671
21
-1.46182
0
LINE
8
BLACK
6
CONTINUOUS
10
4.31671
20
-1.46182
11
4.31652
21
-1.46276
0
LINE
8
BLACK
6
CONTINUOUS
10
4.31652
20
-1.46276
11
4.31599
21
-1.46356
0
LINE
8
BLACK
6
CONTINUOUS
10
4.31599
20
-1.46356
11
4.28954
21
-1.49
0
LINE
8
BLACK
6
CONTINUOUS
10
4.28954
20
-1.49
11
4.28874
21
-1.49054
0
LINE
8
BLACK
6
CONTINUOUS
10
4.28874
20
-1.49054
11
4.2878
21
-1.49072
0
LINE
8
BLACK
6
CONTINUOUS
10
4.2878
20
-1.49072
11
4.28686
21
-1.49054
0
LINE
8
BLACK
6
CONTINUOUS
10
4.28686
20
-1.49054
11
4.28606
21
-1.49
0
LINE
8
BLACK
6
CONTINUOUS
10
4.28606
20
-1.49
11
4.28258
21
-1.48652
0
LINE
8
BLACK
6
CONTINUOUS
10
4.28258
20
-1.48652
11
4.28205
21
-1.48573
0
LINE
8
BLACK
6
CONTINUOUS
10
4.28205
20
-1.48573
11
4.28186
21
-1.48478
0
LINE
8
BLACK
6
CONTINUOUS
10
4.28186
20
-1.48478
11
4.28205
21
-1.48384
0
LINE
8
BLACK
6
CONTINUOUS
10
4.28205
20
-1.48384
11
4.28258
21
-1.48304
0
LINE
8
BLACK
6
CONTINUOUS
10
4.28258
20
-1.48304
11
4.30903
21
-1.4566
0
LINE
8
BLACK
6
CONTINUOUS
10
4.30903
20
-1.4566
11
4.30983
21
-1.45606
0
LINE
8
BLACK
6
CONTINUOUS
10
4.30983
20
-1.45606
11
4.31077
21
-1.45588
0
LINE
8
BLACK
6
CONTINUOUS
10
4.31077
20
-1.45588
11
4.31171
21
-1.45606
0
LINE
8
BLACK
6
CONTINUOUS
10
4.46065
20
-1.44214
11
4.46145
21
-1.44268
0
LINE
8
BLACK
6
CONTINUOUS
10
4.46145
20
-1.44268
11
4.48789
21
-1.46912
0
LINE
8
BLACK
6
CONTINUOUS
10
4.48789
20
-1.46912
11
4.48843
21
-1.46992
0
LINE
8
BLACK
6
CONTINUOUS
10
4.48843
20
-1.46992
11
4.48861
21
-1.47086
0
LINE
8
BLACK
6
CONTINUOUS
10
4.48861
20
-1.47086
11
4.48843
21
-1.47181
0
LINE
8
BLACK
6
CONTINUOUS
10
4.48843
20
-1.47181
11
4.48789
21
-1.4726
0
LINE
8
BLACK
6
CONTINUOUS
10
4.48789
20
-1.4726
11
4.48441
21
-1.47608
0
LINE
8
BLACK
6
CONTINUOUS
10
4.48441
20
-1.47608
11
4.48362
21
-1.47662
0
LINE
8
BLACK
6
CONTINUOUS
10
4.48362
20
-1.47662
11
4.48267
21
-1.47681
0
LINE
8
BLACK
6
CONTINUOUS
10
4.48267
20
-1.47681
11
4.48173
21
-1.47662
0
LINE
8
BLACK
6
CONTINUOUS
10
4.48173
20
-1.47662
11
4.48093
21
-1.47608
0
LINE
8
BLACK
6
CONTINUOUS
10
4.48093
20
-1.47608
11
4.45449
21
-1.44964
0
LINE
8
BLACK
6
CONTINUOUS
10
4.45449
20
-1.44964
11
4.45395
21
-1.44884
0
LINE
8
BLACK
6
CONTINUOUS
10
4.45395
20
-1.44884
11
4.45377
21
-1.4479
0
LINE
8
BLACK
6
CONTINUOUS
10
4.45377
20
-1.4479
11
4.45395
21
-1.44696
0
LINE
8
BLACK
6
CONTINUOUS
10
4.45395
20
-1.44696
11
4.45449
21
-1.44616
0
LINE
8
BLACK
6
CONTINUOUS
10
4.45449
20
-1.44616
11
4.45797
21
-1.44268
0
LINE
8
BLACK
6
CONTINUOUS
10
4.45797
20
-1.44268
11
4.45877
21
-1.44214
0
LINE
8
BLACK
6
CONTINUOUS
10
4.45877
20
-1.44214
11
4.45971
21
-1.44196
0
LINE
8
BLACK
6
CONTINUOUS
10
4.45971
20
-1.44196
11
4.46065
21
-1.44214
0
LINE
8
BLACK
6
CONTINUOUS
10
4.29779
20
-1.44214
11
4.29859
21
-1.44268
0
LINE
8
BLACK
6
CONTINUOUS
10
4.29859
20
-1.44268
11
4.30207
21
-1.44616
0
LINE
8
BLACK
6
CONTINUOUS
10
4.30207
20
-1.44616
11
4.3026
21
-1.44696
0
LINE
8
BLACK
6
CONTINUOUS
10
4.3026
20
-1.44696
11
4.30279
21
-1.4479
0
LINE
8
BLACK
6
CONTINUOUS
10
4.30279
20
-1.4479
11
4.3026
21
-1.44884
0
LINE
8
BLACK
6
CONTINUOUS
10
4.3026
20
-1.44884
11
4.30207
21
-1.44964
0
LINE
8
BLACK
6
CONTINUOUS
10
4.30207
20
-1.44964
11
4.27562
21
-1.47608
0
LINE
8
BLACK
6
CONTINUOUS
10
4.27562
20
-1.47608
11
4.27482
21
-1.47662
0
LINE
8
BLACK
6
CONTINUOUS
10
4.27482
20
-1.47662
11
4.27388
21
-1.47681
0
LINE
8
BLACK
6
CONTINUOUS
10
4.27388
20
-1.47681
11
4.27294
21
-1.47662
0
LINE
8
BLACK
6
CONTINUOUS
10
4.27294
20
-1.47662
11
4.27214
21
-1.47608
0
LINE
8
BLACK
6
CONTINUOUS
10
4.27214
20
-1.47608
11
4.26866
21
-1.4726
0
LINE
8
BLACK
6
CONTINUOUS
10
4.26866
20
-1.4726
11
4.26813
21
-1.47181
0
LINE
8
BLACK
6
CONTINUOUS
10
4.26813
20
-1.47181
11
4.26794
21
-1.47086
0
LINE
8
BLACK
6
CONTINUOUS
10
4.26794
20
-1.47086
11
4.26813
21
-1.46992
0
LINE
8
BLACK
6
CONTINUOUS
10
4.26813
20
-1.46992
11
4.26866
21
-1.46912
0
LINE
8
BLACK
6
CONTINUOUS
10
4.26866
20
-1.46912
11
4.29511
21
-1.44268
0
LINE
8
BLACK
6
CONTINUOUS
10
4.29511
20
-1.44268
11
4.29591
21
-1.44214
0
LINE
8
BLACK
6
CONTINUOUS
10
4.29591
20
-1.44214
11
4.29685
21
-1.44196
0
LINE
8
BLACK
6
CONTINUOUS
10
4.29685
20
-1.44196
11
4.29779
21
-1.44214
0
LINE
8
BLACK
6
CONTINUOUS
10
4.34585
20
-1.41445
11
4.34905
21
-1.41658
0
LINE
8
BLACK
6
CONTINUOUS
10
4.34905
20
-1.41658
11
4.36436
21
-1.43189
0
LINE
8
BLACK
6
CONTINUOUS
10
4.36436
20
-1.43189
11
4.36649
21
-1.43508
0
LINE
8
BLACK
6
CONTINUOUS
10
4.36649
20
-1.43508
11
4.36724
21
-1.43885
0
LINE
8
BLACK
6
CONTINUOUS
10
4.36724
20
-1.43885
11
4.36649
21
-1.44262
0
LINE
8
BLACK
6
CONTINUOUS
10
4.36649
20
-1.44262
11
4.36436
21
-1.44581
0
LINE
8
BLACK
6
CONTINUOUS
10
4.36436
20
-1.44581
11
4.34905
21
-1.46112
0
LINE
8
BLACK
6
CONTINUOUS
10
4.34905
20
-1.46112
11
4.34585
21
-1.46325
0
LINE
8
BLACK
6
CONTINUOUS
10
4.34585
20
-1.46325
11
4.34209
21
-1.464
0
LINE
8
BLACK
6
CONTINUOUS
10
4.34209
20
-1.464
11
4.33832
21
-1.46325
0
LINE
8
BLACK
6
CONTINUOUS
10
4.33832
20
-1.46325
11
4.33513
21
-1.46112
0
LINE
8
BLACK
6
CONTINUOUS
10
4.33513
20
-1.46112
11
4.31982
21
-1.44581
0
LINE
8
BLACK
6
CONTINUOUS
10
4.31982
20
-1.44581
11
4.31768
21
-1.44262
0
LINE
8
BLACK
6
CONTINUOUS
10
4.31768
20
-1.44262
11
4.31693
21
-1.43885
0
LINE
8
BLACK
6
CONTINUOUS
10
4.31693
20
-1.43885
11
4.31768
21
-1.43508
0
LINE
8
BLACK
6
CONTINUOUS
10
4.31768
20
-1.43508
11
4.31982
21
-1.43189
0
LINE
8
BLACK
6
CONTINUOUS
10
4.31982
20
-1.43189
11
4.33513
21
-1.41658
0
LINE
8
BLACK
6
CONTINUOUS
10
4.33513
20
-1.41658
11
4.33832
21
-1.41445
0
LINE
8
BLACK
6
CONTINUOUS
10
4.33832
20
-1.41445
11
4.34209
21
-1.4137
0
LINE
8
BLACK
6
CONTINUOUS
10
4.34209
20
-1.4137
11
4.34585
21
-1.41445
0
LINE
8
BLACK
6
CONTINUOUS
10
4.41824
20
-1.41445
11
4.42143
21
-1.41658
0
LINE
8
BLACK
6
CONTINUOUS
10
4.42143
20
-1.41658
11
4.43674
21
-1.43189
0
LINE
8
BLACK
6
CONTINUOUS
10
4.43674
20
-1.43189
11
4.43887
21
-1.43508
0
LINE
8
BLACK
6
CONTINUOUS
10
4.43887
20
-1.43508
11
4.43962
21
-1.43885
0
LINE
8
BLACK
6
CONTINUOUS
10
4.43962
20
-1.43885
11
4.43887
21
-1.44262
0
LINE
8
BLACK
6
CONTINUOUS
10
4.43887
20
-1.44262
11
4.43674
21
-1.44581
0
LINE
8
BLACK
6
CONTINUOUS
10
4.43674
20
-1.44581
11
4.42143
21
-1.46112
0
LINE
8
BLACK
6
CONTINUOUS
10
4.42143
20
-1.46112
11
4.41824
21
-1.46325
0
LINE
8
BLACK
6
CONTINUOUS
10
4.41824
20
-1.46325
11
4.41447
21
-1.464
0
LINE
8
BLACK
6
CONTINUOUS
10
4.41447
20
-1.464
11
4.4107
21
-1.46325
0
LINE
8
BLACK
6
CONTINUOUS
10
4.4107
20
-1.46325
11
4.40751
21
-1.46112
0
LINE
8
BLACK
6
CONTINUOUS
10
4.40751
20
-1.46112
11
4.3922
21
-1.44581
0
LINE
8
BLACK
6
CONTINUOUS
10
4.3922
20
-1.44581
11
4.39006
21
-1.44262
0
LINE
8
BLACK
6
CONTINUOUS
10
4.39006
20
-1.44262
11
4.38932
21
-1.43885
0
LINE
8
BLACK
6
CONTINUOUS
10
4.38932
20
-1.43885
11
4.39006
21
-1.43508
0
LINE
8
BLACK
6
CONTINUOUS
10
4.39006
20
-1.43508
11
4.3922
21
-1.43189
0
LINE
8
BLACK
6
CONTINUOUS
10
4.3922
20
-1.43189
11
4.40751
21
-1.41658
0
LINE
8
BLACK
6
CONTINUOUS
10
4.40751
20
-1.41658
11
4.4107
21
-1.41445
0
LINE
8
BLACK
6
CONTINUOUS
10
4.4107
20
-1.41445
11
4.41447
21
-1.4137
0
LINE
8
BLACK
6
CONTINUOUS
10
4.41447
20
-1.4137
11
4.41824
21
-1.41445
0
LINE
8
BLACK
6
CONTINUOUS
10
4.47457
20
-1.42823
11
4.47537
21
-1.42876
0
LINE
8
BLACK
6
CONTINUOUS
10
4.47537
20
-1.42876
11
4.50181
21
-1.45521
0
LINE
8
BLACK
6
CONTINUOUS
10
4.50181
20
-1.45521
11
4.50235
21
-1.456
0
LINE
8
BLACK
6
CONTINUOUS
10
4.50235
20
-1.456
11
4.50253
21
-1.45695
0
LINE
8
BLACK
6
CONTINUOUS
10
4.50253
20
-1.45695
11
4.50235
21
-1.45789
0
LINE
8
BLACK
6
CONTINUOUS
10
4.50235
20
-1.45789
11
4.50181
21
-1.45869
0
LINE
8
BLACK
6
CONTINUOUS
10
4.50181
20
-1.45869
11
4.49833
21
-1.46217
0
LINE
8
BLACK
6
CONTINUOUS
10
4.49833
20
-1.46217
11
4.49754
21
-1.4627
0
LINE
8
BLACK
6
CONTINUOUS
10
4.49754
20
-1.4627
11
4.49659
21
-1.46289
0
LINE
8
BLACK
6
CONTINUOUS
10
4.49659
20
-1.46289
11
4.49565
21
-1.4627
0
LINE
8
BLACK
6
CONTINUOUS
10
4.49565
20
-1.4627
11
4.49485
21
-1.46217
0
LINE
8
BLACK
6
CONTINUOUS
10
4.49485
20
-1.46217
11
4.46841
21
-1.43572
0
LINE
8
BLACK
6
CONTINUOUS
10
4.46841
20
-1.43572
11
4.46787
21
-1.43492
0
LINE
8
BLACK
6
CONTINUOUS
10
4.46787
20
-1.43492
11
4.46769
21
-1.43398
0
LINE
8
BLACK
6
CONTINUOUS
10
4.46769
20
-1.43398
11
4.46787
21
-1.43304
0
LINE
8
BLACK
6
CONTINUOUS
10
4.46787
20
-1.43304
11
4.46841
21
-1.43224
0
LINE
8
BLACK
6
CONTINUOUS
10
4.46841
20
-1.43224
11
4.47189
21
-1.42876
0
LINE
8
BLACK
6
CONTINUOUS
10
4.47189
20
-1.42876
11
4.47269
21
-1.42823
0
LINE
8
BLACK
6
CONTINUOUS
10
4.47269
20
-1.42823
11
4.47363
21
-1.42804
0
LINE
8
BLACK
6
CONTINUOUS
10
4.47363
20
-1.42804
11
4.47457
21
-1.42823
0
LINE
8
BLACK
6
CONTINUOUS
10
4.28387
20
-1.42823
11
4.28467
21
-1.42876
0
LINE
8
BLACK
6
CONTINUOUS
10
4.28467
20
-1.42876
11
4.28815
21
-1.43224
0
LINE
8
BLACK
6
CONTINUOUS
10
4.28815
20
-1.43224
11
4.28868
21
-1.43304
0
LINE
8
BLACK
6
CONTINUOUS
10
4.28868
20
-1.43304
11
4.28887
21
-1.43398
0
LINE
8
BLACK
6
CONTINUOUS
10
4.28887
20
-1.43398
11
4.28868
21
-1.43492
0
LINE
8
BLACK
6
CONTINUOUS
10
4.28868
20
-1.43492
11
4.28815
21
-1.43572
0
LINE
8
BLACK
6
CONTINUOUS
10
4.28815
20
-1.43572
11
4.2617
21
-1.46217
0
LINE
8
BLACK
6
CONTINUOUS
10
4.2617
20
-1.46217
11
4.26091
21
-1.4627
0
LINE
8
BLACK
6
CONTINUOUS
10
4.26091
20
-1.4627
11
4.25996
21
-1.46289
0
LINE
8
BLACK
6
CONTINUOUS
10
4.25996
20
-1.46289
11
4.25902
21
-1.4627
0
LINE
8
BLACK
6
CONTINUOUS
10
4.25902
20
-1.4627
11
4.25822
21
-1.46217
0
LINE
8
BLACK
6
CONTINUOUS
10
4.25822
20
-1.46217
11
4.25474
21
-1.45869
0
LINE
8
BLACK
6
CONTINUOUS
10
4.25474
20
-1.45869
11
4.25421
21
-1.45789
0
LINE
8
BLACK
6
CONTINUOUS
10
4.25421
20
-1.45789
11
4.25402
21
-1.45695
0
LINE
8
BLACK
6
CONTINUOUS
10
4.25402
20
-1.45695
11
4.25421
21
-1.456
0
LINE
8
BLACK
6
CONTINUOUS
10
4.25421
20
-1.456
11
4.25474
21
-1.45521
0
LINE
8
BLACK
6
CONTINUOUS
10
4.25474
20
-1.45521
11
4.28119
21
-1.42876
0
LINE
8
BLACK
6
CONTINUOUS
10
4.28119
20
-1.42876
11
4.28199
21
-1.42823
0
LINE
8
BLACK
6
CONTINUOUS
10
4.28199
20
-1.42823
11
4.28293
21
-1.42804
0
LINE
8
BLACK
6
CONTINUOUS
10
4.28293
20
-1.42804
11
4.28387
21
-1.42823
0
LINE
8
BLACK
6
CONTINUOUS
10
4.59421
20
-1.42484
11
4.596
21
-1.42603
0
LINE
8
BLACK
6
CONTINUOUS
10
4.596
20
-1.42603
11
4.60546
21
-1.4355
0
LINE
8
BLACK
6
CONTINUOUS
10
4.60546
20
-1.4355
11
4.60666
21
-1.43729
0
LINE
8
BLACK
6
CONTINUOUS
10
4.60666
20
-1.43729
11
4.60708
21
-1.43939
0
LINE
8
BLACK
6
CONTINUOUS
10
4.60708
20
-1.43939
11
4.60666
21
-1.4415
0
LINE
8
BLACK
6
CONTINUOUS
10
4.60666
20
-1.4415
11
4.60546
21
-1.44329
0
LINE
8
BLACK
6
CONTINUOUS
10
4.60546
20
-1.44329
11
4.59767
21
-1.45109
0
LINE
8
BLACK
6
CONTINUOUS
10
4.59767
20
-1.45109
11
4.59588
21
-1.45228
0
LINE
8
BLACK
6
CONTINUOUS
10
4.59588
20
-1.45228
11
4.59377
21
-1.4527
0
LINE
8
BLACK
6
CONTINUOUS
10
4.59377
20
-1.4527
11
4.59166
21
-1.45228
0
LINE
8
BLACK
6
CONTINUOUS
10
4.59166
20
-1.45228
11
4.58987
21
-1.45109
0
LINE
8
BLACK
6
CONTINUOUS
10
4.58987
20
-1.45109
11
4.58041
21
-1.44162
0
LINE
8
BLACK
6
CONTINUOUS
10
4.58041
20
-1.44162
11
4.57921
21
-1.43983
0
LINE
8
BLACK
6
CONTINUOUS
10
4.57921
20
-1.43983
11
4.57879
21
-1.43772
0
LINE
8
BLACK
6
CONTINUOUS
10
4.57879
20
-1.43772
11
4.57921
21
-1.43562
0
LINE
8
BLACK
6
CONTINUOUS
10
4.57921
20
-1.43562
11
4.58041
21
-1.43383
0
LINE
8
BLACK
6
CONTINUOUS
10
4.58041
20
-1.43383
11
4.5882
21
-1.42603
0
LINE
8
BLACK
6
CONTINUOUS
10
4.5882
20
-1.42603
11
4.58999
21
-1.42484
0
LINE
8
BLACK
6
CONTINUOUS
10
4.58999
20
-1.42484
11
4.5921
21
-1.42442
0
LINE
8
BLACK
6
CONTINUOUS
10
4.5921
20
-1.42442
11
4.59421
21
-1.42484
0
LINE
8
BLACK
6
CONTINUOUS
10
4.48849
20
-1.41431
11
4.48929
21
-1.41484
0
LINE
8
BLACK
6
CONTINUOUS
10
4.48929
20
-1.41484
11
4.51573
21
-1.44129
0
LINE
8
BLACK
6
CONTINUOUS
10
4.51573
20
-1.44129
11
4.51627
21
-1.44208
0
LINE
8
BLACK
6
CONTINUOUS
10
4.51627
20
-1.44208
11
4.51645
21
-1.44303
0
LINE
8
BLACK
6
CONTINUOUS
10
4.51645
20
-1.44303
11
4.51627
21
-1.44397
0
LINE
8
BLACK
6
CONTINUOUS
10
4.51627
20
-1.44397
11
4.51573
21
-1.44477
0
LINE
8
BLACK
6
CONTINUOUS
10
4.51573
20
-1.44477
11
4.51225
21
-1.44825
0
LINE
8
BLACK
6
CONTINUOUS
10
4.51225
20
-1.44825
11
4.51145
21
-1.44878
0
LINE
8
BLACK
6
CONTINUOUS
10
4.51145
20
-1.44878
11
4.51051
21
-1.44897
0
LINE
8
BLACK
6
CONTINUOUS
10
4.51051
20
-1.44897
11
4.50957
21
-1.44878
0
LINE
8
BLACK
6
CONTINUOUS
10
4.50957
20
-1.44878
11
4.50877
21
-1.44825
0
LINE
8
BLACK
6
CONTINUOUS
10
4.50877
20
-1.44825
11
4.48233
21
-1.4218
0
LINE
8
BLACK
6
CONTINUOUS
10
4.48233
20
-1.4218
11
4.48179
21
-1.421
0
LINE
8
BLACK
6
CONTINUOUS
10
4.48179
20
-1.421
11
4.48161
21
-1.42006
0
LINE
8
BLACK
6
CONTINUOUS
10
4.48161
20
-1.42006
11
4.48179
21
-1.41912
0
LINE
8
BLACK
6
CONTINUOUS
10
4.48179
20
-1.41912
11
4.48233
21
-1.41832
0
LINE
8
BLACK
6
CONTINUOUS
10
4.48233
20
-1.41832
11
4.48581
21
-1.41484
0
LINE
8
BLACK
6
CONTINUOUS
10
4.48581
20
-1.41484
11
4.4866
21
-1.41431
0
LINE
8
BLACK
6
CONTINUOUS
10
4.4866
20
-1.41431
11
4.48755
21
-1.41412
0
LINE
8
BLACK
6
CONTINUOUS
10
4.48755
20
-1.41412
11
4.48849
21
-1.41431
0
LINE
8
BLACK
6
CONTINUOUS
10
4.26995
20
-1.41431
11
4.27075
21
-1.41484
0
LINE
8
BLACK
6
CONTINUOUS
10
4.27075
20
-1.41484
11
4.27423
21
-1.41832
0
LINE
8
BLACK
6
CONTINUOUS
10
4.27423
20
-1.41832
11
4.27476
21
-1.41912
0
LINE
8
BLACK
6
CONTINUOUS
10
4.27476
20
-1.41912
11
4.27495
21
-1.42006
0
LINE
8
BLACK
6
CONTINUOUS
10
4.27495
20
-1.42006
11
4.27476
21
-1.421
0
LINE
8
BLACK
6
CONTINUOUS
10
4.27476
20
-1.421
11
4.27423
21
-1.4218
0
LINE
8
BLACK
6
CONTINUOUS
10
4.27423
20
-1.4218
11
4.24778
21
-1.44825
0
LINE
8
BLACK
6
CONTINUOUS
10
4.24778
20
-1.44825
11
4.24699
21
-1.44878
0
LINE
8
BLACK
6
CONTINUOUS
10
4.24699
20
-1.44878
11
4.24604
21
-1.44897
0
LINE
8
BLACK
6
CONTINUOUS
10
4.24604
20
-1.44897
11
4.2451
21
-1.44878
0
LINE
8
BLACK
6
CONTINUOUS
10
4.2451
20
-1.44878
11
4.2443
21
-1.44825
0
LINE
8
BLACK
6
CONTINUOUS
10
4.2443
20
-1.44825
11
4.24082
21
-1.44477
0
LINE
8
BLACK
6
CONTINUOUS
10
4.24082
20
-1.44477
11
4.24029
21
-1.44397
0
LINE
8
BLACK
6
CONTINUOUS
10
4.24029
20
-1.44397
11
4.2401
21
-1.44303
0
LINE
8
BLACK
6
CONTINUOUS
10
4.2401
20
-1.44303
11
4.24029
21
-1.44208
0
LINE
8
BLACK
6
CONTINUOUS
10
4.24029
20
-1.44208
11
4.24082
21
-1.44129
0
LINE
8
BLACK
6
CONTINUOUS
10
4.24082
20
-1.44129
11
4.26727
21
-1.41484
0
LINE
8
BLACK
6
CONTINUOUS
10
4.26727
20
-1.41484
11
4.26807
21
-1.41431
0
LINE
8
BLACK
6
CONTINUOUS
10
4.26807
20
-1.41431
11
4.26901
21
-1.41412
0
LINE
8
BLACK
6
CONTINUOUS
10
4.26901
20
-1.41412
11
4.26995
21
-1.41431
0
LINE
8
BLACK
6
CONTINUOUS
10
4.50241
20
-1.40039
11
4.50321
21
-1.40092
0
LINE
8
BLACK
6
CONTINUOUS
10
4.50321
20
-1.40092
11
4.52965
21
-1.42737
0
LINE
8
BLACK
6
CONTINUOUS
10
4.52965
20
-1.42737
11
4.53019
21
-1.42816
0
LINE
8
BLACK
6
CONTINUOUS
10
4.53019
20
-1.42816
11
4.53037
21
-1.42911
0
LINE
8
BLACK
6
CONTINUOUS
10
4.53037
20
-1.42911
11
4.53019
21
-1.43005
0
LINE
8
BLACK
6
CONTINUOUS
10
4.53019
20
-1.43005
11
4.52965
21
-1.43085
0
LINE
8
BLACK
6
CONTINUOUS
10
4.52965
20
-1.43085
11
4.52617
21
-1.43433
0
LINE
8
BLACK
6
CONTINUOUS
10
4.52617
20
-1.43433
11
4.52537
21
-1.43486
0
LINE
8
BLACK
6
CONTINUOUS
10
4.52537
20
-1.43486
11
4.52443
21
-1.43505
0
LINE
8
BLACK
6
CONTINUOUS
10
4.52443
20
-1.43505
11
4.52349
21
-1.43486
0
LINE
8
BLACK
6
CONTINUOUS
10
4.52349
20
-1.43486
11
4.52269
21
-1.43433
0
LINE
8
BLACK
6
CONTINUOUS
10
4.52269
20
-1.43433
11
4.49625
21
-1.40788
0
LINE
8
BLACK
6
CONTINUOUS
10
4.49625
20
-1.40788
11
4.49571
21
-1.40708
0
LINE
8
BLACK
6
CONTINUOUS
10
4.49571
20
-1.40708
11
4.49553
21
-1.40614
0
LINE
8
BLACK
6
CONTINUOUS
10
4.49553
20
-1.40614
11
4.49571
21
-1.4052
0
LINE
8
BLACK
6
CONTINUOUS
10
4.49571
20
-1.4052
11
4.49625
21
-1.4044
0
LINE
8
BLACK
6
CONTINUOUS
10
4.49625
20
-1.4044
11
4.49973
21
-1.40092
0
LINE
8
BLACK
6
CONTINUOUS
10
4.49973
20
-1.40092
11
4.50052
21
-1.40039
0
LINE
8
BLACK
6
CONTINUOUS
10
4.50052
20
-1.40039
11
4.50147
21
-1.4002
0
LINE
8
BLACK
6
CONTINUOUS
10
4.50147
20
-1.4002
11
4.50241
21
-1.40039
0
LINE
8
BLACK
6
CONTINUOUS
10
4.25603
20
-1.40039
11
4.25683
21
-1.40092
0
LINE
8
BLACK
6
CONTINUOUS
10
4.25683
20
-1.40092
11
4.26031
21
-1.4044
0
LINE
8
BLACK
6
CONTINUOUS
10
4.26031
20
-1.4044
11
4.26085
21
-1.4052
0
LINE
8
BLACK
6
CONTINUOUS
10
4.26085
20
-1.4052
11
4.26103
21
-1.40614
0
LINE
8
BLACK
6
CONTINUOUS
10
4.26103
20
-1.40614
11
4.26085
21
-1.40708
0
LINE
8
BLACK
6
CONTINUOUS
10
4.26085
20
-1.40708
11
4.26031
21
-1.40788
0
LINE
8
BLACK
6
CONTINUOUS
10
4.26031
20
-1.40788
11
4.23386
21
-1.43433
0
LINE
8
BLACK
6
CONTINUOUS
10
4.23386
20
-1.43433
11
4.23307
21
-1.43486
0
LINE
8
BLACK
6
CONTINUOUS
10
4.23307
20
-1.43486
11
4.23212
21
-1.43505
0
LINE
8
BLACK
6
CONTINUOUS
10
4.23212
20
-1.43505
11
4.23118
21
-1.43486
0
LINE
8
BLACK
6
CONTINUOUS
10
4.23118
20
-1.43486
11
4.23038
21
-1.43433
0
LINE
8
BLACK
6
CONTINUOUS
10
4.23038
20
-1.43433
11
4.22691
21
-1.43085
0
LINE
8
BLACK
6
CONTINUOUS
10
4.22691
20
-1.43085
11
4.22637
21
-1.43005
0
LINE
8
BLACK
6
CONTINUOUS
10
4.22637
20
-1.43005
11
4.22618
21
-1.42911
0
LINE
8
BLACK
6
CONTINUOUS
10
4.22618
20
-1.42911
11
4.22637
21
-1.42816
0
LINE
8
BLACK
6
CONTINUOUS
10
4.22637
20
-1.42816
11
4.22691
21
-1.42737
0
LINE
8
BLACK
6
CONTINUOUS
10
4.22691
20
-1.42737
11
4.25335
21
-1.40092
0
LINE
8
BLACK
6
CONTINUOUS
10
4.25335
20
-1.40092
11
4.25415
21
-1.40039
0
LINE
8
BLACK
6
CONTINUOUS
10
4.25415
20
-1.40039
11
4.25509
21
-1.4002
0
LINE
8
BLACK
6
CONTINUOUS
10
4.25509
20
-1.4002
11
4.25603
21
-1.40039
0
LINE
8
BLACK
6
CONTINUOUS
10
5.08609
20
-1.41182
11
5.08781
21
-1.41297
0
LINE
8
BLACK
6
CONTINUOUS
10
5.08781
20
-1.41297
11
5.08897
21
-1.4147
0
LINE
8
BLACK
6
CONTINUOUS
10
5.08897
20
-1.4147
11
5.08937
21
-1.41673
0
LINE
8
BLACK
6
CONTINUOUS
10
5.08937
20
-1.41673
11
5.08937
21
-1.42736
0
LINE
8
BLACK
6
CONTINUOUS
10
5.08937
20
-1.42736
11
5.08897
21
-1.4294
0
LINE
8
BLACK
6
CONTINUOUS
10
5.08897
20
-1.4294
11
5.08781
21
-1.43112
0
LINE
8
BLACK
6
CONTINUOUS
10
5.08781
20
-1.43112
11
5.08609
21
-1.43227
0
LINE
8
BLACK
6
CONTINUOUS
10
5.08609
20
-1.43227
11
5.08406
21
-1.43268
0
LINE
8
BLACK
6
CONTINUOUS
10
5.08406
20
-1.43268
11
5.06949
21
-1.43268
0
LINE
8
BLACK
6
CONTINUOUS
10
5.06949
20
-1.43268
11
5.06745
21
-1.43227
0
LINE
8
BLACK
6
CONTINUOUS
10
5.06745
20
-1.43227
11
5.06573
21
-1.43112
0
LINE
8
BLACK
6
CONTINUOUS
10
5.06573
20
-1.43112
11
5.06458
21
-1.4294
0
LINE
8
BLACK
6
CONTINUOUS
10
5.06458
20
-1.4294
11
5.06417
21
-1.42736
0
LINE
8
BLACK
6
CONTINUOUS
10
5.06417
20
-1.42736
11
5.06417
21
-1.41673
0
LINE
8
BLACK
6
CONTINUOUS
10
5.06417
20
-1.41673
11
5.06458
21
-1.4147
0
LINE
8
BLACK
6
CONTINUOUS
10
5.06458
20
-1.4147
11
5.06573
21
-1.41297
0
LINE
8
BLACK
6
CONTINUOUS
10
5.06573
20
-1.41297
11
5.06745
21
-1.41182
0
LINE
8
BLACK
6
CONTINUOUS
10
5.06745
20
-1.41182
11
5.06949
21
-1.41142
0
LINE
8
BLACK
6
CONTINUOUS
10
5.06949
20
-1.41142
11
5.08406
21
-1.41142
0
LINE
8
BLACK
6
CONTINUOUS
10
5.08406
20
-1.41142
11
5.08609
21
-1.41182
0
LINE
8
BLACK
6
CONTINUOUS
10
4.77165
20
-1.4311
11
4.72441
21
-1.4311
0
LINE
8
BLACK
6
CONTINUOUS
10
4.72441
20
-1.4311
11
4.72441
21
-1.37598
0
LINE
8
BLACK
6
CONTINUOUS
10
4.72441
20
-1.37598
11
4.77165
21
-1.37598
0
LINE
8
BLACK
6
CONTINUOUS
10
4.77165
20
-1.37598
11
4.77165
21
-1.4311
0
LINE
8
BLACK
6
CONTINUOUS
10
4.70472
20
-1.4311
11
4.65748
21
-1.4311
0
LINE
8
BLACK
6
CONTINUOUS
10
4.65748
20
-1.4311
11
4.65748
21
-1.37598
0
LINE
8
BLACK
6
CONTINUOUS
10
4.65748
20
-1.37598
11
4.70472
21
-1.37598
0
LINE
8
BLACK
6
CONTINUOUS
10
4.70472
20
-1.37598
11
4.70472
21
-1.4311
0
LINE
8
BLACK
6
CONTINUOUS
10
4.38205
20
-1.37826
11
4.38524
21
-1.38039
0
LINE
8
BLACK
6
CONTINUOUS
10
4.38524
20
-1.38039
11
4.40055
21
-1.3957
0
LINE
8
BLACK
6
CONTINUOUS
10
4.40055
20
-1.3957
11
4.40268
21
-1.39889
0
LINE
8
BLACK
6
CONTINUOUS
10
4.40268
20
-1.39889
11
4.40343
21
-1.40266
0
LINE
8
BLACK
6
CONTINUOUS
10
4.40343
20
-1.40266
11
4.40268
21
-1.40643
0
LINE
8
BLACK
6
CONTINUOUS
10
4.40268
20
-1.40643
11
4.40055
21
-1.40962
0
LINE
8
BLACK
6
CONTINUOUS
10
4.40055
20
-1.40962
11
4.38524
21
-1.42493
0
LINE
8
BLACK
6
CONTINUOUS
10
4.38524
20
-1.42493
11
4.38205
21
-1.42706
0
LINE
8
BLACK
6
CONTINUOUS
10
4.38205
20
-1.42706
11
4.37828
21
-1.42781
0
LINE
8
BLACK
6
CONTINUOUS
10
4.37828
20
-1.42781
11
4.37451
21
-1.42706
0
LINE
8
BLACK
6
CONTINUOUS
10
4.37451
20
-1.42706
11
4.37132
21
-1.42493
0
LINE
8
BLACK
6
CONTINUOUS
10
4.37132
20
-1.42493
11
4.35601
21
-1.40962
0
LINE
8
BLACK
6
CONTINUOUS
10
4.35601
20
-1.40962
11
4.35387
21
-1.40643
0
LINE
8
BLACK
6
CONTINUOUS
10
4.35387
20
-1.40643
11
4.35312
21
-1.40266
0
LINE
8
BLACK
6
CONTINUOUS
10
4.35312
20
-1.40266
11
4.35387
21
-1.39889
0
LINE
8
BLACK
6
CONTINUOUS
10
4.35387
20
-1.39889
11
4.35601
21
-1.3957
0
LINE
8
BLACK
6
CONTINUOUS
10
4.35601
20
-1.3957
11
4.37132
21
-1.38039
0
LINE
8
BLACK
6
CONTINUOUS
10
4.37132
20
-1.38039
11
4.37451
21
-1.37826
0
LINE
8
BLACK
6
CONTINUOUS
10
4.37451
20
-1.37826
11
4.37828
21
-1.37751
0
LINE
8
BLACK
6
CONTINUOUS
10
4.37828
20
-1.37751
11
4.38205
21
-1.37826
0
LINE
8
BLACK
6
CONTINUOUS
10
4.30966
20
-1.37826
11
4.31286
21
-1.38039
0
LINE
8
BLACK
6
CONTINUOUS
10
4.31286
20
-1.38039
11
4.32817
21
-1.3957
0
LINE
8
BLACK
6
CONTINUOUS
10
4.32817
20
-1.3957
11
4.3303
21
-1.39889
0
LINE
8
BLACK
6
CONTINUOUS
10
4.3303
20
-1.39889
11
4.33105
21
-1.40266
0
LINE
8
BLACK
6
CONTINUOUS
10
4.33105
20
-1.40266
11
4.3303
21
-1.40643
0
LINE
8
BLACK
6
CONTINUOUS
10
4.3303
20
-1.40643
11
4.32817
21
-1.40962
0
LINE
8
BLACK
6
CONTINUOUS
10
4.32817
20
-1.40962
11
4.31286
21
-1.42493
0
LINE
8
BLACK
6
CONTINUOUS
10
4.31286
20
-1.42493
11
4.30966
21
-1.42706
0
LINE
8
BLACK
6
CONTINUOUS
10
4.30966
20
-1.42706
11
4.3059
21
-1.42781
0
LINE
8
BLACK
6
CONTINUOUS
10
4.3059
20
-1.42781
11
4.30213
21
-1.42706
0
LINE
8
BLACK
6
CONTINUOUS
10
4.30213
20
-1.42706
11
4.29894
21
-1.42493
0
LINE
8
BLACK
6
CONTINUOUS
10
4.29894
20
-1.42493
11
4.28363
21
-1.40962
0
LINE
8
BLACK
6
CONTINUOUS
10
4.28363
20
-1.40962
11
4.28149
21
-1.40643
0
LINE
8
BLACK
6
CONTINUOUS
10
4.28149
20
-1.40643
11
4.28074
21
-1.40266
0
LINE
8
BLACK
6
CONTINUOUS
10
4.28074
20
-1.40266
11
4.28149
21
-1.39889
0
LINE
8
BLACK
6
CONTINUOUS
10
4.28149
20
-1.39889
11
4.28363
21
-1.3957
0
LINE
8
BLACK
6
CONTINUOUS
10
4.28363
20
-1.3957
11
4.29894
21
-1.38039
0
LINE
8
BLACK
6
CONTINUOUS
10
4.29894
20
-1.38039
11
4.30213
21
-1.37826
0
LINE
8
BLACK
6
CONTINUOUS
10
4.30213
20
-1.37826
11
4.3059
21
-1.37751
0
LINE
8
BLACK
6
CONTINUOUS
10
4.3059
20
-1.37751
11
4.30966
21
-1.37826
0
LINE
8
BLACK
6
CONTINUOUS
10
4.45443
20
-1.37826
11
4.45762
21
-1.38039
0
LINE
8
BLACK
6
CONTINUOUS
10
4.45762
20
-1.38039
11
4.47293
21
-1.3957
0
LINE
8
BLACK
6
CONTINUOUS
10
4.47293
20
-1.3957
11
4.47506
21
-1.39889
0
LINE
8
BLACK
6
CONTINUOUS
10
4.47506
20
-1.39889
11
4.47581
21
-1.40266
0
LINE
8
BLACK
6
CONTINUOUS
10
4.47581
20
-1.40266
11
4.47506
21
-1.40643
0
LINE
8
BLACK
6
CONTINUOUS
10
4.47506
20
-1.40643
11
4.47293
21
-1.40962
0
LINE
8
BLACK
6
CONTINUOUS
10
4.47293
20
-1.40962
11
4.45762
21
-1.42493
0
LINE
8
BLACK
6
CONTINUOUS
10
4.45762
20
-1.42493
11
4.45443
21
-1.42706
0
LINE
8
BLACK
6
CONTINUOUS
10
4.45443
20
-1.42706
11
4.45066
21
-1.42781
0
LINE
8
BLACK
6
CONTINUOUS
10
4.45066
20
-1.42781
11
4.44689
21
-1.42706
0
LINE
8
BLACK
6
CONTINUOUS
10
4.44689
20
-1.42706
11
4.4437
21
-1.42493
0
LINE
8
BLACK
6
CONTINUOUS
10
4.4437
20
-1.42493
11
4.42839
21
-1.40962
0
LINE
8
BLACK
6
CONTINUOUS
10
4.42839
20
-1.40962
11
4.42626
21
-1.40643
0
LINE
8
BLACK
6
CONTINUOUS
10
4.42626
20
-1.40643
11
4.42551
21
-1.40266
0
LINE
8
BLACK
6
CONTINUOUS
10
4.42551
20
-1.40266
11
4.42626
21
-1.39889
0
LINE
8
BLACK
6
CONTINUOUS
10
4.42626
20
-1.39889
11
4.42839
21
-1.3957
0
LINE
8
BLACK
6
CONTINUOUS
10
4.42839
20
-1.3957
11
4.4437
21
-1.38039
0
LINE
8
BLACK
6
CONTINUOUS
10
4.4437
20
-1.38039
11
4.44689
21
-1.37826
0
LINE
8
BLACK
6
CONTINUOUS
10
4.44689
20
-1.37826
11
4.45066
21
-1.37751
0
LINE
8
BLACK
6
CONTINUOUS
10
4.45066
20
-1.37751
11
4.45443
21
-1.37826
0
LINE
8
BLACK
6
CONTINUOUS
10
4.62094
20
-1.39811
11
4.62272
21
-1.39931
0
LINE
8
BLACK
6
CONTINUOUS
10
4.62272
20
-1.39931
11
4.63219
21
-1.40877
0
LINE
8
BLACK
6
CONTINUOUS
10
4.63219
20
-1.40877
11
4.63338
21
-1.41056
0
LINE
8
BLACK
6
CONTINUOUS
10
4.63338
20
-1.41056
11
4.6338
21
-1.41267
0
LINE
8
BLACK
6
CONTINUOUS
10
4.6338
20
-1.41267
11
4.63338
21
-1.41478
0
LINE
8
BLACK
6
CONTINUOUS
10
4.63338
20
-1.41478
11
4.63219
21
-1.41657
0
LINE
8
BLACK
6
CONTINUOUS
10
4.63219
20
-1.41657
11
4.62439
21
-1.42436
0
LINE
8
BLACK
6
CONTINUOUS
10
4.62439
20
-1.42436
11
4.62261
21
-1.42556
0
LINE
8
BLACK
6
CONTINUOUS
10
4.62261
20
-1.42556
11
4.6205
21
-1.42598
0
LINE
8
BLACK
6
CONTINUOUS
10
4.6205
20
-1.42598
11
4.61839
21
-1.42556
0
LINE
8
BLACK
6
CONTINUOUS
10
4.61839
20
-1.42556
11
4.6166
21
-1.42436
0
LINE
8
BLACK
6
CONTINUOUS
10
4.6166
20
-1.42436
11
4.60713
21
-1.4149
0
LINE
8
BLACK
6
CONTINUOUS
10
4.60713
20
-1.4149
11
4.60594
21
-1.41311
0
LINE
8
BLACK
6
CONTINUOUS
10
4.60594
20
-1.41311
11
4.60552
21
-1.411
0
LINE
8
BLACK
6
CONTINUOUS
10
4.60552
20
-1.411
11
4.60594
21
-1.40889
0
LINE
8
BLACK
6
CONTINUOUS
10
4.60594
20
-1.40889
11
4.60713
21
-1.4071
0
LINE
8
BLACK
6
CONTINUOUS
10
4.60713
20
-1.4071
11
4.61493
21
-1.39931
0
LINE
8
BLACK
6
CONTINUOUS
10
4.61493
20
-1.39931
11
4.61672
21
-1.39811
0
LINE
8
BLACK
6
CONTINUOUS
10
4.61672
20
-1.39811
11
4.61883
21
-1.39769
0
LINE
8
BLACK
6
CONTINUOUS
10
4.61883
20
-1.39769
11
4.62094
21
-1.39811
0
LINE
8
BLACK
6
CONTINUOUS
10
4.24211
20
-1.38647
11
4.24291
21
-1.387
0
LINE
8
BLACK
6
CONTINUOUS
10
4.24291
20
-1.387
11
4.24639
21
-1.39048
0
LINE
8
BLACK
6
CONTINUOUS
10
4.24639
20
-1.39048
11
4.24693
21
-1.39128
0
LINE
8
BLACK
6
CONTINUOUS
10
4.24693
20
-1.39128
11
4.24711
21
-1.39222
0
LINE
8
BLACK
6
CONTINUOUS
10
4.24711
20
-1.39222
11
4.24693
21
-1.39316
0
LINE
8
BLACK
6
CONTINUOUS
10
4.24693
20
-1.39316
11
4.24639
21
-1.39396
0
LINE
8
BLACK
6
CONTINUOUS
10
4.24639
20
-1.39396
11
4.21995
21
-1.42041
0
LINE
8
BLACK
6
CONTINUOUS
10
4.21995
20
-1.42041
11
4.21915
21
-1.42094
0
LINE
8
BLACK
6
CONTINUOUS
10
4.21915
20
-1.42094
11
4.21821
21
-1.42113
0
LINE
8
BLACK
6
CONTINUOUS
10
4.21821
20
-1.42113
11
4.21726
21
-1.42094
0
LINE
8
BLACK
6
CONTINUOUS
10
4.21726
20
-1.42094
11
4.21647
21
-1.42041
0
LINE
8
BLACK
6
CONTINUOUS
10
4.21647
20
-1.42041
11
4.21299
21
-1.41693
0
LINE
8
BLACK
6
CONTINUOUS
10
4.21299
20
-1.41693
11
4.21245
21
-1.41613
0
LINE
8
BLACK
6
CONTINUOUS
10
4.21245
20
-1.41613
11
4.21226
21
-1.41519
0
LINE
8
BLACK
6
CONTINUOUS
10
4.21226
20
-1.41519
11
4.21245
21
-1.41425
0
LINE
8
BLACK
6
CONTINUOUS
10
4.21245
20
-1.41425
11
4.21299
21
-1.41345
0
LINE
8
BLACK
6
CONTINUOUS
10
4.21299
20
-1.41345
11
4.23943
21
-1.387
0
LINE
8
BLACK
6
CONTINUOUS
10
4.23943
20
-1.387
11
4.24023
21
-1.38647
0
LINE
8
BLACK
6
CONTINUOUS
10
4.24023
20
-1.38647
11
4.24117
21
-1.38628
0
LINE
8
BLACK
6
CONTINUOUS
10
4.24117
20
-1.38628
11
4.24211
21
-1.38647
0
LINE
8
BLACK
6
CONTINUOUS
10
4.51633
20
-1.38647
11
4.51713
21
-1.387
0
LINE
8
BLACK
6
CONTINUOUS
10
4.51713
20
-1.387
11
4.54357
21
-1.41345
0
LINE
8
BLACK
6
CONTINUOUS
10
4.54357
20
-1.41345
11
4.54411
21
-1.41425
0
LINE
8
BLACK
6
CONTINUOUS
10
4.54411
20
-1.41425
11
4.54429
21
-1.41519
0
LINE
8
BLACK
6
CONTINUOUS
10
4.54429
20
-1.41519
11
4.54411
21
-1.41613
0
LINE
8
BLACK
6
CONTINUOUS
10
4.54411
20
-1.41613
11
4.54357
21
-1.41693
0
LINE
8
BLACK
6
CONTINUOUS
10
4.54357
20
-1.41693
11
4.54009
21
-1.42041
0
LINE
8
BLACK
6
CONTINUOUS
10
4.54009
20
-1.42041
11
4.53929
21
-1.42094
0
LINE
8
BLACK
6
CONTINUOUS
10
4.53929
20
-1.42094
11
4.53835
21
-1.42113
0
LINE
8
BLACK
6
CONTINUOUS
10
4.53835
20
-1.42113
11
4.53741
21
-1.42094
0
LINE
8
BLACK
6
CONTINUOUS
10
4.53741
20
-1.42094
11
4.53661
21
-1.42041
0
LINE
8
BLACK
6
CONTINUOUS
10
4.53661
20
-1.42041
11
4.51017
21
-1.39396
0
LINE
8
BLACK
6
CONTINUOUS
10
4.51017
20
-1.39396
11
4.50963
21
-1.39316
0
LINE
8
BLACK
6
CONTINUOUS
10
4.50963
20
-1.39316
11
4.50944
21
-1.39222
0
LINE
8
BLACK
6
CONTINUOUS
10
4.50944
20
-1.39222
11
4.50963
21
-1.39128
0
LINE
8
BLACK
6
CONTINUOUS
10
4.50963
20
-1.39128
11
4.51017
21
-1.39048
0
LINE
8
BLACK
6
CONTINUOUS
10
4.51017
20
-1.39048
11
4.51365
21
-1.387
0
LINE
8
BLACK
6
CONTINUOUS
10
4.51365
20
-1.387
11
4.51444
21
-1.38647
0
LINE
8
BLACK
6
CONTINUOUS
10
4.51444
20
-1.38647
11
4.51539
21
-1.38628
0
LINE
8
BLACK
6
CONTINUOUS
10
4.51539
20
-1.38628
11
4.51633
21
-1.38647
0
LINE
8
BLACK
6
CONTINUOUS
10
4.22819
20
-1.37255
11
4.22899
21
-1.37308
0
LINE
8
BLACK
6
CONTINUOUS
10
4.22899
20
-1.37308
11
4.23247
21
-1.37656
0
LINE
8
BLACK
6
CONTINUOUS
10
4.23247
20
-1.37656
11
4.23301
21
-1.37736
0
LINE
8
BLACK
6
CONTINUOUS
10
4.23301
20
-1.37736
11
4.23319
21
-1.3783
0
LINE
8
BLACK
6
CONTINUOUS
10
4.23319
20
-1.3783
11
4.23301
21
-1.37924
0
LINE
8
BLACK
6
CONTINUOUS
10
4.23301
20
-1.37924
11
4.23247
21
-1.38004
0
LINE
8
BLACK
6
CONTINUOUS
10
4.23247
20
-1.38004
11
4.20603
21
-1.40649
0
LINE
8
BLACK
6
CONTINUOUS
10
4.20603
20
-1.40649
11
4.20523
21
-1.40702
0
LINE
8
BLACK
6
CONTINUOUS
10
4.20523
20
-1.40702
11
4.20429
21
-1.40721
0
LINE
8
BLACK
6
CONTINUOUS
10
4.20429
20
-1.40721
11
4.20334
21
-1.40702
0
LINE
8
BLACK
6
CONTINUOUS
10
4.20334
20
-1.40702
11
4.20255
21
-1.40649
0
LINE
8
BLACK
6
CONTINUOUS
10
4.20255
20
-1.40649
11
4.19907
21
-1.40301
0
LINE
8
BLACK
6
CONTINUOUS
10
4.19907
20
-1.40301
11
4.19853
21
-1.40221
0
LINE
8
BLACK
6
CONTINUOUS
10
4.19853
20
-1.40221
11
4.19835
21
-1.40127
0
LINE
8
BLACK
6
CONTINUOUS
10
4.19835
20
-1.40127
11
4.19853
21
-1.40033
0
LINE
8
BLACK
6
CONTINUOUS
10
4.19853
20
-1.40033
11
4.19907
21
-1.39953
0
LINE
8
BLACK
6
CONTINUOUS
10
4.19907
20
-1.39953
11
4.22551
21
-1.37308
0
LINE
8
BLACK
6
CONTINUOUS
10
4.22551
20
-1.37308
11
4.22631
21
-1.37255
0
LINE
8
BLACK
6
CONTINUOUS
10
4.22631
20
-1.37255
11
4.22725
21
-1.37236
0
LINE
8
BLACK
6
CONTINUOUS
10
4.22725
20
-1.37236
11
4.22819
21
-1.37255
0
LINE
8
BLACK
6
CONTINUOUS
10
4.53025
20
-1.37255
11
4.53104
21
-1.37308
0
LINE
8
BLACK
6
CONTINUOUS
10
4.53104
20
-1.37308
11
4.55749
21
-1.39953
0
LINE
8
BLACK
6
CONTINUOUS
10
4.55749
20
-1.39953
11
4.55802
21
-1.40033
0
LINE
8
BLACK
6
CONTINUOUS
10
4.55802
20
-1.40033
11
4.55821
21
-1.40127
0
LINE
8
BLACK
6
CONTINUOUS
10
4.55821
20
-1.40127
11
4.55802
21
-1.40221
0
LINE
8
BLACK
6
CONTINUOUS
10
4.55802
20
-1.40221
11
4.55749
21
-1.40301
0
LINE
8
BLACK
6
CONTINUOUS
10
4.55749
20
-1.40301
11
4.55401
21
-1.40649
0
LINE
8
BLACK
6
CONTINUOUS
10
4.55401
20
-1.40649
11
4.55321
21
-1.40702
0
LINE
8
BLACK
6
CONTINUOUS
10
4.55321
20
-1.40702
11
4.55227
21
-1.40721
0
LINE
8
BLACK
6
CONTINUOUS
10
4.55227
20
-1.40721
11
4.55133
21
-1.40702
0
LINE
8
BLACK
6
CONTINUOUS
10
4.55133
20
-1.40702
11
4.55053
21
-1.40649
0
LINE
8
BLACK
6
CONTINUOUS
10
4.55053
20
-1.40649
11
4.52408
21
-1.38004
0
LINE
8
BLACK
6
CONTINUOUS
10
4.52408
20
-1.38004
11
4.52355
21
-1.37924
0
LINE
8
BLACK
6
CONTINUOUS
10
4.52355
20
-1.37924
11
4.52336
21
-1.3783
0
LINE
8
BLACK
6
CONTINUOUS
10
4.52336
20
-1.3783
11
4.52355
21
-1.37736
0
LINE
8
BLACK
6
CONTINUOUS
10
4.52355
20
-1.37736
11
4.52408
21
-1.37656
0
LINE
8
BLACK
6
CONTINUOUS
10
4.52408
20
-1.37656
11
4.52756
21
-1.37308
0
LINE
8
BLACK
6
CONTINUOUS
10
4.52756
20
-1.37308
11
4.52836
21
-1.37255
0
LINE
8
BLACK
6
CONTINUOUS
10
4.52836
20
-1.37255
11
4.5293
21
-1.37236
0
LINE
8
BLACK
6
CONTINUOUS
10
4.5293
20
-1.37236
11
4.53025
21
-1.37255
0
LINE
8
BLACK
6
CONTINUOUS
10
3.18504
20
-1.4065
11
3.08268
21
-1.4065
0
LINE
8
BLACK
6
CONTINUOUS
10
3.08268
20
-1.4065
11
3.08268
21
-1.30413
0
LINE
8
BLACK
6
CONTINUOUS
10
3.08268
20
-1.30413
11
3.18504
21
-1.30413
0
LINE
8
BLACK
6
CONTINUOUS
10
3.18504
20
-1.30413
11
3.18504
21
-1.4065
0
LINE
8
BLACK
6
CONTINUOUS
10
5.08609
20
-1.37166
11
5.08781
21
-1.37282
0
LINE
8
BLACK
6
CONTINUOUS
10
5.08781
20
-1.37282
11
5.08897
21
-1.37454
0
LINE
8
BLACK
6
CONTINUOUS
10
5.08897
20
-1.37454
11
5.08937
21
-1.37657
0
LINE
8
BLACK
6
CONTINUOUS
10
5.08937
20
-1.37657
11
5.08937
21
-1.3872
0
LINE
8
BLACK
6
CONTINUOUS
10
5.08937
20
-1.3872
11
5.08897
21
-1.38924
0
LINE
8
BLACK
6
CONTINUOUS
10
5.08897
20
-1.38924
11
5.08781
21
-1.39096
0
LINE
8
BLACK
6
CONTINUOUS
10
5.08781
20
-1.39096
11
5.08609
21
-1.39212
0
LINE
8
BLACK
6
CONTINUOUS
10
5.08609
20
-1.39212
11
5.08406
21
-1.39252
0
LINE
8
BLACK
6
CONTINUOUS
10
5.08406
20
-1.39252
11
5.06949
21
-1.39252
0
LINE
8
BLACK
6
CONTINUOUS
10
5.06949
20
-1.39252
11
5.06745
21
-1.39212
0
LINE
8
BLACK
6
CONTINUOUS
10
5.06745
20
-1.39212
11
5.06573
21
-1.39096
0
LINE
8
BLACK
6
CONTINUOUS
10
5.06573
20
-1.39096
11
5.06458
21
-1.38924
0
LINE
8
BLACK
6
CONTINUOUS
10
5.06458
20
-1.38924
11
5.06417
21
-1.3872
0
LINE
8
BLACK
6
CONTINUOUS
10
5.06417
20
-1.3872
11
5.06417
21
-1.37657
0
LINE
8
BLACK
6
CONTINUOUS
10
5.06417
20
-1.37657
11
5.06458
21
-1.37454
0
LINE
8
BLACK
6
CONTINUOUS
10
5.06458
20
-1.37454
11
5.06573
21
-1.37282
0
LINE
8
BLACK
6
CONTINUOUS
10
5.06573
20
-1.37282
11
5.06745
21
-1.37166
0
LINE
8
BLACK
6
CONTINUOUS
10
5.06745
20
-1.37166
11
5.06949
21
-1.37126
0
LINE
8
BLACK
6
CONTINUOUS
10
5.06949
20
-1.37126
11
5.08406
21
-1.37126
0
LINE
8
BLACK
6
CONTINUOUS
10
5.08406
20
-1.37126
11
5.08609
21
-1.37166
0
LINE
8
BLACK
6
CONTINUOUS
10
4.27347
20
-1.34206
11
4.27667
21
-1.3442
0
LINE
8
BLACK
6
CONTINUOUS
10
4.27667
20
-1.3442
11
4.29198
21
-1.35951
0
LINE
8
BLACK
6
CONTINUOUS
10
4.29198
20
-1.35951
11
4.29411
21
-1.3627
0
LINE
8
BLACK
6
CONTINUOUS
10
4.29411
20
-1.3627
11
4.29486
21
-1.36647
0
LINE
8
BLACK
6
CONTINUOUS
10
4.29486
20
-1.36647
11
4.29411
21
-1.37024
0
LINE
8
BLACK
6
CONTINUOUS
10
4.29411
20
-1.37024
11
4.29198
21
-1.37343
0
LINE
8
BLACK
6
CONTINUOUS
10
4.29198
20
-1.37343
11
4.27667
21
-1.38874
0
LINE
8
BLACK
6
CONTINUOUS
10
4.27667
20
-1.38874
11
4.27347
21
-1.39087
0
LINE
8
BLACK
6
CONTINUOUS
10
4.27347
20
-1.39087
11
4.26971
21
-1.39162
0
LINE
8
BLACK
6
CONTINUOUS
10
4.26971
20
-1.39162
11
4.26594
21
-1.39087
0
LINE
8
BLACK
6
CONTINUOUS
10
4.26594
20
-1.39087
11
4.26275
21
-1.38874
0
LINE
8
BLACK
6
CONTINUOUS
10
4.26275
20
-1.38874
11
4.24744
21
-1.37343
0
LINE
8
BLACK
6
CONTINUOUS
10
4.24744
20
-1.37343
11
4.2453
21
-1.37024
0
LINE
8
BLACK
6
CONTINUOUS
10
4.2453
20
-1.37024
11
4.24455
21
-1.36647
0
LINE
8
BLACK
6
CONTINUOUS
10
4.24455
20
-1.36647
11
4.2453
21
-1.3627
0
LINE
8
BLACK
6
CONTINUOUS
10
4.2453
20
-1.3627
11
4.24744
21
-1.35951
0
LINE
8
BLACK
6
CONTINUOUS
10
4.24744
20
-1.35951
11
4.26275
21
-1.3442
0
LINE
8
BLACK
6
CONTINUOUS
10
4.26275
20
-1.3442
11
4.26594
21
-1.34206
0
LINE
8
BLACK
6
CONTINUOUS
10
4.26594
20
-1.34206
11
4.26971
21
-1.34132
0
LINE
8
BLACK
6
CONTINUOUS
10
4.26971
20
-1.34132
11
4.27347
21
-1.34206
0
LINE
8
BLACK
6
CONTINUOUS
10
4.49062
20
-1.34206
11
4.49381
21
-1.3442
0
LINE
8
BLACK
6
CONTINUOUS
10
4.49381
20
-1.3442
11
4.50912
21
-1.35951
0
LINE
8
BLACK
6
CONTINUOUS
10
4.50912
20
-1.35951
11
4.51125
21
-1.3627
0
LINE
8
BLACK
6
CONTINUOUS
10
4.51125
20
-1.3627
11
4.512
21
-1.36647
0
LINE
8
BLACK
6
CONTINUOUS
10
4.512
20
-1.36647
11
4.51125
21
-1.37024
0
LINE
8
BLACK
6
CONTINUOUS
10
4.51125
20
-1.37024
11
4.50912
21
-1.37343
0
LINE
8
BLACK
6
CONTINUOUS
10
4.50912
20
-1.37343
11
4.49381
21
-1.38874
0
LINE
8
BLACK
6
CONTINUOUS
10
4.49381
20
-1.38874
11
4.49062
21
-1.39087
0
LINE
8
BLACK
6
CONTINUOUS
10
4.49062
20
-1.39087
11
4.48685
21
-1.39162
0
LINE
8
BLACK
6
CONTINUOUS
10
4.48685
20
-1.39162
11
4.48308
21
-1.39087
0
LINE
8
BLACK
6
CONTINUOUS
10
4.48308
20
-1.39087
11
4.47989
21
-1.38874
0
LINE
8
BLACK
6
CONTINUOUS
10
4.47989
20
-1.38874
11
4.46458
21
-1.37343
0
LINE
8
BLACK
6
CONTINUOUS
10
4.46458
20
-1.37343
11
4.46245
21
-1.37024
0
LINE
8
BLACK
6
CONTINUOUS
10
4.46245
20
-1.37024
11
4.4617
21
-1.36647
0
LINE
8
BLACK
6
CONTINUOUS
10
4.4617
20
-1.36647
11
4.46245
21
-1.3627
0
LINE
8
BLACK
6
CONTINUOUS
10
4.46245
20
-1.3627
11
4.46458
21
-1.35951
0
LINE
8
BLACK
6
CONTINUOUS
10
4.46458
20
-1.35951
11
4.47989
21
-1.3442
0
LINE
8
BLACK
6
CONTINUOUS
10
4.47989
20
-1.3442
11
4.48308
21
-1.34206
0
LINE
8
BLACK
6
CONTINUOUS
10
4.48308
20
-1.34206
11
4.48685
21
-1.34132
0
LINE
8
BLACK
6
CONTINUOUS
10
4.48685
20
-1.34132
11
4.49062
21
-1.34206
0
LINE
8
BLACK
6
CONTINUOUS
10
4.34585
20
-1.34206
11
4.34905
21
-1.3442
0
LINE
8
BLACK
6
CONTINUOUS
10
4.34905
20
-1.3442
11
4.36436
21
-1.35951
0
LINE
8
BLACK
6
CONTINUOUS
10
4.36436
20
-1.35951
11
4.36649
21
-1.3627
0
LINE
8
BLACK
6
CONTINUOUS
10
4.36649
20
-1.3627
11
4.36724
21
-1.36647
0
LINE
8
BLACK
6
CONTINUOUS
10
4.36724
20
-1.36647
11
4.36649
21
-1.37024
0
LINE
8
BLACK
6
CONTINUOUS
10
4.36649
20
-1.37024
11
4.36436
21
-1.37343
0
LINE
8
BLACK
6
CONTINUOUS
10
4.36436
20
-1.37343
11
4.34905
21
-1.38874
0
LINE
8
BLACK
6
CONTINUOUS
10
4.34905
20
-1.38874
11
4.34585
21
-1.39087
0
LINE
8
BLACK
6
CONTINUOUS
10
4.34585
20
-1.39087
11
4.34209
21
-1.39162
0
LINE
8
BLACK
6
CONTINUOUS
10
4.34209
20
-1.39162
11
4.33832
21
-1.39087
0
LINE
8
BLACK
6
CONTINUOUS
10
4.33832
20
-1.39087
11
4.33513
21
-1.38874
0
LINE
8
BLACK
6
CONTINUOUS
10
4.33513
20
-1.38874
11
4.31982
21
-1.37343
0
LINE
8
BLACK
6
CONTINUOUS
10
4.31982
20
-1.37343
11
4.31768
21
-1.37024
0
LINE
8
BLACK
6
CONTINUOUS
10
4.31768
20
-1.37024
11
4.31693
21
-1.36647
0
LINE
8
BLACK
6
CONTINUOUS
10
4.31693
20
-1.36647
11
4.31768
21
-1.3627
0
LINE
8
BLACK
6
CONTINUOUS
10
4.31768
20
-1.3627
11
4.31982
21
-1.35951
0
LINE
8
BLACK
6
CONTINUOUS
10
4.31982
20
-1.35951
11
4.33513
21
-1.3442
0
LINE
8
BLACK
6
CONTINUOUS
10
4.33513
20
-1.3442
11
4.33832
21
-1.34206
0
LINE
8
BLACK
6
CONTINUOUS
10
4.33832
20
-1.34206
11
4.34209
21
-1.34132
0
LINE
8
BLACK
6
CONTINUOUS
10
4.34209
20
-1.34132
11
4.34585
21
-1.34206
0
LINE
8
BLACK
6
CONTINUOUS
10
4.41824
20
-1.34206
11
4.42143
21
-1.3442
0
LINE
8
BLACK
6
CONTINUOUS
10
4.42143
20
-1.3442
11
4.43674
21
-1.35951
0
LINE
8
BLACK
6
CONTINUOUS
10
4.43674
20
-1.35951
11
4.43887
21
-1.3627
0
LINE
8
BLACK
6
CONTINUOUS
10
4.43887
20
-1.3627
11
4.43962
21
-1.36647
0
LINE
8
BLACK
6
CONTINUOUS
10
4.43962
20
-1.36647
11
4.43887
21
-1.37024
0
LINE
8
BLACK
6
CONTINUOUS
10
4.43887
20
-1.37024
11
4.43674
21
-1.37343
0
LINE
8
BLACK
6
CONTINUOUS
10
4.43674
20
-1.37343
11
4.42143
21
-1.38874
0
LINE
8
BLACK
6
CONTINUOUS
10
4.42143
20
-1.38874
11
4.41824
21
-1.39087
0
LINE
8
BLACK
6
CONTINUOUS
10
4.41824
20
-1.39087
11
4.41447
21
-1.39162
0
LINE
8
BLACK
6
CONTINUOUS
10
4.41447
20
-1.39162
11
4.4107
21
-1.39087
0
LINE
8
BLACK
6
CONTINUOUS
10
4.4107
20
-1.39087
11
4.40751
21
-1.38874
0
LINE
8
BLACK
6
CONTINUOUS
10
4.40751
20
-1.38874
11
4.3922
21
-1.37343
0
LINE
8
BLACK
6
CONTINUOUS
10
4.3922
20
-1.37343
11
4.39006
21
-1.37024
0
LINE
8
BLACK
6
CONTINUOUS
10
4.39006
20
-1.37024
11
4.38932
21
-1.36647
0
LINE
8
BLACK
6
CONTINUOUS
10
4.38932
20
-1.36647
11
4.39006
21
-1.3627
0
LINE
8
BLACK
6
CONTINUOUS
10
4.39006
20
-1.3627
11
4.3922
21
-1.35951
0
LINE
8
BLACK
6
CONTINUOUS
10
4.3922
20
-1.35951
11
4.40751
21
-1.3442
0
LINE
8
BLACK
6
CONTINUOUS
10
4.40751
20
-1.3442
11
4.4107
21
-1.34206
0
LINE
8
BLACK
6
CONTINUOUS
10
4.4107
20
-1.34206
11
4.41447
21
-1.34132
0
LINE
8
BLACK
6
CONTINUOUS
10
4.41447
20
-1.34132
11
4.41824
21
-1.34206
0
LINE
8
BLACK
6
CONTINUOUS
10
4.0916
20
-1.36576
11
4.09333
21
-1.36691
0
LINE
8
BLACK
6
CONTINUOUS
10
4.09333
20
-1.36691
11
4.09448
21
-1.36864
0
LINE
8
BLACK
6
CONTINUOUS
10
4.09448
20
-1.36864
11
4.09488
21
-1.37067
0
LINE
8
BLACK
6
CONTINUOUS
10
4.09488
20
-1.37067
11
4.09488
21
-1.38524
0
LINE
8
BLACK
6
CONTINUOUS
10
4.09488
20
-1.38524
11
4.09448
21
-1.38727
0
LINE
8
BLACK
6
CONTINUOUS
10
4.09448
20
-1.38727
11
4.09333
21
-1.38899
0
LINE
8
BLACK
6
CONTINUOUS
10
4.09333
20
-1.38899
11
4.0916
21
-1.39015
0
LINE
8
BLACK
6
CONTINUOUS
10
4.0916
20
-1.39015
11
4.08957
21
-1.39055
0
LINE
8
BLACK
6
CONTINUOUS
10
4.08957
20
-1.39055
11
4.07894
21
-1.39055
0
LINE
8
BLACK
6
CONTINUOUS
10
4.07894
20
-1.39055
11
4.0769
21
-1.39015
0
LINE
8
BLACK
6
CONTINUOUS
10
4.0769
20
-1.39015
11
4.07518
21
-1.38899
0
LINE
8
BLACK
6
CONTINUOUS
10
4.07518
20
-1.38899
11
4.07403
21
-1.38727
0
LINE
8
BLACK
6
CONTINUOUS
10
4.07403
20
-1.38727
11
4.07362
21
-1.38524
0
LINE
8
BLACK
6
CONTINUOUS
10
4.07362
20
-1.38524
11
4.07362
21
-1.37067
0
LINE
8
BLACK
6
CONTINUOUS
10
4.07362
20
-1.37067
11
4.07403
21
-1.36864
0
LINE
8
BLACK
6
CONTINUOUS
10
4.07403
20
-1.36864
11
4.07518
21
-1.36691
0
LINE
8
BLACK
6
CONTINUOUS
10
4.07518
20
-1.36691
11
4.0769
21
-1.36576
0
LINE
8
BLACK
6
CONTINUOUS
10
4.0769
20
-1.36576
11
4.07894
21
-1.36535
0
LINE
8
BLACK
6
CONTINUOUS
10
4.07894
20
-1.36535
11
4.08957
21
-1.36535
0
LINE
8
BLACK
6
CONTINUOUS
10
4.08957
20
-1.36535
11
4.0916
21
-1.36576
0
LINE
8
BLACK
6
CONTINUOUS
10
4.13176
20
-1.36576
11
4.13348
21
-1.36691
0
LINE
8
BLACK
6
CONTINUOUS
10
4.13348
20
-1.36691
11
4.13463
21
-1.36864
0
LINE
8
BLACK
6
CONTINUOUS
10
4.13463
20
-1.36864
11
4.13504
21
-1.37067
0
LINE
8
BLACK
6
CONTINUOUS
10
4.13504
20
-1.37067
11
4.13504
21
-1.38524
0
LINE
8
BLACK
6
CONTINUOUS
10
4.13504
20
-1.38524
11
4.13463
21
-1.38727
0
LINE
8
BLACK
6
CONTINUOUS
10
4.13463
20
-1.38727
11
4.13348
21
-1.38899
0
LINE
8
BLACK
6
CONTINUOUS
10
4.13348
20
-1.38899
11
4.13176
21
-1.39015
0
LINE
8
BLACK
6
CONTINUOUS
10
4.13176
20
-1.39015
11
4.12972
21
-1.39055
0
LINE
8
BLACK
6
CONTINUOUS
10
4.12972
20
-1.39055
11
4.11909
21
-1.39055
0
LINE
8
BLACK
6
CONTINUOUS
10
4.11909
20
-1.39055
11
4.11706
21
-1.39015
0
LINE
8
BLACK
6
CONTINUOUS
10
4.11706
20
-1.39015
11
4.11534
21
-1.38899
0
LINE
8
BLACK
6
CONTINUOUS
10
4.11534
20
-1.38899
11
4.11418
21
-1.38727
0
LINE
8
BLACK
6
CONTINUOUS
10
4.11418
20
-1.38727
11
4.11378
21
-1.38524
0
LINE
8
BLACK
6
CONTINUOUS
10
4.11378
20
-1.38524
11
4.11378
21
-1.37067
0
LINE
8
BLACK
6
CONTINUOUS
10
4.11378
20
-1.37067
11
4.11418
21
-1.36864
0
LINE
8
BLACK
6
CONTINUOUS
10
4.11418
20
-1.36864
11
4.11534
21
-1.36691
0
LINE
8
BLACK
6
CONTINUOUS
10
4.11534
20
-1.36691
11
4.11706
21
-1.36576
0
LINE
8
BLACK
6
CONTINUOUS
10
4.11706
20
-1.36576
11
4.11909
21
-1.36535
0
LINE
8
BLACK
6
CONTINUOUS
10
4.11909
20
-1.36535
11
4.12972
21
-1.36535
0
LINE
8
BLACK
6
CONTINUOUS
10
4.12972
20
-1.36535
11
4.13176
21
-1.36576
0
LINE
8
BLACK
6
CONTINUOUS
10
4.20523
20
-1.32592
11
4.20603
21
-1.32645
0
LINE
8
BLACK
6
CONTINUOUS
10
4.20603
20
-1.32645
11
4.23247
21
-1.3529
0
LINE
8
BLACK
6
CONTINUOUS
10
4.23247
20
-1.3529
11
4.23301
21
-1.3537
0
LINE
8
BLACK
6
CONTINUOUS
10
4.23301
20
-1.3537
11
4.23319
21
-1.35464
0
LINE
8
BLACK
6
CONTINUOUS
10
4.23319
20
-1.35464
11
4.23301
21
-1.35558
0
LINE
8
BLACK
6
CONTINUOUS
10
4.23301
20
-1.35558
11
4.23247
21
-1.35638
0
LINE
8
BLACK
6
CONTINUOUS
10
4.23247
20
-1.35638
11
4.22899
21
-1.35986
0
LINE
8
BLACK
6
CONTINUOUS
10
4.22899
20
-1.35986
11
4.22819
21
-1.36039
0
LINE
8
BLACK
6
CONTINUOUS
10
4.22819
20
-1.36039
11
4.22725
21
-1.36058
0
LINE
8
BLACK
6
CONTINUOUS
10
4.22725
20
-1.36058
11
4.22631
21
-1.36039
0
LINE
8
BLACK
6
CONTINUOUS
10
4.22631
20
-1.36039
11
4.22551
21
-1.35986
0
LINE
8
BLACK
6
CONTINUOUS
10
4.22551
20
-1.35986
11
4.19907
21
-1.33341
0
LINE
8
BLACK
6
CONTINUOUS
10
4.19907
20
-1.33341
11
4.19853
21
-1.33261
0
LINE
8
BLACK
6
CONTINUOUS
10
4.19853
20
-1.33261
11
4.19835
21
-1.33167
0
LINE
8
BLACK
6
CONTINUOUS
10
4.19835
20
-1.33167
11
4.19853
21
-1.33073
0
LINE
8
BLACK
6
CONTINUOUS
10
4.19853
20
-1.33073
11
4.19907
21
-1.32993
0
LINE
8
BLACK
6
CONTINUOUS
10
4.19907
20
-1.32993
11
4.20255
21
-1.32645
0
LINE
8
BLACK
6
CONTINUOUS
10
4.20255
20
-1.32645
11
4.20334
21
-1.32592
0
LINE
8
BLACK
6
CONTINUOUS
10
4.20334
20
-1.32592
11
4.20429
21
-1.32573
0
LINE
8
BLACK
6
CONTINUOUS
10
4.20429
20
-1.32573
11
4.20523
21
-1.32592
0
LINE
8
BLACK
6
CONTINUOUS
10
4.55321
20
-1.32592
11
4.55401
21
-1.32645
0
LINE
8
BLACK
6
CONTINUOUS
10
4.55401
20
-1.32645
11
4.55749
21
-1.32993
0
LINE
8
BLACK
6
CONTINUOUS
10
4.55749
20
-1.32993
11
4.55802
21
-1.33073
0
LINE
8
BLACK
6
CONTINUOUS
10
4.55802
20
-1.33073
11
4.55821
21
-1.33167
0
LINE
8
BLACK
6
CONTINUOUS
10
4.55821
20
-1.33167
11
4.55802
21
-1.33261
0
LINE
8
BLACK
6
CONTINUOUS
10
4.55802
20
-1.33261
11
4.55749
21
-1.33341
0
LINE
8
BLACK
6
CONTINUOUS
10
4.55749
20
-1.33341
11
4.53104
21
-1.35986
0
LINE
8
BLACK
6
CONTINUOUS
10
4.53104
20
-1.35986
11
4.53025
21
-1.36039
0
LINE
8
BLACK
6
CONTINUOUS
10
4.53025
20
-1.36039
11
4.5293
21
-1.36058
0
LINE
8
BLACK
6
CONTINUOUS
10
4.5293
20
-1.36058
11
4.52836
21
-1.36039
0
LINE
8
BLACK
6
CONTINUOUS
10
4.52836
20
-1.36039
11
4.52756
21
-1.35986
0
LINE
8
BLACK
6
CONTINUOUS
10
4.52756
20
-1.35986
11
4.52408
21
-1.35638
0
LINE
8
BLACK
6
CONTINUOUS
10
4.52408
20
-1.35638
11
4.52355
21
-1.35558
0
LINE
8
BLACK
6
CONTINUOUS
10
4.52355
20
-1.35558
11
4.52336
21
-1.35464
0
LINE
8
BLACK
6
CONTINUOUS
10
4.52336
20
-1.35464
11
4.52355
21
-1.3537
0
LINE
8
BLACK
6
CONTINUOUS
10
4.52355
20
-1.3537
11
4.52408
21
-1.3529
0
LINE
8
BLACK
6
CONTINUOUS
10
4.52408
20
-1.3529
11
4.55053
21
-1.32645
0
LINE
8
BLACK
6
CONTINUOUS
10
4.55053
20
-1.32645
11
4.55133
21
-1.32592
0
LINE
8
BLACK
6
CONTINUOUS
10
4.55133
20
-1.32592
11
4.55227
21
-1.32573
0
LINE
8
BLACK
6
CONTINUOUS
10
4.55227
20
-1.32573
11
4.55321
21
-1.32592
0
LINE
8
BLACK
6
CONTINUOUS
10
4.38205
20
-1.30587
11
4.38524
21
-1.30801
0
LINE
8
BLACK
6
CONTINUOUS
10
4.38524
20
-1.30801
11
4.40055
21
-1.32332
0
LINE
8
BLACK
6
CONTINUOUS
10
4.40055
20
-1.32332
11
4.40268
21
-1.32651
0
LINE
8
BLACK
6
CONTINUOUS
10
4.40268
20
-1.32651
11
4.40343
21
-1.33028
0
LINE
8
BLACK
6
CONTINUOUS
10
4.40343
20
-1.33028
11
4.40268
21
-1.33405
0
LINE
8
BLACK
6
CONTINUOUS
10
4.40268
20
-1.33405
11
4.40055
21
-1.33724
0
LINE
8
BLACK
6
CONTINUOUS
10
4.40055
20
-1.33724
11
4.38524
21
-1.35255
0
LINE
8
BLACK
6
CONTINUOUS
10
4.38524
20
-1.35255
11
4.38205
21
-1.35468
0
LINE
8
BLACK
6
CONTINUOUS
10
4.38205
20
-1.35468
11
4.37828
21
-1.35543
0
LINE
8
BLACK
6
CONTINUOUS
10
4.37828
20
-1.35543
11
4.37451
21
-1.35468
0
LINE
8
BLACK
6
CONTINUOUS
10
4.37451
20
-1.35468
11
4.37132
21
-1.35255
0
LINE
8
BLACK
6
CONTINUOUS
10
4.37132
20
-1.35255
11
4.35601
21
-1.33724
0
LINE
8
BLACK
6
CONTINUOUS
10
4.35601
20
-1.33724
11
4.35387
21
-1.33405
0
LINE
8
BLACK
6
CONTINUOUS
10
4.35387
20
-1.33405
11
4.35312
21
-1.33028
0
LINE
8
BLACK
6
CONTINUOUS
10
4.35312
20
-1.33028
11
4.35387
21
-1.32651
0
LINE
8
BLACK
6
CONTINUOUS
10
4.35387
20
-1.32651
11
4.35601
21
-1.32332
0
LINE
8
BLACK
6
CONTINUOUS
10
4.35601
20
-1.32332
11
4.37132
21
-1.30801
0
LINE
8
BLACK
6
CONTINUOUS
10
4.37132
20
-1.30801
11
4.37451
21
-1.30587
0
LINE
8
BLACK
6
CONTINUOUS
10
4.37451
20
-1.30587
11
4.37828
21
-1.30512
0
LINE
8
BLACK
6
CONTINUOUS
10
4.37828
20
-1.30512
11
4.38205
21
-1.30587
0
LINE
8
BLACK
6
CONTINUOUS
10
4.45443
20
-1.30587
11
4.45762
21
-1.30801
0
LINE
8
BLACK
6
CONTINUOUS
10
4.45762
20
-1.30801
11
4.47293
21
-1.32332
0
LINE
8
BLACK
6
CONTINUOUS
10
4.47293
20
-1.32332
11
4.47506
21
-1.32651
0
LINE
8
BLACK
6
CONTINUOUS
10
4.47506
20
-1.32651
11
4.47581
21
-1.33028
0
LINE
8
BLACK
6
CONTINUOUS
10
4.47581
20
-1.33028
11
4.47506
21
-1.33405
0
LINE
8
BLACK
6
CONTINUOUS
10
4.47506
20
-1.33405
11
4.47293
21
-1.33724
0
LINE
8
BLACK
6
CONTINUOUS
10
4.47293
20
-1.33724
11
4.45762
21
-1.35255
0
LINE
8
BLACK
6
CONTINUOUS
10
4.45762
20
-1.35255
11
4.45443
21
-1.35468
0
LINE
8
BLACK
6
CONTINUOUS
10
4.45443
20
-1.35468
11
4.45066
21
-1.35543
0
LINE
8
BLACK
6
CONTINUOUS
10
4.45066
20
-1.35543
11
4.44689
21
-1.35468
0
LINE
8
BLACK
6
CONTINUOUS
10
4.44689
20
-1.35468
11
4.4437
21
-1.35255
0
LINE
8
BLACK
6
CONTINUOUS
10
4.4437
20
-1.35255
11
4.42839
21
-1.33724
0
LINE
8
BLACK
6
CONTINUOUS
10
4.42839
20
-1.33724
11
4.42626
21
-1.33405
0
LINE
8
BLACK
6
CONTINUOUS
10
4.42626
20
-1.33405
11
4.42551
21
-1.33028
0
LINE
8
BLACK
6
CONTINUOUS
10
4.42551
20
-1.33028
11
4.42626
21
-1.32651
0
LINE
8
BLACK
6
CONTINUOUS
10
4.42626
20
-1.32651
11
4.42839
21
-1.32332
0
LINE
8
BLACK
6
CONTINUOUS
10
4.42839
20
-1.32332
11
4.4437
21
-1.30801
0
LINE
8
BLACK
6
CONTINUOUS
10
4.4437
20
-1.30801
11
4.44689
21
-1.30587
0
LINE
8
BLACK
6
CONTINUOUS
10
4.44689
20
-1.30587
11
4.45066
21
-1.30512
0
LINE
8
BLACK
6
CONTINUOUS
10
4.45066
20
-1.30512
11
4.45443
21
-1.30587
0
LINE
8
BLACK
6
CONTINUOUS
10
4.30966
20
-1.30587
11
4.31286
21
-1.30801
0
LINE
8
BLACK
6
CONTINUOUS
10
4.31286
20
-1.30801
11
4.32817
21
-1.32332
0
LINE
8
BLACK
6
CONTINUOUS
10
4.32817
20
-1.32332
11
4.3303
21
-1.32651
0
LINE
8
BLACK
6
CONTINUOUS
10
4.3303
20
-1.32651
11
4.33105
21
-1.33028
0
LINE
8
BLACK
6
CONTINUOUS
10
4.33105
20
-1.33028
11
4.3303
21
-1.33405
0
LINE
8
BLACK
6
CONTINUOUS
10
4.3303
20
-1.33405
11
4.32817
21
-1.33724
0
LINE
8
BLACK
6
CONTINUOUS
10
4.32817
20
-1.33724
11
4.31286
21
-1.35255
0
LINE
8
BLACK
6
CONTINUOUS
10
4.31286
20
-1.35255
11
4.30966
21
-1.35468
0
LINE
8
BLACK
6
CONTINUOUS
10
4.30966
20
-1.35468
11
4.3059
21
-1.35543
0
LINE
8
BLACK
6
CONTINUOUS
10
4.3059
20
-1.35543
11
4.30213
21
-1.35468
0
LINE
8
BLACK
6
CONTINUOUS
10
4.30213
20
-1.35468
11
4.29894
21
-1.35255
0
LINE
8
BLACK
6
CONTINUOUS
10
4.29894
20
-1.35255
11
4.28363
21
-1.33724
0
LINE
8
BLACK
6
CONTINUOUS
10
4.28363
20
-1.33724
11
4.28149
21
-1.33405
0
LINE
8
BLACK
6
CONTINUOUS
10
4.28149
20
-1.33405
11
4.28074
21
-1.33028
0
LINE
8
BLACK
6
CONTINUOUS
10
4.28074
20
-1.33028
11
4.28149
21
-1.32651
0
LINE
8
BLACK
6
CONTINUOUS
10
4.28149
20
-1.32651
11
4.28363
21
-1.32332
0
LINE
8
BLACK
6
CONTINUOUS
10
4.28363
20
-1.32332
11
4.29894
21
-1.30801
0
LINE
8
BLACK
6
CONTINUOUS
10
4.29894
20
-1.30801
11
4.30213
21
-1.30587
0
LINE
8
BLACK
6
CONTINUOUS
10
4.30213
20
-1.30587
11
4.3059
21
-1.30512
0
LINE
8
BLACK
6
CONTINUOUS
10
4.3059
20
-1.30512
11
4.30966
21
-1.30587
0
LINE
8
BLACK
6
CONTINUOUS
10
5.42677
20
-1.35315
11
5.35591
21
-1.35315
0
LINE
8
BLACK
6
CONTINUOUS
10
5.35591
20
-1.35315
11
5.35591
21
-1.30984
0
LINE
8
BLACK
6
CONTINUOUS
10
5.35591
20
-1.30984
11
5.42677
21
-1.30984
0
LINE
8
BLACK
6
CONTINUOUS
10
5.42677
20
-1.30984
11
5.42677
21
-1.35315
0
LINE
8
BLACK
6
CONTINUOUS
10
5.18268
20
-1.35315
11
5.11181
21
-1.35315
0
LINE
8
BLACK
6
CONTINUOUS
10
5.11181
20
-1.35315
11
5.11181
21
-1.30984
0
LINE
8
BLACK
6
CONTINUOUS
10
5.11181
20
-1.30984
11
5.18268
21
-1.30984
0
LINE
8
BLACK
6
CONTINUOUS
10
5.18268
20
-1.30984
11
5.18268
21
-1.35315
0
LINE
8
BLACK
6
CONTINUOUS
10
4.71313
20
-1.3268
11
4.71492
21
-1.32799
0
LINE
8
BLACK
6
CONTINUOUS
10
4.71492
20
-1.32799
11
4.71612
21
-1.32978
0
LINE
8
BLACK
6
CONTINUOUS
10
4.71612
20
-1.32978
11
4.71654
21
-1.33189
0
LINE
8
BLACK
6
CONTINUOUS
10
4.71654
20
-1.33189
11
4.71654
21
-1.34528
0
LINE
8
BLACK
6
CONTINUOUS
10
4.71654
20
-1.34528
11
4.71612
21
-1.34738
0
LINE
8
BLACK
6
CONTINUOUS
10
4.71612
20
-1.34738
11
4.71492
21
-1.34917
0
LINE
8
BLACK
6
CONTINUOUS
10
4.71492
20
-1.34917
11
4.71313
21
-1.35037
0
LINE
8
BLACK
6
CONTINUOUS
10
4.71313
20
-1.35037
11
4.71102
21
-1.35079
0
LINE
8
BLACK
6
CONTINUOUS
10
4.71102
20
-1.35079
11
4.7
21
-1.35079
0
LINE
8
BLACK
6
CONTINUOUS
10
4.7
20
-1.35079
11
4.69789
21
-1.35037
0
LINE
8
BLACK
6
CONTINUOUS
10
4.69789
20
-1.35037
11
4.6961
21
-1.34917
0
LINE
8
BLACK
6
CONTINUOUS
10
4.6961
20
-1.34917
11
4.69491
21
-1.34738
0
LINE
8
BLACK
6
CONTINUOUS
10
4.69491
20
-1.34738
11
4.69449
21
-1.34528
0
LINE
8
BLACK
6
CONTINUOUS
10
4.69449
20
-1.34528
11
4.69449
21
-1.33189
0
LINE
8
BLACK
6
CONTINUOUS
10
4.69449
20
-1.33189
11
4.69491
21
-1.32978
0
LINE
8
BLACK
6
CONTINUOUS
10
4.69491
20
-1.32978
11
4.6961
21
-1.32799
0
LINE
8
BLACK
6
CONTINUOUS
10
4.6961
20
-1.32799
11
4.69789
21
-1.3268
0
LINE
8
BLACK
6
CONTINUOUS
10
4.69789
20
-1.3268
11
4.7
21
-1.32638
0
LINE
8
BLACK
6
CONTINUOUS
10
4.7
20
-1.32638
11
4.71102
21
-1.32638
0
LINE
8
BLACK
6
CONTINUOUS
10
4.71102
20
-1.32638
11
4.71313
21
-1.3268
0
LINE
8
BLACK
6
CONTINUOUS
10
4.75093
20
-1.3268
11
4.75272
21
-1.32799
0
LINE
8
BLACK
6
CONTINUOUS
10
4.75272
20
-1.32799
11
4.75391
21
-1.32978
0
LINE
8
BLACK
6
CONTINUOUS
10
4.75391
20
-1.32978
11
4.75433
21
-1.33189
0
LINE
8
BLACK
6
CONTINUOUS
10
4.75433
20
-1.33189
11
4.75433
21
-1.34528
0
LINE
8
BLACK
6
CONTINUOUS
10
4.75433
20
-1.34528
11
4.75391
21
-1.34738
0
LINE
8
BLACK
6
CONTINUOUS
10
4.75391
20
-1.34738
11
4.75272
21
-1.34917
0
LINE
8
BLACK
6
CONTINUOUS
10
4.75272
20
-1.34917
11
4.75093
21
-1.35037
0
LINE
8
BLACK
6
CONTINUOUS
10
4.75093
20
-1.35037
11
4.74882
21
-1.35079
0
LINE
8
BLACK
6
CONTINUOUS
10
4.74882
20
-1.35079
11
4.7378
21
-1.35079
0
LINE
8
BLACK
6
CONTINUOUS
10
4.7378
20
-1.35079
11
4.73569
21
-1.35037
0
LINE
8
BLACK
6
CONTINUOUS
10
4.73569
20
-1.35037
11
4.7339
21
-1.34917
0
LINE
8
BLACK
6
CONTINUOUS
10
4.7339
20
-1.34917
11
4.7327
21
-1.34738
0
LINE
8
BLACK
6
CONTINUOUS
10
4.7327
20
-1.34738
11
4.73228
21
-1.34528
0
LINE
8
BLACK
6
CONTINUOUS
10
4.73228
20
-1.34528
11
4.73228
21
-1.33189
0
LINE
8
BLACK
6
CONTINUOUS
10
4.73228
20
-1.33189
11
4.7327
21
-1.32978
0
LINE
8
BLACK
6
CONTINUOUS
10
4.7327
20
-1.32978
11
4.7339
21
-1.32799
0
LINE
8
BLACK
6
CONTINUOUS
10
4.7339
20
-1.32799
11
4.73569
21
-1.3268
0
LINE
8
BLACK
6
CONTINUOUS
10
4.73569
20
-1.3268
11
4.7378
21
-1.32638
0
LINE
8
BLACK
6
CONTINUOUS
10
4.7378
20
-1.32638
11
4.74882
21
-1.32638
0
LINE
8
BLACK
6
CONTINUOUS
10
4.74882
20
-1.32638
11
4.75093
21
-1.3268
0
LINE
8
BLACK
6
CONTINUOUS
10
4.21915
20
-1.312
11
4.21995
21
-1.31253
0
LINE
8
BLACK
6
CONTINUOUS
10
4.21995
20
-1.31253
11
4.24639
21
-1.33898
0
LINE
8
BLACK
6
CONTINUOUS
10
4.24639
20
-1.33898
11
4.24693
21
-1.33978
0
LINE
8
BLACK
6
CONTINUOUS
10
4.24693
20
-1.33978
11
4.24711
21
-1.34072
0
LINE
8
BLACK
6
CONTINUOUS
10
4.24711
20
-1.34072
11
4.24693
21
-1.34166
0
LINE
8
BLACK
6
CONTINUOUS
10
4.24693
20
-1.34166
11
4.24639
21
-1.34246
0
LINE
8
BLACK
6
CONTINUOUS
10
4.24639
20
-1.34246
11
4.24291
21
-1.34594
0
LINE
8
BLACK
6
CONTINUOUS
10
4.24291
20
-1.34594
11
4.24211
21
-1.34647
0
LINE
8
BLACK
6
CONTINUOUS
10
4.24211
20
-1.34647
11
4.24117
21
-1.34666
0
LINE
8
BLACK
6
CONTINUOUS
10
4.24117
20
-1.34666
11
4.24023
21
-1.34647
0
LINE
8
BLACK
6
CONTINUOUS
10
4.24023
20
-1.34647
11
4.23943
21
-1.34594
0
LINE
8
BLACK
6
CONTINUOUS
10
4.23943
20
-1.34594
11
4.21299
21
-1.31949
0
LINE
8
BLACK
6
CONTINUOUS
10
4.21299
20
-1.31949
11
4.21245
21
-1.31869
0
LINE
8
BLACK
6
CONTINUOUS
10
4.21245
20
-1.31869
11
4.21226
21
-1.31775
0
LINE
8
BLACK
6
CONTINUOUS
10
4.21226
20
-1.31775
11
4.21245
21
-1.31681
0
LINE
8
BLACK
6
CONTINUOUS
10
4.21245
20
-1.31681
11
4.21299
21
-1.31601
0
LINE
8
BLACK
6
CONTINUOUS
10
4.21299
20
-1.31601
11
4.21647
21
-1.31253
0
LINE
8
BLACK
6
CONTINUOUS
10
4.21647
20
-1.31253
11
4.21726
21
-1.312
0
LINE
8
BLACK
6
CONTINUOUS
10
4.21726
20
-1.312
11
4.21821
21
-1.31181
0
LINE
8
BLACK
6
CONTINUOUS
10
4.21821
20
-1.31181
11
4.21915
21
-1.312
0
LINE
8
BLACK
6
CONTINUOUS
10
4.53929
20
-1.312
11
4.54009
21
-1.31253
0
LINE
8
BLACK
6
CONTINUOUS
10
4.54009
20
-1.31253
11
4.54357
21
-1.31601
0
LINE
8
BLACK
6
CONTINUOUS
10
4.54357
20
-1.31601
11
4.54411
21
-1.31681
0
LINE
8
BLACK
6
CONTINUOUS
10
4.54411
20
-1.31681
11
4.54429
21
-1.31775
0
LINE
8
BLACK
6
CONTINUOUS
10
4.54429
20
-1.31775
11
4.54411
21
-1.31869
0
LINE
8
BLACK
6
CONTINUOUS
10
4.54411
20
-1.31869
11
4.54357
21
-1.31949
0
LINE
8
BLACK
6
CONTINUOUS
10
4.54357
20
-1.31949
11
4.51713
21
-1.34594
0
LINE
8
BLACK
6
CONTINUOUS
10
4.51713
20
-1.34594
11
4.51633
21
-1.34647
0
LINE
8
BLACK
6
CONTINUOUS
10
4.51633
20
-1.34647
11
4.51539
21
-1.34666
0
LINE
8
BLACK
6
CONTINUOUS
10
4.51539
20
-1.34666
11
4.51444
21
-1.34647
0
LINE
8
BLACK
6
CONTINUOUS
10
4.51444
20
-1.34647
11
4.51365
21
-1.34594
0
LINE
8
BLACK
6
CONTINUOUS
10
4.51365
20
-1.34594
11
4.51017
21
-1.34246
0
LINE
8
BLACK
6
CONTINUOUS
10
4.51017
20
-1.34246
11
4.50963
21
-1.34166
0
LINE
8
BLACK
6
CONTINUOUS
10
4.50963
20
-1.34166
11
4.50944
21
-1.34072
0
LINE
8
BLACK
6
CONTINUOUS
10
4.50944
20
-1.34072
11
4.50963
21
-1.33978
0
LINE
8
BLACK
6
CONTINUOUS
10
4.50963
20
-1.33978
11
4.51017
21
-1.33898
0
LINE
8
BLACK
6
CONTINUOUS
10
4.51017
20
-1.33898
11
4.53661
21
-1.31253
0
LINE
8
BLACK
6
CONTINUOUS
10
4.53661
20
-1.31253
11
4.53741
21
-1.312
0
LINE
8
BLACK
6
CONTINUOUS
10
4.53741
20
-1.312
11
4.53835
21
-1.31181
0
LINE
8
BLACK
6
CONTINUOUS
10
4.53835
20
-1.31181
11
4.53929
21
-1.312
0
LINE
8
BLACK
6
CONTINUOUS
10
4.52537
20
-1.29808
11
4.52617
21
-1.29861
0
LINE
8
BLACK
6
CONTINUOUS
10
4.52617
20
-1.29861
11
4.52965
21
-1.30209
0
LINE
8
BLACK
6
CONTINUOUS
10
4.52965
20
-1.30209
11
4.53019
21
-1.30289
0
LINE
8
BLACK
6
CONTINUOUS
10
4.53019
20
-1.30289
11
4.53037
21
-1.30383
0
LINE
8
BLACK
6
CONTINUOUS
10
4.53037
20
-1.30383
11
4.53019
21
-1.30477
0
LINE
8
BLACK
6
CONTINUOUS
10
4.53019
20
-1.30477
11
4.52965
21
-1.30557
0
LINE
8
BLACK
6
CONTINUOUS
10
4.52965
20
-1.30557
11
4.50321
21
-1.33202
0
LINE
8
BLACK
6
CONTINUOUS
10
4.50321
20
-1.33202
11
4.50241
21
-1.33255
0
LINE
8
BLACK
6
CONTINUOUS
10
4.50241
20
-1.33255
11
4.50147
21
-1.33274
0
LINE
8
BLACK
6
CONTINUOUS
10
4.50147
20
-1.33274
11
4.50052
21
-1.33255
0
LINE
8
BLACK
6
CONTINUOUS
10
4.50052
20
-1.33255
11
4.49973
21
-1.33202
0
LINE
8
BLACK
6
CONTINUOUS
10
4.49973
20
-1.33202
11
4.49625
21
-1.32854
0
LINE
8
BLACK
6
CONTINUOUS
10
4.49625
20
-1.32854
11
4.49571
21
-1.32774
0
LINE
8
BLACK
6
CONTINUOUS
10
4.49571
20
-1.32774
11
4.49553
21
-1.3268
0
LINE
8
BLACK
6
CONTINUOUS
10
4.49553
20
-1.3268
11
4.49571
21
-1.32586
0
LINE
8
BLACK
6
CONTINUOUS
10
4.49571
20
-1.32586
11
4.49625
21
-1.32506
0
LINE
8
BLACK
6
CONTINUOUS
10
4.49625
20
-1.32506
11
4.52269
21
-1.29861
0
LINE
8
BLACK
6
CONTINUOUS
10
4.52269
20
-1.29861
11
4.52349
21
-1.29808
0
LINE
8
BLACK
6
CONTINUOUS
10
4.52349
20
-1.29808
11
4.52443
21
-1.29789
0
LINE
8
BLACK
6
CONTINUOUS
10
4.52443
20
-1.29789
11
4.52537
21
-1.29808
0
LINE
8
BLACK
6
CONTINUOUS
10
4.23307
20
-1.29808
11
4.23386
21
-1.29861
0
LINE
8
BLACK
6
CONTINUOUS
10
4.23386
20
-1.29861
11
4.26031
21
-1.32506
0
LINE
8
BLACK
6
CONTINUOUS
10
4.26031
20
-1.32506
11
4.26085
21
-1.32586
0
LINE
8
BLACK
6
CONTINUOUS
10
4.26085
20
-1.32586
11
4.26103
21
-1.3268
0
LINE
8
BLACK
6
CONTINUOUS
10
4.26103
20
-1.3268
11
4.26085
21
-1.32774
0
LINE
8
BLACK
6
CONTINUOUS
10
4.26085
20
-1.32774
11
4.26031
21
-1.32854
0
LINE
8
BLACK
6
CONTINUOUS
10
4.26031
20
-1.32854
11
4.25683
21
-1.33202
0
LINE
8
BLACK
6
CONTINUOUS
10
4.25683
20
-1.33202
11
4.25603
21
-1.33255
0
LINE
8
BLACK
6
CONTINUOUS
10
4.25603
20
-1.33255
11
4.25509
21
-1.33274
0
LINE
8
BLACK
6
CONTINUOUS
10
4.25509
20
-1.33274
11
4.25415
21
-1.33255
0
LINE
8
BLACK
6
CONTINUOUS
10
4.25415
20
-1.33255
11
4.25335
21
-1.33202
0
LINE
8
BLACK
6
CONTINUOUS
10
4.25335
20
-1.33202
11
4.22691
21
-1.30557
0
LINE
8
BLACK
6
CONTINUOUS
10
4.22691
20
-1.30557
11
4.22637
21
-1.30477
0
LINE
8
BLACK
6
CONTINUOUS
10
4.22637
20
-1.30477
11
4.22618
21
-1.30383
0
LINE
8
BLACK
6
CONTINUOUS
10
4.22618
20
-1.30383
11
4.22637
21
-1.30289
0
LINE
8
BLACK
6
CONTINUOUS
10
4.22637
20
-1.30289
11
4.22691
21
-1.30209
0
LINE
8
BLACK
6
CONTINUOUS
10
4.22691
20
-1.30209
11
4.23038
21
-1.29861
0
LINE
8
BLACK
6
CONTINUOUS
10
4.23038
20
-1.29861
11
4.23118
21
-1.29808
0
LINE
8
BLACK
6
CONTINUOUS
10
4.23118
20
-1.29808
11
4.23212
21
-1.29789
0
LINE
8
BLACK
6
CONTINUOUS
10
4.23212
20
-1.29789
11
4.23307
21
-1.29808
0
LINE
8
BLACK
6
CONTINUOUS
10
4.34585
20
-1.26968
11
4.34905
21
-1.27182
0
LINE
8
BLACK
6
CONTINUOUS
10
4.34905
20
-1.27182
11
4.36436
21
-1.28713
0
LINE
8
BLACK
6
CONTINUOUS
10
4.36436
20
-1.28713
11
4.36649
21
-1.29032
0
LINE
8
BLACK
6
CONTINUOUS
10
4.36649
20
-1.29032
11
4.36724
21
-1.29409
0
LINE
8
BLACK
6
CONTINUOUS
10
4.36724
20
-1.29409
11
4.36649
21
-1.29785
0
LINE
8
BLACK
6
CONTINUOUS
10
4.36649
20
-1.29785
11
4.36436
21
-1.30105
0
LINE
8
BLACK
6
CONTINUOUS
10
4.36436
20
-1.30105
11
4.34905
21
-1.31636
0
LINE
8
BLACK
6
CONTINUOUS
10
4.34905
20
-1.31636
11
4.34585
21
-1.31849
0
LINE
8
BLACK
6
CONTINUOUS
10
4.34585
20
-1.31849
11
4.34209
21
-1.31924
0
LINE
8
BLACK
6
CONTINUOUS
10
4.34209
20
-1.31924
11
4.33832
21
-1.31849
0
LINE
8
BLACK
6
CONTINUOUS
10
4.33832
20
-1.31849
11
4.33513
21
-1.31636
0
LINE
8
BLACK
6
CONTINUOUS
10
4.33513
20
-1.31636
11
4.31982
21
-1.30105
0
LINE
8
BLACK
6
CONTINUOUS
10
4.31982
20
-1.30105
11
4.31768
21
-1.29785
0
LINE
8
BLACK
6
CONTINUOUS
10
4.31768
20
-1.29785
11
4.31693
21
-1.29409
0
LINE
8
BLACK
6
CONTINUOUS
10
4.31693
20
-1.29409
11
4.31768
21
-1.29032
0
LINE
8
BLACK
6
CONTINUOUS
10
4.31768
20
-1.29032
11
4.31982
21
-1.28713
0
LINE
8
BLACK
6
CONTINUOUS
10
4.31982
20
-1.28713
11
4.33513
21
-1.27182
0
LINE
8
BLACK
6
CONTINUOUS
10
4.33513
20
-1.27182
11
4.33832
21
-1.26968
0
LINE
8
BLACK
6
CONTINUOUS
10
4.33832
20
-1.26968
11
4.34209
21
-1.26893
0
LINE
8
BLACK
6
CONTINUOUS
10
4.34209
20
-1.26893
11
4.34585
21
-1.26968
0
LINE
8
BLACK
6
CONTINUOUS
10
4.41824
20
-1.26968
11
4.42143
21
-1.27182
0
LINE
8
BLACK
6
CONTINUOUS
10
4.42143
20
-1.27182
11
4.43674
21
-1.28713
0
LINE
8
BLACK
6
CONTINUOUS
10
4.43674
20
-1.28713
11
4.43887
21
-1.29032
0
LINE
8
BLACK
6
CONTINUOUS
10
4.43887
20
-1.29032
11
4.43962
21
-1.29409
0
LINE
8
BLACK
6
CONTINUOUS
10
4.43962
20
-1.29409
11
4.43887
21
-1.29785
0
LINE
8
BLACK
6
CONTINUOUS
10
4.43887
20
-1.29785
11
4.43674
21
-1.30105
0
LINE
8
BLACK
6
CONTINUOUS
10
4.43674
20
-1.30105
11
4.42143
21
-1.31636
0
LINE
8
BLACK
6
CONTINUOUS
10
4.42143
20
-1.31636
11
4.41824
21
-1.31849
0
LINE
8
BLACK
6
CONTINUOUS
10
4.41824
20
-1.31849
11
4.41447
21
-1.31924
0
LINE
8
BLACK
6
CONTINUOUS
10
4.41447
20
-1.31924
11
4.4107
21
-1.31849
0
LINE
8
BLACK
6
CONTINUOUS
10
4.4107
20
-1.31849
11
4.40751
21
-1.31636
0
LINE
8
BLACK
6
CONTINUOUS
10
4.40751
20
-1.31636
11
4.3922
21
-1.30105
0
LINE
8
BLACK
6
CONTINUOUS
10
4.3922
20
-1.30105
11
4.39006
21
-1.29785
0
LINE
8
BLACK
6
CONTINUOUS
10
4.39006
20
-1.29785
11
4.38932
21
-1.29409
0
LINE
8
BLACK
6
CONTINUOUS
10
4.38932
20
-1.29409
11
4.39006
21
-1.29032
0
LINE
8
BLACK
6
CONTINUOUS
10
4.39006
20
-1.29032
11
4.3922
21
-1.28713
0
LINE
8
BLACK
6
CONTINUOUS
10
4.3922
20
-1.28713
11
4.40751
21
-1.27182
0
LINE
8
BLACK
6
CONTINUOUS
10
4.40751
20
-1.27182
11
4.4107
21
-1.26968
0
LINE
8
BLACK
6
CONTINUOUS
10
4.4107
20
-1.26968
11
4.41447
21
-1.26893
0
LINE
8
BLACK
6
CONTINUOUS
10
4.41447
20
-1.26893
11
4.41824
21
-1.26968
0
LINE
8
BLACK
6
CONTINUOUS
10
4.51145
20
-1.28416
11
4.51225
21
-1.28469
0
LINE
8
BLACK
6
CONTINUOUS
10
4.51225
20
-1.28469
11
4.51573
21
-1.28817
0
LINE
8
BLACK
6
CONTINUOUS
10
4.51573
20
-1.28817
11
4.51627
21
-1.28897
0
LINE
8
BLACK
6
CONTINUOUS
10
4.51627
20
-1.28897
11
4.51645
21
-1.28991
0
LINE
8
BLACK
6
CONTINUOUS
10
4.51645
20
-1.28991
11
4.51627
21
-1.29085
0
LINE
8
BLACK
6
CONTINUOUS
10
4.51627
20
-1.29085
11
4.51573
21
-1.29165
0
LINE
8
BLACK
6
CONTINUOUS
10
4.51573
20
-1.29165
11
4.48929
21
-1.3181
0
LINE
8
BLACK
6
CONTINUOUS
10
4.48929
20
-1.3181
11
4.48849
21
-1.31863
0
LINE
8
BLACK
6
CONTINUOUS
10
4.48849
20
-1.31863
11
4.48755
21
-1.31882
0
LINE
8
BLACK
6
CONTINUOUS
10
4.48755
20
-1.31882
11
4.4866
21
-1.31863
0
LINE
8
BLACK
6
CONTINUOUS
10
4.4866
20
-1.31863
11
4.48581
21
-1.3181
0
LINE
8
BLACK
6
CONTINUOUS
10
4.48581
20
-1.3181
11
4.48233
21
-1.31462
0
LINE
8
BLACK
6
CONTINUOUS
10
4.48233
20
-1.31462
11
4.48179
21
-1.31382
0
LINE
8
BLACK
6
CONTINUOUS
10
4.48179
20
-1.31382
11
4.48161
21
-1.31288
0
LINE
8
BLACK
6
CONTINUOUS
10
4.48161
20
-1.31288
11
4.48179
21
-1.31194
0
LINE
8
BLACK
6
CONTINUOUS
10
4.48179
20
-1.31194
11
4.48233
21
-1.31114
0
LINE
8
BLACK
6
CONTINUOUS
10
4.48233
20
-1.31114
11
4.50877
21
-1.28469
0
LINE
8
BLACK
6
CONTINUOUS
10
4.50877
20
-1.28469
11
4.50957
21
-1.28416
0
LINE
8
BLACK
6
CONTINUOUS
10
4.50957
20
-1.28416
11
4.51051
21
-1.28397
0
LINE
8
BLACK
6
CONTINUOUS
10
4.51051
20
-1.28397
11
4.51145
21
-1.28416
0
LINE
8
BLACK
6
CONTINUOUS
10
4.24699
20
-1.28416
11
4.24778
21
-1.28469
0
LINE
8
BLACK
6
CONTINUOUS
10
4.24778
20
-1.28469
11
4.27423
21
-1.31114
0
LINE
8
BLACK
6
CONTINUOUS
10
4.27423
20
-1.31114
11
4.27476
21
-1.31194
0
LINE
8
BLACK
6
CONTINUOUS
10
4.27476
20
-1.31194
11
4.27495
21
-1.31288
0
LINE
8
BLACK
6
CONTINUOUS
10
4.27495
20
-1.31288
11
4.27476
21
-1.31382
0
LINE
8
BLACK
6
CONTINUOUS
10
4.27476
20
-1.31382
11
4.27423
21
-1.31462
0
LINE
8
BLACK
6
CONTINUOUS
10
4.27423
20
-1.31462
11
4.27075
21
-1.3181
0
LINE
8
BLACK
6
CONTINUOUS
10
4.27075
20
-1.3181
11
4.26995
21
-1.31863
0
LINE
8
BLACK
6
CONTINUOUS
10
4.26995
20
-1.31863
11
4.26901
21
-1.31882
0
LINE
8
BLACK
6
CONTINUOUS
10
4.26901
20
-1.31882
11
4.26807
21
-1.31863
0
LINE
8
BLACK
6
CONTINUOUS
10
4.26807
20
-1.31863
11
4.26727
21
-1.3181
0
LINE
8
BLACK
6
CONTINUOUS
10
4.26727
20
-1.3181
11
4.24082
21
-1.29165
0
LINE
8
BLACK
6
CONTINUOUS
10
4.24082
20
-1.29165
11
4.24029
21
-1.29085
0
LINE
8
BLACK
6
CONTINUOUS
10
4.24029
20
-1.29085
11
4.2401
21
-1.28991
0
LINE
8
BLACK
6
CONTINUOUS
10
4.2401
20
-1.28991
11
4.24029
21
-1.28897
0
LINE
8
BLACK
6
CONTINUOUS
10
4.24029
20
-1.28897
11
4.24082
21
-1.28817
0
LINE
8
BLACK
6
CONTINUOUS
10
4.24082
20
-1.28817
11
4.2443
21
-1.28469
0
LINE
8
BLACK
6
CONTINUOUS
10
4.2443
20
-1.28469
11
4.2451
21
-1.28416
0
LINE
8
BLACK
6
CONTINUOUS
10
4.2451
20
-1.28416
11
4.24604
21
-1.28397
0
LINE
8
BLACK
6
CONTINUOUS
10
4.24604
20
-1.28397
11
4.24699
21
-1.28416
0
LINE
8
BLACK
6
CONTINUOUS
10
4.16985
20
-1.28901
11
4.17164
21
-1.29021
0
LINE
8
BLACK
6
CONTINUOUS
10
4.17164
20
-1.29021
11
4.17943
21
-1.298
0
LINE
8
BLACK
6
CONTINUOUS
10
4.17943
20
-1.298
11
4.18063
21
-1.29979
0
LINE
8
BLACK
6
CONTINUOUS
10
4.18063
20
-1.29979
11
4.18105
21
-1.3019
0
LINE
8
BLACK
6
CONTINUOUS
10
4.18105
20
-1.3019
11
4.18063
21
-1.30401
0
LINE
8
BLACK
6
CONTINUOUS
10
4.18063
20
-1.30401
11
4.17943
21
-1.3058
0
LINE
8
BLACK
6
CONTINUOUS
10
4.17943
20
-1.3058
11
4.16997
21
-1.31526
0
LINE
8
BLACK
6
CONTINUOUS
10
4.16997
20
-1.31526
11
4.16818
21
-1.31645
0
LINE
8
BLACK
6
CONTINUOUS
10
4.16818
20
-1.31645
11
4.16607
21
-1.31687
0
LINE
8
BLACK
6
CONTINUOUS
10
4.16607
20
-1.31687
11
4.16396
21
-1.31645
0
LINE
8
BLACK
6
CONTINUOUS
10
4.16396
20
-1.31645
11
4.16217
21
-1.31526
0
LINE
8
BLACK
6
CONTINUOUS
10
4.16217
20
-1.31526
11
4.15438
21
-1.30747
0
LINE
8
BLACK
6
CONTINUOUS
10
4.15438
20
-1.30747
11
4.15318
21
-1.30568
0
LINE
8
BLACK
6
CONTINUOUS
10
4.15318
20
-1.30568
11
4.15276
21
-1.30357
0
LINE
8
BLACK
6
CONTINUOUS
10
4.15276
20
-1.30357
11
4.15318
21
-1.30146
0
LINE
8
BLACK
6
CONTINUOUS
10
4.15318
20
-1.30146
11
4.15438
21
-1.29967
0
LINE
8
BLACK
6
CONTINUOUS
10
4.15438
20
-1.29967
11
4.16384
21
-1.29021
0
LINE
8
BLACK
6
CONTINUOUS
10
4.16384
20
-1.29021
11
4.16563
21
-1.28901
0
LINE
8
BLACK
6
CONTINUOUS
10
4.16563
20
-1.28901
11
4.16774
21
-1.28859
0
LINE
8
BLACK
6
CONTINUOUS
10
4.16774
20
-1.28859
11
4.16985
21
-1.28901
0
LINE
8
BLACK
6
CONTINUOUS
10
4.26091
20
-1.27024
11
4.2617
21
-1.27077
0
LINE
8
BLACK
6
CONTINUOUS
10
4.2617
20
-1.27077
11
4.28815
21
-1.29722
0
LINE
8
BLACK
6
CONTINUOUS
10
4.28815
20
-1.29722
11
4.28868
21
-1.29802
0
LINE
8
BLACK
6
CONTINUOUS
10
4.28868
20
-1.29802
11
4.28887
21
-1.29896
0
LINE
8
BLACK
6
CONTINUOUS
10
4.28887
20
-1.29896
11
4.28868
21
-1.2999
0
LINE
8
BLACK
6
CONTINUOUS
10
4.28868
20
-1.2999
11
4.28815
21
-1.3007
0
LINE
8
BLACK
6
CONTINUOUS
10
4.28815
20
-1.3007
11
4.28467
21
-1.30418
0
LINE
8
BLACK
6
CONTINUOUS
10
4.28467
20
-1.30418
11
4.28387
21
-1.30471
0
LINE
8
BLACK
6
CONTINUOUS
10
4.28387
20
-1.30471
11
4.28293
21
-1.3049
0
LINE
8
BLACK
6
CONTINUOUS
10
4.28293
20
-1.3049
11
4.28199
21
-1.30471
0
LINE
8
BLACK
6
CONTINUOUS
10
4.28199
20
-1.30471
11
4.28119
21
-1.30418
0
LINE
8
BLACK
6
CONTINUOUS
10
4.28119
20
-1.30418
11
4.25474
21
-1.27773
0
LINE
8
BLACK
6
CONTINUOUS
10
4.25474
20
-1.27773
11
4.25421
21
-1.27693
0
LINE
8
BLACK
6
CONTINUOUS
10
4.25421
20
-1.27693
11
4.25402
21
-1.27599
0
LINE
8
BLACK
6
CONTINUOUS
10
4.25402
20
-1.27599
11
4.25421
21
-1.27505
0
LINE
8
BLACK
6
CONTINUOUS
10
4.25421
20
-1.27505
11
4.25474
21
-1.27425
0
LINE
8
BLACK
6
CONTINUOUS
10
4.25474
20
-1.27425
11
4.25822
21
-1.27077
0
LINE
8
BLACK
6
CONTINUOUS
10
4.25822
20
-1.27077
11
4.25902
21
-1.27024
0
LINE
8
BLACK
6
CONTINUOUS
10
4.25902
20
-1.27024
11
4.25996
21
-1.27005
0
LINE
8
BLACK
6
CONTINUOUS
10
4.25996
20
-1.27005
11
4.26091
21
-1.27024
0
LINE
8
BLACK
6
CONTINUOUS
10
4.49754
20
-1.27024
11
4.49833
21
-1.27077
0
LINE
8
BLACK
6
CONTINUOUS
10
4.49833
20
-1.27077
11
4.50181
21
-1.27425
0
LINE
8
BLACK
6
CONTINUOUS
10
4.50181
20
-1.27425
11
4.50235
21
-1.27505
0
LINE
8
BLACK
6
CONTINUOUS
10
4.50235
20
-1.27505
11
4.50253
21
-1.27599
0
LINE
8
BLACK
6
CONTINUOUS
10
4.50253
20
-1.27599
11
4.50235
21
-1.27693
0
LINE
8
BLACK
6
CONTINUOUS
10
4.50235
20
-1.27693
11
4.50181
21
-1.27773
0
LINE
8
BLACK
6
CONTINUOUS
10
4.50181
20
-1.27773
11
4.47537
21
-1.30418
0
LINE
8
BLACK
6
CONTINUOUS
10
4.47537
20
-1.30418
11
4.47457
21
-1.30471
0
LINE
8
BLACK
6
CONTINUOUS
10
4.47457
20
-1.30471
11
4.47363
21
-1.3049
0
LINE
8
BLACK
6
CONTINUOUS
10
4.47363
20
-1.3049
11
4.47269
21
-1.30471
0
LINE
8
BLACK
6
CONTINUOUS
10
4.47269
20
-1.30471
11
4.47189
21
-1.30418
0
LINE
8
BLACK
6
CONTINUOUS
10
4.47189
20
-1.30418
11
4.46841
21
-1.3007
0
LINE
8
BLACK
6
CONTINUOUS
10
4.46841
20
-1.3007
11
4.46787
21
-1.2999
0
LINE
8
BLACK
6
CONTINUOUS
10
4.46787
20
-1.2999
11
4.46769
21
-1.29896
0
LINE
8
BLACK
6
CONTINUOUS
10
4.46769
20
-1.29896
11
4.46787
21
-1.29802
0
LINE
8
BLACK
6
CONTINUOUS
10
4.46787
20
-1.29802
11
4.46841
21
-1.29722
0
LINE
8
BLACK
6
CONTINUOUS
10
4.46841
20
-1.29722
11
4.49485
21
-1.27077
0
LINE
8
BLACK
6
CONTINUOUS
10
4.49485
20
-1.27077
11
4.49565
21
-1.27024
0
LINE
8
BLACK
6
CONTINUOUS
10
4.49565
20
-1.27024
11
4.49659
21
-1.27005
0
LINE
8
BLACK
6
CONTINUOUS
10
4.49659
20
-1.27005
11
4.49754
21
-1.27024
0
LINE
8
BLACK
6
CONTINUOUS
10
4.6415
20
-1.27208
11
4.64329
21
-1.27328
0
LINE
8
BLACK
6
CONTINUOUS
10
4.64329
20
-1.27328
11
4.65109
21
-1.28107
0
LINE
8
BLACK
6
CONTINUOUS
10
4.65109
20
-1.28107
11
4.65228
21
-1.28286
0
LINE
8
BLACK
6
CONTINUOUS
10
4.65228
20
-1.28286
11
4.6527
21
-1.28497
0
LINE
8
BLACK
6
CONTINUOUS
10
4.6527
20
-1.28497
11
4.65228
21
-1.28708
0
LINE
8
BLACK
6
CONTINUOUS
10
4.65228
20
-1.28708
11
4.65109
21
-1.28887
0
LINE
8
BLACK
6
CONTINUOUS
10
4.65109
20
-1.28887
11
4.64162
21
-1.29833
0
LINE
8
BLACK
6
CONTINUOUS
10
4.64162
20
-1.29833
11
4.63983
21
-1.29953
0
LINE
8
BLACK
6
CONTINUOUS
10
4.63983
20
-1.29953
11
4.63772
21
-1.29995
0
LINE
8
BLACK
6
CONTINUOUS
10
4.63772
20
-1.29995
11
4.63562
21
-1.29953
0
LINE
8
BLACK
6
CONTINUOUS
10
4.63562
20
-1.29953
11
4.63383
21
-1.29833
0
LINE
8
BLACK
6
CONTINUOUS
10
4.63383
20
-1.29833
11
4.62603
21
-1.29054
0
LINE
8
BLACK
6
CONTINUOUS
10
4.62603
20
-1.29054
11
4.62484
21
-1.28875
0
LINE
8
BLACK
6
CONTINUOUS
10
4.62484
20
-1.28875
11
4.62442
21
-1.28664
0
LINE
8
BLACK
6
CONTINUOUS
10
4.62442
20
-1.28664
11
4.62484
21
-1.28453
0
LINE
8
BLACK
6
CONTINUOUS
10
4.62484
20
-1.28453
11
4.62603
21
-1.28274
0
LINE
8
BLACK
6
CONTINUOUS
10
4.62603
20
-1.28274
11
4.6355
21
-1.27328
0
LINE
8
BLACK
6
CONTINUOUS
10
4.6355
20
-1.27328
11
4.63729
21
-1.27208
0
LINE
8
BLACK
6
CONTINUOUS
10
4.63729
20
-1.27208
11
4.63939
21
-1.27166
0
LINE
8
BLACK
6
CONTINUOUS
10
4.63939
20
-1.27166
11
4.6415
21
-1.27208
0
LINE
8
BLACK
6
CONTINUOUS
10
4.48362
20
-1.25632
11
4.48441
21
-1.25685
0
LINE
8
BLACK
6
CONTINUOUS
10
4.48441
20
-1.25685
11
4.48789
21
-1.26033
0
LINE
8
BLACK
6
CONTINUOUS
10
4.48789
20
-1.26033
11
4.48843
21
-1.26113
0
LINE
8
BLACK
6
CONTINUOUS
10
4.48843
20
-1.26113
11
4.48861
21
-1.26207
0
LINE
8
BLACK
6
CONTINUOUS
10
4.48861
20
-1.26207
11
4.48843
21
-1.26302
0
LINE
8
BLACK
6
CONTINUOUS
10
4.48843
20
-1.26302
11
4.48789
21
-1.26381
0
LINE
8
BLACK
6
CONTINUOUS
10
4.48789
20
-1.26381
11
4.46145
21
-1.29026
0
LINE
8
BLACK
6
CONTINUOUS
10
4.46145
20
-1.29026
11
4.46065
21
-1.29079
0
LINE
8
BLACK
6
CONTINUOUS
10
4.46065
20
-1.29079
11
4.45971
21
-1.29098
0
LINE
8
BLACK
6
CONTINUOUS
10
4.45971
20
-1.29098
11
4.45877
21
-1.29079
0
LINE
8
BLACK
6
CONTINUOUS
10
4.45877
20
-1.29079
11
4.45797
21
-1.29026
0
LINE
8
BLACK
6
CONTINUOUS
10
4.45797
20
-1.29026
11
4.45449
21
-1.28678
0
LINE
8
BLACK
6
CONTINUOUS
10
4.45449
20
-1.28678
11
4.45395
21
-1.28598
0
LINE
8
BLACK
6
CONTINUOUS
10
4.45395
20
-1.28598
11
4.45377
21
-1.28504
0
LINE
8
BLACK
6
CONTINUOUS
10
4.45377
20
-1.28504
11
4.45395
21
-1.2841
0
LINE
8
BLACK
6
CONTINUOUS
10
4.45395
20
-1.2841
11
4.45449
21
-1.2833
0
LINE
8
BLACK
6
CONTINUOUS
10
4.45449
20
-1.2833
11
4.48093
21
-1.25685
0
LINE
8
BLACK
6
CONTINUOUS
10
4.48093
20
-1.25685
11
4.48173
21
-1.25632
0
LINE
8
BLACK
6
CONTINUOUS
10
4.48173
20
-1.25632
11
4.48267
21
-1.25613
0
LINE
8
BLACK
6
CONTINUOUS
10
4.48267
20
-1.25613
11
4.48362
21
-1.25632
0
LINE
8
BLACK
6
CONTINUOUS
10
4.27482
20
-1.25632
11
4.27562
21
-1.25685
0
LINE
8
BLACK
6
CONTINUOUS
10
4.27562
20
-1.25685
11
4.30207
21
-1.2833
0
LINE
8
BLACK
6
CONTINUOUS
10
4.30207
20
-1.2833
11
4.3026
21
-1.2841
0
LINE
8
BLACK
6
CONTINUOUS
10
4.3026
20
-1.2841
11
4.30279
21
-1.28504
0
LINE
8
BLACK
6
CONTINUOUS
10
4.30279
20
-1.28504
11
4.3026
21
-1.28598
0
LINE
8
BLACK
6
CONTINUOUS
10
4.3026
20
-1.28598
11
4.30207
21
-1.28678
0
LINE
8
BLACK
6
CONTINUOUS
10
4.30207
20
-1.28678
11
4.29859
21
-1.29026
0
LINE
8
BLACK
6
CONTINUOUS
10
4.29859
20
-1.29026
11
4.29779
21
-1.29079
0
LINE
8
BLACK
6
CONTINUOUS
10
4.29779
20
-1.29079
11
4.29685
21
-1.29098
0
LINE
8
BLACK
6
CONTINUOUS
10
4.29685
20
-1.29098
11
4.29591
21
-1.29079
0
LINE
8
BLACK
6
CONTINUOUS
10
4.29591
20
-1.29079
11
4.29511
21
-1.29026
0
LINE
8
BLACK
6
CONTINUOUS
10
4.29511
20
-1.29026
11
4.26866
21
-1.26381
0
LINE
8
BLACK
6
CONTINUOUS
10
4.26866
20
-1.26381
11
4.26813
21
-1.26302
0
LINE
8
BLACK
6
CONTINUOUS
10
4.26813
20
-1.26302
11
4.26794
21
-1.26207
0
LINE
8
BLACK
6
CONTINUOUS
10
4.26794
20
-1.26207
11
4.26813
21
-1.26113
0
LINE
8
BLACK
6
CONTINUOUS
10
4.26813
20
-1.26113
11
4.26866
21
-1.26033
0
LINE
8
BLACK
6
CONTINUOUS
10
4.26866
20
-1.26033
11
4.27214
21
-1.25685
0
LINE
8
BLACK
6
CONTINUOUS
10
4.27214
20
-1.25685
11
4.27294
21
-1.25632
0
LINE
8
BLACK
6
CONTINUOUS
10
4.27294
20
-1.25632
11
4.27388
21
-1.25613
0
LINE
8
BLACK
6
CONTINUOUS
10
4.27388
20
-1.25613
11
4.27482
21
-1.25632
0
LINE
8
BLACK
6
CONTINUOUS
10
4.14313
20
-1.26229
11
4.14491
21
-1.26348
0
LINE
8
BLACK
6
CONTINUOUS
10
4.14491
20
-1.26348
11
4.15271
21
-1.27127
0
LINE
8
BLACK
6
CONTINUOUS
10
4.15271
20
-1.27127
11
4.1539
21
-1.27306
0
LINE
8
BLACK
6
CONTINUOUS
10
4.1539
20
-1.27306
11
4.15432
21
-1.27517
0
LINE
8
BLACK
6
CONTINUOUS
10
4.15432
20
-1.27517
11
4.1539
21
-1.27728
0
LINE
8
BLACK
6
CONTINUOUS
10
4.1539
20
-1.27728
11
4.15271
21
-1.27907
0
LINE
8
BLACK
6
CONTINUOUS
10
4.15271
20
-1.27907
11
4.14324
21
-1.28853
0
LINE
8
BLACK
6
CONTINUOUS
10
4.14324
20
-1.28853
11
4.14145
21
-1.28973
0
LINE
8
BLACK
6
CONTINUOUS
10
4.14145
20
-1.28973
11
4.13935
21
-1.29015
0
LINE
8
BLACK
6
CONTINUOUS
10
4.13935
20
-1.29015
11
4.13724
21
-1.28973
0
LINE
8
BLACK
6
CONTINUOUS
10
4.13724
20
-1.28973
11
4.13545
21
-1.28853
0
LINE
8
BLACK
6
CONTINUOUS
10
4.13545
20
-1.28853
11
4.12765
21
-1.28074
0
LINE
8
BLACK
6
CONTINUOUS
10
4.12765
20
-1.28074
11
4.12646
21
-1.27895
0
LINE
8
BLACK
6
CONTINUOUS
10
4.12646
20
-1.27895
11
4.12604
21
-1.27684
0
LINE
8
BLACK
6
CONTINUOUS
10
4.12604
20
-1.27684
11
4.12646
21
-1.27473
0
LINE
8
BLACK
6
CONTINUOUS
10
4.12646
20
-1.27473
11
4.12765
21
-1.27295
0
LINE
8
BLACK
6
CONTINUOUS
10
4.12765
20
-1.27295
11
4.13712
21
-1.26348
0
LINE
8
BLACK
6
CONTINUOUS
10
4.13712
20
-1.26348
11
4.13891
21
-1.26229
0
LINE
8
BLACK
6
CONTINUOUS
10
4.13891
20
-1.26229
11
4.14102
21
-1.26187
0
LINE
8
BLACK
6
CONTINUOUS
10
4.14102
20
-1.26187
11
4.14313
21
-1.26229
0
LINE
8
BLACK
6
CONTINUOUS
10
4.38205
20
-1.23349
11
4.38524
21
-1.23563
0
LINE
8
BLACK
6
CONTINUOUS
10
4.38524
20
-1.23563
11
4.40055
21
-1.25094
0
LINE
8
BLACK
6
CONTINUOUS
10
4.40055
20
-1.25094
11
4.40268
21
-1.25413
0
LINE
8
BLACK
6
CONTINUOUS
10
4.40268
20
-1.25413
11
4.40343
21
-1.2579
0
LINE
8
BLACK
6
CONTINUOUS
10
4.40343
20
-1.2579
11
4.40268
21
-1.26166
0
LINE
8
BLACK
6
CONTINUOUS
10
4.40268
20
-1.26166
11
4.40055
21
-1.26486
0
LINE
8
BLACK
6
CONTINUOUS
10
4.40055
20
-1.26486
11
4.38524
21
-1.28017
0
LINE
8
BLACK
6
CONTINUOUS
10
4.38524
20
-1.28017
11
4.38205
21
-1.2823
0
LINE
8
BLACK
6
CONTINUOUS
10
4.38205
20
-1.2823
11
4.37828
21
-1.28305
0
LINE
8
BLACK
6
CONTINUOUS
10
4.37828
20
-1.28305
11
4.37451
21
-1.2823
0
LINE
8
BLACK
6
CONTINUOUS
10
4.37451
20
-1.2823
11
4.37132
21
-1.28017
0
LINE
8
BLACK
6
CONTINUOUS
10
4.37132
20
-1.28017
11
4.35601
21
-1.26486
0
LINE
8
BLACK
6
CONTINUOUS
10
4.35601
20
-1.26486
11
4.35387
21
-1.26166
0
LINE
8
BLACK
6
CONTINUOUS
10
4.35387
20
-1.26166
11
4.35312
21
-1.2579
0
LINE
8
BLACK
6
CONTINUOUS
10
4.35312
20
-1.2579
11
4.35387
21
-1.25413
0
LINE
8
BLACK
6
CONTINUOUS
10
4.35387
20
-1.25413
11
4.35601
21
-1.25094
0
LINE
8
BLACK
6
CONTINUOUS
10
4.35601
20
-1.25094
11
4.37132
21
-1.23563
0
LINE
8
BLACK
6
CONTINUOUS
10
4.37132
20
-1.23563
11
4.37451
21
-1.23349
0
LINE
8
BLACK
6
CONTINUOUS
10
4.37451
20
-1.23349
11
4.37828
21
-1.23274
0
LINE
8
BLACK
6
CONTINUOUS
10
4.37828
20
-1.23274
11
4.38205
21
-1.23349
0
LINE
8
BLACK
6
CONTINUOUS
10
4.28874
20
-1.2424
11
4.28954
21
-1.24293
0
LINE
8
BLACK
6
CONTINUOUS
10
4.28954
20
-1.24293
11
4.31599
21
-1.26938
0
LINE
8
BLACK
6
CONTINUOUS
10
4.31599
20
-1.26938
11
4.31652
21
-1.27018
0
LINE
8
BLACK
6
CONTINUOUS
10
4.31652
20
-1.27018
11
4.31671
21
-1.27112
0
LINE
8
BLACK
6
CONTINUOUS
10
4.31671
20
-1.27112
11
4.31652
21
-1.27206
0
LINE
8
BLACK
6
CONTINUOUS
10
4.31652
20
-1.27206
11
4.31599
21
-1.27286
0
LINE
8
BLACK
6
CONTINUOUS
10
4.31599
20
-1.27286
11
4.31251
21
-1.27634
0
LINE
8
BLACK
6
CONTINUOUS
10
4.31251
20
-1.27634
11
4.31171
21
-1.27687
0
LINE
8
BLACK
6
CONTINUOUS
10
4.31171
20
-1.27687
11
4.31077
21
-1.27706
0
LINE
8
BLACK
6
CONTINUOUS
10
4.31077
20
-1.27706
11
4.30983
21
-1.27687
0
LINE
8
BLACK
6
CONTINUOUS
10
4.30983
20
-1.27687
11
4.30903
21
-1.27634
0
LINE
8
BLACK
6
CONTINUOUS
10
4.30903
20
-1.27634
11
4.28258
21
-1.24989
0
LINE
8
BLACK
6
CONTINUOUS
10
4.28258
20
-1.24989
11
4.28205
21
-1.2491
0
LINE
8
BLACK
6
CONTINUOUS
10
4.28205
20
-1.2491
11
4.28186
21
-1.24815
0
LINE
8
BLACK
6
CONTINUOUS
10
4.28186
20
-1.24815
11
4.28205
21
-1.24721
0
LINE
8
BLACK
6
CONTINUOUS
10
4.28205
20
-1.24721
11
4.28258
21
-1.24641
0
LINE
8
BLACK
6
CONTINUOUS
10
4.28258
20
-1.24641
11
4.28606
21
-1.24293
0
LINE
8
BLACK
6
CONTINUOUS
10
4.28606
20
-1.24293
11
4.28686
21
-1.2424
0
LINE
8
BLACK
6
CONTINUOUS
10
4.28686
20
-1.2424
11
4.2878
21
-1.24221
0
LINE
8
BLACK
6
CONTINUOUS
10
4.2878
20
-1.24221
11
4.28874
21
-1.2424
0
LINE
8
BLACK
6
CONTINUOUS
10
4.4697
20
-1.2424
11
4.47049
21
-1.24293
0
LINE
8
BLACK
6
CONTINUOUS
10
4.47049
20
-1.24293
11
4.47397
21
-1.24641
0
LINE
8
BLACK
6
CONTINUOUS
10
4.47397
20
-1.24641
11
4.47451
21
-1.24721
0
LINE
8
BLACK
6
CONTINUOUS
10
4.47451
20
-1.24721
11
4.4747
21
-1.24815
0
LINE
8
BLACK
6
CONTINUOUS
10
4.4747
20
-1.24815
11
4.47451
21
-1.2491
0
LINE
8
BLACK
6
CONTINUOUS
10
4.47451
20
-1.2491
11
4.47397
21
-1.24989
0
LINE
8
BLACK
6
CONTINUOUS
10
4.47397
20
-1.24989
11
4.44753
21
-1.27634
0
LINE
8
BLACK
6
CONTINUOUS
10
4.44753
20
-1.27634
11
4.44673
21
-1.27687
0
LINE
8
BLACK
6
CONTINUOUS
10
4.44673
20
-1.27687
11
4.44579
21
-1.27706
0
LINE
8
BLACK
6
CONTINUOUS
10
4.44579
20
-1.27706
11
4.44485
21
-1.27687
0
LINE
8
BLACK
6
CONTINUOUS
10
4.44485
20
-1.27687
11
4.44405
21
-1.27634
0
LINE
8
BLACK
6
CONTINUOUS
10
4.44405
20
-1.27634
11
4.44057
21
-1.27286
0
LINE
8
BLACK
6
CONTINUOUS
10
4.44057
20
-1.27286
11
4.44003
21
-1.27206
0
LINE
8
BLACK
6
CONTINUOUS
10
4.44003
20
-1.27206
11
4.43985
21
-1.27112
0
LINE
8
BLACK
6
CONTINUOUS
10
4.43985
20
-1.27112
11
4.44003
21
-1.27018
0
LINE
8
BLACK
6
CONTINUOUS
10
4.44003
20
-1.27018
11
4.44057
21
-1.26938
0
LINE
8
BLACK
6
CONTINUOUS
10
4.44057
20
-1.26938
11
4.46702
21
-1.24293
0
LINE
8
BLACK
6
CONTINUOUS
10
4.46702
20
-1.24293
11
4.46781
21
-1.2424
0
LINE
8
BLACK
6
CONTINUOUS
10
4.46781
20
-1.2424
11
4.46876
21
-1.24221
0
LINE
8
BLACK
6
CONTINUOUS
10
4.46876
20
-1.24221
11
4.4697
21
-1.2424
0
LINE
8
BLACK
6
CONTINUOUS
10
4.61478
20
-1.24536
11
4.61657
21
-1.24655
0
LINE
8
BLACK
6
CONTINUOUS
10
4.61657
20
-1.24655
11
4.62436
21
-1.25435
0
LINE
8
BLACK
6
CONTINUOUS
10
4.62436
20
-1.25435
11
4.62556
21
-1.25613
0
LINE
8
BLACK
6
CONTINUOUS
10
4.62556
20
-1.25613
11
4.62598
21
-1.25824
0
LINE
8
BLACK
6
CONTINUOUS
10
4.62598
20
-1.25824
11
4.62556
21
-1.26035
0
LINE
8
BLACK
6
CONTINUOUS
10
4.62556
20
-1.26035
11
4.62436
21
-1.26214
0
LINE
8
BLACK
6
CONTINUOUS
10
4.62436
20
-1.26214
11
4.6149
21
-1.27161
0
LINE
8
BLACK
6
CONTINUOUS
10
4.6149
20
-1.27161
11
4.61311
21
-1.2728
0
LINE
8
BLACK
6
CONTINUOUS
10
4.61311
20
-1.2728
11
4.611
21
-1.27322
0
LINE
8
BLACK
6
CONTINUOUS
10
4.611
20
-1.27322
11
4.60889
21
-1.2728
0
LINE
8
BLACK
6
CONTINUOUS
10
4.60889
20
-1.2728
11
4.6071
21
-1.27161
0
LINE
8
BLACK
6
CONTINUOUS
10
4.6071
20
-1.27161
11
4.59931
21
-1.26381
0
LINE
8
BLACK
6
CONTINUOUS
10
4.59931
20
-1.26381
11
4.59811
21
-1.26202
0
LINE
8
BLACK
6
CONTINUOUS
10
4.59811
20
-1.26202
11
4.59769
21
-1.25991
0
LINE
8
BLACK
6
CONTINUOUS
10
4.59769
20
-1.25991
11
4.59811
21
-1.2578
0
LINE
8
BLACK
6
CONTINUOUS
10
4.59811
20
-1.2578
11
4.59931
21
-1.25602
0
LINE
8
BLACK
6
CONTINUOUS
10
4.59931
20
-1.25602
11
4.60877
21
-1.24655
0
LINE
8
BLACK
6
CONTINUOUS
10
4.60877
20
-1.24655
11
4.61056
21
-1.24536
0
LINE
8
BLACK
6
CONTINUOUS
10
4.61056
20
-1.24536
11
4.61267
21
-1.24494
0
LINE
8
BLACK
6
CONTINUOUS
10
4.61267
20
-1.24494
11
4.61478
21
-1.24536
0
LINE
8
BLACK
6
CONTINUOUS
10
4.45578
20
-1.22848
11
4.45658
21
-1.22901
0
LINE
8
BLACK
6
CONTINUOUS
10
4.45658
20
-1.22901
11
4.46006
21
-1.23249
0
LINE
8
BLACK
6
CONTINUOUS
10
4.46006
20
-1.23249
11
4.46059
21
-1.23329
0
LINE
8
BLACK
6
CONTINUOUS
10
4.46059
20
-1.23329
11
4.46078
21
-1.23423
0
LINE
8
BLACK
6
CONTINUOUS
10
4.46078
20
-1.23423
11
4.46059
21
-1.23518
0
LINE
8
BLACK
6
CONTINUOUS
10
4.46059
20
-1.23518
11
4.46006
21
-1.23597
0
LINE
8
BLACK
6
CONTINUOUS
10
4.46006
20
-1.23597
11
4.43361
21
-1.26242
0
LINE
8
BLACK
6
CONTINUOUS
10
4.43361
20
-1.26242
11
4.43281
21
-1.26295
0
LINE
8
BLACK
6
CONTINUOUS
10
4.43281
20
-1.26295
11
4.43187
21
-1.26314
0
LINE
8
BLACK
6
CONTINUOUS
10
4.43187
20
-1.26314
11
4.43093
21
-1.26295
0
LINE
8
BLACK
6
CONTINUOUS
10
4.43093
20
-1.26295
11
4.43013
21
-1.26242
0
LINE
8
BLACK
6
CONTINUOUS
10
4.43013
20
-1.26242
11
4.42665
21
-1.25894
0
LINE
8
BLACK
6
CONTINUOUS
10
4.42665
20
-1.25894
11
4.42612
21
-1.25814
0
LINE
8
BLACK
6
CONTINUOUS
10
4.42612
20
-1.25814
11
4.42593
21
-1.2572
0
LINE
8
BLACK
6
CONTINUOUS
10
4.42593
20
-1.2572
11
4.42612
21
-1.25626
0
LINE
8
BLACK
6
CONTINUOUS
10
4.42612
20
-1.25626
11
4.42665
21
-1.25546
0
LINE
8
BLACK
6
CONTINUOUS
10
4.42665
20
-1.25546
11
4.4531
21
-1.22901
0
LINE
8
BLACK
6
CONTINUOUS
10
4.4531
20
-1.22901
11
4.45389
21
-1.22848
0
LINE
8
BLACK
6
CONTINUOUS
10
4.45389
20
-1.22848
11
4.45484
21
-1.22829
0
LINE
8
BLACK
6
CONTINUOUS
10
4.45484
20
-1.22829
11
4.45578
21
-1.22848
0
LINE
8
BLACK
6
CONTINUOUS
10
4.30266
20
-1.22848
11
4.30346
21
-1.22901
0
LINE
8
BLACK
6
CONTINUOUS
10
4.30346
20
-1.22901
11
4.32991
21
-1.25546
0
LINE
8
BLACK
6
CONTINUOUS
10
4.32991
20
-1.25546
11
4.33044
21
-1.25626
0
LINE
8
BLACK
6
CONTINUOUS
10
4.33044
20
-1.25626
11
4.33063
21
-1.2572
0
LINE
8
BLACK
6
CONTINUOUS
10
4.33063
20
-1.2572
11
4.33044
21
-1.25814
0
LINE
8
BLACK
6
CONTINUOUS
10
4.33044
20
-1.25814
11
4.32991
21
-1.25894
0
LINE
8
BLACK
6
CONTINUOUS
10
4.32991
20
-1.25894
11
4.32643
21
-1.26242
0
LINE
8
BLACK
6
CONTINUOUS
10
4.32643
20
-1.26242
11
4.32563
21
-1.26295
0
LINE
8
BLACK
6
CONTINUOUS
10
4.32563
20
-1.26295
11
4.32469
21
-1.26314
0
LINE
8
BLACK
6
CONTINUOUS
10
4.32469
20
-1.26314
11
4.32375
21
-1.26295
0
LINE
8
BLACK
6
CONTINUOUS
10
4.32375
20
-1.26295
11
4.32295
21
-1.26242
0
LINE
8
BLACK
6
CONTINUOUS
10
4.32295
20
-1.26242
11
4.2965
21
-1.23597
0
LINE
8
BLACK
6
CONTINUOUS
10
4.2965
20
-1.23597
11
4.29597
21
-1.23518
0
LINE
8
BLACK
6
CONTINUOUS
10
4.29597
20
-1.23518
11
4.29578
21
-1.23423
0
LINE
8
BLACK
6
CONTINUOUS
10
4.29578
20
-1.23423
11
4.29597
21
-1.23329
0
LINE
8
BLACK
6
CONTINUOUS
10
4.29597
20
-1.23329
11
4.2965
21
-1.23249
0
LINE
8
BLACK
6
CONTINUOUS
10
4.2965
20
-1.23249
11
4.29998
21
-1.22901
0
LINE
8
BLACK
6
CONTINUOUS
10
4.29998
20
-1.22901
11
4.30078
21
-1.22848
0
LINE
8
BLACK
6
CONTINUOUS
10
4.30078
20
-1.22848
11
4.30172
21
-1.22829
0
LINE
8
BLACK
6
CONTINUOUS
10
4.30172
20
-1.22829
11
4.30266
21
-1.22848
0
LINE
8
BLACK
6
CONTINUOUS
10
4.44186
20
-1.21456
11
4.44266
21
-1.2151
0
LINE
8
BLACK
6
CONTINUOUS
10
4.44266
20
-1.2151
11
4.44614
21
-1.21858
0
LINE
8
BLACK
6
CONTINUOUS
10
4.44614
20
-1.21858
11
4.44667
21
-1.21937
0
LINE
8
BLACK
6
CONTINUOUS
10
4.44667
20
-1.21937
11
4.44686
21
-1.22032
0
LINE
8
BLACK
6
CONTINUOUS
10
4.44686
20
-1.22032
11
4.44667
21
-1.22126
0
LINE
8
BLACK
6
CONTINUOUS
10
4.44667
20
-1.22126
11
4.44614
21
-1.22206
0
LINE
8
BLACK
6
CONTINUOUS
10
4.44614
20
-1.22206
11
4.41969
21
-1.2485
0
LINE
8
BLACK
6
CONTINUOUS
10
4.41969
20
-1.2485
11
4.41889
21
-1.24904
0
LINE
8
BLACK
6
CONTINUOUS
10
4.41889
20
-1.24904
11
4.41795
21
-1.24922
0
LINE
8
BLACK
6
CONTINUOUS
10
4.41795
20
-1.24922
11
4.41701
21
-1.24904
0
LINE
8
BLACK
6
CONTINUOUS
10
4.41701
20
-1.24904
11
4.41621
21
-1.2485
0
LINE
8
BLACK
6
CONTINUOUS
10
4.41621
20
-1.2485
11
4.41273
21
-1.24502
0
LINE
8
BLACK
6
CONTINUOUS
10
4.41273
20
-1.24502
11
4.4122
21
-1.24422
0
LINE
8
BLACK
6
CONTINUOUS
10
4.4122
20
-1.24422
11
4.41201
21
-1.24328
0
LINE
8
BLACK
6
CONTINUOUS
10
4.41201
20
-1.24328
11
4.4122
21
-1.24234
0
LINE
8
BLACK
6
CONTINUOUS
10
4.4122
20
-1.24234
11
4.41273
21
-1.24154
0
LINE
8
BLACK
6
CONTINUOUS
10
4.41273
20
-1.24154
11
4.43918
21
-1.2151
0
LINE
8
BLACK
6
CONTINUOUS
10
4.43918
20
-1.2151
11
4.43997
21
-1.21456
0
LINE
8
BLACK
6
CONTINUOUS
10
4.43997
20
-1.21456
11
4.44092
21
-1.21437
0
LINE
8
BLACK
6
CONTINUOUS
10
4.44092
20
-1.21437
11
4.44186
21
-1.21456
0
LINE
8
BLACK
6
CONTINUOUS
10
4.31658
20
-1.21456
11
4.31738
21
-1.2151
0
LINE
8
BLACK
6
CONTINUOUS
10
4.31738
20
-1.2151
11
4.34383
21
-1.24154
0
LINE
8
BLACK
6
CONTINUOUS
10
4.34383
20
-1.24154
11
4.34436
21
-1.24234
0
LINE
8
BLACK
6
CONTINUOUS
10
4.34436
20
-1.24234
11
4.34455
21
-1.24328
0
LINE
8
BLACK
6
CONTINUOUS
10
4.34455
20
-1.24328
11
4.34436
21
-1.24422
0
LINE
8
BLACK
6
CONTINUOUS
10
4.34436
20
-1.24422
11
4.34383
21
-1.24502
0
LINE
8
BLACK
6
CONTINUOUS
10
4.34383
20
-1.24502
11
4.34035
21
-1.2485
0
LINE
8
BLACK
6
CONTINUOUS
10
4.34035
20
-1.2485
11
4.33955
21
-1.24904
0
LINE
8
BLACK
6
CONTINUOUS
10
4.33955
20
-1.24904
11
4.33861
21
-1.24922
0
LINE
8
BLACK
6
CONTINUOUS
10
4.33861
20
-1.24922
11
4.33767
21
-1.24904
0
LINE
8
BLACK
6
CONTINUOUS
10
4.33767
20
-1.24904
11
4.33687
21
-1.2485
0
LINE
8
BLACK
6
CONTINUOUS
10
4.33687
20
-1.2485
11
4.31042
21
-1.22206
0
LINE
8
BLACK
6
CONTINUOUS
10
4.31042
20
-1.22206
11
4.30989
21
-1.22126
0
LINE
8
BLACK
6
CONTINUOUS
10
4.30989
20
-1.22126
11
4.3097
21
-1.22032
0
LINE
8
BLACK
6
CONTINUOUS
10
4.3097
20
-1.22032
11
4.30989
21
-1.21937
0
LINE
8
BLACK
6
CONTINUOUS
10
4.30989
20
-1.21937
11
4.31042
21
-1.21858
0
LINE
8
BLACK
6
CONTINUOUS
10
4.31042
20
-1.21858
11
4.3139
21
-1.2151
0
LINE
8
BLACK
6
CONTINUOUS
10
4.3139
20
-1.2151
11
4.3147
21
-1.21456
0
LINE
8
BLACK
6
CONTINUOUS
10
4.3147
20
-1.21456
11
4.31564
21
-1.21437
0
LINE
8
BLACK
6
CONTINUOUS
10
4.31564
20
-1.21437
11
4.31658
21
-1.21456
0
LINE
8
BLACK
6
CONTINUOUS
10
4.42794
20
-1.20064
11
4.42874
21
-1.20118
0
LINE
8
BLACK
6
CONTINUOUS
10
4.42874
20
-1.20118
11
4.43222
21
-1.20466
0
LINE
8
BLACK
6
CONTINUOUS
10
4.43222
20
-1.20466
11
4.43275
21
-1.20545
0
LINE
8
BLACK
6
CONTINUOUS
10
4.43275
20
-1.20545
11
4.43294
21
-1.2064
0
LINE
8
BLACK
6
CONTINUOUS
10
4.43294
20
-1.2064
11
4.43275
21
-1.20734
0
LINE
8
BLACK
6
CONTINUOUS
10
4.43275
20
-1.20734
11
4.43222
21
-1.20814
0
LINE
8
BLACK
6
CONTINUOUS
10
4.43222
20
-1.20814
11
4.40577
21
-1.23458
0
LINE
8
BLACK
6
CONTINUOUS
10
4.40577
20
-1.23458
11
4.40497
21
-1.23512
0
LINE
8
BLACK
6
CONTINUOUS
10
4.40497
20
-1.23512
11
4.40403
21
-1.2353
0
LINE
8
BLACK
6
CONTINUOUS
10
4.40403
20
-1.2353
11
4.40309
21
-1.23512
0
LINE
8
BLACK
6
CONTINUOUS
10
4.40309
20
-1.23512
11
4.40229
21
-1.23458
0
LINE
8
BLACK
6
CONTINUOUS
10
4.40229
20
-1.23458
11
4.39881
21
-1.2311
0
LINE
8
BLACK
6
CONTINUOUS
10
4.39881
20
-1.2311
11
4.39828
21
-1.2303
0
LINE
8
BLACK
6
CONTINUOUS
10
4.39828
20
-1.2303
11
4.39809
21
-1.22936
0
LINE
8
BLACK
6
CONTINUOUS
10
4.39809
20
-1.22936
11
4.39828
21
-1.22842
0
LINE
8
BLACK
6
CONTINUOUS
10
4.39828
20
-1.22842
11
4.39881
21
-1.22762
0
LINE
8
BLACK
6
CONTINUOUS
10
4.39881
20
-1.22762
11
4.42526
21
-1.20118
0
LINE
8
BLACK
6
CONTINUOUS
10
4.42526
20
-1.20118
11
4.42606
21
-1.20064
0
LINE
8
BLACK
6
CONTINUOUS
10
4.42606
20
-1.20064
11
4.427
21
-1.20046
0
LINE
8
BLACK
6
CONTINUOUS
10
4.427
20
-1.20046
11
4.42794
21
-1.20064
0
LINE
8
BLACK
6
CONTINUOUS
10
4.3305
20
-1.20064
11
4.3313
21
-1.20118
0
LINE
8
BLACK
6
CONTINUOUS
10
4.3313
20
-1.20118
11
4.35775
21
-1.22762
0
LINE
8
BLACK
6
CONTINUOUS
10
4.35775
20
-1.22762
11
4.35828
21
-1.22842
0
LINE
8
BLACK
6
CONTINUOUS
10
4.35828
20
-1.22842
11
4.35847
21
-1.22936
0
LINE
8
BLACK
6
CONTINUOUS
10
4.35847
20
-1.22936
11
4.35828
21
-1.2303
0
LINE
8
BLACK
6
CONTINUOUS
10
4.35828
20
-1.2303
11
4.35775
21
-1.2311
0
LINE
8
BLACK
6
CONTINUOUS
10
4.35775
20
-1.2311
11
4.35427
21
-1.23458
0
LINE
8
BLACK
6
CONTINUOUS
10
4.35427
20
-1.23458
11
4.35347
21
-1.23512
0
LINE
8
BLACK
6
CONTINUOUS
10
4.35347
20
-1.23512
11
4.35253
21
-1.2353
0
LINE
8
BLACK
6
CONTINUOUS
10
4.35253
20
-1.2353
11
4.35159
21
-1.23512
0
LINE
8
BLACK
6
CONTINUOUS
10
4.35159
20
-1.23512
11
4.35079
21
-1.23458
0
LINE
8
BLACK
6
CONTINUOUS
10
4.35079
20
-1.23458
11
4.32434
21
-1.20814
0
LINE
8
BLACK
6
CONTINUOUS
10
4.32434
20
-1.20814
11
4.32381
21
-1.20734
0
LINE
8
BLACK
6
CONTINUOUS
10
4.32381
20
-1.20734
11
4.32362
21
-1.2064
0
LINE
8
BLACK
6
CONTINUOUS
10
4.32362
20
-1.2064
11
4.32381
21
-1.20545
0
LINE
8
BLACK
6
CONTINUOUS
10
4.32381
20
-1.20545
11
4.32434
21
-1.20466
0
LINE
8
BLACK
6
CONTINUOUS
10
4.32434
20
-1.20466
11
4.32782
21
-1.20118
0
LINE
8
BLACK
6
CONTINUOUS
10
4.32782
20
-1.20118
11
4.32862
21
-1.20064
0
LINE
8
BLACK
6
CONTINUOUS
10
4.32862
20
-1.20064
11
4.32956
21
-1.20046
0
LINE
8
BLACK
6
CONTINUOUS
10
4.32956
20
-1.20046
11
4.3305
21
-1.20064
0
LINE
8
BLACK
6
CONTINUOUS
10
4.41402
20
-1.18672
11
4.41482
21
-1.18726
0
LINE
8
BLACK
6
CONTINUOUS
10
4.41482
20
-1.18726
11
4.4183
21
-1.19074
0
LINE
8
BLACK
6
CONTINUOUS
10
4.4183
20
-1.19074
11
4.41883
21
-1.19153
0
LINE
8
BLACK
6
CONTINUOUS
10
4.41883
20
-1.19153
11
4.41902
21
-1.19248
0
LINE
8
BLACK
6
CONTINUOUS
10
4.41902
20
-1.19248
11
4.41883
21
-1.19342
0
LINE
8
BLACK
6
CONTINUOUS
10
4.41883
20
-1.19342
11
4.4183
21
-1.19422
0
LINE
8
BLACK
6
CONTINUOUS
10
4.4183
20
-1.19422
11
4.39185
21
-1.22066
0
LINE
8
BLACK
6
CONTINUOUS
10
4.39185
20
-1.22066
11
4.39105
21
-1.2212
0
LINE
8
BLACK
6
CONTINUOUS
10
4.39105
20
-1.2212
11
4.39011
21
-1.22138
0
LINE
8
BLACK
6
CONTINUOUS
10
4.39011
20
-1.22138
11
4.38917
21
-1.2212
0
LINE
8
BLACK
6
CONTINUOUS
10
4.38917
20
-1.2212
11
4.38837
21
-1.22066
0
LINE
8
BLACK
6
CONTINUOUS
10
4.38837
20
-1.22066
11
4.38489
21
-1.21718
0
LINE
8
BLACK
6
CONTINUOUS
10
4.38489
20
-1.21718
11
4.38436
21
-1.21639
0
LINE
8
BLACK
6
CONTINUOUS
10
4.38436
20
-1.21639
11
4.38417
21
-1.21544
0
LINE
8
BLACK
6
CONTINUOUS
10
4.38417
20
-1.21544
11
4.38436
21
-1.2145
0
LINE
8
BLACK
6
CONTINUOUS
10
4.38436
20
-1.2145
11
4.38489
21
-1.2137
0
LINE
8
BLACK
6
CONTINUOUS
10
4.38489
20
-1.2137
11
4.41134
21
-1.18726
0
LINE
8
BLACK
6
CONTINUOUS
10
4.41134
20
-1.18726
11
4.41214
21
-1.18672
0
LINE
8
BLACK
6
CONTINUOUS
10
4.41214
20
-1.18672
11
4.41308
21
-1.18654
0
LINE
8
BLACK
6
CONTINUOUS
10
4.41308
20
-1.18654
11
4.41402
21
-1.18672
0
LINE
8
BLACK
6
CONTINUOUS
10
4.34442
20
-1.18672
11
4.34522
21
-1.18726
0
LINE
8
BLACK
6
CONTINUOUS
10
4.34522
20
-1.18726
11
4.37167
21
-1.2137
0
LINE
8
BLACK
6
CONTINUOUS
10
4.37167
20
-1.2137
11
4.3722
21
-1.2145
0
LINE
8
BLACK
6
CONTINUOUS
10
4.3722
20
-1.2145
11
4.37239
21
-1.21544
0
LINE
8
BLACK
6
CONTINUOUS
10
4.37239
20
-1.21544
11
4.3722
21
-1.21639
0
LINE
8
BLACK
6
CONTINUOUS
10
4.3722
20
-1.21639
11
4.37167
21
-1.21718
0
LINE
8
BLACK
6
CONTINUOUS
10
4.37167
20
-1.21718
11
4.36819
21
-1.22066
0
LINE
8
BLACK
6
CONTINUOUS
10
4.36819
20
-1.22066
11
4.36739
21
-1.2212
0
LINE
8
BLACK
6
CONTINUOUS
10
4.36739
20
-1.2212
11
4.36645
21
-1.22138
0
LINE
8
BLACK
6
CONTINUOUS
10
4.36645
20
-1.22138
11
4.36551
21
-1.2212
0
LINE
8
BLACK
6
CONTINUOUS
10
4.36551
20
-1.2212
11
4.36471
21
-1.22066
0
LINE
8
BLACK
6
CONTINUOUS
10
4.36471
20
-1.22066
11
4.33826
21
-1.19422
0
LINE
8
BLACK
6
CONTINUOUS
10
4.33826
20
-1.19422
11
4.33773
21
-1.19342
0
LINE
8
BLACK
6
CONTINUOUS
10
4.33773
20
-1.19342
11
4.33754
21
-1.19248
0
LINE
8
BLACK
6
CONTINUOUS
10
4.33754
20
-1.19248
11
4.33773
21
-1.19153
0
LINE
8
BLACK
6
CONTINUOUS
10
4.33773
20
-1.19153
11
4.33826
21
-1.19074
0
LINE
8
BLACK
6
CONTINUOUS
10
4.33826
20
-1.19074
11
4.34174
21
-1.18726
0
LINE
8
BLACK
6
CONTINUOUS
10
4.34174
20
-1.18726
11
4.34254
21
-1.18672
0
LINE
8
BLACK
6
CONTINUOUS
10
4.34254
20
-1.18672
11
4.34348
21
-1.18654
0
LINE
8
BLACK
6
CONTINUOUS
10
4.34348
20
-1.18654
11
4.34442
21
-1.18672
0
LINE
8
BLACK
6
CONTINUOUS
10
8.79724
20
-1.20571
11
8.69488
21
-1.20571
0
LINE
8
BLACK
6
CONTINUOUS
10
8.69488
20
-1.20571
11
8.69488
21
-1.10335
0
LINE
8
BLACK
6
CONTINUOUS
10
8.69488
20
-1.10335
11
8.79724
21
-1.10335
0
LINE
8
BLACK
6
CONTINUOUS
10
8.79724
20
-1.10335
11
8.79724
21
-1.20571
0
LINE
8
BLACK
6
CONTINUOUS
10
4.1122
20
-1.20571
11
4.00984
21
-1.20571
0
LINE
8
BLACK
6
CONTINUOUS
10
4.00984
20
-1.20571
11
4.00984
21
-1.10335
0
LINE
8
BLACK
6
CONTINUOUS
10
4.00984
20
-1.10335
11
4.1122
21
-1.10335
0
LINE
8
BLACK
6
CONTINUOUS
10
4.1122
20
-1.10335
11
4.1122
21
-1.20571
0
LINE
8
BLACK
6
CONTINUOUS
10
4.78149
20
-1.20571
11
4.67913
21
-1.20571
0
LINE
8
BLACK
6
CONTINUOUS
10
4.67913
20
-1.20571
11
4.67913
21
-1.10335
0
LINE
8
BLACK
6
CONTINUOUS
10
4.67913
20
-1.10335
11
4.78149
21
-1.10335
0
LINE
8
BLACK
6
CONTINUOUS
10
4.78149
20
-1.10335
11
4.78149
21
-1.20571
0
LINE
8
BLACK
6
CONTINUOUS
10
6.12008
20
-1.20571
11
6.01771
21
-1.20571
0
LINE
8
BLACK
6
CONTINUOUS
10
6.01771
20
-1.20571
11
6.01771
21
-1.10335
0
LINE
8
BLACK
6
CONTINUOUS
10
6.01771
20
-1.10335
11
6.12008
21
-1.10335
0
LINE
8
BLACK
6
CONTINUOUS
10
6.12008
20
-1.10335
11
6.12008
21
-1.20571
0
LINE
8
BLACK
6
CONTINUOUS
10
7.45866
20
-1.20571
11
7.3563
21
-1.20571
0
LINE
8
BLACK
6
CONTINUOUS
10
7.3563
20
-1.20571
11
7.3563
21
-1.10335
0
LINE
8
BLACK
6
CONTINUOUS
10
7.3563
20
-1.10335
11
7.45866
21
-1.10335
0
LINE
8
BLACK
6
CONTINUOUS
10
7.45866
20
-1.10335
11
7.45866
21
-1.20571
0
LINE
8
BLACK
6
CONTINUOUS
10
9.46653
20
-1.20571
11
9.36417
21
-1.20571
0
LINE
8
BLACK
6
CONTINUOUS
10
9.36417
20
-1.20571
11
9.36417
21
-1.10335
0
LINE
8
BLACK
6
CONTINUOUS
10
9.36417
20
-1.10335
11
9.46653
21
-1.10335
0
LINE
8
BLACK
6
CONTINUOUS
10
9.46653
20
-1.10335
11
9.46653
21
-1.20571
0
LINE
8
BLACK
6
CONTINUOUS
10
6.78937
20
-1.20571
11
6.687
21
-1.20571
0
LINE
8
BLACK
6
CONTINUOUS
10
6.687
20
-1.20571
11
6.687
21
-1.10335
0
LINE
8
BLACK
6
CONTINUOUS
10
6.687
20
-1.10335
11
6.78937
21
-1.10335
0
LINE
8
BLACK
6
CONTINUOUS
10
6.78937
20
-1.10335
11
6.78937
21
-1.20571
0
LINE
8
BLACK
6
CONTINUOUS
10
5.45078
20
-1.20571
11
5.34842
21
-1.20571
0
LINE
8
BLACK
6
CONTINUOUS
10
5.34842
20
-1.20571
11
5.34842
21
-1.10335
0
LINE
8
BLACK
6
CONTINUOUS
10
5.34842
20
-1.10335
11
5.45078
21
-1.10335
0
LINE
8
BLACK
6
CONTINUOUS
10
5.45078
20
-1.10335
11
5.45078
21
-1.20571
0
LINE
8
BLACK
6
CONTINUOUS
10
8.12795
20
-1.20571
11
8.02559
21
-1.20571
0
LINE
8
BLACK
6
CONTINUOUS
10
8.02559
20
-1.20571
11
8.02559
21
-1.10335
0
LINE
8
BLACK
6
CONTINUOUS
10
8.02559
20
-1.10335
11
8.12795
21
-1.10335
0
LINE
8
BLACK
6
CONTINUOUS
10
8.12795
20
-1.10335
11
8.12795
21
-1.20571
0
LINE
8
BLACK
6
CONTINUOUS
10
4.29303
20
-1.17582
11
4.29482
21
-1.17702
0
LINE
8
BLACK
6
CONTINUOUS
10
4.29482
20
-1.17702
11
4.30428
21
-1.18648
0
LINE
8
BLACK
6
CONTINUOUS
10
4.30428
20
-1.18648
11
4.30548
21
-1.18827
0
LINE
8
BLACK
6
CONTINUOUS
10
4.30548
20
-1.18827
11
4.3059
21
-1.19038
0
LINE
8
BLACK
6
CONTINUOUS
10
4.3059
20
-1.19038
11
4.30548
21
-1.19249
0
LINE
8
BLACK
6
CONTINUOUS
10
4.30548
20
-1.19249
11
4.30428
21
-1.19428
0
LINE
8
BLACK
6
CONTINUOUS
10
4.30428
20
-1.19428
11
4.29649
21
-1.20207
0
LINE
8
BLACK
6
CONTINUOUS
10
4.29649
20
-1.20207
11
4.2947
21
-1.20327
0
LINE
8
BLACK
6
CONTINUOUS
10
4.2947
20
-1.20327
11
4.29259
21
-1.20369
0
LINE
8
BLACK
6
CONTINUOUS
10
4.29259
20
-1.20369
11
4.29048
21
-1.20327
0
LINE
8
BLACK
6
CONTINUOUS
10
4.29048
20
-1.20327
11
4.28869
21
-1.20207
0
LINE
8
BLACK
6
CONTINUOUS
10
4.28869
20
-1.20207
11
4.27923
21
-1.19261
0
LINE
8
BLACK
6
CONTINUOUS
10
4.27923
20
-1.19261
11
4.27803
21
-1.19082
0
LINE
8
BLACK
6
CONTINUOUS
10
4.27803
20
-1.19082
11
4.27761
21
-1.18871
0
LINE
8
BLACK
6
CONTINUOUS
10
4.27761
20
-1.18871
11
4.27803
21
-1.1866
0
LINE
8
BLACK
6
CONTINUOUS
10
4.27803
20
-1.1866
11
4.27923
21
-1.18481
0
LINE
8
BLACK
6
CONTINUOUS
10
4.27923
20
-1.18481
11
4.28702
21
-1.17702
0
LINE
8
BLACK
6
CONTINUOUS
10
4.28702
20
-1.17702
11
4.28881
21
-1.17582
0
LINE
8
BLACK
6
CONTINUOUS
10
4.28881
20
-1.17582
11
4.29092
21
-1.1754
0
LINE
8
BLACK
6
CONTINUOUS
10
4.29092
20
-1.1754
11
4.29303
21
-1.17582
0
LINE
8
BLACK
6
CONTINUOUS
10
4.31975
20
-1.1491
11
4.32154
21
-1.15029
0
LINE
8
BLACK
6
CONTINUOUS
10
4.32154
20
-1.15029
11
4.33101
21
-1.15976
0
LINE
8
BLACK
6
CONTINUOUS
10
4.33101
20
-1.15976
11
4.3322
21
-1.16154
0
LINE
8
BLACK
6
CONTINUOUS
10
4.3322
20
-1.16154
11
4.33262
21
-1.16365
0
LINE
8
BLACK
6
CONTINUOUS
10
4.33262
20
-1.16365
11
4.3322
21
-1.16576
0
LINE
8
BLACK
6
CONTINUOUS
10
4.3322
20
-1.16576
11
4.33101
21
-1.16755
0
LINE
8
BLACK
6
CONTINUOUS
10
4.33101
20
-1.16755
11
4.32321
21
-1.17535
0
LINE
8
BLACK
6
CONTINUOUS
10
4.32321
20
-1.17535
11
4.32143
21
-1.17654
0
LINE
8
BLACK
6
CONTINUOUS
10
4.32143
20
-1.17654
11
4.31932
21
-1.17696
0
LINE
8
BLACK
6
CONTINUOUS
10
4.31932
20
-1.17696
11
4.31721
21
-1.17654
0
LINE
8
BLACK
6
CONTINUOUS
10
4.31721
20
-1.17654
11
4.31542
21
-1.17535
0
LINE
8
BLACK
6
CONTINUOUS
10
4.31542
20
-1.17535
11
4.30595
21
-1.16588
0
LINE
8
BLACK
6
CONTINUOUS
10
4.30595
20
-1.16588
11
4.30476
21
-1.16409
0
LINE
8
BLACK
6
CONTINUOUS
10
4.30476
20
-1.16409
11
4.30434
21
-1.16198
0
LINE
8
BLACK
6
CONTINUOUS
10
4.30434
20
-1.16198
11
4.30476
21
-1.15987
0
LINE
8
BLACK
6
CONTINUOUS
10
4.30476
20
-1.15987
11
4.30595
21
-1.15809
0
LINE
8
BLACK
6
CONTINUOUS
10
4.30595
20
-1.15809
11
4.31375
21
-1.15029
0
LINE
8
BLACK
6
CONTINUOUS
10
4.31375
20
-1.15029
11
4.31554
21
-1.1491
0
LINE
8
BLACK
6
CONTINUOUS
10
4.31554
20
-1.1491
11
4.31765
21
-1.14868
0
LINE
8
BLACK
6
CONTINUOUS
10
4.31765
20
-1.14868
11
4.31975
21
-1.1491
0
LINE
8
BLACK
6
CONTINUOUS
10
7.5105
20
-1.16863
11
7.49278
21
-1.16863
0
LINE
8
BLACK
6
CONTINUOUS
10
7.49278
20
-1.16863
11
7.49278
21
-1.14501
0
LINE
8
BLACK
6
CONTINUOUS
10
7.49278
20
-1.14501
11
7.5105
21
-1.14501
0
LINE
8
BLACK
6
CONTINUOUS
10
7.5105
20
-1.14501
11
7.5105
21
-1.16863
0
LINE
8
BLACK
6
CONTINUOUS
10
4.16404
20
-1.16863
11
4.14632
21
-1.16863
0
LINE
8
BLACK
6
CONTINUOUS
10
4.14632
20
-1.16863
11
4.14632
21
-1.14501
0
LINE
8
BLACK
6
CONTINUOUS
10
4.14632
20
-1.14501
11
4.16404
21
-1.14501
0
LINE
8
BLACK
6
CONTINUOUS
10
4.16404
20
-1.14501
11
4.16404
21
-1.16863
0
LINE
8
BLACK
6
CONTINUOUS
10
3.49475
20
-1.16863
11
3.47703
21
-1.16863
0
LINE
8
BLACK
6
CONTINUOUS
10
3.47703
20
-1.16863
11
3.47703
21
-1.14501
0
LINE
8
BLACK
6
CONTINUOUS
10
3.47703
20
-1.14501
11
3.49475
21
-1.14501
0
LINE
8
BLACK
6
CONTINUOUS
10
3.49475
20
-1.14501
11
3.49475
21
-1.16863
0
LINE
8
BLACK
6
CONTINUOUS
10
4.83333
20
-1.16863
11
4.81561
21
-1.16863
0
LINE
8
BLACK
6
CONTINUOUS
10
4.81561
20
-1.16863
11
4.81561
21
-1.14501
0
LINE
8
BLACK
6
CONTINUOUS
10
4.81561
20
-1.14501
11
4.83333
21
-1.14501
0
LINE
8
BLACK
6
CONTINUOUS
10
4.83333
20
-1.14501
11
4.83333
21
-1.16863
0
LINE
8
BLACK
6
CONTINUOUS
10
8.84908
20
-1.16863
11
8.83136
21
-1.16863
0
LINE
8
BLACK
6
CONTINUOUS
10
8.83136
20
-1.16863
11
8.83136
21
-1.14501
0
LINE
8
BLACK
6
CONTINUOUS
10
8.83136
20
-1.14501
11
8.84908
21
-1.14501
0
LINE
8
BLACK
6
CONTINUOUS
10
8.84908
20
-1.14501
11
8.84908
21
-1.16863
0
LINE
8
BLACK
6
CONTINUOUS
10
5.50262
20
-1.16863
11
5.48491
21
-1.16863
0
LINE
8
BLACK
6
CONTINUOUS
10
5.48491
20
-1.16863
11
5.48491
21
-1.14501
0
LINE
8
BLACK
6
CONTINUOUS
10
5.48491
20
-1.14501
11
5.50262
21
-1.14501
0
LINE
8
BLACK
6
CONTINUOUS
10
5.50262
20
-1.14501
11
5.50262
21
-1.16863
0
LINE
8
BLACK
6
CONTINUOUS
10
9.51837
20
-1.16863
11
9.50065
21
-1.16863
0
LINE
8
BLACK
6
CONTINUOUS
10
9.50065
20
-1.16863
11
9.50065
21
-1.14501
0
LINE
8
BLACK
6
CONTINUOUS
10
9.50065
20
-1.14501
11
9.51837
21
-1.14501
0
LINE
8
BLACK
6
CONTINUOUS
10
9.51837
20
-1.14501
11
9.51837
21
-1.16863
0
LINE
8
BLACK
6
CONTINUOUS
10
8.17979
20
-1.16863
11
8.16207
21
-1.16863
0
LINE
8
BLACK
6
CONTINUOUS
10
8.16207
20
-1.16863
11
8.16207
21
-1.14501
0
LINE
8
BLACK
6
CONTINUOUS
10
8.16207
20
-1.14501
11
8.17979
21
-1.14501
0
LINE
8
BLACK
6
CONTINUOUS
10
8.17979
20
-1.14501
11
8.17979
21
-1.16863
0
LINE
8
BLACK
6
CONTINUOUS
10
6.8412
20
-1.16863
11
6.82349
21
-1.16863
0
LINE
8
BLACK
6
CONTINUOUS
10
6.82349
20
-1.16863
11
6.82349
21
-1.14501
0
LINE
8
BLACK
6
CONTINUOUS
10
6.82349
20
-1.14501
11
6.8412
21
-1.14501
0
LINE
8
BLACK
6
CONTINUOUS
10
6.8412
20
-1.14501
11
6.8412
21
-1.16863
0
LINE
8
BLACK
6
CONTINUOUS
10
6.17191
20
-1.16863
11
6.1542
21
-1.16863
0
LINE
8
BLACK
6
CONTINUOUS
10
6.1542
20
-1.16863
11
6.1542
21
-1.14501
0
LINE
8
BLACK
6
CONTINUOUS
10
6.1542
20
-1.14501
11
6.17191
21
-1.14501
0
LINE
8
BLACK
6
CONTINUOUS
10
6.17191
20
-1.14501
11
6.17191
21
-1.16863
0
LINE
8
BLACK
6
CONTINUOUS
10
4.99606
20
-1.11909
11
4.8937
21
-1.11909
0
LINE
8
BLACK
6
CONTINUOUS
10
4.8937
20
-1.11909
11
4.8937
21
-1.01673
0
LINE
8
BLACK
6
CONTINUOUS
10
4.8937
20
-1.01673
11
4.99606
21
-1.01673
0
LINE
8
BLACK
6
CONTINUOUS
10
4.99606
20
-1.01673
11
4.99606
21
-1.11909
0
LINE
8
BLACK
6
CONTINUOUS
10
6.33464
20
-1.11909
11
6.23228
21
-1.11909
0
LINE
8
BLACK
6
CONTINUOUS
10
6.23228
20
-1.11909
11
6.23228
21
-1.01673
0
LINE
8
BLACK
6
CONTINUOUS
10
6.23228
20
-1.01673
11
6.33464
21
-1.01673
0
LINE
8
BLACK
6
CONTINUOUS
10
6.33464
20
-1.01673
11
6.33464
21
-1.11909
0
LINE
8
BLACK
6
CONTINUOUS
10
7.67322
20
-1.11909
11
7.57086
21
-1.11909
0
LINE
8
BLACK
6
CONTINUOUS
10
7.57086
20
-1.11909
11
7.57086
21
-1.01673
0
LINE
8
BLACK
6
CONTINUOUS
10
7.57086
20
-1.01673
11
7.67322
21
-1.01673
0
LINE
8
BLACK
6
CONTINUOUS
10
7.67322
20
-1.01673
11
7.67322
21
-1.11909
0
LINE
8
BLACK
6
CONTINUOUS
10
9.01181
20
-1.11909
11
8.90944
21
-1.11909
0
LINE
8
BLACK
6
CONTINUOUS
10
8.90944
20
-1.11909
11
8.90944
21
-1.01673
0
LINE
8
BLACK
6
CONTINUOUS
10
8.90944
20
-1.01673
11
9.01181
21
-1.01673
0
LINE
8
BLACK
6
CONTINUOUS
10
9.01181
20
-1.01673
11
9.01181
21
-1.11909
0
LINE
8
BLACK
6
CONTINUOUS
10
3.65748
20
-1.11909
11
3.55512
21
-1.11909
0
LINE
8
BLACK
6
CONTINUOUS
10
3.55512
20
-1.11909
11
3.55512
21
-1.01673
0
LINE
8
BLACK
6
CONTINUOUS
10
3.55512
20
-1.01673
11
3.65748
21
-1.01673
0
LINE
8
BLACK
6
CONTINUOUS
10
3.65748
20
-1.01673
11
3.65748
21
-1.11909
0
LINE
8
BLACK
6
CONTINUOUS
10
7.00393
20
-1.11909
11
6.90157
21
-1.11909
0
LINE
8
BLACK
6
CONTINUOUS
10
6.90157
20
-1.11909
11
6.90157
21
-1.01673
0
LINE
8
BLACK
6
CONTINUOUS
10
6.90157
20
-1.01673
11
7.00393
21
-1.01673
0
LINE
8
BLACK
6
CONTINUOUS
10
7.00393
20
-1.01673
11
7.00393
21
-1.11909
0
LINE
8
BLACK
6
CONTINUOUS
10
8.34252
20
-1.11909
11
8.24015
21
-1.11909
0
LINE
8
BLACK
6
CONTINUOUS
10
8.24015
20
-1.11909
11
8.24015
21
-1.01673
0
LINE
8
BLACK
6
CONTINUOUS
10
8.24015
20
-1.01673
11
8.34252
21
-1.01673
0
LINE
8
BLACK
6
CONTINUOUS
10
8.34252
20
-1.01673
11
8.34252
21
-1.11909
0
LINE
8
BLACK
6
CONTINUOUS
10
4.32677
20
-1.11909
11
4.22441
21
-1.11909
0
LINE
8
BLACK
6
CONTINUOUS
10
4.22441
20
-1.11909
11
4.22441
21
-1.01673
0
LINE
8
BLACK
6
CONTINUOUS
10
4.22441
20
-1.01673
11
4.32677
21
-1.01673
0
LINE
8
BLACK
6
CONTINUOUS
10
4.32677
20
-1.01673
11
4.32677
21
-1.11909
0
LINE
8
BLACK
6
CONTINUOUS
10
5.66535
20
-1.11909
11
5.56299
21
-1.11909
0
LINE
8
BLACK
6
CONTINUOUS
10
5.56299
20
-1.11909
11
5.56299
21
-1.01673
0
LINE
8
BLACK
6
CONTINUOUS
10
5.56299
20
-1.01673
11
5.66535
21
-1.01673
0
LINE
8
BLACK
6
CONTINUOUS
10
5.66535
20
-1.01673
11
5.66535
21
-1.11909
0
LINE
8
BLACK
6
CONTINUOUS
10
3.49475
20
-1.08596
11
3.47703
21
-1.08596
0
LINE
8
BLACK
6
CONTINUOUS
10
3.47703
20
-1.08596
11
3.47703
21
-1.06234
0
LINE
8
BLACK
6
CONTINUOUS
10
3.47703
20
-1.06234
11
3.49475
21
-1.06234
0
LINE
8
BLACK
6
CONTINUOUS
10
3.49475
20
-1.06234
11
3.49475
21
-1.08596
0
LINE
8
BLACK
6
CONTINUOUS
10
4.16404
20
-1.08596
11
4.14632
21
-1.08596
0
LINE
8
BLACK
6
CONTINUOUS
10
4.14632
20
-1.08596
11
4.14632
21
-1.06234
0
LINE
8
BLACK
6
CONTINUOUS
10
4.14632
20
-1.06234
11
4.16404
21
-1.06234
0
LINE
8
BLACK
6
CONTINUOUS
10
4.16404
20
-1.06234
11
4.16404
21
-1.08596
0
LINE
8
BLACK
6
CONTINUOUS
10
8.84908
20
-1.08596
11
8.83136
21
-1.08596
0
LINE
8
BLACK
6
CONTINUOUS
10
8.83136
20
-1.08596
11
8.83136
21
-1.06234
0
LINE
8
BLACK
6
CONTINUOUS
10
8.83136
20
-1.06234
11
8.84908
21
-1.06234
0
LINE
8
BLACK
6
CONTINUOUS
10
8.84908
20
-1.06234
11
8.84908
21
-1.08596
0
LINE
8
BLACK
6
CONTINUOUS
10
4.83333
20
-1.08596
11
4.81561
21
-1.08596
0
LINE
8
BLACK
6
CONTINUOUS
10
4.81561
20
-1.08596
11
4.81561
21
-1.06234
0
LINE
8
BLACK
6
CONTINUOUS
10
4.81561
20
-1.06234
11
4.83333
21
-1.06234
0
LINE
8
BLACK
6
CONTINUOUS
10
4.83333
20
-1.06234
11
4.83333
21
-1.08596
0
LINE
8
BLACK
6
CONTINUOUS
10
5.50262
20
-1.08596
11
5.48491
21
-1.08596
0
LINE
8
BLACK
6
CONTINUOUS
10
5.48491
20
-1.08596
11
5.48491
21
-1.06234
0
LINE
8
BLACK
6
CONTINUOUS
10
5.48491
20
-1.06234
11
5.50262
21
-1.06234
0
LINE
8
BLACK
6
CONTINUOUS
10
5.50262
20
-1.06234
11
5.50262
21
-1.08596
0
LINE
8
BLACK
6
CONTINUOUS
10
7.5105
20
-1.08596
11
7.49278
21
-1.08596
0
LINE
8
BLACK
6
CONTINUOUS
10
7.49278
20
-1.08596
11
7.49278
21
-1.06234
0
LINE
8
BLACK
6
CONTINUOUS
10
7.49278
20
-1.06234
11
7.5105
21
-1.06234
0
LINE
8
BLACK
6
CONTINUOUS
10
7.5105
20
-1.06234
11
7.5105
21
-1.08596
0
LINE
8
BLACK
6
CONTINUOUS
10
6.8412
20
-1.08596
11
6.82349
21
-1.08596
0
LINE
8
BLACK
6
CONTINUOUS
10
6.82349
20
-1.08596
11
6.82349
21
-1.06234
0
LINE
8
BLACK
6
CONTINUOUS
10
6.82349
20
-1.06234
11
6.8412
21
-1.06234
0
LINE
8
BLACK
6
CONTINUOUS
10
6.8412
20
-1.06234
11
6.8412
21
-1.08596
0
LINE
8
BLACK
6
CONTINUOUS
10
6.17191
20
-1.08596
11
6.1542
21
-1.08596
0
LINE
8
BLACK
6
CONTINUOUS
10
6.1542
20
-1.08596
11
6.1542
21
-1.06234
0
LINE
8
BLACK
6
CONTINUOUS
10
6.1542
20
-1.06234
11
6.17191
21
-1.06234
0
LINE
8
BLACK
6
CONTINUOUS
10
6.17191
20
-1.06234
11
6.17191
21
-1.08596
0
LINE
8
BLACK
6
CONTINUOUS
10
9.51837
20
-1.08596
11
9.50065
21
-1.08596
0
LINE
8
BLACK
6
CONTINUOUS
10
9.50065
20
-1.08596
11
9.50065
21
-1.06234
0
LINE
8
BLACK
6
CONTINUOUS
10
9.50065
20
-1.06234
11
9.51837
21
-1.06234
0
LINE
8
BLACK
6
CONTINUOUS
10
9.51837
20
-1.06234
11
9.51837
21
-1.08596
0
LINE
8
BLACK
6
CONTINUOUS
10
8.17979
20
-1.08596
11
8.16207
21
-1.08596
0
LINE
8
BLACK
6
CONTINUOUS
10
8.16207
20
-1.08596
11
8.16207
21
-1.06234
0
LINE
8
BLACK
6
CONTINUOUS
10
8.16207
20
-1.06234
11
8.17979
21
-1.06234
0
LINE
8
BLACK
6
CONTINUOUS
10
8.17979
20
-1.06234
11
8.17979
21
-1.08596
0
LINE
8
BLACK
6
CONTINUOUS
10
4.08349
20
-0.976143
11
4.08668
21
-0.978276
0
LINE
8
BLACK
6
CONTINUOUS
10
4.08668
20
-0.978276
11
4.08882
21
-0.98147
0
LINE
8
BLACK
6
CONTINUOUS
10
4.08882
20
-0.98147
11
4.08957
21
-0.985236
0
LINE
8
BLACK
6
CONTINUOUS
10
4.08957
20
-0.985236
11
4.08957
21
-1.01476
0
LINE
8
BLACK
6
CONTINUOUS
10
4.08957
20
-1.01476
11
4.08882
21
-1.01853
0
LINE
8
BLACK
6
CONTINUOUS
10
4.08882
20
-1.01853
11
4.08668
21
-1.02172
0
LINE
8
BLACK
6
CONTINUOUS
10
4.08668
20
-1.02172
11
4.08349
21
-1.02386
0
LINE
8
BLACK
6
CONTINUOUS
10
4.08349
20
-1.02386
11
4.07972
21
-1.02461
0
LINE
8
BLACK
6
CONTINUOUS
10
4.07972
20
-1.02461
11
4.03051
21
-1.02461
0
LINE
8
BLACK
6
CONTINUOUS
10
4.03051
20
-1.02461
11
4.02675
21
-1.02386
0
LINE
8
BLACK
6
CONTINUOUS
10
4.02675
20
-1.02386
11
4.02355
21
-1.02172
0
LINE
8
BLACK
6
CONTINUOUS
10
4.02355
20
-1.02172
11
4.02142
21
-1.01853
0
LINE
8
BLACK
6
CONTINUOUS
10
4.02142
20
-1.01853
11
4.02067
21
-1.01476
0
LINE
8
BLACK
6
CONTINUOUS
10
4.02067
20
-1.01476
11
4.02067
21
-0.985236
0
LINE
8
BLACK
6
CONTINUOUS
10
4.02067
20
-0.985236
11
4.02142
21
-0.98147
0
LINE
8
BLACK
6
CONTINUOUS
10
4.02142
20
-0.98147
11
4.02355
21
-0.978276
0
LINE
8
BLACK
6
CONTINUOUS
10
4.02355
20
-0.978276
11
4.02675
21
-0.976143
0
LINE
8
BLACK
6
CONTINUOUS
10
4.02675
20
-0.976143
11
4.03051
21
-0.975394
0
LINE
8
BLACK
6
CONTINUOUS
10
4.03051
20
-0.975394
11
4.07972
21
-0.975394
0
LINE
8
BLACK
6
CONTINUOUS
10
4.07972
20
-0.975394
11
4.08349
21
-0.976143
0
LINE
8
BLACK
6
CONTINUOUS
10
4.50735
20
-0.944893
11
4.50907
21
-0.946045
0
LINE
8
BLACK
6
CONTINUOUS
10
4.50907
20
-0.946045
11
4.51023
21
-0.947769
0
LINE
8
BLACK
6
CONTINUOUS
10
4.51023
20
-0.947769
11
4.51063
21
-0.949803
0
LINE
8
BLACK
6
CONTINUOUS
10
4.51063
20
-0.949803
11
4.51063
21
-0.960433
0
LINE
8
BLACK
6
CONTINUOUS
10
4.51063
20
-0.960433
11
4.51023
21
-0.962467
0
LINE
8
BLACK
6
CONTINUOUS
10
4.51023
20
-0.962467
11
4.50907
21
-0.964191
0
LINE
8
BLACK
6
CONTINUOUS
10
4.50907
20
-0.964191
11
4.50735
21
-0.965343
0
LINE
8
BLACK
6
CONTINUOUS
10
4.50735
20
-0.965343
11
4.50531
21
-0.965748
0
LINE
8
BLACK
6
CONTINUOUS
10
4.50531
20
-0.965748
11
4.49075
21
-0.965748
0
LINE
8
BLACK
6
CONTINUOUS
10
4.49075
20
-0.965748
11
4.48871
21
-0.965343
0
LINE
8
BLACK
6
CONTINUOUS
10
4.48871
20
-0.965343
11
4.48699
21
-0.964191
0
LINE
8
BLACK
6
CONTINUOUS
10
4.48699
20
-0.964191
11
4.48584
21
-0.962467
0
LINE
8
BLACK
6
CONTINUOUS
10
4.48584
20
-0.962467
11
4.48543
21
-0.960433
0
LINE
8
BLACK
6
CONTINUOUS
10
4.48543
20
-0.960433
11
4.48543
21
-0.949803
0
LINE
8
BLACK
6
CONTINUOUS
10
4.48543
20
-0.949803
11
4.48584
21
-0.947769
0
LINE
8
BLACK
6
CONTINUOUS
10
4.48584
20
-0.947769
11
4.48699
21
-0.946045
0
LINE
8
BLACK
6
CONTINUOUS
10
4.48699
20
-0.946045
11
4.48871
21
-0.944893
0
LINE
8
BLACK
6
CONTINUOUS
10
4.48871
20
-0.944893
11
4.49075
21
-0.944488
0
LINE
8
BLACK
6
CONTINUOUS
10
4.49075
20
-0.944488
11
4.50531
21
-0.944488
0
LINE
8
BLACK
6
CONTINUOUS
10
4.50531
20
-0.944488
11
4.50735
21
-0.944893
0
LINE
8
BLACK
6
CONTINUOUS
10
4.45814
20
-0.944893
11
4.45986
21
-0.946045
0
LINE
8
BLACK
6
CONTINUOUS
10
4.45986
20
-0.946045
11
4.46101
21
-0.947769
0
LINE
8
BLACK
6
CONTINUOUS
10
4.46101
20
-0.947769
11
4.46142
21
-0.949803
0
LINE
8
BLACK
6
CONTINUOUS
10
4.46142
20
-0.949803
11
4.46142
21
-0.960433
0
LINE
8
BLACK
6
CONTINUOUS
10
4.46142
20
-0.960433
11
4.46101
21
-0.962467
0
LINE
8
BLACK
6
CONTINUOUS
10
4.46101
20
-0.962467
11
4.45986
21
-0.964191
0
LINE
8
BLACK
6
CONTINUOUS
10
4.45986
20
-0.964191
11
4.45814
21
-0.965343
0
LINE
8
BLACK
6
CONTINUOUS
10
4.45814
20
-0.965343
11
4.4561
21
-0.965748
0
LINE
8
BLACK
6
CONTINUOUS
10
4.4561
20
-0.965748
11
4.44154
21
-0.965748
0
LINE
8
BLACK
6
CONTINUOUS
10
4.44154
20
-0.965748
11
4.4395
21
-0.965343
0
LINE
8
BLACK
6
CONTINUOUS
10
4.4395
20
-0.965343
11
4.43778
21
-0.964191
0
LINE
8
BLACK
6
CONTINUOUS
10
4.43778
20
-0.964191
11
4.43663
21
-0.962467
0
LINE
8
BLACK
6
CONTINUOUS
10
4.43663
20
-0.962467
11
4.43622
21
-0.960433
0
LINE
8
BLACK
6
CONTINUOUS
10
4.43622
20
-0.960433
11
4.43622
21
-0.949803
0
LINE
8
BLACK
6
CONTINUOUS
10
4.43622
20
-0.949803
11
4.43663
21
-0.947769
0
LINE
8
BLACK
6
CONTINUOUS
10
4.43663
20
-0.947769
11
4.43778
21
-0.946045
0
LINE
8
BLACK
6
CONTINUOUS
10
4.43778
20
-0.946045
11
4.4395
21
-0.944893
0
LINE
8
BLACK
6
CONTINUOUS
10
4.4395
20
-0.944893
11
4.44154
21
-0.944488
0
LINE
8
BLACK
6
CONTINUOUS
10
4.44154
20
-0.944488
11
4.4561
21
-0.944488
0
LINE
8
BLACK
6
CONTINUOUS
10
4.4561
20
-0.944488
11
4.45814
21
-0.944893
0
LINE
8
BLACK
6
CONTINUOUS
10
4.25144
20
-0.914971
11
4.25317
21
-0.916124
0
LINE
8
BLACK
6
CONTINUOUS
10
4.25317
20
-0.916124
11
4.25432
21
-0.917848
0
LINE
8
BLACK
6
CONTINUOUS
10
4.25432
20
-0.917848
11
4.25472
21
-0.919882
0
LINE
8
BLACK
6
CONTINUOUS
10
4.25472
20
-0.919882
11
4.25472
21
-0.930512
0
LINE
8
BLACK
6
CONTINUOUS
10
4.25472
20
-0.930512
11
4.25432
21
-0.932546
0
LINE
8
BLACK
6
CONTINUOUS
10
4.25432
20
-0.932546
11
4.25317
21
-0.93427
0
LINE
8
BLACK
6
CONTINUOUS
10
4.25317
20
-0.93427
11
4.25144
21
-0.935422
0
LINE
8
BLACK
6
CONTINUOUS
10
4.25144
20
-0.935422
11
4.24941
21
-0.935827
0
LINE
8
BLACK
6
CONTINUOUS
10
4.24941
20
-0.935827
11
4.23484
21
-0.935827
0
LINE
8
BLACK
6
CONTINUOUS
10
4.23484
20
-0.935827
11
4.23281
21
-0.935422
0
LINE
8
BLACK
6
CONTINUOUS
10
4.23281
20
-0.935422
11
4.23108
21
-0.93427
0
LINE
8
BLACK
6
CONTINUOUS
10
4.23108
20
-0.93427
11
4.22993
21
-0.932546
0
LINE
8
BLACK
6
CONTINUOUS
10
4.22993
20
-0.932546
11
4.22953
21
-0.930512
0
LINE
8
BLACK
6
CONTINUOUS
10
4.22953
20
-0.930512
11
4.22953
21
-0.919882
0
LINE
8
BLACK
6
CONTINUOUS
10
4.22953
20
-0.919882
11
4.22993
21
-0.917848
0
LINE
8
BLACK
6
CONTINUOUS
10
4.22993
20
-0.917848
11
4.23108
21
-0.916124
0
LINE
8
BLACK
6
CONTINUOUS
10
4.23108
20
-0.916124
11
4.23281
21
-0.914971
0
LINE
8
BLACK
6
CONTINUOUS
10
4.23281
20
-0.914971
11
4.23484
21
-0.914567
0
LINE
8
BLACK
6
CONTINUOUS
10
4.23484
20
-0.914567
11
4.24941
21
-0.914567
0
LINE
8
BLACK
6
CONTINUOUS
10
4.24941
20
-0.914567
11
4.25144
21
-0.914971
0
LINE
8
BLACK
6
CONTINUOUS
10
4.50735
20
-0.904735
11
4.50907
21
-0.905887
0
LINE
8
BLACK
6
CONTINUOUS
10
4.50907
20
-0.905887
11
4.51023
21
-0.907612
0
LINE
8
BLACK
6
CONTINUOUS
10
4.51023
20
-0.907612
11
4.51063
21
-0.909646
0
LINE
8
BLACK
6
CONTINUOUS
10
4.51063
20
-0.909646
11
4.51063
21
-0.920276
0
LINE
8
BLACK
6
CONTINUOUS
10
4.51063
20
-0.920276
11
4.51023
21
-0.92231
0
LINE
8
BLACK
6
CONTINUOUS
10
4.51023
20
-0.92231
11
4.50907
21
-0.924034
0
LINE
8
BLACK
6
CONTINUOUS
10
4.50907
20
-0.924034
11
4.50735
21
-0.925186
0
LINE
8
BLACK
6
CONTINUOUS
10
4.50735
20
-0.925186
11
4.50531
21
-0.925591
0
LINE
8
BLACK
6
CONTINUOUS
10
4.50531
20
-0.925591
11
4.49075
21
-0.925591
0
LINE
8
BLACK
6
CONTINUOUS
10
4.49075
20
-0.925591
11
4.48871
21
-0.925186
0
LINE
8
BLACK
6
CONTINUOUS
10
4.48871
20
-0.925186
11
4.48699
21
-0.924034
0
LINE
8
BLACK
6
CONTINUOUS
10
4.48699
20
-0.924034
11
4.48584
21
-0.92231
0
LINE
8
BLACK
6
CONTINUOUS
10
4.48584
20
-0.92231
11
4.48543
21
-0.920276
0
LINE
8
BLACK
6
CONTINUOUS
10
4.48543
20
-0.920276
11
4.48543
21
-0.909646
0
LINE
8
BLACK
6
CONTINUOUS
10
4.48543
20
-0.909646
11
4.48584
21
-0.907612
0
LINE
8
BLACK
6
CONTINUOUS
10
4.48584
20
-0.907612
11
4.48699
21
-0.905887
0
LINE
8
BLACK
6
CONTINUOUS
10
4.48699
20
-0.905887
11
4.48871
21
-0.904735
0
LINE
8
BLACK
6
CONTINUOUS
10
4.48871
20
-0.904735
11
4.49075
21
-0.904331
0
LINE
8
BLACK
6
CONTINUOUS
10
4.49075
20
-0.904331
11
4.50531
21
-0.904331
0
LINE
8
BLACK
6
CONTINUOUS
10
4.50531
20
-0.904331
11
4.50735
21
-0.904735
0
LINE
8
BLACK
6
CONTINUOUS
10
4.45814
20
-0.904735
11
4.45986
21
-0.905887
0
LINE
8
BLACK
6
CONTINUOUS
10
4.45986
20
-0.905887
11
4.46101
21
-0.907612
0
LINE
8
BLACK
6
CONTINUOUS
10
4.46101
20
-0.907612
11
4.46142
21
-0.909646
0
LINE
8
BLACK
6
CONTINUOUS
10
4.46142
20
-0.909646
11
4.46142
21
-0.920276
0
LINE
8
BLACK
6
CONTINUOUS
10
4.46142
20
-0.920276
11
4.46101
21
-0.92231
0
LINE
8
BLACK
6
CONTINUOUS
10
4.46101
20
-0.92231
11
4.45986
21
-0.924034
0
LINE
8
BLACK
6
CONTINUOUS
10
4.45986
20
-0.924034
11
4.45814
21
-0.925186
0
LINE
8
BLACK
6
CONTINUOUS
10
4.45814
20
-0.925186
11
4.4561
21
-0.925591
0
LINE
8
BLACK
6
CONTINUOUS
10
4.4561
20
-0.925591
11
4.44154
21
-0.925591
0
LINE
8
BLACK
6
CONTINUOUS
10
4.44154
20
-0.925591
11
4.4395
21
-0.925186
0
LINE
8
BLACK
6
CONTINUOUS
10
4.4395
20
-0.925186
11
4.43778
21
-0.924034
0
LINE
8
BLACK
6
CONTINUOUS
10
4.43778
20
-0.924034
11
4.43663
21
-0.92231
0
LINE
8
BLACK
6
CONTINUOUS
10
4.43663
20
-0.92231
11
4.43622
21
-0.920276
0
LINE
8
BLACK
6
CONTINUOUS
10
4.43622
20
-0.920276
11
4.43622
21
-0.909646
0
LINE
8
BLACK
6
CONTINUOUS
10
4.43622
20
-0.909646
11
4.43663
21
-0.907612
0
LINE
8
BLACK
6
CONTINUOUS
10
4.43663
20
-0.907612
11
4.43778
21
-0.905887
0
LINE
8
BLACK
6
CONTINUOUS
10
4.43778
20
-0.905887
11
4.4395
21
-0.904735
0
LINE
8
BLACK
6
CONTINUOUS
10
4.4395
20
-0.904735
11
4.44154
21
-0.904331
0
LINE
8
BLACK
6
CONTINUOUS
10
4.44154
20
-0.904331
11
4.4561
21
-0.904331
0
LINE
8
BLACK
6
CONTINUOUS
10
4.4561
20
-0.904331
11
4.45814
21
-0.904735
0
LINE
8
BLACK
6
CONTINUOUS
10
4.08349
20
-0.865907
11
4.08668
21
-0.86804
0
LINE
8
BLACK
6
CONTINUOUS
10
4.08668
20
-0.86804
11
4.08882
21
-0.871233
0
LINE
8
BLACK
6
CONTINUOUS
10
4.08882
20
-0.871233
11
4.08957
21
-0.875
0
LINE
8
BLACK
6
CONTINUOUS
10
4.08957
20
-0.875
11
4.08957
21
-0.904528
0
LINE
8
BLACK
6
CONTINUOUS
10
4.08957
20
-0.904528
11
4.08882
21
-0.908294
0
LINE
8
BLACK
6
CONTINUOUS
10
4.08882
20
-0.908294
11
4.08668
21
-0.911487
0
LINE
8
BLACK
6
CONTINUOUS
10
4.08668
20
-0.911487
11
4.08349
21
-0.913621
0
LINE
8
BLACK
6
CONTINUOUS
10
4.08349
20
-0.913621
11
4.07972
21
-0.91437
0
LINE
8
BLACK
6
CONTINUOUS
10
4.07972
20
-0.91437
11
4.03051
21
-0.91437
0
LINE
8
BLACK
6
CONTINUOUS
10
4.03051
20
-0.91437
11
4.02675
21
-0.913621
0
LINE
8
BLACK
6
CONTINUOUS
10
4.02675
20
-0.913621
11
4.02355
21
-0.911487
0
LINE
8
BLACK
6
CONTINUOUS
10
4.02355
20
-0.911487
11
4.02142
21
-0.908294
0
LINE
8
BLACK
6
CONTINUOUS
10
4.02142
20
-0.908294
11
4.02067
21
-0.904528
0
LINE
8
BLACK
6
CONTINUOUS
10
4.02067
20
-0.904528
11
4.02067
21
-0.875
0
LINE
8
BLACK
6
CONTINUOUS
10
4.02067
20
-0.875
11
4.02142
21
-0.871233
0
LINE
8
BLACK
6
CONTINUOUS
10
4.02142
20
-0.871233
11
4.02355
21
-0.86804
0
LINE
8
BLACK
6
CONTINUOUS
10
4.02355
20
-0.86804
11
4.02675
21
-0.865907
0
LINE
8
BLACK
6
CONTINUOUS
10
4.02675
20
-0.865907
11
4.03051
21
-0.865157
0
LINE
8
BLACK
6
CONTINUOUS
10
4.03051
20
-0.865157
11
4.07972
21
-0.865157
0
LINE
8
BLACK
6
CONTINUOUS
10
4.07972
20
-0.865157
11
4.08349
21
-0.865907
0
LINE
8
BLACK
6
CONTINUOUS
10
4.25144
20
-0.874814
11
4.25317
21
-0.875966
0
LINE
8
BLACK
6
CONTINUOUS
10
4.25317
20
-0.875966
11
4.25432
21
-0.87769
0
LINE
8
BLACK
6
CONTINUOUS
10
4.25432
20
-0.87769
11
4.25472
21
-0.879724
0
LINE
8
BLACK
6
CONTINUOUS
10
4.25472
20
-0.879724
11
4.25472
21
-0.890354
0
LINE
8
BLACK
6
CONTINUOUS
10
4.25472
20
-0.890354
11
4.25432
21
-0.892388
0
LINE
8
BLACK
6
CONTINUOUS
10
4.25432
20
-0.892388
11
4.25317
21
-0.894113
0
LINE
8
BLACK
6
CONTINUOUS
10
4.25317
20
-0.894113
11
4.25144
21
-0.895265
0
LINE
8
BLACK
6
CONTINUOUS
10
4.25144
20
-0.895265
11
4.24941
21
-0.895669
0
LINE
8
BLACK
6
CONTINUOUS
10
4.24941
20
-0.895669
11
4.23484
21
-0.895669
0
LINE
8
BLACK
6
CONTINUOUS
10
4.23484
20
-0.895669
11
4.23281
21
-0.895265
0
LINE
8
BLACK
6
CONTINUOUS
10
4.23281
20
-0.895265
11
4.23108
21
-0.894113
0
LINE
8
BLACK
6
CONTINUOUS
10
4.23108
20
-0.894113
11
4.22993
21
-0.892388
0
LINE
8
BLACK
6
CONTINUOUS
10
4.22993
20
-0.892388
11
4.22953
21
-0.890354
0
LINE
8
BLACK
6
CONTINUOUS
10
4.22953
20
-0.890354
11
4.22953
21
-0.879724
0
LINE
8
BLACK
6
CONTINUOUS
10
4.22953
20
-0.879724
11
4.22993
21
-0.87769
0
LINE
8
BLACK
6
CONTINUOUS
10
4.22993
20
-0.87769
11
4.23108
21
-0.875966
0
LINE
8
BLACK
6
CONTINUOUS
10
4.23108
20
-0.875966
11
4.23281
21
-0.874814
0
LINE
8
BLACK
6
CONTINUOUS
10
4.23281
20
-0.874814
11
4.23484
21
-0.874409
0
LINE
8
BLACK
6
CONTINUOUS
10
4.23484
20
-0.874409
11
4.24941
21
-0.874409
0
LINE
8
BLACK
6
CONTINUOUS
10
4.24941
20
-0.874409
11
4.25144
21
-0.874814
0
LINE
8
BLACK
6
CONTINUOUS
10
4.65341
20
-0.814578
11
4.65514
21
-0.81573
0
LINE
8
BLACK
6
CONTINUOUS
10
4.65514
20
-0.81573
11
4.65629
21
-0.817454
0
LINE
8
BLACK
6
CONTINUOUS
10
4.65629
20
-0.817454
11
4.65669
21
-0.819488
0
LINE
8
BLACK
6
CONTINUOUS
10
4.65669
20
-0.819488
11
4.65669
21
-0.834055
0
LINE
8
BLACK
6
CONTINUOUS
10
4.65669
20
-0.834055
11
4.65629
21
-0.836089
0
LINE
8
BLACK
6
CONTINUOUS
10
4.65629
20
-0.836089
11
4.65514
21
-0.837813
0
LINE
8
BLACK
6
CONTINUOUS
10
4.65514
20
-0.837813
11
4.65341
21
-0.838966
0
LINE
8
BLACK
6
CONTINUOUS
10
4.65341
20
-0.838966
11
4.65138
21
-0.83937
0
LINE
8
BLACK
6
CONTINUOUS
10
4.65138
20
-0.83937
11
4.64075
21
-0.83937
0
LINE
8
BLACK
6
CONTINUOUS
10
4.64075
20
-0.83937
11
4.63871
21
-0.838966
0
LINE
8
BLACK
6
CONTINUOUS
10
4.63871
20
-0.838966
11
4.63699
21
-0.837813
0
LINE
8
BLACK
6
CONTINUOUS
10
4.63699
20
-0.837813
11
4.63584
21
-0.836089
0
LINE
8
BLACK
6
CONTINUOUS
10
4.63584
20
-0.836089
11
4.63543
21
-0.834055
0
LINE
8
BLACK
6
CONTINUOUS
10
4.63543
20
-0.834055
11
4.63543
21
-0.819488
0
LINE
8
BLACK
6
CONTINUOUS
10
4.63543
20
-0.819488
11
4.63584
21
-0.817454
0
LINE
8
BLACK
6
CONTINUOUS
10
4.63584
20
-0.817454
11
4.63699
21
-0.81573
0
LINE
8
BLACK
6
CONTINUOUS
10
4.63699
20
-0.81573
11
4.63871
21
-0.814578
0
LINE
8
BLACK
6
CONTINUOUS
10
4.63871
20
-0.814578
11
4.64075
21
-0.814173
0
LINE
8
BLACK
6
CONTINUOUS
10
4.64075
20
-0.814173
11
4.65138
21
-0.814173
0
LINE
8
BLACK
6
CONTINUOUS
10
4.65138
20
-0.814173
11
4.65341
21
-0.814578
0
LINE
8
BLACK
6
CONTINUOUS
10
4.61325
20
-0.814578
11
4.61498
21
-0.81573
0
LINE
8
BLACK
6
CONTINUOUS
10
4.61498
20
-0.81573
11
4.61613
21
-0.817454
0
LINE
8
BLACK
6
CONTINUOUS
10
4.61613
20
-0.817454
11
4.61654
21
-0.819488
0
LINE
8
BLACK
6
CONTINUOUS
10
4.61654
20
-0.819488
11
4.61654
21
-0.834055
0
LINE
8
BLACK
6
CONTINUOUS
10
4.61654
20
-0.834055
11
4.61613
21
-0.836089
0
LINE
8
BLACK
6
CONTINUOUS
10
4.61613
20
-0.836089
11
4.61498
21
-0.837813
0
LINE
8
BLACK
6
CONTINUOUS
10
4.61498
20
-0.837813
11
4.61325
21
-0.838966
0
LINE
8
BLACK
6
CONTINUOUS
10
4.61325
20
-0.838966
11
4.61122
21
-0.83937
0
LINE
8
BLACK
6
CONTINUOUS
10
4.61122
20
-0.83937
11
4.60059
21
-0.83937
0
LINE
8
BLACK
6
CONTINUOUS
10
4.60059
20
-0.83937
11
4.59856
21
-0.838966
0
LINE
8
BLACK
6
CONTINUOUS
10
4.59856
20
-0.838966
11
4.59683
21
-0.837813
0
LINE
8
BLACK
6
CONTINUOUS
10
4.59683
20
-0.837813
11
4.59568
21
-0.836089
0
LINE
8
BLACK
6
CONTINUOUS
10
4.59568
20
-0.836089
11
4.59528
21
-0.834055
0
LINE
8
BLACK
6
CONTINUOUS
10
4.59528
20
-0.834055
11
4.59528
21
-0.819488
0
LINE
8
BLACK
6
CONTINUOUS
10
4.59528
20
-0.819488
11
4.59568
21
-0.817454
0
LINE
8
BLACK
6
CONTINUOUS
10
4.59568
20
-0.817454
11
4.59683
21
-0.81573
0
LINE
8
BLACK
6
CONTINUOUS
10
4.59683
20
-0.81573
11
4.59856
21
-0.814578
0
LINE
8
BLACK
6
CONTINUOUS
10
4.59856
20
-0.814578
11
4.60059
21
-0.814173
0
LINE
8
BLACK
6
CONTINUOUS
10
4.60059
20
-0.814173
11
4.61122
21
-0.814173
0
LINE
8
BLACK
6
CONTINUOUS
10
4.61122
20
-0.814173
11
4.61325
21
-0.814578
0
LINE
8
BLACK
6
CONTINUOUS
10
4.37434
20
-0.836417
11
4.36253
21
-0.836417
0
LINE
8
BLACK
6
CONTINUOUS
10
4.36253
20
-0.836417
11
4.36253
21
-0.791141
0
LINE
8
BLACK
6
CONTINUOUS
10
4.36253
20
-0.791141
11
4.37434
21
-0.791141
0
LINE
8
BLACK
6
CONTINUOUS
10
4.37434
20
-0.791141
11
4.37434
21
-0.836417
0
LINE
8
BLACK
6
CONTINUOUS
10
4.24048
20
-0.791141
11
4.26411
21
-0.791141
0
LINE
8
BLACK
6
CONTINUOUS
10
4.26411
20
-0.791141
11
4.26411
21
-0.836417
0
LINE
8
BLACK
6
CONTINUOUS
10
4.26411
20
-0.836417
11
4.24048
21
-0.836417
0
LINE
8
BLACK
6
CONTINUOUS
10
4.24048
20
-0.836417
11
4.24048
21
-0.791141
0
LINE
8
BLACK
6
CONTINUOUS
10
4.27198
20
-0.791141
11
4.2956
21
-0.791141
0
LINE
8
BLACK
6
CONTINUOUS
10
4.2956
20
-0.791141
11
4.2956
21
-0.836417
0
LINE
8
BLACK
6
CONTINUOUS
10
4.2956
20
-0.836417
11
4.27198
21
-0.836417
0
LINE
8
BLACK
6
CONTINUOUS
10
4.27198
20
-0.836417
11
4.27198
21
-0.791141
0
LINE
8
BLACK
6
CONTINUOUS
10
4.31529
20
-0.836417
11
4.30348
21
-0.836417
0
LINE
8
BLACK
6
CONTINUOUS
10
4.30348
20
-0.836417
11
4.30348
21
-0.791141
0
LINE
8
BLACK
6
CONTINUOUS
10
4.30348
20
-0.791141
11
4.31529
21
-0.791141
0
LINE
8
BLACK
6
CONTINUOUS
10
4.31529
20
-0.791141
11
4.31529
21
-0.836417
0
LINE
8
BLACK
6
CONTINUOUS
10
4.33497
20
-0.836417
11
4.32316
21
-0.836417
0
LINE
8
BLACK
6
CONTINUOUS
10
4.32316
20
-0.836417
11
4.32316
21
-0.791141
0
LINE
8
BLACK
6
CONTINUOUS
10
4.32316
20
-0.791141
11
4.33497
21
-0.791141
0
LINE
8
BLACK
6
CONTINUOUS
10
4.33497
20
-0.791141
11
4.33497
21
-0.836417
0
LINE
8
BLACK
6
CONTINUOUS
10
4.41371
20
-0.836417
11
4.4019
21
-0.836417
0
LINE
8
BLACK
6
CONTINUOUS
10
4.4019
20
-0.836417
11
4.4019
21
-0.791141
0
LINE
8
BLACK
6
CONTINUOUS
10
4.4019
20
-0.791141
11
4.41371
21
-0.791141
0
LINE
8
BLACK
6
CONTINUOUS
10
4.41371
20
-0.791141
11
4.41371
21
-0.836417
0
LINE
8
BLACK
6
CONTINUOUS
10
4.45308
20
-0.836417
11
4.44127
21
-0.836417
0
LINE
8
BLACK
6
CONTINUOUS
10
4.44127
20
-0.836417
11
4.44127
21
-0.791141
0
LINE
8
BLACK
6
CONTINUOUS
10
4.44127
20
-0.791141
11
4.45308
21
-0.791141
0
LINE
8
BLACK
6
CONTINUOUS
10
4.45308
20
-0.791141
11
4.45308
21
-0.836417
0
LINE
8
BLACK
6
CONTINUOUS
10
4.46096
20
-0.791141
11
4.48458
21
-0.791141
0
LINE
8
BLACK
6
CONTINUOUS
10
4.48458
20
-0.791141
11
4.48458
21
-0.836417
0
LINE
8
BLACK
6
CONTINUOUS
10
4.48458
20
-0.836417
11
4.46096
21
-0.836417
0
LINE
8
BLACK
6
CONTINUOUS
10
4.46096
20
-0.836417
11
4.46096
21
-0.791141
0
LINE
8
BLACK
6
CONTINUOUS
10
4.49245
20
-0.791141
11
4.51607
21
-0.791141
0
LINE
8
BLACK
6
CONTINUOUS
10
4.51607
20
-0.791141
11
4.51607
21
-0.836417
0
LINE
8
BLACK
6
CONTINUOUS
10
4.51607
20
-0.836417
11
4.49245
21
-0.836417
0
LINE
8
BLACK
6
CONTINUOUS
10
4.49245
20
-0.836417
11
4.49245
21
-0.791141
0
LINE
8
BLACK
6
CONTINUOUS
10
4.4334
20
-0.836417
11
4.42159
21
-0.836417
0
LINE
8
BLACK
6
CONTINUOUS
10
4.42159
20
-0.836417
11
4.42159
21
-0.791141
0
LINE
8
BLACK
6
CONTINUOUS
10
4.42159
20
-0.791141
11
4.4334
21
-0.791141
0
LINE
8
BLACK
6
CONTINUOUS
10
4.4334
20
-0.791141
11
4.4334
21
-0.836417
0
LINE
8
BLACK
6
CONTINUOUS
10
4.39403
20
-0.836417
11
4.38222
21
-0.836417
0
LINE
8
BLACK
6
CONTINUOUS
10
4.38222
20
-0.836417
11
4.38222
21
-0.791141
0
LINE
8
BLACK
6
CONTINUOUS
10
4.38222
20
-0.791141
11
4.39403
21
-0.791141
0
LINE
8
BLACK
6
CONTINUOUS
10
4.39403
20
-0.791141
11
4.39403
21
-0.836417
0
LINE
8
BLACK
6
CONTINUOUS
10
4.35466
20
-0.836417
11
4.34285
21
-0.836417
0
LINE
8
BLACK
6
CONTINUOUS
10
4.34285
20
-0.836417
11
4.34285
21
-0.791141
0
LINE
8
BLACK
6
CONTINUOUS
10
4.34285
20
-0.791141
11
4.35466
21
-0.791141
0
LINE
8
BLACK
6
CONTINUOUS
10
4.35466
20
-0.791141
11
4.35466
21
-0.836417
0
LINE
8
BLACK
6
CONTINUOUS
10
3.63976
20
-0.823818
11
3.5374
21
-0.823818
0
LINE
8
BLACK
6
CONTINUOUS
10
3.5374
20
-0.823818
11
3.5374
21
-0.721456
0
LINE
8
BLACK
6
CONTINUOUS
10
3.5374
20
-0.721456
11
3.63976
21
-0.721456
0
LINE
8
BLACK
6
CONTINUOUS
10
3.63976
20
-0.721456
11
3.63976
21
-0.823818
0
LINE
8
BLACK
6
CONTINUOUS
10
3.18504
20
-0.737204
11
3.08268
21
-0.737204
0
LINE
8
BLACK
6
CONTINUOUS
10
3.08268
20
-0.737204
11
3.08268
21
-0.634842
0
LINE
8
BLACK
6
CONTINUOUS
10
3.08268
20
-0.634842
11
3.18504
21
-0.634842
0
LINE
8
BLACK
6
CONTINUOUS
10
3.18504
20
-0.634842
11
3.18504
21
-0.737204
  0
ENDSEC
  0
EOF
