M48
METRIC
T1C0.400
T2C0.600
%
G90
G05
T1
X88.542Y-43.208
X88.542Y-60.208
X88.542Y-77.208
X88.6Y-25.0
X90.0Y-31.8
X95.985Y-40.026
X96.333Y-32.583
X96.333Y-41.792
X96.792Y-76.25
X97.75Y-38.25
X97.75Y-41.575
X98.209Y-59.25
X98.463Y-31.737
X99.735Y-37.812
X99.875Y-36.125
X100.262Y-31.488
X100.525Y-37.2
X101.974Y-37.2
X102.0Y-36.125
X102.397Y-38.106
X103.0Y-40.8
X103.104Y-38.812
X103.704Y-36.061
X103.705Y-42.495
X103.8Y-27.0
X103.8Y-34.224
X103.8Y-44.2
X103.888Y-39.596
X103.9Y-32.776
X104.626Y-43.415
X105.049Y-30.22
X105.542Y-60.208
X105.542Y-77.208
X106.356Y-29.791
X106.76Y-24.22
X106.8Y-40.886
X107.667Y-46.75
X108.6Y-28.775
X108.6Y-42.0
X111.75Y-18.5
X111.939Y-29.5
X112.425Y-46.75
X112.625Y-54.542
X113.4Y-49.6
X113.75Y-18.5
X113.954Y-50.432
X114.042Y-16.776
X114.75Y-51.131
X115.4Y-31.614
X115.458Y-54.463
X115.474Y-38.25
X115.8Y-44.4
X115.838Y-34.638
X116.875Y-17.0
X117.76Y-34.4
X120.417Y-26.917
X121.934Y-37.521
X122.542Y-28.333
X122.542Y-43.208
X122.542Y-60.208
X122.542Y-77.208
X122.6Y-26.4
X123.25Y-31.875
X123.4Y-27.2
X123.958Y-47.101
X123.958Y-54.542
X124.667Y-29.75
X125.6Y-48.899
X126.792Y-29.75
X127.5Y-34.0
X128.208Y-33.292
X128.917Y-38.25
X138.8Y-27.2
X139.542Y-43.208
X139.542Y-60.208
X139.542Y-77.208
X140.4Y-27.2
X142.6Y-48.2
X155.8Y-27.2
X156.542Y-43.208
X156.542Y-60.208
X156.542Y-77.208
X157.4Y-27.2
X159.6Y-49.6
X172.8Y-27.2
X173.542Y-26.208
X173.542Y-43.208
X173.542Y-60.208
X173.542Y-77.208
X176.6Y-55.025
X176.6Y-50.4
X190.542Y-26.208
X190.542Y-43.208
X190.542Y-60.208
X190.542Y-77.208
X193.6Y-51.4
X207.542Y-26.208
X207.542Y-43.208
X207.542Y-60.208
X207.542Y-77.208
X210.6Y-55.025
X224.542Y-26.208
X224.542Y-43.208
X224.542Y-60.208
X224.542Y-77.208
X227.375Y-46.75
X241.542Y-26.208
X241.542Y-43.208
X241.542Y-60.208
X241.542Y-77.208
T2
X106.888Y-15.625G85X106.888Y-16.225
G05
X106.888Y-19.555G85X106.888Y-20.655
G05
X115.528Y-15.625G85X115.528Y-16.225
G05
X115.528Y-19.555G85X115.528Y-20.655
G05
T0
M30
