G04 #@! TF.GenerationSoftware,KiCad,Pcbnew,(6.0.4-0)*
G04 #@! TF.CreationDate,2023-09-21T22:42:23-05:00*
G04 #@! TF.ProjectId,kowgary16_cfx,6b6f7767-6172-4793-9136-5f6366782e6b,rev?*
G04 #@! TF.SameCoordinates,Original*
G04 #@! TF.FileFunction,Soldermask,Top*
G04 #@! TF.FilePolarity,Negative*
%FSLAX45Y45*%
G04 Gerber Fmt 4.5, Leading zero omitted, Abs format (unit mm)*
G04 Created by KiCad (PCBNEW (6.0.4-0)) date 2023-09-21 22:42:23*
%MOMM*%
%LPD*%
G01*
G04 APERTURE LIST*
%ADD10C,3.000000*%
%ADD11C,3.429000*%
%ADD12C,1.701800*%
%ADD13C,0.990600*%
%ADD14C,2.200000*%
%ADD15R,2.000000X2.000000*%
%ADD16C,2.000000*%
%ADD17R,2.500000X3.000000*%
%ADD18C,0.650000*%
%ADD19O,1.000000X2.100000*%
%ADD20O,1.000000X1.600000*%
G04 APERTURE END LIST*
D10*
G04 #@! TO.C,SW23*
X11687494Y-6332497D03*
D11*
X11687494Y-5737497D03*
D12*
X11137495Y-5737497D03*
D10*
X11187494Y-6112497D03*
D12*
X12237494Y-5737497D03*
D13*
X12209494Y-5317497D03*
G04 #@! TD*
D11*
G04 #@! TO.C,SW13*
X11687494Y-4037498D03*
D12*
X11137495Y-4037498D03*
D13*
X12209494Y-3617498D03*
D10*
X11187494Y-4412498D03*
D12*
X12237494Y-4037498D03*
D10*
X11687494Y-4632498D03*
G04 #@! TD*
G04 #@! TO.C,SW4*
X12887494Y-2712499D03*
X13387494Y-2932499D03*
D11*
X13387494Y-2337499D03*
D13*
X13909494Y-1917499D03*
D12*
X12837494Y-2337499D03*
X13937494Y-2337499D03*
G04 #@! TD*
D11*
G04 #@! TO.C,SW1*
X8287496Y-2337499D03*
D10*
X8287496Y-1742499D03*
X8787496Y-1962499D03*
D12*
X7737496Y-2337499D03*
X8837496Y-2337499D03*
D13*
X7765496Y-2757499D03*
G04 #@! TD*
D12*
G04 #@! TO.C,SW34*
X13937494Y-7437496D03*
D13*
X13909494Y-7017496D03*
D11*
X13387494Y-7437496D03*
D12*
X12837494Y-7437496D03*
D10*
X13387494Y-8032496D03*
X12887494Y-7812496D03*
G04 #@! TD*
D13*
G04 #@! TO.C,SW33*
X12209494Y-7017496D03*
D10*
X11187494Y-7812496D03*
D12*
X12237494Y-7437496D03*
D11*
X11687494Y-7437496D03*
D10*
X11687494Y-8032496D03*
D12*
X11137495Y-7437496D03*
G04 #@! TD*
G04 #@! TO.C,SW24*
X13937494Y-5737497D03*
D13*
X13909494Y-5317497D03*
D10*
X12887494Y-6112497D03*
D11*
X13387494Y-5737497D03*
D10*
X13387494Y-6332497D03*
D12*
X12837494Y-5737497D03*
G04 #@! TD*
D10*
G04 #@! TO.C,SW32*
X9987495Y-8032496D03*
X9487495Y-7812496D03*
D12*
X10537495Y-7437496D03*
D11*
X9987495Y-7437496D03*
D13*
X10509495Y-7017496D03*
D12*
X9437495Y-7437496D03*
G04 #@! TD*
G04 #@! TO.C,SW31*
X8837496Y-7437496D03*
D10*
X8787496Y-7062496D03*
D11*
X8287496Y-7437496D03*
D12*
X7737496Y-7437496D03*
D13*
X7765496Y-7857496D03*
D10*
X8287496Y-6842496D03*
G04 #@! TD*
G04 #@! TO.C,SW3*
X11687494Y-2932499D03*
D12*
X11137495Y-2337499D03*
D10*
X11187494Y-2712499D03*
D12*
X12237494Y-2337499D03*
D13*
X12209494Y-1917499D03*
D11*
X11687494Y-2337499D03*
G04 #@! TD*
D13*
G04 #@! TO.C,SW14*
X13909494Y-3617498D03*
D12*
X12837494Y-4037498D03*
X13937494Y-4037498D03*
D10*
X12887494Y-4412498D03*
D11*
X13387494Y-4037498D03*
D10*
X13387494Y-4632498D03*
G04 #@! TD*
G04 #@! TO.C,SW21*
X8787496Y-5362497D03*
X8287496Y-5142497D03*
D12*
X7737496Y-5737497D03*
X8837496Y-5737497D03*
D11*
X8287496Y-5737497D03*
D13*
X7765496Y-6157497D03*
G04 #@! TD*
D10*
G04 #@! TO.C,SW2*
X9487495Y-2712499D03*
D11*
X9987495Y-2337499D03*
D13*
X10509495Y-1917499D03*
D10*
X9987495Y-2932499D03*
D12*
X9437495Y-2337499D03*
X10537495Y-2337499D03*
G04 #@! TD*
D10*
G04 #@! TO.C,SW12*
X9487495Y-4412498D03*
D13*
X10509495Y-3617498D03*
D10*
X9987495Y-4632498D03*
D11*
X9987495Y-4037498D03*
D12*
X10537495Y-4037498D03*
X9437495Y-4037498D03*
G04 #@! TD*
G04 #@! TO.C,SW22*
X9437495Y-5737497D03*
D10*
X9987495Y-6332497D03*
D13*
X10509495Y-5317497D03*
D12*
X10537495Y-5737497D03*
D11*
X9987495Y-5737497D03*
D10*
X9487495Y-6112497D03*
G04 #@! TD*
D12*
G04 #@! TO.C,SW11*
X8837496Y-4037498D03*
X7737496Y-4037498D03*
D10*
X8787496Y-3662498D03*
D13*
X7765496Y-4457498D03*
D10*
X8287496Y-3442498D03*
D11*
X8287496Y-4037498D03*
G04 #@! TD*
D14*
G04 #@! TO.C,H2*
X9137496Y-3187498D03*
G04 #@! TD*
D15*
G04 #@! TO.C,SW5*
X13137513Y-1612502D03*
D16*
X13637513Y-1612502D03*
X13387513Y-1612502D03*
D17*
X13947513Y-2362502D03*
X12827513Y-2362502D03*
D16*
X13137513Y-3062502D03*
X13637513Y-3062502D03*
G04 #@! TD*
D14*
G04 #@! TO.C,H4*
X12537494Y-6587497D03*
G04 #@! TD*
D18*
G04 #@! TO.C,J1*
X10831828Y-1960499D03*
X11409828Y-1960499D03*
D19*
X10688828Y-2010499D03*
D20*
X10688828Y-1592499D03*
X11552828Y-1592499D03*
D19*
X11552828Y-2010499D03*
G04 #@! TD*
D14*
G04 #@! TO.C,H3*
X9137496Y-6587497D03*
G04 #@! TD*
G04 #@! TO.C,H1*
X12537494Y-3187498D03*
G04 #@! TD*
M02*
