M48
METRIC,TZ
T1C0.650
T2C0.991
T3C1.702
T4C2.200
T5C3.000
T6C3.429
%
G90
G05
T1
X108318Y-19605
X114098Y-19605
T2
X77655Y-27575
X77655Y-44575
X77655Y-61575
X77655Y-78575
X105095Y-19175
X105095Y-36175
X105095Y-53175
X105095Y-70175
X122095Y-19175
X122095Y-36175
X122095Y-53175
X122095Y-70175
X139095Y-19175
X139095Y-36175
X139095Y-53175
X139095Y-70175
T3
X77375Y-23375
X77375Y-40375
X77375Y-57375
X77375Y-74375
X88375Y-23375
X88375Y-40375
X88375Y-57375
X88375Y-74375
X94375Y-23375
X94375Y-40375
X94375Y-57375
X94375Y-74375
X105375Y-23375
X105375Y-40375
X105375Y-57375
X105375Y-74375
X111375Y-23375
X111375Y-40375
X111375Y-57375
X111375Y-74375
X122375Y-23375
X122375Y-40375
X122375Y-57375
X122375Y-74375
X128375Y-23375
X128375Y-40375
X128375Y-57375
X128375Y-74375
X139375Y-23375
X139375Y-40375
X139375Y-57375
X139375Y-74375
T4
X91375Y-31875
X91375Y-65875
X125375Y-31875
X125375Y-65875
T5
X82875Y-17425
X82875Y-34425
X82875Y-51425
X82875Y-68425
X87875Y-19625
X87875Y-36625
X87875Y-53625
X87875Y-70625
X94875Y-27125
X94875Y-44125
X94875Y-61125
X94875Y-78125
X99875Y-29325
X99875Y-46325
X99875Y-63325
X99875Y-80325
X111875Y-27125
X111875Y-44125
X111875Y-61125
X111875Y-78125
X116875Y-29325
X116875Y-46325
X116875Y-63325
X116875Y-80325
X128875Y-27125
X128875Y-44125
X128875Y-61125
X128875Y-78125
X133875Y-29325
X133875Y-46325
X133875Y-63325
X133875Y-80325
T6
X82875Y-23375
X82875Y-40375
X82875Y-57375
X82875Y-74375
X99875Y-23375
X99875Y-40375
X99875Y-57375
X99875Y-74375
X116875Y-23375
X116875Y-40375
X116875Y-57375
X116875Y-74375
X133875Y-23375
X133875Y-40375
X133875Y-57375
X133875Y-74375
T0
M30
