%TF.GenerationSoftware,KiCad,Pcbnew,(6.0.4-0)*%
%TF.CreationDate,2023-01-14T23:55:12-06:00*%
%TF.ProjectId,kowgary16_cfx,6b6f7767-6172-4793-9136-5f6366782e6b,rev?*%
%TF.SameCoordinates,Original*%
%TF.FileFunction,Soldermask,Top*%
%TF.FilePolarity,Negative*%
%FSLAX46Y46*%
G04 Gerber Fmt 4.6, Leading zero omitted, Abs format (unit mm)*
G04 Created by KiCad (PCBNEW (6.0.4-0)) date 2023-01-14 23:55:12*
%MOMM*%
%LPD*%
G01*
G04 APERTURE LIST*
%ADD10C,2.200000*%
%ADD11C,3.000000*%
%ADD12C,3.429000*%
%ADD13C,1.701800*%
%ADD14C,0.990600*%
%ADD15C,0.650000*%
%ADD16O,1.000000X2.100000*%
%ADD17O,1.000000X1.600000*%
G04 APERTURE END LIST*
D10*
%TO.C,H4*%
X125374941Y-65874969D03*
%TD*%
%TO.C,H2*%
X91374957Y-31874985D03*
%TD*%
D11*
%TO.C,SW23*%
X116874945Y-63324973D03*
D12*
X116874945Y-57374973D03*
D13*
X111374945Y-57374973D03*
D11*
X111874945Y-61124973D03*
D13*
X122374945Y-57374973D03*
D14*
X122094945Y-53174973D03*
%TD*%
D12*
%TO.C,SW13*%
X116874945Y-40374981D03*
D13*
X111374945Y-40374981D03*
D14*
X122094945Y-36174981D03*
D11*
X111874945Y-44124981D03*
D13*
X122374945Y-40374981D03*
D11*
X116874945Y-46324981D03*
%TD*%
%TO.C,SW4*%
X128874937Y-27124989D03*
X133874937Y-29324989D03*
D12*
X133874937Y-23374989D03*
D14*
X139094937Y-19174989D03*
D13*
X128374937Y-23374989D03*
X139374937Y-23374989D03*
%TD*%
D12*
%TO.C,SW1*%
X82874961Y-23374989D03*
D11*
X82874961Y-17424989D03*
X87874961Y-19624989D03*
D13*
X77374961Y-23374989D03*
X88374961Y-23374989D03*
D14*
X77654961Y-27574989D03*
%TD*%
D13*
%TO.C,SW34*%
X139374937Y-74374965D03*
D14*
X139094937Y-70174965D03*
D12*
X133874937Y-74374965D03*
D13*
X128374937Y-74374965D03*
D11*
X133874937Y-80324965D03*
X128874937Y-78124965D03*
%TD*%
D14*
%TO.C,SW33*%
X122094945Y-70174965D03*
D11*
X111874945Y-78124965D03*
D13*
X122374945Y-74374965D03*
D12*
X116874945Y-74374965D03*
D11*
X116874945Y-80324965D03*
D13*
X111374945Y-74374965D03*
%TD*%
%TO.C,SW24*%
X139374937Y-57374973D03*
D14*
X139094937Y-53174973D03*
D11*
X128874937Y-61124973D03*
D12*
X133874937Y-57374973D03*
D11*
X133874937Y-63324973D03*
D13*
X128374937Y-57374973D03*
%TD*%
D11*
%TO.C,SW32*%
X99874953Y-80324965D03*
X94874953Y-78124965D03*
D13*
X105374953Y-74374965D03*
D12*
X99874953Y-74374965D03*
D14*
X105094953Y-70174965D03*
D13*
X94374953Y-74374965D03*
%TD*%
%TO.C,SW31*%
X88374961Y-74374965D03*
D11*
X87874961Y-70624965D03*
D12*
X82874961Y-74374965D03*
D13*
X77374961Y-74374965D03*
D14*
X77654961Y-78574965D03*
D11*
X82874961Y-68424965D03*
%TD*%
%TO.C,SW3*%
X116874945Y-29324989D03*
D13*
X111374945Y-23374989D03*
D11*
X111874945Y-27124989D03*
D13*
X122374945Y-23374989D03*
D14*
X122094945Y-19174989D03*
D12*
X116874945Y-23374989D03*
%TD*%
D14*
%TO.C,SW14*%
X139094937Y-36174981D03*
D13*
X128374937Y-40374981D03*
X139374937Y-40374981D03*
D11*
X128874937Y-44124981D03*
D12*
X133874937Y-40374981D03*
D11*
X133874937Y-46324981D03*
%TD*%
%TO.C,SW21*%
X87874961Y-53624973D03*
X82874961Y-51424973D03*
D13*
X77374961Y-57374973D03*
X88374961Y-57374973D03*
D12*
X82874961Y-57374973D03*
D14*
X77654961Y-61574973D03*
%TD*%
D11*
%TO.C,SW2*%
X94874953Y-27124989D03*
D12*
X99874953Y-23374989D03*
D14*
X105094953Y-19174989D03*
D11*
X99874953Y-29324989D03*
D13*
X94374953Y-23374989D03*
X105374953Y-23374989D03*
%TD*%
D11*
%TO.C,SW12*%
X94874953Y-44124981D03*
D14*
X105094953Y-36174981D03*
D11*
X99874953Y-46324981D03*
D12*
X99874953Y-40374981D03*
D13*
X105374953Y-40374981D03*
X94374953Y-40374981D03*
%TD*%
%TO.C,SW22*%
X94374953Y-57374973D03*
D11*
X99874953Y-63324973D03*
D14*
X105094953Y-53174973D03*
D13*
X105374953Y-57374973D03*
D12*
X99874953Y-57374973D03*
D11*
X94874953Y-61124973D03*
%TD*%
D10*
%TO.C,H3*%
X91374957Y-65874969D03*
%TD*%
D13*
%TO.C,SW11*%
X88374961Y-40374981D03*
X77374961Y-40374981D03*
D11*
X87874961Y-36624981D03*
D14*
X77654961Y-44574981D03*
D11*
X82874961Y-34424981D03*
D12*
X82874961Y-40374981D03*
%TD*%
D10*
%TO.C,H1*%
X125374941Y-31874985D03*
%TD*%
D15*
%TO.C,J1*%
X108318281Y-19604992D03*
X114098281Y-19604992D03*
D16*
X106888281Y-20104992D03*
D17*
X106888281Y-15924992D03*
X115528281Y-15924992D03*
D16*
X115528281Y-20104992D03*
%TD*%
M02*
