M48
METRIC,TZ
T1C0.400
T2C0.600
%
G90
G05
T1
X87125Y-62333
X87125Y-65167
X88542Y-43208
X88542Y-60208
X88542Y-77208
X88600Y-25000
X94208Y-31038
X94208Y-32583
X95985Y-40026
X96333Y-32583
X96333Y-41792
X96792Y-76250
X97750Y-38250
X97750Y-41575
X98209Y-59250
X99735Y-37812
X99875Y-36125
X100262Y-31488
X100526Y-37200
X101974Y-37200
X102000Y-36125
X102397Y-38106
X103000Y-40800
X103104Y-38812
X103704Y-36061
X103705Y-42495
X103800Y-27000
X103800Y-34225
X103800Y-44200
X103888Y-39596
X103900Y-32776
X104626Y-43415
X105049Y-30220
X105542Y-60208
X105542Y-77208
X106356Y-29791
X106760Y-24220
X107667Y-46750
X108600Y-28776
X108600Y-42000
X111750Y-18500
X111939Y-29500
X112425Y-46750
X112625Y-54542
X113750Y-18500
X114042Y-16776
X115400Y-31615
X115474Y-38250
X115838Y-34638
X116875Y-17000
X117760Y-34400
X120417Y-26917
X121934Y-37521
X122542Y-28333
X122542Y-43208
X122542Y-60208
X122542Y-77208
X122600Y-26400
X123250Y-31875
X123400Y-27200
X123958Y-47101
X123958Y-54542
X124667Y-29750
X125600Y-48900
X126792Y-29750
X127500Y-34000
X128208Y-33292
X128917Y-38250
X138800Y-27200
X139542Y-43208
X139542Y-60208
X139542Y-77208
T2
X106888Y-15625G85X106888Y-16225
G05
X106888Y-19555G85X106888Y-20655
G05
X115528Y-15625G85X115528Y-16225
G05
X115528Y-19555G85X115528Y-20655
G05
T0
M30
