G04 #@! TF.GenerationSoftware,KiCad,Pcbnew,(6.0.4-0)*
G04 #@! TF.CreationDate,2023-09-21T22:42:23-05:00*
G04 #@! TF.ProjectId,kowgary16_cfx,6b6f7767-6172-4793-9136-5f6366782e6b,rev?*
G04 #@! TF.SameCoordinates,Original*
G04 #@! TF.FileFunction,Legend,Bot*
G04 #@! TF.FilePolarity,Positive*
%FSLAX45Y45*%
G04 Gerber Fmt 4.5, Leading zero omitted, Abs format (unit mm)*
G04 Created by KiCad (PCBNEW (6.0.4-0)) date 2023-09-21 22:42:23*
%MOMM*%
%LPD*%
G01*
G04 APERTURE LIST*
%ADD10C,0.004500*%
%ADD11C,0.150000*%
%ADD12C,0.250000*%
%ADD13C,0.120000*%
G04 APERTURE END LIST*
D10*
G36*
X10888633Y-5371249D02*
G01*
X10645547Y-5230903D01*
X10645547Y-5094915D01*
X10686382Y-5094915D01*
X10686567Y-5103630D01*
X10687116Y-5112251D01*
X10688022Y-5120770D01*
X10689277Y-5129181D01*
X10690874Y-5137476D01*
X10692806Y-5145647D01*
X10695065Y-5153686D01*
X10697643Y-5161588D01*
X10700533Y-5169343D01*
X10703728Y-5176945D01*
X10707221Y-5184386D01*
X10711002Y-5191658D01*
X10715066Y-5198754D01*
X10719405Y-5205667D01*
X10724011Y-5212390D01*
X10728877Y-5218913D01*
X10729581Y-5214049D01*
X10730429Y-5209232D01*
X10731418Y-5204466D01*
X10732547Y-5199752D01*
X10733813Y-5195093D01*
X10735214Y-5190490D01*
X10736712Y-5186051D01*
X10805053Y-5186051D01*
X10805069Y-5186407D01*
X10805100Y-5186763D01*
X10805149Y-5187116D01*
X10805213Y-5187468D01*
X10805295Y-5187817D01*
X10805393Y-5188162D01*
X10805507Y-5188504D01*
X10805638Y-5188840D01*
X10805786Y-5189172D01*
X10805950Y-5189497D01*
X10806131Y-5189816D01*
X10806328Y-5190128D01*
X10806542Y-5190432D01*
X10806772Y-5190728D01*
X10807019Y-5191014D01*
X10807283Y-5191291D01*
X10807559Y-5191554D01*
X10807846Y-5191801D01*
X10808142Y-5192032D01*
X10808446Y-5192246D01*
X10808757Y-5192443D01*
X10809076Y-5192624D01*
X10809402Y-5192788D01*
X10809733Y-5192935D01*
X10810070Y-5193066D01*
X10810411Y-5193181D01*
X10810757Y-5193279D01*
X10811106Y-5193360D01*
X10811457Y-5193425D01*
X10811811Y-5193473D01*
X10812166Y-5193505D01*
X10812522Y-5193520D01*
X10812879Y-5193519D01*
X10813235Y-5193501D01*
X10813590Y-5193466D01*
X10813943Y-5193415D01*
X10814295Y-5193348D01*
X10814643Y-5193264D01*
X10814988Y-5193163D01*
X10815328Y-5193046D01*
X10815664Y-5192912D01*
X10815995Y-5192761D01*
X10816319Y-5192594D01*
X10816637Y-5192411D01*
X10816948Y-5192211D01*
X10817250Y-5191994D01*
X10817544Y-5191761D01*
X10817829Y-5191511D01*
X10817830Y-5191512D01*
X10817830Y-5191512D01*
X10817832Y-5191514D01*
X10817833Y-5191515D01*
X10817834Y-5191516D01*
X10818059Y-5191291D01*
X10834935Y-5174414D01*
X10852037Y-5191516D01*
X10852039Y-5191514D01*
X10852040Y-5191512D01*
X10852042Y-5191511D01*
X10852327Y-5191761D01*
X10852621Y-5191994D01*
X10852923Y-5192211D01*
X10853234Y-5192411D01*
X10853552Y-5192594D01*
X10853876Y-5192761D01*
X10854207Y-5192912D01*
X10854542Y-5193046D01*
X10854883Y-5193163D01*
X10855228Y-5193264D01*
X10855576Y-5193348D01*
X10855927Y-5193415D01*
X10856281Y-5193466D01*
X10856636Y-5193501D01*
X10856992Y-5193519D01*
X10857348Y-5193520D01*
X10857705Y-5193505D01*
X10858060Y-5193473D01*
X10858414Y-5193425D01*
X10858765Y-5193360D01*
X10859114Y-5193279D01*
X10859459Y-5193181D01*
X10859801Y-5193066D01*
X10860138Y-5192935D01*
X10860469Y-5192788D01*
X10860795Y-5192624D01*
X10861114Y-5192443D01*
X10861425Y-5192246D01*
X10861729Y-5192032D01*
X10862025Y-5191801D01*
X10862311Y-5191554D01*
X10862588Y-5191291D01*
X10862852Y-5191014D01*
X10863099Y-5190728D01*
X10863329Y-5190432D01*
X10863543Y-5190128D01*
X10863740Y-5189816D01*
X10863921Y-5189497D01*
X10864085Y-5189172D01*
X10864233Y-5188840D01*
X10864364Y-5188504D01*
X10864478Y-5188162D01*
X10864576Y-5187817D01*
X10864658Y-5187468D01*
X10864722Y-5187116D01*
X10864771Y-5186763D01*
X10864802Y-5186407D01*
X10864818Y-5186051D01*
X10864816Y-5185695D01*
X10864798Y-5185339D01*
X10864764Y-5184984D01*
X10864713Y-5184630D01*
X10864645Y-5184279D01*
X10864561Y-5183931D01*
X10864460Y-5183586D01*
X10864343Y-5183245D01*
X10864209Y-5182909D01*
X10864059Y-5182579D01*
X10863892Y-5182254D01*
X10863708Y-5181937D01*
X10863508Y-5181626D01*
X10863292Y-5181323D01*
X10863058Y-5181029D01*
X10862809Y-5180744D01*
X10862813Y-5180740D01*
X10845712Y-5163638D01*
X10903223Y-5163638D01*
X10903232Y-5164020D01*
X10903260Y-5164397D01*
X10903306Y-5164769D01*
X10903370Y-5165135D01*
X10903451Y-5165495D01*
X10903549Y-5165849D01*
X10903663Y-5166195D01*
X10903793Y-5166534D01*
X10903938Y-5166865D01*
X10904099Y-5167187D01*
X10904274Y-5167500D01*
X10904463Y-5167805D01*
X10904666Y-5168099D01*
X10904882Y-5168383D01*
X10905111Y-5168657D01*
X10905352Y-5168920D01*
X10905605Y-5169171D01*
X10905869Y-5169410D01*
X10906145Y-5169636D01*
X10906431Y-5169850D01*
X10906727Y-5170051D01*
X10907033Y-5170238D01*
X10907348Y-5170410D01*
X10907671Y-5170568D01*
X10908004Y-5170711D01*
X10908344Y-5170838D01*
X10908691Y-5170950D01*
X10909046Y-5171045D01*
X10909407Y-5171123D01*
X10909774Y-5171184D01*
X10910147Y-5171227D01*
X10910525Y-5171252D01*
X10910525Y-5171258D01*
X10934710Y-5171258D01*
X10934710Y-5195443D01*
X10934716Y-5195443D01*
X10934741Y-5195821D01*
X10934784Y-5196194D01*
X10934845Y-5196561D01*
X10934923Y-5196922D01*
X10935018Y-5197277D01*
X10935130Y-5197624D01*
X10935257Y-5197964D01*
X10935400Y-5198297D01*
X10935558Y-5198620D01*
X10935730Y-5198935D01*
X10935917Y-5199241D01*
X10936118Y-5199537D01*
X10936332Y-5199823D01*
X10936558Y-5200099D01*
X10936797Y-5200363D01*
X10937048Y-5200616D01*
X10937311Y-5200857D01*
X10937585Y-5201086D01*
X10937869Y-5201302D01*
X10938163Y-5201505D01*
X10938468Y-5201694D01*
X10938781Y-5201869D01*
X10939103Y-5202030D01*
X10939434Y-5202175D01*
X10939773Y-5202305D01*
X10940119Y-5202419D01*
X10940473Y-5202517D01*
X10940832Y-5202598D01*
X10941199Y-5202662D01*
X10941571Y-5202708D01*
X10941948Y-5202736D01*
X10942330Y-5202745D01*
X10942712Y-5202736D01*
X10943089Y-5202708D01*
X10943461Y-5202662D01*
X10943827Y-5202598D01*
X10944187Y-5202517D01*
X10944540Y-5202419D01*
X10944887Y-5202305D01*
X10945225Y-5202175D01*
X10945556Y-5202030D01*
X10945879Y-5201869D01*
X10946192Y-5201694D01*
X10946496Y-5201505D01*
X10946791Y-5201302D01*
X10947075Y-5201086D01*
X10947349Y-5200857D01*
X10947611Y-5200616D01*
X10947862Y-5200363D01*
X10948101Y-5200099D01*
X10948328Y-5199823D01*
X10948542Y-5199537D01*
X10948742Y-5199241D01*
X10948929Y-5198935D01*
X10949102Y-5198620D01*
X10949260Y-5198297D01*
X10949403Y-5197964D01*
X10949530Y-5197624D01*
X10949641Y-5197277D01*
X10949736Y-5196922D01*
X10949815Y-5196561D01*
X10949875Y-5196194D01*
X10949918Y-5195821D01*
X10949943Y-5195443D01*
X10949950Y-5195443D01*
X10949950Y-5171258D01*
X10974135Y-5171258D01*
X10974135Y-5171252D01*
X10974513Y-5171227D01*
X10974886Y-5171184D01*
X10975253Y-5171123D01*
X10975614Y-5171045D01*
X10975969Y-5170950D01*
X10976316Y-5170838D01*
X10976656Y-5170711D01*
X10976988Y-5170568D01*
X10977312Y-5170410D01*
X10977627Y-5170238D01*
X10977933Y-5170051D01*
X10978229Y-5169850D01*
X10978515Y-5169636D01*
X10978790Y-5169410D01*
X10979055Y-5169171D01*
X10979308Y-5168920D01*
X10979549Y-5168657D01*
X10979778Y-5168383D01*
X10979994Y-5168099D01*
X10980197Y-5167805D01*
X10980386Y-5167500D01*
X10980561Y-5167187D01*
X10980721Y-5166865D01*
X10980867Y-5166534D01*
X10980997Y-5166195D01*
X10981111Y-5165849D01*
X10981209Y-5165495D01*
X10981290Y-5165135D01*
X10981353Y-5164769D01*
X10981399Y-5164397D01*
X10981427Y-5164020D01*
X10981437Y-5163638D01*
X10981427Y-5163256D01*
X10981399Y-5162879D01*
X10981353Y-5162507D01*
X10981290Y-5162141D01*
X10981209Y-5161781D01*
X10981111Y-5161427D01*
X10980997Y-5161081D01*
X10980867Y-5160742D01*
X10980721Y-5160412D01*
X10980561Y-5160089D01*
X10980386Y-5159776D01*
X10980197Y-5159472D01*
X10979994Y-5159177D01*
X10979778Y-5158893D01*
X10979549Y-5158619D01*
X10979308Y-5158357D01*
X10979055Y-5158106D01*
X10978791Y-5157867D01*
X10978515Y-5157640D01*
X10978229Y-5157426D01*
X10977933Y-5157226D01*
X10977627Y-5157039D01*
X10977312Y-5156866D01*
X10976988Y-5156708D01*
X10976656Y-5156565D01*
X10976316Y-5156438D01*
X10975969Y-5156327D01*
X10975614Y-5156232D01*
X10975253Y-5156153D01*
X10974886Y-5156093D01*
X10974513Y-5156050D01*
X10974135Y-5156025D01*
X10974135Y-5156018D01*
X10949950Y-5156018D01*
X10949950Y-5131833D01*
X10949943Y-5131833D01*
X10949918Y-5131455D01*
X10949875Y-5131082D01*
X10949815Y-5130715D01*
X10949736Y-5130354D01*
X10949641Y-5129999D01*
X10949530Y-5129652D01*
X10949403Y-5129312D01*
X10949260Y-5128980D01*
X10949102Y-5128656D01*
X10948929Y-5128341D01*
X10948742Y-5128035D01*
X10948542Y-5127739D01*
X10948328Y-5127453D01*
X10948101Y-5127177D01*
X10947862Y-5126913D01*
X10947611Y-5126660D01*
X10947349Y-5126419D01*
X10947075Y-5126190D01*
X10946791Y-5125974D01*
X10946496Y-5125771D01*
X10946192Y-5125582D01*
X10945879Y-5125407D01*
X10945556Y-5125247D01*
X10945225Y-5125101D01*
X10944887Y-5124971D01*
X10944540Y-5124857D01*
X10944187Y-5124759D01*
X10943827Y-5124678D01*
X10943461Y-5124615D01*
X10943089Y-5124569D01*
X10942712Y-5124541D01*
X10942330Y-5124531D01*
X10941948Y-5124541D01*
X10941571Y-5124569D01*
X10941199Y-5124615D01*
X10940832Y-5124678D01*
X10940473Y-5124759D01*
X10940119Y-5124857D01*
X10939773Y-5124971D01*
X10939434Y-5125101D01*
X10939103Y-5125247D01*
X10938781Y-5125407D01*
X10938468Y-5125582D01*
X10938163Y-5125771D01*
X10937869Y-5125974D01*
X10937585Y-5126190D01*
X10937311Y-5126419D01*
X10937048Y-5126660D01*
X10936797Y-5126913D01*
X10936558Y-5127177D01*
X10936332Y-5127453D01*
X10936118Y-5127739D01*
X10935917Y-5128035D01*
X10935730Y-5128341D01*
X10935558Y-5128656D01*
X10935400Y-5128980D01*
X10935257Y-5129312D01*
X10935130Y-5129652D01*
X10935018Y-5129999D01*
X10934923Y-5130354D01*
X10934845Y-5130715D01*
X10934784Y-5131082D01*
X10934741Y-5131455D01*
X10934716Y-5131833D01*
X10934710Y-5131833D01*
X10934710Y-5156018D01*
X10910833Y-5156018D01*
X10910525Y-5156018D01*
X10910525Y-5156025D01*
X10910147Y-5156050D01*
X10909774Y-5156093D01*
X10909407Y-5156153D01*
X10909046Y-5156232D01*
X10908691Y-5156327D01*
X10908344Y-5156438D01*
X10908004Y-5156565D01*
X10907671Y-5156708D01*
X10907348Y-5156866D01*
X10907033Y-5157039D01*
X10906727Y-5157225D01*
X10906431Y-5157426D01*
X10906145Y-5157640D01*
X10905869Y-5157866D01*
X10905605Y-5158106D01*
X10905352Y-5158357D01*
X10905111Y-5158619D01*
X10904882Y-5158893D01*
X10904666Y-5159177D01*
X10904463Y-5159472D01*
X10904274Y-5159776D01*
X10904099Y-5160089D01*
X10903938Y-5160412D01*
X10903793Y-5160742D01*
X10903663Y-5161081D01*
X10903549Y-5161427D01*
X10903451Y-5161781D01*
X10903370Y-5162141D01*
X10903306Y-5162507D01*
X10903260Y-5162879D01*
X10903232Y-5163256D01*
X10903223Y-5163638D01*
X10845712Y-5163638D01*
X10862588Y-5146762D01*
X10862813Y-5146537D01*
X10862809Y-5146532D01*
X10863058Y-5146247D01*
X10863292Y-5145953D01*
X10863508Y-5145650D01*
X10863708Y-5145340D01*
X10863892Y-5145022D01*
X10864059Y-5144698D01*
X10864209Y-5144367D01*
X10864343Y-5144031D01*
X10864460Y-5143690D01*
X10864561Y-5143346D01*
X10864645Y-5142997D01*
X10864713Y-5142646D01*
X10864764Y-5142293D01*
X10864798Y-5141938D01*
X10864816Y-5141582D01*
X10864818Y-5141225D01*
X10864802Y-5140869D01*
X10864771Y-5140514D01*
X10864722Y-5140160D01*
X10864658Y-5139808D01*
X10864576Y-5139460D01*
X10864478Y-5139114D01*
X10864364Y-5138773D01*
X10864233Y-5138436D01*
X10864085Y-5138105D01*
X10863921Y-5137779D01*
X10863740Y-5137460D01*
X10863543Y-5137148D01*
X10863329Y-5136844D01*
X10863099Y-5136549D01*
X10862852Y-5136262D01*
X10862588Y-5135985D01*
X10862311Y-5135722D01*
X10862025Y-5135475D01*
X10861729Y-5135244D01*
X10861425Y-5135031D01*
X10861114Y-5134833D01*
X10860795Y-5134653D01*
X10860469Y-5134488D01*
X10860138Y-5134341D01*
X10859801Y-5134210D01*
X10859459Y-5134095D01*
X10859114Y-5133997D01*
X10858765Y-5133916D01*
X10858414Y-5133851D01*
X10858060Y-5133803D01*
X10857705Y-5133771D01*
X10857348Y-5133756D01*
X10856992Y-5133757D01*
X10856636Y-5133775D01*
X10856281Y-5133810D01*
X10855927Y-5133861D01*
X10855576Y-5133929D01*
X10855228Y-5134013D01*
X10854883Y-5134113D01*
X10854542Y-5134231D01*
X10854207Y-5134365D01*
X10853876Y-5134515D01*
X10853552Y-5134682D01*
X10853234Y-5134865D01*
X10852923Y-5135065D01*
X10852621Y-5135282D01*
X10852327Y-5135515D01*
X10852042Y-5135765D01*
X10852037Y-5135760D01*
X10851812Y-5135985D01*
X10834935Y-5152862D01*
X10818059Y-5135985D01*
X10818056Y-5135982D01*
X10818054Y-5135980D01*
X10818052Y-5135979D01*
X10817834Y-5135760D01*
X10817829Y-5135765D01*
X10817544Y-5135515D01*
X10817250Y-5135282D01*
X10816948Y-5135065D01*
X10816637Y-5134865D01*
X10816319Y-5134682D01*
X10815995Y-5134515D01*
X10815664Y-5134365D01*
X10815328Y-5134231D01*
X10814988Y-5134113D01*
X10814643Y-5134013D01*
X10814295Y-5133929D01*
X10813943Y-5133861D01*
X10813590Y-5133810D01*
X10813235Y-5133775D01*
X10812879Y-5133757D01*
X10812523Y-5133756D01*
X10812166Y-5133771D01*
X10811811Y-5133803D01*
X10811457Y-5133851D01*
X10811106Y-5133916D01*
X10810757Y-5133997D01*
X10810411Y-5134095D01*
X10810070Y-5134210D01*
X10809733Y-5134341D01*
X10809402Y-5134489D01*
X10809076Y-5134653D01*
X10808757Y-5134833D01*
X10808446Y-5135031D01*
X10808142Y-5135245D01*
X10807846Y-5135475D01*
X10807559Y-5135722D01*
X10807283Y-5135985D01*
X10807019Y-5136262D01*
X10806772Y-5136549D01*
X10806542Y-5136844D01*
X10806328Y-5137148D01*
X10806131Y-5137460D01*
X10805950Y-5137779D01*
X10805786Y-5138105D01*
X10805638Y-5138436D01*
X10805507Y-5138773D01*
X10805393Y-5139114D01*
X10805295Y-5139460D01*
X10805213Y-5139808D01*
X10805149Y-5140160D01*
X10805100Y-5140514D01*
X10805069Y-5140869D01*
X10805053Y-5141225D01*
X10805055Y-5141582D01*
X10805073Y-5141938D01*
X10805107Y-5142293D01*
X10805158Y-5142646D01*
X10805226Y-5142997D01*
X10805310Y-5143346D01*
X10805411Y-5143690D01*
X10805528Y-5144031D01*
X10805662Y-5144367D01*
X10805812Y-5144698D01*
X10805979Y-5145022D01*
X10806163Y-5145340D01*
X10806363Y-5145650D01*
X10806579Y-5145953D01*
X10806813Y-5146247D01*
X10807062Y-5146532D01*
X10807060Y-5146534D01*
X10807059Y-5146535D01*
X10807058Y-5146537D01*
X10807283Y-5146762D01*
X10824159Y-5163638D01*
X10807283Y-5180515D01*
X10807058Y-5180740D01*
X10807062Y-5180744D01*
X10806813Y-5181029D01*
X10806579Y-5181323D01*
X10806363Y-5181626D01*
X10806163Y-5181937D01*
X10805979Y-5182254D01*
X10805812Y-5182579D01*
X10805662Y-5182909D01*
X10805528Y-5183245D01*
X10805411Y-5183586D01*
X10805310Y-5183931D01*
X10805226Y-5184279D01*
X10805158Y-5184630D01*
X10805107Y-5184984D01*
X10805073Y-5185339D01*
X10805055Y-5185695D01*
X10805053Y-5186051D01*
X10736712Y-5186051D01*
X10736748Y-5185947D01*
X10738412Y-5181465D01*
X10740204Y-5177047D01*
X10742121Y-5172696D01*
X10744163Y-5168412D01*
X10746325Y-5164199D01*
X10748607Y-5160059D01*
X10751006Y-5155994D01*
X10753519Y-5152006D01*
X10756144Y-5148098D01*
X10752960Y-5145536D01*
X10749928Y-5142801D01*
X10747055Y-5139901D01*
X10744349Y-5136844D01*
X10741816Y-5133636D01*
X10739464Y-5130285D01*
X10737301Y-5126799D01*
X10735335Y-5123185D01*
X10733571Y-5119450D01*
X10732019Y-5115602D01*
X10730685Y-5111649D01*
X10729577Y-5107598D01*
X10728703Y-5103455D01*
X10728069Y-5099229D01*
X10727683Y-5094928D01*
X10727552Y-5090558D01*
X10727646Y-5086843D01*
X10727925Y-5083178D01*
X10728385Y-5079565D01*
X10729020Y-5076010D01*
X10729827Y-5072517D01*
X10730801Y-5069092D01*
X10731937Y-5065737D01*
X10733230Y-5062458D01*
X10734677Y-5059260D01*
X10736272Y-5056146D01*
X10738012Y-5053122D01*
X10739891Y-5050192D01*
X10741904Y-5047361D01*
X10744049Y-5044633D01*
X10746319Y-5042012D01*
X10748711Y-5039504D01*
X10751219Y-5037112D01*
X10753839Y-5034842D01*
X10756568Y-5032698D01*
X10759399Y-5030684D01*
X10762329Y-5028805D01*
X10765353Y-5027065D01*
X10768466Y-5025470D01*
X10771665Y-5024023D01*
X10774944Y-5022730D01*
X10778298Y-5021594D01*
X10781724Y-5020620D01*
X10785217Y-5019814D01*
X10788772Y-5019178D01*
X10792384Y-5018719D01*
X10796050Y-5018440D01*
X10799764Y-5018346D01*
X10803132Y-5018423D01*
X10806461Y-5018652D01*
X10809747Y-5019031D01*
X10812986Y-5019555D01*
X10816176Y-5020221D01*
X10819312Y-5021026D01*
X10822392Y-5021966D01*
X10825413Y-5023039D01*
X10828370Y-5024240D01*
X10831260Y-5025566D01*
X10834080Y-5027014D01*
X10836827Y-5028580D01*
X10839498Y-5030261D01*
X10842088Y-5032055D01*
X10844594Y-5033956D01*
X10847014Y-5035962D01*
X10849343Y-5038070D01*
X10851579Y-5040276D01*
X10853718Y-5042577D01*
X10855756Y-5044969D01*
X10857690Y-5047449D01*
X10859517Y-5050013D01*
X10861233Y-5052659D01*
X10862836Y-5055383D01*
X10864321Y-5058181D01*
X10865685Y-5061050D01*
X10866925Y-5063987D01*
X10868038Y-5066988D01*
X10869019Y-5070050D01*
X10869866Y-5073169D01*
X10870576Y-5076343D01*
X10871144Y-5079567D01*
X10873303Y-5079349D01*
X10875469Y-5079158D01*
X10877644Y-5078997D01*
X10879827Y-5078864D01*
X10882017Y-5078761D01*
X10884215Y-5078687D01*
X10886420Y-5078642D01*
X10888633Y-5078628D01*
X10891005Y-5078645D01*
X10893369Y-5078696D01*
X10895725Y-5078781D01*
X10898072Y-5078900D01*
X10900410Y-5079052D01*
X10902740Y-5079238D01*
X10905059Y-5079456D01*
X10907369Y-5079707D01*
X10907973Y-5076527D01*
X10908715Y-5073397D01*
X10909591Y-5070322D01*
X10910598Y-5067303D01*
X10911732Y-5064346D01*
X10912991Y-5061452D01*
X10914371Y-5058626D01*
X10915869Y-5055870D01*
X10917481Y-5053188D01*
X10919205Y-5050582D01*
X10921036Y-5048058D01*
X10922973Y-5045617D01*
X10925010Y-5043263D01*
X10927146Y-5040999D01*
X10929376Y-5038829D01*
X10931698Y-5036756D01*
X10934107Y-5034782D01*
X10936602Y-5032913D01*
X10939178Y-5031150D01*
X10941833Y-5029497D01*
X10944563Y-5027957D01*
X10947364Y-5026534D01*
X10950234Y-5025231D01*
X10953169Y-5024051D01*
X10956165Y-5022997D01*
X10959220Y-5022073D01*
X10962331Y-5021283D01*
X10965493Y-5020629D01*
X10968704Y-5020114D01*
X10971961Y-5019742D01*
X10975259Y-5019517D01*
X10978596Y-5019441D01*
X10982310Y-5019535D01*
X10985976Y-5019814D01*
X10989589Y-5020274D01*
X10993144Y-5020909D01*
X10996636Y-5021716D01*
X11000062Y-5022689D01*
X11003417Y-5023825D01*
X11006696Y-5025119D01*
X11009894Y-5026565D01*
X11013008Y-5028161D01*
X11016032Y-5029900D01*
X11018962Y-5031779D01*
X11021793Y-5033793D01*
X11024521Y-5035937D01*
X11027142Y-5038208D01*
X11029650Y-5040599D01*
X11032042Y-5043107D01*
X11034312Y-5045728D01*
X11036456Y-5048456D01*
X11038470Y-5051288D01*
X11040349Y-5054218D01*
X11042088Y-5057242D01*
X11043684Y-5060355D01*
X11045131Y-5063553D01*
X11046424Y-5066832D01*
X11047560Y-5070187D01*
X11048534Y-5073613D01*
X11049340Y-5077106D01*
X11049976Y-5080661D01*
X11050435Y-5084273D01*
X11050714Y-5087939D01*
X11050808Y-5091653D01*
X11050808Y-5091653D01*
X11050677Y-5096042D01*
X11050288Y-5100362D01*
X11049648Y-5104605D01*
X11048766Y-5108764D01*
X11047649Y-5112831D01*
X11046304Y-5116799D01*
X11044739Y-5120661D01*
X11042961Y-5124408D01*
X11040978Y-5128033D01*
X11038798Y-5131529D01*
X11036428Y-5134887D01*
X11033875Y-5138102D01*
X11031148Y-5141164D01*
X11028253Y-5144067D01*
X11025198Y-5146803D01*
X11021991Y-5149365D01*
X11024528Y-5153218D01*
X11026956Y-5157147D01*
X11029275Y-5161149D01*
X11030622Y-5163638D01*
X11031480Y-5165224D01*
X11033571Y-5169367D01*
X11035545Y-5173578D01*
X11037400Y-5177854D01*
X11039134Y-5182192D01*
X11040745Y-5186592D01*
X11042230Y-5191050D01*
X11043587Y-5195565D01*
X11044815Y-5200134D01*
X11045912Y-5204756D01*
X11046874Y-5209428D01*
X11047700Y-5214148D01*
X11048388Y-5218913D01*
X11053254Y-5212390D01*
X11057860Y-5205667D01*
X11062199Y-5198754D01*
X11066263Y-5191658D01*
X11070045Y-5184386D01*
X11073537Y-5176945D01*
X11076732Y-5169343D01*
X11079622Y-5161588D01*
X11082200Y-5153686D01*
X11084459Y-5145647D01*
X11086391Y-5137476D01*
X11087988Y-5129181D01*
X11089244Y-5120770D01*
X11090149Y-5112251D01*
X11090698Y-5103630D01*
X11090883Y-5094915D01*
X11090620Y-5084513D01*
X11089838Y-5074246D01*
X11088551Y-5064128D01*
X11086772Y-5054171D01*
X11084512Y-5044389D01*
X11081785Y-5034794D01*
X11078604Y-5025398D01*
X11074981Y-5016215D01*
X11070929Y-5007256D01*
X11066461Y-4998536D01*
X11061589Y-4990067D01*
X11056327Y-4981860D01*
X11050686Y-4973930D01*
X11044680Y-4966289D01*
X11038322Y-4958949D01*
X11031624Y-4951924D01*
X11024598Y-4945226D01*
X11017259Y-4938868D01*
X11009618Y-4932862D01*
X11001687Y-4927221D01*
X10993481Y-4921959D01*
X10985012Y-4917087D01*
X10976291Y-4912619D01*
X10967333Y-4908567D01*
X10958150Y-4904944D01*
X10948754Y-4901762D01*
X10939159Y-4899036D01*
X10929377Y-4896776D01*
X10919420Y-4894997D01*
X10909302Y-4893710D01*
X10899035Y-4892928D01*
X10888633Y-4892665D01*
X10878230Y-4892928D01*
X10867963Y-4893710D01*
X10857845Y-4894997D01*
X10847889Y-4896776D01*
X10838106Y-4899036D01*
X10828511Y-4901762D01*
X10819115Y-4904944D01*
X10809932Y-4908567D01*
X10800974Y-4912619D01*
X10792254Y-4917087D01*
X10783784Y-4921959D01*
X10775578Y-4927221D01*
X10767648Y-4932862D01*
X10760006Y-4938868D01*
X10752667Y-4945226D01*
X10745642Y-4951924D01*
X10738943Y-4958949D01*
X10732585Y-4966289D01*
X10726579Y-4973930D01*
X10720939Y-4981860D01*
X10715676Y-4990067D01*
X10710804Y-4998536D01*
X10706336Y-5007256D01*
X10702284Y-5016215D01*
X10698661Y-5025398D01*
X10695480Y-5034794D01*
X10692753Y-5044389D01*
X10690494Y-5054171D01*
X10688714Y-5064128D01*
X10687427Y-5074246D01*
X10686645Y-5084513D01*
X10686382Y-5094915D01*
X10645547Y-5094915D01*
X10645547Y-4950212D01*
X10888633Y-4809866D01*
X11131719Y-4950212D01*
X11131719Y-5094915D01*
X11131718Y-5230903D01*
X10888633Y-5371249D01*
G37*
X10888633Y-5371249D02*
X10645547Y-5230903D01*
X10645547Y-5094915D01*
X10686382Y-5094915D01*
X10686567Y-5103630D01*
X10687116Y-5112251D01*
X10688022Y-5120770D01*
X10689277Y-5129181D01*
X10690874Y-5137476D01*
X10692806Y-5145647D01*
X10695065Y-5153686D01*
X10697643Y-5161588D01*
X10700533Y-5169343D01*
X10703728Y-5176945D01*
X10707221Y-5184386D01*
X10711002Y-5191658D01*
X10715066Y-5198754D01*
X10719405Y-5205667D01*
X10724011Y-5212390D01*
X10728877Y-5218913D01*
X10729581Y-5214049D01*
X10730429Y-5209232D01*
X10731418Y-5204466D01*
X10732547Y-5199752D01*
X10733813Y-5195093D01*
X10735214Y-5190490D01*
X10736712Y-5186051D01*
X10805053Y-5186051D01*
X10805069Y-5186407D01*
X10805100Y-5186763D01*
X10805149Y-5187116D01*
X10805213Y-5187468D01*
X10805295Y-5187817D01*
X10805393Y-5188162D01*
X10805507Y-5188504D01*
X10805638Y-5188840D01*
X10805786Y-5189172D01*
X10805950Y-5189497D01*
X10806131Y-5189816D01*
X10806328Y-5190128D01*
X10806542Y-5190432D01*
X10806772Y-5190728D01*
X10807019Y-5191014D01*
X10807283Y-5191291D01*
X10807559Y-5191554D01*
X10807846Y-5191801D01*
X10808142Y-5192032D01*
X10808446Y-5192246D01*
X10808757Y-5192443D01*
X10809076Y-5192624D01*
X10809402Y-5192788D01*
X10809733Y-5192935D01*
X10810070Y-5193066D01*
X10810411Y-5193181D01*
X10810757Y-5193279D01*
X10811106Y-5193360D01*
X10811457Y-5193425D01*
X10811811Y-5193473D01*
X10812166Y-5193505D01*
X10812522Y-5193520D01*
X10812879Y-5193519D01*
X10813235Y-5193501D01*
X10813590Y-5193466D01*
X10813943Y-5193415D01*
X10814295Y-5193348D01*
X10814643Y-5193264D01*
X10814988Y-5193163D01*
X10815328Y-5193046D01*
X10815664Y-5192912D01*
X10815995Y-5192761D01*
X10816319Y-5192594D01*
X10816637Y-5192411D01*
X10816948Y-5192211D01*
X10817250Y-5191994D01*
X10817544Y-5191761D01*
X10817829Y-5191511D01*
X10817830Y-5191512D01*
X10817830Y-5191512D01*
X10817832Y-5191514D01*
X10817833Y-5191515D01*
X10817834Y-5191516D01*
X10818059Y-5191291D01*
X10834935Y-5174414D01*
X10852037Y-5191516D01*
X10852039Y-5191514D01*
X10852040Y-5191512D01*
X10852042Y-5191511D01*
X10852327Y-5191761D01*
X10852621Y-5191994D01*
X10852923Y-5192211D01*
X10853234Y-5192411D01*
X10853552Y-5192594D01*
X10853876Y-5192761D01*
X10854207Y-5192912D01*
X10854542Y-5193046D01*
X10854883Y-5193163D01*
X10855228Y-5193264D01*
X10855576Y-5193348D01*
X10855927Y-5193415D01*
X10856281Y-5193466D01*
X10856636Y-5193501D01*
X10856992Y-5193519D01*
X10857348Y-5193520D01*
X10857705Y-5193505D01*
X10858060Y-5193473D01*
X10858414Y-5193425D01*
X10858765Y-5193360D01*
X10859114Y-5193279D01*
X10859459Y-5193181D01*
X10859801Y-5193066D01*
X10860138Y-5192935D01*
X10860469Y-5192788D01*
X10860795Y-5192624D01*
X10861114Y-5192443D01*
X10861425Y-5192246D01*
X10861729Y-5192032D01*
X10862025Y-5191801D01*
X10862311Y-5191554D01*
X10862588Y-5191291D01*
X10862852Y-5191014D01*
X10863099Y-5190728D01*
X10863329Y-5190432D01*
X10863543Y-5190128D01*
X10863740Y-5189816D01*
X10863921Y-5189497D01*
X10864085Y-5189172D01*
X10864233Y-5188840D01*
X10864364Y-5188504D01*
X10864478Y-5188162D01*
X10864576Y-5187817D01*
X10864658Y-5187468D01*
X10864722Y-5187116D01*
X10864771Y-5186763D01*
X10864802Y-5186407D01*
X10864818Y-5186051D01*
X10864816Y-5185695D01*
X10864798Y-5185339D01*
X10864764Y-5184984D01*
X10864713Y-5184630D01*
X10864645Y-5184279D01*
X10864561Y-5183931D01*
X10864460Y-5183586D01*
X10864343Y-5183245D01*
X10864209Y-5182909D01*
X10864059Y-5182579D01*
X10863892Y-5182254D01*
X10863708Y-5181937D01*
X10863508Y-5181626D01*
X10863292Y-5181323D01*
X10863058Y-5181029D01*
X10862809Y-5180744D01*
X10862813Y-5180740D01*
X10845712Y-5163638D01*
X10903223Y-5163638D01*
X10903232Y-5164020D01*
X10903260Y-5164397D01*
X10903306Y-5164769D01*
X10903370Y-5165135D01*
X10903451Y-5165495D01*
X10903549Y-5165849D01*
X10903663Y-5166195D01*
X10903793Y-5166534D01*
X10903938Y-5166865D01*
X10904099Y-5167187D01*
X10904274Y-5167500D01*
X10904463Y-5167805D01*
X10904666Y-5168099D01*
X10904882Y-5168383D01*
X10905111Y-5168657D01*
X10905352Y-5168920D01*
X10905605Y-5169171D01*
X10905869Y-5169410D01*
X10906145Y-5169636D01*
X10906431Y-5169850D01*
X10906727Y-5170051D01*
X10907033Y-5170238D01*
X10907348Y-5170410D01*
X10907671Y-5170568D01*
X10908004Y-5170711D01*
X10908344Y-5170838D01*
X10908691Y-5170950D01*
X10909046Y-5171045D01*
X10909407Y-5171123D01*
X10909774Y-5171184D01*
X10910147Y-5171227D01*
X10910525Y-5171252D01*
X10910525Y-5171258D01*
X10934710Y-5171258D01*
X10934710Y-5195443D01*
X10934716Y-5195443D01*
X10934741Y-5195821D01*
X10934784Y-5196194D01*
X10934845Y-5196561D01*
X10934923Y-5196922D01*
X10935018Y-5197277D01*
X10935130Y-5197624D01*
X10935257Y-5197964D01*
X10935400Y-5198297D01*
X10935558Y-5198620D01*
X10935730Y-5198935D01*
X10935917Y-5199241D01*
X10936118Y-5199537D01*
X10936332Y-5199823D01*
X10936558Y-5200099D01*
X10936797Y-5200363D01*
X10937048Y-5200616D01*
X10937311Y-5200857D01*
X10937585Y-5201086D01*
X10937869Y-5201302D01*
X10938163Y-5201505D01*
X10938468Y-5201694D01*
X10938781Y-5201869D01*
X10939103Y-5202030D01*
X10939434Y-5202175D01*
X10939773Y-5202305D01*
X10940119Y-5202419D01*
X10940473Y-5202517D01*
X10940832Y-5202598D01*
X10941199Y-5202662D01*
X10941571Y-5202708D01*
X10941948Y-5202736D01*
X10942330Y-5202745D01*
X10942712Y-5202736D01*
X10943089Y-5202708D01*
X10943461Y-5202662D01*
X10943827Y-5202598D01*
X10944187Y-5202517D01*
X10944540Y-5202419D01*
X10944887Y-5202305D01*
X10945225Y-5202175D01*
X10945556Y-5202030D01*
X10945879Y-5201869D01*
X10946192Y-5201694D01*
X10946496Y-5201505D01*
X10946791Y-5201302D01*
X10947075Y-5201086D01*
X10947349Y-5200857D01*
X10947611Y-5200616D01*
X10947862Y-5200363D01*
X10948101Y-5200099D01*
X10948328Y-5199823D01*
X10948542Y-5199537D01*
X10948742Y-5199241D01*
X10948929Y-5198935D01*
X10949102Y-5198620D01*
X10949260Y-5198297D01*
X10949403Y-5197964D01*
X10949530Y-5197624D01*
X10949641Y-5197277D01*
X10949736Y-5196922D01*
X10949815Y-5196561D01*
X10949875Y-5196194D01*
X10949918Y-5195821D01*
X10949943Y-5195443D01*
X10949950Y-5195443D01*
X10949950Y-5171258D01*
X10974135Y-5171258D01*
X10974135Y-5171252D01*
X10974513Y-5171227D01*
X10974886Y-5171184D01*
X10975253Y-5171123D01*
X10975614Y-5171045D01*
X10975969Y-5170950D01*
X10976316Y-5170838D01*
X10976656Y-5170711D01*
X10976988Y-5170568D01*
X10977312Y-5170410D01*
X10977627Y-5170238D01*
X10977933Y-5170051D01*
X10978229Y-5169850D01*
X10978515Y-5169636D01*
X10978790Y-5169410D01*
X10979055Y-5169171D01*
X10979308Y-5168920D01*
X10979549Y-5168657D01*
X10979778Y-5168383D01*
X10979994Y-5168099D01*
X10980197Y-5167805D01*
X10980386Y-5167500D01*
X10980561Y-5167187D01*
X10980721Y-5166865D01*
X10980867Y-5166534D01*
X10980997Y-5166195D01*
X10981111Y-5165849D01*
X10981209Y-5165495D01*
X10981290Y-5165135D01*
X10981353Y-5164769D01*
X10981399Y-5164397D01*
X10981427Y-5164020D01*
X10981437Y-5163638D01*
X10981427Y-5163256D01*
X10981399Y-5162879D01*
X10981353Y-5162507D01*
X10981290Y-5162141D01*
X10981209Y-5161781D01*
X10981111Y-5161427D01*
X10980997Y-5161081D01*
X10980867Y-5160742D01*
X10980721Y-5160412D01*
X10980561Y-5160089D01*
X10980386Y-5159776D01*
X10980197Y-5159472D01*
X10979994Y-5159177D01*
X10979778Y-5158893D01*
X10979549Y-5158619D01*
X10979308Y-5158357D01*
X10979055Y-5158106D01*
X10978791Y-5157867D01*
X10978515Y-5157640D01*
X10978229Y-5157426D01*
X10977933Y-5157226D01*
X10977627Y-5157039D01*
X10977312Y-5156866D01*
X10976988Y-5156708D01*
X10976656Y-5156565D01*
X10976316Y-5156438D01*
X10975969Y-5156327D01*
X10975614Y-5156232D01*
X10975253Y-5156153D01*
X10974886Y-5156093D01*
X10974513Y-5156050D01*
X10974135Y-5156025D01*
X10974135Y-5156018D01*
X10949950Y-5156018D01*
X10949950Y-5131833D01*
X10949943Y-5131833D01*
X10949918Y-5131455D01*
X10949875Y-5131082D01*
X10949815Y-5130715D01*
X10949736Y-5130354D01*
X10949641Y-5129999D01*
X10949530Y-5129652D01*
X10949403Y-5129312D01*
X10949260Y-5128980D01*
X10949102Y-5128656D01*
X10948929Y-5128341D01*
X10948742Y-5128035D01*
X10948542Y-5127739D01*
X10948328Y-5127453D01*
X10948101Y-5127177D01*
X10947862Y-5126913D01*
X10947611Y-5126660D01*
X10947349Y-5126419D01*
X10947075Y-5126190D01*
X10946791Y-5125974D01*
X10946496Y-5125771D01*
X10946192Y-5125582D01*
X10945879Y-5125407D01*
X10945556Y-5125247D01*
X10945225Y-5125101D01*
X10944887Y-5124971D01*
X10944540Y-5124857D01*
X10944187Y-5124759D01*
X10943827Y-5124678D01*
X10943461Y-5124615D01*
X10943089Y-5124569D01*
X10942712Y-5124541D01*
X10942330Y-5124531D01*
X10941948Y-5124541D01*
X10941571Y-5124569D01*
X10941199Y-5124615D01*
X10940832Y-5124678D01*
X10940473Y-5124759D01*
X10940119Y-5124857D01*
X10939773Y-5124971D01*
X10939434Y-5125101D01*
X10939103Y-5125247D01*
X10938781Y-5125407D01*
X10938468Y-5125582D01*
X10938163Y-5125771D01*
X10937869Y-5125974D01*
X10937585Y-5126190D01*
X10937311Y-5126419D01*
X10937048Y-5126660D01*
X10936797Y-5126913D01*
X10936558Y-5127177D01*
X10936332Y-5127453D01*
X10936118Y-5127739D01*
X10935917Y-5128035D01*
X10935730Y-5128341D01*
X10935558Y-5128656D01*
X10935400Y-5128980D01*
X10935257Y-5129312D01*
X10935130Y-5129652D01*
X10935018Y-5129999D01*
X10934923Y-5130354D01*
X10934845Y-5130715D01*
X10934784Y-5131082D01*
X10934741Y-5131455D01*
X10934716Y-5131833D01*
X10934710Y-5131833D01*
X10934710Y-5156018D01*
X10910833Y-5156018D01*
X10910525Y-5156018D01*
X10910525Y-5156025D01*
X10910147Y-5156050D01*
X10909774Y-5156093D01*
X10909407Y-5156153D01*
X10909046Y-5156232D01*
X10908691Y-5156327D01*
X10908344Y-5156438D01*
X10908004Y-5156565D01*
X10907671Y-5156708D01*
X10907348Y-5156866D01*
X10907033Y-5157039D01*
X10906727Y-5157225D01*
X10906431Y-5157426D01*
X10906145Y-5157640D01*
X10905869Y-5157866D01*
X10905605Y-5158106D01*
X10905352Y-5158357D01*
X10905111Y-5158619D01*
X10904882Y-5158893D01*
X10904666Y-5159177D01*
X10904463Y-5159472D01*
X10904274Y-5159776D01*
X10904099Y-5160089D01*
X10903938Y-5160412D01*
X10903793Y-5160742D01*
X10903663Y-5161081D01*
X10903549Y-5161427D01*
X10903451Y-5161781D01*
X10903370Y-5162141D01*
X10903306Y-5162507D01*
X10903260Y-5162879D01*
X10903232Y-5163256D01*
X10903223Y-5163638D01*
X10845712Y-5163638D01*
X10862588Y-5146762D01*
X10862813Y-5146537D01*
X10862809Y-5146532D01*
X10863058Y-5146247D01*
X10863292Y-5145953D01*
X10863508Y-5145650D01*
X10863708Y-5145340D01*
X10863892Y-5145022D01*
X10864059Y-5144698D01*
X10864209Y-5144367D01*
X10864343Y-5144031D01*
X10864460Y-5143690D01*
X10864561Y-5143346D01*
X10864645Y-5142997D01*
X10864713Y-5142646D01*
X10864764Y-5142293D01*
X10864798Y-5141938D01*
X10864816Y-5141582D01*
X10864818Y-5141225D01*
X10864802Y-5140869D01*
X10864771Y-5140514D01*
X10864722Y-5140160D01*
X10864658Y-5139808D01*
X10864576Y-5139460D01*
X10864478Y-5139114D01*
X10864364Y-5138773D01*
X10864233Y-5138436D01*
X10864085Y-5138105D01*
X10863921Y-5137779D01*
X10863740Y-5137460D01*
X10863543Y-5137148D01*
X10863329Y-5136844D01*
X10863099Y-5136549D01*
X10862852Y-5136262D01*
X10862588Y-5135985D01*
X10862311Y-5135722D01*
X10862025Y-5135475D01*
X10861729Y-5135244D01*
X10861425Y-5135031D01*
X10861114Y-5134833D01*
X10860795Y-5134653D01*
X10860469Y-5134488D01*
X10860138Y-5134341D01*
X10859801Y-5134210D01*
X10859459Y-5134095D01*
X10859114Y-5133997D01*
X10858765Y-5133916D01*
X10858414Y-5133851D01*
X10858060Y-5133803D01*
X10857705Y-5133771D01*
X10857348Y-5133756D01*
X10856992Y-5133757D01*
X10856636Y-5133775D01*
X10856281Y-5133810D01*
X10855927Y-5133861D01*
X10855576Y-5133929D01*
X10855228Y-5134013D01*
X10854883Y-5134113D01*
X10854542Y-5134231D01*
X10854207Y-5134365D01*
X10853876Y-5134515D01*
X10853552Y-5134682D01*
X10853234Y-5134865D01*
X10852923Y-5135065D01*
X10852621Y-5135282D01*
X10852327Y-5135515D01*
X10852042Y-5135765D01*
X10852037Y-5135760D01*
X10851812Y-5135985D01*
X10834935Y-5152862D01*
X10818059Y-5135985D01*
X10818056Y-5135982D01*
X10818054Y-5135980D01*
X10818052Y-5135979D01*
X10817834Y-5135760D01*
X10817829Y-5135765D01*
X10817544Y-5135515D01*
X10817250Y-5135282D01*
X10816948Y-5135065D01*
X10816637Y-5134865D01*
X10816319Y-5134682D01*
X10815995Y-5134515D01*
X10815664Y-5134365D01*
X10815328Y-5134231D01*
X10814988Y-5134113D01*
X10814643Y-5134013D01*
X10814295Y-5133929D01*
X10813943Y-5133861D01*
X10813590Y-5133810D01*
X10813235Y-5133775D01*
X10812879Y-5133757D01*
X10812523Y-5133756D01*
X10812166Y-5133771D01*
X10811811Y-5133803D01*
X10811457Y-5133851D01*
X10811106Y-5133916D01*
X10810757Y-5133997D01*
X10810411Y-5134095D01*
X10810070Y-5134210D01*
X10809733Y-5134341D01*
X10809402Y-5134489D01*
X10809076Y-5134653D01*
X10808757Y-5134833D01*
X10808446Y-5135031D01*
X10808142Y-5135245D01*
X10807846Y-5135475D01*
X10807559Y-5135722D01*
X10807283Y-5135985D01*
X10807019Y-5136262D01*
X10806772Y-5136549D01*
X10806542Y-5136844D01*
X10806328Y-5137148D01*
X10806131Y-5137460D01*
X10805950Y-5137779D01*
X10805786Y-5138105D01*
X10805638Y-5138436D01*
X10805507Y-5138773D01*
X10805393Y-5139114D01*
X10805295Y-5139460D01*
X10805213Y-5139808D01*
X10805149Y-5140160D01*
X10805100Y-5140514D01*
X10805069Y-5140869D01*
X10805053Y-5141225D01*
X10805055Y-5141582D01*
X10805073Y-5141938D01*
X10805107Y-5142293D01*
X10805158Y-5142646D01*
X10805226Y-5142997D01*
X10805310Y-5143346D01*
X10805411Y-5143690D01*
X10805528Y-5144031D01*
X10805662Y-5144367D01*
X10805812Y-5144698D01*
X10805979Y-5145022D01*
X10806163Y-5145340D01*
X10806363Y-5145650D01*
X10806579Y-5145953D01*
X10806813Y-5146247D01*
X10807062Y-5146532D01*
X10807060Y-5146534D01*
X10807059Y-5146535D01*
X10807058Y-5146537D01*
X10807283Y-5146762D01*
X10824159Y-5163638D01*
X10807283Y-5180515D01*
X10807058Y-5180740D01*
X10807062Y-5180744D01*
X10806813Y-5181029D01*
X10806579Y-5181323D01*
X10806363Y-5181626D01*
X10806163Y-5181937D01*
X10805979Y-5182254D01*
X10805812Y-5182579D01*
X10805662Y-5182909D01*
X10805528Y-5183245D01*
X10805411Y-5183586D01*
X10805310Y-5183931D01*
X10805226Y-5184279D01*
X10805158Y-5184630D01*
X10805107Y-5184984D01*
X10805073Y-5185339D01*
X10805055Y-5185695D01*
X10805053Y-5186051D01*
X10736712Y-5186051D01*
X10736748Y-5185947D01*
X10738412Y-5181465D01*
X10740204Y-5177047D01*
X10742121Y-5172696D01*
X10744163Y-5168412D01*
X10746325Y-5164199D01*
X10748607Y-5160059D01*
X10751006Y-5155994D01*
X10753519Y-5152006D01*
X10756144Y-5148098D01*
X10752960Y-5145536D01*
X10749928Y-5142801D01*
X10747055Y-5139901D01*
X10744349Y-5136844D01*
X10741816Y-5133636D01*
X10739464Y-5130285D01*
X10737301Y-5126799D01*
X10735335Y-5123185D01*
X10733571Y-5119450D01*
X10732019Y-5115602D01*
X10730685Y-5111649D01*
X10729577Y-5107598D01*
X10728703Y-5103455D01*
X10728069Y-5099229D01*
X10727683Y-5094928D01*
X10727552Y-5090558D01*
X10727646Y-5086843D01*
X10727925Y-5083178D01*
X10728385Y-5079565D01*
X10729020Y-5076010D01*
X10729827Y-5072517D01*
X10730801Y-5069092D01*
X10731937Y-5065737D01*
X10733230Y-5062458D01*
X10734677Y-5059260D01*
X10736272Y-5056146D01*
X10738012Y-5053122D01*
X10739891Y-5050192D01*
X10741904Y-5047361D01*
X10744049Y-5044633D01*
X10746319Y-5042012D01*
X10748711Y-5039504D01*
X10751219Y-5037112D01*
X10753839Y-5034842D01*
X10756568Y-5032698D01*
X10759399Y-5030684D01*
X10762329Y-5028805D01*
X10765353Y-5027065D01*
X10768466Y-5025470D01*
X10771665Y-5024023D01*
X10774944Y-5022730D01*
X10778298Y-5021594D01*
X10781724Y-5020620D01*
X10785217Y-5019814D01*
X10788772Y-5019178D01*
X10792384Y-5018719D01*
X10796050Y-5018440D01*
X10799764Y-5018346D01*
X10803132Y-5018423D01*
X10806461Y-5018652D01*
X10809747Y-5019031D01*
X10812986Y-5019555D01*
X10816176Y-5020221D01*
X10819312Y-5021026D01*
X10822392Y-5021966D01*
X10825413Y-5023039D01*
X10828370Y-5024240D01*
X10831260Y-5025566D01*
X10834080Y-5027014D01*
X10836827Y-5028580D01*
X10839498Y-5030261D01*
X10842088Y-5032055D01*
X10844594Y-5033956D01*
X10847014Y-5035962D01*
X10849343Y-5038070D01*
X10851579Y-5040276D01*
X10853718Y-5042577D01*
X10855756Y-5044969D01*
X10857690Y-5047449D01*
X10859517Y-5050013D01*
X10861233Y-5052659D01*
X10862836Y-5055383D01*
X10864321Y-5058181D01*
X10865685Y-5061050D01*
X10866925Y-5063987D01*
X10868038Y-5066988D01*
X10869019Y-5070050D01*
X10869866Y-5073169D01*
X10870576Y-5076343D01*
X10871144Y-5079567D01*
X10873303Y-5079349D01*
X10875469Y-5079158D01*
X10877644Y-5078997D01*
X10879827Y-5078864D01*
X10882017Y-5078761D01*
X10884215Y-5078687D01*
X10886420Y-5078642D01*
X10888633Y-5078628D01*
X10891005Y-5078645D01*
X10893369Y-5078696D01*
X10895725Y-5078781D01*
X10898072Y-5078900D01*
X10900410Y-5079052D01*
X10902740Y-5079238D01*
X10905059Y-5079456D01*
X10907369Y-5079707D01*
X10907973Y-5076527D01*
X10908715Y-5073397D01*
X10909591Y-5070322D01*
X10910598Y-5067303D01*
X10911732Y-5064346D01*
X10912991Y-5061452D01*
X10914371Y-5058626D01*
X10915869Y-5055870D01*
X10917481Y-5053188D01*
X10919205Y-5050582D01*
X10921036Y-5048058D01*
X10922973Y-5045617D01*
X10925010Y-5043263D01*
X10927146Y-5040999D01*
X10929376Y-5038829D01*
X10931698Y-5036756D01*
X10934107Y-5034782D01*
X10936602Y-5032913D01*
X10939178Y-5031150D01*
X10941833Y-5029497D01*
X10944563Y-5027957D01*
X10947364Y-5026534D01*
X10950234Y-5025231D01*
X10953169Y-5024051D01*
X10956165Y-5022997D01*
X10959220Y-5022073D01*
X10962331Y-5021283D01*
X10965493Y-5020629D01*
X10968704Y-5020114D01*
X10971961Y-5019742D01*
X10975259Y-5019517D01*
X10978596Y-5019441D01*
X10982310Y-5019535D01*
X10985976Y-5019814D01*
X10989589Y-5020274D01*
X10993144Y-5020909D01*
X10996636Y-5021716D01*
X11000062Y-5022689D01*
X11003417Y-5023825D01*
X11006696Y-5025119D01*
X11009894Y-5026565D01*
X11013008Y-5028161D01*
X11016032Y-5029900D01*
X11018962Y-5031779D01*
X11021793Y-5033793D01*
X11024521Y-5035937D01*
X11027142Y-5038208D01*
X11029650Y-5040599D01*
X11032042Y-5043107D01*
X11034312Y-5045728D01*
X11036456Y-5048456D01*
X11038470Y-5051288D01*
X11040349Y-5054218D01*
X11042088Y-5057242D01*
X11043684Y-5060355D01*
X11045131Y-5063553D01*
X11046424Y-5066832D01*
X11047560Y-5070187D01*
X11048534Y-5073613D01*
X11049340Y-5077106D01*
X11049976Y-5080661D01*
X11050435Y-5084273D01*
X11050714Y-5087939D01*
X11050808Y-5091653D01*
X11050808Y-5091653D01*
X11050677Y-5096042D01*
X11050288Y-5100362D01*
X11049648Y-5104605D01*
X11048766Y-5108764D01*
X11047649Y-5112831D01*
X11046304Y-5116799D01*
X11044739Y-5120661D01*
X11042961Y-5124408D01*
X11040978Y-5128033D01*
X11038798Y-5131529D01*
X11036428Y-5134887D01*
X11033875Y-5138102D01*
X11031148Y-5141164D01*
X11028253Y-5144067D01*
X11025198Y-5146803D01*
X11021991Y-5149365D01*
X11024528Y-5153218D01*
X11026956Y-5157147D01*
X11029275Y-5161149D01*
X11030622Y-5163638D01*
X11031480Y-5165224D01*
X11033571Y-5169367D01*
X11035545Y-5173578D01*
X11037400Y-5177854D01*
X11039134Y-5182192D01*
X11040745Y-5186592D01*
X11042230Y-5191050D01*
X11043587Y-5195565D01*
X11044815Y-5200134D01*
X11045912Y-5204756D01*
X11046874Y-5209428D01*
X11047700Y-5214148D01*
X11048388Y-5218913D01*
X11053254Y-5212390D01*
X11057860Y-5205667D01*
X11062199Y-5198754D01*
X11066263Y-5191658D01*
X11070045Y-5184386D01*
X11073537Y-5176945D01*
X11076732Y-5169343D01*
X11079622Y-5161588D01*
X11082200Y-5153686D01*
X11084459Y-5145647D01*
X11086391Y-5137476D01*
X11087988Y-5129181D01*
X11089244Y-5120770D01*
X11090149Y-5112251D01*
X11090698Y-5103630D01*
X11090883Y-5094915D01*
X11090620Y-5084513D01*
X11089838Y-5074246D01*
X11088551Y-5064128D01*
X11086772Y-5054171D01*
X11084512Y-5044389D01*
X11081785Y-5034794D01*
X11078604Y-5025398D01*
X11074981Y-5016215D01*
X11070929Y-5007256D01*
X11066461Y-4998536D01*
X11061589Y-4990067D01*
X11056327Y-4981860D01*
X11050686Y-4973930D01*
X11044680Y-4966289D01*
X11038322Y-4958949D01*
X11031624Y-4951924D01*
X11024598Y-4945226D01*
X11017259Y-4938868D01*
X11009618Y-4932862D01*
X11001687Y-4927221D01*
X10993481Y-4921959D01*
X10985012Y-4917087D01*
X10976291Y-4912619D01*
X10967333Y-4908567D01*
X10958150Y-4904944D01*
X10948754Y-4901762D01*
X10939159Y-4899036D01*
X10929377Y-4896776D01*
X10919420Y-4894997D01*
X10909302Y-4893710D01*
X10899035Y-4892928D01*
X10888633Y-4892665D01*
X10878230Y-4892928D01*
X10867963Y-4893710D01*
X10857845Y-4894997D01*
X10847889Y-4896776D01*
X10838106Y-4899036D01*
X10828511Y-4901762D01*
X10819115Y-4904944D01*
X10809932Y-4908567D01*
X10800974Y-4912619D01*
X10792254Y-4917087D01*
X10783784Y-4921959D01*
X10775578Y-4927221D01*
X10767648Y-4932862D01*
X10760006Y-4938868D01*
X10752667Y-4945226D01*
X10745642Y-4951924D01*
X10738943Y-4958949D01*
X10732585Y-4966289D01*
X10726579Y-4973930D01*
X10720939Y-4981860D01*
X10715676Y-4990067D01*
X10710804Y-4998536D01*
X10706336Y-5007256D01*
X10702284Y-5016215D01*
X10698661Y-5025398D01*
X10695480Y-5034794D01*
X10692753Y-5044389D01*
X10690494Y-5054171D01*
X10688714Y-5064128D01*
X10687427Y-5074246D01*
X10686645Y-5084513D01*
X10686382Y-5094915D01*
X10645547Y-5094915D01*
X10645547Y-4950212D01*
X10888633Y-4809866D01*
X11131719Y-4950212D01*
X11131719Y-5094915D01*
X11131718Y-5230903D01*
X10888633Y-5371249D01*
D11*
X12056542Y-5055076D02*
X12056542Y-4955076D01*
X12047018Y-5016981D02*
X12018447Y-5055076D01*
X12018447Y-4988410D02*
X12056542Y-5026505D01*
X11961304Y-5055076D02*
X11970828Y-5050314D01*
X11975590Y-5045552D01*
X11980352Y-5036029D01*
X11980352Y-5007457D01*
X11975590Y-4997933D01*
X11970828Y-4993172D01*
X11961304Y-4988410D01*
X11947018Y-4988410D01*
X11937494Y-4993172D01*
X11932732Y-4997933D01*
X11927971Y-5007457D01*
X11927971Y-5036029D01*
X11932732Y-5045552D01*
X11937494Y-5050314D01*
X11947018Y-5055076D01*
X11961304Y-5055076D01*
X11894637Y-4988410D02*
X11875590Y-5055076D01*
X11856542Y-5007457D01*
X11837494Y-5055076D01*
X11818447Y-4988410D01*
X11737494Y-4988410D02*
X11737494Y-5069362D01*
X11742256Y-5078886D01*
X11747018Y-5083648D01*
X11756542Y-5088410D01*
X11770828Y-5088410D01*
X11780352Y-5083648D01*
X11737494Y-5050314D02*
X11747018Y-5055076D01*
X11766066Y-5055076D01*
X11775590Y-5050314D01*
X11780352Y-5045552D01*
X11785113Y-5036029D01*
X11785113Y-5007457D01*
X11780352Y-4997933D01*
X11775590Y-4993172D01*
X11766066Y-4988410D01*
X11747018Y-4988410D01*
X11737494Y-4993172D01*
X11647018Y-5055076D02*
X11647018Y-5002695D01*
X11651780Y-4993172D01*
X11661304Y-4988410D01*
X11680352Y-4988410D01*
X11689875Y-4993172D01*
X11647018Y-5050314D02*
X11656542Y-5055076D01*
X11680352Y-5055076D01*
X11689875Y-5050314D01*
X11694637Y-5040791D01*
X11694637Y-5031267D01*
X11689875Y-5021743D01*
X11680352Y-5016981D01*
X11656542Y-5016981D01*
X11647018Y-5012219D01*
X11599399Y-5055076D02*
X11599399Y-4988410D01*
X11599399Y-5007457D02*
X11594637Y-4997933D01*
X11589875Y-4993172D01*
X11580352Y-4988410D01*
X11570828Y-4988410D01*
X11547018Y-4988410D02*
X11523209Y-5055076D01*
X11499399Y-4988410D02*
X11523209Y-5055076D01*
X11532732Y-5078886D01*
X11537494Y-5083648D01*
X11547018Y-5088410D01*
X11408923Y-5055076D02*
X11466066Y-5055076D01*
X11437494Y-5055076D02*
X11437494Y-4955076D01*
X11447018Y-4969362D01*
X11456542Y-4978886D01*
X11466066Y-4983648D01*
X11323209Y-4955076D02*
X11342256Y-4955076D01*
X11351780Y-4959838D01*
X11356542Y-4964600D01*
X11366066Y-4978886D01*
X11370828Y-4997933D01*
X11370828Y-5036029D01*
X11366066Y-5045552D01*
X11361304Y-5050314D01*
X11351780Y-5055076D01*
X11332732Y-5055076D01*
X11323209Y-5050314D01*
X11318447Y-5045552D01*
X11313685Y-5036029D01*
X11313685Y-5012219D01*
X11318447Y-5002695D01*
X11323209Y-4997933D01*
X11332732Y-4993172D01*
X11351780Y-4993172D01*
X11361304Y-4997933D01*
X11366066Y-5002695D01*
X11370828Y-5012219D01*
X12132732Y-5216076D02*
X12132732Y-5116076D01*
X12132732Y-5154172D02*
X12123209Y-5149410D01*
X12104161Y-5149410D01*
X12094637Y-5154172D01*
X12089875Y-5158933D01*
X12085113Y-5168457D01*
X12085113Y-5197029D01*
X12089875Y-5206552D01*
X12094637Y-5211314D01*
X12104161Y-5216076D01*
X12123209Y-5216076D01*
X12132732Y-5211314D01*
X12051780Y-5149410D02*
X12027971Y-5216076D01*
X12004161Y-5149410D02*
X12027971Y-5216076D01*
X12037494Y-5239886D01*
X12042256Y-5244648D01*
X12051780Y-5249410D01*
X11894637Y-5211314D02*
X11885113Y-5216076D01*
X11866066Y-5216076D01*
X11856542Y-5211314D01*
X11851780Y-5201791D01*
X11851780Y-5197029D01*
X11856542Y-5187505D01*
X11866066Y-5182743D01*
X11880352Y-5182743D01*
X11889875Y-5177981D01*
X11894637Y-5168457D01*
X11894637Y-5163695D01*
X11889875Y-5154172D01*
X11880352Y-5149410D01*
X11866066Y-5149410D01*
X11856542Y-5154172D01*
X11808923Y-5149410D02*
X11808923Y-5249410D01*
X11808923Y-5154172D02*
X11799399Y-5149410D01*
X11780352Y-5149410D01*
X11770828Y-5154172D01*
X11766066Y-5158933D01*
X11761304Y-5168457D01*
X11761304Y-5197029D01*
X11766066Y-5206552D01*
X11770828Y-5211314D01*
X11780352Y-5216076D01*
X11799399Y-5216076D01*
X11808923Y-5211314D01*
X11704161Y-5216076D02*
X11713685Y-5211314D01*
X11718447Y-5206552D01*
X11723209Y-5197029D01*
X11723209Y-5168457D01*
X11718447Y-5158933D01*
X11713685Y-5154172D01*
X11704161Y-5149410D01*
X11689875Y-5149410D01*
X11680352Y-5154172D01*
X11675590Y-5158933D01*
X11670828Y-5168457D01*
X11670828Y-5197029D01*
X11675590Y-5206552D01*
X11680352Y-5211314D01*
X11689875Y-5216076D01*
X11704161Y-5216076D01*
X11627971Y-5216076D02*
X11627971Y-5149410D01*
X11627971Y-5168457D02*
X11623209Y-5158933D01*
X11618447Y-5154172D01*
X11608923Y-5149410D01*
X11599399Y-5149410D01*
X11527971Y-5211314D02*
X11537494Y-5216076D01*
X11556542Y-5216076D01*
X11566066Y-5211314D01*
X11570828Y-5201791D01*
X11570828Y-5163695D01*
X11566066Y-5154172D01*
X11556542Y-5149410D01*
X11537494Y-5149410D01*
X11527971Y-5154172D01*
X11523209Y-5163695D01*
X11523209Y-5173219D01*
X11570828Y-5182743D01*
X11489875Y-5149410D02*
X11470828Y-5216076D01*
X11451780Y-5168457D01*
X11432732Y-5216076D01*
X11413685Y-5149410D01*
X11361304Y-5216076D02*
X11370828Y-5211314D01*
X11375590Y-5206552D01*
X11380352Y-5197029D01*
X11380352Y-5168457D01*
X11375590Y-5158933D01*
X11370828Y-5154172D01*
X11361304Y-5149410D01*
X11347018Y-5149410D01*
X11337494Y-5154172D01*
X11332732Y-5158933D01*
X11327971Y-5168457D01*
X11327971Y-5197029D01*
X11332732Y-5206552D01*
X11337494Y-5211314D01*
X11347018Y-5216076D01*
X11361304Y-5216076D01*
X11285113Y-5216076D02*
X11285113Y-5116076D01*
X11242256Y-5216076D02*
X11242256Y-5163695D01*
X11247018Y-5154172D01*
X11256542Y-5149410D01*
X11270828Y-5149410D01*
X11280352Y-5154172D01*
X11285113Y-5158933D01*
X11830352Y-5310410D02*
X11806542Y-5377076D01*
X11782732Y-5310410D01*
X11725590Y-5277076D02*
X11716066Y-5277076D01*
X11706542Y-5281838D01*
X11701780Y-5286600D01*
X11697018Y-5296124D01*
X11692256Y-5315172D01*
X11692256Y-5338981D01*
X11697018Y-5358029D01*
X11701780Y-5367552D01*
X11706542Y-5372314D01*
X11716066Y-5377076D01*
X11725590Y-5377076D01*
X11735113Y-5372314D01*
X11739875Y-5367552D01*
X11744637Y-5358029D01*
X11749399Y-5338981D01*
X11749399Y-5315172D01*
X11744637Y-5296124D01*
X11739875Y-5286600D01*
X11735113Y-5281838D01*
X11725590Y-5277076D01*
X11649399Y-5367552D02*
X11644637Y-5372314D01*
X11649399Y-5377076D01*
X11654161Y-5372314D01*
X11649399Y-5367552D01*
X11649399Y-5377076D01*
X11582732Y-5277076D02*
X11573209Y-5277076D01*
X11563685Y-5281838D01*
X11558923Y-5286600D01*
X11554161Y-5296124D01*
X11549399Y-5315172D01*
X11549399Y-5338981D01*
X11554161Y-5358029D01*
X11558923Y-5367552D01*
X11563685Y-5372314D01*
X11573209Y-5377076D01*
X11582732Y-5377076D01*
X11592256Y-5372314D01*
X11597018Y-5367552D01*
X11601780Y-5358029D01*
X11606542Y-5338981D01*
X11606542Y-5315172D01*
X11601780Y-5296124D01*
X11597018Y-5286600D01*
X11592256Y-5281838D01*
X11582732Y-5277076D01*
D12*
X10255353Y-1718451D02*
X10255353Y-1861309D01*
X10207733Y-1651785D02*
X10226781Y-1680356D01*
X10255353Y-1718451D01*
X10293448Y-1747023D01*
X10322019Y-1766070D01*
X10122019Y-1756547D02*
X9969638Y-1756547D01*
X9893448Y-1708928D02*
X9779162Y-1708928D01*
X9836305Y-1651785D02*
X9836305Y-1851785D01*
X9864876Y-1842261D01*
X9807733Y-1747023D02*
X9779162Y-1823213D01*
X9874400Y-1747023D02*
X9883924Y-1775594D01*
X9893448Y-1794642D01*
X9902972Y-1823213D01*
X9702972Y-1756547D02*
X9550591Y-1756547D01*
X9474400Y-1842261D02*
X9464876Y-1851785D01*
X9474400Y-1861309D01*
X9483924Y-1851785D01*
X9474400Y-1842261D01*
X9474400Y-1861309D01*
X9474400Y-1785118D02*
X9483924Y-1670832D01*
X9474400Y-1661309D01*
X9464876Y-1670832D01*
X9474400Y-1785118D01*
X9474400Y-1661309D01*
X9379162Y-1842261D02*
X9369638Y-1851785D01*
X9379162Y-1861309D01*
X9388686Y-1851785D01*
X9379162Y-1842261D01*
X9379162Y-1861309D01*
X9379162Y-1785118D02*
X9388686Y-1670832D01*
X9379162Y-1661309D01*
X9369638Y-1670832D01*
X9379162Y-1785118D01*
X9379162Y-1661309D01*
D11*
G04 #@! TO.C,SW23*
X11368447Y-5577973D02*
X11354161Y-5582735D01*
X11330352Y-5582735D01*
X11320828Y-5577973D01*
X11316066Y-5573212D01*
X11311304Y-5563688D01*
X11311304Y-5554164D01*
X11316066Y-5544640D01*
X11320828Y-5539878D01*
X11330352Y-5535116D01*
X11349399Y-5530354D01*
X11358923Y-5525593D01*
X11363685Y-5520831D01*
X11368447Y-5511307D01*
X11368447Y-5501783D01*
X11363685Y-5492259D01*
X11358923Y-5487497D01*
X11349399Y-5482735D01*
X11325590Y-5482735D01*
X11311304Y-5487497D01*
X11277971Y-5482735D02*
X11254161Y-5582735D01*
X11235113Y-5511307D01*
X11216066Y-5582735D01*
X11192256Y-5482735D01*
X11158923Y-5492259D02*
X11154161Y-5487497D01*
X11144637Y-5482735D01*
X11120828Y-5482735D01*
X11111304Y-5487497D01*
X11106542Y-5492259D01*
X11101780Y-5501783D01*
X11101780Y-5511307D01*
X11106542Y-5525593D01*
X11163685Y-5582735D01*
X11101780Y-5582735D01*
X11068447Y-5482735D02*
X11006542Y-5482735D01*
X11039875Y-5520831D01*
X11025590Y-5520831D01*
X11016066Y-5525593D01*
X11011304Y-5530354D01*
X11006542Y-5539878D01*
X11006542Y-5563688D01*
X11011304Y-5573212D01*
X11016066Y-5577973D01*
X11025590Y-5582735D01*
X11054161Y-5582735D01*
X11063685Y-5577973D01*
X11068447Y-5573212D01*
G04 #@! TO.C,SW13*
X11368447Y-3877974D02*
X11354161Y-3882736D01*
X11330352Y-3882736D01*
X11320828Y-3877974D01*
X11316066Y-3873212D01*
X11311304Y-3863688D01*
X11311304Y-3854165D01*
X11316066Y-3844641D01*
X11320828Y-3839879D01*
X11330352Y-3835117D01*
X11349399Y-3830355D01*
X11358923Y-3825593D01*
X11363685Y-3820831D01*
X11368447Y-3811308D01*
X11368447Y-3801784D01*
X11363685Y-3792260D01*
X11358923Y-3787498D01*
X11349399Y-3782736D01*
X11325590Y-3782736D01*
X11311304Y-3787498D01*
X11277971Y-3782736D02*
X11254161Y-3882736D01*
X11235113Y-3811308D01*
X11216066Y-3882736D01*
X11192256Y-3782736D01*
X11101780Y-3882736D02*
X11158923Y-3882736D01*
X11130352Y-3882736D02*
X11130352Y-3782736D01*
X11139875Y-3797022D01*
X11149399Y-3806546D01*
X11158923Y-3811308D01*
X11068447Y-3782736D02*
X11006542Y-3782736D01*
X11039875Y-3820831D01*
X11025590Y-3820831D01*
X11016066Y-3825593D01*
X11011304Y-3830355D01*
X11006542Y-3839879D01*
X11006542Y-3863688D01*
X11011304Y-3873212D01*
X11016066Y-3877974D01*
X11025590Y-3882736D01*
X11054161Y-3882736D01*
X11063685Y-3877974D01*
X11068447Y-3873212D01*
G04 #@! TO.C,SW4*
X13020827Y-2177975D02*
X13006541Y-2182737D01*
X12982732Y-2182737D01*
X12973208Y-2177975D01*
X12968446Y-2173213D01*
X12963684Y-2163689D01*
X12963684Y-2154166D01*
X12968446Y-2144642D01*
X12973208Y-2139880D01*
X12982732Y-2135118D01*
X13001779Y-2130356D01*
X13011303Y-2125594D01*
X13016065Y-2120832D01*
X13020827Y-2111308D01*
X13020827Y-2101785D01*
X13016065Y-2092261D01*
X13011303Y-2087499D01*
X13001779Y-2082737D01*
X12977970Y-2082737D01*
X12963684Y-2087499D01*
X12930351Y-2082737D02*
X12906541Y-2182737D01*
X12887494Y-2111308D01*
X12868446Y-2182737D01*
X12844636Y-2082737D01*
X12763684Y-2116070D02*
X12763684Y-2182737D01*
X12787494Y-2077975D02*
X12811303Y-2149404D01*
X12749398Y-2149404D01*
G04 #@! TO.C,SW1*
X8920829Y-2577975D02*
X8906544Y-2582737D01*
X8882734Y-2582737D01*
X8873210Y-2577975D01*
X8868448Y-2573213D01*
X8863687Y-2563689D01*
X8863687Y-2554166D01*
X8868448Y-2544642D01*
X8873210Y-2539880D01*
X8882734Y-2535118D01*
X8901782Y-2530356D01*
X8911306Y-2525594D01*
X8916068Y-2520832D01*
X8920829Y-2511308D01*
X8920829Y-2501785D01*
X8916068Y-2492261D01*
X8911306Y-2487499D01*
X8901782Y-2482737D01*
X8877972Y-2482737D01*
X8863687Y-2487499D01*
X8830353Y-2482737D02*
X8806544Y-2582737D01*
X8787496Y-2511308D01*
X8768448Y-2582737D01*
X8744639Y-2482737D01*
X8654163Y-2582737D02*
X8711306Y-2582737D01*
X8682734Y-2582737D02*
X8682734Y-2482737D01*
X8692258Y-2497023D01*
X8701782Y-2506547D01*
X8711306Y-2511308D01*
G04 #@! TO.C,SW34*
X13068446Y-7277973D02*
X13054160Y-7282734D01*
X13030351Y-7282734D01*
X13020827Y-7277973D01*
X13016065Y-7273211D01*
X13011303Y-7263687D01*
X13011303Y-7254163D01*
X13016065Y-7244639D01*
X13020827Y-7239877D01*
X13030351Y-7235115D01*
X13049398Y-7230354D01*
X13058922Y-7225592D01*
X13063684Y-7220830D01*
X13068446Y-7211306D01*
X13068446Y-7201782D01*
X13063684Y-7192258D01*
X13058922Y-7187496D01*
X13049398Y-7182734D01*
X13025589Y-7182734D01*
X13011303Y-7187496D01*
X12977970Y-7182734D02*
X12954160Y-7282734D01*
X12935113Y-7211306D01*
X12916065Y-7282734D01*
X12892256Y-7182734D01*
X12863684Y-7182734D02*
X12801779Y-7182734D01*
X12835113Y-7220830D01*
X12820827Y-7220830D01*
X12811303Y-7225592D01*
X12806541Y-7230354D01*
X12801779Y-7239877D01*
X12801779Y-7263687D01*
X12806541Y-7273211D01*
X12811303Y-7277973D01*
X12820827Y-7282734D01*
X12849398Y-7282734D01*
X12858922Y-7277973D01*
X12863684Y-7273211D01*
X12716065Y-7216068D02*
X12716065Y-7282734D01*
X12739875Y-7177973D02*
X12763684Y-7249401D01*
X12701779Y-7249401D01*
G04 #@! TO.C,SW33*
X11368447Y-7277973D02*
X11354161Y-7282734D01*
X11330352Y-7282734D01*
X11320828Y-7277973D01*
X11316066Y-7273211D01*
X11311304Y-7263687D01*
X11311304Y-7254163D01*
X11316066Y-7244639D01*
X11320828Y-7239877D01*
X11330352Y-7235115D01*
X11349399Y-7230354D01*
X11358923Y-7225592D01*
X11363685Y-7220830D01*
X11368447Y-7211306D01*
X11368447Y-7201782D01*
X11363685Y-7192258D01*
X11358923Y-7187496D01*
X11349399Y-7182734D01*
X11325590Y-7182734D01*
X11311304Y-7187496D01*
X11277971Y-7182734D02*
X11254161Y-7282734D01*
X11235113Y-7211306D01*
X11216066Y-7282734D01*
X11192256Y-7182734D01*
X11163685Y-7182734D02*
X11101780Y-7182734D01*
X11135114Y-7220830D01*
X11120828Y-7220830D01*
X11111304Y-7225592D01*
X11106542Y-7230354D01*
X11101780Y-7239877D01*
X11101780Y-7263687D01*
X11106542Y-7273211D01*
X11111304Y-7277973D01*
X11120828Y-7282734D01*
X11149399Y-7282734D01*
X11158923Y-7277973D01*
X11163685Y-7273211D01*
X11068447Y-7182734D02*
X11006542Y-7182734D01*
X11039875Y-7220830D01*
X11025590Y-7220830D01*
X11016066Y-7225592D01*
X11011304Y-7230354D01*
X11006542Y-7239877D01*
X11006542Y-7263687D01*
X11011304Y-7273211D01*
X11016066Y-7277973D01*
X11025590Y-7282734D01*
X11054161Y-7282734D01*
X11063685Y-7277973D01*
X11068447Y-7273211D01*
G04 #@! TO.C,SW24*
X13068446Y-5577973D02*
X13054160Y-5582735D01*
X13030351Y-5582735D01*
X13020827Y-5577973D01*
X13016065Y-5573212D01*
X13011303Y-5563688D01*
X13011303Y-5554164D01*
X13016065Y-5544640D01*
X13020827Y-5539878D01*
X13030351Y-5535116D01*
X13049398Y-5530354D01*
X13058922Y-5525593D01*
X13063684Y-5520831D01*
X13068446Y-5511307D01*
X13068446Y-5501783D01*
X13063684Y-5492259D01*
X13058922Y-5487497D01*
X13049398Y-5482735D01*
X13025589Y-5482735D01*
X13011303Y-5487497D01*
X12977970Y-5482735D02*
X12954160Y-5582735D01*
X12935113Y-5511307D01*
X12916065Y-5582735D01*
X12892256Y-5482735D01*
X12858922Y-5492259D02*
X12854160Y-5487497D01*
X12844636Y-5482735D01*
X12820827Y-5482735D01*
X12811303Y-5487497D01*
X12806541Y-5492259D01*
X12801779Y-5501783D01*
X12801779Y-5511307D01*
X12806541Y-5525593D01*
X12863684Y-5582735D01*
X12801779Y-5582735D01*
X12716065Y-5516069D02*
X12716065Y-5582735D01*
X12739875Y-5477973D02*
X12763684Y-5549402D01*
X12701779Y-5549402D01*
G04 #@! TO.C,SW32*
X9668448Y-7277973D02*
X9654162Y-7282734D01*
X9630352Y-7282734D01*
X9620829Y-7277973D01*
X9616067Y-7273211D01*
X9611305Y-7263687D01*
X9611305Y-7254163D01*
X9616067Y-7244639D01*
X9620829Y-7239877D01*
X9630352Y-7235115D01*
X9649400Y-7230354D01*
X9658924Y-7225592D01*
X9663686Y-7220830D01*
X9668448Y-7211306D01*
X9668448Y-7201782D01*
X9663686Y-7192258D01*
X9658924Y-7187496D01*
X9649400Y-7182734D01*
X9625591Y-7182734D01*
X9611305Y-7187496D01*
X9577971Y-7182734D02*
X9554162Y-7282734D01*
X9535114Y-7211306D01*
X9516067Y-7282734D01*
X9492257Y-7182734D01*
X9463686Y-7182734D02*
X9401781Y-7182734D01*
X9435114Y-7220830D01*
X9420829Y-7220830D01*
X9411305Y-7225592D01*
X9406543Y-7230354D01*
X9401781Y-7239877D01*
X9401781Y-7263687D01*
X9406543Y-7273211D01*
X9411305Y-7277973D01*
X9420829Y-7282734D01*
X9449400Y-7282734D01*
X9458924Y-7277973D01*
X9463686Y-7273211D01*
X9363686Y-7192258D02*
X9358924Y-7187496D01*
X9349400Y-7182734D01*
X9325591Y-7182734D01*
X9316067Y-7187496D01*
X9311305Y-7192258D01*
X9306543Y-7201782D01*
X9306543Y-7211306D01*
X9311305Y-7225592D01*
X9368448Y-7282734D01*
X9306543Y-7282734D01*
G04 #@! TO.C,SW31*
X8968448Y-7677973D02*
X8954163Y-7682734D01*
X8930353Y-7682734D01*
X8920829Y-7677973D01*
X8916068Y-7673211D01*
X8911306Y-7663687D01*
X8911306Y-7654163D01*
X8916068Y-7644639D01*
X8920829Y-7639877D01*
X8930353Y-7635115D01*
X8949401Y-7630354D01*
X8958925Y-7625592D01*
X8963687Y-7620830D01*
X8968448Y-7611306D01*
X8968448Y-7601782D01*
X8963687Y-7592258D01*
X8958925Y-7587496D01*
X8949401Y-7582734D01*
X8925591Y-7582734D01*
X8911306Y-7587496D01*
X8877972Y-7582734D02*
X8854163Y-7682734D01*
X8835115Y-7611306D01*
X8816068Y-7682734D01*
X8792258Y-7582734D01*
X8763687Y-7582734D02*
X8701782Y-7582734D01*
X8735115Y-7620830D01*
X8720829Y-7620830D01*
X8711306Y-7625592D01*
X8706544Y-7630354D01*
X8701782Y-7639877D01*
X8701782Y-7663687D01*
X8706544Y-7673211D01*
X8711306Y-7677973D01*
X8720829Y-7682734D01*
X8749401Y-7682734D01*
X8758925Y-7677973D01*
X8763687Y-7673211D01*
X8606544Y-7682734D02*
X8663687Y-7682734D01*
X8635115Y-7682734D02*
X8635115Y-7582734D01*
X8644639Y-7597020D01*
X8654163Y-7606544D01*
X8663687Y-7611306D01*
G04 #@! TO.C,SW3*
X11320828Y-2177975D02*
X11306542Y-2182737D01*
X11282732Y-2182737D01*
X11273209Y-2177975D01*
X11268447Y-2173213D01*
X11263685Y-2163689D01*
X11263685Y-2154166D01*
X11268447Y-2144642D01*
X11273209Y-2139880D01*
X11282732Y-2135118D01*
X11301780Y-2130356D01*
X11311304Y-2125594D01*
X11316066Y-2120832D01*
X11320828Y-2111308D01*
X11320828Y-2101785D01*
X11316066Y-2092261D01*
X11311304Y-2087499D01*
X11301780Y-2082737D01*
X11277971Y-2082737D01*
X11263685Y-2087499D01*
X11230352Y-2082737D02*
X11206542Y-2182737D01*
X11187494Y-2111308D01*
X11168447Y-2182737D01*
X11144637Y-2082737D01*
X11116066Y-2082737D02*
X11054161Y-2082737D01*
X11087495Y-2120832D01*
X11073209Y-2120832D01*
X11063685Y-2125594D01*
X11058923Y-2130356D01*
X11054161Y-2139880D01*
X11054161Y-2163689D01*
X11058923Y-2173213D01*
X11063685Y-2177975D01*
X11073209Y-2182737D01*
X11101780Y-2182737D01*
X11111304Y-2177975D01*
X11116066Y-2173213D01*
G04 #@! TO.C,SW14*
X13068446Y-3877974D02*
X13054160Y-3882736D01*
X13030351Y-3882736D01*
X13020827Y-3877974D01*
X13016065Y-3873212D01*
X13011303Y-3863688D01*
X13011303Y-3854165D01*
X13016065Y-3844641D01*
X13020827Y-3839879D01*
X13030351Y-3835117D01*
X13049398Y-3830355D01*
X13058922Y-3825593D01*
X13063684Y-3820831D01*
X13068446Y-3811308D01*
X13068446Y-3801784D01*
X13063684Y-3792260D01*
X13058922Y-3787498D01*
X13049398Y-3782736D01*
X13025589Y-3782736D01*
X13011303Y-3787498D01*
X12977970Y-3782736D02*
X12954160Y-3882736D01*
X12935113Y-3811308D01*
X12916065Y-3882736D01*
X12892256Y-3782736D01*
X12801779Y-3882736D02*
X12858922Y-3882736D01*
X12830351Y-3882736D02*
X12830351Y-3782736D01*
X12839875Y-3797022D01*
X12849398Y-3806546D01*
X12858922Y-3811308D01*
X12716065Y-3816069D02*
X12716065Y-3882736D01*
X12739875Y-3777974D02*
X12763684Y-3849403D01*
X12701779Y-3849403D01*
G04 #@! TO.C,SW21*
X8968448Y-5977973D02*
X8954163Y-5982735D01*
X8930353Y-5982735D01*
X8920829Y-5977973D01*
X8916068Y-5973211D01*
X8911306Y-5963688D01*
X8911306Y-5954164D01*
X8916068Y-5944640D01*
X8920829Y-5939878D01*
X8930353Y-5935116D01*
X8949401Y-5930354D01*
X8958925Y-5925592D01*
X8963687Y-5920831D01*
X8968448Y-5911307D01*
X8968448Y-5901783D01*
X8963687Y-5892259D01*
X8958925Y-5887497D01*
X8949401Y-5882735D01*
X8925591Y-5882735D01*
X8911306Y-5887497D01*
X8877972Y-5882735D02*
X8854163Y-5982735D01*
X8835115Y-5911307D01*
X8816068Y-5982735D01*
X8792258Y-5882735D01*
X8758925Y-5892259D02*
X8754163Y-5887497D01*
X8744639Y-5882735D01*
X8720829Y-5882735D01*
X8711306Y-5887497D01*
X8706544Y-5892259D01*
X8701782Y-5901783D01*
X8701782Y-5911307D01*
X8706544Y-5925592D01*
X8763687Y-5982735D01*
X8701782Y-5982735D01*
X8606544Y-5982735D02*
X8663687Y-5982735D01*
X8635115Y-5982735D02*
X8635115Y-5882735D01*
X8644639Y-5897021D01*
X8654163Y-5906545D01*
X8663687Y-5911307D01*
G04 #@! TO.C,SW2*
X9620829Y-2177975D02*
X9606543Y-2182737D01*
X9582733Y-2182737D01*
X9573210Y-2177975D01*
X9568448Y-2173213D01*
X9563686Y-2163689D01*
X9563686Y-2154166D01*
X9568448Y-2144642D01*
X9573210Y-2139880D01*
X9582733Y-2135118D01*
X9601781Y-2130356D01*
X9611305Y-2125594D01*
X9616067Y-2120832D01*
X9620829Y-2111308D01*
X9620829Y-2101785D01*
X9616067Y-2092261D01*
X9611305Y-2087499D01*
X9601781Y-2082737D01*
X9577971Y-2082737D01*
X9563686Y-2087499D01*
X9530352Y-2082737D02*
X9506543Y-2182737D01*
X9487495Y-2111308D01*
X9468448Y-2182737D01*
X9444638Y-2082737D01*
X9411305Y-2092261D02*
X9406543Y-2087499D01*
X9397019Y-2082737D01*
X9373210Y-2082737D01*
X9363686Y-2087499D01*
X9358924Y-2092261D01*
X9354162Y-2101785D01*
X9354162Y-2111308D01*
X9358924Y-2125594D01*
X9416067Y-2182737D01*
X9354162Y-2182737D01*
G04 #@! TO.C,SW12*
X9668448Y-3877974D02*
X9654162Y-3882736D01*
X9630352Y-3882736D01*
X9620829Y-3877974D01*
X9616067Y-3873212D01*
X9611305Y-3863688D01*
X9611305Y-3854165D01*
X9616067Y-3844641D01*
X9620829Y-3839879D01*
X9630352Y-3835117D01*
X9649400Y-3830355D01*
X9658924Y-3825593D01*
X9663686Y-3820831D01*
X9668448Y-3811308D01*
X9668448Y-3801784D01*
X9663686Y-3792260D01*
X9658924Y-3787498D01*
X9649400Y-3782736D01*
X9625591Y-3782736D01*
X9611305Y-3787498D01*
X9577971Y-3782736D02*
X9554162Y-3882736D01*
X9535114Y-3811308D01*
X9516067Y-3882736D01*
X9492257Y-3782736D01*
X9401781Y-3882736D02*
X9458924Y-3882736D01*
X9430352Y-3882736D02*
X9430352Y-3782736D01*
X9439876Y-3797022D01*
X9449400Y-3806546D01*
X9458924Y-3811308D01*
X9363686Y-3792260D02*
X9358924Y-3787498D01*
X9349400Y-3782736D01*
X9325591Y-3782736D01*
X9316067Y-3787498D01*
X9311305Y-3792260D01*
X9306543Y-3801784D01*
X9306543Y-3811308D01*
X9311305Y-3825593D01*
X9368448Y-3882736D01*
X9306543Y-3882736D01*
G04 #@! TO.C,SW22*
X9668448Y-5577973D02*
X9654162Y-5582735D01*
X9630352Y-5582735D01*
X9620829Y-5577973D01*
X9616067Y-5573212D01*
X9611305Y-5563688D01*
X9611305Y-5554164D01*
X9616067Y-5544640D01*
X9620829Y-5539878D01*
X9630352Y-5535116D01*
X9649400Y-5530354D01*
X9658924Y-5525593D01*
X9663686Y-5520831D01*
X9668448Y-5511307D01*
X9668448Y-5501783D01*
X9663686Y-5492259D01*
X9658924Y-5487497D01*
X9649400Y-5482735D01*
X9625591Y-5482735D01*
X9611305Y-5487497D01*
X9577971Y-5482735D02*
X9554162Y-5582735D01*
X9535114Y-5511307D01*
X9516067Y-5582735D01*
X9492257Y-5482735D01*
X9458924Y-5492259D02*
X9454162Y-5487497D01*
X9444638Y-5482735D01*
X9420829Y-5482735D01*
X9411305Y-5487497D01*
X9406543Y-5492259D01*
X9401781Y-5501783D01*
X9401781Y-5511307D01*
X9406543Y-5525593D01*
X9463686Y-5582735D01*
X9401781Y-5582735D01*
X9363686Y-5492259D02*
X9358924Y-5487497D01*
X9349400Y-5482735D01*
X9325591Y-5482735D01*
X9316067Y-5487497D01*
X9311305Y-5492259D01*
X9306543Y-5501783D01*
X9306543Y-5511307D01*
X9311305Y-5525593D01*
X9368448Y-5582735D01*
X9306543Y-5582735D01*
G04 #@! TO.C,SW11*
X8968448Y-4277974D02*
X8954163Y-4282736D01*
X8930353Y-4282736D01*
X8920829Y-4277974D01*
X8916068Y-4273212D01*
X8911306Y-4263689D01*
X8911306Y-4254165D01*
X8916068Y-4244641D01*
X8920829Y-4239879D01*
X8930353Y-4235117D01*
X8949401Y-4230355D01*
X8958925Y-4225593D01*
X8963687Y-4220831D01*
X8968448Y-4211308D01*
X8968448Y-4201784D01*
X8963687Y-4192260D01*
X8958925Y-4187498D01*
X8949401Y-4182736D01*
X8925591Y-4182736D01*
X8911306Y-4187498D01*
X8877972Y-4182736D02*
X8854163Y-4282736D01*
X8835115Y-4211308D01*
X8816068Y-4282736D01*
X8792258Y-4182736D01*
X8701782Y-4282736D02*
X8758925Y-4282736D01*
X8730353Y-4282736D02*
X8730353Y-4182736D01*
X8739877Y-4197022D01*
X8749401Y-4206546D01*
X8758925Y-4211308D01*
X8606544Y-4282736D02*
X8663687Y-4282736D01*
X8635115Y-4282736D02*
X8635115Y-4182736D01*
X8644639Y-4197022D01*
X8654163Y-4206546D01*
X8663687Y-4211308D01*
G04 #@! TO.C,D31*
X8714401Y-7811901D02*
X8614401Y-7811901D01*
X8614401Y-7835710D01*
X8619163Y-7849996D01*
X8628686Y-7859520D01*
X8638210Y-7864282D01*
X8657258Y-7869044D01*
X8671543Y-7869044D01*
X8690591Y-7864282D01*
X8700115Y-7859520D01*
X8709639Y-7849996D01*
X8714401Y-7835710D01*
X8714401Y-7811901D01*
X8614401Y-7902377D02*
X8614401Y-7964282D01*
X8652496Y-7930949D01*
X8652496Y-7945234D01*
X8657258Y-7954758D01*
X8662020Y-7959520D01*
X8671543Y-7964282D01*
X8695353Y-7964282D01*
X8704877Y-7959520D01*
X8709639Y-7954758D01*
X8714401Y-7945234D01*
X8714401Y-7916663D01*
X8709639Y-7907139D01*
X8704877Y-7902377D01*
X8714401Y-8059520D02*
X8714401Y-8002377D01*
X8714401Y-8030949D02*
X8614401Y-8030949D01*
X8628686Y-8021425D01*
X8638210Y-8011901D01*
X8642972Y-8002377D01*
G04 #@! TO.C,H2*
X9213686Y-2957736D02*
X9213686Y-2857736D01*
X9213686Y-2905356D02*
X9156543Y-2905356D01*
X9156543Y-2957736D02*
X9156543Y-2857736D01*
X9113686Y-2867260D02*
X9108924Y-2862498D01*
X9099400Y-2857736D01*
X9075591Y-2857736D01*
X9066067Y-2862498D01*
X9061305Y-2867260D01*
X9056543Y-2876784D01*
X9056543Y-2886308D01*
X9061305Y-2900594D01*
X9118448Y-2957736D01*
X9056543Y-2957736D01*
G04 #@! TO.C,D34*
X13814398Y-7811901D02*
X13714398Y-7811901D01*
X13714398Y-7835710D01*
X13719160Y-7849996D01*
X13728684Y-7859520D01*
X13738208Y-7864282D01*
X13757255Y-7869044D01*
X13771541Y-7869044D01*
X13790589Y-7864282D01*
X13800112Y-7859520D01*
X13809636Y-7849996D01*
X13814398Y-7835710D01*
X13814398Y-7811901D01*
X13714398Y-7902377D02*
X13714398Y-7964282D01*
X13752493Y-7930949D01*
X13752493Y-7945234D01*
X13757255Y-7954758D01*
X13762017Y-7959520D01*
X13771541Y-7964282D01*
X13795350Y-7964282D01*
X13804874Y-7959520D01*
X13809636Y-7954758D01*
X13814398Y-7945234D01*
X13814398Y-7916663D01*
X13809636Y-7907139D01*
X13804874Y-7902377D01*
X13747731Y-8049996D02*
X13814398Y-8049996D01*
X13709636Y-8026187D02*
X13781065Y-8002377D01*
X13781065Y-8064282D01*
G04 #@! TO.C,C5*
X10645493Y-3155937D02*
X10645493Y-3149202D01*
X10638759Y-3135734D01*
X10632024Y-3128999D01*
X10618556Y-3122265D01*
X10605087Y-3122265D01*
X10594985Y-3125632D01*
X10578150Y-3135734D01*
X10568048Y-3145835D01*
X10557947Y-3162671D01*
X10554579Y-3172772D01*
X10554579Y-3186241D01*
X10561314Y-3199710D01*
X10568048Y-3206444D01*
X10581517Y-3213179D01*
X10588251Y-3213179D01*
X10645493Y-3283889D02*
X10611821Y-3250217D01*
X10642126Y-3213179D01*
X10642126Y-3219913D01*
X10645493Y-3230014D01*
X10662329Y-3246850D01*
X10672431Y-3250217D01*
X10679165Y-3250217D01*
X10689266Y-3246850D01*
X10706102Y-3230014D01*
X10709469Y-3219913D01*
X10709469Y-3213179D01*
X10706102Y-3203077D01*
X10689266Y-3186241D01*
X10679165Y-3182874D01*
X10672431Y-3182874D01*
G04 #@! TO.C,R4*
X11353238Y-2358333D02*
X11305619Y-2325000D01*
X11353238Y-2301190D02*
X11253238Y-2301190D01*
X11253238Y-2339286D01*
X11258000Y-2348810D01*
X11262762Y-2353571D01*
X11272286Y-2358333D01*
X11286571Y-2358333D01*
X11296095Y-2353571D01*
X11300857Y-2348810D01*
X11305619Y-2339286D01*
X11305619Y-2301190D01*
X11286571Y-2444048D02*
X11353238Y-2444048D01*
X11248476Y-2420238D02*
X11319905Y-2396429D01*
X11319905Y-2458333D01*
G04 #@! TO.C,D11*
X8714401Y-4411903D02*
X8614401Y-4411903D01*
X8614401Y-4435712D01*
X8619163Y-4449998D01*
X8628686Y-4459522D01*
X8638210Y-4464284D01*
X8657258Y-4469045D01*
X8671543Y-4469045D01*
X8690591Y-4464284D01*
X8700115Y-4459522D01*
X8709639Y-4449998D01*
X8714401Y-4435712D01*
X8714401Y-4411903D01*
X8714401Y-4564284D02*
X8714401Y-4507141D01*
X8714401Y-4535712D02*
X8614401Y-4535712D01*
X8628686Y-4526188D01*
X8638210Y-4516665D01*
X8642972Y-4507141D01*
X8714401Y-4659522D02*
X8714401Y-4602379D01*
X8714401Y-4630950D02*
X8614401Y-4630950D01*
X8628686Y-4621426D01*
X8638210Y-4611903D01*
X8642972Y-4602379D01*
G04 #@! TO.C,D22*
X10414400Y-6111902D02*
X10314400Y-6111902D01*
X10314400Y-6135711D01*
X10319162Y-6149997D01*
X10328686Y-6159521D01*
X10338209Y-6164283D01*
X10357257Y-6169045D01*
X10371543Y-6169045D01*
X10390590Y-6164283D01*
X10400114Y-6159521D01*
X10409638Y-6149997D01*
X10414400Y-6135711D01*
X10414400Y-6111902D01*
X10323924Y-6207140D02*
X10319162Y-6211902D01*
X10314400Y-6221426D01*
X10314400Y-6245235D01*
X10319162Y-6254759D01*
X10323924Y-6259521D01*
X10333447Y-6264283D01*
X10342971Y-6264283D01*
X10357257Y-6259521D01*
X10414400Y-6202378D01*
X10414400Y-6264283D01*
X10323924Y-6302378D02*
X10319162Y-6307140D01*
X10314400Y-6316664D01*
X10314400Y-6340473D01*
X10319162Y-6349997D01*
X10323924Y-6354759D01*
X10333447Y-6359521D01*
X10342971Y-6359521D01*
X10357257Y-6354759D01*
X10414400Y-6297616D01*
X10414400Y-6359521D01*
G04 #@! TO.C,D24*
X13814398Y-6111902D02*
X13714398Y-6111902D01*
X13714398Y-6135711D01*
X13719160Y-6149997D01*
X13728684Y-6159521D01*
X13738208Y-6164283D01*
X13757255Y-6169045D01*
X13771541Y-6169045D01*
X13790589Y-6164283D01*
X13800112Y-6159521D01*
X13809636Y-6149997D01*
X13814398Y-6135711D01*
X13814398Y-6111902D01*
X13723922Y-6207140D02*
X13719160Y-6211902D01*
X13714398Y-6221426D01*
X13714398Y-6245235D01*
X13719160Y-6254759D01*
X13723922Y-6259521D01*
X13733446Y-6264283D01*
X13742970Y-6264283D01*
X13757255Y-6259521D01*
X13814398Y-6202378D01*
X13814398Y-6264283D01*
X13747731Y-6349997D02*
X13814398Y-6349997D01*
X13709636Y-6326187D02*
X13781065Y-6302378D01*
X13781065Y-6364283D01*
G04 #@! TO.C,C4*
X11819063Y-3715493D02*
X11825798Y-3715493D01*
X11839266Y-3708759D01*
X11846001Y-3702024D01*
X11852735Y-3688556D01*
X11852735Y-3675087D01*
X11849368Y-3664985D01*
X11839266Y-3648149D01*
X11829165Y-3638048D01*
X11812329Y-3627946D01*
X11802227Y-3624579D01*
X11788759Y-3624579D01*
X11775290Y-3631314D01*
X11768556Y-3638048D01*
X11761821Y-3651517D01*
X11761821Y-3658251D01*
X11718048Y-3735696D02*
X11765188Y-3782837D01*
X11707946Y-3691923D02*
X11775290Y-3725595D01*
X11731517Y-3769368D01*
G04 #@! TO.C,U1*
X10795155Y-3037409D02*
X10852397Y-3094651D01*
X10855764Y-3104752D01*
X10855764Y-3111487D01*
X10852397Y-3121588D01*
X10838928Y-3135057D01*
X10828827Y-3138424D01*
X10822092Y-3138424D01*
X10811991Y-3135057D01*
X10754749Y-3077815D01*
X10754749Y-3219236D02*
X10795155Y-3178830D01*
X10774952Y-3199033D02*
X10704241Y-3128323D01*
X10721077Y-3131690D01*
X10734546Y-3131690D01*
X10744647Y-3128323D01*
G04 #@! TO.C,D4*
X13814398Y-2759522D02*
X13714398Y-2759522D01*
X13714398Y-2783332D01*
X13719160Y-2797618D01*
X13728684Y-2807141D01*
X13738208Y-2811903D01*
X13757255Y-2816665D01*
X13771541Y-2816665D01*
X13790589Y-2811903D01*
X13800112Y-2807141D01*
X13809636Y-2797618D01*
X13814398Y-2783332D01*
X13814398Y-2759522D01*
X13747731Y-2902380D02*
X13814398Y-2902380D01*
X13709636Y-2878570D02*
X13781065Y-2854760D01*
X13781065Y-2916665D01*
G04 #@! TO.C,D33*
X12114399Y-7811901D02*
X12014399Y-7811901D01*
X12014399Y-7835710D01*
X12019161Y-7849996D01*
X12028685Y-7859520D01*
X12038208Y-7864282D01*
X12057256Y-7869044D01*
X12071542Y-7869044D01*
X12090589Y-7864282D01*
X12100113Y-7859520D01*
X12109637Y-7849996D01*
X12114399Y-7835710D01*
X12114399Y-7811901D01*
X12014399Y-7902377D02*
X12014399Y-7964282D01*
X12052494Y-7930949D01*
X12052494Y-7945234D01*
X12057256Y-7954758D01*
X12062018Y-7959520D01*
X12071542Y-7964282D01*
X12095351Y-7964282D01*
X12104875Y-7959520D01*
X12109637Y-7954758D01*
X12114399Y-7945234D01*
X12114399Y-7916663D01*
X12109637Y-7907139D01*
X12104875Y-7902377D01*
X12014399Y-7997615D02*
X12014399Y-8059520D01*
X12052494Y-8026187D01*
X12052494Y-8040472D01*
X12057256Y-8049996D01*
X12062018Y-8054758D01*
X12071542Y-8059520D01*
X12095351Y-8059520D01*
X12104875Y-8054758D01*
X12109637Y-8049996D01*
X12114399Y-8040472D01*
X12114399Y-8011901D01*
X12109637Y-8002377D01*
X12104875Y-7997615D01*
G04 #@! TO.C,D21*
X8714401Y-6111902D02*
X8614401Y-6111902D01*
X8614401Y-6135711D01*
X8619163Y-6149997D01*
X8628686Y-6159521D01*
X8638210Y-6164283D01*
X8657258Y-6169045D01*
X8671543Y-6169045D01*
X8690591Y-6164283D01*
X8700115Y-6159521D01*
X8709639Y-6149997D01*
X8714401Y-6135711D01*
X8714401Y-6111902D01*
X8623924Y-6207140D02*
X8619163Y-6211902D01*
X8614401Y-6221426D01*
X8614401Y-6245235D01*
X8619163Y-6254759D01*
X8623924Y-6259521D01*
X8633448Y-6264283D01*
X8642972Y-6264283D01*
X8657258Y-6259521D01*
X8714401Y-6202378D01*
X8714401Y-6264283D01*
X8714401Y-6359521D02*
X8714401Y-6302378D01*
X8714401Y-6330949D02*
X8614401Y-6330949D01*
X8628686Y-6321426D01*
X8638210Y-6311902D01*
X8642972Y-6302378D01*
G04 #@! TO.C,C2*
X12016667Y-3551714D02*
X12021428Y-3556476D01*
X12035714Y-3561238D01*
X12045238Y-3561238D01*
X12059524Y-3556476D01*
X12069048Y-3546952D01*
X12073809Y-3537428D01*
X12078571Y-3518381D01*
X12078571Y-3504095D01*
X12073809Y-3485048D01*
X12069048Y-3475524D01*
X12059524Y-3466000D01*
X12045238Y-3461238D01*
X12035714Y-3461238D01*
X12021428Y-3466000D01*
X12016667Y-3470762D01*
X11978571Y-3470762D02*
X11973809Y-3466000D01*
X11964286Y-3461238D01*
X11940476Y-3461238D01*
X11930952Y-3466000D01*
X11926190Y-3470762D01*
X11921428Y-3480286D01*
X11921428Y-3489809D01*
X11926190Y-3504095D01*
X11983333Y-3561238D01*
X11921428Y-3561238D01*
G04 #@! TO.C,Y1*
X12217619Y-3627381D02*
X12265238Y-3627381D01*
X12165238Y-3594048D02*
X12217619Y-3627381D01*
X12165238Y-3660714D01*
X12265238Y-3746428D02*
X12265238Y-3689286D01*
X12265238Y-3717857D02*
X12165238Y-3717857D01*
X12179524Y-3708333D01*
X12189048Y-3698809D01*
X12193809Y-3689286D01*
G04 #@! TO.C,SW5*
X12707989Y-1759169D02*
X12712751Y-1773454D01*
X12712751Y-1797264D01*
X12707989Y-1806788D01*
X12703227Y-1811550D01*
X12693703Y-1816312D01*
X12684179Y-1816312D01*
X12674655Y-1811550D01*
X12669893Y-1806788D01*
X12665132Y-1797264D01*
X12660370Y-1778216D01*
X12655608Y-1768693D01*
X12650846Y-1763931D01*
X12641322Y-1759169D01*
X12631798Y-1759169D01*
X12622274Y-1763931D01*
X12617513Y-1768693D01*
X12612751Y-1778216D01*
X12612751Y-1802026D01*
X12617513Y-1816312D01*
X12612751Y-1849645D02*
X12712751Y-1873454D01*
X12641322Y-1892502D01*
X12712751Y-1911550D01*
X12612751Y-1935359D01*
X12612751Y-2021074D02*
X12612751Y-1973454D01*
X12660370Y-1968693D01*
X12655608Y-1973454D01*
X12650846Y-1982978D01*
X12650846Y-2006788D01*
X12655608Y-2016312D01*
X12660370Y-2021074D01*
X12669893Y-2025835D01*
X12693703Y-2025835D01*
X12703227Y-2021074D01*
X12707989Y-2016312D01*
X12712751Y-2006788D01*
X12712751Y-1982978D01*
X12707989Y-1973454D01*
X12703227Y-1968693D01*
G04 #@! TO.C,D32*
X10414400Y-7811901D02*
X10314400Y-7811901D01*
X10314400Y-7835710D01*
X10319162Y-7849996D01*
X10328686Y-7859520D01*
X10338209Y-7864282D01*
X10357257Y-7869044D01*
X10371543Y-7869044D01*
X10390590Y-7864282D01*
X10400114Y-7859520D01*
X10409638Y-7849996D01*
X10414400Y-7835710D01*
X10414400Y-7811901D01*
X10314400Y-7902377D02*
X10314400Y-7964282D01*
X10352495Y-7930949D01*
X10352495Y-7945234D01*
X10357257Y-7954758D01*
X10362019Y-7959520D01*
X10371543Y-7964282D01*
X10395352Y-7964282D01*
X10404876Y-7959520D01*
X10409638Y-7954758D01*
X10414400Y-7945234D01*
X10414400Y-7916663D01*
X10409638Y-7907139D01*
X10404876Y-7902377D01*
X10323924Y-8002377D02*
X10319162Y-8007139D01*
X10314400Y-8016663D01*
X10314400Y-8040472D01*
X10319162Y-8049996D01*
X10323924Y-8054758D01*
X10333447Y-8059520D01*
X10342971Y-8059520D01*
X10357257Y-8054758D01*
X10414400Y-7997615D01*
X10414400Y-8059520D01*
G04 #@! TO.C,R5*
X11228238Y-2358333D02*
X11180619Y-2325000D01*
X11228238Y-2301190D02*
X11128238Y-2301190D01*
X11128238Y-2339286D01*
X11133000Y-2348810D01*
X11137762Y-2353571D01*
X11147286Y-2358333D01*
X11161571Y-2358333D01*
X11171095Y-2353571D01*
X11175857Y-2348810D01*
X11180619Y-2339286D01*
X11180619Y-2301190D01*
X11128238Y-2448810D02*
X11128238Y-2401190D01*
X11175857Y-2396429D01*
X11171095Y-2401190D01*
X11166333Y-2410714D01*
X11166333Y-2434524D01*
X11171095Y-2444048D01*
X11175857Y-2448810D01*
X11185381Y-2453571D01*
X11209190Y-2453571D01*
X11218714Y-2448810D01*
X11223476Y-2444048D01*
X11228238Y-2434524D01*
X11228238Y-2410714D01*
X11223476Y-2401190D01*
X11218714Y-2396429D01*
G04 #@! TO.C,H4*
X12613684Y-6357735D02*
X12613684Y-6257735D01*
X12613684Y-6305354D02*
X12556542Y-6305354D01*
X12556542Y-6357735D02*
X12556542Y-6257735D01*
X12466065Y-6291068D02*
X12466065Y-6357735D01*
X12489875Y-6252973D02*
X12513684Y-6324402D01*
X12451780Y-6324402D01*
G04 #@! TO.C,D14*
X13814398Y-4411903D02*
X13714398Y-4411903D01*
X13714398Y-4435712D01*
X13719160Y-4449998D01*
X13728684Y-4459522D01*
X13738208Y-4464284D01*
X13757255Y-4469045D01*
X13771541Y-4469045D01*
X13790589Y-4464284D01*
X13800112Y-4459522D01*
X13809636Y-4449998D01*
X13814398Y-4435712D01*
X13814398Y-4411903D01*
X13814398Y-4564284D02*
X13814398Y-4507141D01*
X13814398Y-4535712D02*
X13714398Y-4535712D01*
X13728684Y-4526188D01*
X13738208Y-4516665D01*
X13742970Y-4507141D01*
X13747731Y-4649998D02*
X13814398Y-4649998D01*
X13709636Y-4626188D02*
X13781065Y-4602379D01*
X13781065Y-4664284D01*
G04 #@! TO.C,C7*
X10890015Y-2918944D02*
X10896749Y-2918944D01*
X10910218Y-2912210D01*
X10916952Y-2905475D01*
X10923686Y-2892007D01*
X10923686Y-2878538D01*
X10920319Y-2868437D01*
X10910218Y-2851601D01*
X10900116Y-2841499D01*
X10883280Y-2831398D01*
X10873179Y-2828030D01*
X10859710Y-2828030D01*
X10846241Y-2834765D01*
X10839507Y-2841499D01*
X10832773Y-2854968D01*
X10832773Y-2861702D01*
X10802468Y-2878538D02*
X10755328Y-2925679D01*
X10856343Y-2966085D01*
G04 #@! TO.C,R6*
X10441667Y-3428238D02*
X10475000Y-3380619D01*
X10498810Y-3428238D02*
X10498810Y-3328238D01*
X10460714Y-3328238D01*
X10451190Y-3333000D01*
X10446429Y-3337762D01*
X10441667Y-3347286D01*
X10441667Y-3361571D01*
X10446429Y-3371095D01*
X10451190Y-3375857D01*
X10460714Y-3380619D01*
X10498810Y-3380619D01*
X10355952Y-3328238D02*
X10375000Y-3328238D01*
X10384524Y-3333000D01*
X10389286Y-3337762D01*
X10398810Y-3352048D01*
X10403571Y-3371095D01*
X10403571Y-3409190D01*
X10398810Y-3418714D01*
X10394048Y-3423476D01*
X10384524Y-3428238D01*
X10365476Y-3428238D01*
X10355952Y-3423476D01*
X10351190Y-3418714D01*
X10346429Y-3409190D01*
X10346429Y-3385381D01*
X10351190Y-3375857D01*
X10355952Y-3371095D01*
X10365476Y-3366333D01*
X10384524Y-3366333D01*
X10394048Y-3371095D01*
X10398810Y-3375857D01*
X10403571Y-3385381D01*
G04 #@! TO.C,D13*
X12114399Y-4411903D02*
X12014399Y-4411903D01*
X12014399Y-4435712D01*
X12019161Y-4449998D01*
X12028685Y-4459522D01*
X12038208Y-4464284D01*
X12057256Y-4469045D01*
X12071542Y-4469045D01*
X12090589Y-4464284D01*
X12100113Y-4459522D01*
X12109637Y-4449998D01*
X12114399Y-4435712D01*
X12114399Y-4411903D01*
X12114399Y-4564284D02*
X12114399Y-4507141D01*
X12114399Y-4535712D02*
X12014399Y-4535712D01*
X12028685Y-4526188D01*
X12038208Y-4516665D01*
X12042970Y-4507141D01*
X12014399Y-4597617D02*
X12014399Y-4659522D01*
X12052494Y-4626188D01*
X12052494Y-4640474D01*
X12057256Y-4649998D01*
X12062018Y-4654760D01*
X12071542Y-4659522D01*
X12095351Y-4659522D01*
X12104875Y-4654760D01*
X12109637Y-4649998D01*
X12114399Y-4640474D01*
X12114399Y-4611903D01*
X12109637Y-4602379D01*
X12104875Y-4597617D01*
G04 #@! TO.C,B1*
X13424476Y-3199857D02*
X13410190Y-3204619D01*
X13405428Y-3209381D01*
X13400667Y-3218905D01*
X13400667Y-3233190D01*
X13405428Y-3242714D01*
X13410190Y-3247476D01*
X13419714Y-3252238D01*
X13457809Y-3252238D01*
X13457809Y-3152238D01*
X13424476Y-3152238D01*
X13414952Y-3157000D01*
X13410190Y-3161762D01*
X13405428Y-3171286D01*
X13405428Y-3180809D01*
X13410190Y-3190333D01*
X13414952Y-3195095D01*
X13424476Y-3199857D01*
X13457809Y-3199857D01*
X13305428Y-3252238D02*
X13362571Y-3252238D01*
X13334000Y-3252238D02*
X13334000Y-3152238D01*
X13343524Y-3166524D01*
X13353048Y-3176048D01*
X13362571Y-3180809D01*
G04 #@! TO.C,D1*
X8714401Y-2759522D02*
X8614401Y-2759522D01*
X8614401Y-2783332D01*
X8619163Y-2797618D01*
X8628686Y-2807141D01*
X8638210Y-2811903D01*
X8657258Y-2816665D01*
X8671543Y-2816665D01*
X8690591Y-2811903D01*
X8700115Y-2807141D01*
X8709639Y-2797618D01*
X8714401Y-2783332D01*
X8714401Y-2759522D01*
X8714401Y-2911903D02*
X8714401Y-2854760D01*
X8714401Y-2883332D02*
X8614401Y-2883332D01*
X8628686Y-2873808D01*
X8638210Y-2864284D01*
X8642972Y-2854760D01*
G04 #@! TO.C,D3*
X12114399Y-2759522D02*
X12014399Y-2759522D01*
X12014399Y-2783332D01*
X12019161Y-2797618D01*
X12028685Y-2807141D01*
X12038208Y-2811903D01*
X12057256Y-2816665D01*
X12071542Y-2816665D01*
X12090589Y-2811903D01*
X12100113Y-2807141D01*
X12109637Y-2797618D01*
X12114399Y-2783332D01*
X12114399Y-2759522D01*
X12014399Y-2849999D02*
X12014399Y-2911903D01*
X12052494Y-2878570D01*
X12052494Y-2892856D01*
X12057256Y-2902380D01*
X12062018Y-2907141D01*
X12071542Y-2911903D01*
X12095351Y-2911903D01*
X12104875Y-2907141D01*
X12109637Y-2902380D01*
X12114399Y-2892856D01*
X12114399Y-2864284D01*
X12109637Y-2854760D01*
X12104875Y-2849999D01*
G04 #@! TO.C,C6*
X10947828Y-4189212D02*
X10952590Y-4193974D01*
X10966876Y-4198736D01*
X10976400Y-4198736D01*
X10990685Y-4193974D01*
X11000209Y-4184450D01*
X11004971Y-4174927D01*
X11009733Y-4155879D01*
X11009733Y-4141593D01*
X11004971Y-4122546D01*
X11000209Y-4113022D01*
X10990685Y-4103498D01*
X10976400Y-4098736D01*
X10966876Y-4098736D01*
X10952590Y-4103498D01*
X10947828Y-4108260D01*
X10862114Y-4098736D02*
X10881162Y-4098736D01*
X10890685Y-4103498D01*
X10895447Y-4108260D01*
X10904971Y-4122546D01*
X10909733Y-4141593D01*
X10909733Y-4179688D01*
X10904971Y-4189212D01*
X10900209Y-4193974D01*
X10890685Y-4198736D01*
X10871638Y-4198736D01*
X10862114Y-4193974D01*
X10857352Y-4189212D01*
X10852590Y-4179688D01*
X10852590Y-4155879D01*
X10857352Y-4146355D01*
X10862114Y-4141593D01*
X10871638Y-4136831D01*
X10890685Y-4136831D01*
X10900209Y-4141593D01*
X10904971Y-4146355D01*
X10909733Y-4155879D01*
G04 #@! TO.C,R3*
X11766667Y-2262238D02*
X11800000Y-2214619D01*
X11823809Y-2262238D02*
X11823809Y-2162238D01*
X11785714Y-2162238D01*
X11776190Y-2167000D01*
X11771428Y-2171762D01*
X11766667Y-2181286D01*
X11766667Y-2195571D01*
X11771428Y-2205095D01*
X11776190Y-2209857D01*
X11785714Y-2214619D01*
X11823809Y-2214619D01*
X11733333Y-2162238D02*
X11671428Y-2162238D01*
X11704762Y-2200333D01*
X11690476Y-2200333D01*
X11680952Y-2205095D01*
X11676190Y-2209857D01*
X11671428Y-2219381D01*
X11671428Y-2243190D01*
X11676190Y-2252714D01*
X11680952Y-2257476D01*
X11690476Y-2262238D01*
X11719048Y-2262238D01*
X11728571Y-2257476D01*
X11733333Y-2252714D01*
G04 #@! TO.C,D23*
X12114399Y-6111902D02*
X12014399Y-6111902D01*
X12014399Y-6135711D01*
X12019161Y-6149997D01*
X12028685Y-6159521D01*
X12038208Y-6164283D01*
X12057256Y-6169045D01*
X12071542Y-6169045D01*
X12090589Y-6164283D01*
X12100113Y-6159521D01*
X12109637Y-6149997D01*
X12114399Y-6135711D01*
X12114399Y-6111902D01*
X12023923Y-6207140D02*
X12019161Y-6211902D01*
X12014399Y-6221426D01*
X12014399Y-6245235D01*
X12019161Y-6254759D01*
X12023923Y-6259521D01*
X12033447Y-6264283D01*
X12042970Y-6264283D01*
X12057256Y-6259521D01*
X12114399Y-6202378D01*
X12114399Y-6264283D01*
X12014399Y-6297616D02*
X12014399Y-6359521D01*
X12052494Y-6326187D01*
X12052494Y-6340473D01*
X12057256Y-6349997D01*
X12062018Y-6354759D01*
X12071542Y-6359521D01*
X12095351Y-6359521D01*
X12104875Y-6354759D01*
X12109637Y-6349997D01*
X12114399Y-6340473D01*
X12114399Y-6311902D01*
X12109637Y-6302378D01*
X12104875Y-6297616D01*
G04 #@! TO.C,C1*
X12041667Y-3869714D02*
X12046428Y-3874476D01*
X12060714Y-3879238D01*
X12070238Y-3879238D01*
X12084524Y-3874476D01*
X12094048Y-3864952D01*
X12098809Y-3855428D01*
X12103571Y-3836381D01*
X12103571Y-3822095D01*
X12098809Y-3803048D01*
X12094048Y-3793524D01*
X12084524Y-3784000D01*
X12070238Y-3779238D01*
X12060714Y-3779238D01*
X12046428Y-3784000D01*
X12041667Y-3788762D01*
X11946428Y-3879238D02*
X12003571Y-3879238D01*
X11975000Y-3879238D02*
X11975000Y-3779238D01*
X11984524Y-3793524D01*
X11994048Y-3803048D01*
X12003571Y-3807809D01*
G04 #@! TO.C,J1*
X11154161Y-2216737D02*
X11154161Y-2288166D01*
X11158923Y-2302452D01*
X11168447Y-2311975D01*
X11182733Y-2316737D01*
X11192257Y-2316737D01*
X11054161Y-2316737D02*
X11111304Y-2316737D01*
X11082733Y-2316737D02*
X11082733Y-2216737D01*
X11092257Y-2231023D01*
X11101780Y-2240547D01*
X11111304Y-2245309D01*
G04 #@! TO.C,D12*
X10414400Y-4411903D02*
X10314400Y-4411903D01*
X10314400Y-4435712D01*
X10319162Y-4449998D01*
X10328686Y-4459522D01*
X10338209Y-4464284D01*
X10357257Y-4469045D01*
X10371543Y-4469045D01*
X10390590Y-4464284D01*
X10400114Y-4459522D01*
X10409638Y-4449998D01*
X10414400Y-4435712D01*
X10414400Y-4411903D01*
X10414400Y-4564284D02*
X10414400Y-4507141D01*
X10414400Y-4535712D02*
X10314400Y-4535712D01*
X10328686Y-4526188D01*
X10338209Y-4516665D01*
X10342971Y-4507141D01*
X10323924Y-4602379D02*
X10319162Y-4607141D01*
X10314400Y-4616665D01*
X10314400Y-4640474D01*
X10319162Y-4649998D01*
X10323924Y-4654760D01*
X10333447Y-4659522D01*
X10342971Y-4659522D01*
X10357257Y-4654760D01*
X10414400Y-4597617D01*
X10414400Y-4659522D01*
G04 #@! TO.C,F1*
X10110857Y-2366667D02*
X10110857Y-2333333D01*
X10163238Y-2333333D02*
X10063238Y-2333333D01*
X10063238Y-2380952D01*
X10163238Y-2471429D02*
X10163238Y-2414286D01*
X10163238Y-2442857D02*
X10063238Y-2442857D01*
X10077524Y-2433333D01*
X10087048Y-2423810D01*
X10091810Y-2414286D01*
G04 #@! TO.C,H3*
X9213686Y-6357735D02*
X9213686Y-6257735D01*
X9213686Y-6305354D02*
X9156543Y-6305354D01*
X9156543Y-6357735D02*
X9156543Y-6257735D01*
X9118448Y-6257735D02*
X9056543Y-6257735D01*
X9089877Y-6295830D01*
X9075591Y-6295830D01*
X9066067Y-6300592D01*
X9061305Y-6305354D01*
X9056543Y-6314878D01*
X9056543Y-6338687D01*
X9061305Y-6348211D01*
X9066067Y-6352973D01*
X9075591Y-6357735D01*
X9104162Y-6357735D01*
X9113686Y-6352973D01*
X9118448Y-6348211D01*
G04 #@! TO.C,C3*
X11679444Y-3276985D02*
X11679444Y-3270251D01*
X11672710Y-3256782D01*
X11665976Y-3250048D01*
X11652507Y-3243314D01*
X11639038Y-3243314D01*
X11628937Y-3246681D01*
X11612101Y-3256782D01*
X11601999Y-3266884D01*
X11591898Y-3283720D01*
X11588530Y-3293821D01*
X11588530Y-3307290D01*
X11595265Y-3320759D01*
X11601999Y-3327493D01*
X11615468Y-3334227D01*
X11622202Y-3334227D01*
X11639038Y-3364532D02*
X11682811Y-3408305D01*
X11686179Y-3357798D01*
X11696280Y-3367899D01*
X11706382Y-3371266D01*
X11713116Y-3371266D01*
X11723217Y-3367899D01*
X11740053Y-3351063D01*
X11743421Y-3340962D01*
X11743421Y-3334227D01*
X11740053Y-3324126D01*
X11719850Y-3303923D01*
X11709749Y-3300556D01*
X11703014Y-3300556D01*
G04 #@! TO.C,R2*
X10703238Y-2282333D02*
X10655619Y-2249000D01*
X10703238Y-2225190D02*
X10603238Y-2225190D01*
X10603238Y-2263286D01*
X10608000Y-2272810D01*
X10612762Y-2277571D01*
X10622286Y-2282333D01*
X10636571Y-2282333D01*
X10646095Y-2277571D01*
X10650857Y-2272810D01*
X10655619Y-2263286D01*
X10655619Y-2225190D01*
X10612762Y-2320429D02*
X10608000Y-2325190D01*
X10603238Y-2334714D01*
X10603238Y-2358524D01*
X10608000Y-2368048D01*
X10612762Y-2372810D01*
X10622286Y-2377571D01*
X10631810Y-2377571D01*
X10646095Y-2372810D01*
X10703238Y-2315667D01*
X10703238Y-2377571D01*
G04 #@! TO.C,R1*
X12823238Y-3544333D02*
X12775619Y-3511000D01*
X12823238Y-3487190D02*
X12723238Y-3487190D01*
X12723238Y-3525286D01*
X12728000Y-3534809D01*
X12732762Y-3539571D01*
X12742286Y-3544333D01*
X12756571Y-3544333D01*
X12766095Y-3539571D01*
X12770857Y-3534809D01*
X12775619Y-3525286D01*
X12775619Y-3487190D01*
X12823238Y-3639571D02*
X12823238Y-3582428D01*
X12823238Y-3611000D02*
X12723238Y-3611000D01*
X12737524Y-3601476D01*
X12747048Y-3591952D01*
X12751809Y-3582428D01*
G04 #@! TO.C,H1*
X12613684Y-2957736D02*
X12613684Y-2857736D01*
X12613684Y-2905356D02*
X12556542Y-2905356D01*
X12556542Y-2957736D02*
X12556542Y-2857736D01*
X12456542Y-2957736D02*
X12513684Y-2957736D01*
X12485113Y-2957736D02*
X12485113Y-2857736D01*
X12494637Y-2872022D01*
X12504161Y-2881546D01*
X12513684Y-2886308D01*
G04 #@! TO.C,D2*
X10414400Y-2759522D02*
X10314400Y-2759522D01*
X10314400Y-2783332D01*
X10319162Y-2797618D01*
X10328686Y-2807141D01*
X10338209Y-2811903D01*
X10357257Y-2816665D01*
X10371543Y-2816665D01*
X10390590Y-2811903D01*
X10400114Y-2807141D01*
X10409638Y-2797618D01*
X10414400Y-2783332D01*
X10414400Y-2759522D01*
X10323924Y-2854760D02*
X10319162Y-2859522D01*
X10314400Y-2869046D01*
X10314400Y-2892856D01*
X10319162Y-2902380D01*
X10323924Y-2907141D01*
X10333447Y-2911903D01*
X10342971Y-2911903D01*
X10357257Y-2907141D01*
X10414400Y-2849999D01*
X10414400Y-2911903D01*
G04 #@! TO.C,SW23*
X10987495Y-5887497D02*
X10987495Y-5937497D01*
X11437494Y-5957497D02*
X11437494Y-5887497D01*
X10987495Y-6297497D02*
X10987495Y-6357497D01*
X11537494Y-6557497D02*
X11487494Y-6507497D01*
X11887494Y-6507497D02*
X11837494Y-6557497D01*
X11437494Y-5887497D02*
X10987495Y-5887497D01*
X11487494Y-6407497D02*
X11487494Y-6507497D01*
X10987495Y-6357497D02*
X11437494Y-6357497D01*
X11837494Y-6107497D02*
X11587494Y-6107497D01*
X11887494Y-6157497D02*
X11837494Y-6107497D01*
X11837494Y-6557497D02*
X11537494Y-6557497D01*
X11437494Y-5957497D02*
G75*
G03*
X11587494Y-6107497I150000J0D01*
G01*
X11487494Y-6407497D02*
G75*
G03*
X11437494Y-6357497I-50000J0D01*
G01*
G04 #@! TO.C,SW13*
X10987495Y-4597498D02*
X10987495Y-4657498D01*
X11837494Y-4857498D02*
X11537494Y-4857498D01*
X11887494Y-4807498D02*
X11837494Y-4857498D01*
X11437494Y-4257498D02*
X11437494Y-4187498D01*
X10987495Y-4187498D02*
X10987495Y-4237498D01*
X10987495Y-4657498D02*
X11437494Y-4657498D01*
X11537494Y-4857498D02*
X11487494Y-4807498D01*
X11437494Y-4187498D02*
X10987495Y-4187498D01*
X11837494Y-4407498D02*
X11587494Y-4407498D01*
X11887494Y-4457498D02*
X11837494Y-4407498D01*
X11487494Y-4707498D02*
X11487494Y-4807498D01*
X11487494Y-4707498D02*
G75*
G03*
X11437494Y-4657498I-50000J0D01*
G01*
X11437494Y-4257498D02*
G75*
G03*
X11587494Y-4407498I150000J0D01*
G01*
G04 #@! TO.C,SW4*
X13587494Y-3107499D02*
X13537494Y-3157499D01*
X12687494Y-2957499D02*
X13137494Y-2957499D01*
X12687494Y-2487499D02*
X12687494Y-2537499D01*
X12687494Y-2897499D02*
X12687494Y-2957499D01*
X13137494Y-2557499D02*
X13137494Y-2487499D01*
X13537494Y-3157499D02*
X13237494Y-3157499D01*
X13237494Y-3157499D02*
X13187494Y-3107499D01*
X13137494Y-2487499D02*
X12687494Y-2487499D01*
X13587494Y-2757499D02*
X13537494Y-2707499D01*
X13187494Y-3007499D02*
X13187494Y-3107499D01*
X13537494Y-2707499D02*
X13287494Y-2707499D01*
X13187494Y-3007499D02*
G75*
G03*
X13137494Y-2957499I-50000J0D01*
G01*
X13137494Y-2557499D02*
G75*
G03*
X13287494Y-2707499I150000J0D01*
G01*
G04 #@! TO.C,SW1*
X8987496Y-1777499D02*
X8987496Y-1717499D01*
X8137496Y-1517499D02*
X8437496Y-1517499D01*
X8437496Y-1517499D02*
X8487496Y-1567499D01*
X8137496Y-1967499D02*
X8387496Y-1967499D01*
X8987496Y-2187499D02*
X8987496Y-2137499D01*
X8487496Y-1667499D02*
X8487496Y-1567499D01*
X8987496Y-1717499D02*
X8537496Y-1717499D01*
X8087496Y-1567499D02*
X8137496Y-1517499D01*
X8537496Y-2117499D02*
X8537496Y-2187499D01*
X8087496Y-1917499D02*
X8137496Y-1967499D01*
X8537496Y-2187499D02*
X8987496Y-2187499D01*
X8537496Y-2117499D02*
G75*
G03*
X8387496Y-1967499I-150000J0D01*
G01*
X8487496Y-1667499D02*
G75*
G03*
X8537496Y-1717499I50000J0D01*
G01*
G04 #@! TO.C,SW34*
X12687494Y-7587496D02*
X12687494Y-7637496D01*
X12687494Y-8057496D02*
X13137494Y-8057496D01*
X13137494Y-7657496D02*
X13137494Y-7587496D01*
X13137494Y-7587496D02*
X12687494Y-7587496D01*
X13537494Y-7807496D02*
X13287494Y-7807496D01*
X13237494Y-8257496D02*
X13187494Y-8207496D01*
X13537494Y-8257496D02*
X13237494Y-8257496D01*
X13187494Y-8107496D02*
X13187494Y-8207496D01*
X12687494Y-7997496D02*
X12687494Y-8057496D01*
X13587494Y-8207496D02*
X13537494Y-8257496D01*
X13587494Y-7857496D02*
X13537494Y-7807496D01*
X13187494Y-8107496D02*
G75*
G03*
X13137494Y-8057496I-50000J0D01*
G01*
X13137494Y-7657496D02*
G75*
G03*
X13287494Y-7807496I150000J0D01*
G01*
G04 #@! TO.C,SW33*
X11487494Y-8107496D02*
X11487494Y-8207496D01*
X11437494Y-7657496D02*
X11437494Y-7587496D01*
X11437494Y-7587496D02*
X10987495Y-7587496D01*
X11837494Y-7807496D02*
X11587494Y-7807496D01*
X10987495Y-7587496D02*
X10987495Y-7637496D01*
X11887494Y-7857496D02*
X11837494Y-7807496D01*
X11537494Y-8257496D02*
X11487494Y-8207496D01*
X10987495Y-7997496D02*
X10987495Y-8057496D01*
X10987495Y-8057496D02*
X11437494Y-8057496D01*
X11887494Y-8207496D02*
X11837494Y-8257496D01*
X11837494Y-8257496D02*
X11537494Y-8257496D01*
X11437494Y-7657496D02*
G75*
G03*
X11587494Y-7807496I150000J0D01*
G01*
X11487494Y-8107496D02*
G75*
G03*
X11437494Y-8057496I-50000J0D01*
G01*
G04 #@! TO.C,SW24*
X13587494Y-6157497D02*
X13537494Y-6107497D01*
X12687494Y-6357497D02*
X13137494Y-6357497D01*
X13187494Y-6407497D02*
X13187494Y-6507497D01*
X13137494Y-5957497D02*
X13137494Y-5887497D01*
X13537494Y-6557497D02*
X13237494Y-6557497D01*
X13537494Y-6107497D02*
X13287494Y-6107497D01*
X13587494Y-6507497D02*
X13537494Y-6557497D01*
X12687494Y-6297497D02*
X12687494Y-6357497D01*
X13137494Y-5887497D02*
X12687494Y-5887497D01*
X12687494Y-5887497D02*
X12687494Y-5937497D01*
X13237494Y-6557497D02*
X13187494Y-6507497D01*
X13137494Y-5957497D02*
G75*
G03*
X13287494Y-6107497I150000J0D01*
G01*
X13187494Y-6407497D02*
G75*
G03*
X13137494Y-6357497I-50000J0D01*
G01*
G04 #@! TO.C,SW32*
X9287495Y-8057496D02*
X9737495Y-8057496D01*
X9737495Y-7587496D02*
X9287495Y-7587496D01*
X9287495Y-7997496D02*
X9287495Y-8057496D01*
X9737495Y-7657496D02*
X9737495Y-7587496D01*
X9837495Y-8257496D02*
X9787495Y-8207496D01*
X9287495Y-7587496D02*
X9287495Y-7637496D01*
X10137495Y-7807496D02*
X9887495Y-7807496D01*
X10137495Y-8257496D02*
X9837495Y-8257496D01*
X9787495Y-8107496D02*
X9787495Y-8207496D01*
X10187495Y-8207496D02*
X10137495Y-8257496D01*
X10187495Y-7857496D02*
X10137495Y-7807496D01*
X9737495Y-7657496D02*
G75*
G03*
X9887495Y-7807496I150000J0D01*
G01*
X9787495Y-8107496D02*
G75*
G03*
X9737495Y-8057496I-50000J0D01*
G01*
G04 #@! TO.C,SW31*
X8537496Y-7217496D02*
X8537496Y-7287496D01*
X8087496Y-7017496D02*
X8137496Y-7067496D01*
X8987496Y-6877496D02*
X8987496Y-6817496D01*
X8987496Y-7287496D02*
X8987496Y-7237496D01*
X8137496Y-6617496D02*
X8437496Y-6617496D01*
X8987496Y-6817496D02*
X8537496Y-6817496D01*
X8537496Y-7287496D02*
X8987496Y-7287496D01*
X8437496Y-6617496D02*
X8487496Y-6667496D01*
X8087496Y-6667496D02*
X8137496Y-6617496D01*
X8137496Y-7067496D02*
X8387496Y-7067496D01*
X8487496Y-6767496D02*
X8487496Y-6667496D01*
X8537496Y-7217496D02*
G75*
G03*
X8387496Y-7067496I-150000J0D01*
G01*
X8487496Y-6767496D02*
G75*
G03*
X8537496Y-6817496I50000J0D01*
G01*
G04 #@! TO.C,SW3*
X11887494Y-3107499D02*
X11837494Y-3157499D01*
X11887494Y-2757499D02*
X11837494Y-2707499D01*
X11837494Y-3157499D02*
X11537494Y-3157499D01*
X11437494Y-2487499D02*
X10987495Y-2487499D01*
X11487494Y-3007499D02*
X11487494Y-3107499D01*
X10987495Y-2957499D02*
X11437494Y-2957499D01*
X10987495Y-2897499D02*
X10987495Y-2957499D01*
X10987495Y-2487499D02*
X10987495Y-2537499D01*
X11837494Y-2707499D02*
X11587494Y-2707499D01*
X11437494Y-2557499D02*
X11437494Y-2487499D01*
X11537494Y-3157499D02*
X11487494Y-3107499D01*
X11487494Y-3007499D02*
G75*
G03*
X11437494Y-2957499I-50000J0D01*
G01*
X11437494Y-2557499D02*
G75*
G03*
X11587494Y-2707499I150000J0D01*
G01*
G04 #@! TO.C,SW14*
X12687494Y-4657498D02*
X13137494Y-4657498D01*
X13237494Y-4857498D02*
X13187494Y-4807498D01*
X13137494Y-4187498D02*
X12687494Y-4187498D01*
X13587494Y-4457498D02*
X13537494Y-4407498D01*
X13187494Y-4707498D02*
X13187494Y-4807498D01*
X13587494Y-4807498D02*
X13537494Y-4857498D01*
X13537494Y-4857498D02*
X13237494Y-4857498D01*
X13137494Y-4257498D02*
X13137494Y-4187498D01*
X12687494Y-4187498D02*
X12687494Y-4237498D01*
X13537494Y-4407498D02*
X13287494Y-4407498D01*
X12687494Y-4597498D02*
X12687494Y-4657498D01*
X13187494Y-4707498D02*
G75*
G03*
X13137494Y-4657498I-50000J0D01*
G01*
X13137494Y-4257498D02*
G75*
G03*
X13287494Y-4407498I150000J0D01*
G01*
G04 #@! TO.C,SW21*
X8987496Y-5177497D02*
X8987496Y-5117497D01*
X8437496Y-4917497D02*
X8487496Y-4967497D01*
X8537496Y-5587497D02*
X8987496Y-5587497D01*
X8537496Y-5517497D02*
X8537496Y-5587497D01*
X8987496Y-5587497D02*
X8987496Y-5537497D01*
X8137496Y-4917497D02*
X8437496Y-4917497D01*
X8137496Y-5367497D02*
X8387496Y-5367497D01*
X8487496Y-5067497D02*
X8487496Y-4967497D01*
X8087496Y-5317497D02*
X8137496Y-5367497D01*
X8987496Y-5117497D02*
X8537496Y-5117497D01*
X8087496Y-4967497D02*
X8137496Y-4917497D01*
X8537496Y-5517497D02*
G75*
G03*
X8387496Y-5367497I-150000J0D01*
G01*
X8487496Y-5067497D02*
G75*
G03*
X8537496Y-5117497I50000J0D01*
G01*
G04 #@! TO.C,SW2*
X9287495Y-2897499D02*
X9287495Y-2957499D01*
X10187495Y-2757499D02*
X10137495Y-2707499D01*
X9287495Y-2957499D02*
X9737495Y-2957499D01*
X9737495Y-2557499D02*
X9737495Y-2487499D01*
X9287495Y-2487499D02*
X9287495Y-2537499D01*
X10187495Y-3107499D02*
X10137495Y-3157499D01*
X10137495Y-2707499D02*
X9887495Y-2707499D01*
X10137495Y-3157499D02*
X9837495Y-3157499D01*
X9737495Y-2487499D02*
X9287495Y-2487499D01*
X9837495Y-3157499D02*
X9787495Y-3107499D01*
X9787495Y-3007499D02*
X9787495Y-3107499D01*
X9737495Y-2557499D02*
G75*
G03*
X9887495Y-2707499I150000J0D01*
G01*
X9787495Y-3007499D02*
G75*
G03*
X9737495Y-2957499I-50000J0D01*
G01*
G04 #@! TO.C,SW12*
X9737495Y-4187498D02*
X9287495Y-4187498D01*
X9737495Y-4257498D02*
X9737495Y-4187498D01*
X10187495Y-4457498D02*
X10137495Y-4407498D01*
X10137495Y-4407498D02*
X9887495Y-4407498D01*
X9787495Y-4707498D02*
X9787495Y-4807498D01*
X9287495Y-4597498D02*
X9287495Y-4657498D01*
X9287495Y-4187498D02*
X9287495Y-4237498D01*
X10187495Y-4807498D02*
X10137495Y-4857498D01*
X9837495Y-4857498D02*
X9787495Y-4807498D01*
X10137495Y-4857498D02*
X9837495Y-4857498D01*
X9287495Y-4657498D02*
X9737495Y-4657498D01*
X9737495Y-4257498D02*
G75*
G03*
X9887495Y-4407498I150000J0D01*
G01*
X9787495Y-4707498D02*
G75*
G03*
X9737495Y-4657498I-50000J0D01*
G01*
G04 #@! TO.C,SW22*
X10137495Y-6557497D02*
X9837495Y-6557497D01*
X9287495Y-6297497D02*
X9287495Y-6357497D01*
X10187495Y-6507497D02*
X10137495Y-6557497D01*
X9837495Y-6557497D02*
X9787495Y-6507497D01*
X9287495Y-6357497D02*
X9737495Y-6357497D01*
X10187495Y-6157497D02*
X10137495Y-6107497D01*
X9787495Y-6407497D02*
X9787495Y-6507497D01*
X9737495Y-5887497D02*
X9287495Y-5887497D01*
X9737495Y-5957497D02*
X9737495Y-5887497D01*
X10137495Y-6107497D02*
X9887495Y-6107497D01*
X9287495Y-5887497D02*
X9287495Y-5937497D01*
X9737495Y-5957497D02*
G75*
G03*
X9887495Y-6107497I150000J0D01*
G01*
X9787495Y-6407497D02*
G75*
G03*
X9737495Y-6357497I-50000J0D01*
G01*
G04 #@! TO.C,SW11*
X8537496Y-3817498D02*
X8537496Y-3887498D01*
X8487496Y-3367498D02*
X8487496Y-3267498D01*
X8437496Y-3217498D02*
X8487496Y-3267498D01*
X8137496Y-3667498D02*
X8387496Y-3667498D01*
X8087496Y-3267498D02*
X8137496Y-3217498D01*
X8987496Y-3477498D02*
X8987496Y-3417498D01*
X8137496Y-3217498D02*
X8437496Y-3217498D01*
X8987496Y-3887498D02*
X8987496Y-3837498D01*
X8537496Y-3887498D02*
X8987496Y-3887498D01*
X8987496Y-3417498D02*
X8537496Y-3417498D01*
X8087496Y-3617498D02*
X8137496Y-3667498D01*
X8537496Y-3817498D02*
G75*
G03*
X8387496Y-3667498I-150000J0D01*
G01*
X8487496Y-3367498D02*
G75*
G03*
X8537496Y-3417498I50000J0D01*
G01*
D13*
G04 #@! TO.C,D31*
X8939163Y-7783330D02*
X8939163Y-8038330D01*
X8769163Y-7783330D02*
X8939163Y-7783330D01*
X8769163Y-7783330D02*
X8769163Y-8038330D01*
G04 #@! TO.C,D34*
X13869160Y-7783330D02*
X14039160Y-7783330D01*
X14039160Y-7783330D02*
X14039160Y-8038330D01*
X13869160Y-7783330D02*
X13869160Y-8038330D01*
G04 #@! TO.C,C5*
X10532169Y-3308081D02*
X10516919Y-3292831D01*
X10583081Y-3257169D02*
X10567831Y-3241919D01*
G04 #@! TO.C,R4*
X11387000Y-2359636D02*
X11387000Y-2390364D01*
X11463000Y-2359636D02*
X11463000Y-2390364D01*
G04 #@! TO.C,D11*
X8939163Y-4383331D02*
X8939163Y-4638331D01*
X8769163Y-4383331D02*
X8769163Y-4638331D01*
X8769163Y-4383331D02*
X8939163Y-4383331D01*
G04 #@! TO.C,D22*
X10469162Y-6083330D02*
X10469162Y-6338330D01*
X10469162Y-6083330D02*
X10639162Y-6083330D01*
X10639162Y-6083330D02*
X10639162Y-6338330D01*
G04 #@! TO.C,D24*
X13869160Y-6083330D02*
X14039160Y-6083330D01*
X13869160Y-6083330D02*
X13869160Y-6338330D01*
X14039160Y-6083330D02*
X14039160Y-6338330D01*
G04 #@! TO.C,C4*
X11666919Y-3602169D02*
X11682169Y-3586919D01*
X11717831Y-3653081D02*
X11733081Y-3637831D01*
G04 #@! TO.C,U1*
X11631359Y-3470832D02*
X11580094Y-3419566D01*
X11069563Y-3011566D02*
X11120828Y-2960301D01*
X10610297Y-3470832D02*
X10661562Y-3522097D01*
X10661562Y-3419566D02*
X10610297Y-3470832D01*
X11120828Y-3981363D02*
X11069563Y-3930098D01*
X11580094Y-3522097D02*
X11631359Y-3470832D01*
X11172093Y-3930098D02*
X11120828Y-3981363D01*
G04 #@! TO.C,D4*
X14039160Y-2683332D02*
X14039160Y-2938332D01*
X13869160Y-2683332D02*
X14039160Y-2683332D01*
X13869160Y-2683332D02*
X13869160Y-2938332D01*
G04 #@! TO.C,D33*
X12169161Y-7783330D02*
X12169161Y-8038330D01*
X12169161Y-7783330D02*
X12339161Y-7783330D01*
X12339161Y-7783330D02*
X12339161Y-8038330D01*
G04 #@! TO.C,D21*
X8939163Y-6083330D02*
X8939163Y-6338330D01*
X8769163Y-6083330D02*
X8939163Y-6083330D01*
X8769163Y-6083330D02*
X8769163Y-6338330D01*
G04 #@! TO.C,C2*
X11989216Y-3436000D02*
X12010784Y-3436000D01*
X11989216Y-3364000D02*
X12010784Y-3364000D01*
G04 #@! TO.C,Y1*
X12140000Y-3875000D02*
X11810000Y-3875000D01*
X11810000Y-3875000D02*
X11810000Y-3475000D01*
G04 #@! TO.C,SW5*
X13007513Y-1612502D02*
X12977513Y-1582502D01*
X13387513Y-2312502D02*
X13387513Y-2412502D01*
X12757513Y-3032502D02*
X13017513Y-3032502D01*
X14017513Y-3032502D02*
X14017513Y-2542502D01*
X13257513Y-3032502D02*
X13517513Y-3032502D01*
X12757513Y-2172502D02*
X12757513Y-1692502D01*
X12757513Y-1692502D02*
X13007513Y-1692502D01*
X13757513Y-3032502D02*
X14017513Y-3032502D01*
X12757513Y-2542502D02*
X12757513Y-3032502D01*
X13337513Y-2362502D02*
X13437513Y-2362502D01*
X14017513Y-2182502D02*
X14017513Y-1692502D01*
X14017513Y-1692502D02*
X13737513Y-1692502D01*
X12977513Y-1582502D02*
X12977513Y-1642502D01*
X12977513Y-1642502D02*
X13007513Y-1612502D01*
X13687513Y-2362502D02*
G75*
G03*
X13687513Y-2362502I-300000J0D01*
G01*
G04 #@! TO.C,D32*
X10469162Y-7783330D02*
X10469162Y-8038330D01*
X10639162Y-7783330D02*
X10639162Y-8038330D01*
X10469162Y-7783330D02*
X10639162Y-7783330D01*
G04 #@! TO.C,R5*
X11262000Y-2359636D02*
X11262000Y-2390364D01*
X11338000Y-2359636D02*
X11338000Y-2390364D01*
G04 #@! TO.C,D14*
X13869160Y-4383331D02*
X13869160Y-4638331D01*
X13869160Y-4383331D02*
X14039160Y-4383331D01*
X14039160Y-4383331D02*
X14039160Y-4638331D01*
G04 #@! TO.C,C7*
X10968081Y-3005331D02*
X10952831Y-3020581D01*
X10917169Y-2954419D02*
X10901919Y-2969669D01*
G04 #@! TO.C,R6*
X10440364Y-3462000D02*
X10409636Y-3462000D01*
X10440364Y-3538000D02*
X10409636Y-3538000D01*
G04 #@! TO.C,D13*
X12339161Y-4383331D02*
X12339161Y-4638331D01*
X12169161Y-4383331D02*
X12169161Y-4638331D01*
X12169161Y-4383331D02*
X12339161Y-4383331D01*
G04 #@! TO.C,B1*
X13529000Y-3839000D02*
X13578000Y-3790000D01*
X13112000Y-3671000D02*
X13112000Y-3463000D01*
X13529000Y-3295000D02*
X13578000Y-3344000D01*
X13529000Y-3295000D02*
X13239000Y-3295000D01*
X13239000Y-3839000D02*
X13190000Y-3790000D01*
X13656000Y-3671000D02*
X13656000Y-3463000D01*
X13529000Y-3839000D02*
X13239000Y-3839000D01*
X13239000Y-3295000D02*
X13190000Y-3344000D01*
G04 #@! TO.C,D1*
X8769163Y-2683332D02*
X8939163Y-2683332D01*
X8939163Y-2683332D02*
X8939163Y-2938332D01*
X8769163Y-2683332D02*
X8769163Y-2938332D01*
G04 #@! TO.C,D3*
X12339161Y-2683332D02*
X12339161Y-2938332D01*
X12169161Y-2683332D02*
X12169161Y-2938332D01*
X12169161Y-2683332D02*
X12339161Y-2683332D01*
G04 #@! TO.C,C6*
X10920378Y-4001498D02*
X10941945Y-4001498D01*
X10920378Y-4073498D02*
X10941945Y-4073498D01*
G04 #@! TO.C,R3*
X11734636Y-2062000D02*
X11765364Y-2062000D01*
X11734636Y-2138000D02*
X11765364Y-2138000D01*
G04 #@! TO.C,D23*
X12169161Y-6083330D02*
X12169161Y-6338330D01*
X12169161Y-6083330D02*
X12339161Y-6083330D01*
X12339161Y-6083330D02*
X12339161Y-6338330D01*
G04 #@! TO.C,C1*
X12035784Y-3914000D02*
X12014216Y-3914000D01*
X12035784Y-3986000D02*
X12014216Y-3986000D01*
G04 #@! TO.C,J1*
X10662828Y-1884999D02*
X10662828Y-1692999D01*
X11578828Y-1321499D02*
X10662828Y-1321499D01*
X10662828Y-1321499D02*
X10662828Y-1491999D01*
X11578828Y-1491999D02*
X11578828Y-1321499D01*
X11578828Y-1692999D02*
X11578828Y-1884999D01*
G04 #@! TO.C,D12*
X10639162Y-4383331D02*
X10639162Y-4638331D01*
X10469162Y-4383331D02*
X10469162Y-4638331D01*
X10469162Y-4383331D02*
X10639162Y-4383331D01*
G04 #@! TO.C,F1*
X10391000Y-2339794D02*
X10391000Y-2460206D01*
X10209000Y-2339794D02*
X10209000Y-2460206D01*
G04 #@! TO.C,C3*
X11765831Y-3198919D02*
X11781081Y-3214169D01*
X11714919Y-3249831D02*
X11730169Y-3265081D01*
G04 #@! TO.C,R2*
X10813000Y-2283636D02*
X10813000Y-2314364D01*
X10737000Y-2283636D02*
X10737000Y-2314364D01*
G04 #@! TO.C,R1*
X12857000Y-3545636D02*
X12857000Y-3576364D01*
X12933000Y-3545636D02*
X12933000Y-3576364D01*
G04 #@! TO.C,D2*
X10639162Y-2683332D02*
X10639162Y-2938332D01*
X10469162Y-2683332D02*
X10639162Y-2683332D01*
X10469162Y-2683332D02*
X10469162Y-2938332D01*
G04 #@! TD*
M02*
