%TF.GenerationSoftware,KiCad,Pcbnew,(6.0.4-0)*%
%TF.CreationDate,2023-01-14T23:55:12-06:00*%
%TF.ProjectId,kowgary16_cfx,6b6f7767-6172-4793-9136-5f6366782e6b,rev?*%
%TF.SameCoordinates,Original*%
%TF.FileFunction,Legend,Top*%
%TF.FilePolarity,Positive*%
%FSLAX46Y46*%
G04 Gerber Fmt 4.6, Leading zero omitted, Abs format (unit mm)*
G04 Created by KiCad (PCBNEW (6.0.4-0)) date 2023-01-14 23:55:12*
%MOMM*%
%LPD*%
G01*
G04 APERTURE LIST*
%ADD10C,0.150000*%
G04 APERTURE END LIST*
D10*
%TO.C,SW23*%
X109874945Y-64374973D02*
X109874945Y-63374973D01*
X123874945Y-64374973D02*
X122874945Y-64374973D01*
X109874945Y-64374973D02*
X110874945Y-64374973D01*
X123874945Y-50374973D02*
X122874945Y-50374973D01*
X123874945Y-63374973D02*
X123874945Y-64374973D01*
X109874945Y-51374973D02*
X109874945Y-50374973D01*
X110874945Y-50374973D02*
X109874945Y-50374973D01*
X123874945Y-50374973D02*
X123874945Y-51374973D01*
X122874945Y-64374973D02*
X123874945Y-64374973D01*
%TO.C,SW13*%
X109874945Y-47374981D02*
X109874945Y-46374981D01*
X123874945Y-33374981D02*
X122874945Y-33374981D01*
X109874945Y-47374981D02*
X110874945Y-47374981D01*
X123874945Y-46374981D02*
X123874945Y-47374981D01*
X110874945Y-33374981D02*
X109874945Y-33374981D01*
X123874945Y-47374981D02*
X122874945Y-47374981D01*
X109874945Y-34374981D02*
X109874945Y-33374981D01*
X122874945Y-47374981D02*
X123874945Y-47374981D01*
X123874945Y-33374981D02*
X123874945Y-34374981D01*
%TO.C,SW4*%
X126874937Y-17374989D02*
X126874937Y-16374989D01*
X140874937Y-16374989D02*
X140874937Y-17374989D01*
X127874937Y-16374989D02*
X126874937Y-16374989D01*
X126874937Y-30374989D02*
X126874937Y-29374989D01*
X139874937Y-30374989D02*
X140874937Y-30374989D01*
X140874937Y-30374989D02*
X139874937Y-30374989D01*
X126874937Y-30374989D02*
X127874937Y-30374989D01*
X140874937Y-29374989D02*
X140874937Y-30374989D01*
X140874937Y-16374989D02*
X139874937Y-16374989D01*
%TO.C,SW1*%
X75874961Y-16374989D02*
X76874961Y-16374989D01*
X89874961Y-16374989D02*
X89874961Y-17374989D01*
X75874961Y-17374989D02*
X75874961Y-16374989D01*
X89874961Y-29374989D02*
X89874961Y-30374989D01*
X75874961Y-30374989D02*
X76874961Y-30374989D01*
X88874961Y-30374989D02*
X89874961Y-30374989D01*
X75874961Y-30374989D02*
X75874961Y-29374989D01*
X89874961Y-16374989D02*
X88874961Y-16374989D01*
X76874961Y-16374989D02*
X75874961Y-16374989D01*
%TO.C,SW34*%
X126874937Y-68374965D02*
X126874937Y-67374965D01*
X126874937Y-81374965D02*
X127874937Y-81374965D01*
X140874937Y-81374965D02*
X139874937Y-81374965D01*
X140874937Y-67374965D02*
X140874937Y-68374965D01*
X140874937Y-80374965D02*
X140874937Y-81374965D01*
X140874937Y-67374965D02*
X139874937Y-67374965D01*
X126874937Y-81374965D02*
X126874937Y-80374965D01*
X139874937Y-81374965D02*
X140874937Y-81374965D01*
X127874937Y-67374965D02*
X126874937Y-67374965D01*
%TO.C,SW33*%
X123874945Y-81374965D02*
X122874945Y-81374965D01*
X109874945Y-81374965D02*
X110874945Y-81374965D01*
X110874945Y-67374965D02*
X109874945Y-67374965D01*
X123874945Y-80374965D02*
X123874945Y-81374965D01*
X122874945Y-81374965D02*
X123874945Y-81374965D01*
X109874945Y-68374965D02*
X109874945Y-67374965D01*
X123874945Y-67374965D02*
X122874945Y-67374965D01*
X123874945Y-67374965D02*
X123874945Y-68374965D01*
X109874945Y-81374965D02*
X109874945Y-80374965D01*
%TO.C,SW24*%
X140874937Y-63374973D02*
X140874937Y-64374973D01*
X127874937Y-50374973D02*
X126874937Y-50374973D01*
X126874937Y-51374973D02*
X126874937Y-50374973D01*
X126874937Y-64374973D02*
X127874937Y-64374973D01*
X140874937Y-50374973D02*
X139874937Y-50374973D01*
X139874937Y-64374973D02*
X140874937Y-64374973D01*
X140874937Y-50374973D02*
X140874937Y-51374973D01*
X140874937Y-64374973D02*
X139874937Y-64374973D01*
X126874937Y-64374973D02*
X126874937Y-63374973D01*
%TO.C,SW32*%
X92874953Y-81374965D02*
X92874953Y-80374965D01*
X106874953Y-67374965D02*
X106874953Y-68374965D01*
X106874953Y-80374965D02*
X106874953Y-81374965D01*
X106874953Y-81374965D02*
X105874953Y-81374965D01*
X92874953Y-68374965D02*
X92874953Y-67374965D01*
X106874953Y-67374965D02*
X105874953Y-67374965D01*
X92874953Y-81374965D02*
X93874953Y-81374965D01*
X93874953Y-67374965D02*
X92874953Y-67374965D01*
X105874953Y-81374965D02*
X106874953Y-81374965D01*
%TO.C,SW31*%
X76874961Y-67374965D02*
X75874961Y-67374965D01*
X75874961Y-68374965D02*
X75874961Y-67374965D01*
X89874961Y-80374965D02*
X89874961Y-81374965D01*
X89874961Y-67374965D02*
X89874961Y-68374965D01*
X75874961Y-67374965D02*
X76874961Y-67374965D01*
X75874961Y-81374965D02*
X76874961Y-81374965D01*
X88874961Y-81374965D02*
X89874961Y-81374965D01*
X75874961Y-81374965D02*
X75874961Y-80374965D01*
X89874961Y-67374965D02*
X88874961Y-67374965D01*
%TO.C,SW3*%
X123874945Y-29374989D02*
X123874945Y-30374989D01*
X109874945Y-30374989D02*
X109874945Y-29374989D01*
X109874945Y-30374989D02*
X110874945Y-30374989D01*
X110874945Y-16374989D02*
X109874945Y-16374989D01*
X109874945Y-17374989D02*
X109874945Y-16374989D01*
X122874945Y-30374989D02*
X123874945Y-30374989D01*
X123874945Y-16374989D02*
X123874945Y-17374989D01*
X123874945Y-16374989D02*
X122874945Y-16374989D01*
X123874945Y-30374989D02*
X122874945Y-30374989D01*
%TO.C,SW14*%
X126874937Y-34374981D02*
X126874937Y-33374981D01*
X126874937Y-47374981D02*
X126874937Y-46374981D01*
X126874937Y-47374981D02*
X127874937Y-47374981D01*
X140874937Y-46374981D02*
X140874937Y-47374981D01*
X140874937Y-33374981D02*
X139874937Y-33374981D01*
X140874937Y-33374981D02*
X140874937Y-34374981D01*
X127874937Y-33374981D02*
X126874937Y-33374981D01*
X139874937Y-47374981D02*
X140874937Y-47374981D01*
X140874937Y-47374981D02*
X139874937Y-47374981D01*
%TO.C,SW21*%
X76874961Y-50374973D02*
X75874961Y-50374973D01*
X75874961Y-64374973D02*
X76874961Y-64374973D01*
X89874961Y-50374973D02*
X89874961Y-51374973D01*
X75874961Y-64374973D02*
X75874961Y-63374973D01*
X89874961Y-63374973D02*
X89874961Y-64374973D01*
X75874961Y-50374973D02*
X76874961Y-50374973D01*
X89874961Y-50374973D02*
X88874961Y-50374973D01*
X88874961Y-64374973D02*
X89874961Y-64374973D01*
X75874961Y-51374973D02*
X75874961Y-50374973D01*
%TO.C,SW2*%
X92874953Y-17374989D02*
X92874953Y-16374989D01*
X106874953Y-16374989D02*
X105874953Y-16374989D01*
X92874953Y-30374989D02*
X92874953Y-29374989D01*
X93874953Y-16374989D02*
X92874953Y-16374989D01*
X92874953Y-30374989D02*
X93874953Y-30374989D01*
X106874953Y-29374989D02*
X106874953Y-30374989D01*
X106874953Y-30374989D02*
X105874953Y-30374989D01*
X105874953Y-30374989D02*
X106874953Y-30374989D01*
X106874953Y-16374989D02*
X106874953Y-17374989D01*
%TO.C,SW12*%
X92874953Y-47374981D02*
X93874953Y-47374981D01*
X93874953Y-33374981D02*
X92874953Y-33374981D01*
X106874953Y-33374981D02*
X106874953Y-34374981D01*
X106874953Y-33374981D02*
X105874953Y-33374981D01*
X105874953Y-47374981D02*
X106874953Y-47374981D01*
X106874953Y-47374981D02*
X105874953Y-47374981D01*
X106874953Y-46374981D02*
X106874953Y-47374981D01*
X92874953Y-47374981D02*
X92874953Y-46374981D01*
X92874953Y-34374981D02*
X92874953Y-33374981D01*
%TO.C,SW22*%
X92874953Y-51374973D02*
X92874953Y-50374973D01*
X106874953Y-50374973D02*
X105874953Y-50374973D01*
X105874953Y-64374973D02*
X106874953Y-64374973D01*
X106874953Y-64374973D02*
X105874953Y-64374973D01*
X92874953Y-64374973D02*
X93874953Y-64374973D01*
X106874953Y-63374973D02*
X106874953Y-64374973D01*
X106874953Y-50374973D02*
X106874953Y-51374973D01*
X93874953Y-50374973D02*
X92874953Y-50374973D01*
X92874953Y-64374973D02*
X92874953Y-63374973D01*
%TO.C,SW11*%
X76874961Y-33374981D02*
X75874961Y-33374981D01*
X75874961Y-33374981D02*
X76874961Y-33374981D01*
X75874961Y-34374981D02*
X75874961Y-33374981D01*
X89874961Y-46374981D02*
X89874961Y-47374981D01*
X89874961Y-33374981D02*
X88874961Y-33374981D01*
X89874961Y-33374981D02*
X89874961Y-34374981D01*
X75874961Y-47374981D02*
X75874961Y-46374981D01*
X75874961Y-47374981D02*
X76874961Y-47374981D01*
X88874961Y-47374981D02*
X89874961Y-47374981D01*
%TD*%
M02*
