  0
SECTION
  2
HEADER
  9
$ANGBASE
  50
0.0
  9
$ANGDIR
  70
1
  9
$MEASUREMENT
  70
1
  0
ENDSEC
  0
SECTION
  2
TABLES
  0
TABLE
  2
LTYPE
  70
4
  0
LTYPE
  5
40F
  2
CONTINUOUS
  70
0
  3
Solid line
  72
65
  73
0
  40
0.0
  0
LTYPE
  5
410
  2
DASHDOT
 70
0
  3
Dash Dot ____ _ ____ _
 72
65
 73
4
 40
2.0
 49
1.25
 49
-0.25
 49
0.25
 49
-0.25
  0
LTYPE
  5
411
  2
DASHED
 70
0
  3
Dashed __ __ __ __ __
 72
65
 73
2
 40
0.75
 49
0.5
 49
-0.25
  0
LTYPE
  5
43B
  2
DOTTED
 70
0
  3
Dotted .  .  .  .
 72
65
 73
2
 40
0.2
 49
0.0
 49
-0.2
  0
ENDTAB
  0
TABLE
  2
STYLE
  70
4
  0
STYLE
  2
KICAD
  70
0
  40
0
  41
1
  42
1
  50
0
  71
0
  3
isocp.shx
  0
STYLE
  2
KICADB
  70
0
  40
0
  41
1
  42
1
  50
0
  71
0
  3
isocp.shx
  0
STYLE
  2
KICADI
  70
0
  40
0
  41
1
  42
1
  50
15
  71
0
  3
isocp.shx
  0
STYLE
  2
KICADBI
  70
0
  40
0
  41
1
  42
1
  50
15
  71
0
  3
isocp.shx
  0
ENDTAB
  0
TABLE
  2
LAYER
  70
1
  0
LAYER
  2
BLACK
  70
0
  62
7
  6
CONTINUOUS
  0
ENDTAB
  0
ENDSEC
  0
SECTION
  2
ENTITIES
0
ARC
8
BLACK
10
76.5
20
-17
40
2.12504
50
90.001
51
180
0
ARC
8
BLACK
10
140.25
20
-17
40
2.12501
50
0.000215698
51
89.9991
0
LINE
8
BLACK
6
CONTINUOUS
10
115.458
20
-13.4583
11
116.521
21
-14.875
0
LINE
8
BLACK
6
CONTINUOUS
10
105.896
20
-14.875
11
105.542
21
-14.875
0
LINE
8
BLACK
6
CONTINUOUS
10
74.375
20
-81.4583
11
74.375
21
-17
0
LINE
8
BLACK
6
CONTINUOUS
10
76.5
20
-14.875
11
105.542
21
-14.875
0
LINE
8
BLACK
6
CONTINUOUS
10
116.875
20
-14.875
11
140.25
21
-14.875
0
LINE
8
BLACK
6
CONTINUOUS
10
142.375
20
-17
11
142.375
21
-80.75
0
LINE
8
BLACK
6
CONTINUOUS
10
116.875
20
-14.875
11
116.521
21
-14.875
0
LINE
8
BLACK
6
CONTINUOUS
10
140.25
20
-82.875
11
75.7916
21
-82.875
0
ARC
8
BLACK
10
140.25
20
-80.75
40
2.12503
50
-89.9991
51
0.00102457
0
LINE
8
BLACK
6
CONTINUOUS
10
105.896
20
-14.875
11
106.958
21
-13.4583
0
LINE
8
BLACK
6
CONTINUOUS
10
106.958
20
-13.4583
11
115.458
21
-13.4583
0
ARC
8
BLACK
10
75.7916
20
-81.4583
40
1.41666
50
-180
51
-89.9987
0
LINE
8
BLACK
6
CONTINUOUS
10
86.925
20
-62.1333
11
87.325
21
-62.5333
0
LINE
8
BLACK
6
CONTINUOUS
10
87.325
20
-62.1333
11
86.925
21
-62.5333
0
LINE
8
BLACK
6
CONTINUOUS
10
86.925
20
-64.9666
11
87.325
21
-65.3666
0
LINE
8
BLACK
6
CONTINUOUS
10
87.325
20
-64.9666
11
86.925
21
-65.3666
0
LINE
8
BLACK
6
CONTINUOUS
10
88.3416
20
-43.0083
11
88.7416
21
-43.4083
0
LINE
8
BLACK
6
CONTINUOUS
10
88.7416
20
-43.0083
11
88.3416
21
-43.4083
0
LINE
8
BLACK
6
CONTINUOUS
10
88.3416
20
-60.0083
11
88.7416
21
-60.4083
0
LINE
8
BLACK
6
CONTINUOUS
10
88.7416
20
-60.0083
11
88.3416
21
-60.4083
0
LINE
8
BLACK
6
CONTINUOUS
10
88.3416
20
-77.0083
11
88.7416
21
-77.4083
0
LINE
8
BLACK
6
CONTINUOUS
10
88.7416
20
-77.0083
11
88.3416
21
-77.4083
0
LINE
8
BLACK
6
CONTINUOUS
10
88.4
20
-24.8
11
88.8
21
-25.2
0
LINE
8
BLACK
6
CONTINUOUS
10
88.8
20
-24.8
11
88.4
21
-25.2
0
LINE
8
BLACK
6
CONTINUOUS
10
94.0083
20
-30.8378
11
94.4083
21
-31.2378
0
LINE
8
BLACK
6
CONTINUOUS
10
94.4083
20
-30.8378
11
94.0083
21
-31.2378
0
LINE
8
BLACK
6
CONTINUOUS
10
94.0083
20
-32.3833
11
94.4083
21
-32.7833
0
LINE
8
BLACK
6
CONTINUOUS
10
94.4083
20
-32.3833
11
94.0083
21
-32.7833
0
LINE
8
BLACK
6
CONTINUOUS
10
95.7845
20
-39.8262
11
96.1845
21
-40.2262
0
LINE
8
BLACK
6
CONTINUOUS
10
96.1845
20
-39.8262
11
95.7845
21
-40.2262
0
LINE
8
BLACK
6
CONTINUOUS
10
96.1333
20
-32.3833
11
96.5333
21
-32.7833
0
LINE
8
BLACK
6
CONTINUOUS
10
96.5333
20
-32.3833
11
96.1333
21
-32.7833
0
LINE
8
BLACK
6
CONTINUOUS
10
96.1333
20
-41.5916
11
96.5333
21
-41.9916
0
LINE
8
BLACK
6
CONTINUOUS
10
96.5333
20
-41.5916
11
96.1333
21
-41.9916
0
LINE
8
BLACK
6
CONTINUOUS
10
96.5921
20
-76.0504
11
96.9921
21
-76.4504
0
LINE
8
BLACK
6
CONTINUOUS
10
96.9921
20
-76.0504
11
96.5921
21
-76.4504
0
LINE
8
BLACK
6
CONTINUOUS
10
97.55
20
-38.05
11
97.95
21
-38.45
0
LINE
8
BLACK
6
CONTINUOUS
10
97.95
20
-38.05
11
97.55
21
-38.45
0
LINE
8
BLACK
6
CONTINUOUS
10
97.55
20
-41.375
11
97.95
21
-41.775
0
LINE
8
BLACK
6
CONTINUOUS
10
97.95
20
-41.375
11
97.55
21
-41.775
0
LINE
8
BLACK
6
CONTINUOUS
10
98.0088
20
-59.0505
11
98.4088
21
-59.4505
0
LINE
8
BLACK
6
CONTINUOUS
10
98.4088
20
-59.0505
11
98.0088
21
-59.4505
0
LINE
8
BLACK
6
CONTINUOUS
10
99.5354
20
-37.6122
11
99.9354
21
-38.0122
0
LINE
8
BLACK
6
CONTINUOUS
10
99.9354
20
-37.6122
11
99.5354
21
-38.0122
0
LINE
8
BLACK
6
CONTINUOUS
10
99.675
20
-35.925
11
100.075
21
-36.325
0
LINE
8
BLACK
6
CONTINUOUS
10
100.075
20
-35.925
11
99.675
21
-36.325
0
LINE
8
BLACK
6
CONTINUOUS
10
100.062
20
-31.2877
11
100.462
21
-31.6877
0
LINE
8
BLACK
6
CONTINUOUS
10
100.462
20
-31.2877
11
100.062
21
-31.6877
0
LINE
8
BLACK
6
CONTINUOUS
10
100.325
20
-37
11
100.725
21
-37.4
0
LINE
8
BLACK
6
CONTINUOUS
10
100.725
20
-37
11
100.325
21
-37.4
0
LINE
8
BLACK
6
CONTINUOUS
10
101.774
20
-37
11
102.174
21
-37.4
0
LINE
8
BLACK
6
CONTINUOUS
10
102.174
20
-37
11
101.774
21
-37.4
0
LINE
8
BLACK
6
CONTINUOUS
10
101.8
20
-35.925
11
102.2
21
-36.325
0
LINE
8
BLACK
6
CONTINUOUS
10
102.2
20
-35.925
11
101.8
21
-36.325
0
LINE
8
BLACK
6
CONTINUOUS
10
102.197
20
-37.9057
11
102.597
21
-38.3057
0
LINE
8
BLACK
6
CONTINUOUS
10
102.597
20
-37.9057
11
102.197
21
-38.3057
0
LINE
8
BLACK
6
CONTINUOUS
10
102.8
20
-40.6
11
103.2
21
-41
0
LINE
8
BLACK
6
CONTINUOUS
10
103.2
20
-40.6
11
102.8
21
-41
0
LINE
8
BLACK
6
CONTINUOUS
10
102.904
20
-38.6124
11
103.304
21
-39.0124
0
LINE
8
BLACK
6
CONTINUOUS
10
103.304
20
-38.6124
11
102.904
21
-39.0124
0
LINE
8
BLACK
6
CONTINUOUS
10
103.504
20
-35.8615
11
103.904
21
-36.2615
0
LINE
8
BLACK
6
CONTINUOUS
10
103.904
20
-35.8615
11
103.504
21
-36.2615
0
LINE
8
BLACK
6
CONTINUOUS
10
103.505
20
-42.2946
11
103.905
21
-42.6946
0
LINE
8
BLACK
6
CONTINUOUS
10
103.905
20
-42.2946
11
103.505
21
-42.6946
0
LINE
8
BLACK
6
CONTINUOUS
10
103.6
20
-26.8
11
104
21
-27.2
0
LINE
8
BLACK
6
CONTINUOUS
10
104
20
-26.8
11
103.6
21
-27.2
0
LINE
8
BLACK
6
CONTINUOUS
10
103.6
20
-34.0245
11
104
21
-34.4245
0
LINE
8
BLACK
6
CONTINUOUS
10
104
20
-34.0245
11
103.6
21
-34.4245
0
LINE
8
BLACK
6
CONTINUOUS
10
103.6
20
-44
11
104
21
-44.4
0
LINE
8
BLACK
6
CONTINUOUS
10
104
20
-44
11
103.6
21
-44.4
0
LINE
8
BLACK
6
CONTINUOUS
10
103.688
20
-39.396
11
104.088
21
-39.796
0
LINE
8
BLACK
6
CONTINUOUS
10
104.088
20
-39.396
11
103.688
21
-39.796
0
LINE
8
BLACK
6
CONTINUOUS
10
103.7
20
-32.5755
11
104.1
21
-32.9755
0
LINE
8
BLACK
6
CONTINUOUS
10
104.1
20
-32.5755
11
103.7
21
-32.9755
0
LINE
8
BLACK
6
CONTINUOUS
10
104.426
20
-43.2154
11
104.826
21
-43.6154
0
LINE
8
BLACK
6
CONTINUOUS
10
104.826
20
-43.2154
11
104.426
21
-43.6154
0
LINE
8
BLACK
6
CONTINUOUS
10
104.849
20
-30.02
11
105.249
21
-30.42
0
LINE
8
BLACK
6
CONTINUOUS
10
105.249
20
-30.02
11
104.849
21
-30.42
0
LINE
8
BLACK
6
CONTINUOUS
10
105.342
20
-60.0083
11
105.742
21
-60.4083
0
LINE
8
BLACK
6
CONTINUOUS
10
105.742
20
-60.0083
11
105.342
21
-60.4083
0
LINE
8
BLACK
6
CONTINUOUS
10
105.342
20
-77.0083
11
105.742
21
-77.4083
0
LINE
8
BLACK
6
CONTINUOUS
10
105.742
20
-77.0083
11
105.342
21
-77.4083
0
LINE
8
BLACK
6
CONTINUOUS
10
106.156
20
-29.5908
11
106.556
21
-29.9908
0
LINE
8
BLACK
6
CONTINUOUS
10
106.556
20
-29.5908
11
106.156
21
-29.9908
0
LINE
8
BLACK
6
CONTINUOUS
10
106.56
20
-24.02
11
106.96
21
-24.42
0
LINE
8
BLACK
6
CONTINUOUS
10
106.96
20
-24.02
11
106.56
21
-24.42
0
LINE
8
BLACK
6
CONTINUOUS
10
107.467
20
-46.55
11
107.867
21
-46.95
0
LINE
8
BLACK
6
CONTINUOUS
10
107.867
20
-46.55
11
107.467
21
-46.95
0
LINE
8
BLACK
6
CONTINUOUS
10
108.4
20
-28.5755
11
108.8
21
-28.9755
0
LINE
8
BLACK
6
CONTINUOUS
10
108.8
20
-28.5755
11
108.4
21
-28.9755
0
LINE
8
BLACK
6
CONTINUOUS
10
108.4
20
-41.8
11
108.8
21
-42.2
0
LINE
8
BLACK
6
CONTINUOUS
10
108.8
20
-41.8
11
108.4
21
-42.2
0
LINE
8
BLACK
6
CONTINUOUS
10
111.55
20
-18.3
11
111.95
21
-18.7
0
LINE
8
BLACK
6
CONTINUOUS
10
111.95
20
-18.3
11
111.55
21
-18.7
0
LINE
8
BLACK
6
CONTINUOUS
10
111.739
20
-29.3
11
112.139
21
-29.7
0
LINE
8
BLACK
6
CONTINUOUS
10
112.139
20
-29.3
11
111.739
21
-29.7
0
LINE
8
BLACK
6
CONTINUOUS
10
112.225
20
-46.55
11
112.625
21
-46.95
0
LINE
8
BLACK
6
CONTINUOUS
10
112.625
20
-46.55
11
112.225
21
-46.95
0
LINE
8
BLACK
6
CONTINUOUS
10
112.425
20
-54.3416
11
112.825
21
-54.7416
0
LINE
8
BLACK
6
CONTINUOUS
10
112.825
20
-54.3416
11
112.425
21
-54.7416
0
LINE
8
BLACK
6
CONTINUOUS
10
113.55
20
-18.3
11
113.95
21
-18.7
0
LINE
8
BLACK
6
CONTINUOUS
10
113.95
20
-18.3
11
113.55
21
-18.7
0
LINE
8
BLACK
6
CONTINUOUS
10
113.684
20
-38.2082
11
114.084
21
-38.6082
0
LINE
8
BLACK
6
CONTINUOUS
10
114.084
20
-38.2082
11
113.684
21
-38.6082
0
LINE
8
BLACK
6
CONTINUOUS
10
113.842
20
-16.5755
11
114.242
21
-16.9755
0
LINE
8
BLACK
6
CONTINUOUS
10
114.242
20
-16.5755
11
113.842
21
-16.9755
0
LINE
8
BLACK
6
CONTINUOUS
10
114.55
20
-43.0084
11
114.95
21
-43.4084
0
LINE
8
BLACK
6
CONTINUOUS
10
114.95
20
-43.0084
11
114.55
21
-43.4084
0
LINE
8
BLACK
6
CONTINUOUS
10
115.2
20
-31.4145
11
115.6
21
-31.8145
0
LINE
8
BLACK
6
CONTINUOUS
10
115.6
20
-31.4145
11
115.2
21
-31.8145
0
LINE
8
BLACK
6
CONTINUOUS
10
115.274
20
-38.05
11
115.674
21
-38.45
0
LINE
8
BLACK
6
CONTINUOUS
10
115.674
20
-38.05
11
115.274
21
-38.45
0
LINE
8
BLACK
6
CONTINUOUS
10
115.638
20
-34.4384
11
116.038
21
-34.8384
0
LINE
8
BLACK
6
CONTINUOUS
10
116.038
20
-34.4384
11
115.638
21
-34.8384
0
LINE
8
BLACK
6
CONTINUOUS
10
116.675
20
-16.8
11
117.075
21
-17.2
0
LINE
8
BLACK
6
CONTINUOUS
10
117.075
20
-16.8
11
116.675
21
-17.2
0
LINE
8
BLACK
6
CONTINUOUS
10
117.56
20
-34.2
11
117.96
21
-34.6
0
LINE
8
BLACK
6
CONTINUOUS
10
117.96
20
-34.2
11
117.56
21
-34.6
0
LINE
8
BLACK
6
CONTINUOUS
10
120.217
20
-26.7167
11
120.617
21
-27.1167
0
LINE
8
BLACK
6
CONTINUOUS
10
120.617
20
-26.7167
11
120.217
21
-27.1167
0
LINE
8
BLACK
6
CONTINUOUS
10
121.734
20
-37.3213
11
122.134
21
-37.7213
0
LINE
8
BLACK
6
CONTINUOUS
10
122.134
20
-37.3213
11
121.734
21
-37.7213
0
LINE
8
BLACK
6
CONTINUOUS
10
122.342
20
-28.1333
11
122.742
21
-28.5333
0
LINE
8
BLACK
6
CONTINUOUS
10
122.742
20
-28.1333
11
122.342
21
-28.5333
0
LINE
8
BLACK
6
CONTINUOUS
10
122.342
20
-43.0083
11
122.742
21
-43.4083
0
LINE
8
BLACK
6
CONTINUOUS
10
122.742
20
-43.0083
11
122.342
21
-43.4083
0
LINE
8
BLACK
6
CONTINUOUS
10
122.342
20
-60.0083
11
122.742
21
-60.4083
0
LINE
8
BLACK
6
CONTINUOUS
10
122.742
20
-60.0083
11
122.342
21
-60.4083
0
LINE
8
BLACK
6
CONTINUOUS
10
122.342
20
-77.0083
11
122.742
21
-77.4083
0
LINE
8
BLACK
6
CONTINUOUS
10
122.742
20
-77.0083
11
122.342
21
-77.4083
0
LINE
8
BLACK
6
CONTINUOUS
10
122.4
20
-26.2
11
122.8
21
-26.6
0
LINE
8
BLACK
6
CONTINUOUS
10
122.8
20
-26.2
11
122.4
21
-26.6
0
LINE
8
BLACK
6
CONTINUOUS
10
123.05
20
-31.675
11
123.45
21
-32.075
0
LINE
8
BLACK
6
CONTINUOUS
10
123.45
20
-31.675
11
123.05
21
-32.075
0
LINE
8
BLACK
6
CONTINUOUS
10
123.2
20
-27
11
123.6
21
-27.4
0
LINE
8
BLACK
6
CONTINUOUS
10
123.6
20
-27
11
123.2
21
-27.4
0
LINE
8
BLACK
6
CONTINUOUS
10
123.758
20
-46.901
11
124.158
21
-47.301
0
LINE
8
BLACK
6
CONTINUOUS
10
124.158
20
-46.901
11
123.758
21
-47.301
0
LINE
8
BLACK
6
CONTINUOUS
10
123.758
20
-54.3416
11
124.158
21
-54.7416
0
LINE
8
BLACK
6
CONTINUOUS
10
124.158
20
-54.3416
11
123.758
21
-54.7416
0
LINE
8
BLACK
6
CONTINUOUS
10
124.467
20
-29.55
11
124.867
21
-29.95
0
LINE
8
BLACK
6
CONTINUOUS
10
124.867
20
-29.55
11
124.467
21
-29.95
0
LINE
8
BLACK
6
CONTINUOUS
10
125.4
20
-48.6995
11
125.8
21
-49.0995
0
LINE
8
BLACK
6
CONTINUOUS
10
125.8
20
-48.6995
11
125.4
21
-49.0995
0
LINE
8
BLACK
6
CONTINUOUS
10
126.592
20
-29.55
11
126.992
21
-29.95
0
LINE
8
BLACK
6
CONTINUOUS
10
126.992
20
-29.55
11
126.592
21
-29.95
0
LINE
8
BLACK
6
CONTINUOUS
10
127.3
20
-33.8
11
127.7
21
-34.2
0
LINE
8
BLACK
6
CONTINUOUS
10
127.7
20
-33.8
11
127.3
21
-34.2
0
LINE
8
BLACK
6
CONTINUOUS
10
128.008
20
-33.0917
11
128.408
21
-33.4917
0
LINE
8
BLACK
6
CONTINUOUS
10
128.408
20
-33.0917
11
128.008
21
-33.4917
0
LINE
8
BLACK
6
CONTINUOUS
10
128.008
20
-47.2584
11
128.408
21
-47.6584
0
LINE
8
BLACK
6
CONTINUOUS
10
128.408
20
-47.2584
11
128.008
21
-47.6584
0
LINE
8
BLACK
6
CONTINUOUS
10
128.717
20
-38.05
11
129.117
21
-38.45
0
LINE
8
BLACK
6
CONTINUOUS
10
129.117
20
-38.05
11
128.717
21
-38.45
0
LINE
8
BLACK
6
CONTINUOUS
10
138.6
20
-27
11
139
21
-27.4
0
LINE
8
BLACK
6
CONTINUOUS
10
139
20
-27
11
138.6
21
-27.4
0
LINE
8
BLACK
6
CONTINUOUS
10
139.342
20
-43.0083
11
139.742
21
-43.4083
0
LINE
8
BLACK
6
CONTINUOUS
10
139.742
20
-43.0083
11
139.342
21
-43.4083
0
LINE
8
BLACK
6
CONTINUOUS
10
139.342
20
-60.0083
11
139.742
21
-60.4083
0
LINE
8
BLACK
6
CONTINUOUS
10
139.742
20
-60.0083
11
139.342
21
-60.4083
0
LINE
8
BLACK
6
CONTINUOUS
10
139.342
20
-77.0083
11
139.742
21
-77.4083
0
LINE
8
BLACK
6
CONTINUOUS
10
139.742
20
-77.0083
11
139.342
21
-77.4083
0
CIRCLE
8
BLACK
10
106.888
20
-15.925
40
0.3
0
LINE
8
BLACK
6
CONTINUOUS
10
106.588
20
-15.625
11
106.588
21
-16.225
0
LINE
8
BLACK
6
CONTINUOUS
10
107.188
20
-15.625
11
107.188
21
-16.225
0
ARC
8
BLACK
10
106.888
20
-16.225
40
0.3
50
180
51
360
0
ARC
8
BLACK
10
106.888
20
-15.625
40
0.3
50
0
51
180
0
CIRCLE
8
BLACK
10
106.888
20
-20.105
40
0.3
0
LINE
8
BLACK
6
CONTINUOUS
10
106.588
20
-19.555
11
106.588
21
-20.655
0
LINE
8
BLACK
6
CONTINUOUS
10
107.188
20
-19.555
11
107.188
21
-20.655
0
ARC
8
BLACK
10
106.888
20
-20.655
40
0.3
50
180
51
360
0
ARC
8
BLACK
10
106.888
20
-19.555
40
0.3
50
0
51
180
0
CIRCLE
8
BLACK
10
115.528
20
-15.925
40
0.3
0
LINE
8
BLACK
6
CONTINUOUS
10
115.228
20
-15.625
11
115.228
21
-16.225
0
LINE
8
BLACK
6
CONTINUOUS
10
115.828
20
-15.625
11
115.828
21
-16.225
0
ARC
8
BLACK
10
115.528
20
-16.225
40
0.3
50
180
51
360
0
ARC
8
BLACK
10
115.528
20
-15.625
40
0.3
50
0
51
180
0
CIRCLE
8
BLACK
10
115.528
20
-20.105
40
0.3
0
LINE
8
BLACK
6
CONTINUOUS
10
115.228
20
-19.555
11
115.228
21
-20.655
0
LINE
8
BLACK
6
CONTINUOUS
10
115.828
20
-19.555
11
115.828
21
-20.655
0
ARC
8
BLACK
10
115.528
20
-20.655
40
0.3
50
180
51
360
0
ARC
8
BLACK
10
115.528
20
-19.555
40
0.3
50
0
51
180
0
LINE
8
BLACK
6
CONTINUOUS
10
131.375
20
-15.625
11
131.375
21
-16.625
0
LINE
8
BLACK
6
CONTINUOUS
10
130.875
20
-16.125
11
131.875
21
-16.125
0
LINE
8
BLACK
6
CONTINUOUS
10
131.375
20
-30.125
11
131.375
21
-31.125
0
LINE
8
BLACK
6
CONTINUOUS
10
130.875
20
-30.625
11
131.875
21
-30.625
0
LINE
8
BLACK
6
CONTINUOUS
10
133.875
20
-15.625
11
133.875
21
-16.625
0
LINE
8
BLACK
6
CONTINUOUS
10
133.375
20
-16.125
11
134.375
21
-16.125
0
LINE
8
BLACK
6
CONTINUOUS
10
136.375
20
-15.625
11
136.375
21
-16.625
0
LINE
8
BLACK
6
CONTINUOUS
10
135.875
20
-16.125
11
136.875
21
-16.125
0
LINE
8
BLACK
6
CONTINUOUS
10
136.375
20
-30.125
11
136.375
21
-31.125
0
LINE
8
BLACK
6
CONTINUOUS
10
135.875
20
-30.625
11
136.875
21
-30.625
0
LINE
8
BLACK
6
CONTINUOUS
10
128.982
20
-24.3321
11
128.982
21
-22.9179
0
LINE
8
BLACK
6
CONTINUOUS
10
128.982
20
-22.9179
11
127.568
21
-22.9179
0
LINE
8
BLACK
6
CONTINUOUS
10
127.568
20
-22.9179
11
127.568
21
-24.3321
0
LINE
8
BLACK
6
CONTINUOUS
10
127.568
20
-24.3321
11
128.982
21
-24.3321
0
LINE
8
BLACK
6
CONTINUOUS
10
127.275
20
-23.375
11
127.275
21
-23.875
0
LINE
8
BLACK
6
CONTINUOUS
10
129.275
20
-23.375
11
129.275
21
-23.875
0
ARC
8
BLACK
10
128.275
20
-23.875
40
1
50
180
51
360
0
ARC
8
BLACK
10
128.275
20
-23.375
40
1
50
0
51
180
0
LINE
8
BLACK
6
CONTINUOUS
10
140.182
20
-24.3321
11
140.182
21
-22.9179
0
LINE
8
BLACK
6
CONTINUOUS
10
140.182
20
-22.9179
11
138.768
21
-22.9179
0
LINE
8
BLACK
6
CONTINUOUS
10
138.768
20
-22.9179
11
138.768
21
-24.3321
0
LINE
8
BLACK
6
CONTINUOUS
10
138.768
20
-24.3321
11
140.182
21
-24.3321
0
LINE
8
BLACK
6
CONTINUOUS
10
138.475
20
-23.375
11
138.475
21
-23.875
0
LINE
8
BLACK
6
CONTINUOUS
10
140.475
20
-23.375
11
140.475
21
-23.875
0
ARC
8
BLACK
10
139.475
20
-23.875
40
1
50
180
51
360
0
ARC
8
BLACK
10
139.475
20
-23.375
40
1
50
0
51
180
0
LINE
8
BLACK
6
CONTINUOUS
10
76.9012
20
-86.0297
11
76.9012
21
-84.0297
0
LINE
8
BLACK
6
CONTINUOUS
10
76.9012
20
-84.0297
11
77.3773
21
-84.0297
0
LINE
8
BLACK
6
CONTINUOUS
10
77.3773
20
-84.0297
11
77.6631
21
-84.125
0
LINE
8
BLACK
6
CONTINUOUS
10
77.6631
20
-84.125
11
77.8535
21
-84.3154
0
LINE
8
BLACK
6
CONTINUOUS
10
77.8535
20
-84.3154
11
77.9488
21
-84.5059
0
LINE
8
BLACK
6
CONTINUOUS
10
77.9488
20
-84.5059
11
78.044
21
-84.8869
0
LINE
8
BLACK
6
CONTINUOUS
10
78.044
20
-84.8869
11
78.044
21
-85.1726
0
LINE
8
BLACK
6
CONTINUOUS
10
78.044
20
-85.1726
11
77.9488
21
-85.5535
0
LINE
8
BLACK
6
CONTINUOUS
10
77.9488
20
-85.5535
11
77.8535
21
-85.744
0
LINE
8
BLACK
6
CONTINUOUS
10
77.8535
20
-85.744
11
77.6631
21
-85.9345
0
LINE
8
BLACK
6
CONTINUOUS
10
77.6631
20
-85.9345
11
77.3773
21
-86.0297
0
LINE
8
BLACK
6
CONTINUOUS
10
77.3773
20
-86.0297
11
76.9012
21
-86.0297
0
LINE
8
BLACK
6
CONTINUOUS
10
78.9012
20
-86.0297
11
78.9012
21
-84.6964
0
LINE
8
BLACK
6
CONTINUOUS
10
78.9012
20
-85.0773
11
78.9964
21
-84.8869
0
LINE
8
BLACK
6
CONTINUOUS
10
78.9964
20
-84.8869
11
79.0916
21
-84.7916
0
LINE
8
BLACK
6
CONTINUOUS
10
79.0916
20
-84.7916
11
79.2821
21
-84.6964
0
LINE
8
BLACK
6
CONTINUOUS
10
79.2821
20
-84.6964
11
79.4726
21
-84.6964
0
LINE
8
BLACK
6
CONTINUOUS
10
80.1392
20
-86.0297
11
80.1392
21
-84.6964
0
LINE
8
BLACK
6
CONTINUOUS
10
80.1392
20
-84.0297
11
80.044
21
-84.125
0
LINE
8
BLACK
6
CONTINUOUS
10
80.044
20
-84.125
11
80.1392
21
-84.2202
0
LINE
8
BLACK
6
CONTINUOUS
10
80.1392
20
-84.2202
11
80.2345
21
-84.125
0
LINE
8
BLACK
6
CONTINUOUS
10
80.2345
20
-84.125
11
80.1392
21
-84.0297
0
LINE
8
BLACK
6
CONTINUOUS
10
80.1392
20
-84.0297
11
80.1392
21
-84.2202
0
LINE
8
BLACK
6
CONTINUOUS
10
81.3773
20
-86.0297
11
81.1869
21
-85.9345
0
LINE
8
BLACK
6
CONTINUOUS
10
81.1869
20
-85.9345
11
81.0916
21
-85.744
0
LINE
8
BLACK
6
CONTINUOUS
10
81.0916
20
-85.744
11
81.0916
21
-84.0297
0
LINE
8
BLACK
6
CONTINUOUS
10
82.425
20
-86.0297
11
82.2345
21
-85.9345
0
LINE
8
BLACK
6
CONTINUOUS
10
82.2345
20
-85.9345
11
82.1392
21
-85.744
0
LINE
8
BLACK
6
CONTINUOUS
10
82.1392
20
-85.744
11
82.1392
21
-84.0297
0
LINE
8
BLACK
6
CONTINUOUS
10
84.7107
20
-86.0297
11
84.7107
21
-84.0297
0
LINE
8
BLACK
6
CONTINUOUS
10
84.7107
20
-84.0297
11
85.3773
21
-85.4583
0
LINE
8
BLACK
6
CONTINUOUS
10
85.3773
20
-85.4583
11
86.044
21
-84.0297
0
LINE
8
BLACK
6
CONTINUOUS
10
86.044
20
-84.0297
11
86.044
21
-86.0297
0
LINE
8
BLACK
6
CONTINUOUS
10
87.8535
20
-86.0297
11
87.8535
21
-84.9821
0
LINE
8
BLACK
6
CONTINUOUS
10
87.8535
20
-84.9821
11
87.7583
21
-84.7916
0
LINE
8
BLACK
6
CONTINUOUS
10
87.7583
20
-84.7916
11
87.5678
21
-84.6964
0
LINE
8
BLACK
6
CONTINUOUS
10
87.5678
20
-84.6964
11
87.1869
21
-84.6964
0
LINE
8
BLACK
6
CONTINUOUS
10
87.1869
20
-84.6964
11
86.9964
21
-84.7916
0
LINE
8
BLACK
6
CONTINUOUS
10
87.8535
20
-85.9345
11
87.6631
21
-86.0297
0
LINE
8
BLACK
6
CONTINUOUS
10
87.6631
20
-86.0297
11
87.1869
21
-86.0297
0
LINE
8
BLACK
6
CONTINUOUS
10
87.1869
20
-86.0297
11
86.9964
21
-85.9345
0
LINE
8
BLACK
6
CONTINUOUS
10
86.9964
20
-85.9345
11
86.9012
21
-85.744
0
LINE
8
BLACK
6
CONTINUOUS
10
86.9012
20
-85.744
11
86.9012
21
-85.5535
0
LINE
8
BLACK
6
CONTINUOUS
10
86.9012
20
-85.5535
11
86.9964
21
-85.3631
0
LINE
8
BLACK
6
CONTINUOUS
10
86.9964
20
-85.3631
11
87.1869
21
-85.2678
0
LINE
8
BLACK
6
CONTINUOUS
10
87.1869
20
-85.2678
11
87.6631
21
-85.2678
0
LINE
8
BLACK
6
CONTINUOUS
10
87.6631
20
-85.2678
11
87.8535
21
-85.1726
0
LINE
8
BLACK
6
CONTINUOUS
10
88.8059
20
-84.6964
11
88.8059
21
-86.6964
0
LINE
8
BLACK
6
CONTINUOUS
10
88.8059
20
-84.7916
11
88.9964
21
-84.6964
0
LINE
8
BLACK
6
CONTINUOUS
10
88.9964
20
-84.6964
11
89.3773
21
-84.6964
0
LINE
8
BLACK
6
CONTINUOUS
10
89.3773
20
-84.6964
11
89.5678
21
-84.7916
0
LINE
8
BLACK
6
CONTINUOUS
10
89.5678
20
-84.7916
11
89.6631
21
-84.8869
0
LINE
8
BLACK
6
CONTINUOUS
10
89.6631
20
-84.8869
11
89.7583
21
-85.0773
0
LINE
8
BLACK
6
CONTINUOUS
10
89.7583
20
-85.0773
11
89.7583
21
-85.6488
0
LINE
8
BLACK
6
CONTINUOUS
10
89.7583
20
-85.6488
11
89.6631
21
-85.8392
0
LINE
8
BLACK
6
CONTINUOUS
10
89.6631
20
-85.8392
11
89.5678
21
-85.9345
0
LINE
8
BLACK
6
CONTINUOUS
10
89.5678
20
-85.9345
11
89.3773
21
-86.0297
0
LINE
8
BLACK
6
CONTINUOUS
10
89.3773
20
-86.0297
11
88.9964
21
-86.0297
0
LINE
8
BLACK
6
CONTINUOUS
10
88.9964
20
-86.0297
11
88.8059
21
-85.9345
0
LINE
8
BLACK
6
CONTINUOUS
10
90.6154
20
-85.8392
11
90.7107
21
-85.9345
0
LINE
8
BLACK
6
CONTINUOUS
10
90.7107
20
-85.9345
11
90.6154
21
-86.0297
0
LINE
8
BLACK
6
CONTINUOUS
10
90.6154
20
-86.0297
11
90.5202
21
-85.9345
0
LINE
8
BLACK
6
CONTINUOUS
10
90.5202
20
-85.9345
11
90.6154
21
-85.8392
0
LINE
8
BLACK
6
CONTINUOUS
10
90.6154
20
-85.8392
11
90.6154
21
-86.0297
0
LINE
8
BLACK
6
CONTINUOUS
10
90.6154
20
-84.7916
11
90.7107
21
-84.8869
0
LINE
8
BLACK
6
CONTINUOUS
10
90.7107
20
-84.8869
11
90.6154
21
-84.9821
0
LINE
8
BLACK
6
CONTINUOUS
10
90.6154
20
-84.9821
11
90.5202
21
-84.8869
0
LINE
8
BLACK
6
CONTINUOUS
10
90.5202
20
-84.8869
11
90.6154
21
-84.7916
0
LINE
8
BLACK
6
CONTINUOUS
10
90.6154
20
-84.7916
11
90.6154
21
-84.9821
0
LINE
8
BLACK
6
CONTINUOUS
10
73.925
20
-89.125
11
74.325
21
-89.525
0
LINE
8
BLACK
6
CONTINUOUS
10
74.325
20
-89.125
11
73.925
21
-89.525
0
LINE
8
BLACK
6
CONTINUOUS
10
77.2821
20
-88.2297
11
77.4726
21
-88.2297
0
LINE
8
BLACK
6
CONTINUOUS
10
77.4726
20
-88.2297
11
77.6631
21
-88.325
0
LINE
8
BLACK
6
CONTINUOUS
10
77.6631
20
-88.325
11
77.7583
21
-88.4202
0
LINE
8
BLACK
6
CONTINUOUS
10
77.7583
20
-88.4202
11
77.8535
21
-88.6107
0
LINE
8
BLACK
6
CONTINUOUS
10
77.8535
20
-88.6107
11
77.9488
21
-88.9916
0
LINE
8
BLACK
6
CONTINUOUS
10
77.9488
20
-88.9916
11
77.9488
21
-89.4678
0
LINE
8
BLACK
6
CONTINUOUS
10
77.9488
20
-89.4678
11
77.8535
21
-89.8488
0
LINE
8
BLACK
6
CONTINUOUS
10
77.8535
20
-89.8488
11
77.7583
21
-90.0392
0
LINE
8
BLACK
6
CONTINUOUS
10
77.7583
20
-90.0392
11
77.6631
21
-90.1345
0
LINE
8
BLACK
6
CONTINUOUS
10
77.6631
20
-90.1345
11
77.4726
21
-90.2297
0
LINE
8
BLACK
6
CONTINUOUS
10
77.4726
20
-90.2297
11
77.2821
21
-90.2297
0
LINE
8
BLACK
6
CONTINUOUS
10
77.2821
20
-90.2297
11
77.0916
21
-90.1345
0
LINE
8
BLACK
6
CONTINUOUS
10
77.0916
20
-90.1345
11
76.9964
21
-90.0392
0
LINE
8
BLACK
6
CONTINUOUS
10
76.9964
20
-90.0392
11
76.9012
21
-89.8488
0
LINE
8
BLACK
6
CONTINUOUS
10
76.9012
20
-89.8488
11
76.8059
21
-89.4678
0
LINE
8
BLACK
6
CONTINUOUS
10
76.8059
20
-89.4678
11
76.8059
21
-88.9916
0
LINE
8
BLACK
6
CONTINUOUS
10
76.8059
20
-88.9916
11
76.9012
21
-88.6107
0
LINE
8
BLACK
6
CONTINUOUS
10
76.9012
20
-88.6107
11
76.9964
21
-88.4202
0
LINE
8
BLACK
6
CONTINUOUS
10
76.9964
20
-88.4202
11
77.0916
21
-88.325
0
LINE
8
BLACK
6
CONTINUOUS
10
77.0916
20
-88.325
11
77.2821
21
-88.2297
0
LINE
8
BLACK
6
CONTINUOUS
10
78.8059
20
-90.0392
11
78.9012
21
-90.1345
0
LINE
8
BLACK
6
CONTINUOUS
10
78.9012
20
-90.1345
11
78.8059
21
-90.2297
0
LINE
8
BLACK
6
CONTINUOUS
10
78.8059
20
-90.2297
11
78.7107
21
-90.1345
0
LINE
8
BLACK
6
CONTINUOUS
10
78.7107
20
-90.1345
11
78.8059
21
-90.0392
0
LINE
8
BLACK
6
CONTINUOUS
10
78.8059
20
-90.0392
11
78.8059
21
-90.2297
0
LINE
8
BLACK
6
CONTINUOUS
10
80.6154
20
-88.8964
11
80.6154
21
-90.2297
0
LINE
8
BLACK
6
CONTINUOUS
10
80.1392
20
-88.1345
11
79.6631
21
-89.5631
0
LINE
8
BLACK
6
CONTINUOUS
10
79.6631
20
-89.5631
11
80.9012
21
-89.5631
0
LINE
8
BLACK
6
CONTINUOUS
10
82.044
20
-88.2297
11
82.2345
21
-88.2297
0
LINE
8
BLACK
6
CONTINUOUS
10
82.2345
20
-88.2297
11
82.425
21
-88.325
0
LINE
8
BLACK
6
CONTINUOUS
10
82.425
20
-88.325
11
82.5202
21
-88.4202
0
LINE
8
BLACK
6
CONTINUOUS
10
82.5202
20
-88.4202
11
82.6154
21
-88.6107
0
LINE
8
BLACK
6
CONTINUOUS
10
82.6154
20
-88.6107
11
82.7107
21
-88.9916
0
LINE
8
BLACK
6
CONTINUOUS
10
82.7107
20
-88.9916
11
82.7107
21
-89.4678
0
LINE
8
BLACK
6
CONTINUOUS
10
82.7107
20
-89.4678
11
82.6154
21
-89.8488
0
LINE
8
BLACK
6
CONTINUOUS
10
82.6154
20
-89.8488
11
82.5202
21
-90.0392
0
LINE
8
BLACK
6
CONTINUOUS
10
82.5202
20
-90.0392
11
82.425
21
-90.1345
0
LINE
8
BLACK
6
CONTINUOUS
10
82.425
20
-90.1345
11
82.2345
21
-90.2297
0
LINE
8
BLACK
6
CONTINUOUS
10
82.2345
20
-90.2297
11
82.044
21
-90.2297
0
LINE
8
BLACK
6
CONTINUOUS
10
82.044
20
-90.2297
11
81.8535
21
-90.1345
0
LINE
8
BLACK
6
CONTINUOUS
10
81.8535
20
-90.1345
11
81.7583
21
-90.0392
0
LINE
8
BLACK
6
CONTINUOUS
10
81.7583
20
-90.0392
11
81.6631
21
-89.8488
0
LINE
8
BLACK
6
CONTINUOUS
10
81.6631
20
-89.8488
11
81.5678
21
-89.4678
0
LINE
8
BLACK
6
CONTINUOUS
10
81.5678
20
-89.4678
11
81.5678
21
-88.9916
0
LINE
8
BLACK
6
CONTINUOUS
10
81.5678
20
-88.9916
11
81.6631
21
-88.6107
0
LINE
8
BLACK
6
CONTINUOUS
10
81.6631
20
-88.6107
11
81.7583
21
-88.4202
0
LINE
8
BLACK
6
CONTINUOUS
10
81.7583
20
-88.4202
11
81.8535
21
-88.325
0
LINE
8
BLACK
6
CONTINUOUS
10
81.8535
20
-88.325
11
82.044
21
-88.2297
0
LINE
8
BLACK
6
CONTINUOUS
10
83.9488
20
-88.2297
11
84.1392
21
-88.2297
0
LINE
8
BLACK
6
CONTINUOUS
10
84.1392
20
-88.2297
11
84.3297
21
-88.325
0
LINE
8
BLACK
6
CONTINUOUS
10
84.3297
20
-88.325
11
84.425
21
-88.4202
0
LINE
8
BLACK
6
CONTINUOUS
10
84.425
20
-88.4202
11
84.5202
21
-88.6107
0
LINE
8
BLACK
6
CONTINUOUS
10
84.5202
20
-88.6107
11
84.6154
21
-88.9916
0
LINE
8
BLACK
6
CONTINUOUS
10
84.6154
20
-88.9916
11
84.6154
21
-89.4678
0
LINE
8
BLACK
6
CONTINUOUS
10
84.6154
20
-89.4678
11
84.5202
21
-89.8488
0
LINE
8
BLACK
6
CONTINUOUS
10
84.5202
20
-89.8488
11
84.425
21
-90.0392
0
LINE
8
BLACK
6
CONTINUOUS
10
84.425
20
-90.0392
11
84.3297
21
-90.1345
0
LINE
8
BLACK
6
CONTINUOUS
10
84.3297
20
-90.1345
11
84.1392
21
-90.2297
0
LINE
8
BLACK
6
CONTINUOUS
10
84.1392
20
-90.2297
11
83.9488
21
-90.2297
0
LINE
8
BLACK
6
CONTINUOUS
10
83.9488
20
-90.2297
11
83.7583
21
-90.1345
0
LINE
8
BLACK
6
CONTINUOUS
10
83.7583
20
-90.1345
11
83.6631
21
-90.0392
0
LINE
8
BLACK
6
CONTINUOUS
10
83.6631
20
-90.0392
11
83.5678
21
-89.8488
0
LINE
8
BLACK
6
CONTINUOUS
10
83.5678
20
-89.8488
11
83.4726
21
-89.4678
0
LINE
8
BLACK
6
CONTINUOUS
10
83.4726
20
-89.4678
11
83.4726
21
-88.9916
0
LINE
8
BLACK
6
CONTINUOUS
10
83.4726
20
-88.9916
11
83.5678
21
-88.6107
0
LINE
8
BLACK
6
CONTINUOUS
10
83.5678
20
-88.6107
11
83.6631
21
-88.4202
0
LINE
8
BLACK
6
CONTINUOUS
10
83.6631
20
-88.4202
11
83.7583
21
-88.325
0
LINE
8
BLACK
6
CONTINUOUS
10
83.7583
20
-88.325
11
83.9488
21
-88.2297
0
LINE
8
BLACK
6
CONTINUOUS
10
85.4726
20
-90.2297
11
85.4726
21
-88.8964
0
LINE
8
BLACK
6
CONTINUOUS
10
85.4726
20
-89.0869
11
85.5678
21
-88.9916
0
LINE
8
BLACK
6
CONTINUOUS
10
85.5678
20
-88.9916
11
85.7583
21
-88.8964
0
LINE
8
BLACK
6
CONTINUOUS
10
85.7583
20
-88.8964
11
86.044
21
-88.8964
0
LINE
8
BLACK
6
CONTINUOUS
10
86.044
20
-88.8964
11
86.2345
21
-88.9916
0
LINE
8
BLACK
6
CONTINUOUS
10
86.2345
20
-88.9916
11
86.3297
21
-89.1821
0
LINE
8
BLACK
6
CONTINUOUS
10
86.3297
20
-89.1821
11
86.3297
21
-90.2297
0
LINE
8
BLACK
6
CONTINUOUS
10
86.3297
20
-89.1821
11
86.425
21
-88.9916
0
LINE
8
BLACK
6
CONTINUOUS
10
86.425
20
-88.9916
11
86.6154
21
-88.8964
0
LINE
8
BLACK
6
CONTINUOUS
10
86.6154
20
-88.8964
11
86.9012
21
-88.8964
0
LINE
8
BLACK
6
CONTINUOUS
10
86.9012
20
-88.8964
11
87.0916
21
-88.9916
0
LINE
8
BLACK
6
CONTINUOUS
10
87.0916
20
-88.9916
11
87.1869
21
-89.1821
0
LINE
8
BLACK
6
CONTINUOUS
10
87.1869
20
-89.1821
11
87.1869
21
-90.2297
0
LINE
8
BLACK
6
CONTINUOUS
10
88.1392
20
-90.2297
11
88.1392
21
-88.8964
0
LINE
8
BLACK
6
CONTINUOUS
10
88.1392
20
-89.0869
11
88.2345
21
-88.9916
0
LINE
8
BLACK
6
CONTINUOUS
10
88.2345
20
-88.9916
11
88.425
21
-88.8964
0
LINE
8
BLACK
6
CONTINUOUS
10
88.425
20
-88.8964
11
88.7107
21
-88.8964
0
LINE
8
BLACK
6
CONTINUOUS
10
88.7107
20
-88.8964
11
88.9012
21
-88.9916
0
LINE
8
BLACK
6
CONTINUOUS
10
88.9012
20
-88.9916
11
88.9964
21
-89.1821
0
LINE
8
BLACK
6
CONTINUOUS
10
88.9964
20
-89.1821
11
88.9964
21
-90.2297
0
LINE
8
BLACK
6
CONTINUOUS
10
88.9964
20
-89.1821
11
89.0916
21
-88.9916
0
LINE
8
BLACK
6
CONTINUOUS
10
89.0916
20
-88.9916
11
89.2821
21
-88.8964
0
LINE
8
BLACK
6
CONTINUOUS
10
89.2821
20
-88.8964
11
89.5678
21
-88.8964
0
LINE
8
BLACK
6
CONTINUOUS
10
89.5678
20
-88.8964
11
89.7583
21
-88.9916
0
LINE
8
BLACK
6
CONTINUOUS
10
89.7583
20
-88.9916
11
89.8535
21
-89.1821
0
LINE
8
BLACK
6
CONTINUOUS
10
89.8535
20
-89.1821
11
89.8535
21
-90.2297
0
LINE
8
BLACK
6
CONTINUOUS
10
93.7583
20
-88.1345
11
92.044
21
-90.7059
0
LINE
8
BLACK
6
CONTINUOUS
10
96.3297
20
-88.2297
11
96.5202
21
-88.2297
0
LINE
8
BLACK
6
CONTINUOUS
10
96.5202
20
-88.2297
11
96.7107
21
-88.325
0
LINE
8
BLACK
6
CONTINUOUS
10
96.7107
20
-88.325
11
96.8059
21
-88.4202
0
LINE
8
BLACK
6
CONTINUOUS
10
96.8059
20
-88.4202
11
96.9012
21
-88.6107
0
LINE
8
BLACK
6
CONTINUOUS
10
96.9012
20
-88.6107
11
96.9964
21
-88.9916
0
LINE
8
BLACK
6
CONTINUOUS
10
96.9964
20
-88.9916
11
96.9964
21
-89.4678
0
LINE
8
BLACK
6
CONTINUOUS
10
96.9964
20
-89.4678
11
96.9012
21
-89.8488
0
LINE
8
BLACK
6
CONTINUOUS
10
96.9012
20
-89.8488
11
96.8059
21
-90.0392
0
LINE
8
BLACK
6
CONTINUOUS
10
96.8059
20
-90.0392
11
96.7107
21
-90.1345
0
LINE
8
BLACK
6
CONTINUOUS
10
96.7107
20
-90.1345
11
96.5202
21
-90.2297
0
LINE
8
BLACK
6
CONTINUOUS
10
96.5202
20
-90.2297
11
96.3297
21
-90.2297
0
LINE
8
BLACK
6
CONTINUOUS
10
96.3297
20
-90.2297
11
96.1392
21
-90.1345
0
LINE
8
BLACK
6
CONTINUOUS
10
96.1392
20
-90.1345
11
96.044
21
-90.0392
0
LINE
8
BLACK
6
CONTINUOUS
10
96.044
20
-90.0392
11
95.9488
21
-89.8488
0
LINE
8
BLACK
6
CONTINUOUS
10
95.9488
20
-89.8488
11
95.8535
21
-89.4678
0
LINE
8
BLACK
6
CONTINUOUS
10
95.8535
20
-89.4678
11
95.8535
21
-88.9916
0
LINE
8
BLACK
6
CONTINUOUS
10
95.8535
20
-88.9916
11
95.9488
21
-88.6107
0
LINE
8
BLACK
6
CONTINUOUS
10
95.9488
20
-88.6107
11
96.044
21
-88.4202
0
LINE
8
BLACK
6
CONTINUOUS
10
96.044
20
-88.4202
11
96.1392
21
-88.325
0
LINE
8
BLACK
6
CONTINUOUS
10
96.1392
20
-88.325
11
96.3297
21
-88.2297
0
LINE
8
BLACK
6
CONTINUOUS
10
97.8535
20
-90.0392
11
97.9488
21
-90.1345
0
LINE
8
BLACK
6
CONTINUOUS
10
97.9488
20
-90.1345
11
97.8535
21
-90.2297
0
LINE
8
BLACK
6
CONTINUOUS
10
97.8535
20
-90.2297
11
97.7583
21
-90.1345
0
LINE
8
BLACK
6
CONTINUOUS
10
97.7583
20
-90.1345
11
97.8535
21
-90.0392
0
LINE
8
BLACK
6
CONTINUOUS
10
97.8535
20
-90.0392
11
97.8535
21
-90.2297
0
LINE
8
BLACK
6
CONTINUOUS
10
99.1869
20
-88.2297
11
99.3773
21
-88.2297
0
LINE
8
BLACK
6
CONTINUOUS
10
99.3773
20
-88.2297
11
99.5678
21
-88.325
0
LINE
8
BLACK
6
CONTINUOUS
10
99.5678
20
-88.325
11
99.6631
21
-88.4202
0
LINE
8
BLACK
6
CONTINUOUS
10
99.6631
20
-88.4202
11
99.7583
21
-88.6107
0
LINE
8
BLACK
6
CONTINUOUS
10
99.7583
20
-88.6107
11
99.8535
21
-88.9916
0
LINE
8
BLACK
6
CONTINUOUS
10
99.8535
20
-88.9916
11
99.8535
21
-89.4678
0
LINE
8
BLACK
6
CONTINUOUS
10
99.8535
20
-89.4678
11
99.7583
21
-89.8488
0
LINE
8
BLACK
6
CONTINUOUS
10
99.7583
20
-89.8488
11
99.6631
21
-90.0392
0
LINE
8
BLACK
6
CONTINUOUS
10
99.6631
20
-90.0392
11
99.5678
21
-90.1345
0
LINE
8
BLACK
6
CONTINUOUS
10
99.5678
20
-90.1345
11
99.3773
21
-90.2297
0
LINE
8
BLACK
6
CONTINUOUS
10
99.3773
20
-90.2297
11
99.1869
21
-90.2297
0
LINE
8
BLACK
6
CONTINUOUS
10
99.1869
20
-90.2297
11
98.9964
21
-90.1345
0
LINE
8
BLACK
6
CONTINUOUS
10
98.9964
20
-90.1345
11
98.9012
21
-90.0392
0
LINE
8
BLACK
6
CONTINUOUS
10
98.9012
20
-90.0392
11
98.8059
21
-89.8488
0
LINE
8
BLACK
6
CONTINUOUS
10
98.8059
20
-89.8488
11
98.7107
21
-89.4678
0
LINE
8
BLACK
6
CONTINUOUS
10
98.7107
20
-89.4678
11
98.7107
21
-88.9916
0
LINE
8
BLACK
6
CONTINUOUS
10
98.7107
20
-88.9916
11
98.8059
21
-88.6107
0
LINE
8
BLACK
6
CONTINUOUS
10
98.8059
20
-88.6107
11
98.9012
21
-88.4202
0
LINE
8
BLACK
6
CONTINUOUS
10
98.9012
20
-88.4202
11
98.9964
21
-88.325
0
LINE
8
BLACK
6
CONTINUOUS
10
98.9964
20
-88.325
11
99.1869
21
-88.2297
0
LINE
8
BLACK
6
CONTINUOUS
10
101.758
20
-90.2297
11
100.615
21
-90.2297
0
LINE
8
BLACK
6
CONTINUOUS
10
101.187
20
-90.2297
11
101.187
21
-88.2297
0
LINE
8
BLACK
6
CONTINUOUS
10
101.187
20
-88.2297
11
100.996
21
-88.5154
0
LINE
8
BLACK
6
CONTINUOUS
10
100.996
20
-88.5154
11
100.806
21
-88.7059
0
LINE
8
BLACK
6
CONTINUOUS
10
100.806
20
-88.7059
11
100.615
21
-88.8012
0
LINE
8
BLACK
6
CONTINUOUS
10
103.568
20
-88.2297
11
102.615
21
-88.2297
0
LINE
8
BLACK
6
CONTINUOUS
10
102.615
20
-88.2297
11
102.52
21
-89.1821
0
LINE
8
BLACK
6
CONTINUOUS
10
102.52
20
-89.1821
11
102.615
21
-89.0869
0
LINE
8
BLACK
6
CONTINUOUS
10
102.615
20
-89.0869
11
102.806
21
-88.9916
0
LINE
8
BLACK
6
CONTINUOUS
10
102.806
20
-88.9916
11
103.282
21
-88.9916
0
LINE
8
BLACK
6
CONTINUOUS
10
103.282
20
-88.9916
11
103.473
21
-89.0869
0
LINE
8
BLACK
6
CONTINUOUS
10
103.473
20
-89.0869
11
103.568
21
-89.1821
0
LINE
8
BLACK
6
CONTINUOUS
10
103.568
20
-89.1821
11
103.663
21
-89.3726
0
LINE
8
BLACK
6
CONTINUOUS
10
103.663
20
-89.3726
11
103.663
21
-89.8488
0
LINE
8
BLACK
6
CONTINUOUS
10
103.663
20
-89.8488
11
103.568
21
-90.0392
0
LINE
8
BLACK
6
CONTINUOUS
10
103.568
20
-90.0392
11
103.473
21
-90.1345
0
LINE
8
BLACK
6
CONTINUOUS
10
103.473
20
-90.1345
11
103.282
21
-90.2297
0
LINE
8
BLACK
6
CONTINUOUS
10
103.282
20
-90.2297
11
102.806
21
-90.2297
0
LINE
8
BLACK
6
CONTINUOUS
10
102.806
20
-90.2297
11
102.615
21
-90.1345
0
LINE
8
BLACK
6
CONTINUOUS
10
102.615
20
-90.1345
11
102.52
21
-90.0392
0
LINE
8
BLACK
6
CONTINUOUS
10
104.33
20
-88.2297
11
105.663
21
-88.2297
0
LINE
8
BLACK
6
CONTINUOUS
10
105.663
20
-88.2297
11
104.806
21
-90.2297
0
LINE
8
BLACK
6
CONTINUOUS
10
106.33
20
-88.2297
11
106.33
21
-88.6107
0
LINE
8
BLACK
6
CONTINUOUS
10
107.092
20
-88.2297
11
107.092
21
-88.6107
0
LINE
8
BLACK
6
CONTINUOUS
10
110.044
20
-90.9916
11
109.949
21
-90.8964
0
LINE
8
BLACK
6
CONTINUOUS
10
109.949
20
-90.8964
11
109.758
21
-90.6107
0
LINE
8
BLACK
6
CONTINUOUS
10
109.758
20
-90.6107
11
109.663
21
-90.4202
0
LINE
8
BLACK
6
CONTINUOUS
10
109.663
20
-90.4202
11
109.568
21
-90.1345
0
LINE
8
BLACK
6
CONTINUOUS
10
109.568
20
-90.1345
11
109.473
21
-89.6583
0
LINE
8
BLACK
6
CONTINUOUS
10
109.473
20
-89.6583
11
109.473
21
-89.2773
0
LINE
8
BLACK
6
CONTINUOUS
10
109.473
20
-89.2773
11
109.568
21
-88.8012
0
LINE
8
BLACK
6
CONTINUOUS
10
109.568
20
-88.8012
11
109.663
21
-88.5154
0
LINE
8
BLACK
6
CONTINUOUS
10
109.663
20
-88.5154
11
109.758
21
-88.325
0
LINE
8
BLACK
6
CONTINUOUS
10
109.758
20
-88.325
11
109.949
21
-88.0392
0
LINE
8
BLACK
6
CONTINUOUS
10
109.949
20
-88.0392
11
110.044
21
-87.944
0
LINE
8
BLACK
6
CONTINUOUS
10
110.615
20
-88.2297
11
111.949
21
-88.2297
0
LINE
8
BLACK
6
CONTINUOUS
10
111.949
20
-88.2297
11
111.092
21
-90.2297
0
LINE
8
BLACK
6
CONTINUOUS
10
113.663
20
-88.2297
11
112.711
21
-88.2297
0
LINE
8
BLACK
6
CONTINUOUS
10
112.711
20
-88.2297
11
112.615
21
-89.1821
0
LINE
8
BLACK
6
CONTINUOUS
10
112.615
20
-89.1821
11
112.711
21
-89.0869
0
LINE
8
BLACK
6
CONTINUOUS
10
112.711
20
-89.0869
11
112.901
21
-88.9916
0
LINE
8
BLACK
6
CONTINUOUS
10
112.901
20
-88.9916
11
113.377
21
-88.9916
0
LINE
8
BLACK
6
CONTINUOUS
10
113.377
20
-88.9916
11
113.568
21
-89.0869
0
LINE
8
BLACK
6
CONTINUOUS
10
113.568
20
-89.0869
11
113.663
21
-89.1821
0
LINE
8
BLACK
6
CONTINUOUS
10
113.663
20
-89.1821
11
113.758
21
-89.3726
0
LINE
8
BLACK
6
CONTINUOUS
10
113.758
20
-89.3726
11
113.758
21
-89.8488
0
LINE
8
BLACK
6
CONTINUOUS
10
113.758
20
-89.8488
11
113.663
21
-90.0392
0
LINE
8
BLACK
6
CONTINUOUS
10
113.663
20
-90.0392
11
113.568
21
-90.1345
0
LINE
8
BLACK
6
CONTINUOUS
10
113.568
20
-90.1345
11
113.377
21
-90.2297
0
LINE
8
BLACK
6
CONTINUOUS
10
113.377
20
-90.2297
11
112.901
21
-90.2297
0
LINE
8
BLACK
6
CONTINUOUS
10
112.901
20
-90.2297
11
112.711
21
-90.1345
0
LINE
8
BLACK
6
CONTINUOUS
10
112.711
20
-90.1345
11
112.615
21
-90.0392
0
LINE
8
BLACK
6
CONTINUOUS
10
116.139
20
-90.2297
11
116.139
21
-88.2297
0
LINE
8
BLACK
6
CONTINUOUS
10
116.996
20
-90.2297
11
116.996
21
-89.1821
0
LINE
8
BLACK
6
CONTINUOUS
10
116.996
20
-89.1821
11
116.901
21
-88.9916
0
LINE
8
BLACK
6
CONTINUOUS
10
116.901
20
-88.9916
11
116.711
21
-88.8964
0
LINE
8
BLACK
6
CONTINUOUS
10
116.711
20
-88.8964
11
116.425
21
-88.8964
0
LINE
8
BLACK
6
CONTINUOUS
10
116.425
20
-88.8964
11
116.234
21
-88.9916
0
LINE
8
BLACK
6
CONTINUOUS
10
116.234
20
-88.9916
11
116.139
21
-89.0869
0
LINE
8
BLACK
6
CONTINUOUS
10
118.234
20
-90.2297
11
118.044
21
-90.1345
0
LINE
8
BLACK
6
CONTINUOUS
10
118.044
20
-90.1345
11
117.949
21
-90.0392
0
LINE
8
BLACK
6
CONTINUOUS
10
117.949
20
-90.0392
11
117.854
21
-89.8488
0
LINE
8
BLACK
6
CONTINUOUS
10
117.854
20
-89.8488
11
117.854
21
-89.2773
0
LINE
8
BLACK
6
CONTINUOUS
10
117.854
20
-89.2773
11
117.949
21
-89.0869
0
LINE
8
BLACK
6
CONTINUOUS
10
117.949
20
-89.0869
11
118.044
21
-88.9916
0
LINE
8
BLACK
6
CONTINUOUS
10
118.044
20
-88.9916
11
118.234
21
-88.8964
0
LINE
8
BLACK
6
CONTINUOUS
10
118.234
20
-88.8964
11
118.52
21
-88.8964
0
LINE
8
BLACK
6
CONTINUOUS
10
118.52
20
-88.8964
11
118.711
21
-88.9916
0
LINE
8
BLACK
6
CONTINUOUS
10
118.711
20
-88.9916
11
118.806
21
-89.0869
0
LINE
8
BLACK
6
CONTINUOUS
10
118.806
20
-89.0869
11
118.901
21
-89.2773
0
LINE
8
BLACK
6
CONTINUOUS
10
118.901
20
-89.2773
11
118.901
21
-89.8488
0
LINE
8
BLACK
6
CONTINUOUS
10
118.901
20
-89.8488
11
118.806
21
-90.0392
0
LINE
8
BLACK
6
CONTINUOUS
10
118.806
20
-90.0392
11
118.711
21
-90.1345
0
LINE
8
BLACK
6
CONTINUOUS
10
118.711
20
-90.1345
11
118.52
21
-90.2297
0
LINE
8
BLACK
6
CONTINUOUS
10
118.52
20
-90.2297
11
118.234
21
-90.2297
0
LINE
8
BLACK
6
CONTINUOUS
10
120.044
20
-90.2297
11
119.854
21
-90.1345
0
LINE
8
BLACK
6
CONTINUOUS
10
119.854
20
-90.1345
11
119.758
21
-89.944
0
LINE
8
BLACK
6
CONTINUOUS
10
119.758
20
-89.944
11
119.758
21
-88.2297
0
LINE
8
BLACK
6
CONTINUOUS
10
121.568
20
-90.1345
11
121.377
21
-90.2297
0
LINE
8
BLACK
6
CONTINUOUS
10
121.377
20
-90.2297
11
120.996
21
-90.2297
0
LINE
8
BLACK
6
CONTINUOUS
10
120.996
20
-90.2297
11
120.806
21
-90.1345
0
LINE
8
BLACK
6
CONTINUOUS
10
120.806
20
-90.1345
11
120.711
21
-89.944
0
LINE
8
BLACK
6
CONTINUOUS
10
120.711
20
-89.944
11
120.711
21
-89.1821
0
LINE
8
BLACK
6
CONTINUOUS
10
120.711
20
-89.1821
11
120.806
21
-88.9916
0
LINE
8
BLACK
6
CONTINUOUS
10
120.806
20
-88.9916
11
120.996
21
-88.8964
0
LINE
8
BLACK
6
CONTINUOUS
10
120.996
20
-88.8964
11
121.377
21
-88.8964
0
LINE
8
BLACK
6
CONTINUOUS
10
121.377
20
-88.8964
11
121.568
21
-88.9916
0
LINE
8
BLACK
6
CONTINUOUS
10
121.568
20
-88.9916
11
121.663
21
-89.1821
0
LINE
8
BLACK
6
CONTINUOUS
10
121.663
20
-89.1821
11
121.663
21
-89.3726
0
LINE
8
BLACK
6
CONTINUOUS
10
121.663
20
-89.3726
11
120.711
21
-89.5631
0
LINE
8
BLACK
6
CONTINUOUS
10
122.425
20
-90.1345
11
122.615
21
-90.2297
0
LINE
8
BLACK
6
CONTINUOUS
10
122.615
20
-90.2297
11
122.996
21
-90.2297
0
LINE
8
BLACK
6
CONTINUOUS
10
122.996
20
-90.2297
11
123.187
21
-90.1345
0
LINE
8
BLACK
6
CONTINUOUS
10
123.187
20
-90.1345
11
123.282
21
-89.944
0
LINE
8
BLACK
6
CONTINUOUS
10
123.282
20
-89.944
11
123.282
21
-89.8488
0
LINE
8
BLACK
6
CONTINUOUS
10
123.282
20
-89.8488
11
123.187
21
-89.6583
0
LINE
8
BLACK
6
CONTINUOUS
10
123.187
20
-89.6583
11
122.996
21
-89.5631
0
LINE
8
BLACK
6
CONTINUOUS
10
122.996
20
-89.5631
11
122.711
21
-89.5631
0
LINE
8
BLACK
6
CONTINUOUS
10
122.711
20
-89.5631
11
122.52
21
-89.4678
0
LINE
8
BLACK
6
CONTINUOUS
10
122.52
20
-89.4678
11
122.425
21
-89.2773
0
LINE
8
BLACK
6
CONTINUOUS
10
122.425
20
-89.2773
11
122.425
21
-89.1821
0
LINE
8
BLACK
6
CONTINUOUS
10
122.425
20
-89.1821
11
122.52
21
-88.9916
0
LINE
8
BLACK
6
CONTINUOUS
10
122.52
20
-88.9916
11
122.711
21
-88.8964
0
LINE
8
BLACK
6
CONTINUOUS
10
122.711
20
-88.8964
11
122.996
21
-88.8964
0
LINE
8
BLACK
6
CONTINUOUS
10
122.996
20
-88.8964
11
123.187
21
-88.9916
0
LINE
8
BLACK
6
CONTINUOUS
10
123.949
20
-90.9916
11
124.044
21
-90.8964
0
LINE
8
BLACK
6
CONTINUOUS
10
124.044
20
-90.8964
11
124.234
21
-90.6107
0
LINE
8
BLACK
6
CONTINUOUS
10
124.234
20
-90.6107
11
124.33
21
-90.4202
0
LINE
8
BLACK
6
CONTINUOUS
10
124.33
20
-90.4202
11
124.425
21
-90.1345
0
LINE
8
BLACK
6
CONTINUOUS
10
124.425
20
-90.1345
11
124.52
21
-89.6583
0
LINE
8
BLACK
6
CONTINUOUS
10
124.52
20
-89.6583
11
124.52
21
-89.2773
0
LINE
8
BLACK
6
CONTINUOUS
10
124.52
20
-89.2773
11
124.425
21
-88.8012
0
LINE
8
BLACK
6
CONTINUOUS
10
124.425
20
-88.8012
11
124.33
21
-88.5154
0
LINE
8
BLACK
6
CONTINUOUS
10
124.33
20
-88.5154
11
124.234
21
-88.325
0
LINE
8
BLACK
6
CONTINUOUS
10
124.234
20
-88.325
11
124.044
21
-88.0392
0
LINE
8
BLACK
6
CONTINUOUS
10
124.044
20
-88.0392
11
123.949
21
-87.944
0
CIRCLE
8
BLACK
10
74.025
20
-91.965
40
0.3
0
LINE
8
BLACK
6
CONTINUOUS
10
77.2821
20
-90.8697
11
77.4726
21
-90.8697
0
LINE
8
BLACK
6
CONTINUOUS
10
77.4726
20
-90.8697
11
77.6631
21
-90.965
0
LINE
8
BLACK
6
CONTINUOUS
10
77.6631
20
-90.965
11
77.7583
21
-91.0602
0
LINE
8
BLACK
6
CONTINUOUS
10
77.7583
20
-91.0602
11
77.8535
21
-91.2507
0
LINE
8
BLACK
6
CONTINUOUS
10
77.8535
20
-91.2507
11
77.9488
21
-91.6316
0
LINE
8
BLACK
6
CONTINUOUS
10
77.9488
20
-91.6316
11
77.9488
21
-92.1078
0
LINE
8
BLACK
6
CONTINUOUS
10
77.9488
20
-92.1078
11
77.8535
21
-92.4888
0
LINE
8
BLACK
6
CONTINUOUS
10
77.8535
20
-92.4888
11
77.7583
21
-92.6792
0
LINE
8
BLACK
6
CONTINUOUS
10
77.7583
20
-92.6792
11
77.6631
21
-92.7745
0
LINE
8
BLACK
6
CONTINUOUS
10
77.6631
20
-92.7745
11
77.4726
21
-92.8697
0
LINE
8
BLACK
6
CONTINUOUS
10
77.4726
20
-92.8697
11
77.2821
21
-92.8697
0
LINE
8
BLACK
6
CONTINUOUS
10
77.2821
20
-92.8697
11
77.0916
21
-92.7745
0
LINE
8
BLACK
6
CONTINUOUS
10
77.0916
20
-92.7745
11
76.9964
21
-92.6792
0
LINE
8
BLACK
6
CONTINUOUS
10
76.9964
20
-92.6792
11
76.9012
21
-92.4888
0
LINE
8
BLACK
6
CONTINUOUS
10
76.9012
20
-92.4888
11
76.8059
21
-92.1078
0
LINE
8
BLACK
6
CONTINUOUS
10
76.8059
20
-92.1078
11
76.8059
21
-91.6316
0
LINE
8
BLACK
6
CONTINUOUS
10
76.8059
20
-91.6316
11
76.9012
21
-91.2507
0
LINE
8
BLACK
6
CONTINUOUS
10
76.9012
20
-91.2507
11
76.9964
21
-91.0602
0
LINE
8
BLACK
6
CONTINUOUS
10
76.9964
20
-91.0602
11
77.0916
21
-90.965
0
LINE
8
BLACK
6
CONTINUOUS
10
77.0916
20
-90.965
11
77.2821
21
-90.8697
0
LINE
8
BLACK
6
CONTINUOUS
10
78.8059
20
-92.6792
11
78.9012
21
-92.7745
0
LINE
8
BLACK
6
CONTINUOUS
10
78.9012
20
-92.7745
11
78.8059
21
-92.8697
0
LINE
8
BLACK
6
CONTINUOUS
10
78.8059
20
-92.8697
11
78.7107
21
-92.7745
0
LINE
8
BLACK
6
CONTINUOUS
10
78.7107
20
-92.7745
11
78.8059
21
-92.6792
0
LINE
8
BLACK
6
CONTINUOUS
10
78.8059
20
-92.6792
11
78.8059
21
-92.8697
0
LINE
8
BLACK
6
CONTINUOUS
10
80.6154
20
-90.8697
11
80.2345
21
-90.8697
0
LINE
8
BLACK
6
CONTINUOUS
10
80.2345
20
-90.8697
11
80.044
21
-90.965
0
LINE
8
BLACK
6
CONTINUOUS
10
80.044
20
-90.965
11
79.9488
21
-91.0602
0
LINE
8
BLACK
6
CONTINUOUS
10
79.9488
20
-91.0602
11
79.7583
21
-91.3459
0
LINE
8
BLACK
6
CONTINUOUS
10
79.7583
20
-91.3459
11
79.6631
21
-91.7269
0
LINE
8
BLACK
6
CONTINUOUS
10
79.6631
20
-91.7269
11
79.6631
21
-92.4888
0
LINE
8
BLACK
6
CONTINUOUS
10
79.6631
20
-92.4888
11
79.7583
21
-92.6792
0
LINE
8
BLACK
6
CONTINUOUS
10
79.7583
20
-92.6792
11
79.8535
21
-92.7745
0
LINE
8
BLACK
6
CONTINUOUS
10
79.8535
20
-92.7745
11
80.044
21
-92.8697
0
LINE
8
BLACK
6
CONTINUOUS
10
80.044
20
-92.8697
11
80.425
21
-92.8697
0
LINE
8
BLACK
6
CONTINUOUS
10
80.425
20
-92.8697
11
80.6154
21
-92.7745
0
LINE
8
BLACK
6
CONTINUOUS
10
80.6154
20
-92.7745
11
80.7107
21
-92.6792
0
LINE
8
BLACK
6
CONTINUOUS
10
80.7107
20
-92.6792
11
80.8059
21
-92.4888
0
LINE
8
BLACK
6
CONTINUOUS
10
80.8059
20
-92.4888
11
80.8059
21
-92.0126
0
LINE
8
BLACK
6
CONTINUOUS
10
80.8059
20
-92.0126
11
80.7107
21
-91.8221
0
LINE
8
BLACK
6
CONTINUOUS
10
80.7107
20
-91.8221
11
80.6154
21
-91.7269
0
LINE
8
BLACK
6
CONTINUOUS
10
80.6154
20
-91.7269
11
80.425
21
-91.6316
0
LINE
8
BLACK
6
CONTINUOUS
10
80.425
20
-91.6316
11
80.044
21
-91.6316
0
LINE
8
BLACK
6
CONTINUOUS
10
80.044
20
-91.6316
11
79.8535
21
-91.7269
0
LINE
8
BLACK
6
CONTINUOUS
10
79.8535
20
-91.7269
11
79.7583
21
-91.8221
0
LINE
8
BLACK
6
CONTINUOUS
10
79.7583
20
-91.8221
11
79.6631
21
-92.0126
0
LINE
8
BLACK
6
CONTINUOUS
10
82.044
20
-90.8697
11
82.2345
21
-90.8697
0
LINE
8
BLACK
6
CONTINUOUS
10
82.2345
20
-90.8697
11
82.425
21
-90.965
0
LINE
8
BLACK
6
CONTINUOUS
10
82.425
20
-90.965
11
82.5202
21
-91.0602
0
LINE
8
BLACK
6
CONTINUOUS
10
82.5202
20
-91.0602
11
82.6154
21
-91.2507
0
LINE
8
BLACK
6
CONTINUOUS
10
82.6154
20
-91.2507
11
82.7107
21
-91.6316
0
LINE
8
BLACK
6
CONTINUOUS
10
82.7107
20
-91.6316
11
82.7107
21
-92.1078
0
LINE
8
BLACK
6
CONTINUOUS
10
82.7107
20
-92.1078
11
82.6154
21
-92.4888
0
LINE
8
BLACK
6
CONTINUOUS
10
82.6154
20
-92.4888
11
82.5202
21
-92.6792
0
LINE
8
BLACK
6
CONTINUOUS
10
82.5202
20
-92.6792
11
82.425
21
-92.7745
0
LINE
8
BLACK
6
CONTINUOUS
10
82.425
20
-92.7745
11
82.2345
21
-92.8697
0
LINE
8
BLACK
6
CONTINUOUS
10
82.2345
20
-92.8697
11
82.044
21
-92.8697
0
LINE
8
BLACK
6
CONTINUOUS
10
82.044
20
-92.8697
11
81.8535
21
-92.7745
0
LINE
8
BLACK
6
CONTINUOUS
10
81.8535
20
-92.7745
11
81.7583
21
-92.6792
0
LINE
8
BLACK
6
CONTINUOUS
10
81.7583
20
-92.6792
11
81.6631
21
-92.4888
0
LINE
8
BLACK
6
CONTINUOUS
10
81.6631
20
-92.4888
11
81.5678
21
-92.1078
0
LINE
8
BLACK
6
CONTINUOUS
10
81.5678
20
-92.1078
11
81.5678
21
-91.6316
0
LINE
8
BLACK
6
CONTINUOUS
10
81.5678
20
-91.6316
11
81.6631
21
-91.2507
0
LINE
8
BLACK
6
CONTINUOUS
10
81.6631
20
-91.2507
11
81.7583
21
-91.0602
0
LINE
8
BLACK
6
CONTINUOUS
10
81.7583
20
-91.0602
11
81.8535
21
-90.965
0
LINE
8
BLACK
6
CONTINUOUS
10
81.8535
20
-90.965
11
82.044
21
-90.8697
0
LINE
8
BLACK
6
CONTINUOUS
10
83.9488
20
-90.8697
11
84.1392
21
-90.8697
0
LINE
8
BLACK
6
CONTINUOUS
10
84.1392
20
-90.8697
11
84.3297
21
-90.965
0
LINE
8
BLACK
6
CONTINUOUS
10
84.3297
20
-90.965
11
84.425
21
-91.0602
0
LINE
8
BLACK
6
CONTINUOUS
10
84.425
20
-91.0602
11
84.5202
21
-91.2507
0
LINE
8
BLACK
6
CONTINUOUS
10
84.5202
20
-91.2507
11
84.6154
21
-91.6316
0
LINE
8
BLACK
6
CONTINUOUS
10
84.6154
20
-91.6316
11
84.6154
21
-92.1078
0
LINE
8
BLACK
6
CONTINUOUS
10
84.6154
20
-92.1078
11
84.5202
21
-92.4888
0
LINE
8
BLACK
6
CONTINUOUS
10
84.5202
20
-92.4888
11
84.425
21
-92.6792
0
LINE
8
BLACK
6
CONTINUOUS
10
84.425
20
-92.6792
11
84.3297
21
-92.7745
0
LINE
8
BLACK
6
CONTINUOUS
10
84.3297
20
-92.7745
11
84.1392
21
-92.8697
0
LINE
8
BLACK
6
CONTINUOUS
10
84.1392
20
-92.8697
11
83.9488
21
-92.8697
0
LINE
8
BLACK
6
CONTINUOUS
10
83.9488
20
-92.8697
11
83.7583
21
-92.7745
0
LINE
8
BLACK
6
CONTINUOUS
10
83.7583
20
-92.7745
11
83.6631
21
-92.6792
0
LINE
8
BLACK
6
CONTINUOUS
10
83.6631
20
-92.6792
11
83.5678
21
-92.4888
0
LINE
8
BLACK
6
CONTINUOUS
10
83.5678
20
-92.4888
11
83.4726
21
-92.1078
0
LINE
8
BLACK
6
CONTINUOUS
10
83.4726
20
-92.1078
11
83.4726
21
-91.6316
0
LINE
8
BLACK
6
CONTINUOUS
10
83.4726
20
-91.6316
11
83.5678
21
-91.2507
0
LINE
8
BLACK
6
CONTINUOUS
10
83.5678
20
-91.2507
11
83.6631
21
-91.0602
0
LINE
8
BLACK
6
CONTINUOUS
10
83.6631
20
-91.0602
11
83.7583
21
-90.965
0
LINE
8
BLACK
6
CONTINUOUS
10
83.7583
20
-90.965
11
83.9488
21
-90.8697
0
LINE
8
BLACK
6
CONTINUOUS
10
85.4726
20
-92.8697
11
85.4726
21
-91.5364
0
LINE
8
BLACK
6
CONTINUOUS
10
85.4726
20
-91.7269
11
85.5678
21
-91.6316
0
LINE
8
BLACK
6
CONTINUOUS
10
85.5678
20
-91.6316
11
85.7583
21
-91.5364
0
LINE
8
BLACK
6
CONTINUOUS
10
85.7583
20
-91.5364
11
86.044
21
-91.5364
0
LINE
8
BLACK
6
CONTINUOUS
10
86.044
20
-91.5364
11
86.2345
21
-91.6316
0
LINE
8
BLACK
6
CONTINUOUS
10
86.2345
20
-91.6316
11
86.3297
21
-91.8221
0
LINE
8
BLACK
6
CONTINUOUS
10
86.3297
20
-91.8221
11
86.3297
21
-92.8697
0
LINE
8
BLACK
6
CONTINUOUS
10
86.3297
20
-91.8221
11
86.425
21
-91.6316
0
LINE
8
BLACK
6
CONTINUOUS
10
86.425
20
-91.6316
11
86.6154
21
-91.5364
0
LINE
8
BLACK
6
CONTINUOUS
10
86.6154
20
-91.5364
11
86.9012
21
-91.5364
0
LINE
8
BLACK
6
CONTINUOUS
10
86.9012
20
-91.5364
11
87.0916
21
-91.6316
0
LINE
8
BLACK
6
CONTINUOUS
10
87.0916
20
-91.6316
11
87.1869
21
-91.8221
0
LINE
8
BLACK
6
CONTINUOUS
10
87.1869
20
-91.8221
11
87.1869
21
-92.8697
0
LINE
8
BLACK
6
CONTINUOUS
10
88.1392
20
-92.8697
11
88.1392
21
-91.5364
0
LINE
8
BLACK
6
CONTINUOUS
10
88.1392
20
-91.7269
11
88.2345
21
-91.6316
0
LINE
8
BLACK
6
CONTINUOUS
10
88.2345
20
-91.6316
11
88.425
21
-91.5364
0
LINE
8
BLACK
6
CONTINUOUS
10
88.425
20
-91.5364
11
88.7107
21
-91.5364
0
LINE
8
BLACK
6
CONTINUOUS
10
88.7107
20
-91.5364
11
88.9012
21
-91.6316
0
LINE
8
BLACK
6
CONTINUOUS
10
88.9012
20
-91.6316
11
88.9964
21
-91.8221
0
LINE
8
BLACK
6
CONTINUOUS
10
88.9964
20
-91.8221
11
88.9964
21
-92.8697
0
LINE
8
BLACK
6
CONTINUOUS
10
88.9964
20
-91.8221
11
89.0916
21
-91.6316
0
LINE
8
BLACK
6
CONTINUOUS
10
89.0916
20
-91.6316
11
89.2821
21
-91.5364
0
LINE
8
BLACK
6
CONTINUOUS
10
89.2821
20
-91.5364
11
89.5678
21
-91.5364
0
LINE
8
BLACK
6
CONTINUOUS
10
89.5678
20
-91.5364
11
89.7583
21
-91.6316
0
LINE
8
BLACK
6
CONTINUOUS
10
89.7583
20
-91.6316
11
89.8535
21
-91.8221
0
LINE
8
BLACK
6
CONTINUOUS
10
89.8535
20
-91.8221
11
89.8535
21
-92.8697
0
LINE
8
BLACK
6
CONTINUOUS
10
93.7583
20
-90.7745
11
92.044
21
-93.3459
0
LINE
8
BLACK
6
CONTINUOUS
10
96.3297
20
-90.8697
11
96.5202
21
-90.8697
0
LINE
8
BLACK
6
CONTINUOUS
10
96.5202
20
-90.8697
11
96.7107
21
-90.965
0
LINE
8
BLACK
6
CONTINUOUS
10
96.7107
20
-90.965
11
96.8059
21
-91.0602
0
LINE
8
BLACK
6
CONTINUOUS
10
96.8059
20
-91.0602
11
96.9012
21
-91.2507
0
LINE
8
BLACK
6
CONTINUOUS
10
96.9012
20
-91.2507
11
96.9964
21
-91.6316
0
LINE
8
BLACK
6
CONTINUOUS
10
96.9964
20
-91.6316
11
96.9964
21
-92.1078
0
LINE
8
BLACK
6
CONTINUOUS
10
96.9964
20
-92.1078
11
96.9012
21
-92.4888
0
LINE
8
BLACK
6
CONTINUOUS
10
96.9012
20
-92.4888
11
96.8059
21
-92.6792
0
LINE
8
BLACK
6
CONTINUOUS
10
96.8059
20
-92.6792
11
96.7107
21
-92.7745
0
LINE
8
BLACK
6
CONTINUOUS
10
96.7107
20
-92.7745
11
96.5202
21
-92.8697
0
LINE
8
BLACK
6
CONTINUOUS
10
96.5202
20
-92.8697
11
96.3297
21
-92.8697
0
LINE
8
BLACK
6
CONTINUOUS
10
96.3297
20
-92.8697
11
96.1392
21
-92.7745
0
LINE
8
BLACK
6
CONTINUOUS
10
96.1392
20
-92.7745
11
96.044
21
-92.6792
0
LINE
8
BLACK
6
CONTINUOUS
10
96.044
20
-92.6792
11
95.9488
21
-92.4888
0
LINE
8
BLACK
6
CONTINUOUS
10
95.9488
20
-92.4888
11
95.8535
21
-92.1078
0
LINE
8
BLACK
6
CONTINUOUS
10
95.8535
20
-92.1078
11
95.8535
21
-91.6316
0
LINE
8
BLACK
6
CONTINUOUS
10
95.8535
20
-91.6316
11
95.9488
21
-91.2507
0
LINE
8
BLACK
6
CONTINUOUS
10
95.9488
20
-91.2507
11
96.044
21
-91.0602
0
LINE
8
BLACK
6
CONTINUOUS
10
96.044
20
-91.0602
11
96.1392
21
-90.965
0
LINE
8
BLACK
6
CONTINUOUS
10
96.1392
20
-90.965
11
96.3297
21
-90.8697
0
LINE
8
BLACK
6
CONTINUOUS
10
97.8535
20
-92.6792
11
97.9488
21
-92.7745
0
LINE
8
BLACK
6
CONTINUOUS
10
97.9488
20
-92.7745
11
97.8535
21
-92.8697
0
LINE
8
BLACK
6
CONTINUOUS
10
97.8535
20
-92.8697
11
97.7583
21
-92.7745
0
LINE
8
BLACK
6
CONTINUOUS
10
97.7583
20
-92.7745
11
97.8535
21
-92.6792
0
LINE
8
BLACK
6
CONTINUOUS
10
97.8535
20
-92.6792
11
97.8535
21
-92.8697
0
LINE
8
BLACK
6
CONTINUOUS
10
99.1869
20
-90.8697
11
99.3773
21
-90.8697
0
LINE
8
BLACK
6
CONTINUOUS
10
99.3773
20
-90.8697
11
99.5678
21
-90.965
0
LINE
8
BLACK
6
CONTINUOUS
10
99.5678
20
-90.965
11
99.6631
21
-91.0602
0
LINE
8
BLACK
6
CONTINUOUS
10
99.6631
20
-91.0602
11
99.7583
21
-91.2507
0
LINE
8
BLACK
6
CONTINUOUS
10
99.7583
20
-91.2507
11
99.8535
21
-91.6316
0
LINE
8
BLACK
6
CONTINUOUS
10
99.8535
20
-91.6316
11
99.8535
21
-92.1078
0
LINE
8
BLACK
6
CONTINUOUS
10
99.8535
20
-92.1078
11
99.7583
21
-92.4888
0
LINE
8
BLACK
6
CONTINUOUS
10
99.7583
20
-92.4888
11
99.6631
21
-92.6792
0
LINE
8
BLACK
6
CONTINUOUS
10
99.6631
20
-92.6792
11
99.5678
21
-92.7745
0
LINE
8
BLACK
6
CONTINUOUS
10
99.5678
20
-92.7745
11
99.3773
21
-92.8697
0
LINE
8
BLACK
6
CONTINUOUS
10
99.3773
20
-92.8697
11
99.1869
21
-92.8697
0
LINE
8
BLACK
6
CONTINUOUS
10
99.1869
20
-92.8697
11
98.9964
21
-92.7745
0
LINE
8
BLACK
6
CONTINUOUS
10
98.9964
20
-92.7745
11
98.9012
21
-92.6792
0
LINE
8
BLACK
6
CONTINUOUS
10
98.9012
20
-92.6792
11
98.8059
21
-92.4888
0
LINE
8
BLACK
6
CONTINUOUS
10
98.8059
20
-92.4888
11
98.7107
21
-92.1078
0
LINE
8
BLACK
6
CONTINUOUS
10
98.7107
20
-92.1078
11
98.7107
21
-91.6316
0
LINE
8
BLACK
6
CONTINUOUS
10
98.7107
20
-91.6316
11
98.8059
21
-91.2507
0
LINE
8
BLACK
6
CONTINUOUS
10
98.8059
20
-91.2507
11
98.9012
21
-91.0602
0
LINE
8
BLACK
6
CONTINUOUS
10
98.9012
20
-91.0602
11
98.9964
21
-90.965
0
LINE
8
BLACK
6
CONTINUOUS
10
98.9964
20
-90.965
11
99.1869
21
-90.8697
0
LINE
8
BLACK
6
CONTINUOUS
10
100.615
20
-91.0602
11
100.711
21
-90.965
0
LINE
8
BLACK
6
CONTINUOUS
10
100.711
20
-90.965
11
100.901
21
-90.8697
0
LINE
8
BLACK
6
CONTINUOUS
10
100.901
20
-90.8697
11
101.377
21
-90.8697
0
LINE
8
BLACK
6
CONTINUOUS
10
101.377
20
-90.8697
11
101.568
21
-90.965
0
LINE
8
BLACK
6
CONTINUOUS
10
101.568
20
-90.965
11
101.663
21
-91.0602
0
LINE
8
BLACK
6
CONTINUOUS
10
101.663
20
-91.0602
11
101.758
21
-91.2507
0
LINE
8
BLACK
6
CONTINUOUS
10
101.758
20
-91.2507
11
101.758
21
-91.4412
0
LINE
8
BLACK
6
CONTINUOUS
10
101.758
20
-91.4412
11
101.663
21
-91.7269
0
LINE
8
BLACK
6
CONTINUOUS
10
101.663
20
-91.7269
11
100.52
21
-92.8697
0
LINE
8
BLACK
6
CONTINUOUS
10
100.52
20
-92.8697
11
101.758
21
-92.8697
0
LINE
8
BLACK
6
CONTINUOUS
10
102.425
20
-90.8697
11
103.663
21
-90.8697
0
LINE
8
BLACK
6
CONTINUOUS
10
103.663
20
-90.8697
11
102.996
21
-91.6316
0
LINE
8
BLACK
6
CONTINUOUS
10
102.996
20
-91.6316
11
103.282
21
-91.6316
0
LINE
8
BLACK
6
CONTINUOUS
10
103.282
20
-91.6316
11
103.473
21
-91.7269
0
LINE
8
BLACK
6
CONTINUOUS
10
103.473
20
-91.7269
11
103.568
21
-91.8221
0
LINE
8
BLACK
6
CONTINUOUS
10
103.568
20
-91.8221
11
103.663
21
-92.0126
0
LINE
8
BLACK
6
CONTINUOUS
10
103.663
20
-92.0126
11
103.663
21
-92.4888
0
LINE
8
BLACK
6
CONTINUOUS
10
103.663
20
-92.4888
11
103.568
21
-92.6792
0
LINE
8
BLACK
6
CONTINUOUS
10
103.568
20
-92.6792
11
103.473
21
-92.7745
0
LINE
8
BLACK
6
CONTINUOUS
10
103.473
20
-92.7745
11
103.282
21
-92.8697
0
LINE
8
BLACK
6
CONTINUOUS
10
103.282
20
-92.8697
11
102.711
21
-92.8697
0
LINE
8
BLACK
6
CONTINUOUS
10
102.711
20
-92.8697
11
102.52
21
-92.7745
0
LINE
8
BLACK
6
CONTINUOUS
10
102.52
20
-92.7745
11
102.425
21
-92.6792
0
LINE
8
BLACK
6
CONTINUOUS
10
105.377
20
-90.8697
11
104.996
21
-90.8697
0
LINE
8
BLACK
6
CONTINUOUS
10
104.996
20
-90.8697
11
104.806
21
-90.965
0
LINE
8
BLACK
6
CONTINUOUS
10
104.806
20
-90.965
11
104.711
21
-91.0602
0
LINE
8
BLACK
6
CONTINUOUS
10
104.711
20
-91.0602
11
104.52
21
-91.3459
0
LINE
8
BLACK
6
CONTINUOUS
10
104.52
20
-91.3459
11
104.425
21
-91.7269
0
LINE
8
BLACK
6
CONTINUOUS
10
104.425
20
-91.7269
11
104.425
21
-92.4888
0
LINE
8
BLACK
6
CONTINUOUS
10
104.425
20
-92.4888
11
104.52
21
-92.6792
0
LINE
8
BLACK
6
CONTINUOUS
10
104.52
20
-92.6792
11
104.615
21
-92.7745
0
LINE
8
BLACK
6
CONTINUOUS
10
104.615
20
-92.7745
11
104.806
21
-92.8697
0
LINE
8
BLACK
6
CONTINUOUS
10
104.806
20
-92.8697
11
105.187
21
-92.8697
0
LINE
8
BLACK
6
CONTINUOUS
10
105.187
20
-92.8697
11
105.377
21
-92.7745
0
LINE
8
BLACK
6
CONTINUOUS
10
105.377
20
-92.7745
11
105.473
21
-92.6792
0
LINE
8
BLACK
6
CONTINUOUS
10
105.473
20
-92.6792
11
105.568
21
-92.4888
0
LINE
8
BLACK
6
CONTINUOUS
10
105.568
20
-92.4888
11
105.568
21
-92.0126
0
LINE
8
BLACK
6
CONTINUOUS
10
105.568
20
-92.0126
11
105.473
21
-91.8221
0
LINE
8
BLACK
6
CONTINUOUS
10
105.473
20
-91.8221
11
105.377
21
-91.7269
0
LINE
8
BLACK
6
CONTINUOUS
10
105.377
20
-91.7269
11
105.187
21
-91.6316
0
LINE
8
BLACK
6
CONTINUOUS
10
105.187
20
-91.6316
11
104.806
21
-91.6316
0
LINE
8
BLACK
6
CONTINUOUS
10
104.806
20
-91.6316
11
104.615
21
-91.7269
0
LINE
8
BLACK
6
CONTINUOUS
10
104.615
20
-91.7269
11
104.52
21
-91.8221
0
LINE
8
BLACK
6
CONTINUOUS
10
104.52
20
-91.8221
11
104.425
21
-92.0126
0
LINE
8
BLACK
6
CONTINUOUS
10
106.33
20
-90.8697
11
106.33
21
-91.2507
0
LINE
8
BLACK
6
CONTINUOUS
10
107.092
20
-90.8697
11
107.092
21
-91.2507
0
LINE
8
BLACK
6
CONTINUOUS
10
110.044
20
-93.6316
11
109.949
21
-93.5364
0
LINE
8
BLACK
6
CONTINUOUS
10
109.949
20
-93.5364
11
109.758
21
-93.2507
0
LINE
8
BLACK
6
CONTINUOUS
10
109.758
20
-93.2507
11
109.663
21
-93.0602
0
LINE
8
BLACK
6
CONTINUOUS
10
109.663
20
-93.0602
11
109.568
21
-92.7745
0
LINE
8
BLACK
6
CONTINUOUS
10
109.568
20
-92.7745
11
109.473
21
-92.2983
0
LINE
8
BLACK
6
CONTINUOUS
10
109.473
20
-92.2983
11
109.473
21
-91.9173
0
LINE
8
BLACK
6
CONTINUOUS
10
109.473
20
-91.9173
11
109.568
21
-91.4412
0
LINE
8
BLACK
6
CONTINUOUS
10
109.568
20
-91.4412
11
109.663
21
-91.1554
0
LINE
8
BLACK
6
CONTINUOUS
10
109.663
20
-91.1554
11
109.758
21
-90.965
0
LINE
8
BLACK
6
CONTINUOUS
10
109.758
20
-90.965
11
109.949
21
-90.6792
0
LINE
8
BLACK
6
CONTINUOUS
10
109.949
20
-90.6792
11
110.044
21
-90.584
0
LINE
8
BLACK
6
CONTINUOUS
10
111.187
20
-90.8697
11
111.377
21
-90.8697
0
LINE
8
BLACK
6
CONTINUOUS
10
111.377
20
-90.8697
11
111.568
21
-90.965
0
LINE
8
BLACK
6
CONTINUOUS
10
111.568
20
-90.965
11
111.663
21
-91.0602
0
LINE
8
BLACK
6
CONTINUOUS
10
111.663
20
-91.0602
11
111.758
21
-91.2507
0
LINE
8
BLACK
6
CONTINUOUS
10
111.758
20
-91.2507
11
111.854
21
-91.6316
0
LINE
8
BLACK
6
CONTINUOUS
10
111.854
20
-91.6316
11
111.854
21
-92.1078
0
LINE
8
BLACK
6
CONTINUOUS
10
111.854
20
-92.1078
11
111.758
21
-92.4888
0
LINE
8
BLACK
6
CONTINUOUS
10
111.758
20
-92.4888
11
111.663
21
-92.6792
0
LINE
8
BLACK
6
CONTINUOUS
10
111.663
20
-92.6792
11
111.568
21
-92.7745
0
LINE
8
BLACK
6
CONTINUOUS
10
111.568
20
-92.7745
11
111.377
21
-92.8697
0
LINE
8
BLACK
6
CONTINUOUS
10
111.377
20
-92.8697
11
111.187
21
-92.8697
0
LINE
8
BLACK
6
CONTINUOUS
10
111.187
20
-92.8697
11
110.996
21
-92.7745
0
LINE
8
BLACK
6
CONTINUOUS
10
110.996
20
-92.7745
11
110.901
21
-92.6792
0
LINE
8
BLACK
6
CONTINUOUS
10
110.901
20
-92.6792
11
110.806
21
-92.4888
0
LINE
8
BLACK
6
CONTINUOUS
10
110.806
20
-92.4888
11
110.711
21
-92.1078
0
LINE
8
BLACK
6
CONTINUOUS
10
110.711
20
-92.1078
11
110.711
21
-91.6316
0
LINE
8
BLACK
6
CONTINUOUS
10
110.711
20
-91.6316
11
110.806
21
-91.2507
0
LINE
8
BLACK
6
CONTINUOUS
10
110.806
20
-91.2507
11
110.901
21
-91.0602
0
LINE
8
BLACK
6
CONTINUOUS
10
110.901
20
-91.0602
11
110.996
21
-90.965
0
LINE
8
BLACK
6
CONTINUOUS
10
110.996
20
-90.965
11
111.187
21
-90.8697
0
LINE
8
BLACK
6
CONTINUOUS
10
114.234
20
-92.8697
11
114.234
21
-90.8697
0
LINE
8
BLACK
6
CONTINUOUS
10
115.092
20
-92.8697
11
115.092
21
-91.8221
0
LINE
8
BLACK
6
CONTINUOUS
10
115.092
20
-91.8221
11
114.996
21
-91.6316
0
LINE
8
BLACK
6
CONTINUOUS
10
114.996
20
-91.6316
11
114.806
21
-91.5364
0
LINE
8
BLACK
6
CONTINUOUS
10
114.806
20
-91.5364
11
114.52
21
-91.5364
0
LINE
8
BLACK
6
CONTINUOUS
10
114.52
20
-91.5364
11
114.33
21
-91.6316
0
LINE
8
BLACK
6
CONTINUOUS
10
114.33
20
-91.6316
11
114.234
21
-91.7269
0
LINE
8
BLACK
6
CONTINUOUS
10
116.33
20
-92.8697
11
116.139
21
-92.7745
0
LINE
8
BLACK
6
CONTINUOUS
10
116.139
20
-92.7745
11
116.044
21
-92.6792
0
LINE
8
BLACK
6
CONTINUOUS
10
116.044
20
-92.6792
11
115.949
21
-92.4888
0
LINE
8
BLACK
6
CONTINUOUS
10
115.949
20
-92.4888
11
115.949
21
-91.9173
0
LINE
8
BLACK
6
CONTINUOUS
10
115.949
20
-91.9173
11
116.044
21
-91.7269
0
LINE
8
BLACK
6
CONTINUOUS
10
116.044
20
-91.7269
11
116.139
21
-91.6316
0
LINE
8
BLACK
6
CONTINUOUS
10
116.139
20
-91.6316
11
116.33
21
-91.5364
0
LINE
8
BLACK
6
CONTINUOUS
10
116.33
20
-91.5364
11
116.615
21
-91.5364
0
LINE
8
BLACK
6
CONTINUOUS
10
116.615
20
-91.5364
11
116.806
21
-91.6316
0
LINE
8
BLACK
6
CONTINUOUS
10
116.806
20
-91.6316
11
116.901
21
-91.7269
0
LINE
8
BLACK
6
CONTINUOUS
10
116.901
20
-91.7269
11
116.996
21
-91.9173
0
LINE
8
BLACK
6
CONTINUOUS
10
116.996
20
-91.9173
11
116.996
21
-92.4888
0
LINE
8
BLACK
6
CONTINUOUS
10
116.996
20
-92.4888
11
116.901
21
-92.6792
0
LINE
8
BLACK
6
CONTINUOUS
10
116.901
20
-92.6792
11
116.806
21
-92.7745
0
LINE
8
BLACK
6
CONTINUOUS
10
116.806
20
-92.7745
11
116.615
21
-92.8697
0
LINE
8
BLACK
6
CONTINUOUS
10
116.615
20
-92.8697
11
116.33
21
-92.8697
0
LINE
8
BLACK
6
CONTINUOUS
10
118.139
20
-92.8697
11
117.949
21
-92.7745
0
LINE
8
BLACK
6
CONTINUOUS
10
117.949
20
-92.7745
11
117.854
21
-92.584
0
LINE
8
BLACK
6
CONTINUOUS
10
117.854
20
-92.584
11
117.854
21
-90.8697
0
LINE
8
BLACK
6
CONTINUOUS
10
119.663
20
-92.7745
11
119.473
21
-92.8697
0
LINE
8
BLACK
6
CONTINUOUS
10
119.473
20
-92.8697
11
119.092
21
-92.8697
0
LINE
8
BLACK
6
CONTINUOUS
10
119.092
20
-92.8697
11
118.901
21
-92.7745
0
LINE
8
BLACK
6
CONTINUOUS
10
118.901
20
-92.7745
11
118.806
21
-92.584
0
LINE
8
BLACK
6
CONTINUOUS
10
118.806
20
-92.584
11
118.806
21
-91.8221
0
LINE
8
BLACK
6
CONTINUOUS
10
118.806
20
-91.8221
11
118.901
21
-91.6316
0
LINE
8
BLACK
6
CONTINUOUS
10
118.901
20
-91.6316
11
119.092
21
-91.5364
0
LINE
8
BLACK
6
CONTINUOUS
10
119.092
20
-91.5364
11
119.473
21
-91.5364
0
LINE
8
BLACK
6
CONTINUOUS
10
119.473
20
-91.5364
11
119.663
21
-91.6316
0
LINE
8
BLACK
6
CONTINUOUS
10
119.663
20
-91.6316
11
119.758
21
-91.8221
0
LINE
8
BLACK
6
CONTINUOUS
10
119.758
20
-91.8221
11
119.758
21
-92.0126
0
LINE
8
BLACK
6
CONTINUOUS
10
119.758
20
-92.0126
11
118.806
21
-92.2031
0
LINE
8
BLACK
6
CONTINUOUS
10
120.52
20
-92.7745
11
120.711
21
-92.8697
0
LINE
8
BLACK
6
CONTINUOUS
10
120.711
20
-92.8697
11
121.092
21
-92.8697
0
LINE
8
BLACK
6
CONTINUOUS
10
121.092
20
-92.8697
11
121.282
21
-92.7745
0
LINE
8
BLACK
6
CONTINUOUS
10
121.282
20
-92.7745
11
121.377
21
-92.584
0
LINE
8
BLACK
6
CONTINUOUS
10
121.377
20
-92.584
11
121.377
21
-92.4888
0
LINE
8
BLACK
6
CONTINUOUS
10
121.377
20
-92.4888
11
121.282
21
-92.2983
0
LINE
8
BLACK
6
CONTINUOUS
10
121.282
20
-92.2983
11
121.092
21
-92.2031
0
LINE
8
BLACK
6
CONTINUOUS
10
121.092
20
-92.2031
11
120.806
21
-92.2031
0
LINE
8
BLACK
6
CONTINUOUS
10
120.806
20
-92.2031
11
120.615
21
-92.1078
0
LINE
8
BLACK
6
CONTINUOUS
10
120.615
20
-92.1078
11
120.52
21
-91.9173
0
LINE
8
BLACK
6
CONTINUOUS
10
120.52
20
-91.9173
11
120.52
21
-91.8221
0
LINE
8
BLACK
6
CONTINUOUS
10
120.52
20
-91.8221
11
120.615
21
-91.6316
0
LINE
8
BLACK
6
CONTINUOUS
10
120.615
20
-91.6316
11
120.806
21
-91.5364
0
LINE
8
BLACK
6
CONTINUOUS
10
120.806
20
-91.5364
11
121.092
21
-91.5364
0
LINE
8
BLACK
6
CONTINUOUS
10
121.092
20
-91.5364
11
121.282
21
-91.6316
0
LINE
8
BLACK
6
CONTINUOUS
10
123.758
20
-92.1078
11
125.282
21
-92.1078
0
LINE
8
BLACK
6
CONTINUOUS
10
124.52
20
-92.8697
11
124.52
21
-91.3459
0
LINE
8
BLACK
6
CONTINUOUS
10
128.615
20
-91.5364
11
128.615
21
-92.8697
0
LINE
8
BLACK
6
CONTINUOUS
10
128.139
20
-90.7745
11
127.663
21
-92.2031
0
LINE
8
BLACK
6
CONTINUOUS
10
127.663
20
-92.2031
11
128.901
21
-92.2031
0
LINE
8
BLACK
6
CONTINUOUS
10
131.092
20
-92.7745
11
131.282
21
-92.8697
0
LINE
8
BLACK
6
CONTINUOUS
10
131.282
20
-92.8697
11
131.663
21
-92.8697
0
LINE
8
BLACK
6
CONTINUOUS
10
131.663
20
-92.8697
11
131.854
21
-92.7745
0
LINE
8
BLACK
6
CONTINUOUS
10
131.854
20
-92.7745
11
131.949
21
-92.584
0
LINE
8
BLACK
6
CONTINUOUS
10
131.949
20
-92.584
11
131.949
21
-92.4888
0
LINE
8
BLACK
6
CONTINUOUS
10
131.949
20
-92.4888
11
131.854
21
-92.2983
0
LINE
8
BLACK
6
CONTINUOUS
10
131.854
20
-92.2983
11
131.663
21
-92.2031
0
LINE
8
BLACK
6
CONTINUOUS
10
131.663
20
-92.2031
11
131.377
21
-92.2031
0
LINE
8
BLACK
6
CONTINUOUS
10
131.377
20
-92.2031
11
131.187
21
-92.1078
0
LINE
8
BLACK
6
CONTINUOUS
10
131.187
20
-92.1078
11
131.092
21
-91.9173
0
LINE
8
BLACK
6
CONTINUOUS
10
131.092
20
-91.9173
11
131.092
21
-91.8221
0
LINE
8
BLACK
6
CONTINUOUS
10
131.092
20
-91.8221
11
131.187
21
-91.6316
0
LINE
8
BLACK
6
CONTINUOUS
10
131.187
20
-91.6316
11
131.377
21
-91.5364
0
LINE
8
BLACK
6
CONTINUOUS
10
131.377
20
-91.5364
11
131.663
21
-91.5364
0
LINE
8
BLACK
6
CONTINUOUS
10
131.663
20
-91.5364
11
131.854
21
-91.6316
0
LINE
8
BLACK
6
CONTINUOUS
10
133.092
20
-92.8697
11
132.901
21
-92.7745
0
LINE
8
BLACK
6
CONTINUOUS
10
132.901
20
-92.7745
11
132.806
21
-92.584
0
LINE
8
BLACK
6
CONTINUOUS
10
132.806
20
-92.584
11
132.806
21
-90.8697
0
LINE
8
BLACK
6
CONTINUOUS
10
134.139
20
-92.8697
11
133.949
21
-92.7745
0
LINE
8
BLACK
6
CONTINUOUS
10
133.949
20
-92.7745
11
133.854
21
-92.6792
0
LINE
8
BLACK
6
CONTINUOUS
10
133.854
20
-92.6792
11
133.758
21
-92.4888
0
LINE
8
BLACK
6
CONTINUOUS
10
133.758
20
-92.4888
11
133.758
21
-91.9173
0
LINE
8
BLACK
6
CONTINUOUS
10
133.758
20
-91.9173
11
133.854
21
-91.7269
0
LINE
8
BLACK
6
CONTINUOUS
10
133.854
20
-91.7269
11
133.949
21
-91.6316
0
LINE
8
BLACK
6
CONTINUOUS
10
133.949
20
-91.6316
11
134.139
21
-91.5364
0
LINE
8
BLACK
6
CONTINUOUS
10
134.139
20
-91.5364
11
134.425
21
-91.5364
0
LINE
8
BLACK
6
CONTINUOUS
10
134.425
20
-91.5364
11
134.615
21
-91.6316
0
LINE
8
BLACK
6
CONTINUOUS
10
134.615
20
-91.6316
11
134.711
21
-91.7269
0
LINE
8
BLACK
6
CONTINUOUS
10
134.711
20
-91.7269
11
134.806
21
-91.9173
0
LINE
8
BLACK
6
CONTINUOUS
10
134.806
20
-91.9173
11
134.806
21
-92.4888
0
LINE
8
BLACK
6
CONTINUOUS
10
134.806
20
-92.4888
11
134.711
21
-92.6792
0
LINE
8
BLACK
6
CONTINUOUS
10
134.711
20
-92.6792
11
134.615
21
-92.7745
0
LINE
8
BLACK
6
CONTINUOUS
10
134.615
20
-92.7745
11
134.425
21
-92.8697
0
LINE
8
BLACK
6
CONTINUOUS
10
134.425
20
-92.8697
11
134.139
21
-92.8697
0
LINE
8
BLACK
6
CONTINUOUS
10
135.377
20
-91.5364
11
136.139
21
-91.5364
0
LINE
8
BLACK
6
CONTINUOUS
10
135.663
20
-90.8697
11
135.663
21
-92.584
0
LINE
8
BLACK
6
CONTINUOUS
10
135.663
20
-92.584
11
135.758
21
-92.7745
0
LINE
8
BLACK
6
CONTINUOUS
10
135.758
20
-92.7745
11
135.949
21
-92.8697
0
LINE
8
BLACK
6
CONTINUOUS
10
135.949
20
-92.8697
11
136.139
21
-92.8697
0
LINE
8
BLACK
6
CONTINUOUS
10
136.711
20
-92.7745
11
136.901
21
-92.8697
0
LINE
8
BLACK
6
CONTINUOUS
10
136.901
20
-92.8697
11
137.282
21
-92.8697
0
LINE
8
BLACK
6
CONTINUOUS
10
137.282
20
-92.8697
11
137.473
21
-92.7745
0
LINE
8
BLACK
6
CONTINUOUS
10
137.473
20
-92.7745
11
137.568
21
-92.584
0
LINE
8
BLACK
6
CONTINUOUS
10
137.568
20
-92.584
11
137.568
21
-92.4888
0
LINE
8
BLACK
6
CONTINUOUS
10
137.568
20
-92.4888
11
137.473
21
-92.2983
0
LINE
8
BLACK
6
CONTINUOUS
10
137.473
20
-92.2983
11
137.282
21
-92.2031
0
LINE
8
BLACK
6
CONTINUOUS
10
137.282
20
-92.2031
11
136.996
21
-92.2031
0
LINE
8
BLACK
6
CONTINUOUS
10
136.996
20
-92.2031
11
136.806
21
-92.1078
0
LINE
8
BLACK
6
CONTINUOUS
10
136.806
20
-92.1078
11
136.711
21
-91.9173
0
LINE
8
BLACK
6
CONTINUOUS
10
136.711
20
-91.9173
11
136.711
21
-91.8221
0
LINE
8
BLACK
6
CONTINUOUS
10
136.711
20
-91.8221
11
136.806
21
-91.6316
0
LINE
8
BLACK
6
CONTINUOUS
10
136.806
20
-91.6316
11
136.996
21
-91.5364
0
LINE
8
BLACK
6
CONTINUOUS
10
136.996
20
-91.5364
11
137.282
21
-91.5364
0
LINE
8
BLACK
6
CONTINUOUS
10
137.282
20
-91.5364
11
137.473
21
-91.6316
0
LINE
8
BLACK
6
CONTINUOUS
10
138.234
20
-93.6316
11
138.33
21
-93.5364
0
LINE
8
BLACK
6
CONTINUOUS
10
138.33
20
-93.5364
11
138.52
21
-93.2507
0
LINE
8
BLACK
6
CONTINUOUS
10
138.52
20
-93.2507
11
138.615
21
-93.0602
0
LINE
8
BLACK
6
CONTINUOUS
10
138.615
20
-93.0602
11
138.711
21
-92.7745
0
LINE
8
BLACK
6
CONTINUOUS
10
138.711
20
-92.7745
11
138.806
21
-92.2983
0
LINE
8
BLACK
6
CONTINUOUS
10
138.806
20
-92.2983
11
138.806
21
-91.9173
0
LINE
8
BLACK
6
CONTINUOUS
10
138.806
20
-91.9173
11
138.711
21
-91.4412
0
LINE
8
BLACK
6
CONTINUOUS
10
138.711
20
-91.4412
11
138.615
21
-91.1554
0
LINE
8
BLACK
6
CONTINUOUS
10
138.615
20
-91.1554
11
138.52
21
-90.965
0
LINE
8
BLACK
6
CONTINUOUS
10
138.52
20
-90.965
11
138.33
21
-90.6792
0
LINE
8
BLACK
6
CONTINUOUS
10
138.33
20
-90.6792
11
138.234
21
-90.584
0
LINE
8
BLACK
6
CONTINUOUS
10
73.825
20
-94.105
11
73.825
21
-95.105
0
LINE
8
BLACK
6
CONTINUOUS
10
73.325
20
-94.605
11
74.325
21
-94.605
0
LINE
8
BLACK
6
CONTINUOUS
10
77.9488
20
-95.5097
11
76.8059
21
-95.5097
0
LINE
8
BLACK
6
CONTINUOUS
10
77.3773
20
-95.5097
11
77.3773
21
-93.5097
0
LINE
8
BLACK
6
CONTINUOUS
10
77.3773
20
-93.5097
11
77.1869
21
-93.7954
0
LINE
8
BLACK
6
CONTINUOUS
10
77.1869
20
-93.7954
11
76.9964
21
-93.9859
0
LINE
8
BLACK
6
CONTINUOUS
10
76.9964
20
-93.9859
11
76.8059
21
-94.0812
0
LINE
8
BLACK
6
CONTINUOUS
10
78.8059
20
-95.3192
11
78.9012
21
-95.4145
0
LINE
8
BLACK
6
CONTINUOUS
10
78.9012
20
-95.4145
11
78.8059
21
-95.5097
0
LINE
8
BLACK
6
CONTINUOUS
10
78.8059
20
-95.5097
11
78.7107
21
-95.4145
0
LINE
8
BLACK
6
CONTINUOUS
10
78.7107
20
-95.4145
11
78.8059
21
-95.3192
0
LINE
8
BLACK
6
CONTINUOUS
10
78.8059
20
-95.3192
11
78.8059
21
-95.5097
0
LINE
8
BLACK
6
CONTINUOUS
10
80.1392
20
-93.5097
11
80.3297
21
-93.5097
0
LINE
8
BLACK
6
CONTINUOUS
10
80.3297
20
-93.5097
11
80.5202
21
-93.605
0
LINE
8
BLACK
6
CONTINUOUS
10
80.5202
20
-93.605
11
80.6154
21
-93.7002
0
LINE
8
BLACK
6
CONTINUOUS
10
80.6154
20
-93.7002
11
80.7107
21
-93.8907
0
LINE
8
BLACK
6
CONTINUOUS
10
80.7107
20
-93.8907
11
80.8059
21
-94.2716
0
LINE
8
BLACK
6
CONTINUOUS
10
80.8059
20
-94.2716
11
80.8059
21
-94.7478
0
LINE
8
BLACK
6
CONTINUOUS
10
80.8059
20
-94.7478
11
80.7107
21
-95.1288
0
LINE
8
BLACK
6
CONTINUOUS
10
80.7107
20
-95.1288
11
80.6154
21
-95.3192
0
LINE
8
BLACK
6
CONTINUOUS
10
80.6154
20
-95.3192
11
80.5202
21
-95.4145
0
LINE
8
BLACK
6
CONTINUOUS
10
80.5202
20
-95.4145
11
80.3297
21
-95.5097
0
LINE
8
BLACK
6
CONTINUOUS
10
80.3297
20
-95.5097
11
80.1392
21
-95.5097
0
LINE
8
BLACK
6
CONTINUOUS
10
80.1392
20
-95.5097
11
79.9488
21
-95.4145
0
LINE
8
BLACK
6
CONTINUOUS
10
79.9488
20
-95.4145
11
79.8535
21
-95.3192
0
LINE
8
BLACK
6
CONTINUOUS
10
79.8535
20
-95.3192
11
79.7583
21
-95.1288
0
LINE
8
BLACK
6
CONTINUOUS
10
79.7583
20
-95.1288
11
79.6631
21
-94.7478
0
LINE
8
BLACK
6
CONTINUOUS
10
79.6631
20
-94.7478
11
79.6631
21
-94.2716
0
LINE
8
BLACK
6
CONTINUOUS
10
79.6631
20
-94.2716
11
79.7583
21
-93.8907
0
LINE
8
BLACK
6
CONTINUOUS
10
79.7583
20
-93.8907
11
79.8535
21
-93.7002
0
LINE
8
BLACK
6
CONTINUOUS
10
79.8535
20
-93.7002
11
79.9488
21
-93.605
0
LINE
8
BLACK
6
CONTINUOUS
10
79.9488
20
-93.605
11
80.1392
21
-93.5097
0
LINE
8
BLACK
6
CONTINUOUS
10
82.044
20
-93.5097
11
82.2345
21
-93.5097
0
LINE
8
BLACK
6
CONTINUOUS
10
82.2345
20
-93.5097
11
82.425
21
-93.605
0
LINE
8
BLACK
6
CONTINUOUS
10
82.425
20
-93.605
11
82.5202
21
-93.7002
0
LINE
8
BLACK
6
CONTINUOUS
10
82.5202
20
-93.7002
11
82.6154
21
-93.8907
0
LINE
8
BLACK
6
CONTINUOUS
10
82.6154
20
-93.8907
11
82.7107
21
-94.2716
0
LINE
8
BLACK
6
CONTINUOUS
10
82.7107
20
-94.2716
11
82.7107
21
-94.7478
0
LINE
8
BLACK
6
CONTINUOUS
10
82.7107
20
-94.7478
11
82.6154
21
-95.1288
0
LINE
8
BLACK
6
CONTINUOUS
10
82.6154
20
-95.1288
11
82.5202
21
-95.3192
0
LINE
8
BLACK
6
CONTINUOUS
10
82.5202
20
-95.3192
11
82.425
21
-95.4145
0
LINE
8
BLACK
6
CONTINUOUS
10
82.425
20
-95.4145
11
82.2345
21
-95.5097
0
LINE
8
BLACK
6
CONTINUOUS
10
82.2345
20
-95.5097
11
82.044
21
-95.5097
0
LINE
8
BLACK
6
CONTINUOUS
10
82.044
20
-95.5097
11
81.8535
21
-95.4145
0
LINE
8
BLACK
6
CONTINUOUS
10
81.8535
20
-95.4145
11
81.7583
21
-95.3192
0
LINE
8
BLACK
6
CONTINUOUS
10
81.7583
20
-95.3192
11
81.6631
21
-95.1288
0
LINE
8
BLACK
6
CONTINUOUS
10
81.6631
20
-95.1288
11
81.5678
21
-94.7478
0
LINE
8
BLACK
6
CONTINUOUS
10
81.5678
20
-94.7478
11
81.5678
21
-94.2716
0
LINE
8
BLACK
6
CONTINUOUS
10
81.5678
20
-94.2716
11
81.6631
21
-93.8907
0
LINE
8
BLACK
6
CONTINUOUS
10
81.6631
20
-93.8907
11
81.7583
21
-93.7002
0
LINE
8
BLACK
6
CONTINUOUS
10
81.7583
20
-93.7002
11
81.8535
21
-93.605
0
LINE
8
BLACK
6
CONTINUOUS
10
81.8535
20
-93.605
11
82.044
21
-93.5097
0
LINE
8
BLACK
6
CONTINUOUS
10
83.9488
20
-93.5097
11
84.1392
21
-93.5097
0
LINE
8
BLACK
6
CONTINUOUS
10
84.1392
20
-93.5097
11
84.3297
21
-93.605
0
LINE
8
BLACK
6
CONTINUOUS
10
84.3297
20
-93.605
11
84.425
21
-93.7002
0
LINE
8
BLACK
6
CONTINUOUS
10
84.425
20
-93.7002
11
84.5202
21
-93.8907
0
LINE
8
BLACK
6
CONTINUOUS
10
84.5202
20
-93.8907
11
84.6154
21
-94.2716
0
LINE
8
BLACK
6
CONTINUOUS
10
84.6154
20
-94.2716
11
84.6154
21
-94.7478
0
LINE
8
BLACK
6
CONTINUOUS
10
84.6154
20
-94.7478
11
84.5202
21
-95.1288
0
LINE
8
BLACK
6
CONTINUOUS
10
84.5202
20
-95.1288
11
84.425
21
-95.3192
0
LINE
8
BLACK
6
CONTINUOUS
10
84.425
20
-95.3192
11
84.3297
21
-95.4145
0
LINE
8
BLACK
6
CONTINUOUS
10
84.3297
20
-95.4145
11
84.1392
21
-95.5097
0
LINE
8
BLACK
6
CONTINUOUS
10
84.1392
20
-95.5097
11
83.9488
21
-95.5097
0
LINE
8
BLACK
6
CONTINUOUS
10
83.9488
20
-95.5097
11
83.7583
21
-95.4145
0
LINE
8
BLACK
6
CONTINUOUS
10
83.7583
20
-95.4145
11
83.6631
21
-95.3192
0
LINE
8
BLACK
6
CONTINUOUS
10
83.6631
20
-95.3192
11
83.5678
21
-95.1288
0
LINE
8
BLACK
6
CONTINUOUS
10
83.5678
20
-95.1288
11
83.4726
21
-94.7478
0
LINE
8
BLACK
6
CONTINUOUS
10
83.4726
20
-94.7478
11
83.4726
21
-94.2716
0
LINE
8
BLACK
6
CONTINUOUS
10
83.4726
20
-94.2716
11
83.5678
21
-93.8907
0
LINE
8
BLACK
6
CONTINUOUS
10
83.5678
20
-93.8907
11
83.6631
21
-93.7002
0
LINE
8
BLACK
6
CONTINUOUS
10
83.6631
20
-93.7002
11
83.7583
21
-93.605
0
LINE
8
BLACK
6
CONTINUOUS
10
83.7583
20
-93.605
11
83.9488
21
-93.5097
0
LINE
8
BLACK
6
CONTINUOUS
10
85.4726
20
-95.5097
11
85.4726
21
-94.1764
0
LINE
8
BLACK
6
CONTINUOUS
10
85.4726
20
-94.3669
11
85.5678
21
-94.2716
0
LINE
8
BLACK
6
CONTINUOUS
10
85.5678
20
-94.2716
11
85.7583
21
-94.1764
0
LINE
8
BLACK
6
CONTINUOUS
10
85.7583
20
-94.1764
11
86.044
21
-94.1764
0
LINE
8
BLACK
6
CONTINUOUS
10
86.044
20
-94.1764
11
86.2345
21
-94.2716
0
LINE
8
BLACK
6
CONTINUOUS
10
86.2345
20
-94.2716
11
86.3297
21
-94.4621
0
LINE
8
BLACK
6
CONTINUOUS
10
86.3297
20
-94.4621
11
86.3297
21
-95.5097
0
LINE
8
BLACK
6
CONTINUOUS
10
86.3297
20
-94.4621
11
86.425
21
-94.2716
0
LINE
8
BLACK
6
CONTINUOUS
10
86.425
20
-94.2716
11
86.6154
21
-94.1764
0
LINE
8
BLACK
6
CONTINUOUS
10
86.6154
20
-94.1764
11
86.9012
21
-94.1764
0
LINE
8
BLACK
6
CONTINUOUS
10
86.9012
20
-94.1764
11
87.0916
21
-94.2716
0
LINE
8
BLACK
6
CONTINUOUS
10
87.0916
20
-94.2716
11
87.1869
21
-94.4621
0
LINE
8
BLACK
6
CONTINUOUS
10
87.1869
20
-94.4621
11
87.1869
21
-95.5097
0
LINE
8
BLACK
6
CONTINUOUS
10
88.1392
20
-95.5097
11
88.1392
21
-94.1764
0
LINE
8
BLACK
6
CONTINUOUS
10
88.1392
20
-94.3669
11
88.2345
21
-94.2716
0
LINE
8
BLACK
6
CONTINUOUS
10
88.2345
20
-94.2716
11
88.425
21
-94.1764
0
LINE
8
BLACK
6
CONTINUOUS
10
88.425
20
-94.1764
11
88.7107
21
-94.1764
0
LINE
8
BLACK
6
CONTINUOUS
10
88.7107
20
-94.1764
11
88.9012
21
-94.2716
0
LINE
8
BLACK
6
CONTINUOUS
10
88.9012
20
-94.2716
11
88.9964
21
-94.4621
0
LINE
8
BLACK
6
CONTINUOUS
10
88.9964
20
-94.4621
11
88.9964
21
-95.5097
0
LINE
8
BLACK
6
CONTINUOUS
10
88.9964
20
-94.4621
11
89.0916
21
-94.2716
0
LINE
8
BLACK
6
CONTINUOUS
10
89.0916
20
-94.2716
11
89.2821
21
-94.1764
0
LINE
8
BLACK
6
CONTINUOUS
10
89.2821
20
-94.1764
11
89.5678
21
-94.1764
0
LINE
8
BLACK
6
CONTINUOUS
10
89.5678
20
-94.1764
11
89.7583
21
-94.2716
0
LINE
8
BLACK
6
CONTINUOUS
10
89.7583
20
-94.2716
11
89.8535
21
-94.4621
0
LINE
8
BLACK
6
CONTINUOUS
10
89.8535
20
-94.4621
11
89.8535
21
-95.5097
0
LINE
8
BLACK
6
CONTINUOUS
10
93.7583
20
-93.4145
11
92.044
21
-95.9859
0
LINE
8
BLACK
6
CONTINUOUS
10
96.3297
20
-93.5097
11
96.5202
21
-93.5097
0
LINE
8
BLACK
6
CONTINUOUS
10
96.5202
20
-93.5097
11
96.7107
21
-93.605
0
LINE
8
BLACK
6
CONTINUOUS
10
96.7107
20
-93.605
11
96.8059
21
-93.7002
0
LINE
8
BLACK
6
CONTINUOUS
10
96.8059
20
-93.7002
11
96.9012
21
-93.8907
0
LINE
8
BLACK
6
CONTINUOUS
10
96.9012
20
-93.8907
11
96.9964
21
-94.2716
0
LINE
8
BLACK
6
CONTINUOUS
10
96.9964
20
-94.2716
11
96.9964
21
-94.7478
0
LINE
8
BLACK
6
CONTINUOUS
10
96.9964
20
-94.7478
11
96.9012
21
-95.1288
0
LINE
8
BLACK
6
CONTINUOUS
10
96.9012
20
-95.1288
11
96.8059
21
-95.3192
0
LINE
8
BLACK
6
CONTINUOUS
10
96.8059
20
-95.3192
11
96.7107
21
-95.4145
0
LINE
8
BLACK
6
CONTINUOUS
10
96.7107
20
-95.4145
11
96.5202
21
-95.5097
0
LINE
8
BLACK
6
CONTINUOUS
10
96.5202
20
-95.5097
11
96.3297
21
-95.5097
0
LINE
8
BLACK
6
CONTINUOUS
10
96.3297
20
-95.5097
11
96.1392
21
-95.4145
0
LINE
8
BLACK
6
CONTINUOUS
10
96.1392
20
-95.4145
11
96.044
21
-95.3192
0
LINE
8
BLACK
6
CONTINUOUS
10
96.044
20
-95.3192
11
95.9488
21
-95.1288
0
LINE
8
BLACK
6
CONTINUOUS
10
95.9488
20
-95.1288
11
95.8535
21
-94.7478
0
LINE
8
BLACK
6
CONTINUOUS
10
95.8535
20
-94.7478
11
95.8535
21
-94.2716
0
LINE
8
BLACK
6
CONTINUOUS
10
95.8535
20
-94.2716
11
95.9488
21
-93.8907
0
LINE
8
BLACK
6
CONTINUOUS
10
95.9488
20
-93.8907
11
96.044
21
-93.7002
0
LINE
8
BLACK
6
CONTINUOUS
10
96.044
20
-93.7002
11
96.1392
21
-93.605
0
LINE
8
BLACK
6
CONTINUOUS
10
96.1392
20
-93.605
11
96.3297
21
-93.5097
0
LINE
8
BLACK
6
CONTINUOUS
10
97.8535
20
-95.3192
11
97.9488
21
-95.4145
0
LINE
8
BLACK
6
CONTINUOUS
10
97.9488
20
-95.4145
11
97.8535
21
-95.5097
0
LINE
8
BLACK
6
CONTINUOUS
10
97.8535
20
-95.5097
11
97.7583
21
-95.4145
0
LINE
8
BLACK
6
CONTINUOUS
10
97.7583
20
-95.4145
11
97.8535
21
-95.3192
0
LINE
8
BLACK
6
CONTINUOUS
10
97.8535
20
-95.3192
11
97.8535
21
-95.5097
0
LINE
8
BLACK
6
CONTINUOUS
10
99.1869
20
-93.5097
11
99.3773
21
-93.5097
0
LINE
8
BLACK
6
CONTINUOUS
10
99.3773
20
-93.5097
11
99.5678
21
-93.605
0
LINE
8
BLACK
6
CONTINUOUS
10
99.5678
20
-93.605
11
99.6631
21
-93.7002
0
LINE
8
BLACK
6
CONTINUOUS
10
99.6631
20
-93.7002
11
99.7583
21
-93.8907
0
LINE
8
BLACK
6
CONTINUOUS
10
99.7583
20
-93.8907
11
99.8535
21
-94.2716
0
LINE
8
BLACK
6
CONTINUOUS
10
99.8535
20
-94.2716
11
99.8535
21
-94.7478
0
LINE
8
BLACK
6
CONTINUOUS
10
99.8535
20
-94.7478
11
99.7583
21
-95.1288
0
LINE
8
BLACK
6
CONTINUOUS
10
99.7583
20
-95.1288
11
99.6631
21
-95.3192
0
LINE
8
BLACK
6
CONTINUOUS
10
99.6631
20
-95.3192
11
99.5678
21
-95.4145
0
LINE
8
BLACK
6
CONTINUOUS
10
99.5678
20
-95.4145
11
99.3773
21
-95.5097
0
LINE
8
BLACK
6
CONTINUOUS
10
99.3773
20
-95.5097
11
99.1869
21
-95.5097
0
LINE
8
BLACK
6
CONTINUOUS
10
99.1869
20
-95.5097
11
98.9964
21
-95.4145
0
LINE
8
BLACK
6
CONTINUOUS
10
98.9964
20
-95.4145
11
98.9012
21
-95.3192
0
LINE
8
BLACK
6
CONTINUOUS
10
98.9012
20
-95.3192
11
98.8059
21
-95.1288
0
LINE
8
BLACK
6
CONTINUOUS
10
98.8059
20
-95.1288
11
98.7107
21
-94.7478
0
LINE
8
BLACK
6
CONTINUOUS
10
98.7107
20
-94.7478
11
98.7107
21
-94.2716
0
LINE
8
BLACK
6
CONTINUOUS
10
98.7107
20
-94.2716
11
98.8059
21
-93.8907
0
LINE
8
BLACK
6
CONTINUOUS
10
98.8059
20
-93.8907
11
98.9012
21
-93.7002
0
LINE
8
BLACK
6
CONTINUOUS
10
98.9012
20
-93.7002
11
98.9964
21
-93.605
0
LINE
8
BLACK
6
CONTINUOUS
10
98.9964
20
-93.605
11
99.1869
21
-93.5097
0
LINE
8
BLACK
6
CONTINUOUS
10
100.52
20
-93.5097
11
101.758
21
-93.5097
0
LINE
8
BLACK
6
CONTINUOUS
10
101.758
20
-93.5097
11
101.092
21
-94.2716
0
LINE
8
BLACK
6
CONTINUOUS
10
101.092
20
-94.2716
11
101.377
21
-94.2716
0
LINE
8
BLACK
6
CONTINUOUS
10
101.377
20
-94.2716
11
101.568
21
-94.3669
0
LINE
8
BLACK
6
CONTINUOUS
10
101.568
20
-94.3669
11
101.663
21
-94.4621
0
LINE
8
BLACK
6
CONTINUOUS
10
101.663
20
-94.4621
11
101.758
21
-94.6526
0
LINE
8
BLACK
6
CONTINUOUS
10
101.758
20
-94.6526
11
101.758
21
-95.1288
0
LINE
8
BLACK
6
CONTINUOUS
10
101.758
20
-95.1288
11
101.663
21
-95.3192
0
LINE
8
BLACK
6
CONTINUOUS
10
101.663
20
-95.3192
11
101.568
21
-95.4145
0
LINE
8
BLACK
6
CONTINUOUS
10
101.568
20
-95.4145
11
101.377
21
-95.5097
0
LINE
8
BLACK
6
CONTINUOUS
10
101.377
20
-95.5097
11
100.806
21
-95.5097
0
LINE
8
BLACK
6
CONTINUOUS
10
100.806
20
-95.5097
11
100.615
21
-95.4145
0
LINE
8
BLACK
6
CONTINUOUS
10
100.615
20
-95.4145
11
100.52
21
-95.3192
0
LINE
8
BLACK
6
CONTINUOUS
10
102.711
20
-95.5097
11
103.092
21
-95.5097
0
LINE
8
BLACK
6
CONTINUOUS
10
103.092
20
-95.5097
11
103.282
21
-95.4145
0
LINE
8
BLACK
6
CONTINUOUS
10
103.282
20
-95.4145
11
103.377
21
-95.3192
0
LINE
8
BLACK
6
CONTINUOUS
10
103.377
20
-95.3192
11
103.568
21
-95.0335
0
LINE
8
BLACK
6
CONTINUOUS
10
103.568
20
-95.0335
11
103.663
21
-94.6526
0
LINE
8
BLACK
6
CONTINUOUS
10
103.663
20
-94.6526
11
103.663
21
-93.8907
0
LINE
8
BLACK
6
CONTINUOUS
10
103.663
20
-93.8907
11
103.568
21
-93.7002
0
LINE
8
BLACK
6
CONTINUOUS
10
103.568
20
-93.7002
11
103.473
21
-93.605
0
LINE
8
BLACK
6
CONTINUOUS
10
103.473
20
-93.605
11
103.282
21
-93.5097
0
LINE
8
BLACK
6
CONTINUOUS
10
103.282
20
-93.5097
11
102.901
21
-93.5097
0
LINE
8
BLACK
6
CONTINUOUS
10
102.901
20
-93.5097
11
102.711
21
-93.605
0
LINE
8
BLACK
6
CONTINUOUS
10
102.711
20
-93.605
11
102.615
21
-93.7002
0
LINE
8
BLACK
6
CONTINUOUS
10
102.615
20
-93.7002
11
102.52
21
-93.8907
0
LINE
8
BLACK
6
CONTINUOUS
10
102.52
20
-93.8907
11
102.52
21
-94.3669
0
LINE
8
BLACK
6
CONTINUOUS
10
102.52
20
-94.3669
11
102.615
21
-94.5573
0
LINE
8
BLACK
6
CONTINUOUS
10
102.615
20
-94.5573
11
102.711
21
-94.6526
0
LINE
8
BLACK
6
CONTINUOUS
10
102.711
20
-94.6526
11
102.901
21
-94.7478
0
LINE
8
BLACK
6
CONTINUOUS
10
102.901
20
-94.7478
11
103.282
21
-94.7478
0
LINE
8
BLACK
6
CONTINUOUS
10
103.282
20
-94.7478
11
103.473
21
-94.6526
0
LINE
8
BLACK
6
CONTINUOUS
10
103.473
20
-94.6526
11
103.568
21
-94.5573
0
LINE
8
BLACK
6
CONTINUOUS
10
103.568
20
-94.5573
11
103.663
21
-94.3669
0
LINE
8
BLACK
6
CONTINUOUS
10
105.377
20
-94.1764
11
105.377
21
-95.5097
0
LINE
8
BLACK
6
CONTINUOUS
10
104.901
20
-93.4145
11
104.425
21
-94.8431
0
LINE
8
BLACK
6
CONTINUOUS
10
104.425
20
-94.8431
11
105.663
21
-94.8431
0
LINE
8
BLACK
6
CONTINUOUS
10
106.33
20
-93.5097
11
106.33
21
-93.8907
0
LINE
8
BLACK
6
CONTINUOUS
10
107.092
20
-93.5097
11
107.092
21
-93.8907
0
LINE
8
BLACK
6
CONTINUOUS
10
110.044
20
-96.2716
11
109.949
21
-96.1764
0
LINE
8
BLACK
6
CONTINUOUS
10
109.949
20
-96.1764
11
109.758
21
-95.8907
0
LINE
8
BLACK
6
CONTINUOUS
10
109.758
20
-95.8907
11
109.663
21
-95.7002
0
LINE
8
BLACK
6
CONTINUOUS
10
109.663
20
-95.7002
11
109.568
21
-95.4145
0
LINE
8
BLACK
6
CONTINUOUS
10
109.568
20
-95.4145
11
109.473
21
-94.9383
0
LINE
8
BLACK
6
CONTINUOUS
10
109.473
20
-94.9383
11
109.473
21
-94.5573
0
LINE
8
BLACK
6
CONTINUOUS
10
109.473
20
-94.5573
11
109.568
21
-94.0812
0
LINE
8
BLACK
6
CONTINUOUS
10
109.568
20
-94.0812
11
109.663
21
-93.7954
0
LINE
8
BLACK
6
CONTINUOUS
10
109.663
20
-93.7954
11
109.758
21
-93.605
0
LINE
8
BLACK
6
CONTINUOUS
10
109.758
20
-93.605
11
109.949
21
-93.3192
0
LINE
8
BLACK
6
CONTINUOUS
10
109.949
20
-93.3192
11
110.044
21
-93.224
0
LINE
8
BLACK
6
CONTINUOUS
10
111.758
20
-93.5097
11
110.806
21
-93.5097
0
LINE
8
BLACK
6
CONTINUOUS
10
110.806
20
-93.5097
11
110.711
21
-94.4621
0
LINE
8
BLACK
6
CONTINUOUS
10
110.711
20
-94.4621
11
110.806
21
-94.3669
0
LINE
8
BLACK
6
CONTINUOUS
10
110.806
20
-94.3669
11
110.996
21
-94.2716
0
LINE
8
BLACK
6
CONTINUOUS
10
110.996
20
-94.2716
11
111.473
21
-94.2716
0
LINE
8
BLACK
6
CONTINUOUS
10
111.473
20
-94.2716
11
111.663
21
-94.3669
0
LINE
8
BLACK
6
CONTINUOUS
10
111.663
20
-94.3669
11
111.758
21
-94.4621
0
LINE
8
BLACK
6
CONTINUOUS
10
111.758
20
-94.4621
11
111.854
21
-94.6526
0
LINE
8
BLACK
6
CONTINUOUS
10
111.854
20
-94.6526
11
111.854
21
-95.1288
0
LINE
8
BLACK
6
CONTINUOUS
10
111.854
20
-95.1288
11
111.758
21
-95.3192
0
LINE
8
BLACK
6
CONTINUOUS
10
111.758
20
-95.3192
11
111.663
21
-95.4145
0
LINE
8
BLACK
6
CONTINUOUS
10
111.663
20
-95.4145
11
111.473
21
-95.5097
0
LINE
8
BLACK
6
CONTINUOUS
10
111.473
20
-95.5097
11
110.996
21
-95.5097
0
LINE
8
BLACK
6
CONTINUOUS
10
110.996
20
-95.5097
11
110.806
21
-95.4145
0
LINE
8
BLACK
6
CONTINUOUS
10
110.806
20
-95.4145
11
110.711
21
-95.3192
0
LINE
8
BLACK
6
CONTINUOUS
10
114.234
20
-95.5097
11
114.234
21
-93.5097
0
LINE
8
BLACK
6
CONTINUOUS
10
115.092
20
-95.5097
11
115.092
21
-94.4621
0
LINE
8
BLACK
6
CONTINUOUS
10
115.092
20
-94.4621
11
114.996
21
-94.2716
0
LINE
8
BLACK
6
CONTINUOUS
10
114.996
20
-94.2716
11
114.806
21
-94.1764
0
LINE
8
BLACK
6
CONTINUOUS
10
114.806
20
-94.1764
11
114.52
21
-94.1764
0
LINE
8
BLACK
6
CONTINUOUS
10
114.52
20
-94.1764
11
114.33
21
-94.2716
0
LINE
8
BLACK
6
CONTINUOUS
10
114.33
20
-94.2716
11
114.234
21
-94.3669
0
LINE
8
BLACK
6
CONTINUOUS
10
116.33
20
-95.5097
11
116.139
21
-95.4145
0
LINE
8
BLACK
6
CONTINUOUS
10
116.139
20
-95.4145
11
116.044
21
-95.3192
0
LINE
8
BLACK
6
CONTINUOUS
10
116.044
20
-95.3192
11
115.949
21
-95.1288
0
LINE
8
BLACK
6
CONTINUOUS
10
115.949
20
-95.1288
11
115.949
21
-94.5573
0
LINE
8
BLACK
6
CONTINUOUS
10
115.949
20
-94.5573
11
116.044
21
-94.3669
0
LINE
8
BLACK
6
CONTINUOUS
10
116.044
20
-94.3669
11
116.139
21
-94.2716
0
LINE
8
BLACK
6
CONTINUOUS
10
116.139
20
-94.2716
11
116.33
21
-94.1764
0
LINE
8
BLACK
6
CONTINUOUS
10
116.33
20
-94.1764
11
116.615
21
-94.1764
0
LINE
8
BLACK
6
CONTINUOUS
10
116.615
20
-94.1764
11
116.806
21
-94.2716
0
LINE
8
BLACK
6
CONTINUOUS
10
116.806
20
-94.2716
11
116.901
21
-94.3669
0
LINE
8
BLACK
6
CONTINUOUS
10
116.901
20
-94.3669
11
116.996
21
-94.5573
0
LINE
8
BLACK
6
CONTINUOUS
10
116.996
20
-94.5573
11
116.996
21
-95.1288
0
LINE
8
BLACK
6
CONTINUOUS
10
116.996
20
-95.1288
11
116.901
21
-95.3192
0
LINE
8
BLACK
6
CONTINUOUS
10
116.901
20
-95.3192
11
116.806
21
-95.4145
0
LINE
8
BLACK
6
CONTINUOUS
10
116.806
20
-95.4145
11
116.615
21
-95.5097
0
LINE
8
BLACK
6
CONTINUOUS
10
116.615
20
-95.5097
11
116.33
21
-95.5097
0
LINE
8
BLACK
6
CONTINUOUS
10
118.139
20
-95.5097
11
117.949
21
-95.4145
0
LINE
8
BLACK
6
CONTINUOUS
10
117.949
20
-95.4145
11
117.854
21
-95.224
0
LINE
8
BLACK
6
CONTINUOUS
10
117.854
20
-95.224
11
117.854
21
-93.5097
0
LINE
8
BLACK
6
CONTINUOUS
10
119.663
20
-95.4145
11
119.473
21
-95.5097
0
LINE
8
BLACK
6
CONTINUOUS
10
119.473
20
-95.5097
11
119.092
21
-95.5097
0
LINE
8
BLACK
6
CONTINUOUS
10
119.092
20
-95.5097
11
118.901
21
-95.4145
0
LINE
8
BLACK
6
CONTINUOUS
10
118.901
20
-95.4145
11
118.806
21
-95.224
0
LINE
8
BLACK
6
CONTINUOUS
10
118.806
20
-95.224
11
118.806
21
-94.4621
0
LINE
8
BLACK
6
CONTINUOUS
10
118.806
20
-94.4621
11
118.901
21
-94.2716
0
LINE
8
BLACK
6
CONTINUOUS
10
118.901
20
-94.2716
11
119.092
21
-94.1764
0
LINE
8
BLACK
6
CONTINUOUS
10
119.092
20
-94.1764
11
119.473
21
-94.1764
0
LINE
8
BLACK
6
CONTINUOUS
10
119.473
20
-94.1764
11
119.663
21
-94.2716
0
LINE
8
BLACK
6
CONTINUOUS
10
119.663
20
-94.2716
11
119.758
21
-94.4621
0
LINE
8
BLACK
6
CONTINUOUS
10
119.758
20
-94.4621
11
119.758
21
-94.6526
0
LINE
8
BLACK
6
CONTINUOUS
10
119.758
20
-94.6526
11
118.806
21
-94.8431
0
LINE
8
BLACK
6
CONTINUOUS
10
120.52
20
-95.4145
11
120.711
21
-95.5097
0
LINE
8
BLACK
6
CONTINUOUS
10
120.711
20
-95.5097
11
121.092
21
-95.5097
0
LINE
8
BLACK
6
CONTINUOUS
10
121.092
20
-95.5097
11
121.282
21
-95.4145
0
LINE
8
BLACK
6
CONTINUOUS
10
121.282
20
-95.4145
11
121.377
21
-95.224
0
LINE
8
BLACK
6
CONTINUOUS
10
121.377
20
-95.224
11
121.377
21
-95.1288
0
LINE
8
BLACK
6
CONTINUOUS
10
121.377
20
-95.1288
11
121.282
21
-94.9383
0
LINE
8
BLACK
6
CONTINUOUS
10
121.282
20
-94.9383
11
121.092
21
-94.8431
0
LINE
8
BLACK
6
CONTINUOUS
10
121.092
20
-94.8431
11
120.806
21
-94.8431
0
LINE
8
BLACK
6
CONTINUOUS
10
120.806
20
-94.8431
11
120.615
21
-94.7478
0
LINE
8
BLACK
6
CONTINUOUS
10
120.615
20
-94.7478
11
120.52
21
-94.5573
0
LINE
8
BLACK
6
CONTINUOUS
10
120.52
20
-94.5573
11
120.52
21
-94.4621
0
LINE
8
BLACK
6
CONTINUOUS
10
120.52
20
-94.4621
11
120.615
21
-94.2716
0
LINE
8
BLACK
6
CONTINUOUS
10
120.615
20
-94.2716
11
120.806
21
-94.1764
0
LINE
8
BLACK
6
CONTINUOUS
10
120.806
20
-94.1764
11
121.092
21
-94.1764
0
LINE
8
BLACK
6
CONTINUOUS
10
121.092
20
-94.1764
11
121.282
21
-94.2716
0
LINE
8
BLACK
6
CONTINUOUS
10
122.044
20
-96.2716
11
122.139
21
-96.1764
0
LINE
8
BLACK
6
CONTINUOUS
10
122.139
20
-96.1764
11
122.33
21
-95.8907
0
LINE
8
BLACK
6
CONTINUOUS
10
122.33
20
-95.8907
11
122.425
21
-95.7002
0
LINE
8
BLACK
6
CONTINUOUS
10
122.425
20
-95.7002
11
122.52
21
-95.4145
0
LINE
8
BLACK
6
CONTINUOUS
10
122.52
20
-95.4145
11
122.615
21
-94.9383
0
LINE
8
BLACK
6
CONTINUOUS
10
122.615
20
-94.9383
11
122.615
21
-94.5573
0
LINE
8
BLACK
6
CONTINUOUS
10
122.615
20
-94.5573
11
122.52
21
-94.0812
0
LINE
8
BLACK
6
CONTINUOUS
10
122.52
20
-94.0812
11
122.425
21
-93.7954
0
LINE
8
BLACK
6
CONTINUOUS
10
122.425
20
-93.7954
11
122.33
21
-93.605
0
LINE
8
BLACK
6
CONTINUOUS
10
122.33
20
-93.605
11
122.139
21
-93.3192
0
LINE
8
BLACK
6
CONTINUOUS
10
122.139
20
-93.3192
11
122.044
21
-93.224
0
LINE
8
BLACK
6
CONTINUOUS
10
74.0321
20
-97.9521
11
74.0321
21
-96.5378
0
LINE
8
BLACK
6
CONTINUOUS
10
74.0321
20
-96.5378
11
72.6179
21
-96.5378
0
LINE
8
BLACK
6
CONTINUOUS
10
72.6179
20
-96.5378
11
72.6179
21
-97.9521
0
LINE
8
BLACK
6
CONTINUOUS
10
72.6179
20
-97.9521
11
74.0321
21
-97.9521
0
LINE
8
BLACK
6
CONTINUOUS
10
76.8059
20
-96.3402
11
76.9012
21
-96.245
0
LINE
8
BLACK
6
CONTINUOUS
10
76.9012
20
-96.245
11
77.0916
21
-96.1497
0
LINE
8
BLACK
6
CONTINUOUS
10
77.0916
20
-96.1497
11
77.5678
21
-96.1497
0
LINE
8
BLACK
6
CONTINUOUS
10
77.5678
20
-96.1497
11
77.7583
21
-96.245
0
LINE
8
BLACK
6
CONTINUOUS
10
77.7583
20
-96.245
11
77.8535
21
-96.3402
0
LINE
8
BLACK
6
CONTINUOUS
10
77.8535
20
-96.3402
11
77.9488
21
-96.5307
0
LINE
8
BLACK
6
CONTINUOUS
10
77.9488
20
-96.5307
11
77.9488
21
-96.7212
0
LINE
8
BLACK
6
CONTINUOUS
10
77.9488
20
-96.7212
11
77.8535
21
-97.0069
0
LINE
8
BLACK
6
CONTINUOUS
10
77.8535
20
-97.0069
11
76.7107
21
-98.1497
0
LINE
8
BLACK
6
CONTINUOUS
10
76.7107
20
-98.1497
11
77.9488
21
-98.1497
0
LINE
8
BLACK
6
CONTINUOUS
10
78.8059
20
-97.9592
11
78.9012
21
-98.0545
0
LINE
8
BLACK
6
CONTINUOUS
10
78.9012
20
-98.0545
11
78.8059
21
-98.1497
0
LINE
8
BLACK
6
CONTINUOUS
10
78.8059
20
-98.1497
11
78.7107
21
-98.0545
0
LINE
8
BLACK
6
CONTINUOUS
10
78.7107
20
-98.0545
11
78.8059
21
-97.9592
0
LINE
8
BLACK
6
CONTINUOUS
10
78.8059
20
-97.9592
11
78.8059
21
-98.1497
0
LINE
8
BLACK
6
CONTINUOUS
10
80.1392
20
-96.1497
11
80.3297
21
-96.1497
0
LINE
8
BLACK
6
CONTINUOUS
10
80.3297
20
-96.1497
11
80.5202
21
-96.245
0
LINE
8
BLACK
6
CONTINUOUS
10
80.5202
20
-96.245
11
80.6154
21
-96.3402
0
LINE
8
BLACK
6
CONTINUOUS
10
80.6154
20
-96.3402
11
80.7107
21
-96.5307
0
LINE
8
BLACK
6
CONTINUOUS
10
80.7107
20
-96.5307
11
80.8059
21
-96.9116
0
LINE
8
BLACK
6
CONTINUOUS
10
80.8059
20
-96.9116
11
80.8059
21
-97.3878
0
LINE
8
BLACK
6
CONTINUOUS
10
80.8059
20
-97.3878
11
80.7107
21
-97.7688
0
LINE
8
BLACK
6
CONTINUOUS
10
80.7107
20
-97.7688
11
80.6154
21
-97.9592
0
LINE
8
BLACK
6
CONTINUOUS
10
80.6154
20
-97.9592
11
80.5202
21
-98.0545
0
LINE
8
BLACK
6
CONTINUOUS
10
80.5202
20
-98.0545
11
80.3297
21
-98.1497
0
LINE
8
BLACK
6
CONTINUOUS
10
80.3297
20
-98.1497
11
80.1392
21
-98.1497
0
LINE
8
BLACK
6
CONTINUOUS
10
80.1392
20
-98.1497
11
79.9488
21
-98.0545
0
LINE
8
BLACK
6
CONTINUOUS
10
79.9488
20
-98.0545
11
79.8535
21
-97.9592
0
LINE
8
BLACK
6
CONTINUOUS
10
79.8535
20
-97.9592
11
79.7583
21
-97.7688
0
LINE
8
BLACK
6
CONTINUOUS
10
79.7583
20
-97.7688
11
79.6631
21
-97.3878
0
LINE
8
BLACK
6
CONTINUOUS
10
79.6631
20
-97.3878
11
79.6631
21
-96.9116
0
LINE
8
BLACK
6
CONTINUOUS
10
79.6631
20
-96.9116
11
79.7583
21
-96.5307
0
LINE
8
BLACK
6
CONTINUOUS
10
79.7583
20
-96.5307
11
79.8535
21
-96.3402
0
LINE
8
BLACK
6
CONTINUOUS
10
79.8535
20
-96.3402
11
79.9488
21
-96.245
0
LINE
8
BLACK
6
CONTINUOUS
10
79.9488
20
-96.245
11
80.1392
21
-96.1497
0
LINE
8
BLACK
6
CONTINUOUS
10
82.044
20
-96.1497
11
82.2345
21
-96.1497
0
LINE
8
BLACK
6
CONTINUOUS
10
82.2345
20
-96.1497
11
82.425
21
-96.245
0
LINE
8
BLACK
6
CONTINUOUS
10
82.425
20
-96.245
11
82.5202
21
-96.3402
0
LINE
8
BLACK
6
CONTINUOUS
10
82.5202
20
-96.3402
11
82.6154
21
-96.5307
0
LINE
8
BLACK
6
CONTINUOUS
10
82.6154
20
-96.5307
11
82.7107
21
-96.9116
0
LINE
8
BLACK
6
CONTINUOUS
10
82.7107
20
-96.9116
11
82.7107
21
-97.3878
0
LINE
8
BLACK
6
CONTINUOUS
10
82.7107
20
-97.3878
11
82.6154
21
-97.7688
0
LINE
8
BLACK
6
CONTINUOUS
10
82.6154
20
-97.7688
11
82.5202
21
-97.9592
0
LINE
8
BLACK
6
CONTINUOUS
10
82.5202
20
-97.9592
11
82.425
21
-98.0545
0
LINE
8
BLACK
6
CONTINUOUS
10
82.425
20
-98.0545
11
82.2345
21
-98.1497
0
LINE
8
BLACK
6
CONTINUOUS
10
82.2345
20
-98.1497
11
82.044
21
-98.1497
0
LINE
8
BLACK
6
CONTINUOUS
10
82.044
20
-98.1497
11
81.8535
21
-98.0545
0
LINE
8
BLACK
6
CONTINUOUS
10
81.8535
20
-98.0545
11
81.7583
21
-97.9592
0
LINE
8
BLACK
6
CONTINUOUS
10
81.7583
20
-97.9592
11
81.6631
21
-97.7688
0
LINE
8
BLACK
6
CONTINUOUS
10
81.6631
20
-97.7688
11
81.5678
21
-97.3878
0
LINE
8
BLACK
6
CONTINUOUS
10
81.5678
20
-97.3878
11
81.5678
21
-96.9116
0
LINE
8
BLACK
6
CONTINUOUS
10
81.5678
20
-96.9116
11
81.6631
21
-96.5307
0
LINE
8
BLACK
6
CONTINUOUS
10
81.6631
20
-96.5307
11
81.7583
21
-96.3402
0
LINE
8
BLACK
6
CONTINUOUS
10
81.7583
20
-96.3402
11
81.8535
21
-96.245
0
LINE
8
BLACK
6
CONTINUOUS
10
81.8535
20
-96.245
11
82.044
21
-96.1497
0
LINE
8
BLACK
6
CONTINUOUS
10
83.9488
20
-96.1497
11
84.1392
21
-96.1497
0
LINE
8
BLACK
6
CONTINUOUS
10
84.1392
20
-96.1497
11
84.3297
21
-96.245
0
LINE
8
BLACK
6
CONTINUOUS
10
84.3297
20
-96.245
11
84.425
21
-96.3402
0
LINE
8
BLACK
6
CONTINUOUS
10
84.425
20
-96.3402
11
84.5202
21
-96.5307
0
LINE
8
BLACK
6
CONTINUOUS
10
84.5202
20
-96.5307
11
84.6154
21
-96.9116
0
LINE
8
BLACK
6
CONTINUOUS
10
84.6154
20
-96.9116
11
84.6154
21
-97.3878
0
LINE
8
BLACK
6
CONTINUOUS
10
84.6154
20
-97.3878
11
84.5202
21
-97.7688
0
LINE
8
BLACK
6
CONTINUOUS
10
84.5202
20
-97.7688
11
84.425
21
-97.9592
0
LINE
8
BLACK
6
CONTINUOUS
10
84.425
20
-97.9592
11
84.3297
21
-98.0545
0
LINE
8
BLACK
6
CONTINUOUS
10
84.3297
20
-98.0545
11
84.1392
21
-98.1497
0
LINE
8
BLACK
6
CONTINUOUS
10
84.1392
20
-98.1497
11
83.9488
21
-98.1497
0
LINE
8
BLACK
6
CONTINUOUS
10
83.9488
20
-98.1497
11
83.7583
21
-98.0545
0
LINE
8
BLACK
6
CONTINUOUS
10
83.7583
20
-98.0545
11
83.6631
21
-97.9592
0
LINE
8
BLACK
6
CONTINUOUS
10
83.6631
20
-97.9592
11
83.5678
21
-97.7688
0
LINE
8
BLACK
6
CONTINUOUS
10
83.5678
20
-97.7688
11
83.4726
21
-97.3878
0
LINE
8
BLACK
6
CONTINUOUS
10
83.4726
20
-97.3878
11
83.4726
21
-96.9116
0
LINE
8
BLACK
6
CONTINUOUS
10
83.4726
20
-96.9116
11
83.5678
21
-96.5307
0
LINE
8
BLACK
6
CONTINUOUS
10
83.5678
20
-96.5307
11
83.6631
21
-96.3402
0
LINE
8
BLACK
6
CONTINUOUS
10
83.6631
20
-96.3402
11
83.7583
21
-96.245
0
LINE
8
BLACK
6
CONTINUOUS
10
83.7583
20
-96.245
11
83.9488
21
-96.1497
0
LINE
8
BLACK
6
CONTINUOUS
10
85.4726
20
-98.1497
11
85.4726
21
-96.8164
0
LINE
8
BLACK
6
CONTINUOUS
10
85.4726
20
-97.0069
11
85.5678
21
-96.9116
0
LINE
8
BLACK
6
CONTINUOUS
10
85.5678
20
-96.9116
11
85.7583
21
-96.8164
0
LINE
8
BLACK
6
CONTINUOUS
10
85.7583
20
-96.8164
11
86.044
21
-96.8164
0
LINE
8
BLACK
6
CONTINUOUS
10
86.044
20
-96.8164
11
86.2345
21
-96.9116
0
LINE
8
BLACK
6
CONTINUOUS
10
86.2345
20
-96.9116
11
86.3297
21
-97.1021
0
LINE
8
BLACK
6
CONTINUOUS
10
86.3297
20
-97.1021
11
86.3297
21
-98.1497
0
LINE
8
BLACK
6
CONTINUOUS
10
86.3297
20
-97.1021
11
86.425
21
-96.9116
0
LINE
8
BLACK
6
CONTINUOUS
10
86.425
20
-96.9116
11
86.6154
21
-96.8164
0
LINE
8
BLACK
6
CONTINUOUS
10
86.6154
20
-96.8164
11
86.9012
21
-96.8164
0
LINE
8
BLACK
6
CONTINUOUS
10
86.9012
20
-96.8164
11
87.0916
21
-96.9116
0
LINE
8
BLACK
6
CONTINUOUS
10
87.0916
20
-96.9116
11
87.1869
21
-97.1021
0
LINE
8
BLACK
6
CONTINUOUS
10
87.1869
20
-97.1021
11
87.1869
21
-98.1497
0
LINE
8
BLACK
6
CONTINUOUS
10
88.1392
20
-98.1497
11
88.1392
21
-96.8164
0
LINE
8
BLACK
6
CONTINUOUS
10
88.1392
20
-97.0069
11
88.2345
21
-96.9116
0
LINE
8
BLACK
6
CONTINUOUS
10
88.2345
20
-96.9116
11
88.425
21
-96.8164
0
LINE
8
BLACK
6
CONTINUOUS
10
88.425
20
-96.8164
11
88.7107
21
-96.8164
0
LINE
8
BLACK
6
CONTINUOUS
10
88.7107
20
-96.8164
11
88.9012
21
-96.9116
0
LINE
8
BLACK
6
CONTINUOUS
10
88.9012
20
-96.9116
11
88.9964
21
-97.1021
0
LINE
8
BLACK
6
CONTINUOUS
10
88.9964
20
-97.1021
11
88.9964
21
-98.1497
0
LINE
8
BLACK
6
CONTINUOUS
10
88.9964
20
-97.1021
11
89.0916
21
-96.9116
0
LINE
8
BLACK
6
CONTINUOUS
10
89.0916
20
-96.9116
11
89.2821
21
-96.8164
0
LINE
8
BLACK
6
CONTINUOUS
10
89.2821
20
-96.8164
11
89.5678
21
-96.8164
0
LINE
8
BLACK
6
CONTINUOUS
10
89.5678
20
-96.8164
11
89.7583
21
-96.9116
0
LINE
8
BLACK
6
CONTINUOUS
10
89.7583
20
-96.9116
11
89.8535
21
-97.1021
0
LINE
8
BLACK
6
CONTINUOUS
10
89.8535
20
-97.1021
11
89.8535
21
-98.1497
0
LINE
8
BLACK
6
CONTINUOUS
10
93.7583
20
-96.0545
11
92.044
21
-98.6259
0
LINE
8
BLACK
6
CONTINUOUS
10
96.3297
20
-96.1497
11
96.5202
21
-96.1497
0
LINE
8
BLACK
6
CONTINUOUS
10
96.5202
20
-96.1497
11
96.7107
21
-96.245
0
LINE
8
BLACK
6
CONTINUOUS
10
96.7107
20
-96.245
11
96.8059
21
-96.3402
0
LINE
8
BLACK
6
CONTINUOUS
10
96.8059
20
-96.3402
11
96.9012
21
-96.5307
0
LINE
8
BLACK
6
CONTINUOUS
10
96.9012
20
-96.5307
11
96.9964
21
-96.9116
0
LINE
8
BLACK
6
CONTINUOUS
10
96.9964
20
-96.9116
11
96.9964
21
-97.3878
0
LINE
8
BLACK
6
CONTINUOUS
10
96.9964
20
-97.3878
11
96.9012
21
-97.7688
0
LINE
8
BLACK
6
CONTINUOUS
10
96.9012
20
-97.7688
11
96.8059
21
-97.9592
0
LINE
8
BLACK
6
CONTINUOUS
10
96.8059
20
-97.9592
11
96.7107
21
-98.0545
0
LINE
8
BLACK
6
CONTINUOUS
10
96.7107
20
-98.0545
11
96.5202
21
-98.1497
0
LINE
8
BLACK
6
CONTINUOUS
10
96.5202
20
-98.1497
11
96.3297
21
-98.1497
0
LINE
8
BLACK
6
CONTINUOUS
10
96.3297
20
-98.1497
11
96.1392
21
-98.0545
0
LINE
8
BLACK
6
CONTINUOUS
10
96.1392
20
-98.0545
11
96.044
21
-97.9592
0
LINE
8
BLACK
6
CONTINUOUS
10
96.044
20
-97.9592
11
95.9488
21
-97.7688
0
LINE
8
BLACK
6
CONTINUOUS
10
95.9488
20
-97.7688
11
95.8535
21
-97.3878
0
LINE
8
BLACK
6
CONTINUOUS
10
95.8535
20
-97.3878
11
95.8535
21
-96.9116
0
LINE
8
BLACK
6
CONTINUOUS
10
95.8535
20
-96.9116
11
95.9488
21
-96.5307
0
LINE
8
BLACK
6
CONTINUOUS
10
95.9488
20
-96.5307
11
96.044
21
-96.3402
0
LINE
8
BLACK
6
CONTINUOUS
10
96.044
20
-96.3402
11
96.1392
21
-96.245
0
LINE
8
BLACK
6
CONTINUOUS
10
96.1392
20
-96.245
11
96.3297
21
-96.1497
0
LINE
8
BLACK
6
CONTINUOUS
10
97.8535
20
-97.9592
11
97.9488
21
-98.0545
0
LINE
8
BLACK
6
CONTINUOUS
10
97.9488
20
-98.0545
11
97.8535
21
-98.1497
0
LINE
8
BLACK
6
CONTINUOUS
10
97.8535
20
-98.1497
11
97.7583
21
-98.0545
0
LINE
8
BLACK
6
CONTINUOUS
10
97.7583
20
-98.0545
11
97.8535
21
-97.9592
0
LINE
8
BLACK
6
CONTINUOUS
10
97.8535
20
-97.9592
11
97.8535
21
-98.1497
0
LINE
8
BLACK
6
CONTINUOUS
10
99.1869
20
-96.1497
11
99.3773
21
-96.1497
0
LINE
8
BLACK
6
CONTINUOUS
10
99.3773
20
-96.1497
11
99.5678
21
-96.245
0
LINE
8
BLACK
6
CONTINUOUS
10
99.5678
20
-96.245
11
99.6631
21
-96.3402
0
LINE
8
BLACK
6
CONTINUOUS
10
99.6631
20
-96.3402
11
99.7583
21
-96.5307
0
LINE
8
BLACK
6
CONTINUOUS
10
99.7583
20
-96.5307
11
99.8535
21
-96.9116
0
LINE
8
BLACK
6
CONTINUOUS
10
99.8535
20
-96.9116
11
99.8535
21
-97.3878
0
LINE
8
BLACK
6
CONTINUOUS
10
99.8535
20
-97.3878
11
99.7583
21
-97.7688
0
LINE
8
BLACK
6
CONTINUOUS
10
99.7583
20
-97.7688
11
99.6631
21
-97.9592
0
LINE
8
BLACK
6
CONTINUOUS
10
99.6631
20
-97.9592
11
99.5678
21
-98.0545
0
LINE
8
BLACK
6
CONTINUOUS
10
99.5678
20
-98.0545
11
99.3773
21
-98.1497
0
LINE
8
BLACK
6
CONTINUOUS
10
99.3773
20
-98.1497
11
99.1869
21
-98.1497
0
LINE
8
BLACK
6
CONTINUOUS
10
99.1869
20
-98.1497
11
98.9964
21
-98.0545
0
LINE
8
BLACK
6
CONTINUOUS
10
98.9964
20
-98.0545
11
98.9012
21
-97.9592
0
LINE
8
BLACK
6
CONTINUOUS
10
98.9012
20
-97.9592
11
98.8059
21
-97.7688
0
LINE
8
BLACK
6
CONTINUOUS
10
98.8059
20
-97.7688
11
98.7107
21
-97.3878
0
LINE
8
BLACK
6
CONTINUOUS
10
98.7107
20
-97.3878
11
98.7107
21
-96.9116
0
LINE
8
BLACK
6
CONTINUOUS
10
98.7107
20
-96.9116
11
98.8059
21
-96.5307
0
LINE
8
BLACK
6
CONTINUOUS
10
98.8059
20
-96.5307
11
98.9012
21
-96.3402
0
LINE
8
BLACK
6
CONTINUOUS
10
98.9012
20
-96.3402
11
98.9964
21
-96.245
0
LINE
8
BLACK
6
CONTINUOUS
10
98.9964
20
-96.245
11
99.1869
21
-96.1497
0
LINE
8
BLACK
6
CONTINUOUS
10
100.52
20
-96.1497
11
101.854
21
-96.1497
0
LINE
8
BLACK
6
CONTINUOUS
10
101.854
20
-96.1497
11
100.996
21
-98.1497
0
LINE
8
BLACK
6
CONTINUOUS
10
102.901
20
-97.0069
11
102.711
21
-96.9116
0
LINE
8
BLACK
6
CONTINUOUS
10
102.711
20
-96.9116
11
102.615
21
-96.8164
0
LINE
8
BLACK
6
CONTINUOUS
10
102.615
20
-96.8164
11
102.52
21
-96.6259
0
LINE
8
BLACK
6
CONTINUOUS
10
102.52
20
-96.6259
11
102.52
21
-96.5307
0
LINE
8
BLACK
6
CONTINUOUS
10
102.52
20
-96.5307
11
102.615
21
-96.3402
0
LINE
8
BLACK
6
CONTINUOUS
10
102.615
20
-96.3402
11
102.711
21
-96.245
0
LINE
8
BLACK
6
CONTINUOUS
10
102.711
20
-96.245
11
102.901
21
-96.1497
0
LINE
8
BLACK
6
CONTINUOUS
10
102.901
20
-96.1497
11
103.282
21
-96.1497
0
LINE
8
BLACK
6
CONTINUOUS
10
103.282
20
-96.1497
11
103.473
21
-96.245
0
LINE
8
BLACK
6
CONTINUOUS
10
103.473
20
-96.245
11
103.568
21
-96.3402
0
LINE
8
BLACK
6
CONTINUOUS
10
103.568
20
-96.3402
11
103.663
21
-96.5307
0
LINE
8
BLACK
6
CONTINUOUS
10
103.663
20
-96.5307
11
103.663
21
-96.6259
0
LINE
8
BLACK
6
CONTINUOUS
10
103.663
20
-96.6259
11
103.568
21
-96.8164
0
LINE
8
BLACK
6
CONTINUOUS
10
103.568
20
-96.8164
11
103.473
21
-96.9116
0
LINE
8
BLACK
6
CONTINUOUS
10
103.473
20
-96.9116
11
103.282
21
-97.0069
0
LINE
8
BLACK
6
CONTINUOUS
10
103.282
20
-97.0069
11
102.901
21
-97.0069
0
LINE
8
BLACK
6
CONTINUOUS
10
102.901
20
-97.0069
11
102.711
21
-97.1021
0
LINE
8
BLACK
6
CONTINUOUS
10
102.711
20
-97.1021
11
102.615
21
-97.1973
0
LINE
8
BLACK
6
CONTINUOUS
10
102.615
20
-97.1973
11
102.52
21
-97.3878
0
LINE
8
BLACK
6
CONTINUOUS
10
102.52
20
-97.3878
11
102.52
21
-97.7688
0
LINE
8
BLACK
6
CONTINUOUS
10
102.52
20
-97.7688
11
102.615
21
-97.9592
0
LINE
8
BLACK
6
CONTINUOUS
10
102.615
20
-97.9592
11
102.711
21
-98.0545
0
LINE
8
BLACK
6
CONTINUOUS
10
102.711
20
-98.0545
11
102.901
21
-98.1497
0
LINE
8
BLACK
6
CONTINUOUS
10
102.901
20
-98.1497
11
103.282
21
-98.1497
0
LINE
8
BLACK
6
CONTINUOUS
10
103.282
20
-98.1497
11
103.473
21
-98.0545
0
LINE
8
BLACK
6
CONTINUOUS
10
103.473
20
-98.0545
11
103.568
21
-97.9592
0
LINE
8
BLACK
6
CONTINUOUS
10
103.568
20
-97.9592
11
103.663
21
-97.7688
0
LINE
8
BLACK
6
CONTINUOUS
10
103.663
20
-97.7688
11
103.663
21
-97.3878
0
LINE
8
BLACK
6
CONTINUOUS
10
103.663
20
-97.3878
11
103.568
21
-97.1973
0
LINE
8
BLACK
6
CONTINUOUS
10
103.568
20
-97.1973
11
103.473
21
-97.1021
0
LINE
8
BLACK
6
CONTINUOUS
10
103.473
20
-97.1021
11
103.282
21
-97.0069
0
LINE
8
BLACK
6
CONTINUOUS
10
104.33
20
-96.1497
11
105.663
21
-96.1497
0
LINE
8
BLACK
6
CONTINUOUS
10
105.663
20
-96.1497
11
104.806
21
-98.1497
0
LINE
8
BLACK
6
CONTINUOUS
10
106.33
20
-96.1497
11
106.33
21
-96.5307
0
LINE
8
BLACK
6
CONTINUOUS
10
107.092
20
-96.1497
11
107.092
21
-96.5307
0
LINE
8
BLACK
6
CONTINUOUS
10
110.044
20
-98.9116
11
109.949
21
-98.8164
0
LINE
8
BLACK
6
CONTINUOUS
10
109.949
20
-98.8164
11
109.758
21
-98.5307
0
LINE
8
BLACK
6
CONTINUOUS
10
109.758
20
-98.5307
11
109.663
21
-98.3402
0
LINE
8
BLACK
6
CONTINUOUS
10
109.663
20
-98.3402
11
109.568
21
-98.0545
0
LINE
8
BLACK
6
CONTINUOUS
10
109.568
20
-98.0545
11
109.473
21
-97.5783
0
LINE
8
BLACK
6
CONTINUOUS
10
109.473
20
-97.5783
11
109.473
21
-97.1973
0
LINE
8
BLACK
6
CONTINUOUS
10
109.473
20
-97.1973
11
109.568
21
-96.7212
0
LINE
8
BLACK
6
CONTINUOUS
10
109.568
20
-96.7212
11
109.663
21
-96.4354
0
LINE
8
BLACK
6
CONTINUOUS
10
109.663
20
-96.4354
11
109.758
21
-96.245
0
LINE
8
BLACK
6
CONTINUOUS
10
109.758
20
-96.245
11
109.949
21
-95.9592
0
LINE
8
BLACK
6
CONTINUOUS
10
109.949
20
-95.9592
11
110.044
21
-95.864
0
LINE
8
BLACK
6
CONTINUOUS
10
111.187
20
-96.1497
11
111.377
21
-96.1497
0
LINE
8
BLACK
6
CONTINUOUS
10
111.377
20
-96.1497
11
111.568
21
-96.245
0
LINE
8
BLACK
6
CONTINUOUS
10
111.568
20
-96.245
11
111.663
21
-96.3402
0
LINE
8
BLACK
6
CONTINUOUS
10
111.663
20
-96.3402
11
111.758
21
-96.5307
0
LINE
8
BLACK
6
CONTINUOUS
10
111.758
20
-96.5307
11
111.854
21
-96.9116
0
LINE
8
BLACK
6
CONTINUOUS
10
111.854
20
-96.9116
11
111.854
21
-97.3878
0
LINE
8
BLACK
6
CONTINUOUS
10
111.854
20
-97.3878
11
111.758
21
-97.7688
0
LINE
8
BLACK
6
CONTINUOUS
10
111.758
20
-97.7688
11
111.663
21
-97.9592
0
LINE
8
BLACK
6
CONTINUOUS
10
111.663
20
-97.9592
11
111.568
21
-98.0545
0
LINE
8
BLACK
6
CONTINUOUS
10
111.568
20
-98.0545
11
111.377
21
-98.1497
0
LINE
8
BLACK
6
CONTINUOUS
10
111.377
20
-98.1497
11
111.187
21
-98.1497
0
LINE
8
BLACK
6
CONTINUOUS
10
111.187
20
-98.1497
11
110.996
21
-98.0545
0
LINE
8
BLACK
6
CONTINUOUS
10
110.996
20
-98.0545
11
110.901
21
-97.9592
0
LINE
8
BLACK
6
CONTINUOUS
10
110.901
20
-97.9592
11
110.806
21
-97.7688
0
LINE
8
BLACK
6
CONTINUOUS
10
110.806
20
-97.7688
11
110.711
21
-97.3878
0
LINE
8
BLACK
6
CONTINUOUS
10
110.711
20
-97.3878
11
110.711
21
-96.9116
0
LINE
8
BLACK
6
CONTINUOUS
10
110.711
20
-96.9116
11
110.806
21
-96.5307
0
LINE
8
BLACK
6
CONTINUOUS
10
110.806
20
-96.5307
11
110.901
21
-96.3402
0
LINE
8
BLACK
6
CONTINUOUS
10
110.901
20
-96.3402
11
110.996
21
-96.245
0
LINE
8
BLACK
6
CONTINUOUS
10
110.996
20
-96.245
11
111.187
21
-96.1497
0
LINE
8
BLACK
6
CONTINUOUS
10
114.234
20
-98.1497
11
114.234
21
-96.1497
0
LINE
8
BLACK
6
CONTINUOUS
10
115.092
20
-98.1497
11
115.092
21
-97.1021
0
LINE
8
BLACK
6
CONTINUOUS
10
115.092
20
-97.1021
11
114.996
21
-96.9116
0
LINE
8
BLACK
6
CONTINUOUS
10
114.996
20
-96.9116
11
114.806
21
-96.8164
0
LINE
8
BLACK
6
CONTINUOUS
10
114.806
20
-96.8164
11
114.52
21
-96.8164
0
LINE
8
BLACK
6
CONTINUOUS
10
114.52
20
-96.8164
11
114.33
21
-96.9116
0
LINE
8
BLACK
6
CONTINUOUS
10
114.33
20
-96.9116
11
114.234
21
-97.0069
0
LINE
8
BLACK
6
CONTINUOUS
10
116.33
20
-98.1497
11
116.139
21
-98.0545
0
LINE
8
BLACK
6
CONTINUOUS
10
116.139
20
-98.0545
11
116.044
21
-97.9592
0
LINE
8
BLACK
6
CONTINUOUS
10
116.044
20
-97.9592
11
115.949
21
-97.7688
0
LINE
8
BLACK
6
CONTINUOUS
10
115.949
20
-97.7688
11
115.949
21
-97.1973
0
LINE
8
BLACK
6
CONTINUOUS
10
115.949
20
-97.1973
11
116.044
21
-97.0069
0
LINE
8
BLACK
6
CONTINUOUS
10
116.044
20
-97.0069
11
116.139
21
-96.9116
0
LINE
8
BLACK
6
CONTINUOUS
10
116.139
20
-96.9116
11
116.33
21
-96.8164
0
LINE
8
BLACK
6
CONTINUOUS
10
116.33
20
-96.8164
11
116.615
21
-96.8164
0
LINE
8
BLACK
6
CONTINUOUS
10
116.615
20
-96.8164
11
116.806
21
-96.9116
0
LINE
8
BLACK
6
CONTINUOUS
10
116.806
20
-96.9116
11
116.901
21
-97.0069
0
LINE
8
BLACK
6
CONTINUOUS
10
116.901
20
-97.0069
11
116.996
21
-97.1973
0
LINE
8
BLACK
6
CONTINUOUS
10
116.996
20
-97.1973
11
116.996
21
-97.7688
0
LINE
8
BLACK
6
CONTINUOUS
10
116.996
20
-97.7688
11
116.901
21
-97.9592
0
LINE
8
BLACK
6
CONTINUOUS
10
116.901
20
-97.9592
11
116.806
21
-98.0545
0
LINE
8
BLACK
6
CONTINUOUS
10
116.806
20
-98.0545
11
116.615
21
-98.1497
0
LINE
8
BLACK
6
CONTINUOUS
10
116.615
20
-98.1497
11
116.33
21
-98.1497
0
LINE
8
BLACK
6
CONTINUOUS
10
118.139
20
-98.1497
11
117.949
21
-98.0545
0
LINE
8
BLACK
6
CONTINUOUS
10
117.949
20
-98.0545
11
117.854
21
-97.864
0
LINE
8
BLACK
6
CONTINUOUS
10
117.854
20
-97.864
11
117.854
21
-96.1497
0
LINE
8
BLACK
6
CONTINUOUS
10
119.663
20
-98.0545
11
119.473
21
-98.1497
0
LINE
8
BLACK
6
CONTINUOUS
10
119.473
20
-98.1497
11
119.092
21
-98.1497
0
LINE
8
BLACK
6
CONTINUOUS
10
119.092
20
-98.1497
11
118.901
21
-98.0545
0
LINE
8
BLACK
6
CONTINUOUS
10
118.901
20
-98.0545
11
118.806
21
-97.864
0
LINE
8
BLACK
6
CONTINUOUS
10
118.806
20
-97.864
11
118.806
21
-97.1021
0
LINE
8
BLACK
6
CONTINUOUS
10
118.806
20
-97.1021
11
118.901
21
-96.9116
0
LINE
8
BLACK
6
CONTINUOUS
10
118.901
20
-96.9116
11
119.092
21
-96.8164
0
LINE
8
BLACK
6
CONTINUOUS
10
119.092
20
-96.8164
11
119.473
21
-96.8164
0
LINE
8
BLACK
6
CONTINUOUS
10
119.473
20
-96.8164
11
119.663
21
-96.9116
0
LINE
8
BLACK
6
CONTINUOUS
10
119.663
20
-96.9116
11
119.758
21
-97.1021
0
LINE
8
BLACK
6
CONTINUOUS
10
119.758
20
-97.1021
11
119.758
21
-97.2926
0
LINE
8
BLACK
6
CONTINUOUS
10
119.758
20
-97.2926
11
118.806
21
-97.4831
0
LINE
8
BLACK
6
CONTINUOUS
10
120.52
20
-98.0545
11
120.711
21
-98.1497
0
LINE
8
BLACK
6
CONTINUOUS
10
120.711
20
-98.1497
11
121.092
21
-98.1497
0
LINE
8
BLACK
6
CONTINUOUS
10
121.092
20
-98.1497
11
121.282
21
-98.0545
0
LINE
8
BLACK
6
CONTINUOUS
10
121.282
20
-98.0545
11
121.377
21
-97.864
0
LINE
8
BLACK
6
CONTINUOUS
10
121.377
20
-97.864
11
121.377
21
-97.7688
0
LINE
8
BLACK
6
CONTINUOUS
10
121.377
20
-97.7688
11
121.282
21
-97.5783
0
LINE
8
BLACK
6
CONTINUOUS
10
121.282
20
-97.5783
11
121.092
21
-97.4831
0
LINE
8
BLACK
6
CONTINUOUS
10
121.092
20
-97.4831
11
120.806
21
-97.4831
0
LINE
8
BLACK
6
CONTINUOUS
10
120.806
20
-97.4831
11
120.615
21
-97.3878
0
LINE
8
BLACK
6
CONTINUOUS
10
120.615
20
-97.3878
11
120.52
21
-97.1973
0
LINE
8
BLACK
6
CONTINUOUS
10
120.52
20
-97.1973
11
120.52
21
-97.1021
0
LINE
8
BLACK
6
CONTINUOUS
10
120.52
20
-97.1021
11
120.615
21
-96.9116
0
LINE
8
BLACK
6
CONTINUOUS
10
120.615
20
-96.9116
11
120.806
21
-96.8164
0
LINE
8
BLACK
6
CONTINUOUS
10
120.806
20
-96.8164
11
121.092
21
-96.8164
0
LINE
8
BLACK
6
CONTINUOUS
10
121.092
20
-96.8164
11
121.282
21
-96.9116
0
LINE
8
BLACK
6
CONTINUOUS
10
123.758
20
-97.3878
11
125.282
21
-97.3878
0
LINE
8
BLACK
6
CONTINUOUS
10
124.52
20
-98.1497
11
124.52
21
-96.6259
0
LINE
8
BLACK
6
CONTINUOUS
10
127.663
20
-96.3402
11
127.758
21
-96.245
0
LINE
8
BLACK
6
CONTINUOUS
10
127.758
20
-96.245
11
127.949
21
-96.1497
0
LINE
8
BLACK
6
CONTINUOUS
10
127.949
20
-96.1497
11
128.425
21
-96.1497
0
LINE
8
BLACK
6
CONTINUOUS
10
128.425
20
-96.1497
11
128.615
21
-96.245
0
LINE
8
BLACK
6
CONTINUOUS
10
128.615
20
-96.245
11
128.711
21
-96.3402
0
LINE
8
BLACK
6
CONTINUOUS
10
128.711
20
-96.3402
11
128.806
21
-96.5307
0
LINE
8
BLACK
6
CONTINUOUS
10
128.806
20
-96.5307
11
128.806
21
-96.7212
0
LINE
8
BLACK
6
CONTINUOUS
10
128.806
20
-96.7212
11
128.711
21
-97.0069
0
LINE
8
BLACK
6
CONTINUOUS
10
128.711
20
-97.0069
11
127.568
21
-98.1497
0
LINE
8
BLACK
6
CONTINUOUS
10
127.568
20
-98.1497
11
128.806
21
-98.1497
0
LINE
8
BLACK
6
CONTINUOUS
10
131.092
20
-98.0545
11
131.282
21
-98.1497
0
LINE
8
BLACK
6
CONTINUOUS
10
131.282
20
-98.1497
11
131.663
21
-98.1497
0
LINE
8
BLACK
6
CONTINUOUS
10
131.663
20
-98.1497
11
131.854
21
-98.0545
0
LINE
8
BLACK
6
CONTINUOUS
10
131.854
20
-98.0545
11
131.949
21
-97.864
0
LINE
8
BLACK
6
CONTINUOUS
10
131.949
20
-97.864
11
131.949
21
-97.7688
0
LINE
8
BLACK
6
CONTINUOUS
10
131.949
20
-97.7688
11
131.854
21
-97.5783
0
LINE
8
BLACK
6
CONTINUOUS
10
131.854
20
-97.5783
11
131.663
21
-97.4831
0
LINE
8
BLACK
6
CONTINUOUS
10
131.663
20
-97.4831
11
131.377
21
-97.4831
0
LINE
8
BLACK
6
CONTINUOUS
10
131.377
20
-97.4831
11
131.187
21
-97.3878
0
LINE
8
BLACK
6
CONTINUOUS
10
131.187
20
-97.3878
11
131.092
21
-97.1973
0
LINE
8
BLACK
6
CONTINUOUS
10
131.092
20
-97.1973
11
131.092
21
-97.1021
0
LINE
8
BLACK
6
CONTINUOUS
10
131.092
20
-97.1021
11
131.187
21
-96.9116
0
LINE
8
BLACK
6
CONTINUOUS
10
131.187
20
-96.9116
11
131.377
21
-96.8164
0
LINE
8
BLACK
6
CONTINUOUS
10
131.377
20
-96.8164
11
131.663
21
-96.8164
0
LINE
8
BLACK
6
CONTINUOUS
10
131.663
20
-96.8164
11
131.854
21
-96.9116
0
LINE
8
BLACK
6
CONTINUOUS
10
133.092
20
-98.1497
11
132.901
21
-98.0545
0
LINE
8
BLACK
6
CONTINUOUS
10
132.901
20
-98.0545
11
132.806
21
-97.864
0
LINE
8
BLACK
6
CONTINUOUS
10
132.806
20
-97.864
11
132.806
21
-96.1497
0
LINE
8
BLACK
6
CONTINUOUS
10
134.139
20
-98.1497
11
133.949
21
-98.0545
0
LINE
8
BLACK
6
CONTINUOUS
10
133.949
20
-98.0545
11
133.854
21
-97.9592
0
LINE
8
BLACK
6
CONTINUOUS
10
133.854
20
-97.9592
11
133.758
21
-97.7688
0
LINE
8
BLACK
6
CONTINUOUS
10
133.758
20
-97.7688
11
133.758
21
-97.1973
0
LINE
8
BLACK
6
CONTINUOUS
10
133.758
20
-97.1973
11
133.854
21
-97.0069
0
LINE
8
BLACK
6
CONTINUOUS
10
133.854
20
-97.0069
11
133.949
21
-96.9116
0
LINE
8
BLACK
6
CONTINUOUS
10
133.949
20
-96.9116
11
134.139
21
-96.8164
0
LINE
8
BLACK
6
CONTINUOUS
10
134.139
20
-96.8164
11
134.425
21
-96.8164
0
LINE
8
BLACK
6
CONTINUOUS
10
134.425
20
-96.8164
11
134.615
21
-96.9116
0
LINE
8
BLACK
6
CONTINUOUS
10
134.615
20
-96.9116
11
134.711
21
-97.0069
0
LINE
8
BLACK
6
CONTINUOUS
10
134.711
20
-97.0069
11
134.806
21
-97.1973
0
LINE
8
BLACK
6
CONTINUOUS
10
134.806
20
-97.1973
11
134.806
21
-97.7688
0
LINE
8
BLACK
6
CONTINUOUS
10
134.806
20
-97.7688
11
134.711
21
-97.9592
0
LINE
8
BLACK
6
CONTINUOUS
10
134.711
20
-97.9592
11
134.615
21
-98.0545
0
LINE
8
BLACK
6
CONTINUOUS
10
134.615
20
-98.0545
11
134.425
21
-98.1497
0
LINE
8
BLACK
6
CONTINUOUS
10
134.425
20
-98.1497
11
134.139
21
-98.1497
0
LINE
8
BLACK
6
CONTINUOUS
10
135.377
20
-96.8164
11
136.139
21
-96.8164
0
LINE
8
BLACK
6
CONTINUOUS
10
135.663
20
-96.1497
11
135.663
21
-97.864
0
LINE
8
BLACK
6
CONTINUOUS
10
135.663
20
-97.864
11
135.758
21
-98.0545
0
LINE
8
BLACK
6
CONTINUOUS
10
135.758
20
-98.0545
11
135.949
21
-98.1497
0
LINE
8
BLACK
6
CONTINUOUS
10
135.949
20
-98.1497
11
136.139
21
-98.1497
0
LINE
8
BLACK
6
CONTINUOUS
10
136.711
20
-98.0545
11
136.901
21
-98.1497
0
LINE
8
BLACK
6
CONTINUOUS
10
136.901
20
-98.1497
11
137.282
21
-98.1497
0
LINE
8
BLACK
6
CONTINUOUS
10
137.282
20
-98.1497
11
137.473
21
-98.0545
0
LINE
8
BLACK
6
CONTINUOUS
10
137.473
20
-98.0545
11
137.568
21
-97.864
0
LINE
8
BLACK
6
CONTINUOUS
10
137.568
20
-97.864
11
137.568
21
-97.7688
0
LINE
8
BLACK
6
CONTINUOUS
10
137.568
20
-97.7688
11
137.473
21
-97.5783
0
LINE
8
BLACK
6
CONTINUOUS
10
137.473
20
-97.5783
11
137.282
21
-97.4831
0
LINE
8
BLACK
6
CONTINUOUS
10
137.282
20
-97.4831
11
136.996
21
-97.4831
0
LINE
8
BLACK
6
CONTINUOUS
10
136.996
20
-97.4831
11
136.806
21
-97.3878
0
LINE
8
BLACK
6
CONTINUOUS
10
136.806
20
-97.3878
11
136.711
21
-97.1973
0
LINE
8
BLACK
6
CONTINUOUS
10
136.711
20
-97.1973
11
136.711
21
-97.1021
0
LINE
8
BLACK
6
CONTINUOUS
10
136.711
20
-97.1021
11
136.806
21
-96.9116
0
LINE
8
BLACK
6
CONTINUOUS
10
136.806
20
-96.9116
11
136.996
21
-96.8164
0
LINE
8
BLACK
6
CONTINUOUS
10
136.996
20
-96.8164
11
137.282
21
-96.8164
0
LINE
8
BLACK
6
CONTINUOUS
10
137.282
20
-96.8164
11
137.473
21
-96.9116
0
LINE
8
BLACK
6
CONTINUOUS
10
138.234
20
-98.9116
11
138.33
21
-98.8164
0
LINE
8
BLACK
6
CONTINUOUS
10
138.33
20
-98.8164
11
138.52
21
-98.5307
0
LINE
8
BLACK
6
CONTINUOUS
10
138.52
20
-98.5307
11
138.615
21
-98.3402
0
LINE
8
BLACK
6
CONTINUOUS
10
138.615
20
-98.3402
11
138.711
21
-98.0545
0
LINE
8
BLACK
6
CONTINUOUS
10
138.711
20
-98.0545
11
138.806
21
-97.5783
0
LINE
8
BLACK
6
CONTINUOUS
10
138.806
20
-97.5783
11
138.806
21
-97.1973
0
LINE
8
BLACK
6
CONTINUOUS
10
138.806
20
-97.1973
11
138.711
21
-96.7212
0
LINE
8
BLACK
6
CONTINUOUS
10
138.711
20
-96.7212
11
138.615
21
-96.4354
0
LINE
8
BLACK
6
CONTINUOUS
10
138.615
20
-96.4354
11
138.52
21
-96.245
0
LINE
8
BLACK
6
CONTINUOUS
10
138.52
20
-96.245
11
138.33
21
-95.9592
0
LINE
8
BLACK
6
CONTINUOUS
10
138.33
20
-95.9592
11
138.234
21
-95.864
  0
ENDSEC
  0
EOF
