  0
SECTION
  2
HEADER
  9
$ANGBASE
  50
0.0
  9
$ANGDIR
  70
1
  9
$MEASUREMENT
  70
1
  0
ENDSEC
  0
SECTION
  2
TABLES
  0
TABLE
  2
LTYPE
  70
4
  0
LTYPE
  5
40F
  2
CONTINUOUS
  70
0
  3
Solid line
  72
65
  73
0
  40
0.0
  0
LTYPE
  5
410
  2
DASHDOT
 70
0
  3
Dash Dot ____ _ ____ _
 72
65
 73
4
 40
2.0
 49
1.25
 49
-0.25
 49
0.25
 49
-0.25
  0
LTYPE
  5
411
  2
DASHED
 70
0
  3
Dashed __ __ __ __ __
 72
65
 73
2
 40
0.75
 49
0.5
 49
-0.25
  0
LTYPE
  5
43B
  2
DOTTED
 70
0
  3
Dotted .  .  .  .
 72
65
 73
2
 40
0.2
 49
0.0
 49
-0.2
  0
ENDTAB
  0
TABLE
  2
STYLE
  70
4
  0
STYLE
  2
KICAD
  70
0
  40
0
  41
1
  42
1
  50
0
  71
0
  3
isocp.shx
  0
STYLE
  2
KICADB
  70
0
  40
0
  41
1
  42
1
  50
0
  71
0
  3
isocp.shx
  0
STYLE
  2
KICADI
  70
0
  40
0
  41
1
  42
1
  50
15
  71
0
  3
isocp.shx
  0
STYLE
  2
KICADBI
  70
0
  40
0
  41
1
  42
1
  50
15
  71
0
  3
isocp.shx
  0
ENDTAB
  0
TABLE
  2
LAYER
  70
1
  0
LAYER
  2
BLACK
  70
0
  62
7
  6
CONTINUOUS
  0
ENDTAB
  0
ENDSEC
  0
SECTION
  2
ENTITIES
0
ARC
8
BLACK
10
76.5
20
-17
40
2.12504
50
90.001
51
180
0
ARC
8
BLACK
10
140.25
20
-17
40
2.12501
50
0.000215698
51
89.9991
0
LINE
8
BLACK
6
CONTINUOUS
10
115.458
20
-13.4583
11
116.521
21
-14.875
0
LINE
8
BLACK
6
CONTINUOUS
10
105.896
20
-14.875
11
105.542
21
-14.875
0
LINE
8
BLACK
6
CONTINUOUS
10
74.375
20
-81.4583
11
74.375
21
-17
0
LINE
8
BLACK
6
CONTINUOUS
10
76.5
20
-14.875
11
105.542
21
-14.875
0
LINE
8
BLACK
6
CONTINUOUS
10
116.875
20
-14.875
11
140.25
21
-14.875
0
LINE
8
BLACK
6
CONTINUOUS
10
142.375
20
-17
11
142.375
21
-80.75
0
LINE
8
BLACK
6
CONTINUOUS
10
116.875
20
-14.875
11
116.521
21
-14.875
0
LINE
8
BLACK
6
CONTINUOUS
10
140.25
20
-82.875
11
75.7916
21
-82.875
0
ARC
8
BLACK
10
140.25
20
-80.75
40
2.12503
50
-89.9991
51
0.00102457
0
LINE
8
BLACK
6
CONTINUOUS
10
105.896
20
-14.875
11
106.958
21
-13.4583
0
LINE
8
BLACK
6
CONTINUOUS
10
106.958
20
-13.4583
11
115.458
21
-13.4583
0
ARC
8
BLACK
10
75.7916
20
-81.4583
40
1.41666
50
-180
51
-89.9987
0
LINE
8
BLACK
6
CONTINUOUS
10
107.993
20
-19.28
11
108.643
21
-19.93
0
LINE
8
BLACK
6
CONTINUOUS
10
108.643
20
-19.28
11
107.993
21
-19.93
0
LINE
8
BLACK
6
CONTINUOUS
10
113.773
20
-19.28
11
114.423
21
-19.93
0
LINE
8
BLACK
6
CONTINUOUS
10
114.423
20
-19.28
11
113.773
21
-19.93
0
CIRCLE
8
BLACK
10
77.655
20
-27.575
40
0.4953
0
CIRCLE
8
BLACK
10
77.655
20
-44.575
40
0.4953
0
CIRCLE
8
BLACK
10
77.655
20
-61.575
40
0.4953
0
CIRCLE
8
BLACK
10
77.655
20
-78.575
40
0.4953
0
CIRCLE
8
BLACK
10
105.095
20
-19.175
40
0.4953
0
CIRCLE
8
BLACK
10
105.095
20
-36.175
40
0.4953
0
CIRCLE
8
BLACK
10
105.095
20
-53.175
40
0.4953
0
CIRCLE
8
BLACK
10
105.095
20
-70.175
40
0.4953
0
CIRCLE
8
BLACK
10
122.095
20
-19.175
40
0.4953
0
CIRCLE
8
BLACK
10
122.095
20
-36.175
40
0.4953
0
CIRCLE
8
BLACK
10
122.095
20
-53.175
40
0.4953
0
CIRCLE
8
BLACK
10
122.095
20
-70.175
40
0.4953
0
CIRCLE
8
BLACK
10
139.095
20
-19.175
40
0.4953
0
CIRCLE
8
BLACK
10
139.095
20
-36.175
40
0.4953
0
CIRCLE
8
BLACK
10
139.095
20
-53.175
40
0.4953
0
CIRCLE
8
BLACK
10
139.095
20
-70.175
40
0.4953
0
LINE
8
BLACK
6
CONTINUOUS
10
77.375
20
-22.5241
11
77.375
21
-24.2259
0
LINE
8
BLACK
6
CONTINUOUS
10
76.5241
20
-23.375
11
78.2259
21
-23.375
0
LINE
8
BLACK
6
CONTINUOUS
10
77.375
20
-39.5241
11
77.375
21
-41.2259
0
LINE
8
BLACK
6
CONTINUOUS
10
76.5241
20
-40.375
11
78.2259
21
-40.375
0
LINE
8
BLACK
6
CONTINUOUS
10
77.375
20
-56.5241
11
77.375
21
-58.2259
0
LINE
8
BLACK
6
CONTINUOUS
10
76.5241
20
-57.375
11
78.2259
21
-57.375
0
LINE
8
BLACK
6
CONTINUOUS
10
77.375
20
-73.5241
11
77.375
21
-75.2259
0
LINE
8
BLACK
6
CONTINUOUS
10
76.5241
20
-74.375
11
78.2259
21
-74.375
0
LINE
8
BLACK
6
CONTINUOUS
10
88.375
20
-22.5241
11
88.375
21
-24.2259
0
LINE
8
BLACK
6
CONTINUOUS
10
87.5241
20
-23.375
11
89.2259
21
-23.375
0
LINE
8
BLACK
6
CONTINUOUS
10
88.375
20
-39.5241
11
88.375
21
-41.2259
0
LINE
8
BLACK
6
CONTINUOUS
10
87.5241
20
-40.375
11
89.2259
21
-40.375
0
LINE
8
BLACK
6
CONTINUOUS
10
88.375
20
-56.5241
11
88.375
21
-58.2259
0
LINE
8
BLACK
6
CONTINUOUS
10
87.5241
20
-57.375
11
89.2259
21
-57.375
0
LINE
8
BLACK
6
CONTINUOUS
10
88.375
20
-73.5241
11
88.375
21
-75.2259
0
LINE
8
BLACK
6
CONTINUOUS
10
87.5241
20
-74.375
11
89.2259
21
-74.375
0
LINE
8
BLACK
6
CONTINUOUS
10
94.375
20
-22.5241
11
94.375
21
-24.2259
0
LINE
8
BLACK
6
CONTINUOUS
10
93.5241
20
-23.375
11
95.2259
21
-23.375
0
LINE
8
BLACK
6
CONTINUOUS
10
94.375
20
-39.5241
11
94.375
21
-41.2259
0
LINE
8
BLACK
6
CONTINUOUS
10
93.5241
20
-40.375
11
95.2259
21
-40.375
0
LINE
8
BLACK
6
CONTINUOUS
10
94.375
20
-56.5241
11
94.375
21
-58.2259
0
LINE
8
BLACK
6
CONTINUOUS
10
93.5241
20
-57.375
11
95.2259
21
-57.375
0
LINE
8
BLACK
6
CONTINUOUS
10
94.375
20
-73.5241
11
94.375
21
-75.2259
0
LINE
8
BLACK
6
CONTINUOUS
10
93.5241
20
-74.375
11
95.2259
21
-74.375
0
LINE
8
BLACK
6
CONTINUOUS
10
105.375
20
-22.5241
11
105.375
21
-24.2259
0
LINE
8
BLACK
6
CONTINUOUS
10
104.524
20
-23.375
11
106.226
21
-23.375
0
LINE
8
BLACK
6
CONTINUOUS
10
105.375
20
-39.5241
11
105.375
21
-41.2259
0
LINE
8
BLACK
6
CONTINUOUS
10
104.524
20
-40.375
11
106.226
21
-40.375
0
LINE
8
BLACK
6
CONTINUOUS
10
105.375
20
-56.5241
11
105.375
21
-58.2259
0
LINE
8
BLACK
6
CONTINUOUS
10
104.524
20
-57.375
11
106.226
21
-57.375
0
LINE
8
BLACK
6
CONTINUOUS
10
105.375
20
-73.5241
11
105.375
21
-75.2259
0
LINE
8
BLACK
6
CONTINUOUS
10
104.524
20
-74.375
11
106.226
21
-74.375
0
LINE
8
BLACK
6
CONTINUOUS
10
111.375
20
-22.5241
11
111.375
21
-24.2259
0
LINE
8
BLACK
6
CONTINUOUS
10
110.524
20
-23.375
11
112.226
21
-23.375
0
LINE
8
BLACK
6
CONTINUOUS
10
111.375
20
-39.5241
11
111.375
21
-41.2259
0
LINE
8
BLACK
6
CONTINUOUS
10
110.524
20
-40.375
11
112.226
21
-40.375
0
LINE
8
BLACK
6
CONTINUOUS
10
111.375
20
-56.5241
11
111.375
21
-58.2259
0
LINE
8
BLACK
6
CONTINUOUS
10
110.524
20
-57.375
11
112.226
21
-57.375
0
LINE
8
BLACK
6
CONTINUOUS
10
111.375
20
-73.5241
11
111.375
21
-75.2259
0
LINE
8
BLACK
6
CONTINUOUS
10
110.524
20
-74.375
11
112.226
21
-74.375
0
LINE
8
BLACK
6
CONTINUOUS
10
122.375
20
-22.5241
11
122.375
21
-24.2259
0
LINE
8
BLACK
6
CONTINUOUS
10
121.524
20
-23.375
11
123.226
21
-23.375
0
LINE
8
BLACK
6
CONTINUOUS
10
122.375
20
-39.5241
11
122.375
21
-41.2259
0
LINE
8
BLACK
6
CONTINUOUS
10
121.524
20
-40.375
11
123.226
21
-40.375
0
LINE
8
BLACK
6
CONTINUOUS
10
122.375
20
-56.5241
11
122.375
21
-58.2259
0
LINE
8
BLACK
6
CONTINUOUS
10
121.524
20
-57.375
11
123.226
21
-57.375
0
LINE
8
BLACK
6
CONTINUOUS
10
122.375
20
-73.5241
11
122.375
21
-75.2259
0
LINE
8
BLACK
6
CONTINUOUS
10
121.524
20
-74.375
11
123.226
21
-74.375
0
LINE
8
BLACK
6
CONTINUOUS
10
128.375
20
-22.5241
11
128.375
21
-24.2259
0
LINE
8
BLACK
6
CONTINUOUS
10
127.524
20
-23.375
11
129.226
21
-23.375
0
LINE
8
BLACK
6
CONTINUOUS
10
128.375
20
-39.5241
11
128.375
21
-41.2259
0
LINE
8
BLACK
6
CONTINUOUS
10
127.524
20
-40.375
11
129.226
21
-40.375
0
LINE
8
BLACK
6
CONTINUOUS
10
128.375
20
-56.5241
11
128.375
21
-58.2259
0
LINE
8
BLACK
6
CONTINUOUS
10
127.524
20
-57.375
11
129.226
21
-57.375
0
LINE
8
BLACK
6
CONTINUOUS
10
128.375
20
-73.5241
11
128.375
21
-75.2259
0
LINE
8
BLACK
6
CONTINUOUS
10
127.524
20
-74.375
11
129.226
21
-74.375
0
LINE
8
BLACK
6
CONTINUOUS
10
139.375
20
-22.5241
11
139.375
21
-24.2259
0
LINE
8
BLACK
6
CONTINUOUS
10
138.524
20
-23.375
11
140.226
21
-23.375
0
LINE
8
BLACK
6
CONTINUOUS
10
139.375
20
-39.5241
11
139.375
21
-41.2259
0
LINE
8
BLACK
6
CONTINUOUS
10
138.524
20
-40.375
11
140.226
21
-40.375
0
LINE
8
BLACK
6
CONTINUOUS
10
139.375
20
-56.5241
11
139.375
21
-58.2259
0
LINE
8
BLACK
6
CONTINUOUS
10
138.524
20
-57.375
11
140.226
21
-57.375
0
LINE
8
BLACK
6
CONTINUOUS
10
139.375
20
-73.5241
11
139.375
21
-75.2259
0
LINE
8
BLACK
6
CONTINUOUS
10
138.524
20
-74.375
11
140.226
21
-74.375
0
LINE
8
BLACK
6
CONTINUOUS
10
92.1528
20
-32.6528
11
92.1528
21
-31.0972
0
LINE
8
BLACK
6
CONTINUOUS
10
92.1528
20
-31.0972
11
90.5971
21
-31.0972
0
LINE
8
BLACK
6
CONTINUOUS
10
90.5971
20
-31.0972
11
90.5971
21
-32.6528
0
LINE
8
BLACK
6
CONTINUOUS
10
90.5971
20
-32.6528
11
92.1528
21
-32.6528
0
LINE
8
BLACK
6
CONTINUOUS
10
92.1528
20
-66.6528
11
92.1528
21
-65.0971
0
LINE
8
BLACK
6
CONTINUOUS
10
92.1528
20
-65.0971
11
90.5971
21
-65.0971
0
LINE
8
BLACK
6
CONTINUOUS
10
90.5971
20
-65.0971
11
90.5971
21
-66.6528
0
LINE
8
BLACK
6
CONTINUOUS
10
90.5971
20
-66.6528
11
92.1528
21
-66.6528
0
LINE
8
BLACK
6
CONTINUOUS
10
126.153
20
-32.6528
11
126.153
21
-31.0972
0
LINE
8
BLACK
6
CONTINUOUS
10
126.153
20
-31.0972
11
124.597
21
-31.0972
0
LINE
8
BLACK
6
CONTINUOUS
10
124.597
20
-31.0972
11
124.597
21
-32.6528
0
LINE
8
BLACK
6
CONTINUOUS
10
124.597
20
-32.6528
11
126.153
21
-32.6528
0
LINE
8
BLACK
6
CONTINUOUS
10
126.153
20
-66.6528
11
126.153
21
-65.0971
0
LINE
8
BLACK
6
CONTINUOUS
10
126.153
20
-65.0971
11
124.597
21
-65.0971
0
LINE
8
BLACK
6
CONTINUOUS
10
124.597
20
-65.0971
11
124.597
21
-66.6528
0
LINE
8
BLACK
6
CONTINUOUS
10
124.597
20
-66.6528
11
126.153
21
-66.6528
0
LINE
8
BLACK
6
CONTINUOUS
10
82.875
20
-18.925
11
84.375
21
-17.425
0
LINE
8
BLACK
6
CONTINUOUS
10
84.375
20
-17.425
11
82.875
21
-15.925
0
LINE
8
BLACK
6
CONTINUOUS
10
82.875
20
-15.925
11
81.375
21
-17.425
0
LINE
8
BLACK
6
CONTINUOUS
10
81.375
20
-17.425
11
82.875
21
-18.925
0
LINE
8
BLACK
6
CONTINUOUS
10
82.875
20
-35.925
11
84.375
21
-34.425
0
LINE
8
BLACK
6
CONTINUOUS
10
84.375
20
-34.425
11
82.875
21
-32.925
0
LINE
8
BLACK
6
CONTINUOUS
10
82.875
20
-32.925
11
81.375
21
-34.425
0
LINE
8
BLACK
6
CONTINUOUS
10
81.375
20
-34.425
11
82.875
21
-35.925
0
LINE
8
BLACK
6
CONTINUOUS
10
82.875
20
-52.925
11
84.375
21
-51.425
0
LINE
8
BLACK
6
CONTINUOUS
10
84.375
20
-51.425
11
82.875
21
-49.925
0
LINE
8
BLACK
6
CONTINUOUS
10
82.875
20
-49.925
11
81.375
21
-51.425
0
LINE
8
BLACK
6
CONTINUOUS
10
81.375
20
-51.425
11
82.875
21
-52.925
0
LINE
8
BLACK
6
CONTINUOUS
10
82.875
20
-69.925
11
84.375
21
-68.425
0
LINE
8
BLACK
6
CONTINUOUS
10
84.375
20
-68.425
11
82.875
21
-66.925
0
LINE
8
BLACK
6
CONTINUOUS
10
82.875
20
-66.925
11
81.375
21
-68.425
0
LINE
8
BLACK
6
CONTINUOUS
10
81.375
20
-68.425
11
82.875
21
-69.925
0
LINE
8
BLACK
6
CONTINUOUS
10
87.875
20
-21.125
11
89.375
21
-19.625
0
LINE
8
BLACK
6
CONTINUOUS
10
89.375
20
-19.625
11
87.875
21
-18.125
0
LINE
8
BLACK
6
CONTINUOUS
10
87.875
20
-18.125
11
86.375
21
-19.625
0
LINE
8
BLACK
6
CONTINUOUS
10
86.375
20
-19.625
11
87.875
21
-21.125
0
LINE
8
BLACK
6
CONTINUOUS
10
87.875
20
-38.125
11
89.375
21
-36.625
0
LINE
8
BLACK
6
CONTINUOUS
10
89.375
20
-36.625
11
87.875
21
-35.125
0
LINE
8
BLACK
6
CONTINUOUS
10
87.875
20
-35.125
11
86.375
21
-36.625
0
LINE
8
BLACK
6
CONTINUOUS
10
86.375
20
-36.625
11
87.875
21
-38.125
0
LINE
8
BLACK
6
CONTINUOUS
10
87.875
20
-55.125
11
89.375
21
-53.625
0
LINE
8
BLACK
6
CONTINUOUS
10
89.375
20
-53.625
11
87.875
21
-52.125
0
LINE
8
BLACK
6
CONTINUOUS
10
87.875
20
-52.125
11
86.375
21
-53.625
0
LINE
8
BLACK
6
CONTINUOUS
10
86.375
20
-53.625
11
87.875
21
-55.125
0
LINE
8
BLACK
6
CONTINUOUS
10
87.875
20
-72.125
11
89.375
21
-70.625
0
LINE
8
BLACK
6
CONTINUOUS
10
89.375
20
-70.625
11
87.875
21
-69.125
0
LINE
8
BLACK
6
CONTINUOUS
10
87.875
20
-69.125
11
86.375
21
-70.625
0
LINE
8
BLACK
6
CONTINUOUS
10
86.375
20
-70.625
11
87.875
21
-72.125
0
LINE
8
BLACK
6
CONTINUOUS
10
94.875
20
-28.625
11
96.375
21
-27.125
0
LINE
8
BLACK
6
CONTINUOUS
10
96.375
20
-27.125
11
94.875
21
-25.625
0
LINE
8
BLACK
6
CONTINUOUS
10
94.875
20
-25.625
11
93.375
21
-27.125
0
LINE
8
BLACK
6
CONTINUOUS
10
93.375
20
-27.125
11
94.875
21
-28.625
0
LINE
8
BLACK
6
CONTINUOUS
10
94.875
20
-45.625
11
96.375
21
-44.125
0
LINE
8
BLACK
6
CONTINUOUS
10
96.375
20
-44.125
11
94.875
21
-42.625
0
LINE
8
BLACK
6
CONTINUOUS
10
94.875
20
-42.625
11
93.375
21
-44.125
0
LINE
8
BLACK
6
CONTINUOUS
10
93.375
20
-44.125
11
94.875
21
-45.625
0
LINE
8
BLACK
6
CONTINUOUS
10
94.875
20
-62.625
11
96.375
21
-61.125
0
LINE
8
BLACK
6
CONTINUOUS
10
96.375
20
-61.125
11
94.875
21
-59.625
0
LINE
8
BLACK
6
CONTINUOUS
10
94.875
20
-59.625
11
93.375
21
-61.125
0
LINE
8
BLACK
6
CONTINUOUS
10
93.375
20
-61.125
11
94.875
21
-62.625
0
LINE
8
BLACK
6
CONTINUOUS
10
94.875
20
-79.625
11
96.375
21
-78.125
0
LINE
8
BLACK
6
CONTINUOUS
10
96.375
20
-78.125
11
94.875
21
-76.625
0
LINE
8
BLACK
6
CONTINUOUS
10
94.875
20
-76.625
11
93.375
21
-78.125
0
LINE
8
BLACK
6
CONTINUOUS
10
93.375
20
-78.125
11
94.875
21
-79.625
0
LINE
8
BLACK
6
CONTINUOUS
10
99.875
20
-30.825
11
101.375
21
-29.325
0
LINE
8
BLACK
6
CONTINUOUS
10
101.375
20
-29.325
11
99.875
21
-27.825
0
LINE
8
BLACK
6
CONTINUOUS
10
99.875
20
-27.825
11
98.375
21
-29.325
0
LINE
8
BLACK
6
CONTINUOUS
10
98.375
20
-29.325
11
99.875
21
-30.825
0
LINE
8
BLACK
6
CONTINUOUS
10
99.875
20
-47.825
11
101.375
21
-46.325
0
LINE
8
BLACK
6
CONTINUOUS
10
101.375
20
-46.325
11
99.875
21
-44.825
0
LINE
8
BLACK
6
CONTINUOUS
10
99.875
20
-44.825
11
98.375
21
-46.325
0
LINE
8
BLACK
6
CONTINUOUS
10
98.375
20
-46.325
11
99.875
21
-47.825
0
LINE
8
BLACK
6
CONTINUOUS
10
99.875
20
-64.825
11
101.375
21
-63.325
0
LINE
8
BLACK
6
CONTINUOUS
10
101.375
20
-63.325
11
99.875
21
-61.825
0
LINE
8
BLACK
6
CONTINUOUS
10
99.875
20
-61.825
11
98.375
21
-63.325
0
LINE
8
BLACK
6
CONTINUOUS
10
98.375
20
-63.325
11
99.875
21
-64.825
0
LINE
8
BLACK
6
CONTINUOUS
10
99.875
20
-81.825
11
101.375
21
-80.325
0
LINE
8
BLACK
6
CONTINUOUS
10
101.375
20
-80.325
11
99.875
21
-78.825
0
LINE
8
BLACK
6
CONTINUOUS
10
99.875
20
-78.825
11
98.375
21
-80.325
0
LINE
8
BLACK
6
CONTINUOUS
10
98.375
20
-80.325
11
99.875
21
-81.825
0
LINE
8
BLACK
6
CONTINUOUS
10
111.875
20
-28.625
11
113.375
21
-27.125
0
LINE
8
BLACK
6
CONTINUOUS
10
113.375
20
-27.125
11
111.875
21
-25.625
0
LINE
8
BLACK
6
CONTINUOUS
10
111.875
20
-25.625
11
110.375
21
-27.125
0
LINE
8
BLACK
6
CONTINUOUS
10
110.375
20
-27.125
11
111.875
21
-28.625
0
LINE
8
BLACK
6
CONTINUOUS
10
111.875
20
-45.625
11
113.375
21
-44.125
0
LINE
8
BLACK
6
CONTINUOUS
10
113.375
20
-44.125
11
111.875
21
-42.625
0
LINE
8
BLACK
6
CONTINUOUS
10
111.875
20
-42.625
11
110.375
21
-44.125
0
LINE
8
BLACK
6
CONTINUOUS
10
110.375
20
-44.125
11
111.875
21
-45.625
0
LINE
8
BLACK
6
CONTINUOUS
10
111.875
20
-62.625
11
113.375
21
-61.125
0
LINE
8
BLACK
6
CONTINUOUS
10
113.375
20
-61.125
11
111.875
21
-59.625
0
LINE
8
BLACK
6
CONTINUOUS
10
111.875
20
-59.625
11
110.375
21
-61.125
0
LINE
8
BLACK
6
CONTINUOUS
10
110.375
20
-61.125
11
111.875
21
-62.625
0
LINE
8
BLACK
6
CONTINUOUS
10
111.875
20
-79.625
11
113.375
21
-78.125
0
LINE
8
BLACK
6
CONTINUOUS
10
113.375
20
-78.125
11
111.875
21
-76.625
0
LINE
8
BLACK
6
CONTINUOUS
10
111.875
20
-76.625
11
110.375
21
-78.125
0
LINE
8
BLACK
6
CONTINUOUS
10
110.375
20
-78.125
11
111.875
21
-79.625
0
LINE
8
BLACK
6
CONTINUOUS
10
116.875
20
-30.825
11
118.375
21
-29.325
0
LINE
8
BLACK
6
CONTINUOUS
10
118.375
20
-29.325
11
116.875
21
-27.825
0
LINE
8
BLACK
6
CONTINUOUS
10
116.875
20
-27.825
11
115.375
21
-29.325
0
LINE
8
BLACK
6
CONTINUOUS
10
115.375
20
-29.325
11
116.875
21
-30.825
0
LINE
8
BLACK
6
CONTINUOUS
10
116.875
20
-47.825
11
118.375
21
-46.325
0
LINE
8
BLACK
6
CONTINUOUS
10
118.375
20
-46.325
11
116.875
21
-44.825
0
LINE
8
BLACK
6
CONTINUOUS
10
116.875
20
-44.825
11
115.375
21
-46.325
0
LINE
8
BLACK
6
CONTINUOUS
10
115.375
20
-46.325
11
116.875
21
-47.825
0
LINE
8
BLACK
6
CONTINUOUS
10
116.875
20
-64.825
11
118.375
21
-63.325
0
LINE
8
BLACK
6
CONTINUOUS
10
118.375
20
-63.325
11
116.875
21
-61.825
0
LINE
8
BLACK
6
CONTINUOUS
10
116.875
20
-61.825
11
115.375
21
-63.325
0
LINE
8
BLACK
6
CONTINUOUS
10
115.375
20
-63.325
11
116.875
21
-64.825
0
LINE
8
BLACK
6
CONTINUOUS
10
116.875
20
-81.825
11
118.375
21
-80.325
0
LINE
8
BLACK
6
CONTINUOUS
10
118.375
20
-80.325
11
116.875
21
-78.825
0
LINE
8
BLACK
6
CONTINUOUS
10
116.875
20
-78.825
11
115.375
21
-80.325
0
LINE
8
BLACK
6
CONTINUOUS
10
115.375
20
-80.325
11
116.875
21
-81.825
0
LINE
8
BLACK
6
CONTINUOUS
10
128.875
20
-28.625
11
130.375
21
-27.125
0
LINE
8
BLACK
6
CONTINUOUS
10
130.375
20
-27.125
11
128.875
21
-25.625
0
LINE
8
BLACK
6
CONTINUOUS
10
128.875
20
-25.625
11
127.375
21
-27.125
0
LINE
8
BLACK
6
CONTINUOUS
10
127.375
20
-27.125
11
128.875
21
-28.625
0
LINE
8
BLACK
6
CONTINUOUS
10
128.875
20
-45.625
11
130.375
21
-44.125
0
LINE
8
BLACK
6
CONTINUOUS
10
130.375
20
-44.125
11
128.875
21
-42.625
0
LINE
8
BLACK
6
CONTINUOUS
10
128.875
20
-42.625
11
127.375
21
-44.125
0
LINE
8
BLACK
6
CONTINUOUS
10
127.375
20
-44.125
11
128.875
21
-45.625
0
LINE
8
BLACK
6
CONTINUOUS
10
128.875
20
-62.625
11
130.375
21
-61.125
0
LINE
8
BLACK
6
CONTINUOUS
10
130.375
20
-61.125
11
128.875
21
-59.625
0
LINE
8
BLACK
6
CONTINUOUS
10
128.875
20
-59.625
11
127.375
21
-61.125
0
LINE
8
BLACK
6
CONTINUOUS
10
127.375
20
-61.125
11
128.875
21
-62.625
0
LINE
8
BLACK
6
CONTINUOUS
10
128.875
20
-79.625
11
130.375
21
-78.125
0
LINE
8
BLACK
6
CONTINUOUS
10
130.375
20
-78.125
11
128.875
21
-76.625
0
LINE
8
BLACK
6
CONTINUOUS
10
128.875
20
-76.625
11
127.375
21
-78.125
0
LINE
8
BLACK
6
CONTINUOUS
10
127.375
20
-78.125
11
128.875
21
-79.625
0
LINE
8
BLACK
6
CONTINUOUS
10
133.875
20
-30.825
11
135.375
21
-29.325
0
LINE
8
BLACK
6
CONTINUOUS
10
135.375
20
-29.325
11
133.875
21
-27.825
0
LINE
8
BLACK
6
CONTINUOUS
10
133.875
20
-27.825
11
132.375
21
-29.325
0
LINE
8
BLACK
6
CONTINUOUS
10
132.375
20
-29.325
11
133.875
21
-30.825
0
LINE
8
BLACK
6
CONTINUOUS
10
133.875
20
-47.825
11
135.375
21
-46.325
0
LINE
8
BLACK
6
CONTINUOUS
10
135.375
20
-46.325
11
133.875
21
-44.825
0
LINE
8
BLACK
6
CONTINUOUS
10
133.875
20
-44.825
11
132.375
21
-46.325
0
LINE
8
BLACK
6
CONTINUOUS
10
132.375
20
-46.325
11
133.875
21
-47.825
0
LINE
8
BLACK
6
CONTINUOUS
10
133.875
20
-64.825
11
135.375
21
-63.325
0
LINE
8
BLACK
6
CONTINUOUS
10
135.375
20
-63.325
11
133.875
21
-61.825
0
LINE
8
BLACK
6
CONTINUOUS
10
133.875
20
-61.825
11
132.375
21
-63.325
0
LINE
8
BLACK
6
CONTINUOUS
10
132.375
20
-63.325
11
133.875
21
-64.825
0
LINE
8
BLACK
6
CONTINUOUS
10
133.875
20
-81.825
11
135.375
21
-80.325
0
LINE
8
BLACK
6
CONTINUOUS
10
135.375
20
-80.325
11
133.875
21
-78.825
0
LINE
8
BLACK
6
CONTINUOUS
10
133.875
20
-78.825
11
132.375
21
-80.325
0
LINE
8
BLACK
6
CONTINUOUS
10
132.375
20
-80.325
11
133.875
21
-81.825
0
LINE
8
BLACK
6
CONTINUOUS
10
81.1605
20
-21.6605
11
84.5895
21
-25.0895
0
LINE
8
BLACK
6
CONTINUOUS
10
84.5895
20
-21.6605
11
81.1605
21
-25.0895
0
CIRCLE
8
BLACK
10
82.875
20
-23.375
40
1.7145
0
LINE
8
BLACK
6
CONTINUOUS
10
81.1605
20
-38.6605
11
84.5895
21
-42.0895
0
LINE
8
BLACK
6
CONTINUOUS
10
84.5895
20
-38.6605
11
81.1605
21
-42.0895
0
CIRCLE
8
BLACK
10
82.875
20
-40.375
40
1.7145
0
LINE
8
BLACK
6
CONTINUOUS
10
81.1605
20
-55.6605
11
84.5895
21
-59.0895
0
LINE
8
BLACK
6
CONTINUOUS
10
84.5895
20
-55.6605
11
81.1605
21
-59.0895
0
CIRCLE
8
BLACK
10
82.875
20
-57.375
40
1.7145
0
LINE
8
BLACK
6
CONTINUOUS
10
81.1605
20
-72.6605
11
84.5895
21
-76.0895
0
LINE
8
BLACK
6
CONTINUOUS
10
84.5895
20
-72.6605
11
81.1605
21
-76.0895
0
CIRCLE
8
BLACK
10
82.875
20
-74.375
40
1.7145
0
LINE
8
BLACK
6
CONTINUOUS
10
98.1605
20
-21.6605
11
101.589
21
-25.0895
0
LINE
8
BLACK
6
CONTINUOUS
10
101.589
20
-21.6605
11
98.1605
21
-25.0895
0
CIRCLE
8
BLACK
10
99.875
20
-23.375
40
1.7145
0
LINE
8
BLACK
6
CONTINUOUS
10
98.1605
20
-38.6605
11
101.589
21
-42.0895
0
LINE
8
BLACK
6
CONTINUOUS
10
101.589
20
-38.6605
11
98.1605
21
-42.0895
0
CIRCLE
8
BLACK
10
99.875
20
-40.375
40
1.7145
0
LINE
8
BLACK
6
CONTINUOUS
10
98.1605
20
-55.6605
11
101.589
21
-59.0895
0
LINE
8
BLACK
6
CONTINUOUS
10
101.589
20
-55.6605
11
98.1605
21
-59.0895
0
CIRCLE
8
BLACK
10
99.875
20
-57.375
40
1.7145
0
LINE
8
BLACK
6
CONTINUOUS
10
98.1605
20
-72.6605
11
101.589
21
-76.0895
0
LINE
8
BLACK
6
CONTINUOUS
10
101.589
20
-72.6605
11
98.1605
21
-76.0895
0
CIRCLE
8
BLACK
10
99.875
20
-74.375
40
1.7145
0
LINE
8
BLACK
6
CONTINUOUS
10
115.16
20
-21.6605
11
118.589
21
-25.0895
0
LINE
8
BLACK
6
CONTINUOUS
10
118.589
20
-21.6605
11
115.16
21
-25.0895
0
CIRCLE
8
BLACK
10
116.875
20
-23.375
40
1.7145
0
LINE
8
BLACK
6
CONTINUOUS
10
115.16
20
-38.6605
11
118.589
21
-42.0895
0
LINE
8
BLACK
6
CONTINUOUS
10
118.589
20
-38.6605
11
115.16
21
-42.0895
0
CIRCLE
8
BLACK
10
116.875
20
-40.375
40
1.7145
0
LINE
8
BLACK
6
CONTINUOUS
10
115.16
20
-55.6605
11
118.589
21
-59.0895
0
LINE
8
BLACK
6
CONTINUOUS
10
118.589
20
-55.6605
11
115.16
21
-59.0895
0
CIRCLE
8
BLACK
10
116.875
20
-57.375
40
1.7145
0
LINE
8
BLACK
6
CONTINUOUS
10
115.16
20
-72.6605
11
118.589
21
-76.0895
0
LINE
8
BLACK
6
CONTINUOUS
10
118.589
20
-72.6605
11
115.16
21
-76.0895
0
CIRCLE
8
BLACK
10
116.875
20
-74.375
40
1.7145
0
LINE
8
BLACK
6
CONTINUOUS
10
132.16
20
-21.6605
11
135.589
21
-25.0895
0
LINE
8
BLACK
6
CONTINUOUS
10
135.589
20
-21.6605
11
132.16
21
-25.0895
0
CIRCLE
8
BLACK
10
133.875
20
-23.375
40
1.7145
0
LINE
8
BLACK
6
CONTINUOUS
10
132.16
20
-38.6605
11
135.589
21
-42.0895
0
LINE
8
BLACK
6
CONTINUOUS
10
135.589
20
-38.6605
11
132.16
21
-42.0895
0
CIRCLE
8
BLACK
10
133.875
20
-40.375
40
1.7145
0
LINE
8
BLACK
6
CONTINUOUS
10
132.16
20
-55.6605
11
135.589
21
-59.0895
0
LINE
8
BLACK
6
CONTINUOUS
10
135.589
20
-55.6605
11
132.16
21
-59.0895
0
CIRCLE
8
BLACK
10
133.875
20
-57.375
40
1.7145
0
LINE
8
BLACK
6
CONTINUOUS
10
132.16
20
-72.6605
11
135.589
21
-76.0895
0
LINE
8
BLACK
6
CONTINUOUS
10
135.589
20
-72.6605
11
132.16
21
-76.0895
0
CIRCLE
8
BLACK
10
133.875
20
-74.375
40
1.7145
0
LINE
8
BLACK
6
CONTINUOUS
10
76.9012
20
-86.0297
11
76.9012
21
-84.0297
0
LINE
8
BLACK
6
CONTINUOUS
10
76.9012
20
-84.0297
11
77.3773
21
-84.0297
0
LINE
8
BLACK
6
CONTINUOUS
10
77.3773
20
-84.0297
11
77.6631
21
-84.125
0
LINE
8
BLACK
6
CONTINUOUS
10
77.6631
20
-84.125
11
77.8535
21
-84.3154
0
LINE
8
BLACK
6
CONTINUOUS
10
77.8535
20
-84.3154
11
77.9488
21
-84.5059
0
LINE
8
BLACK
6
CONTINUOUS
10
77.9488
20
-84.5059
11
78.044
21
-84.8869
0
LINE
8
BLACK
6
CONTINUOUS
10
78.044
20
-84.8869
11
78.044
21
-85.1726
0
LINE
8
BLACK
6
CONTINUOUS
10
78.044
20
-85.1726
11
77.9488
21
-85.5535
0
LINE
8
BLACK
6
CONTINUOUS
10
77.9488
20
-85.5535
11
77.8535
21
-85.744
0
LINE
8
BLACK
6
CONTINUOUS
10
77.8535
20
-85.744
11
77.6631
21
-85.9345
0
LINE
8
BLACK
6
CONTINUOUS
10
77.6631
20
-85.9345
11
77.3773
21
-86.0297
0
LINE
8
BLACK
6
CONTINUOUS
10
77.3773
20
-86.0297
11
76.9012
21
-86.0297
0
LINE
8
BLACK
6
CONTINUOUS
10
78.9012
20
-86.0297
11
78.9012
21
-84.6964
0
LINE
8
BLACK
6
CONTINUOUS
10
78.9012
20
-85.0773
11
78.9964
21
-84.8869
0
LINE
8
BLACK
6
CONTINUOUS
10
78.9964
20
-84.8869
11
79.0916
21
-84.7916
0
LINE
8
BLACK
6
CONTINUOUS
10
79.0916
20
-84.7916
11
79.2821
21
-84.6964
0
LINE
8
BLACK
6
CONTINUOUS
10
79.2821
20
-84.6964
11
79.4726
21
-84.6964
0
LINE
8
BLACK
6
CONTINUOUS
10
80.1392
20
-86.0297
11
80.1392
21
-84.6964
0
LINE
8
BLACK
6
CONTINUOUS
10
80.1392
20
-84.0297
11
80.044
21
-84.125
0
LINE
8
BLACK
6
CONTINUOUS
10
80.044
20
-84.125
11
80.1392
21
-84.2202
0
LINE
8
BLACK
6
CONTINUOUS
10
80.1392
20
-84.2202
11
80.2345
21
-84.125
0
LINE
8
BLACK
6
CONTINUOUS
10
80.2345
20
-84.125
11
80.1392
21
-84.0297
0
LINE
8
BLACK
6
CONTINUOUS
10
80.1392
20
-84.0297
11
80.1392
21
-84.2202
0
LINE
8
BLACK
6
CONTINUOUS
10
81.3773
20
-86.0297
11
81.1869
21
-85.9345
0
LINE
8
BLACK
6
CONTINUOUS
10
81.1869
20
-85.9345
11
81.0916
21
-85.744
0
LINE
8
BLACK
6
CONTINUOUS
10
81.0916
20
-85.744
11
81.0916
21
-84.0297
0
LINE
8
BLACK
6
CONTINUOUS
10
82.425
20
-86.0297
11
82.2345
21
-85.9345
0
LINE
8
BLACK
6
CONTINUOUS
10
82.2345
20
-85.9345
11
82.1392
21
-85.744
0
LINE
8
BLACK
6
CONTINUOUS
10
82.1392
20
-85.744
11
82.1392
21
-84.0297
0
LINE
8
BLACK
6
CONTINUOUS
10
84.7107
20
-86.0297
11
84.7107
21
-84.0297
0
LINE
8
BLACK
6
CONTINUOUS
10
84.7107
20
-84.0297
11
85.3773
21
-85.4583
0
LINE
8
BLACK
6
CONTINUOUS
10
85.3773
20
-85.4583
11
86.044
21
-84.0297
0
LINE
8
BLACK
6
CONTINUOUS
10
86.044
20
-84.0297
11
86.044
21
-86.0297
0
LINE
8
BLACK
6
CONTINUOUS
10
87.8535
20
-86.0297
11
87.8535
21
-84.9821
0
LINE
8
BLACK
6
CONTINUOUS
10
87.8535
20
-84.9821
11
87.7583
21
-84.7916
0
LINE
8
BLACK
6
CONTINUOUS
10
87.7583
20
-84.7916
11
87.5678
21
-84.6964
0
LINE
8
BLACK
6
CONTINUOUS
10
87.5678
20
-84.6964
11
87.1869
21
-84.6964
0
LINE
8
BLACK
6
CONTINUOUS
10
87.1869
20
-84.6964
11
86.9964
21
-84.7916
0
LINE
8
BLACK
6
CONTINUOUS
10
87.8535
20
-85.9345
11
87.6631
21
-86.0297
0
LINE
8
BLACK
6
CONTINUOUS
10
87.6631
20
-86.0297
11
87.1869
21
-86.0297
0
LINE
8
BLACK
6
CONTINUOUS
10
87.1869
20
-86.0297
11
86.9964
21
-85.9345
0
LINE
8
BLACK
6
CONTINUOUS
10
86.9964
20
-85.9345
11
86.9012
21
-85.744
0
LINE
8
BLACK
6
CONTINUOUS
10
86.9012
20
-85.744
11
86.9012
21
-85.5535
0
LINE
8
BLACK
6
CONTINUOUS
10
86.9012
20
-85.5535
11
86.9964
21
-85.3631
0
LINE
8
BLACK
6
CONTINUOUS
10
86.9964
20
-85.3631
11
87.1869
21
-85.2678
0
LINE
8
BLACK
6
CONTINUOUS
10
87.1869
20
-85.2678
11
87.6631
21
-85.2678
0
LINE
8
BLACK
6
CONTINUOUS
10
87.6631
20
-85.2678
11
87.8535
21
-85.1726
0
LINE
8
BLACK
6
CONTINUOUS
10
88.8059
20
-84.6964
11
88.8059
21
-86.6964
0
LINE
8
BLACK
6
CONTINUOUS
10
88.8059
20
-84.7916
11
88.9964
21
-84.6964
0
LINE
8
BLACK
6
CONTINUOUS
10
88.9964
20
-84.6964
11
89.3773
21
-84.6964
0
LINE
8
BLACK
6
CONTINUOUS
10
89.3773
20
-84.6964
11
89.5678
21
-84.7916
0
LINE
8
BLACK
6
CONTINUOUS
10
89.5678
20
-84.7916
11
89.6631
21
-84.8869
0
LINE
8
BLACK
6
CONTINUOUS
10
89.6631
20
-84.8869
11
89.7583
21
-85.0773
0
LINE
8
BLACK
6
CONTINUOUS
10
89.7583
20
-85.0773
11
89.7583
21
-85.6488
0
LINE
8
BLACK
6
CONTINUOUS
10
89.7583
20
-85.6488
11
89.6631
21
-85.8392
0
LINE
8
BLACK
6
CONTINUOUS
10
89.6631
20
-85.8392
11
89.5678
21
-85.9345
0
LINE
8
BLACK
6
CONTINUOUS
10
89.5678
20
-85.9345
11
89.3773
21
-86.0297
0
LINE
8
BLACK
6
CONTINUOUS
10
89.3773
20
-86.0297
11
88.9964
21
-86.0297
0
LINE
8
BLACK
6
CONTINUOUS
10
88.9964
20
-86.0297
11
88.8059
21
-85.9345
0
LINE
8
BLACK
6
CONTINUOUS
10
90.6154
20
-85.8392
11
90.7107
21
-85.9345
0
LINE
8
BLACK
6
CONTINUOUS
10
90.7107
20
-85.9345
11
90.6154
21
-86.0297
0
LINE
8
BLACK
6
CONTINUOUS
10
90.6154
20
-86.0297
11
90.5202
21
-85.9345
0
LINE
8
BLACK
6
CONTINUOUS
10
90.5202
20
-85.9345
11
90.6154
21
-85.8392
0
LINE
8
BLACK
6
CONTINUOUS
10
90.6154
20
-85.8392
11
90.6154
21
-86.0297
0
LINE
8
BLACK
6
CONTINUOUS
10
90.6154
20
-84.7916
11
90.7107
21
-84.8869
0
LINE
8
BLACK
6
CONTINUOUS
10
90.7107
20
-84.8869
11
90.6154
21
-84.9821
0
LINE
8
BLACK
6
CONTINUOUS
10
90.6154
20
-84.9821
11
90.5202
21
-84.8869
0
LINE
8
BLACK
6
CONTINUOUS
10
90.5202
20
-84.8869
11
90.6154
21
-84.7916
0
LINE
8
BLACK
6
CONTINUOUS
10
90.6154
20
-84.7916
11
90.6154
21
-84.9821
0
LINE
8
BLACK
6
CONTINUOUS
10
73.675
20
-89
11
74.325
21
-89.65
0
LINE
8
BLACK
6
CONTINUOUS
10
74.325
20
-89
11
73.675
21
-89.65
0
LINE
8
BLACK
6
CONTINUOUS
10
77.2821
20
-88.2297
11
77.4726
21
-88.2297
0
LINE
8
BLACK
6
CONTINUOUS
10
77.4726
20
-88.2297
11
77.6631
21
-88.325
0
LINE
8
BLACK
6
CONTINUOUS
10
77.6631
20
-88.325
11
77.7583
21
-88.4202
0
LINE
8
BLACK
6
CONTINUOUS
10
77.7583
20
-88.4202
11
77.8535
21
-88.6107
0
LINE
8
BLACK
6
CONTINUOUS
10
77.8535
20
-88.6107
11
77.9488
21
-88.9916
0
LINE
8
BLACK
6
CONTINUOUS
10
77.9488
20
-88.9916
11
77.9488
21
-89.4678
0
LINE
8
BLACK
6
CONTINUOUS
10
77.9488
20
-89.4678
11
77.8535
21
-89.8488
0
LINE
8
BLACK
6
CONTINUOUS
10
77.8535
20
-89.8488
11
77.7583
21
-90.0392
0
LINE
8
BLACK
6
CONTINUOUS
10
77.7583
20
-90.0392
11
77.6631
21
-90.1345
0
LINE
8
BLACK
6
CONTINUOUS
10
77.6631
20
-90.1345
11
77.4726
21
-90.2297
0
LINE
8
BLACK
6
CONTINUOUS
10
77.4726
20
-90.2297
11
77.2821
21
-90.2297
0
LINE
8
BLACK
6
CONTINUOUS
10
77.2821
20
-90.2297
11
77.0916
21
-90.1345
0
LINE
8
BLACK
6
CONTINUOUS
10
77.0916
20
-90.1345
11
76.9964
21
-90.0392
0
LINE
8
BLACK
6
CONTINUOUS
10
76.9964
20
-90.0392
11
76.9012
21
-89.8488
0
LINE
8
BLACK
6
CONTINUOUS
10
76.9012
20
-89.8488
11
76.8059
21
-89.4678
0
LINE
8
BLACK
6
CONTINUOUS
10
76.8059
20
-89.4678
11
76.8059
21
-88.9916
0
LINE
8
BLACK
6
CONTINUOUS
10
76.8059
20
-88.9916
11
76.9012
21
-88.6107
0
LINE
8
BLACK
6
CONTINUOUS
10
76.9012
20
-88.6107
11
76.9964
21
-88.4202
0
LINE
8
BLACK
6
CONTINUOUS
10
76.9964
20
-88.4202
11
77.0916
21
-88.325
0
LINE
8
BLACK
6
CONTINUOUS
10
77.0916
20
-88.325
11
77.2821
21
-88.2297
0
LINE
8
BLACK
6
CONTINUOUS
10
78.8059
20
-90.0392
11
78.9012
21
-90.1345
0
LINE
8
BLACK
6
CONTINUOUS
10
78.9012
20
-90.1345
11
78.8059
21
-90.2297
0
LINE
8
BLACK
6
CONTINUOUS
10
78.8059
20
-90.2297
11
78.7107
21
-90.1345
0
LINE
8
BLACK
6
CONTINUOUS
10
78.7107
20
-90.1345
11
78.8059
21
-90.0392
0
LINE
8
BLACK
6
CONTINUOUS
10
78.8059
20
-90.0392
11
78.8059
21
-90.2297
0
LINE
8
BLACK
6
CONTINUOUS
10
80.6154
20
-88.2297
11
80.2345
21
-88.2297
0
LINE
8
BLACK
6
CONTINUOUS
10
80.2345
20
-88.2297
11
80.044
21
-88.325
0
LINE
8
BLACK
6
CONTINUOUS
10
80.044
20
-88.325
11
79.9488
21
-88.4202
0
LINE
8
BLACK
6
CONTINUOUS
10
79.9488
20
-88.4202
11
79.7583
21
-88.7059
0
LINE
8
BLACK
6
CONTINUOUS
10
79.7583
20
-88.7059
11
79.6631
21
-89.0869
0
LINE
8
BLACK
6
CONTINUOUS
10
79.6631
20
-89.0869
11
79.6631
21
-89.8488
0
LINE
8
BLACK
6
CONTINUOUS
10
79.6631
20
-89.8488
11
79.7583
21
-90.0392
0
LINE
8
BLACK
6
CONTINUOUS
10
79.7583
20
-90.0392
11
79.8535
21
-90.1345
0
LINE
8
BLACK
6
CONTINUOUS
10
79.8535
20
-90.1345
11
80.044
21
-90.2297
0
LINE
8
BLACK
6
CONTINUOUS
10
80.044
20
-90.2297
11
80.425
21
-90.2297
0
LINE
8
BLACK
6
CONTINUOUS
10
80.425
20
-90.2297
11
80.6154
21
-90.1345
0
LINE
8
BLACK
6
CONTINUOUS
10
80.6154
20
-90.1345
11
80.7107
21
-90.0392
0
LINE
8
BLACK
6
CONTINUOUS
10
80.7107
20
-90.0392
11
80.8059
21
-89.8488
0
LINE
8
BLACK
6
CONTINUOUS
10
80.8059
20
-89.8488
11
80.8059
21
-89.3726
0
LINE
8
BLACK
6
CONTINUOUS
10
80.8059
20
-89.3726
11
80.7107
21
-89.1821
0
LINE
8
BLACK
6
CONTINUOUS
10
80.7107
20
-89.1821
11
80.6154
21
-89.0869
0
LINE
8
BLACK
6
CONTINUOUS
10
80.6154
20
-89.0869
11
80.425
21
-88.9916
0
LINE
8
BLACK
6
CONTINUOUS
10
80.425
20
-88.9916
11
80.044
21
-88.9916
0
LINE
8
BLACK
6
CONTINUOUS
10
80.044
20
-88.9916
11
79.8535
21
-89.0869
0
LINE
8
BLACK
6
CONTINUOUS
10
79.8535
20
-89.0869
11
79.7583
21
-89.1821
0
LINE
8
BLACK
6
CONTINUOUS
10
79.7583
20
-89.1821
11
79.6631
21
-89.3726
0
LINE
8
BLACK
6
CONTINUOUS
10
82.6154
20
-88.2297
11
81.6631
21
-88.2297
0
LINE
8
BLACK
6
CONTINUOUS
10
81.6631
20
-88.2297
11
81.5678
21
-89.1821
0
LINE
8
BLACK
6
CONTINUOUS
10
81.5678
20
-89.1821
11
81.6631
21
-89.0869
0
LINE
8
BLACK
6
CONTINUOUS
10
81.6631
20
-89.0869
11
81.8535
21
-88.9916
0
LINE
8
BLACK
6
CONTINUOUS
10
81.8535
20
-88.9916
11
82.3297
21
-88.9916
0
LINE
8
BLACK
6
CONTINUOUS
10
82.3297
20
-88.9916
11
82.5202
21
-89.0869
0
LINE
8
BLACK
6
CONTINUOUS
10
82.5202
20
-89.0869
11
82.6154
21
-89.1821
0
LINE
8
BLACK
6
CONTINUOUS
10
82.6154
20
-89.1821
11
82.7107
21
-89.3726
0
LINE
8
BLACK
6
CONTINUOUS
10
82.7107
20
-89.3726
11
82.7107
21
-89.8488
0
LINE
8
BLACK
6
CONTINUOUS
10
82.7107
20
-89.8488
11
82.6154
21
-90.0392
0
LINE
8
BLACK
6
CONTINUOUS
10
82.6154
20
-90.0392
11
82.5202
21
-90.1345
0
LINE
8
BLACK
6
CONTINUOUS
10
82.5202
20
-90.1345
11
82.3297
21
-90.2297
0
LINE
8
BLACK
6
CONTINUOUS
10
82.3297
20
-90.2297
11
81.8535
21
-90.2297
0
LINE
8
BLACK
6
CONTINUOUS
10
81.8535
20
-90.2297
11
81.6631
21
-90.1345
0
LINE
8
BLACK
6
CONTINUOUS
10
81.6631
20
-90.1345
11
81.5678
21
-90.0392
0
LINE
8
BLACK
6
CONTINUOUS
10
83.9488
20
-88.2297
11
84.1392
21
-88.2297
0
LINE
8
BLACK
6
CONTINUOUS
10
84.1392
20
-88.2297
11
84.3297
21
-88.325
0
LINE
8
BLACK
6
CONTINUOUS
10
84.3297
20
-88.325
11
84.425
21
-88.4202
0
LINE
8
BLACK
6
CONTINUOUS
10
84.425
20
-88.4202
11
84.5202
21
-88.6107
0
LINE
8
BLACK
6
CONTINUOUS
10
84.5202
20
-88.6107
11
84.6154
21
-88.9916
0
LINE
8
BLACK
6
CONTINUOUS
10
84.6154
20
-88.9916
11
84.6154
21
-89.4678
0
LINE
8
BLACK
6
CONTINUOUS
10
84.6154
20
-89.4678
11
84.5202
21
-89.8488
0
LINE
8
BLACK
6
CONTINUOUS
10
84.5202
20
-89.8488
11
84.425
21
-90.0392
0
LINE
8
BLACK
6
CONTINUOUS
10
84.425
20
-90.0392
11
84.3297
21
-90.1345
0
LINE
8
BLACK
6
CONTINUOUS
10
84.3297
20
-90.1345
11
84.1392
21
-90.2297
0
LINE
8
BLACK
6
CONTINUOUS
10
84.1392
20
-90.2297
11
83.9488
21
-90.2297
0
LINE
8
BLACK
6
CONTINUOUS
10
83.9488
20
-90.2297
11
83.7583
21
-90.1345
0
LINE
8
BLACK
6
CONTINUOUS
10
83.7583
20
-90.1345
11
83.6631
21
-90.0392
0
LINE
8
BLACK
6
CONTINUOUS
10
83.6631
20
-90.0392
11
83.5678
21
-89.8488
0
LINE
8
BLACK
6
CONTINUOUS
10
83.5678
20
-89.8488
11
83.4726
21
-89.4678
0
LINE
8
BLACK
6
CONTINUOUS
10
83.4726
20
-89.4678
11
83.4726
21
-88.9916
0
LINE
8
BLACK
6
CONTINUOUS
10
83.4726
20
-88.9916
11
83.5678
21
-88.6107
0
LINE
8
BLACK
6
CONTINUOUS
10
83.5678
20
-88.6107
11
83.6631
21
-88.4202
0
LINE
8
BLACK
6
CONTINUOUS
10
83.6631
20
-88.4202
11
83.7583
21
-88.325
0
LINE
8
BLACK
6
CONTINUOUS
10
83.7583
20
-88.325
11
83.9488
21
-88.2297
0
LINE
8
BLACK
6
CONTINUOUS
10
85.4726
20
-90.2297
11
85.4726
21
-88.8964
0
LINE
8
BLACK
6
CONTINUOUS
10
85.4726
20
-89.0869
11
85.5678
21
-88.9916
0
LINE
8
BLACK
6
CONTINUOUS
10
85.5678
20
-88.9916
11
85.7583
21
-88.8964
0
LINE
8
BLACK
6
CONTINUOUS
10
85.7583
20
-88.8964
11
86.044
21
-88.8964
0
LINE
8
BLACK
6
CONTINUOUS
10
86.044
20
-88.8964
11
86.2345
21
-88.9916
0
LINE
8
BLACK
6
CONTINUOUS
10
86.2345
20
-88.9916
11
86.3297
21
-89.1821
0
LINE
8
BLACK
6
CONTINUOUS
10
86.3297
20
-89.1821
11
86.3297
21
-90.2297
0
LINE
8
BLACK
6
CONTINUOUS
10
86.3297
20
-89.1821
11
86.425
21
-88.9916
0
LINE
8
BLACK
6
CONTINUOUS
10
86.425
20
-88.9916
11
86.6154
21
-88.8964
0
LINE
8
BLACK
6
CONTINUOUS
10
86.6154
20
-88.8964
11
86.9012
21
-88.8964
0
LINE
8
BLACK
6
CONTINUOUS
10
86.9012
20
-88.8964
11
87.0916
21
-88.9916
0
LINE
8
BLACK
6
CONTINUOUS
10
87.0916
20
-88.9916
11
87.1869
21
-89.1821
0
LINE
8
BLACK
6
CONTINUOUS
10
87.1869
20
-89.1821
11
87.1869
21
-90.2297
0
LINE
8
BLACK
6
CONTINUOUS
10
88.1392
20
-90.2297
11
88.1392
21
-88.8964
0
LINE
8
BLACK
6
CONTINUOUS
10
88.1392
20
-89.0869
11
88.2345
21
-88.9916
0
LINE
8
BLACK
6
CONTINUOUS
10
88.2345
20
-88.9916
11
88.425
21
-88.8964
0
LINE
8
BLACK
6
CONTINUOUS
10
88.425
20
-88.8964
11
88.7107
21
-88.8964
0
LINE
8
BLACK
6
CONTINUOUS
10
88.7107
20
-88.8964
11
88.9012
21
-88.9916
0
LINE
8
BLACK
6
CONTINUOUS
10
88.9012
20
-88.9916
11
88.9964
21
-89.1821
0
LINE
8
BLACK
6
CONTINUOUS
10
88.9964
20
-89.1821
11
88.9964
21
-90.2297
0
LINE
8
BLACK
6
CONTINUOUS
10
88.9964
20
-89.1821
11
89.0916
21
-88.9916
0
LINE
8
BLACK
6
CONTINUOUS
10
89.0916
20
-88.9916
11
89.2821
21
-88.8964
0
LINE
8
BLACK
6
CONTINUOUS
10
89.2821
20
-88.8964
11
89.5678
21
-88.8964
0
LINE
8
BLACK
6
CONTINUOUS
10
89.5678
20
-88.8964
11
89.7583
21
-88.9916
0
LINE
8
BLACK
6
CONTINUOUS
10
89.7583
20
-88.9916
11
89.8535
21
-89.1821
0
LINE
8
BLACK
6
CONTINUOUS
10
89.8535
20
-89.1821
11
89.8535
21
-90.2297
0
LINE
8
BLACK
6
CONTINUOUS
10
93.7583
20
-88.1345
11
92.044
21
-90.7059
0
LINE
8
BLACK
6
CONTINUOUS
10
96.3297
20
-88.2297
11
96.5202
21
-88.2297
0
LINE
8
BLACK
6
CONTINUOUS
10
96.5202
20
-88.2297
11
96.7107
21
-88.325
0
LINE
8
BLACK
6
CONTINUOUS
10
96.7107
20
-88.325
11
96.8059
21
-88.4202
0
LINE
8
BLACK
6
CONTINUOUS
10
96.8059
20
-88.4202
11
96.9012
21
-88.6107
0
LINE
8
BLACK
6
CONTINUOUS
10
96.9012
20
-88.6107
11
96.9964
21
-88.9916
0
LINE
8
BLACK
6
CONTINUOUS
10
96.9964
20
-88.9916
11
96.9964
21
-89.4678
0
LINE
8
BLACK
6
CONTINUOUS
10
96.9964
20
-89.4678
11
96.9012
21
-89.8488
0
LINE
8
BLACK
6
CONTINUOUS
10
96.9012
20
-89.8488
11
96.8059
21
-90.0392
0
LINE
8
BLACK
6
CONTINUOUS
10
96.8059
20
-90.0392
11
96.7107
21
-90.1345
0
LINE
8
BLACK
6
CONTINUOUS
10
96.7107
20
-90.1345
11
96.5202
21
-90.2297
0
LINE
8
BLACK
6
CONTINUOUS
10
96.5202
20
-90.2297
11
96.3297
21
-90.2297
0
LINE
8
BLACK
6
CONTINUOUS
10
96.3297
20
-90.2297
11
96.1392
21
-90.1345
0
LINE
8
BLACK
6
CONTINUOUS
10
96.1392
20
-90.1345
11
96.044
21
-90.0392
0
LINE
8
BLACK
6
CONTINUOUS
10
96.044
20
-90.0392
11
95.9488
21
-89.8488
0
LINE
8
BLACK
6
CONTINUOUS
10
95.9488
20
-89.8488
11
95.8535
21
-89.4678
0
LINE
8
BLACK
6
CONTINUOUS
10
95.8535
20
-89.4678
11
95.8535
21
-88.9916
0
LINE
8
BLACK
6
CONTINUOUS
10
95.8535
20
-88.9916
11
95.9488
21
-88.6107
0
LINE
8
BLACK
6
CONTINUOUS
10
95.9488
20
-88.6107
11
96.044
21
-88.4202
0
LINE
8
BLACK
6
CONTINUOUS
10
96.044
20
-88.4202
11
96.1392
21
-88.325
0
LINE
8
BLACK
6
CONTINUOUS
10
96.1392
20
-88.325
11
96.3297
21
-88.2297
0
LINE
8
BLACK
6
CONTINUOUS
10
97.8535
20
-90.0392
11
97.9488
21
-90.1345
0
LINE
8
BLACK
6
CONTINUOUS
10
97.9488
20
-90.1345
11
97.8535
21
-90.2297
0
LINE
8
BLACK
6
CONTINUOUS
10
97.8535
20
-90.2297
11
97.7583
21
-90.1345
0
LINE
8
BLACK
6
CONTINUOUS
10
97.7583
20
-90.1345
11
97.8535
21
-90.0392
0
LINE
8
BLACK
6
CONTINUOUS
10
97.8535
20
-90.0392
11
97.8535
21
-90.2297
0
LINE
8
BLACK
6
CONTINUOUS
10
99.1869
20
-88.2297
11
99.3773
21
-88.2297
0
LINE
8
BLACK
6
CONTINUOUS
10
99.3773
20
-88.2297
11
99.5678
21
-88.325
0
LINE
8
BLACK
6
CONTINUOUS
10
99.5678
20
-88.325
11
99.6631
21
-88.4202
0
LINE
8
BLACK
6
CONTINUOUS
10
99.6631
20
-88.4202
11
99.7583
21
-88.6107
0
LINE
8
BLACK
6
CONTINUOUS
10
99.7583
20
-88.6107
11
99.8535
21
-88.9916
0
LINE
8
BLACK
6
CONTINUOUS
10
99.8535
20
-88.9916
11
99.8535
21
-89.4678
0
LINE
8
BLACK
6
CONTINUOUS
10
99.8535
20
-89.4678
11
99.7583
21
-89.8488
0
LINE
8
BLACK
6
CONTINUOUS
10
99.7583
20
-89.8488
11
99.6631
21
-90.0392
0
LINE
8
BLACK
6
CONTINUOUS
10
99.6631
20
-90.0392
11
99.5678
21
-90.1345
0
LINE
8
BLACK
6
CONTINUOUS
10
99.5678
20
-90.1345
11
99.3773
21
-90.2297
0
LINE
8
BLACK
6
CONTINUOUS
10
99.3773
20
-90.2297
11
99.1869
21
-90.2297
0
LINE
8
BLACK
6
CONTINUOUS
10
99.1869
20
-90.2297
11
98.9964
21
-90.1345
0
LINE
8
BLACK
6
CONTINUOUS
10
98.9964
20
-90.1345
11
98.9012
21
-90.0392
0
LINE
8
BLACK
6
CONTINUOUS
10
98.9012
20
-90.0392
11
98.8059
21
-89.8488
0
LINE
8
BLACK
6
CONTINUOUS
10
98.8059
20
-89.8488
11
98.7107
21
-89.4678
0
LINE
8
BLACK
6
CONTINUOUS
10
98.7107
20
-89.4678
11
98.7107
21
-88.9916
0
LINE
8
BLACK
6
CONTINUOUS
10
98.7107
20
-88.9916
11
98.8059
21
-88.6107
0
LINE
8
BLACK
6
CONTINUOUS
10
98.8059
20
-88.6107
11
98.9012
21
-88.4202
0
LINE
8
BLACK
6
CONTINUOUS
10
98.9012
20
-88.4202
11
98.9964
21
-88.325
0
LINE
8
BLACK
6
CONTINUOUS
10
98.9964
20
-88.325
11
99.1869
21
-88.2297
0
LINE
8
BLACK
6
CONTINUOUS
10
100.615
20
-88.4202
11
100.711
21
-88.325
0
LINE
8
BLACK
6
CONTINUOUS
10
100.711
20
-88.325
11
100.901
21
-88.2297
0
LINE
8
BLACK
6
CONTINUOUS
10
100.901
20
-88.2297
11
101.377
21
-88.2297
0
LINE
8
BLACK
6
CONTINUOUS
10
101.377
20
-88.2297
11
101.568
21
-88.325
0
LINE
8
BLACK
6
CONTINUOUS
10
101.568
20
-88.325
11
101.663
21
-88.4202
0
LINE
8
BLACK
6
CONTINUOUS
10
101.663
20
-88.4202
11
101.758
21
-88.6107
0
LINE
8
BLACK
6
CONTINUOUS
10
101.758
20
-88.6107
11
101.758
21
-88.8012
0
LINE
8
BLACK
6
CONTINUOUS
10
101.758
20
-88.8012
11
101.663
21
-89.0869
0
LINE
8
BLACK
6
CONTINUOUS
10
101.663
20
-89.0869
11
100.52
21
-90.2297
0
LINE
8
BLACK
6
CONTINUOUS
10
100.52
20
-90.2297
11
101.758
21
-90.2297
0
LINE
8
BLACK
6
CONTINUOUS
10
103.568
20
-88.2297
11
102.615
21
-88.2297
0
LINE
8
BLACK
6
CONTINUOUS
10
102.615
20
-88.2297
11
102.52
21
-89.1821
0
LINE
8
BLACK
6
CONTINUOUS
10
102.52
20
-89.1821
11
102.615
21
-89.0869
0
LINE
8
BLACK
6
CONTINUOUS
10
102.615
20
-89.0869
11
102.806
21
-88.9916
0
LINE
8
BLACK
6
CONTINUOUS
10
102.806
20
-88.9916
11
103.282
21
-88.9916
0
LINE
8
BLACK
6
CONTINUOUS
10
103.282
20
-88.9916
11
103.473
21
-89.0869
0
LINE
8
BLACK
6
CONTINUOUS
10
103.473
20
-89.0869
11
103.568
21
-89.1821
0
LINE
8
BLACK
6
CONTINUOUS
10
103.568
20
-89.1821
11
103.663
21
-89.3726
0
LINE
8
BLACK
6
CONTINUOUS
10
103.663
20
-89.3726
11
103.663
21
-89.8488
0
LINE
8
BLACK
6
CONTINUOUS
10
103.663
20
-89.8488
11
103.568
21
-90.0392
0
LINE
8
BLACK
6
CONTINUOUS
10
103.568
20
-90.0392
11
103.473
21
-90.1345
0
LINE
8
BLACK
6
CONTINUOUS
10
103.473
20
-90.1345
11
103.282
21
-90.2297
0
LINE
8
BLACK
6
CONTINUOUS
10
103.282
20
-90.2297
11
102.806
21
-90.2297
0
LINE
8
BLACK
6
CONTINUOUS
10
102.806
20
-90.2297
11
102.615
21
-90.1345
0
LINE
8
BLACK
6
CONTINUOUS
10
102.615
20
-90.1345
11
102.52
21
-90.0392
0
LINE
8
BLACK
6
CONTINUOUS
10
105.377
20
-88.2297
11
104.996
21
-88.2297
0
LINE
8
BLACK
6
CONTINUOUS
10
104.996
20
-88.2297
11
104.806
21
-88.325
0
LINE
8
BLACK
6
CONTINUOUS
10
104.806
20
-88.325
11
104.711
21
-88.4202
0
LINE
8
BLACK
6
CONTINUOUS
10
104.711
20
-88.4202
11
104.52
21
-88.7059
0
LINE
8
BLACK
6
CONTINUOUS
10
104.52
20
-88.7059
11
104.425
21
-89.0869
0
LINE
8
BLACK
6
CONTINUOUS
10
104.425
20
-89.0869
11
104.425
21
-89.8488
0
LINE
8
BLACK
6
CONTINUOUS
10
104.425
20
-89.8488
11
104.52
21
-90.0392
0
LINE
8
BLACK
6
CONTINUOUS
10
104.52
20
-90.0392
11
104.615
21
-90.1345
0
LINE
8
BLACK
6
CONTINUOUS
10
104.615
20
-90.1345
11
104.806
21
-90.2297
0
LINE
8
BLACK
6
CONTINUOUS
10
104.806
20
-90.2297
11
105.187
21
-90.2297
0
LINE
8
BLACK
6
CONTINUOUS
10
105.187
20
-90.2297
11
105.377
21
-90.1345
0
LINE
8
BLACK
6
CONTINUOUS
10
105.377
20
-90.1345
11
105.473
21
-90.0392
0
LINE
8
BLACK
6
CONTINUOUS
10
105.473
20
-90.0392
11
105.568
21
-89.8488
0
LINE
8
BLACK
6
CONTINUOUS
10
105.568
20
-89.8488
11
105.568
21
-89.3726
0
LINE
8
BLACK
6
CONTINUOUS
10
105.568
20
-89.3726
11
105.473
21
-89.1821
0
LINE
8
BLACK
6
CONTINUOUS
10
105.473
20
-89.1821
11
105.377
21
-89.0869
0
LINE
8
BLACK
6
CONTINUOUS
10
105.377
20
-89.0869
11
105.187
21
-88.9916
0
LINE
8
BLACK
6
CONTINUOUS
10
105.187
20
-88.9916
11
104.806
21
-88.9916
0
LINE
8
BLACK
6
CONTINUOUS
10
104.806
20
-88.9916
11
104.615
21
-89.0869
0
LINE
8
BLACK
6
CONTINUOUS
10
104.615
20
-89.0869
11
104.52
21
-89.1821
0
LINE
8
BLACK
6
CONTINUOUS
10
104.52
20
-89.1821
11
104.425
21
-89.3726
0
LINE
8
BLACK
6
CONTINUOUS
10
106.33
20
-88.2297
11
106.33
21
-88.6107
0
LINE
8
BLACK
6
CONTINUOUS
10
107.092
20
-88.2297
11
107.092
21
-88.6107
0
LINE
8
BLACK
6
CONTINUOUS
10
110.044
20
-90.9916
11
109.949
21
-90.8964
0
LINE
8
BLACK
6
CONTINUOUS
10
109.949
20
-90.8964
11
109.758
21
-90.6107
0
LINE
8
BLACK
6
CONTINUOUS
10
109.758
20
-90.6107
11
109.663
21
-90.4202
0
LINE
8
BLACK
6
CONTINUOUS
10
109.663
20
-90.4202
11
109.568
21
-90.1345
0
LINE
8
BLACK
6
CONTINUOUS
10
109.568
20
-90.1345
11
109.473
21
-89.6583
0
LINE
8
BLACK
6
CONTINUOUS
10
109.473
20
-89.6583
11
109.473
21
-89.2773
0
LINE
8
BLACK
6
CONTINUOUS
10
109.473
20
-89.2773
11
109.568
21
-88.8012
0
LINE
8
BLACK
6
CONTINUOUS
10
109.568
20
-88.8012
11
109.663
21
-88.5154
0
LINE
8
BLACK
6
CONTINUOUS
10
109.663
20
-88.5154
11
109.758
21
-88.325
0
LINE
8
BLACK
6
CONTINUOUS
10
109.758
20
-88.325
11
109.949
21
-88.0392
0
LINE
8
BLACK
6
CONTINUOUS
10
109.949
20
-88.0392
11
110.044
21
-87.944
0
LINE
8
BLACK
6
CONTINUOUS
10
110.711
20
-88.4202
11
110.806
21
-88.325
0
LINE
8
BLACK
6
CONTINUOUS
10
110.806
20
-88.325
11
110.996
21
-88.2297
0
LINE
8
BLACK
6
CONTINUOUS
10
110.996
20
-88.2297
11
111.473
21
-88.2297
0
LINE
8
BLACK
6
CONTINUOUS
10
111.473
20
-88.2297
11
111.663
21
-88.325
0
LINE
8
BLACK
6
CONTINUOUS
10
111.663
20
-88.325
11
111.758
21
-88.4202
0
LINE
8
BLACK
6
CONTINUOUS
10
111.758
20
-88.4202
11
111.854
21
-88.6107
0
LINE
8
BLACK
6
CONTINUOUS
10
111.854
20
-88.6107
11
111.854
21
-88.8012
0
LINE
8
BLACK
6
CONTINUOUS
10
111.854
20
-88.8012
11
111.758
21
-89.0869
0
LINE
8
BLACK
6
CONTINUOUS
10
111.758
20
-89.0869
11
110.615
21
-90.2297
0
LINE
8
BLACK
6
CONTINUOUS
10
110.615
20
-90.2297
11
111.854
21
-90.2297
0
LINE
8
BLACK
6
CONTINUOUS
10
114.234
20
-90.2297
11
114.234
21
-88.2297
0
LINE
8
BLACK
6
CONTINUOUS
10
115.092
20
-90.2297
11
115.092
21
-89.1821
0
LINE
8
BLACK
6
CONTINUOUS
10
115.092
20
-89.1821
11
114.996
21
-88.9916
0
LINE
8
BLACK
6
CONTINUOUS
10
114.996
20
-88.9916
11
114.806
21
-88.8964
0
LINE
8
BLACK
6
CONTINUOUS
10
114.806
20
-88.8964
11
114.52
21
-88.8964
0
LINE
8
BLACK
6
CONTINUOUS
10
114.52
20
-88.8964
11
114.33
21
-88.9916
0
LINE
8
BLACK
6
CONTINUOUS
10
114.33
20
-88.9916
11
114.234
21
-89.0869
0
LINE
8
BLACK
6
CONTINUOUS
10
116.33
20
-90.2297
11
116.139
21
-90.1345
0
LINE
8
BLACK
6
CONTINUOUS
10
116.139
20
-90.1345
11
116.044
21
-90.0392
0
LINE
8
BLACK
6
CONTINUOUS
10
116.044
20
-90.0392
11
115.949
21
-89.8488
0
LINE
8
BLACK
6
CONTINUOUS
10
115.949
20
-89.8488
11
115.949
21
-89.2773
0
LINE
8
BLACK
6
CONTINUOUS
10
115.949
20
-89.2773
11
116.044
21
-89.0869
0
LINE
8
BLACK
6
CONTINUOUS
10
116.044
20
-89.0869
11
116.139
21
-88.9916
0
LINE
8
BLACK
6
CONTINUOUS
10
116.139
20
-88.9916
11
116.33
21
-88.8964
0
LINE
8
BLACK
6
CONTINUOUS
10
116.33
20
-88.8964
11
116.615
21
-88.8964
0
LINE
8
BLACK
6
CONTINUOUS
10
116.615
20
-88.8964
11
116.806
21
-88.9916
0
LINE
8
BLACK
6
CONTINUOUS
10
116.806
20
-88.9916
11
116.901
21
-89.0869
0
LINE
8
BLACK
6
CONTINUOUS
10
116.901
20
-89.0869
11
116.996
21
-89.2773
0
LINE
8
BLACK
6
CONTINUOUS
10
116.996
20
-89.2773
11
116.996
21
-89.8488
0
LINE
8
BLACK
6
CONTINUOUS
10
116.996
20
-89.8488
11
116.901
21
-90.0392
0
LINE
8
BLACK
6
CONTINUOUS
10
116.901
20
-90.0392
11
116.806
21
-90.1345
0
LINE
8
BLACK
6
CONTINUOUS
10
116.806
20
-90.1345
11
116.615
21
-90.2297
0
LINE
8
BLACK
6
CONTINUOUS
10
116.615
20
-90.2297
11
116.33
21
-90.2297
0
LINE
8
BLACK
6
CONTINUOUS
10
118.139
20
-90.2297
11
117.949
21
-90.1345
0
LINE
8
BLACK
6
CONTINUOUS
10
117.949
20
-90.1345
11
117.854
21
-89.944
0
LINE
8
BLACK
6
CONTINUOUS
10
117.854
20
-89.944
11
117.854
21
-88.2297
0
LINE
8
BLACK
6
CONTINUOUS
10
119.663
20
-90.1345
11
119.473
21
-90.2297
0
LINE
8
BLACK
6
CONTINUOUS
10
119.473
20
-90.2297
11
119.092
21
-90.2297
0
LINE
8
BLACK
6
CONTINUOUS
10
119.092
20
-90.2297
11
118.901
21
-90.1345
0
LINE
8
BLACK
6
CONTINUOUS
10
118.901
20
-90.1345
11
118.806
21
-89.944
0
LINE
8
BLACK
6
CONTINUOUS
10
118.806
20
-89.944
11
118.806
21
-89.1821
0
LINE
8
BLACK
6
CONTINUOUS
10
118.806
20
-89.1821
11
118.901
21
-88.9916
0
LINE
8
BLACK
6
CONTINUOUS
10
118.901
20
-88.9916
11
119.092
21
-88.8964
0
LINE
8
BLACK
6
CONTINUOUS
10
119.092
20
-88.8964
11
119.473
21
-88.8964
0
LINE
8
BLACK
6
CONTINUOUS
10
119.473
20
-88.8964
11
119.663
21
-88.9916
0
LINE
8
BLACK
6
CONTINUOUS
10
119.663
20
-88.9916
11
119.758
21
-89.1821
0
LINE
8
BLACK
6
CONTINUOUS
10
119.758
20
-89.1821
11
119.758
21
-89.3726
0
LINE
8
BLACK
6
CONTINUOUS
10
119.758
20
-89.3726
11
118.806
21
-89.5631
0
LINE
8
BLACK
6
CONTINUOUS
10
120.52
20
-90.1345
11
120.711
21
-90.2297
0
LINE
8
BLACK
6
CONTINUOUS
10
120.711
20
-90.2297
11
121.092
21
-90.2297
0
LINE
8
BLACK
6
CONTINUOUS
10
121.092
20
-90.2297
11
121.282
21
-90.1345
0
LINE
8
BLACK
6
CONTINUOUS
10
121.282
20
-90.1345
11
121.377
21
-89.944
0
LINE
8
BLACK
6
CONTINUOUS
10
121.377
20
-89.944
11
121.377
21
-89.8488
0
LINE
8
BLACK
6
CONTINUOUS
10
121.377
20
-89.8488
11
121.282
21
-89.6583
0
LINE
8
BLACK
6
CONTINUOUS
10
121.282
20
-89.6583
11
121.092
21
-89.5631
0
LINE
8
BLACK
6
CONTINUOUS
10
121.092
20
-89.5631
11
120.806
21
-89.5631
0
LINE
8
BLACK
6
CONTINUOUS
10
120.806
20
-89.5631
11
120.615
21
-89.4678
0
LINE
8
BLACK
6
CONTINUOUS
10
120.615
20
-89.4678
11
120.52
21
-89.2773
0
LINE
8
BLACK
6
CONTINUOUS
10
120.52
20
-89.2773
11
120.52
21
-89.1821
0
LINE
8
BLACK
6
CONTINUOUS
10
120.52
20
-89.1821
11
120.615
21
-88.9916
0
LINE
8
BLACK
6
CONTINUOUS
10
120.615
20
-88.9916
11
120.806
21
-88.8964
0
LINE
8
BLACK
6
CONTINUOUS
10
120.806
20
-88.8964
11
121.092
21
-88.8964
0
LINE
8
BLACK
6
CONTINUOUS
10
121.092
20
-88.8964
11
121.282
21
-88.9916
0
LINE
8
BLACK
6
CONTINUOUS
10
122.044
20
-90.9916
11
122.139
21
-90.8964
0
LINE
8
BLACK
6
CONTINUOUS
10
122.139
20
-90.8964
11
122.33
21
-90.6107
0
LINE
8
BLACK
6
CONTINUOUS
10
122.33
20
-90.6107
11
122.425
21
-90.4202
0
LINE
8
BLACK
6
CONTINUOUS
10
122.425
20
-90.4202
11
122.52
21
-90.1345
0
LINE
8
BLACK
6
CONTINUOUS
10
122.52
20
-90.1345
11
122.615
21
-89.6583
0
LINE
8
BLACK
6
CONTINUOUS
10
122.615
20
-89.6583
11
122.615
21
-89.2773
0
LINE
8
BLACK
6
CONTINUOUS
10
122.615
20
-89.2773
11
122.52
21
-88.8012
0
LINE
8
BLACK
6
CONTINUOUS
10
122.52
20
-88.8012
11
122.425
21
-88.5154
0
LINE
8
BLACK
6
CONTINUOUS
10
122.425
20
-88.5154
11
122.33
21
-88.325
0
LINE
8
BLACK
6
CONTINUOUS
10
122.33
20
-88.325
11
122.139
21
-88.0392
0
LINE
8
BLACK
6
CONTINUOUS
10
122.139
20
-88.0392
11
122.044
21
-87.944
0
LINE
8
BLACK
6
CONTINUOUS
10
125.663
20
-90.9916
11
125.568
21
-90.8964
0
LINE
8
BLACK
6
CONTINUOUS
10
125.568
20
-90.8964
11
125.377
21
-90.6107
0
LINE
8
BLACK
6
CONTINUOUS
10
125.377
20
-90.6107
11
125.282
21
-90.4202
0
LINE
8
BLACK
6
CONTINUOUS
10
125.282
20
-90.4202
11
125.187
21
-90.1345
0
LINE
8
BLACK
6
CONTINUOUS
10
125.187
20
-90.1345
11
125.092
21
-89.6583
0
LINE
8
BLACK
6
CONTINUOUS
10
125.092
20
-89.6583
11
125.092
21
-89.2773
0
LINE
8
BLACK
6
CONTINUOUS
10
125.092
20
-89.2773
11
125.187
21
-88.8012
0
LINE
8
BLACK
6
CONTINUOUS
10
125.187
20
-88.8012
11
125.282
21
-88.5154
0
LINE
8
BLACK
6
CONTINUOUS
10
125.282
20
-88.5154
11
125.377
21
-88.325
0
LINE
8
BLACK
6
CONTINUOUS
10
125.377
20
-88.325
11
125.568
21
-88.0392
0
LINE
8
BLACK
6
CONTINUOUS
10
125.568
20
-88.0392
11
125.663
21
-87.944
0
LINE
8
BLACK
6
CONTINUOUS
10
126.425
20
-88.8964
11
126.425
21
-90.2297
0
LINE
8
BLACK
6
CONTINUOUS
10
126.425
20
-89.0869
11
126.52
21
-88.9916
0
LINE
8
BLACK
6
CONTINUOUS
10
126.52
20
-88.9916
11
126.711
21
-88.8964
0
LINE
8
BLACK
6
CONTINUOUS
10
126.711
20
-88.8964
11
126.996
21
-88.8964
0
LINE
8
BLACK
6
CONTINUOUS
10
126.996
20
-88.8964
11
127.187
21
-88.9916
0
LINE
8
BLACK
6
CONTINUOUS
10
127.187
20
-88.9916
11
127.282
21
-89.1821
0
LINE
8
BLACK
6
CONTINUOUS
10
127.282
20
-89.1821
11
127.282
21
-90.2297
0
LINE
8
BLACK
6
CONTINUOUS
10
128.52
20
-90.2297
11
128.33
21
-90.1345
0
LINE
8
BLACK
6
CONTINUOUS
10
128.33
20
-90.1345
11
128.234
21
-90.0392
0
LINE
8
BLACK
6
CONTINUOUS
10
128.234
20
-90.0392
11
128.139
21
-89.8488
0
LINE
8
BLACK
6
CONTINUOUS
10
128.139
20
-89.8488
11
128.139
21
-89.2773
0
LINE
8
BLACK
6
CONTINUOUS
10
128.139
20
-89.2773
11
128.234
21
-89.0869
0
LINE
8
BLACK
6
CONTINUOUS
10
128.234
20
-89.0869
11
128.33
21
-88.9916
0
LINE
8
BLACK
6
CONTINUOUS
10
128.33
20
-88.9916
11
128.52
21
-88.8964
0
LINE
8
BLACK
6
CONTINUOUS
10
128.52
20
-88.8964
11
128.806
21
-88.8964
0
LINE
8
BLACK
6
CONTINUOUS
10
128.806
20
-88.8964
11
128.996
21
-88.9916
0
LINE
8
BLACK
6
CONTINUOUS
10
128.996
20
-88.9916
11
129.092
21
-89.0869
0
LINE
8
BLACK
6
CONTINUOUS
10
129.092
20
-89.0869
11
129.187
21
-89.2773
0
LINE
8
BLACK
6
CONTINUOUS
10
129.187
20
-89.2773
11
129.187
21
-89.8488
0
LINE
8
BLACK
6
CONTINUOUS
10
129.187
20
-89.8488
11
129.092
21
-90.0392
0
LINE
8
BLACK
6
CONTINUOUS
10
129.092
20
-90.0392
11
128.996
21
-90.1345
0
LINE
8
BLACK
6
CONTINUOUS
10
128.996
20
-90.1345
11
128.806
21
-90.2297
0
LINE
8
BLACK
6
CONTINUOUS
10
128.806
20
-90.2297
11
128.52
21
-90.2297
0
LINE
8
BLACK
6
CONTINUOUS
10
129.758
20
-88.8964
11
130.52
21
-88.8964
0
LINE
8
BLACK
6
CONTINUOUS
10
130.044
20
-88.2297
11
130.044
21
-89.944
0
LINE
8
BLACK
6
CONTINUOUS
10
130.044
20
-89.944
11
130.139
21
-90.1345
0
LINE
8
BLACK
6
CONTINUOUS
10
130.139
20
-90.1345
11
130.33
21
-90.2297
0
LINE
8
BLACK
6
CONTINUOUS
10
130.33
20
-90.2297
11
130.52
21
-90.2297
0
LINE
8
BLACK
6
CONTINUOUS
10
132.711
20
-88.8964
11
132.711
21
-90.8964
0
LINE
8
BLACK
6
CONTINUOUS
10
132.711
20
-88.9916
11
132.901
21
-88.8964
0
LINE
8
BLACK
6
CONTINUOUS
10
132.901
20
-88.8964
11
133.282
21
-88.8964
0
LINE
8
BLACK
6
CONTINUOUS
10
133.282
20
-88.8964
11
133.473
21
-88.9916
0
LINE
8
BLACK
6
CONTINUOUS
10
133.473
20
-88.9916
11
133.568
21
-89.0869
0
LINE
8
BLACK
6
CONTINUOUS
10
133.568
20
-89.0869
11
133.663
21
-89.2773
0
LINE
8
BLACK
6
CONTINUOUS
10
133.663
20
-89.2773
11
133.663
21
-89.8488
0
LINE
8
BLACK
6
CONTINUOUS
10
133.663
20
-89.8488
11
133.568
21
-90.0392
0
LINE
8
BLACK
6
CONTINUOUS
10
133.568
20
-90.0392
11
133.473
21
-90.1345
0
LINE
8
BLACK
6
CONTINUOUS
10
133.473
20
-90.1345
11
133.282
21
-90.2297
0
LINE
8
BLACK
6
CONTINUOUS
10
133.282
20
-90.2297
11
132.901
21
-90.2297
0
LINE
8
BLACK
6
CONTINUOUS
10
132.901
20
-90.2297
11
132.711
21
-90.1345
0
LINE
8
BLACK
6
CONTINUOUS
10
134.806
20
-90.2297
11
134.615
21
-90.1345
0
LINE
8
BLACK
6
CONTINUOUS
10
134.615
20
-90.1345
11
134.52
21
-89.944
0
LINE
8
BLACK
6
CONTINUOUS
10
134.52
20
-89.944
11
134.52
21
-88.2297
0
LINE
8
BLACK
6
CONTINUOUS
10
136.425
20
-90.2297
11
136.425
21
-89.1821
0
LINE
8
BLACK
6
CONTINUOUS
10
136.425
20
-89.1821
11
136.33
21
-88.9916
0
LINE
8
BLACK
6
CONTINUOUS
10
136.33
20
-88.9916
11
136.139
21
-88.8964
0
LINE
8
BLACK
6
CONTINUOUS
10
136.139
20
-88.8964
11
135.758
21
-88.8964
0
LINE
8
BLACK
6
CONTINUOUS
10
135.758
20
-88.8964
11
135.568
21
-88.9916
0
LINE
8
BLACK
6
CONTINUOUS
10
136.425
20
-90.1345
11
136.234
21
-90.2297
0
LINE
8
BLACK
6
CONTINUOUS
10
136.234
20
-90.2297
11
135.758
21
-90.2297
0
LINE
8
BLACK
6
CONTINUOUS
10
135.758
20
-90.2297
11
135.568
21
-90.1345
0
LINE
8
BLACK
6
CONTINUOUS
10
135.568
20
-90.1345
11
135.473
21
-89.944
0
LINE
8
BLACK
6
CONTINUOUS
10
135.473
20
-89.944
11
135.473
21
-89.7535
0
LINE
8
BLACK
6
CONTINUOUS
10
135.473
20
-89.7535
11
135.568
21
-89.5631
0
LINE
8
BLACK
6
CONTINUOUS
10
135.568
20
-89.5631
11
135.758
21
-89.4678
0
LINE
8
BLACK
6
CONTINUOUS
10
135.758
20
-89.4678
11
136.234
21
-89.4678
0
LINE
8
BLACK
6
CONTINUOUS
10
136.234
20
-89.4678
11
136.425
21
-89.3726
0
LINE
8
BLACK
6
CONTINUOUS
10
137.092
20
-88.8964
11
137.854
21
-88.8964
0
LINE
8
BLACK
6
CONTINUOUS
10
137.377
20
-88.2297
11
137.377
21
-89.944
0
LINE
8
BLACK
6
CONTINUOUS
10
137.377
20
-89.944
11
137.473
21
-90.1345
0
LINE
8
BLACK
6
CONTINUOUS
10
137.473
20
-90.1345
11
137.663
21
-90.2297
0
LINE
8
BLACK
6
CONTINUOUS
10
137.663
20
-90.2297
11
137.854
21
-90.2297
0
LINE
8
BLACK
6
CONTINUOUS
10
139.282
20
-90.1345
11
139.092
21
-90.2297
0
LINE
8
BLACK
6
CONTINUOUS
10
139.092
20
-90.2297
11
138.711
21
-90.2297
0
LINE
8
BLACK
6
CONTINUOUS
10
138.711
20
-90.2297
11
138.52
21
-90.1345
0
LINE
8
BLACK
6
CONTINUOUS
10
138.52
20
-90.1345
11
138.425
21
-89.944
0
LINE
8
BLACK
6
CONTINUOUS
10
138.425
20
-89.944
11
138.425
21
-89.1821
0
LINE
8
BLACK
6
CONTINUOUS
10
138.425
20
-89.1821
11
138.52
21
-88.9916
0
LINE
8
BLACK
6
CONTINUOUS
10
138.52
20
-88.9916
11
138.711
21
-88.8964
0
LINE
8
BLACK
6
CONTINUOUS
10
138.711
20
-88.8964
11
139.092
21
-88.8964
0
LINE
8
BLACK
6
CONTINUOUS
10
139.092
20
-88.8964
11
139.282
21
-88.9916
0
LINE
8
BLACK
6
CONTINUOUS
10
139.282
20
-88.9916
11
139.377
21
-89.1821
0
LINE
8
BLACK
6
CONTINUOUS
10
139.377
20
-89.1821
11
139.377
21
-89.3726
0
LINE
8
BLACK
6
CONTINUOUS
10
139.377
20
-89.3726
11
138.425
21
-89.5631
0
LINE
8
BLACK
6
CONTINUOUS
10
141.092
20
-90.2297
11
141.092
21
-88.2297
0
LINE
8
BLACK
6
CONTINUOUS
10
141.092
20
-90.1345
11
140.901
21
-90.2297
0
LINE
8
BLACK
6
CONTINUOUS
10
140.901
20
-90.2297
11
140.52
21
-90.2297
0
LINE
8
BLACK
6
CONTINUOUS
10
140.52
20
-90.2297
11
140.33
21
-90.1345
0
LINE
8
BLACK
6
CONTINUOUS
10
140.33
20
-90.1345
11
140.234
21
-90.0392
0
LINE
8
BLACK
6
CONTINUOUS
10
140.234
20
-90.0392
11
140.139
21
-89.8488
0
LINE
8
BLACK
6
CONTINUOUS
10
140.139
20
-89.8488
11
140.139
21
-89.2773
0
LINE
8
BLACK
6
CONTINUOUS
10
140.139
20
-89.2773
11
140.234
21
-89.0869
0
LINE
8
BLACK
6
CONTINUOUS
10
140.234
20
-89.0869
11
140.33
21
-88.9916
0
LINE
8
BLACK
6
CONTINUOUS
10
140.33
20
-88.9916
11
140.52
21
-88.8964
0
LINE
8
BLACK
6
CONTINUOUS
10
140.52
20
-88.8964
11
140.901
21
-88.8964
0
LINE
8
BLACK
6
CONTINUOUS
10
140.901
20
-88.8964
11
141.092
21
-88.9916
0
LINE
8
BLACK
6
CONTINUOUS
10
141.854
20
-90.9916
11
141.949
21
-90.8964
0
LINE
8
BLACK
6
CONTINUOUS
10
141.949
20
-90.8964
11
142.139
21
-90.6107
0
LINE
8
BLACK
6
CONTINUOUS
10
142.139
20
-90.6107
11
142.234
21
-90.4202
0
LINE
8
BLACK
6
CONTINUOUS
10
142.234
20
-90.4202
11
142.33
21
-90.1345
0
LINE
8
BLACK
6
CONTINUOUS
10
142.33
20
-90.1345
11
142.425
21
-89.6583
0
LINE
8
BLACK
6
CONTINUOUS
10
142.425
20
-89.6583
11
142.425
21
-89.2773
0
LINE
8
BLACK
6
CONTINUOUS
10
142.425
20
-89.2773
11
142.33
21
-88.8012
0
LINE
8
BLACK
6
CONTINUOUS
10
142.33
20
-88.8012
11
142.234
21
-88.5154
0
LINE
8
BLACK
6
CONTINUOUS
10
142.234
20
-88.5154
11
142.139
21
-88.325
0
LINE
8
BLACK
6
CONTINUOUS
10
142.139
20
-88.325
11
141.949
21
-88.0392
0
LINE
8
BLACK
6
CONTINUOUS
10
141.949
20
-88.0392
11
141.854
21
-87.944
0
CIRCLE
8
BLACK
10
73.8297
20
-91.965
40
0.4953
0
LINE
8
BLACK
6
CONTINUOUS
10
77.2821
20
-90.8697
11
77.4726
21
-90.8697
0
LINE
8
BLACK
6
CONTINUOUS
10
77.4726
20
-90.8697
11
77.6631
21
-90.965
0
LINE
8
BLACK
6
CONTINUOUS
10
77.6631
20
-90.965
11
77.7583
21
-91.0602
0
LINE
8
BLACK
6
CONTINUOUS
10
77.7583
20
-91.0602
11
77.8535
21
-91.2507
0
LINE
8
BLACK
6
CONTINUOUS
10
77.8535
20
-91.2507
11
77.9488
21
-91.6316
0
LINE
8
BLACK
6
CONTINUOUS
10
77.9488
20
-91.6316
11
77.9488
21
-92.1078
0
LINE
8
BLACK
6
CONTINUOUS
10
77.9488
20
-92.1078
11
77.8535
21
-92.4888
0
LINE
8
BLACK
6
CONTINUOUS
10
77.8535
20
-92.4888
11
77.7583
21
-92.6792
0
LINE
8
BLACK
6
CONTINUOUS
10
77.7583
20
-92.6792
11
77.6631
21
-92.7745
0
LINE
8
BLACK
6
CONTINUOUS
10
77.6631
20
-92.7745
11
77.4726
21
-92.8697
0
LINE
8
BLACK
6
CONTINUOUS
10
77.4726
20
-92.8697
11
77.2821
21
-92.8697
0
LINE
8
BLACK
6
CONTINUOUS
10
77.2821
20
-92.8697
11
77.0916
21
-92.7745
0
LINE
8
BLACK
6
CONTINUOUS
10
77.0916
20
-92.7745
11
76.9964
21
-92.6792
0
LINE
8
BLACK
6
CONTINUOUS
10
76.9964
20
-92.6792
11
76.9012
21
-92.4888
0
LINE
8
BLACK
6
CONTINUOUS
10
76.9012
20
-92.4888
11
76.8059
21
-92.1078
0
LINE
8
BLACK
6
CONTINUOUS
10
76.8059
20
-92.1078
11
76.8059
21
-91.6316
0
LINE
8
BLACK
6
CONTINUOUS
10
76.8059
20
-91.6316
11
76.9012
21
-91.2507
0
LINE
8
BLACK
6
CONTINUOUS
10
76.9012
20
-91.2507
11
76.9964
21
-91.0602
0
LINE
8
BLACK
6
CONTINUOUS
10
76.9964
20
-91.0602
11
77.0916
21
-90.965
0
LINE
8
BLACK
6
CONTINUOUS
10
77.0916
20
-90.965
11
77.2821
21
-90.8697
0
LINE
8
BLACK
6
CONTINUOUS
10
78.8059
20
-92.6792
11
78.9012
21
-92.7745
0
LINE
8
BLACK
6
CONTINUOUS
10
78.9012
20
-92.7745
11
78.8059
21
-92.8697
0
LINE
8
BLACK
6
CONTINUOUS
10
78.8059
20
-92.8697
11
78.7107
21
-92.7745
0
LINE
8
BLACK
6
CONTINUOUS
10
78.7107
20
-92.7745
11
78.8059
21
-92.6792
0
LINE
8
BLACK
6
CONTINUOUS
10
78.8059
20
-92.6792
11
78.8059
21
-92.8697
0
LINE
8
BLACK
6
CONTINUOUS
10
79.8535
20
-92.8697
11
80.2345
21
-92.8697
0
LINE
8
BLACK
6
CONTINUOUS
10
80.2345
20
-92.8697
11
80.425
21
-92.7745
0
LINE
8
BLACK
6
CONTINUOUS
10
80.425
20
-92.7745
11
80.5202
21
-92.6792
0
LINE
8
BLACK
6
CONTINUOUS
10
80.5202
20
-92.6792
11
80.7107
21
-92.3935
0
LINE
8
BLACK
6
CONTINUOUS
10
80.7107
20
-92.3935
11
80.8059
21
-92.0126
0
LINE
8
BLACK
6
CONTINUOUS
10
80.8059
20
-92.0126
11
80.8059
21
-91.2507
0
LINE
8
BLACK
6
CONTINUOUS
10
80.8059
20
-91.2507
11
80.7107
21
-91.0602
0
LINE
8
BLACK
6
CONTINUOUS
10
80.7107
20
-91.0602
11
80.6154
21
-90.965
0
LINE
8
BLACK
6
CONTINUOUS
10
80.6154
20
-90.965
11
80.425
21
-90.8697
0
LINE
8
BLACK
6
CONTINUOUS
10
80.425
20
-90.8697
11
80.044
21
-90.8697
0
LINE
8
BLACK
6
CONTINUOUS
10
80.044
20
-90.8697
11
79.8535
21
-90.965
0
LINE
8
BLACK
6
CONTINUOUS
10
79.8535
20
-90.965
11
79.7583
21
-91.0602
0
LINE
8
BLACK
6
CONTINUOUS
10
79.7583
20
-91.0602
11
79.6631
21
-91.2507
0
LINE
8
BLACK
6
CONTINUOUS
10
79.6631
20
-91.2507
11
79.6631
21
-91.7269
0
LINE
8
BLACK
6
CONTINUOUS
10
79.6631
20
-91.7269
11
79.7583
21
-91.9173
0
LINE
8
BLACK
6
CONTINUOUS
10
79.7583
20
-91.9173
11
79.8535
21
-92.0126
0
LINE
8
BLACK
6
CONTINUOUS
10
79.8535
20
-92.0126
11
80.044
21
-92.1078
0
LINE
8
BLACK
6
CONTINUOUS
10
80.044
20
-92.1078
11
80.425
21
-92.1078
0
LINE
8
BLACK
6
CONTINUOUS
10
80.425
20
-92.1078
11
80.6154
21
-92.0126
0
LINE
8
BLACK
6
CONTINUOUS
10
80.6154
20
-92.0126
11
80.7107
21
-91.9173
0
LINE
8
BLACK
6
CONTINUOUS
10
80.7107
20
-91.9173
11
80.8059
21
-91.7269
0
LINE
8
BLACK
6
CONTINUOUS
10
81.7583
20
-92.8697
11
82.1392
21
-92.8697
0
LINE
8
BLACK
6
CONTINUOUS
10
82.1392
20
-92.8697
11
82.3297
21
-92.7745
0
LINE
8
BLACK
6
CONTINUOUS
10
82.3297
20
-92.7745
11
82.425
21
-92.6792
0
LINE
8
BLACK
6
CONTINUOUS
10
82.425
20
-92.6792
11
82.6154
21
-92.3935
0
LINE
8
BLACK
6
CONTINUOUS
10
82.6154
20
-92.3935
11
82.7107
21
-92.0126
0
LINE
8
BLACK
6
CONTINUOUS
10
82.7107
20
-92.0126
11
82.7107
21
-91.2507
0
LINE
8
BLACK
6
CONTINUOUS
10
82.7107
20
-91.2507
11
82.6154
21
-91.0602
0
LINE
8
BLACK
6
CONTINUOUS
10
82.6154
20
-91.0602
11
82.5202
21
-90.965
0
LINE
8
BLACK
6
CONTINUOUS
10
82.5202
20
-90.965
11
82.3297
21
-90.8697
0
LINE
8
BLACK
6
CONTINUOUS
10
82.3297
20
-90.8697
11
81.9488
21
-90.8697
0
LINE
8
BLACK
6
CONTINUOUS
10
81.9488
20
-90.8697
11
81.7583
21
-90.965
0
LINE
8
BLACK
6
CONTINUOUS
10
81.7583
20
-90.965
11
81.6631
21
-91.0602
0
LINE
8
BLACK
6
CONTINUOUS
10
81.6631
20
-91.0602
11
81.5678
21
-91.2507
0
LINE
8
BLACK
6
CONTINUOUS
10
81.5678
20
-91.2507
11
81.5678
21
-91.7269
0
LINE
8
BLACK
6
CONTINUOUS
10
81.5678
20
-91.7269
11
81.6631
21
-91.9173
0
LINE
8
BLACK
6
CONTINUOUS
10
81.6631
20
-91.9173
11
81.7583
21
-92.0126
0
LINE
8
BLACK
6
CONTINUOUS
10
81.7583
20
-92.0126
11
81.9488
21
-92.1078
0
LINE
8
BLACK
6
CONTINUOUS
10
81.9488
20
-92.1078
11
82.3297
21
-92.1078
0
LINE
8
BLACK
6
CONTINUOUS
10
82.3297
20
-92.1078
11
82.5202
21
-92.0126
0
LINE
8
BLACK
6
CONTINUOUS
10
82.5202
20
-92.0126
11
82.6154
21
-91.9173
0
LINE
8
BLACK
6
CONTINUOUS
10
82.6154
20
-91.9173
11
82.7107
21
-91.7269
0
LINE
8
BLACK
6
CONTINUOUS
10
84.6154
20
-92.8697
11
83.4726
21
-92.8697
0
LINE
8
BLACK
6
CONTINUOUS
10
84.044
20
-92.8697
11
84.044
21
-90.8697
0
LINE
8
BLACK
6
CONTINUOUS
10
84.044
20
-90.8697
11
83.8535
21
-91.1554
0
LINE
8
BLACK
6
CONTINUOUS
10
83.8535
20
-91.1554
11
83.6631
21
-91.3459
0
LINE
8
BLACK
6
CONTINUOUS
10
83.6631
20
-91.3459
11
83.4726
21
-91.4412
0
LINE
8
BLACK
6
CONTINUOUS
10
85.4726
20
-92.8697
11
85.4726
21
-91.5364
0
LINE
8
BLACK
6
CONTINUOUS
10
85.4726
20
-91.7269
11
85.5678
21
-91.6316
0
LINE
8
BLACK
6
CONTINUOUS
10
85.5678
20
-91.6316
11
85.7583
21
-91.5364
0
LINE
8
BLACK
6
CONTINUOUS
10
85.7583
20
-91.5364
11
86.044
21
-91.5364
0
LINE
8
BLACK
6
CONTINUOUS
10
86.044
20
-91.5364
11
86.2345
21
-91.6316
0
LINE
8
BLACK
6
CONTINUOUS
10
86.2345
20
-91.6316
11
86.3297
21
-91.8221
0
LINE
8
BLACK
6
CONTINUOUS
10
86.3297
20
-91.8221
11
86.3297
21
-92.8697
0
LINE
8
BLACK
6
CONTINUOUS
10
86.3297
20
-91.8221
11
86.425
21
-91.6316
0
LINE
8
BLACK
6
CONTINUOUS
10
86.425
20
-91.6316
11
86.6154
21
-91.5364
0
LINE
8
BLACK
6
CONTINUOUS
10
86.6154
20
-91.5364
11
86.9012
21
-91.5364
0
LINE
8
BLACK
6
CONTINUOUS
10
86.9012
20
-91.5364
11
87.0916
21
-91.6316
0
LINE
8
BLACK
6
CONTINUOUS
10
87.0916
20
-91.6316
11
87.1869
21
-91.8221
0
LINE
8
BLACK
6
CONTINUOUS
10
87.1869
20
-91.8221
11
87.1869
21
-92.8697
0
LINE
8
BLACK
6
CONTINUOUS
10
88.1392
20
-92.8697
11
88.1392
21
-91.5364
0
LINE
8
BLACK
6
CONTINUOUS
10
88.1392
20
-91.7269
11
88.2345
21
-91.6316
0
LINE
8
BLACK
6
CONTINUOUS
10
88.2345
20
-91.6316
11
88.425
21
-91.5364
0
LINE
8
BLACK
6
CONTINUOUS
10
88.425
20
-91.5364
11
88.7107
21
-91.5364
0
LINE
8
BLACK
6
CONTINUOUS
10
88.7107
20
-91.5364
11
88.9012
21
-91.6316
0
LINE
8
BLACK
6
CONTINUOUS
10
88.9012
20
-91.6316
11
88.9964
21
-91.8221
0
LINE
8
BLACK
6
CONTINUOUS
10
88.9964
20
-91.8221
11
88.9964
21
-92.8697
0
LINE
8
BLACK
6
CONTINUOUS
10
88.9964
20
-91.8221
11
89.0916
21
-91.6316
0
LINE
8
BLACK
6
CONTINUOUS
10
89.0916
20
-91.6316
11
89.2821
21
-91.5364
0
LINE
8
BLACK
6
CONTINUOUS
10
89.2821
20
-91.5364
11
89.5678
21
-91.5364
0
LINE
8
BLACK
6
CONTINUOUS
10
89.5678
20
-91.5364
11
89.7583
21
-91.6316
0
LINE
8
BLACK
6
CONTINUOUS
10
89.7583
20
-91.6316
11
89.8535
21
-91.8221
0
LINE
8
BLACK
6
CONTINUOUS
10
89.8535
20
-91.8221
11
89.8535
21
-92.8697
0
LINE
8
BLACK
6
CONTINUOUS
10
93.7583
20
-90.7745
11
92.044
21
-93.3459
0
LINE
8
BLACK
6
CONTINUOUS
10
96.3297
20
-90.8697
11
96.5202
21
-90.8697
0
LINE
8
BLACK
6
CONTINUOUS
10
96.5202
20
-90.8697
11
96.7107
21
-90.965
0
LINE
8
BLACK
6
CONTINUOUS
10
96.7107
20
-90.965
11
96.8059
21
-91.0602
0
LINE
8
BLACK
6
CONTINUOUS
10
96.8059
20
-91.0602
11
96.9012
21
-91.2507
0
LINE
8
BLACK
6
CONTINUOUS
10
96.9012
20
-91.2507
11
96.9964
21
-91.6316
0
LINE
8
BLACK
6
CONTINUOUS
10
96.9964
20
-91.6316
11
96.9964
21
-92.1078
0
LINE
8
BLACK
6
CONTINUOUS
10
96.9964
20
-92.1078
11
96.9012
21
-92.4888
0
LINE
8
BLACK
6
CONTINUOUS
10
96.9012
20
-92.4888
11
96.8059
21
-92.6792
0
LINE
8
BLACK
6
CONTINUOUS
10
96.8059
20
-92.6792
11
96.7107
21
-92.7745
0
LINE
8
BLACK
6
CONTINUOUS
10
96.7107
20
-92.7745
11
96.5202
21
-92.8697
0
LINE
8
BLACK
6
CONTINUOUS
10
96.5202
20
-92.8697
11
96.3297
21
-92.8697
0
LINE
8
BLACK
6
CONTINUOUS
10
96.3297
20
-92.8697
11
96.1392
21
-92.7745
0
LINE
8
BLACK
6
CONTINUOUS
10
96.1392
20
-92.7745
11
96.044
21
-92.6792
0
LINE
8
BLACK
6
CONTINUOUS
10
96.044
20
-92.6792
11
95.9488
21
-92.4888
0
LINE
8
BLACK
6
CONTINUOUS
10
95.9488
20
-92.4888
11
95.8535
21
-92.1078
0
LINE
8
BLACK
6
CONTINUOUS
10
95.8535
20
-92.1078
11
95.8535
21
-91.6316
0
LINE
8
BLACK
6
CONTINUOUS
10
95.8535
20
-91.6316
11
95.9488
21
-91.2507
0
LINE
8
BLACK
6
CONTINUOUS
10
95.9488
20
-91.2507
11
96.044
21
-91.0602
0
LINE
8
BLACK
6
CONTINUOUS
10
96.044
20
-91.0602
11
96.1392
21
-90.965
0
LINE
8
BLACK
6
CONTINUOUS
10
96.1392
20
-90.965
11
96.3297
21
-90.8697
0
LINE
8
BLACK
6
CONTINUOUS
10
97.8535
20
-92.6792
11
97.9488
21
-92.7745
0
LINE
8
BLACK
6
CONTINUOUS
10
97.9488
20
-92.7745
11
97.8535
21
-92.8697
0
LINE
8
BLACK
6
CONTINUOUS
10
97.8535
20
-92.8697
11
97.7583
21
-92.7745
0
LINE
8
BLACK
6
CONTINUOUS
10
97.7583
20
-92.7745
11
97.8535
21
-92.6792
0
LINE
8
BLACK
6
CONTINUOUS
10
97.8535
20
-92.6792
11
97.8535
21
-92.8697
0
LINE
8
BLACK
6
CONTINUOUS
10
99.1869
20
-90.8697
11
99.3773
21
-90.8697
0
LINE
8
BLACK
6
CONTINUOUS
10
99.3773
20
-90.8697
11
99.5678
21
-90.965
0
LINE
8
BLACK
6
CONTINUOUS
10
99.5678
20
-90.965
11
99.6631
21
-91.0602
0
LINE
8
BLACK
6
CONTINUOUS
10
99.6631
20
-91.0602
11
99.7583
21
-91.2507
0
LINE
8
BLACK
6
CONTINUOUS
10
99.7583
20
-91.2507
11
99.8535
21
-91.6316
0
LINE
8
BLACK
6
CONTINUOUS
10
99.8535
20
-91.6316
11
99.8535
21
-92.1078
0
LINE
8
BLACK
6
CONTINUOUS
10
99.8535
20
-92.1078
11
99.7583
21
-92.4888
0
LINE
8
BLACK
6
CONTINUOUS
10
99.7583
20
-92.4888
11
99.6631
21
-92.6792
0
LINE
8
BLACK
6
CONTINUOUS
10
99.6631
20
-92.6792
11
99.5678
21
-92.7745
0
LINE
8
BLACK
6
CONTINUOUS
10
99.5678
20
-92.7745
11
99.3773
21
-92.8697
0
LINE
8
BLACK
6
CONTINUOUS
10
99.3773
20
-92.8697
11
99.1869
21
-92.8697
0
LINE
8
BLACK
6
CONTINUOUS
10
99.1869
20
-92.8697
11
98.9964
21
-92.7745
0
LINE
8
BLACK
6
CONTINUOUS
10
98.9964
20
-92.7745
11
98.9012
21
-92.6792
0
LINE
8
BLACK
6
CONTINUOUS
10
98.9012
20
-92.6792
11
98.8059
21
-92.4888
0
LINE
8
BLACK
6
CONTINUOUS
10
98.8059
20
-92.4888
11
98.7107
21
-92.1078
0
LINE
8
BLACK
6
CONTINUOUS
10
98.7107
20
-92.1078
11
98.7107
21
-91.6316
0
LINE
8
BLACK
6
CONTINUOUS
10
98.7107
20
-91.6316
11
98.8059
21
-91.2507
0
LINE
8
BLACK
6
CONTINUOUS
10
98.8059
20
-91.2507
11
98.9012
21
-91.0602
0
LINE
8
BLACK
6
CONTINUOUS
10
98.9012
20
-91.0602
11
98.9964
21
-90.965
0
LINE
8
BLACK
6
CONTINUOUS
10
98.9964
20
-90.965
11
99.1869
21
-90.8697
0
LINE
8
BLACK
6
CONTINUOUS
10
100.52
20
-90.8697
11
101.758
21
-90.8697
0
LINE
8
BLACK
6
CONTINUOUS
10
101.758
20
-90.8697
11
101.092
21
-91.6316
0
LINE
8
BLACK
6
CONTINUOUS
10
101.092
20
-91.6316
11
101.377
21
-91.6316
0
LINE
8
BLACK
6
CONTINUOUS
10
101.377
20
-91.6316
11
101.568
21
-91.7269
0
LINE
8
BLACK
6
CONTINUOUS
10
101.568
20
-91.7269
11
101.663
21
-91.8221
0
LINE
8
BLACK
6
CONTINUOUS
10
101.663
20
-91.8221
11
101.758
21
-92.0126
0
LINE
8
BLACK
6
CONTINUOUS
10
101.758
20
-92.0126
11
101.758
21
-92.4888
0
LINE
8
BLACK
6
CONTINUOUS
10
101.758
20
-92.4888
11
101.663
21
-92.6792
0
LINE
8
BLACK
6
CONTINUOUS
10
101.663
20
-92.6792
11
101.568
21
-92.7745
0
LINE
8
BLACK
6
CONTINUOUS
10
101.568
20
-92.7745
11
101.377
21
-92.8697
0
LINE
8
BLACK
6
CONTINUOUS
10
101.377
20
-92.8697
11
100.806
21
-92.8697
0
LINE
8
BLACK
6
CONTINUOUS
10
100.806
20
-92.8697
11
100.615
21
-92.7745
0
LINE
8
BLACK
6
CONTINUOUS
10
100.615
20
-92.7745
11
100.52
21
-92.6792
0
LINE
8
BLACK
6
CONTINUOUS
10
102.711
20
-92.8697
11
103.092
21
-92.8697
0
LINE
8
BLACK
6
CONTINUOUS
10
103.092
20
-92.8697
11
103.282
21
-92.7745
0
LINE
8
BLACK
6
CONTINUOUS
10
103.282
20
-92.7745
11
103.377
21
-92.6792
0
LINE
8
BLACK
6
CONTINUOUS
10
103.377
20
-92.6792
11
103.568
21
-92.3935
0
LINE
8
BLACK
6
CONTINUOUS
10
103.568
20
-92.3935
11
103.663
21
-92.0126
0
LINE
8
BLACK
6
CONTINUOUS
10
103.663
20
-92.0126
11
103.663
21
-91.2507
0
LINE
8
BLACK
6
CONTINUOUS
10
103.663
20
-91.2507
11
103.568
21
-91.0602
0
LINE
8
BLACK
6
CONTINUOUS
10
103.568
20
-91.0602
11
103.473
21
-90.965
0
LINE
8
BLACK
6
CONTINUOUS
10
103.473
20
-90.965
11
103.282
21
-90.8697
0
LINE
8
BLACK
6
CONTINUOUS
10
103.282
20
-90.8697
11
102.901
21
-90.8697
0
LINE
8
BLACK
6
CONTINUOUS
10
102.901
20
-90.8697
11
102.711
21
-90.965
0
LINE
8
BLACK
6
CONTINUOUS
10
102.711
20
-90.965
11
102.615
21
-91.0602
0
LINE
8
BLACK
6
CONTINUOUS
10
102.615
20
-91.0602
11
102.52
21
-91.2507
0
LINE
8
BLACK
6
CONTINUOUS
10
102.52
20
-91.2507
11
102.52
21
-91.7269
0
LINE
8
BLACK
6
CONTINUOUS
10
102.52
20
-91.7269
11
102.615
21
-91.9173
0
LINE
8
BLACK
6
CONTINUOUS
10
102.615
20
-91.9173
11
102.711
21
-92.0126
0
LINE
8
BLACK
6
CONTINUOUS
10
102.711
20
-92.0126
11
102.901
21
-92.1078
0
LINE
8
BLACK
6
CONTINUOUS
10
102.901
20
-92.1078
11
103.282
21
-92.1078
0
LINE
8
BLACK
6
CONTINUOUS
10
103.282
20
-92.1078
11
103.473
21
-92.0126
0
LINE
8
BLACK
6
CONTINUOUS
10
103.473
20
-92.0126
11
103.568
21
-91.9173
0
LINE
8
BLACK
6
CONTINUOUS
10
103.568
20
-91.9173
11
103.663
21
-91.7269
0
LINE
8
BLACK
6
CONTINUOUS
10
104.901
20
-90.8697
11
105.092
21
-90.8697
0
LINE
8
BLACK
6
CONTINUOUS
10
105.092
20
-90.8697
11
105.282
21
-90.965
0
LINE
8
BLACK
6
CONTINUOUS
10
105.282
20
-90.965
11
105.377
21
-91.0602
0
LINE
8
BLACK
6
CONTINUOUS
10
105.377
20
-91.0602
11
105.473
21
-91.2507
0
LINE
8
BLACK
6
CONTINUOUS
10
105.473
20
-91.2507
11
105.568
21
-91.6316
0
LINE
8
BLACK
6
CONTINUOUS
10
105.568
20
-91.6316
11
105.568
21
-92.1078
0
LINE
8
BLACK
6
CONTINUOUS
10
105.568
20
-92.1078
11
105.473
21
-92.4888
0
LINE
8
BLACK
6
CONTINUOUS
10
105.473
20
-92.4888
11
105.377
21
-92.6792
0
LINE
8
BLACK
6
CONTINUOUS
10
105.377
20
-92.6792
11
105.282
21
-92.7745
0
LINE
8
BLACK
6
CONTINUOUS
10
105.282
20
-92.7745
11
105.092
21
-92.8697
0
LINE
8
BLACK
6
CONTINUOUS
10
105.092
20
-92.8697
11
104.901
21
-92.8697
0
LINE
8
BLACK
6
CONTINUOUS
10
104.901
20
-92.8697
11
104.711
21
-92.7745
0
LINE
8
BLACK
6
CONTINUOUS
10
104.711
20
-92.7745
11
104.615
21
-92.6792
0
LINE
8
BLACK
6
CONTINUOUS
10
104.615
20
-92.6792
11
104.52
21
-92.4888
0
LINE
8
BLACK
6
CONTINUOUS
10
104.52
20
-92.4888
11
104.425
21
-92.1078
0
LINE
8
BLACK
6
CONTINUOUS
10
104.425
20
-92.1078
11
104.425
21
-91.6316
0
LINE
8
BLACK
6
CONTINUOUS
10
104.425
20
-91.6316
11
104.52
21
-91.2507
0
LINE
8
BLACK
6
CONTINUOUS
10
104.52
20
-91.2507
11
104.615
21
-91.0602
0
LINE
8
BLACK
6
CONTINUOUS
10
104.615
20
-91.0602
11
104.711
21
-90.965
0
LINE
8
BLACK
6
CONTINUOUS
10
104.711
20
-90.965
11
104.901
21
-90.8697
0
LINE
8
BLACK
6
CONTINUOUS
10
106.33
20
-90.8697
11
106.33
21
-91.2507
0
LINE
8
BLACK
6
CONTINUOUS
10
107.092
20
-90.8697
11
107.092
21
-91.2507
0
LINE
8
BLACK
6
CONTINUOUS
10
110.044
20
-93.6316
11
109.949
21
-93.5364
0
LINE
8
BLACK
6
CONTINUOUS
10
109.949
20
-93.5364
11
109.758
21
-93.2507
0
LINE
8
BLACK
6
CONTINUOUS
10
109.758
20
-93.2507
11
109.663
21
-93.0602
0
LINE
8
BLACK
6
CONTINUOUS
10
109.663
20
-93.0602
11
109.568
21
-92.7745
0
LINE
8
BLACK
6
CONTINUOUS
10
109.568
20
-92.7745
11
109.473
21
-92.2983
0
LINE
8
BLACK
6
CONTINUOUS
10
109.473
20
-92.2983
11
109.473
21
-91.9173
0
LINE
8
BLACK
6
CONTINUOUS
10
109.473
20
-91.9173
11
109.568
21
-91.4412
0
LINE
8
BLACK
6
CONTINUOUS
10
109.568
20
-91.4412
11
109.663
21
-91.1554
0
LINE
8
BLACK
6
CONTINUOUS
10
109.663
20
-91.1554
11
109.758
21
-90.965
0
LINE
8
BLACK
6
CONTINUOUS
10
109.758
20
-90.965
11
109.949
21
-90.6792
0
LINE
8
BLACK
6
CONTINUOUS
10
109.949
20
-90.6792
11
110.044
21
-90.584
0
LINE
8
BLACK
6
CONTINUOUS
10
111.854
20
-92.8697
11
110.711
21
-92.8697
0
LINE
8
BLACK
6
CONTINUOUS
10
111.282
20
-92.8697
11
111.282
21
-90.8697
0
LINE
8
BLACK
6
CONTINUOUS
10
111.282
20
-90.8697
11
111.092
21
-91.1554
0
LINE
8
BLACK
6
CONTINUOUS
10
111.092
20
-91.1554
11
110.901
21
-91.3459
0
LINE
8
BLACK
6
CONTINUOUS
10
110.901
20
-91.3459
11
110.711
21
-91.4412
0
LINE
8
BLACK
6
CONTINUOUS
10
113.568
20
-90.8697
11
113.187
21
-90.8697
0
LINE
8
BLACK
6
CONTINUOUS
10
113.187
20
-90.8697
11
112.996
21
-90.965
0
LINE
8
BLACK
6
CONTINUOUS
10
112.996
20
-90.965
11
112.901
21
-91.0602
0
LINE
8
BLACK
6
CONTINUOUS
10
112.901
20
-91.0602
11
112.711
21
-91.3459
0
LINE
8
BLACK
6
CONTINUOUS
10
112.711
20
-91.3459
11
112.615
21
-91.7269
0
LINE
8
BLACK
6
CONTINUOUS
10
112.615
20
-91.7269
11
112.615
21
-92.4888
0
LINE
8
BLACK
6
CONTINUOUS
10
112.615
20
-92.4888
11
112.711
21
-92.6792
0
LINE
8
BLACK
6
CONTINUOUS
10
112.711
20
-92.6792
11
112.806
21
-92.7745
0
LINE
8
BLACK
6
CONTINUOUS
10
112.806
20
-92.7745
11
112.996
21
-92.8697
0
LINE
8
BLACK
6
CONTINUOUS
10
112.996
20
-92.8697
11
113.377
21
-92.8697
0
LINE
8
BLACK
6
CONTINUOUS
10
113.377
20
-92.8697
11
113.568
21
-92.7745
0
LINE
8
BLACK
6
CONTINUOUS
10
113.568
20
-92.7745
11
113.663
21
-92.6792
0
LINE
8
BLACK
6
CONTINUOUS
10
113.663
20
-92.6792
11
113.758
21
-92.4888
0
LINE
8
BLACK
6
CONTINUOUS
10
113.758
20
-92.4888
11
113.758
21
-92.0126
0
LINE
8
BLACK
6
CONTINUOUS
10
113.758
20
-92.0126
11
113.663
21
-91.8221
0
LINE
8
BLACK
6
CONTINUOUS
10
113.663
20
-91.8221
11
113.568
21
-91.7269
0
LINE
8
BLACK
6
CONTINUOUS
10
113.568
20
-91.7269
11
113.377
21
-91.6316
0
LINE
8
BLACK
6
CONTINUOUS
10
113.377
20
-91.6316
11
112.996
21
-91.6316
0
LINE
8
BLACK
6
CONTINUOUS
10
112.996
20
-91.6316
11
112.806
21
-91.7269
0
LINE
8
BLACK
6
CONTINUOUS
10
112.806
20
-91.7269
11
112.711
21
-91.8221
0
LINE
8
BLACK
6
CONTINUOUS
10
112.711
20
-91.8221
11
112.615
21
-92.0126
0
LINE
8
BLACK
6
CONTINUOUS
10
116.139
20
-92.8697
11
116.139
21
-90.8697
0
LINE
8
BLACK
6
CONTINUOUS
10
116.996
20
-92.8697
11
116.996
21
-91.8221
0
LINE
8
BLACK
6
CONTINUOUS
10
116.996
20
-91.8221
11
116.901
21
-91.6316
0
LINE
8
BLACK
6
CONTINUOUS
10
116.901
20
-91.6316
11
116.711
21
-91.5364
0
LINE
8
BLACK
6
CONTINUOUS
10
116.711
20
-91.5364
11
116.425
21
-91.5364
0
LINE
8
BLACK
6
CONTINUOUS
10
116.425
20
-91.5364
11
116.234
21
-91.6316
0
LINE
8
BLACK
6
CONTINUOUS
10
116.234
20
-91.6316
11
116.139
21
-91.7269
0
LINE
8
BLACK
6
CONTINUOUS
10
118.234
20
-92.8697
11
118.044
21
-92.7745
0
LINE
8
BLACK
6
CONTINUOUS
10
118.044
20
-92.7745
11
117.949
21
-92.6792
0
LINE
8
BLACK
6
CONTINUOUS
10
117.949
20
-92.6792
11
117.854
21
-92.4888
0
LINE
8
BLACK
6
CONTINUOUS
10
117.854
20
-92.4888
11
117.854
21
-91.9173
0
LINE
8
BLACK
6
CONTINUOUS
10
117.854
20
-91.9173
11
117.949
21
-91.7269
0
LINE
8
BLACK
6
CONTINUOUS
10
117.949
20
-91.7269
11
118.044
21
-91.6316
0
LINE
8
BLACK
6
CONTINUOUS
10
118.044
20
-91.6316
11
118.234
21
-91.5364
0
LINE
8
BLACK
6
CONTINUOUS
10
118.234
20
-91.5364
11
118.52
21
-91.5364
0
LINE
8
BLACK
6
CONTINUOUS
10
118.52
20
-91.5364
11
118.711
21
-91.6316
0
LINE
8
BLACK
6
CONTINUOUS
10
118.711
20
-91.6316
11
118.806
21
-91.7269
0
LINE
8
BLACK
6
CONTINUOUS
10
118.806
20
-91.7269
11
118.901
21
-91.9173
0
LINE
8
BLACK
6
CONTINUOUS
10
118.901
20
-91.9173
11
118.901
21
-92.4888
0
LINE
8
BLACK
6
CONTINUOUS
10
118.901
20
-92.4888
11
118.806
21
-92.6792
0
LINE
8
BLACK
6
CONTINUOUS
10
118.806
20
-92.6792
11
118.711
21
-92.7745
0
LINE
8
BLACK
6
CONTINUOUS
10
118.711
20
-92.7745
11
118.52
21
-92.8697
0
LINE
8
BLACK
6
CONTINUOUS
10
118.52
20
-92.8697
11
118.234
21
-92.8697
0
LINE
8
BLACK
6
CONTINUOUS
10
120.044
20
-92.8697
11
119.854
21
-92.7745
0
LINE
8
BLACK
6
CONTINUOUS
10
119.854
20
-92.7745
11
119.758
21
-92.584
0
LINE
8
BLACK
6
CONTINUOUS
10
119.758
20
-92.584
11
119.758
21
-90.8697
0
LINE
8
BLACK
6
CONTINUOUS
10
121.568
20
-92.7745
11
121.377
21
-92.8697
0
LINE
8
BLACK
6
CONTINUOUS
10
121.377
20
-92.8697
11
120.996
21
-92.8697
0
LINE
8
BLACK
6
CONTINUOUS
10
120.996
20
-92.8697
11
120.806
21
-92.7745
0
LINE
8
BLACK
6
CONTINUOUS
10
120.806
20
-92.7745
11
120.711
21
-92.584
0
LINE
8
BLACK
6
CONTINUOUS
10
120.711
20
-92.584
11
120.711
21
-91.8221
0
LINE
8
BLACK
6
CONTINUOUS
10
120.711
20
-91.8221
11
120.806
21
-91.6316
0
LINE
8
BLACK
6
CONTINUOUS
10
120.806
20
-91.6316
11
120.996
21
-91.5364
0
LINE
8
BLACK
6
CONTINUOUS
10
120.996
20
-91.5364
11
121.377
21
-91.5364
0
LINE
8
BLACK
6
CONTINUOUS
10
121.377
20
-91.5364
11
121.568
21
-91.6316
0
LINE
8
BLACK
6
CONTINUOUS
10
121.568
20
-91.6316
11
121.663
21
-91.8221
0
LINE
8
BLACK
6
CONTINUOUS
10
121.663
20
-91.8221
11
121.663
21
-92.0126
0
LINE
8
BLACK
6
CONTINUOUS
10
121.663
20
-92.0126
11
120.711
21
-92.2031
0
LINE
8
BLACK
6
CONTINUOUS
10
122.425
20
-92.7745
11
122.615
21
-92.8697
0
LINE
8
BLACK
6
CONTINUOUS
10
122.615
20
-92.8697
11
122.996
21
-92.8697
0
LINE
8
BLACK
6
CONTINUOUS
10
122.996
20
-92.8697
11
123.187
21
-92.7745
0
LINE
8
BLACK
6
CONTINUOUS
10
123.187
20
-92.7745
11
123.282
21
-92.584
0
LINE
8
BLACK
6
CONTINUOUS
10
123.282
20
-92.584
11
123.282
21
-92.4888
0
LINE
8
BLACK
6
CONTINUOUS
10
123.282
20
-92.4888
11
123.187
21
-92.2983
0
LINE
8
BLACK
6
CONTINUOUS
10
123.187
20
-92.2983
11
122.996
21
-92.2031
0
LINE
8
BLACK
6
CONTINUOUS
10
122.996
20
-92.2031
11
122.711
21
-92.2031
0
LINE
8
BLACK
6
CONTINUOUS
10
122.711
20
-92.2031
11
122.52
21
-92.1078
0
LINE
8
BLACK
6
CONTINUOUS
10
122.52
20
-92.1078
11
122.425
21
-91.9173
0
LINE
8
BLACK
6
CONTINUOUS
10
122.425
20
-91.9173
11
122.425
21
-91.8221
0
LINE
8
BLACK
6
CONTINUOUS
10
122.425
20
-91.8221
11
122.52
21
-91.6316
0
LINE
8
BLACK
6
CONTINUOUS
10
122.52
20
-91.6316
11
122.711
21
-91.5364
0
LINE
8
BLACK
6
CONTINUOUS
10
122.711
20
-91.5364
11
122.996
21
-91.5364
0
LINE
8
BLACK
6
CONTINUOUS
10
122.996
20
-91.5364
11
123.187
21
-91.6316
0
LINE
8
BLACK
6
CONTINUOUS
10
123.949
20
-93.6316
11
124.044
21
-93.5364
0
LINE
8
BLACK
6
CONTINUOUS
10
124.044
20
-93.5364
11
124.234
21
-93.2507
0
LINE
8
BLACK
6
CONTINUOUS
10
124.234
20
-93.2507
11
124.33
21
-93.0602
0
LINE
8
BLACK
6
CONTINUOUS
10
124.33
20
-93.0602
11
124.425
21
-92.7745
0
LINE
8
BLACK
6
CONTINUOUS
10
124.425
20
-92.7745
11
124.52
21
-92.2983
0
LINE
8
BLACK
6
CONTINUOUS
10
124.52
20
-92.2983
11
124.52
21
-91.9173
0
LINE
8
BLACK
6
CONTINUOUS
10
124.52
20
-91.9173
11
124.425
21
-91.4412
0
LINE
8
BLACK
6
CONTINUOUS
10
124.425
20
-91.4412
11
124.33
21
-91.1554
0
LINE
8
BLACK
6
CONTINUOUS
10
124.33
20
-91.1554
11
124.234
21
-90.965
0
LINE
8
BLACK
6
CONTINUOUS
10
124.234
20
-90.965
11
124.044
21
-90.6792
0
LINE
8
BLACK
6
CONTINUOUS
10
124.044
20
-90.6792
11
123.949
21
-90.584
0
LINE
8
BLACK
6
CONTINUOUS
10
127.568
20
-93.6316
11
127.473
21
-93.5364
0
LINE
8
BLACK
6
CONTINUOUS
10
127.473
20
-93.5364
11
127.282
21
-93.2507
0
LINE
8
BLACK
6
CONTINUOUS
10
127.282
20
-93.2507
11
127.187
21
-93.0602
0
LINE
8
BLACK
6
CONTINUOUS
10
127.187
20
-93.0602
11
127.092
21
-92.7745
0
LINE
8
BLACK
6
CONTINUOUS
10
127.092
20
-92.7745
11
126.996
21
-92.2983
0
LINE
8
BLACK
6
CONTINUOUS
10
126.996
20
-92.2983
11
126.996
21
-91.9173
0
LINE
8
BLACK
6
CONTINUOUS
10
126.996
20
-91.9173
11
127.092
21
-91.4412
0
LINE
8
BLACK
6
CONTINUOUS
10
127.092
20
-91.4412
11
127.187
21
-91.1554
0
LINE
8
BLACK
6
CONTINUOUS
10
127.187
20
-91.1554
11
127.282
21
-90.965
0
LINE
8
BLACK
6
CONTINUOUS
10
127.282
20
-90.965
11
127.473
21
-90.6792
0
LINE
8
BLACK
6
CONTINUOUS
10
127.473
20
-90.6792
11
127.568
21
-90.584
0
LINE
8
BLACK
6
CONTINUOUS
10
128.33
20
-91.5364
11
128.33
21
-92.8697
0
LINE
8
BLACK
6
CONTINUOUS
10
128.33
20
-91.7269
11
128.425
21
-91.6316
0
LINE
8
BLACK
6
CONTINUOUS
10
128.425
20
-91.6316
11
128.615
21
-91.5364
0
LINE
8
BLACK
6
CONTINUOUS
10
128.615
20
-91.5364
11
128.901
21
-91.5364
0
LINE
8
BLACK
6
CONTINUOUS
10
128.901
20
-91.5364
11
129.092
21
-91.6316
0
LINE
8
BLACK
6
CONTINUOUS
10
129.092
20
-91.6316
11
129.187
21
-91.8221
0
LINE
8
BLACK
6
CONTINUOUS
10
129.187
20
-91.8221
11
129.187
21
-92.8697
0
LINE
8
BLACK
6
CONTINUOUS
10
130.425
20
-92.8697
11
130.234
21
-92.7745
0
LINE
8
BLACK
6
CONTINUOUS
10
130.234
20
-92.7745
11
130.139
21
-92.6792
0
LINE
8
BLACK
6
CONTINUOUS
10
130.139
20
-92.6792
11
130.044
21
-92.4888
0
LINE
8
BLACK
6
CONTINUOUS
10
130.044
20
-92.4888
11
130.044
21
-91.9173
0
LINE
8
BLACK
6
CONTINUOUS
10
130.044
20
-91.9173
11
130.139
21
-91.7269
0
LINE
8
BLACK
6
CONTINUOUS
10
130.139
20
-91.7269
11
130.234
21
-91.6316
0
LINE
8
BLACK
6
CONTINUOUS
10
130.234
20
-91.6316
11
130.425
21
-91.5364
0
LINE
8
BLACK
6
CONTINUOUS
10
130.425
20
-91.5364
11
130.711
21
-91.5364
0
LINE
8
BLACK
6
CONTINUOUS
10
130.711
20
-91.5364
11
130.901
21
-91.6316
0
LINE
8
BLACK
6
CONTINUOUS
10
130.901
20
-91.6316
11
130.996
21
-91.7269
0
LINE
8
BLACK
6
CONTINUOUS
10
130.996
20
-91.7269
11
131.092
21
-91.9173
0
LINE
8
BLACK
6
CONTINUOUS
10
131.092
20
-91.9173
11
131.092
21
-92.4888
0
LINE
8
BLACK
6
CONTINUOUS
10
131.092
20
-92.4888
11
130.996
21
-92.6792
0
LINE
8
BLACK
6
CONTINUOUS
10
130.996
20
-92.6792
11
130.901
21
-92.7745
0
LINE
8
BLACK
6
CONTINUOUS
10
130.901
20
-92.7745
11
130.711
21
-92.8697
0
LINE
8
BLACK
6
CONTINUOUS
10
130.711
20
-92.8697
11
130.425
21
-92.8697
0
LINE
8
BLACK
6
CONTINUOUS
10
131.663
20
-91.5364
11
132.425
21
-91.5364
0
LINE
8
BLACK
6
CONTINUOUS
10
131.949
20
-90.8697
11
131.949
21
-92.584
0
LINE
8
BLACK
6
CONTINUOUS
10
131.949
20
-92.584
11
132.044
21
-92.7745
0
LINE
8
BLACK
6
CONTINUOUS
10
132.044
20
-92.7745
11
132.234
21
-92.8697
0
LINE
8
BLACK
6
CONTINUOUS
10
132.234
20
-92.8697
11
132.425
21
-92.8697
0
LINE
8
BLACK
6
CONTINUOUS
10
134.615
20
-91.5364
11
134.615
21
-93.5364
0
LINE
8
BLACK
6
CONTINUOUS
10
134.615
20
-91.6316
11
134.806
21
-91.5364
0
LINE
8
BLACK
6
CONTINUOUS
10
134.806
20
-91.5364
11
135.187
21
-91.5364
0
LINE
8
BLACK
6
CONTINUOUS
10
135.187
20
-91.5364
11
135.377
21
-91.6316
0
LINE
8
BLACK
6
CONTINUOUS
10
135.377
20
-91.6316
11
135.473
21
-91.7269
0
LINE
8
BLACK
6
CONTINUOUS
10
135.473
20
-91.7269
11
135.568
21
-91.9173
0
LINE
8
BLACK
6
CONTINUOUS
10
135.568
20
-91.9173
11
135.568
21
-92.4888
0
LINE
8
BLACK
6
CONTINUOUS
10
135.568
20
-92.4888
11
135.473
21
-92.6792
0
LINE
8
BLACK
6
CONTINUOUS
10
135.473
20
-92.6792
11
135.377
21
-92.7745
0
LINE
8
BLACK
6
CONTINUOUS
10
135.377
20
-92.7745
11
135.187
21
-92.8697
0
LINE
8
BLACK
6
CONTINUOUS
10
135.187
20
-92.8697
11
134.806
21
-92.8697
0
LINE
8
BLACK
6
CONTINUOUS
10
134.806
20
-92.8697
11
134.615
21
-92.7745
0
LINE
8
BLACK
6
CONTINUOUS
10
136.711
20
-92.8697
11
136.52
21
-92.7745
0
LINE
8
BLACK
6
CONTINUOUS
10
136.52
20
-92.7745
11
136.425
21
-92.584
0
LINE
8
BLACK
6
CONTINUOUS
10
136.425
20
-92.584
11
136.425
21
-90.8697
0
LINE
8
BLACK
6
CONTINUOUS
10
138.33
20
-92.8697
11
138.33
21
-91.8221
0
LINE
8
BLACK
6
CONTINUOUS
10
138.33
20
-91.8221
11
138.234
21
-91.6316
0
LINE
8
BLACK
6
CONTINUOUS
10
138.234
20
-91.6316
11
138.044
21
-91.5364
0
LINE
8
BLACK
6
CONTINUOUS
10
138.044
20
-91.5364
11
137.663
21
-91.5364
0
LINE
8
BLACK
6
CONTINUOUS
10
137.663
20
-91.5364
11
137.473
21
-91.6316
0
LINE
8
BLACK
6
CONTINUOUS
10
138.33
20
-92.7745
11
138.139
21
-92.8697
0
LINE
8
BLACK
6
CONTINUOUS
10
138.139
20
-92.8697
11
137.663
21
-92.8697
0
LINE
8
BLACK
6
CONTINUOUS
10
137.663
20
-92.8697
11
137.473
21
-92.7745
0
LINE
8
BLACK
6
CONTINUOUS
10
137.473
20
-92.7745
11
137.377
21
-92.584
0
LINE
8
BLACK
6
CONTINUOUS
10
137.377
20
-92.584
11
137.377
21
-92.3935
0
LINE
8
BLACK
6
CONTINUOUS
10
137.377
20
-92.3935
11
137.473
21
-92.2031
0
LINE
8
BLACK
6
CONTINUOUS
10
137.473
20
-92.2031
11
137.663
21
-92.1078
0
LINE
8
BLACK
6
CONTINUOUS
10
137.663
20
-92.1078
11
138.139
21
-92.1078
0
LINE
8
BLACK
6
CONTINUOUS
10
138.139
20
-92.1078
11
138.33
21
-92.0126
0
LINE
8
BLACK
6
CONTINUOUS
10
138.996
20
-91.5364
11
139.758
21
-91.5364
0
LINE
8
BLACK
6
CONTINUOUS
10
139.282
20
-90.8697
11
139.282
21
-92.584
0
LINE
8
BLACK
6
CONTINUOUS
10
139.282
20
-92.584
11
139.377
21
-92.7745
0
LINE
8
BLACK
6
CONTINUOUS
10
139.377
20
-92.7745
11
139.568
21
-92.8697
0
LINE
8
BLACK
6
CONTINUOUS
10
139.568
20
-92.8697
11
139.758
21
-92.8697
0
LINE
8
BLACK
6
CONTINUOUS
10
141.187
20
-92.7745
11
140.996
21
-92.8697
0
LINE
8
BLACK
6
CONTINUOUS
10
140.996
20
-92.8697
11
140.615
21
-92.8697
0
LINE
8
BLACK
6
CONTINUOUS
10
140.615
20
-92.8697
11
140.425
21
-92.7745
0
LINE
8
BLACK
6
CONTINUOUS
10
140.425
20
-92.7745
11
140.33
21
-92.584
0
LINE
8
BLACK
6
CONTINUOUS
10
140.33
20
-92.584
11
140.33
21
-91.8221
0
LINE
8
BLACK
6
CONTINUOUS
10
140.33
20
-91.8221
11
140.425
21
-91.6316
0
LINE
8
BLACK
6
CONTINUOUS
10
140.425
20
-91.6316
11
140.615
21
-91.5364
0
LINE
8
BLACK
6
CONTINUOUS
10
140.615
20
-91.5364
11
140.996
21
-91.5364
0
LINE
8
BLACK
6
CONTINUOUS
10
140.996
20
-91.5364
11
141.187
21
-91.6316
0
LINE
8
BLACK
6
CONTINUOUS
10
141.187
20
-91.6316
11
141.282
21
-91.8221
0
LINE
8
BLACK
6
CONTINUOUS
10
141.282
20
-91.8221
11
141.282
21
-92.0126
0
LINE
8
BLACK
6
CONTINUOUS
10
141.282
20
-92.0126
11
140.33
21
-92.2031
0
LINE
8
BLACK
6
CONTINUOUS
10
142.996
20
-92.8697
11
142.996
21
-90.8697
0
LINE
8
BLACK
6
CONTINUOUS
10
142.996
20
-92.7745
11
142.806
21
-92.8697
0
LINE
8
BLACK
6
CONTINUOUS
10
142.806
20
-92.8697
11
142.425
21
-92.8697
0
LINE
8
BLACK
6
CONTINUOUS
10
142.425
20
-92.8697
11
142.234
21
-92.7745
0
LINE
8
BLACK
6
CONTINUOUS
10
142.234
20
-92.7745
11
142.139
21
-92.6792
0
LINE
8
BLACK
6
CONTINUOUS
10
142.139
20
-92.6792
11
142.044
21
-92.4888
0
LINE
8
BLACK
6
CONTINUOUS
10
142.044
20
-92.4888
11
142.044
21
-91.9173
0
LINE
8
BLACK
6
CONTINUOUS
10
142.044
20
-91.9173
11
142.139
21
-91.7269
0
LINE
8
BLACK
6
CONTINUOUS
10
142.139
20
-91.7269
11
142.234
21
-91.6316
0
LINE
8
BLACK
6
CONTINUOUS
10
142.234
20
-91.6316
11
142.425
21
-91.5364
0
LINE
8
BLACK
6
CONTINUOUS
10
142.425
20
-91.5364
11
142.806
21
-91.5364
0
LINE
8
BLACK
6
CONTINUOUS
10
142.806
20
-91.5364
11
142.996
21
-91.6316
0
LINE
8
BLACK
6
CONTINUOUS
10
143.758
20
-93.6316
11
143.854
21
-93.5364
0
LINE
8
BLACK
6
CONTINUOUS
10
143.854
20
-93.5364
11
144.044
21
-93.2507
0
LINE
8
BLACK
6
CONTINUOUS
10
144.044
20
-93.2507
11
144.139
21
-93.0602
0
LINE
8
BLACK
6
CONTINUOUS
10
144.139
20
-93.0602
11
144.234
21
-92.7745
0
LINE
8
BLACK
6
CONTINUOUS
10
144.234
20
-92.7745
11
144.33
21
-92.2983
0
LINE
8
BLACK
6
CONTINUOUS
10
144.33
20
-92.2983
11
144.33
21
-91.9173
0
LINE
8
BLACK
6
CONTINUOUS
10
144.33
20
-91.9173
11
144.234
21
-91.4412
0
LINE
8
BLACK
6
CONTINUOUS
10
144.234
20
-91.4412
11
144.139
21
-91.1554
0
LINE
8
BLACK
6
CONTINUOUS
10
144.139
20
-91.1554
11
144.044
21
-90.965
0
LINE
8
BLACK
6
CONTINUOUS
10
144.044
20
-90.965
11
143.854
21
-90.6792
0
LINE
8
BLACK
6
CONTINUOUS
10
143.854
20
-90.6792
11
143.758
21
-90.584
0
LINE
8
BLACK
6
CONTINUOUS
10
73.4741
20
-93.7541
11
73.4741
21
-95.4559
0
LINE
8
BLACK
6
CONTINUOUS
10
72.6232
20
-94.605
11
74.325
21
-94.605
0
LINE
8
BLACK
6
CONTINUOUS
10
77.9488
20
-95.5097
11
76.8059
21
-95.5097
0
LINE
8
BLACK
6
CONTINUOUS
10
77.3773
20
-95.5097
11
77.3773
21
-93.5097
0
LINE
8
BLACK
6
CONTINUOUS
10
77.3773
20
-93.5097
11
77.1869
21
-93.7954
0
LINE
8
BLACK
6
CONTINUOUS
10
77.1869
20
-93.7954
11
76.9964
21
-93.9859
0
LINE
8
BLACK
6
CONTINUOUS
10
76.9964
20
-93.9859
11
76.8059
21
-94.0812
0
LINE
8
BLACK
6
CONTINUOUS
10
78.8059
20
-95.3192
11
78.9012
21
-95.4145
0
LINE
8
BLACK
6
CONTINUOUS
10
78.9012
20
-95.4145
11
78.8059
21
-95.5097
0
LINE
8
BLACK
6
CONTINUOUS
10
78.8059
20
-95.5097
11
78.7107
21
-95.4145
0
LINE
8
BLACK
6
CONTINUOUS
10
78.7107
20
-95.4145
11
78.8059
21
-95.3192
0
LINE
8
BLACK
6
CONTINUOUS
10
78.8059
20
-95.3192
11
78.8059
21
-95.5097
0
LINE
8
BLACK
6
CONTINUOUS
10
79.5678
20
-93.5097
11
80.9012
21
-93.5097
0
LINE
8
BLACK
6
CONTINUOUS
10
80.9012
20
-93.5097
11
80.044
21
-95.5097
0
LINE
8
BLACK
6
CONTINUOUS
10
82.044
20
-93.5097
11
82.2345
21
-93.5097
0
LINE
8
BLACK
6
CONTINUOUS
10
82.2345
20
-93.5097
11
82.425
21
-93.605
0
LINE
8
BLACK
6
CONTINUOUS
10
82.425
20
-93.605
11
82.5202
21
-93.7002
0
LINE
8
BLACK
6
CONTINUOUS
10
82.5202
20
-93.7002
11
82.6154
21
-93.8907
0
LINE
8
BLACK
6
CONTINUOUS
10
82.6154
20
-93.8907
11
82.7107
21
-94.2716
0
LINE
8
BLACK
6
CONTINUOUS
10
82.7107
20
-94.2716
11
82.7107
21
-94.7478
0
LINE
8
BLACK
6
CONTINUOUS
10
82.7107
20
-94.7478
11
82.6154
21
-95.1288
0
LINE
8
BLACK
6
CONTINUOUS
10
82.6154
20
-95.1288
11
82.5202
21
-95.3192
0
LINE
8
BLACK
6
CONTINUOUS
10
82.5202
20
-95.3192
11
82.425
21
-95.4145
0
LINE
8
BLACK
6
CONTINUOUS
10
82.425
20
-95.4145
11
82.2345
21
-95.5097
0
LINE
8
BLACK
6
CONTINUOUS
10
82.2345
20
-95.5097
11
82.044
21
-95.5097
0
LINE
8
BLACK
6
CONTINUOUS
10
82.044
20
-95.5097
11
81.8535
21
-95.4145
0
LINE
8
BLACK
6
CONTINUOUS
10
81.8535
20
-95.4145
11
81.7583
21
-95.3192
0
LINE
8
BLACK
6
CONTINUOUS
10
81.7583
20
-95.3192
11
81.6631
21
-95.1288
0
LINE
8
BLACK
6
CONTINUOUS
10
81.6631
20
-95.1288
11
81.5678
21
-94.7478
0
LINE
8
BLACK
6
CONTINUOUS
10
81.5678
20
-94.7478
11
81.5678
21
-94.2716
0
LINE
8
BLACK
6
CONTINUOUS
10
81.5678
20
-94.2716
11
81.6631
21
-93.8907
0
LINE
8
BLACK
6
CONTINUOUS
10
81.6631
20
-93.8907
11
81.7583
21
-93.7002
0
LINE
8
BLACK
6
CONTINUOUS
10
81.7583
20
-93.7002
11
81.8535
21
-93.605
0
LINE
8
BLACK
6
CONTINUOUS
10
81.8535
20
-93.605
11
82.044
21
-93.5097
0
LINE
8
BLACK
6
CONTINUOUS
10
83.4726
20
-93.7002
11
83.5678
21
-93.605
0
LINE
8
BLACK
6
CONTINUOUS
10
83.5678
20
-93.605
11
83.7583
21
-93.5097
0
LINE
8
BLACK
6
CONTINUOUS
10
83.7583
20
-93.5097
11
84.2345
21
-93.5097
0
LINE
8
BLACK
6
CONTINUOUS
10
84.2345
20
-93.5097
11
84.425
21
-93.605
0
LINE
8
BLACK
6
CONTINUOUS
10
84.425
20
-93.605
11
84.5202
21
-93.7002
0
LINE
8
BLACK
6
CONTINUOUS
10
84.5202
20
-93.7002
11
84.6154
21
-93.8907
0
LINE
8
BLACK
6
CONTINUOUS
10
84.6154
20
-93.8907
11
84.6154
21
-94.0812
0
LINE
8
BLACK
6
CONTINUOUS
10
84.6154
20
-94.0812
11
84.5202
21
-94.3669
0
LINE
8
BLACK
6
CONTINUOUS
10
84.5202
20
-94.3669
11
83.3773
21
-95.5097
0
LINE
8
BLACK
6
CONTINUOUS
10
83.3773
20
-95.5097
11
84.6154
21
-95.5097
0
LINE
8
BLACK
6
CONTINUOUS
10
85.4726
20
-95.5097
11
85.4726
21
-94.1764
0
LINE
8
BLACK
6
CONTINUOUS
10
85.4726
20
-94.3669
11
85.5678
21
-94.2716
0
LINE
8
BLACK
6
CONTINUOUS
10
85.5678
20
-94.2716
11
85.7583
21
-94.1764
0
LINE
8
BLACK
6
CONTINUOUS
10
85.7583
20
-94.1764
11
86.044
21
-94.1764
0
LINE
8
BLACK
6
CONTINUOUS
10
86.044
20
-94.1764
11
86.2345
21
-94.2716
0
LINE
8
BLACK
6
CONTINUOUS
10
86.2345
20
-94.2716
11
86.3297
21
-94.4621
0
LINE
8
BLACK
6
CONTINUOUS
10
86.3297
20
-94.4621
11
86.3297
21
-95.5097
0
LINE
8
BLACK
6
CONTINUOUS
10
86.3297
20
-94.4621
11
86.425
21
-94.2716
0
LINE
8
BLACK
6
CONTINUOUS
10
86.425
20
-94.2716
11
86.6154
21
-94.1764
0
LINE
8
BLACK
6
CONTINUOUS
10
86.6154
20
-94.1764
11
86.9012
21
-94.1764
0
LINE
8
BLACK
6
CONTINUOUS
10
86.9012
20
-94.1764
11
87.0916
21
-94.2716
0
LINE
8
BLACK
6
CONTINUOUS
10
87.0916
20
-94.2716
11
87.1869
21
-94.4621
0
LINE
8
BLACK
6
CONTINUOUS
10
87.1869
20
-94.4621
11
87.1869
21
-95.5097
0
LINE
8
BLACK
6
CONTINUOUS
10
88.1392
20
-95.5097
11
88.1392
21
-94.1764
0
LINE
8
BLACK
6
CONTINUOUS
10
88.1392
20
-94.3669
11
88.2345
21
-94.2716
0
LINE
8
BLACK
6
CONTINUOUS
10
88.2345
20
-94.2716
11
88.425
21
-94.1764
0
LINE
8
BLACK
6
CONTINUOUS
10
88.425
20
-94.1764
11
88.7107
21
-94.1764
0
LINE
8
BLACK
6
CONTINUOUS
10
88.7107
20
-94.1764
11
88.9012
21
-94.2716
0
LINE
8
BLACK
6
CONTINUOUS
10
88.9012
20
-94.2716
11
88.9964
21
-94.4621
0
LINE
8
BLACK
6
CONTINUOUS
10
88.9964
20
-94.4621
11
88.9964
21
-95.5097
0
LINE
8
BLACK
6
CONTINUOUS
10
88.9964
20
-94.4621
11
89.0916
21
-94.2716
0
LINE
8
BLACK
6
CONTINUOUS
10
89.0916
20
-94.2716
11
89.2821
21
-94.1764
0
LINE
8
BLACK
6
CONTINUOUS
10
89.2821
20
-94.1764
11
89.5678
21
-94.1764
0
LINE
8
BLACK
6
CONTINUOUS
10
89.5678
20
-94.1764
11
89.7583
21
-94.2716
0
LINE
8
BLACK
6
CONTINUOUS
10
89.7583
20
-94.2716
11
89.8535
21
-94.4621
0
LINE
8
BLACK
6
CONTINUOUS
10
89.8535
20
-94.4621
11
89.8535
21
-95.5097
0
LINE
8
BLACK
6
CONTINUOUS
10
93.7583
20
-93.4145
11
92.044
21
-95.9859
0
LINE
8
BLACK
6
CONTINUOUS
10
96.3297
20
-93.5097
11
96.5202
21
-93.5097
0
LINE
8
BLACK
6
CONTINUOUS
10
96.5202
20
-93.5097
11
96.7107
21
-93.605
0
LINE
8
BLACK
6
CONTINUOUS
10
96.7107
20
-93.605
11
96.8059
21
-93.7002
0
LINE
8
BLACK
6
CONTINUOUS
10
96.8059
20
-93.7002
11
96.9012
21
-93.8907
0
LINE
8
BLACK
6
CONTINUOUS
10
96.9012
20
-93.8907
11
96.9964
21
-94.2716
0
LINE
8
BLACK
6
CONTINUOUS
10
96.9964
20
-94.2716
11
96.9964
21
-94.7478
0
LINE
8
BLACK
6
CONTINUOUS
10
96.9964
20
-94.7478
11
96.9012
21
-95.1288
0
LINE
8
BLACK
6
CONTINUOUS
10
96.9012
20
-95.1288
11
96.8059
21
-95.3192
0
LINE
8
BLACK
6
CONTINUOUS
10
96.8059
20
-95.3192
11
96.7107
21
-95.4145
0
LINE
8
BLACK
6
CONTINUOUS
10
96.7107
20
-95.4145
11
96.5202
21
-95.5097
0
LINE
8
BLACK
6
CONTINUOUS
10
96.5202
20
-95.5097
11
96.3297
21
-95.5097
0
LINE
8
BLACK
6
CONTINUOUS
10
96.3297
20
-95.5097
11
96.1392
21
-95.4145
0
LINE
8
BLACK
6
CONTINUOUS
10
96.1392
20
-95.4145
11
96.044
21
-95.3192
0
LINE
8
BLACK
6
CONTINUOUS
10
96.044
20
-95.3192
11
95.9488
21
-95.1288
0
LINE
8
BLACK
6
CONTINUOUS
10
95.9488
20
-95.1288
11
95.8535
21
-94.7478
0
LINE
8
BLACK
6
CONTINUOUS
10
95.8535
20
-94.7478
11
95.8535
21
-94.2716
0
LINE
8
BLACK
6
CONTINUOUS
10
95.8535
20
-94.2716
11
95.9488
21
-93.8907
0
LINE
8
BLACK
6
CONTINUOUS
10
95.9488
20
-93.8907
11
96.044
21
-93.7002
0
LINE
8
BLACK
6
CONTINUOUS
10
96.044
20
-93.7002
11
96.1392
21
-93.605
0
LINE
8
BLACK
6
CONTINUOUS
10
96.1392
20
-93.605
11
96.3297
21
-93.5097
0
LINE
8
BLACK
6
CONTINUOUS
10
97.8535
20
-95.3192
11
97.9488
21
-95.4145
0
LINE
8
BLACK
6
CONTINUOUS
10
97.9488
20
-95.4145
11
97.8535
21
-95.5097
0
LINE
8
BLACK
6
CONTINUOUS
10
97.8535
20
-95.5097
11
97.7583
21
-95.4145
0
LINE
8
BLACK
6
CONTINUOUS
10
97.7583
20
-95.4145
11
97.8535
21
-95.3192
0
LINE
8
BLACK
6
CONTINUOUS
10
97.8535
20
-95.3192
11
97.8535
21
-95.5097
0
LINE
8
BLACK
6
CONTINUOUS
10
99.1869
20
-93.5097
11
99.3773
21
-93.5097
0
LINE
8
BLACK
6
CONTINUOUS
10
99.3773
20
-93.5097
11
99.5678
21
-93.605
0
LINE
8
BLACK
6
CONTINUOUS
10
99.5678
20
-93.605
11
99.6631
21
-93.7002
0
LINE
8
BLACK
6
CONTINUOUS
10
99.6631
20
-93.7002
11
99.7583
21
-93.8907
0
LINE
8
BLACK
6
CONTINUOUS
10
99.7583
20
-93.8907
11
99.8535
21
-94.2716
0
LINE
8
BLACK
6
CONTINUOUS
10
99.8535
20
-94.2716
11
99.8535
21
-94.7478
0
LINE
8
BLACK
6
CONTINUOUS
10
99.8535
20
-94.7478
11
99.7583
21
-95.1288
0
LINE
8
BLACK
6
CONTINUOUS
10
99.7583
20
-95.1288
11
99.6631
21
-95.3192
0
LINE
8
BLACK
6
CONTINUOUS
10
99.6631
20
-95.3192
11
99.5678
21
-95.4145
0
LINE
8
BLACK
6
CONTINUOUS
10
99.5678
20
-95.4145
11
99.3773
21
-95.5097
0
LINE
8
BLACK
6
CONTINUOUS
10
99.3773
20
-95.5097
11
99.1869
21
-95.5097
0
LINE
8
BLACK
6
CONTINUOUS
10
99.1869
20
-95.5097
11
98.9964
21
-95.4145
0
LINE
8
BLACK
6
CONTINUOUS
10
98.9964
20
-95.4145
11
98.9012
21
-95.3192
0
LINE
8
BLACK
6
CONTINUOUS
10
98.9012
20
-95.3192
11
98.8059
21
-95.1288
0
LINE
8
BLACK
6
CONTINUOUS
10
98.8059
20
-95.1288
11
98.7107
21
-94.7478
0
LINE
8
BLACK
6
CONTINUOUS
10
98.7107
20
-94.7478
11
98.7107
21
-94.2716
0
LINE
8
BLACK
6
CONTINUOUS
10
98.7107
20
-94.2716
11
98.8059
21
-93.8907
0
LINE
8
BLACK
6
CONTINUOUS
10
98.8059
20
-93.8907
11
98.9012
21
-93.7002
0
LINE
8
BLACK
6
CONTINUOUS
10
98.9012
20
-93.7002
11
98.9964
21
-93.605
0
LINE
8
BLACK
6
CONTINUOUS
10
98.9964
20
-93.605
11
99.1869
21
-93.5097
0
LINE
8
BLACK
6
CONTINUOUS
10
101.568
20
-93.5097
11
101.187
21
-93.5097
0
LINE
8
BLACK
6
CONTINUOUS
10
101.187
20
-93.5097
11
100.996
21
-93.605
0
LINE
8
BLACK
6
CONTINUOUS
10
100.996
20
-93.605
11
100.901
21
-93.7002
0
LINE
8
BLACK
6
CONTINUOUS
10
100.901
20
-93.7002
11
100.711
21
-93.9859
0
LINE
8
BLACK
6
CONTINUOUS
10
100.711
20
-93.9859
11
100.615
21
-94.3669
0
LINE
8
BLACK
6
CONTINUOUS
10
100.615
20
-94.3669
11
100.615
21
-95.1288
0
LINE
8
BLACK
6
CONTINUOUS
10
100.615
20
-95.1288
11
100.711
21
-95.3192
0
LINE
8
BLACK
6
CONTINUOUS
10
100.711
20
-95.3192
11
100.806
21
-95.4145
0
LINE
8
BLACK
6
CONTINUOUS
10
100.806
20
-95.4145
11
100.996
21
-95.5097
0
LINE
8
BLACK
6
CONTINUOUS
10
100.996
20
-95.5097
11
101.377
21
-95.5097
0
LINE
8
BLACK
6
CONTINUOUS
10
101.377
20
-95.5097
11
101.568
21
-95.4145
0
LINE
8
BLACK
6
CONTINUOUS
10
101.568
20
-95.4145
11
101.663
21
-95.3192
0
LINE
8
BLACK
6
CONTINUOUS
10
101.663
20
-95.3192
11
101.758
21
-95.1288
0
LINE
8
BLACK
6
CONTINUOUS
10
101.758
20
-95.1288
11
101.758
21
-94.6526
0
LINE
8
BLACK
6
CONTINUOUS
10
101.758
20
-94.6526
11
101.663
21
-94.4621
0
LINE
8
BLACK
6
CONTINUOUS
10
101.663
20
-94.4621
11
101.568
21
-94.3669
0
LINE
8
BLACK
6
CONTINUOUS
10
101.568
20
-94.3669
11
101.377
21
-94.2716
0
LINE
8
BLACK
6
CONTINUOUS
10
101.377
20
-94.2716
11
100.996
21
-94.2716
0
LINE
8
BLACK
6
CONTINUOUS
10
100.996
20
-94.2716
11
100.806
21
-94.3669
0
LINE
8
BLACK
6
CONTINUOUS
10
100.806
20
-94.3669
11
100.711
21
-94.4621
0
LINE
8
BLACK
6
CONTINUOUS
10
100.711
20
-94.4621
11
100.615
21
-94.6526
0
LINE
8
BLACK
6
CONTINUOUS
10
102.425
20
-93.5097
11
103.758
21
-93.5097
0
LINE
8
BLACK
6
CONTINUOUS
10
103.758
20
-93.5097
11
102.901
21
-95.5097
0
LINE
8
BLACK
6
CONTINUOUS
10
104.901
20
-93.5097
11
105.092
21
-93.5097
0
LINE
8
BLACK
6
CONTINUOUS
10
105.092
20
-93.5097
11
105.282
21
-93.605
0
LINE
8
BLACK
6
CONTINUOUS
10
105.282
20
-93.605
11
105.377
21
-93.7002
0
LINE
8
BLACK
6
CONTINUOUS
10
105.377
20
-93.7002
11
105.473
21
-93.8907
0
LINE
8
BLACK
6
CONTINUOUS
10
105.473
20
-93.8907
11
105.568
21
-94.2716
0
LINE
8
BLACK
6
CONTINUOUS
10
105.568
20
-94.2716
11
105.568
21
-94.7478
0
LINE
8
BLACK
6
CONTINUOUS
10
105.568
20
-94.7478
11
105.473
21
-95.1288
0
LINE
8
BLACK
6
CONTINUOUS
10
105.473
20
-95.1288
11
105.377
21
-95.3192
0
LINE
8
BLACK
6
CONTINUOUS
10
105.377
20
-95.3192
11
105.282
21
-95.4145
0
LINE
8
BLACK
6
CONTINUOUS
10
105.282
20
-95.4145
11
105.092
21
-95.5097
0
LINE
8
BLACK
6
CONTINUOUS
10
105.092
20
-95.5097
11
104.901
21
-95.5097
0
LINE
8
BLACK
6
CONTINUOUS
10
104.901
20
-95.5097
11
104.711
21
-95.4145
0
LINE
8
BLACK
6
CONTINUOUS
10
104.711
20
-95.4145
11
104.615
21
-95.3192
0
LINE
8
BLACK
6
CONTINUOUS
10
104.615
20
-95.3192
11
104.52
21
-95.1288
0
LINE
8
BLACK
6
CONTINUOUS
10
104.52
20
-95.1288
11
104.425
21
-94.7478
0
LINE
8
BLACK
6
CONTINUOUS
10
104.425
20
-94.7478
11
104.425
21
-94.2716
0
LINE
8
BLACK
6
CONTINUOUS
10
104.425
20
-94.2716
11
104.52
21
-93.8907
0
LINE
8
BLACK
6
CONTINUOUS
10
104.52
20
-93.8907
11
104.615
21
-93.7002
0
LINE
8
BLACK
6
CONTINUOUS
10
104.615
20
-93.7002
11
104.711
21
-93.605
0
LINE
8
BLACK
6
CONTINUOUS
10
104.711
20
-93.605
11
104.901
21
-93.5097
0
LINE
8
BLACK
6
CONTINUOUS
10
106.33
20
-93.5097
11
106.33
21
-93.8907
0
LINE
8
BLACK
6
CONTINUOUS
10
107.092
20
-93.5097
11
107.092
21
-93.8907
0
LINE
8
BLACK
6
CONTINUOUS
10
110.044
20
-96.2716
11
109.949
21
-96.1764
0
LINE
8
BLACK
6
CONTINUOUS
10
109.949
20
-96.1764
11
109.758
21
-95.8907
0
LINE
8
BLACK
6
CONTINUOUS
10
109.758
20
-95.8907
11
109.663
21
-95.7002
0
LINE
8
BLACK
6
CONTINUOUS
10
109.663
20
-95.7002
11
109.568
21
-95.4145
0
LINE
8
BLACK
6
CONTINUOUS
10
109.568
20
-95.4145
11
109.473
21
-94.9383
0
LINE
8
BLACK
6
CONTINUOUS
10
109.473
20
-94.9383
11
109.473
21
-94.5573
0
LINE
8
BLACK
6
CONTINUOUS
10
109.473
20
-94.5573
11
109.568
21
-94.0812
0
LINE
8
BLACK
6
CONTINUOUS
10
109.568
20
-94.0812
11
109.663
21
-93.7954
0
LINE
8
BLACK
6
CONTINUOUS
10
109.663
20
-93.7954
11
109.758
21
-93.605
0
LINE
8
BLACK
6
CONTINUOUS
10
109.758
20
-93.605
11
109.949
21
-93.3192
0
LINE
8
BLACK
6
CONTINUOUS
10
109.949
20
-93.3192
11
110.044
21
-93.224
0
LINE
8
BLACK
6
CONTINUOUS
10
110.615
20
-93.5097
11
111.854
21
-93.5097
0
LINE
8
BLACK
6
CONTINUOUS
10
111.854
20
-93.5097
11
111.187
21
-94.2716
0
LINE
8
BLACK
6
CONTINUOUS
10
111.187
20
-94.2716
11
111.473
21
-94.2716
0
LINE
8
BLACK
6
CONTINUOUS
10
111.473
20
-94.2716
11
111.663
21
-94.3669
0
LINE
8
BLACK
6
CONTINUOUS
10
111.663
20
-94.3669
11
111.758
21
-94.4621
0
LINE
8
BLACK
6
CONTINUOUS
10
111.758
20
-94.4621
11
111.854
21
-94.6526
0
LINE
8
BLACK
6
CONTINUOUS
10
111.854
20
-94.6526
11
111.854
21
-95.1288
0
LINE
8
BLACK
6
CONTINUOUS
10
111.854
20
-95.1288
11
111.758
21
-95.3192
0
LINE
8
BLACK
6
CONTINUOUS
10
111.758
20
-95.3192
11
111.663
21
-95.4145
0
LINE
8
BLACK
6
CONTINUOUS
10
111.663
20
-95.4145
11
111.473
21
-95.5097
0
LINE
8
BLACK
6
CONTINUOUS
10
111.473
20
-95.5097
11
110.901
21
-95.5097
0
LINE
8
BLACK
6
CONTINUOUS
10
110.901
20
-95.5097
11
110.711
21
-95.4145
0
LINE
8
BLACK
6
CONTINUOUS
10
110.711
20
-95.4145
11
110.615
21
-95.3192
0
LINE
8
BLACK
6
CONTINUOUS
10
112.615
20
-93.7002
11
112.711
21
-93.605
0
LINE
8
BLACK
6
CONTINUOUS
10
112.711
20
-93.605
11
112.901
21
-93.5097
0
LINE
8
BLACK
6
CONTINUOUS
10
112.901
20
-93.5097
11
113.377
21
-93.5097
0
LINE
8
BLACK
6
CONTINUOUS
10
113.377
20
-93.5097
11
113.568
21
-93.605
0
LINE
8
BLACK
6
CONTINUOUS
10
113.568
20
-93.605
11
113.663
21
-93.7002
0
LINE
8
BLACK
6
CONTINUOUS
10
113.663
20
-93.7002
11
113.758
21
-93.8907
0
LINE
8
BLACK
6
CONTINUOUS
10
113.758
20
-93.8907
11
113.758
21
-94.0812
0
LINE
8
BLACK
6
CONTINUOUS
10
113.758
20
-94.0812
11
113.663
21
-94.3669
0
LINE
8
BLACK
6
CONTINUOUS
10
113.663
20
-94.3669
11
112.52
21
-95.5097
0
LINE
8
BLACK
6
CONTINUOUS
10
112.52
20
-95.5097
11
113.758
21
-95.5097
0
LINE
8
BLACK
6
CONTINUOUS
10
116.139
20
-95.5097
11
116.139
21
-93.5097
0
LINE
8
BLACK
6
CONTINUOUS
10
116.996
20
-95.5097
11
116.996
21
-94.4621
0
LINE
8
BLACK
6
CONTINUOUS
10
116.996
20
-94.4621
11
116.901
21
-94.2716
0
LINE
8
BLACK
6
CONTINUOUS
10
116.901
20
-94.2716
11
116.711
21
-94.1764
0
LINE
8
BLACK
6
CONTINUOUS
10
116.711
20
-94.1764
11
116.425
21
-94.1764
0
LINE
8
BLACK
6
CONTINUOUS
10
116.425
20
-94.1764
11
116.234
21
-94.2716
0
LINE
8
BLACK
6
CONTINUOUS
10
116.234
20
-94.2716
11
116.139
21
-94.3669
0
LINE
8
BLACK
6
CONTINUOUS
10
118.234
20
-95.5097
11
118.044
21
-95.4145
0
LINE
8
BLACK
6
CONTINUOUS
10
118.044
20
-95.4145
11
117.949
21
-95.3192
0
LINE
8
BLACK
6
CONTINUOUS
10
117.949
20
-95.3192
11
117.854
21
-95.1288
0
LINE
8
BLACK
6
CONTINUOUS
10
117.854
20
-95.1288
11
117.854
21
-94.5573
0
LINE
8
BLACK
6
CONTINUOUS
10
117.854
20
-94.5573
11
117.949
21
-94.3669
0
LINE
8
BLACK
6
CONTINUOUS
10
117.949
20
-94.3669
11
118.044
21
-94.2716
0
LINE
8
BLACK
6
CONTINUOUS
10
118.044
20
-94.2716
11
118.234
21
-94.1764
0
LINE
8
BLACK
6
CONTINUOUS
10
118.234
20
-94.1764
11
118.52
21
-94.1764
0
LINE
8
BLACK
6
CONTINUOUS
10
118.52
20
-94.1764
11
118.711
21
-94.2716
0
LINE
8
BLACK
6
CONTINUOUS
10
118.711
20
-94.2716
11
118.806
21
-94.3669
0
LINE
8
BLACK
6
CONTINUOUS
10
118.806
20
-94.3669
11
118.901
21
-94.5573
0
LINE
8
BLACK
6
CONTINUOUS
10
118.901
20
-94.5573
11
118.901
21
-95.1288
0
LINE
8
BLACK
6
CONTINUOUS
10
118.901
20
-95.1288
11
118.806
21
-95.3192
0
LINE
8
BLACK
6
CONTINUOUS
10
118.806
20
-95.3192
11
118.711
21
-95.4145
0
LINE
8
BLACK
6
CONTINUOUS
10
118.711
20
-95.4145
11
118.52
21
-95.5097
0
LINE
8
BLACK
6
CONTINUOUS
10
118.52
20
-95.5097
11
118.234
21
-95.5097
0
LINE
8
BLACK
6
CONTINUOUS
10
120.044
20
-95.5097
11
119.854
21
-95.4145
0
LINE
8
BLACK
6
CONTINUOUS
10
119.854
20
-95.4145
11
119.758
21
-95.224
0
LINE
8
BLACK
6
CONTINUOUS
10
119.758
20
-95.224
11
119.758
21
-93.5097
0
LINE
8
BLACK
6
CONTINUOUS
10
121.568
20
-95.4145
11
121.377
21
-95.5097
0
LINE
8
BLACK
6
CONTINUOUS
10
121.377
20
-95.5097
11
120.996
21
-95.5097
0
LINE
8
BLACK
6
CONTINUOUS
10
120.996
20
-95.5097
11
120.806
21
-95.4145
0
LINE
8
BLACK
6
CONTINUOUS
10
120.806
20
-95.4145
11
120.711
21
-95.224
0
LINE
8
BLACK
6
CONTINUOUS
10
120.711
20
-95.224
11
120.711
21
-94.4621
0
LINE
8
BLACK
6
CONTINUOUS
10
120.711
20
-94.4621
11
120.806
21
-94.2716
0
LINE
8
BLACK
6
CONTINUOUS
10
120.806
20
-94.2716
11
120.996
21
-94.1764
0
LINE
8
BLACK
6
CONTINUOUS
10
120.996
20
-94.1764
11
121.377
21
-94.1764
0
LINE
8
BLACK
6
CONTINUOUS
10
121.377
20
-94.1764
11
121.568
21
-94.2716
0
LINE
8
BLACK
6
CONTINUOUS
10
121.568
20
-94.2716
11
121.663
21
-94.4621
0
LINE
8
BLACK
6
CONTINUOUS
10
121.663
20
-94.4621
11
121.663
21
-94.6526
0
LINE
8
BLACK
6
CONTINUOUS
10
121.663
20
-94.6526
11
120.711
21
-94.8431
0
LINE
8
BLACK
6
CONTINUOUS
10
122.425
20
-95.4145
11
122.615
21
-95.5097
0
LINE
8
BLACK
6
CONTINUOUS
10
122.615
20
-95.5097
11
122.996
21
-95.5097
0
LINE
8
BLACK
6
CONTINUOUS
10
122.996
20
-95.5097
11
123.187
21
-95.4145
0
LINE
8
BLACK
6
CONTINUOUS
10
123.187
20
-95.4145
11
123.282
21
-95.224
0
LINE
8
BLACK
6
CONTINUOUS
10
123.282
20
-95.224
11
123.282
21
-95.1288
0
LINE
8
BLACK
6
CONTINUOUS
10
123.282
20
-95.1288
11
123.187
21
-94.9383
0
LINE
8
BLACK
6
CONTINUOUS
10
123.187
20
-94.9383
11
122.996
21
-94.8431
0
LINE
8
BLACK
6
CONTINUOUS
10
122.996
20
-94.8431
11
122.711
21
-94.8431
0
LINE
8
BLACK
6
CONTINUOUS
10
122.711
20
-94.8431
11
122.52
21
-94.7478
0
LINE
8
BLACK
6
CONTINUOUS
10
122.52
20
-94.7478
11
122.425
21
-94.5573
0
LINE
8
BLACK
6
CONTINUOUS
10
122.425
20
-94.5573
11
122.425
21
-94.4621
0
LINE
8
BLACK
6
CONTINUOUS
10
122.425
20
-94.4621
11
122.52
21
-94.2716
0
LINE
8
BLACK
6
CONTINUOUS
10
122.52
20
-94.2716
11
122.711
21
-94.1764
0
LINE
8
BLACK
6
CONTINUOUS
10
122.711
20
-94.1764
11
122.996
21
-94.1764
0
LINE
8
BLACK
6
CONTINUOUS
10
122.996
20
-94.1764
11
123.187
21
-94.2716
0
LINE
8
BLACK
6
CONTINUOUS
10
123.949
20
-96.2716
11
124.044
21
-96.1764
0
LINE
8
BLACK
6
CONTINUOUS
10
124.044
20
-96.1764
11
124.234
21
-95.8907
0
LINE
8
BLACK
6
CONTINUOUS
10
124.234
20
-95.8907
11
124.33
21
-95.7002
0
LINE
8
BLACK
6
CONTINUOUS
10
124.33
20
-95.7002
11
124.425
21
-95.4145
0
LINE
8
BLACK
6
CONTINUOUS
10
124.425
20
-95.4145
11
124.52
21
-94.9383
0
LINE
8
BLACK
6
CONTINUOUS
10
124.52
20
-94.9383
11
124.52
21
-94.5573
0
LINE
8
BLACK
6
CONTINUOUS
10
124.52
20
-94.5573
11
124.425
21
-94.0812
0
LINE
8
BLACK
6
CONTINUOUS
10
124.425
20
-94.0812
11
124.33
21
-93.7954
0
LINE
8
BLACK
6
CONTINUOUS
10
124.33
20
-93.7954
11
124.234
21
-93.605
0
LINE
8
BLACK
6
CONTINUOUS
10
124.234
20
-93.605
11
124.044
21
-93.3192
0
LINE
8
BLACK
6
CONTINUOUS
10
124.044
20
-93.3192
11
123.949
21
-93.224
0
LINE
8
BLACK
6
CONTINUOUS
10
127.568
20
-96.2716
11
127.473
21
-96.1764
0
LINE
8
BLACK
6
CONTINUOUS
10
127.473
20
-96.1764
11
127.282
21
-95.8907
0
LINE
8
BLACK
6
CONTINUOUS
10
127.282
20
-95.8907
11
127.187
21
-95.7002
0
LINE
8
BLACK
6
CONTINUOUS
10
127.187
20
-95.7002
11
127.092
21
-95.4145
0
LINE
8
BLACK
6
CONTINUOUS
10
127.092
20
-95.4145
11
126.996
21
-94.9383
0
LINE
8
BLACK
6
CONTINUOUS
10
126.996
20
-94.9383
11
126.996
21
-94.5573
0
LINE
8
BLACK
6
CONTINUOUS
10
126.996
20
-94.5573
11
127.092
21
-94.0812
0
LINE
8
BLACK
6
CONTINUOUS
10
127.092
20
-94.0812
11
127.187
21
-93.7954
0
LINE
8
BLACK
6
CONTINUOUS
10
127.187
20
-93.7954
11
127.282
21
-93.605
0
LINE
8
BLACK
6
CONTINUOUS
10
127.282
20
-93.605
11
127.473
21
-93.3192
0
LINE
8
BLACK
6
CONTINUOUS
10
127.473
20
-93.3192
11
127.568
21
-93.224
0
LINE
8
BLACK
6
CONTINUOUS
10
128.33
20
-94.1764
11
128.33
21
-95.5097
0
LINE
8
BLACK
6
CONTINUOUS
10
128.33
20
-94.3669
11
128.425
21
-94.2716
0
LINE
8
BLACK
6
CONTINUOUS
10
128.425
20
-94.2716
11
128.615
21
-94.1764
0
LINE
8
BLACK
6
CONTINUOUS
10
128.615
20
-94.1764
11
128.901
21
-94.1764
0
LINE
8
BLACK
6
CONTINUOUS
10
128.901
20
-94.1764
11
129.092
21
-94.2716
0
LINE
8
BLACK
6
CONTINUOUS
10
129.092
20
-94.2716
11
129.187
21
-94.4621
0
LINE
8
BLACK
6
CONTINUOUS
10
129.187
20
-94.4621
11
129.187
21
-95.5097
0
LINE
8
BLACK
6
CONTINUOUS
10
130.425
20
-95.5097
11
130.234
21
-95.4145
0
LINE
8
BLACK
6
CONTINUOUS
10
130.234
20
-95.4145
11
130.139
21
-95.3192
0
LINE
8
BLACK
6
CONTINUOUS
10
130.139
20
-95.3192
11
130.044
21
-95.1288
0
LINE
8
BLACK
6
CONTINUOUS
10
130.044
20
-95.1288
11
130.044
21
-94.5573
0
LINE
8
BLACK
6
CONTINUOUS
10
130.044
20
-94.5573
11
130.139
21
-94.3669
0
LINE
8
BLACK
6
CONTINUOUS
10
130.139
20
-94.3669
11
130.234
21
-94.2716
0
LINE
8
BLACK
6
CONTINUOUS
10
130.234
20
-94.2716
11
130.425
21
-94.1764
0
LINE
8
BLACK
6
CONTINUOUS
10
130.425
20
-94.1764
11
130.711
21
-94.1764
0
LINE
8
BLACK
6
CONTINUOUS
10
130.711
20
-94.1764
11
130.901
21
-94.2716
0
LINE
8
BLACK
6
CONTINUOUS
10
130.901
20
-94.2716
11
130.996
21
-94.3669
0
LINE
8
BLACK
6
CONTINUOUS
10
130.996
20
-94.3669
11
131.092
21
-94.5573
0
LINE
8
BLACK
6
CONTINUOUS
10
131.092
20
-94.5573
11
131.092
21
-95.1288
0
LINE
8
BLACK
6
CONTINUOUS
10
131.092
20
-95.1288
11
130.996
21
-95.3192
0
LINE
8
BLACK
6
CONTINUOUS
10
130.996
20
-95.3192
11
130.901
21
-95.4145
0
LINE
8
BLACK
6
CONTINUOUS
10
130.901
20
-95.4145
11
130.711
21
-95.5097
0
LINE
8
BLACK
6
CONTINUOUS
10
130.711
20
-95.5097
11
130.425
21
-95.5097
0
LINE
8
BLACK
6
CONTINUOUS
10
131.663
20
-94.1764
11
132.425
21
-94.1764
0
LINE
8
BLACK
6
CONTINUOUS
10
131.949
20
-93.5097
11
131.949
21
-95.224
0
LINE
8
BLACK
6
CONTINUOUS
10
131.949
20
-95.224
11
132.044
21
-95.4145
0
LINE
8
BLACK
6
CONTINUOUS
10
132.044
20
-95.4145
11
132.234
21
-95.5097
0
LINE
8
BLACK
6
CONTINUOUS
10
132.234
20
-95.5097
11
132.425
21
-95.5097
0
LINE
8
BLACK
6
CONTINUOUS
10
134.615
20
-94.1764
11
134.615
21
-96.1764
0
LINE
8
BLACK
6
CONTINUOUS
10
134.615
20
-94.2716
11
134.806
21
-94.1764
0
LINE
8
BLACK
6
CONTINUOUS
10
134.806
20
-94.1764
11
135.187
21
-94.1764
0
LINE
8
BLACK
6
CONTINUOUS
10
135.187
20
-94.1764
11
135.377
21
-94.2716
0
LINE
8
BLACK
6
CONTINUOUS
10
135.377
20
-94.2716
11
135.473
21
-94.3669
0
LINE
8
BLACK
6
CONTINUOUS
10
135.473
20
-94.3669
11
135.568
21
-94.5573
0
LINE
8
BLACK
6
CONTINUOUS
10
135.568
20
-94.5573
11
135.568
21
-95.1288
0
LINE
8
BLACK
6
CONTINUOUS
10
135.568
20
-95.1288
11
135.473
21
-95.3192
0
LINE
8
BLACK
6
CONTINUOUS
10
135.473
20
-95.3192
11
135.377
21
-95.4145
0
LINE
8
BLACK
6
CONTINUOUS
10
135.377
20
-95.4145
11
135.187
21
-95.5097
0
LINE
8
BLACK
6
CONTINUOUS
10
135.187
20
-95.5097
11
134.806
21
-95.5097
0
LINE
8
BLACK
6
CONTINUOUS
10
134.806
20
-95.5097
11
134.615
21
-95.4145
0
LINE
8
BLACK
6
CONTINUOUS
10
136.711
20
-95.5097
11
136.52
21
-95.4145
0
LINE
8
BLACK
6
CONTINUOUS
10
136.52
20
-95.4145
11
136.425
21
-95.224
0
LINE
8
BLACK
6
CONTINUOUS
10
136.425
20
-95.224
11
136.425
21
-93.5097
0
LINE
8
BLACK
6
CONTINUOUS
10
138.33
20
-95.5097
11
138.33
21
-94.4621
0
LINE
8
BLACK
6
CONTINUOUS
10
138.33
20
-94.4621
11
138.234
21
-94.2716
0
LINE
8
BLACK
6
CONTINUOUS
10
138.234
20
-94.2716
11
138.044
21
-94.1764
0
LINE
8
BLACK
6
CONTINUOUS
10
138.044
20
-94.1764
11
137.663
21
-94.1764
0
LINE
8
BLACK
6
CONTINUOUS
10
137.663
20
-94.1764
11
137.473
21
-94.2716
0
LINE
8
BLACK
6
CONTINUOUS
10
138.33
20
-95.4145
11
138.139
21
-95.5097
0
LINE
8
BLACK
6
CONTINUOUS
10
138.139
20
-95.5097
11
137.663
21
-95.5097
0
LINE
8
BLACK
6
CONTINUOUS
10
137.663
20
-95.5097
11
137.473
21
-95.4145
0
LINE
8
BLACK
6
CONTINUOUS
10
137.473
20
-95.4145
11
137.377
21
-95.224
0
LINE
8
BLACK
6
CONTINUOUS
10
137.377
20
-95.224
11
137.377
21
-95.0335
0
LINE
8
BLACK
6
CONTINUOUS
10
137.377
20
-95.0335
11
137.473
21
-94.8431
0
LINE
8
BLACK
6
CONTINUOUS
10
137.473
20
-94.8431
11
137.663
21
-94.7478
0
LINE
8
BLACK
6
CONTINUOUS
10
137.663
20
-94.7478
11
138.139
21
-94.7478
0
LINE
8
BLACK
6
CONTINUOUS
10
138.139
20
-94.7478
11
138.33
21
-94.6526
0
LINE
8
BLACK
6
CONTINUOUS
10
138.996
20
-94.1764
11
139.758
21
-94.1764
0
LINE
8
BLACK
6
CONTINUOUS
10
139.282
20
-93.5097
11
139.282
21
-95.224
0
LINE
8
BLACK
6
CONTINUOUS
10
139.282
20
-95.224
11
139.377
21
-95.4145
0
LINE
8
BLACK
6
CONTINUOUS
10
139.377
20
-95.4145
11
139.568
21
-95.5097
0
LINE
8
BLACK
6
CONTINUOUS
10
139.568
20
-95.5097
11
139.758
21
-95.5097
0
LINE
8
BLACK
6
CONTINUOUS
10
141.187
20
-95.4145
11
140.996
21
-95.5097
0
LINE
8
BLACK
6
CONTINUOUS
10
140.996
20
-95.5097
11
140.615
21
-95.5097
0
LINE
8
BLACK
6
CONTINUOUS
10
140.615
20
-95.5097
11
140.425
21
-95.4145
0
LINE
8
BLACK
6
CONTINUOUS
10
140.425
20
-95.4145
11
140.33
21
-95.224
0
LINE
8
BLACK
6
CONTINUOUS
10
140.33
20
-95.224
11
140.33
21
-94.4621
0
LINE
8
BLACK
6
CONTINUOUS
10
140.33
20
-94.4621
11
140.425
21
-94.2716
0
LINE
8
BLACK
6
CONTINUOUS
10
140.425
20
-94.2716
11
140.615
21
-94.1764
0
LINE
8
BLACK
6
CONTINUOUS
10
140.615
20
-94.1764
11
140.996
21
-94.1764
0
LINE
8
BLACK
6
CONTINUOUS
10
140.996
20
-94.1764
11
141.187
21
-94.2716
0
LINE
8
BLACK
6
CONTINUOUS
10
141.187
20
-94.2716
11
141.282
21
-94.4621
0
LINE
8
BLACK
6
CONTINUOUS
10
141.282
20
-94.4621
11
141.282
21
-94.6526
0
LINE
8
BLACK
6
CONTINUOUS
10
141.282
20
-94.6526
11
140.33
21
-94.8431
0
LINE
8
BLACK
6
CONTINUOUS
10
142.996
20
-95.5097
11
142.996
21
-93.5097
0
LINE
8
BLACK
6
CONTINUOUS
10
142.996
20
-95.4145
11
142.806
21
-95.5097
0
LINE
8
BLACK
6
CONTINUOUS
10
142.806
20
-95.5097
11
142.425
21
-95.5097
0
LINE
8
BLACK
6
CONTINUOUS
10
142.425
20
-95.5097
11
142.234
21
-95.4145
0
LINE
8
BLACK
6
CONTINUOUS
10
142.234
20
-95.4145
11
142.139
21
-95.3192
0
LINE
8
BLACK
6
CONTINUOUS
10
142.139
20
-95.3192
11
142.044
21
-95.1288
0
LINE
8
BLACK
6
CONTINUOUS
10
142.044
20
-95.1288
11
142.044
21
-94.5573
0
LINE
8
BLACK
6
CONTINUOUS
10
142.044
20
-94.5573
11
142.139
21
-94.3669
0
LINE
8
BLACK
6
CONTINUOUS
10
142.139
20
-94.3669
11
142.234
21
-94.2716
0
LINE
8
BLACK
6
CONTINUOUS
10
142.234
20
-94.2716
11
142.425
21
-94.1764
0
LINE
8
BLACK
6
CONTINUOUS
10
142.425
20
-94.1764
11
142.806
21
-94.1764
0
LINE
8
BLACK
6
CONTINUOUS
10
142.806
20
-94.1764
11
142.996
21
-94.2716
0
LINE
8
BLACK
6
CONTINUOUS
10
143.758
20
-96.2716
11
143.854
21
-96.1764
0
LINE
8
BLACK
6
CONTINUOUS
10
143.854
20
-96.1764
11
144.044
21
-95.8907
0
LINE
8
BLACK
6
CONTINUOUS
10
144.044
20
-95.8907
11
144.139
21
-95.7002
0
LINE
8
BLACK
6
CONTINUOUS
10
144.139
20
-95.7002
11
144.234
21
-95.4145
0
LINE
8
BLACK
6
CONTINUOUS
10
144.234
20
-95.4145
11
144.33
21
-94.9383
0
LINE
8
BLACK
6
CONTINUOUS
10
144.33
20
-94.9383
11
144.33
21
-94.5573
0
LINE
8
BLACK
6
CONTINUOUS
10
144.33
20
-94.5573
11
144.234
21
-94.0812
0
LINE
8
BLACK
6
CONTINUOUS
10
144.234
20
-94.0812
11
144.139
21
-93.7954
0
LINE
8
BLACK
6
CONTINUOUS
10
144.139
20
-93.7954
11
144.044
21
-93.605
0
LINE
8
BLACK
6
CONTINUOUS
10
144.044
20
-93.605
11
143.854
21
-93.3192
0
LINE
8
BLACK
6
CONTINUOUS
10
143.854
20
-93.3192
11
143.758
21
-93.224
0
LINE
8
BLACK
6
CONTINUOUS
10
74.0321
20
-98.2139
11
74.0321
21
-96.7996
0
LINE
8
BLACK
6
CONTINUOUS
10
74.0321
20
-96.7996
11
72.6179
21
-96.7996
0
LINE
8
BLACK
6
CONTINUOUS
10
72.6179
20
-96.7996
11
72.6179
21
-98.2139
0
LINE
8
BLACK
6
CONTINUOUS
10
72.6179
20
-98.2139
11
74.0321
21
-98.2139
0
LINE
8
BLACK
6
CONTINUOUS
10
76.8059
20
-96.602
11
76.9012
21
-96.5068
0
LINE
8
BLACK
6
CONTINUOUS
10
76.9012
20
-96.5068
11
77.0916
21
-96.4115
0
LINE
8
BLACK
6
CONTINUOUS
10
77.0916
20
-96.4115
11
77.5678
21
-96.4115
0
LINE
8
BLACK
6
CONTINUOUS
10
77.5678
20
-96.4115
11
77.7583
21
-96.5068
0
LINE
8
BLACK
6
CONTINUOUS
10
77.7583
20
-96.5068
11
77.8535
21
-96.602
0
LINE
8
BLACK
6
CONTINUOUS
10
77.8535
20
-96.602
11
77.9488
21
-96.7925
0
LINE
8
BLACK
6
CONTINUOUS
10
77.9488
20
-96.7925
11
77.9488
21
-96.983
0
LINE
8
BLACK
6
CONTINUOUS
10
77.9488
20
-96.983
11
77.8535
21
-97.2687
0
LINE
8
BLACK
6
CONTINUOUS
10
77.8535
20
-97.2687
11
76.7107
21
-98.4115
0
LINE
8
BLACK
6
CONTINUOUS
10
76.7107
20
-98.4115
11
77.9488
21
-98.4115
0
LINE
8
BLACK
6
CONTINUOUS
10
78.8059
20
-98.221
11
78.9012
21
-98.3163
0
LINE
8
BLACK
6
CONTINUOUS
10
78.9012
20
-98.3163
11
78.8059
21
-98.4115
0
LINE
8
BLACK
6
CONTINUOUS
10
78.8059
20
-98.4115
11
78.7107
21
-98.3163
0
LINE
8
BLACK
6
CONTINUOUS
10
78.7107
20
-98.3163
11
78.8059
21
-98.221
0
LINE
8
BLACK
6
CONTINUOUS
10
78.8059
20
-98.221
11
78.8059
21
-98.4115
0
LINE
8
BLACK
6
CONTINUOUS
10
79.6631
20
-96.602
11
79.7583
21
-96.5068
0
LINE
8
BLACK
6
CONTINUOUS
10
79.7583
20
-96.5068
11
79.9488
21
-96.4115
0
LINE
8
BLACK
6
CONTINUOUS
10
79.9488
20
-96.4115
11
80.425
21
-96.4115
0
LINE
8
BLACK
6
CONTINUOUS
10
80.425
20
-96.4115
11
80.6154
21
-96.5068
0
LINE
8
BLACK
6
CONTINUOUS
10
80.6154
20
-96.5068
11
80.7107
21
-96.602
0
LINE
8
BLACK
6
CONTINUOUS
10
80.7107
20
-96.602
11
80.8059
21
-96.7925
0
LINE
8
BLACK
6
CONTINUOUS
10
80.8059
20
-96.7925
11
80.8059
21
-96.983
0
LINE
8
BLACK
6
CONTINUOUS
10
80.8059
20
-96.983
11
80.7107
21
-97.2687
0
LINE
8
BLACK
6
CONTINUOUS
10
80.7107
20
-97.2687
11
79.5678
21
-98.4115
0
LINE
8
BLACK
6
CONTINUOUS
10
79.5678
20
-98.4115
11
80.8059
21
-98.4115
0
LINE
8
BLACK
6
CONTINUOUS
10
82.044
20
-96.4115
11
82.2345
21
-96.4115
0
LINE
8
BLACK
6
CONTINUOUS
10
82.2345
20
-96.4115
11
82.425
21
-96.5068
0
LINE
8
BLACK
6
CONTINUOUS
10
82.425
20
-96.5068
11
82.5202
21
-96.602
0
LINE
8
BLACK
6
CONTINUOUS
10
82.5202
20
-96.602
11
82.6154
21
-96.7925
0
LINE
8
BLACK
6
CONTINUOUS
10
82.6154
20
-96.7925
11
82.7107
21
-97.1734
0
LINE
8
BLACK
6
CONTINUOUS
10
82.7107
20
-97.1734
11
82.7107
21
-97.6496
0
LINE
8
BLACK
6
CONTINUOUS
10
82.7107
20
-97.6496
11
82.6154
21
-98.0306
0
LINE
8
BLACK
6
CONTINUOUS
10
82.6154
20
-98.0306
11
82.5202
21
-98.221
0
LINE
8
BLACK
6
CONTINUOUS
10
82.5202
20
-98.221
11
82.425
21
-98.3163
0
LINE
8
BLACK
6
CONTINUOUS
10
82.425
20
-98.3163
11
82.2345
21
-98.4115
0
LINE
8
BLACK
6
CONTINUOUS
10
82.2345
20
-98.4115
11
82.044
21
-98.4115
0
LINE
8
BLACK
6
CONTINUOUS
10
82.044
20
-98.4115
11
81.8535
21
-98.3163
0
LINE
8
BLACK
6
CONTINUOUS
10
81.8535
20
-98.3163
11
81.7583
21
-98.221
0
LINE
8
BLACK
6
CONTINUOUS
10
81.7583
20
-98.221
11
81.6631
21
-98.0306
0
LINE
8
BLACK
6
CONTINUOUS
10
81.6631
20
-98.0306
11
81.5678
21
-97.6496
0
LINE
8
BLACK
6
CONTINUOUS
10
81.5678
20
-97.6496
11
81.5678
21
-97.1734
0
LINE
8
BLACK
6
CONTINUOUS
10
81.5678
20
-97.1734
11
81.6631
21
-96.7925
0
LINE
8
BLACK
6
CONTINUOUS
10
81.6631
20
-96.7925
11
81.7583
21
-96.602
0
LINE
8
BLACK
6
CONTINUOUS
10
81.7583
20
-96.602
11
81.8535
21
-96.5068
0
LINE
8
BLACK
6
CONTINUOUS
10
81.8535
20
-96.5068
11
82.044
21
-96.4115
0
LINE
8
BLACK
6
CONTINUOUS
10
83.9488
20
-96.4115
11
84.1392
21
-96.4115
0
LINE
8
BLACK
6
CONTINUOUS
10
84.1392
20
-96.4115
11
84.3297
21
-96.5068
0
LINE
8
BLACK
6
CONTINUOUS
10
84.3297
20
-96.5068
11
84.425
21
-96.602
0
LINE
8
BLACK
6
CONTINUOUS
10
84.425
20
-96.602
11
84.5202
21
-96.7925
0
LINE
8
BLACK
6
CONTINUOUS
10
84.5202
20
-96.7925
11
84.6154
21
-97.1734
0
LINE
8
BLACK
6
CONTINUOUS
10
84.6154
20
-97.1734
11
84.6154
21
-97.6496
0
LINE
8
BLACK
6
CONTINUOUS
10
84.6154
20
-97.6496
11
84.5202
21
-98.0306
0
LINE
8
BLACK
6
CONTINUOUS
10
84.5202
20
-98.0306
11
84.425
21
-98.221
0
LINE
8
BLACK
6
CONTINUOUS
10
84.425
20
-98.221
11
84.3297
21
-98.3163
0
LINE
8
BLACK
6
CONTINUOUS
10
84.3297
20
-98.3163
11
84.1392
21
-98.4115
0
LINE
8
BLACK
6
CONTINUOUS
10
84.1392
20
-98.4115
11
83.9488
21
-98.4115
0
LINE
8
BLACK
6
CONTINUOUS
10
83.9488
20
-98.4115
11
83.7583
21
-98.3163
0
LINE
8
BLACK
6
CONTINUOUS
10
83.7583
20
-98.3163
11
83.6631
21
-98.221
0
LINE
8
BLACK
6
CONTINUOUS
10
83.6631
20
-98.221
11
83.5678
21
-98.0306
0
LINE
8
BLACK
6
CONTINUOUS
10
83.5678
20
-98.0306
11
83.4726
21
-97.6496
0
LINE
8
BLACK
6
CONTINUOUS
10
83.4726
20
-97.6496
11
83.4726
21
-97.1734
0
LINE
8
BLACK
6
CONTINUOUS
10
83.4726
20
-97.1734
11
83.5678
21
-96.7925
0
LINE
8
BLACK
6
CONTINUOUS
10
83.5678
20
-96.7925
11
83.6631
21
-96.602
0
LINE
8
BLACK
6
CONTINUOUS
10
83.6631
20
-96.602
11
83.7583
21
-96.5068
0
LINE
8
BLACK
6
CONTINUOUS
10
83.7583
20
-96.5068
11
83.9488
21
-96.4115
0
LINE
8
BLACK
6
CONTINUOUS
10
85.4726
20
-98.4115
11
85.4726
21
-97.0782
0
LINE
8
BLACK
6
CONTINUOUS
10
85.4726
20
-97.2687
11
85.5678
21
-97.1734
0
LINE
8
BLACK
6
CONTINUOUS
10
85.5678
20
-97.1734
11
85.7583
21
-97.0782
0
LINE
8
BLACK
6
CONTINUOUS
10
85.7583
20
-97.0782
11
86.044
21
-97.0782
0
LINE
8
BLACK
6
CONTINUOUS
10
86.044
20
-97.0782
11
86.2345
21
-97.1734
0
LINE
8
BLACK
6
CONTINUOUS
10
86.2345
20
-97.1734
11
86.3297
21
-97.3639
0
LINE
8
BLACK
6
CONTINUOUS
10
86.3297
20
-97.3639
11
86.3297
21
-98.4115
0
LINE
8
BLACK
6
CONTINUOUS
10
86.3297
20
-97.3639
11
86.425
21
-97.1734
0
LINE
8
BLACK
6
CONTINUOUS
10
86.425
20
-97.1734
11
86.6154
21
-97.0782
0
LINE
8
BLACK
6
CONTINUOUS
10
86.6154
20
-97.0782
11
86.9012
21
-97.0782
0
LINE
8
BLACK
6
CONTINUOUS
10
86.9012
20
-97.0782
11
87.0916
21
-97.1734
0
LINE
8
BLACK
6
CONTINUOUS
10
87.0916
20
-97.1734
11
87.1869
21
-97.3639
0
LINE
8
BLACK
6
CONTINUOUS
10
87.1869
20
-97.3639
11
87.1869
21
-98.4115
0
LINE
8
BLACK
6
CONTINUOUS
10
88.1392
20
-98.4115
11
88.1392
21
-97.0782
0
LINE
8
BLACK
6
CONTINUOUS
10
88.1392
20
-97.2687
11
88.2345
21
-97.1734
0
LINE
8
BLACK
6
CONTINUOUS
10
88.2345
20
-97.1734
11
88.425
21
-97.0782
0
LINE
8
BLACK
6
CONTINUOUS
10
88.425
20
-97.0782
11
88.7107
21
-97.0782
0
LINE
8
BLACK
6
CONTINUOUS
10
88.7107
20
-97.0782
11
88.9012
21
-97.1734
0
LINE
8
BLACK
6
CONTINUOUS
10
88.9012
20
-97.1734
11
88.9964
21
-97.3639
0
LINE
8
BLACK
6
CONTINUOUS
10
88.9964
20
-97.3639
11
88.9964
21
-98.4115
0
LINE
8
BLACK
6
CONTINUOUS
10
88.9964
20
-97.3639
11
89.0916
21
-97.1734
0
LINE
8
BLACK
6
CONTINUOUS
10
89.0916
20
-97.1734
11
89.2821
21
-97.0782
0
LINE
8
BLACK
6
CONTINUOUS
10
89.2821
20
-97.0782
11
89.5678
21
-97.0782
0
LINE
8
BLACK
6
CONTINUOUS
10
89.5678
20
-97.0782
11
89.7583
21
-97.1734
0
LINE
8
BLACK
6
CONTINUOUS
10
89.7583
20
-97.1734
11
89.8535
21
-97.3639
0
LINE
8
BLACK
6
CONTINUOUS
10
89.8535
20
-97.3639
11
89.8535
21
-98.4115
0
LINE
8
BLACK
6
CONTINUOUS
10
93.7583
20
-96.3163
11
92.044
21
-98.8877
0
LINE
8
BLACK
6
CONTINUOUS
10
96.3297
20
-96.4115
11
96.5202
21
-96.4115
0
LINE
8
BLACK
6
CONTINUOUS
10
96.5202
20
-96.4115
11
96.7107
21
-96.5068
0
LINE
8
BLACK
6
CONTINUOUS
10
96.7107
20
-96.5068
11
96.8059
21
-96.602
0
LINE
8
BLACK
6
CONTINUOUS
10
96.8059
20
-96.602
11
96.9012
21
-96.7925
0
LINE
8
BLACK
6
CONTINUOUS
10
96.9012
20
-96.7925
11
96.9964
21
-97.1734
0
LINE
8
BLACK
6
CONTINUOUS
10
96.9964
20
-97.1734
11
96.9964
21
-97.6496
0
LINE
8
BLACK
6
CONTINUOUS
10
96.9964
20
-97.6496
11
96.9012
21
-98.0306
0
LINE
8
BLACK
6
CONTINUOUS
10
96.9012
20
-98.0306
11
96.8059
21
-98.221
0
LINE
8
BLACK
6
CONTINUOUS
10
96.8059
20
-98.221
11
96.7107
21
-98.3163
0
LINE
8
BLACK
6
CONTINUOUS
10
96.7107
20
-98.3163
11
96.5202
21
-98.4115
0
LINE
8
BLACK
6
CONTINUOUS
10
96.5202
20
-98.4115
11
96.3297
21
-98.4115
0
LINE
8
BLACK
6
CONTINUOUS
10
96.3297
20
-98.4115
11
96.1392
21
-98.3163
0
LINE
8
BLACK
6
CONTINUOUS
10
96.1392
20
-98.3163
11
96.044
21
-98.221
0
LINE
8
BLACK
6
CONTINUOUS
10
96.044
20
-98.221
11
95.9488
21
-98.0306
0
LINE
8
BLACK
6
CONTINUOUS
10
95.9488
20
-98.0306
11
95.8535
21
-97.6496
0
LINE
8
BLACK
6
CONTINUOUS
10
95.8535
20
-97.6496
11
95.8535
21
-97.1734
0
LINE
8
BLACK
6
CONTINUOUS
10
95.8535
20
-97.1734
11
95.9488
21
-96.7925
0
LINE
8
BLACK
6
CONTINUOUS
10
95.9488
20
-96.7925
11
96.044
21
-96.602
0
LINE
8
BLACK
6
CONTINUOUS
10
96.044
20
-96.602
11
96.1392
21
-96.5068
0
LINE
8
BLACK
6
CONTINUOUS
10
96.1392
20
-96.5068
11
96.3297
21
-96.4115
0
LINE
8
BLACK
6
CONTINUOUS
10
97.8535
20
-98.221
11
97.9488
21
-98.3163
0
LINE
8
BLACK
6
CONTINUOUS
10
97.9488
20
-98.3163
11
97.8535
21
-98.4115
0
LINE
8
BLACK
6
CONTINUOUS
10
97.8535
20
-98.4115
11
97.7583
21
-98.3163
0
LINE
8
BLACK
6
CONTINUOUS
10
97.7583
20
-98.3163
11
97.8535
21
-98.221
0
LINE
8
BLACK
6
CONTINUOUS
10
97.8535
20
-98.221
11
97.8535
21
-98.4115
0
LINE
8
BLACK
6
CONTINUOUS
10
99.1869
20
-96.4115
11
99.3773
21
-96.4115
0
LINE
8
BLACK
6
CONTINUOUS
10
99.3773
20
-96.4115
11
99.5678
21
-96.5068
0
LINE
8
BLACK
6
CONTINUOUS
10
99.5678
20
-96.5068
11
99.6631
21
-96.602
0
LINE
8
BLACK
6
CONTINUOUS
10
99.6631
20
-96.602
11
99.7583
21
-96.7925
0
LINE
8
BLACK
6
CONTINUOUS
10
99.7583
20
-96.7925
11
99.8535
21
-97.1734
0
LINE
8
BLACK
6
CONTINUOUS
10
99.8535
20
-97.1734
11
99.8535
21
-97.6496
0
LINE
8
BLACK
6
CONTINUOUS
10
99.8535
20
-97.6496
11
99.7583
21
-98.0306
0
LINE
8
BLACK
6
CONTINUOUS
10
99.7583
20
-98.0306
11
99.6631
21
-98.221
0
LINE
8
BLACK
6
CONTINUOUS
10
99.6631
20
-98.221
11
99.5678
21
-98.3163
0
LINE
8
BLACK
6
CONTINUOUS
10
99.5678
20
-98.3163
11
99.3773
21
-98.4115
0
LINE
8
BLACK
6
CONTINUOUS
10
99.3773
20
-98.4115
11
99.1869
21
-98.4115
0
LINE
8
BLACK
6
CONTINUOUS
10
99.1869
20
-98.4115
11
98.9964
21
-98.3163
0
LINE
8
BLACK
6
CONTINUOUS
10
98.9964
20
-98.3163
11
98.9012
21
-98.221
0
LINE
8
BLACK
6
CONTINUOUS
10
98.9012
20
-98.221
11
98.8059
21
-98.0306
0
LINE
8
BLACK
6
CONTINUOUS
10
98.8059
20
-98.0306
11
98.7107
21
-97.6496
0
LINE
8
BLACK
6
CONTINUOUS
10
98.7107
20
-97.6496
11
98.7107
21
-97.1734
0
LINE
8
BLACK
6
CONTINUOUS
10
98.7107
20
-97.1734
11
98.8059
21
-96.7925
0
LINE
8
BLACK
6
CONTINUOUS
10
98.8059
20
-96.7925
11
98.9012
21
-96.602
0
LINE
8
BLACK
6
CONTINUOUS
10
98.9012
20
-96.602
11
98.9964
21
-96.5068
0
LINE
8
BLACK
6
CONTINUOUS
10
98.9964
20
-96.5068
11
99.1869
21
-96.4115
0
LINE
8
BLACK
6
CONTINUOUS
10
100.996
20
-97.2687
11
100.806
21
-97.1734
0
LINE
8
BLACK
6
CONTINUOUS
10
100.806
20
-97.1734
11
100.711
21
-97.0782
0
LINE
8
BLACK
6
CONTINUOUS
10
100.711
20
-97.0782
11
100.615
21
-96.8877
0
LINE
8
BLACK
6
CONTINUOUS
10
100.615
20
-96.8877
11
100.615
21
-96.7925
0
LINE
8
BLACK
6
CONTINUOUS
10
100.615
20
-96.7925
11
100.711
21
-96.602
0
LINE
8
BLACK
6
CONTINUOUS
10
100.711
20
-96.602
11
100.806
21
-96.5068
0
LINE
8
BLACK
6
CONTINUOUS
10
100.806
20
-96.5068
11
100.996
21
-96.4115
0
LINE
8
BLACK
6
CONTINUOUS
10
100.996
20
-96.4115
11
101.377
21
-96.4115
0
LINE
8
BLACK
6
CONTINUOUS
10
101.377
20
-96.4115
11
101.568
21
-96.5068
0
LINE
8
BLACK
6
CONTINUOUS
10
101.568
20
-96.5068
11
101.663
21
-96.602
0
LINE
8
BLACK
6
CONTINUOUS
10
101.663
20
-96.602
11
101.758
21
-96.7925
0
LINE
8
BLACK
6
CONTINUOUS
10
101.758
20
-96.7925
11
101.758
21
-96.8877
0
LINE
8
BLACK
6
CONTINUOUS
10
101.758
20
-96.8877
11
101.663
21
-97.0782
0
LINE
8
BLACK
6
CONTINUOUS
10
101.663
20
-97.0782
11
101.568
21
-97.1734
0
LINE
8
BLACK
6
CONTINUOUS
10
101.568
20
-97.1734
11
101.377
21
-97.2687
0
LINE
8
BLACK
6
CONTINUOUS
10
101.377
20
-97.2687
11
100.996
21
-97.2687
0
LINE
8
BLACK
6
CONTINUOUS
10
100.996
20
-97.2687
11
100.806
21
-97.3639
0
LINE
8
BLACK
6
CONTINUOUS
10
100.806
20
-97.3639
11
100.711
21
-97.4591
0
LINE
8
BLACK
6
CONTINUOUS
10
100.711
20
-97.4591
11
100.615
21
-97.6496
0
LINE
8
BLACK
6
CONTINUOUS
10
100.615
20
-97.6496
11
100.615
21
-98.0306
0
LINE
8
BLACK
6
CONTINUOUS
10
100.615
20
-98.0306
11
100.711
21
-98.221
0
LINE
8
BLACK
6
CONTINUOUS
10
100.711
20
-98.221
11
100.806
21
-98.3163
0
LINE
8
BLACK
6
CONTINUOUS
10
100.806
20
-98.3163
11
100.996
21
-98.4115
0
LINE
8
BLACK
6
CONTINUOUS
10
100.996
20
-98.4115
11
101.377
21
-98.4115
0
LINE
8
BLACK
6
CONTINUOUS
10
101.377
20
-98.4115
11
101.568
21
-98.3163
0
LINE
8
BLACK
6
CONTINUOUS
10
101.568
20
-98.3163
11
101.663
21
-98.221
0
LINE
8
BLACK
6
CONTINUOUS
10
101.663
20
-98.221
11
101.758
21
-98.0306
0
LINE
8
BLACK
6
CONTINUOUS
10
101.758
20
-98.0306
11
101.758
21
-97.6496
0
LINE
8
BLACK
6
CONTINUOUS
10
101.758
20
-97.6496
11
101.663
21
-97.4591
0
LINE
8
BLACK
6
CONTINUOUS
10
101.663
20
-97.4591
11
101.568
21
-97.3639
0
LINE
8
BLACK
6
CONTINUOUS
10
101.568
20
-97.3639
11
101.377
21
-97.2687
0
LINE
8
BLACK
6
CONTINUOUS
10
103.473
20
-96.4115
11
103.092
21
-96.4115
0
LINE
8
BLACK
6
CONTINUOUS
10
103.092
20
-96.4115
11
102.901
21
-96.5068
0
LINE
8
BLACK
6
CONTINUOUS
10
102.901
20
-96.5068
11
102.806
21
-96.602
0
LINE
8
BLACK
6
CONTINUOUS
10
102.806
20
-96.602
11
102.615
21
-96.8877
0
LINE
8
BLACK
6
CONTINUOUS
10
102.615
20
-96.8877
11
102.52
21
-97.2687
0
LINE
8
BLACK
6
CONTINUOUS
10
102.52
20
-97.2687
11
102.52
21
-98.0306
0
LINE
8
BLACK
6
CONTINUOUS
10
102.52
20
-98.0306
11
102.615
21
-98.221
0
LINE
8
BLACK
6
CONTINUOUS
10
102.615
20
-98.221
11
102.711
21
-98.3163
0
LINE
8
BLACK
6
CONTINUOUS
10
102.711
20
-98.3163
11
102.901
21
-98.4115
0
LINE
8
BLACK
6
CONTINUOUS
10
102.901
20
-98.4115
11
103.282
21
-98.4115
0
LINE
8
BLACK
6
CONTINUOUS
10
103.282
20
-98.4115
11
103.473
21
-98.3163
0
LINE
8
BLACK
6
CONTINUOUS
10
103.473
20
-98.3163
11
103.568
21
-98.221
0
LINE
8
BLACK
6
CONTINUOUS
10
103.568
20
-98.221
11
103.663
21
-98.0306
0
LINE
8
BLACK
6
CONTINUOUS
10
103.663
20
-98.0306
11
103.663
21
-97.5544
0
LINE
8
BLACK
6
CONTINUOUS
10
103.663
20
-97.5544
11
103.568
21
-97.3639
0
LINE
8
BLACK
6
CONTINUOUS
10
103.568
20
-97.3639
11
103.473
21
-97.2687
0
LINE
8
BLACK
6
CONTINUOUS
10
103.473
20
-97.2687
11
103.282
21
-97.1734
0
LINE
8
BLACK
6
CONTINUOUS
10
103.282
20
-97.1734
11
102.901
21
-97.1734
0
LINE
8
BLACK
6
CONTINUOUS
10
102.901
20
-97.1734
11
102.711
21
-97.2687
0
LINE
8
BLACK
6
CONTINUOUS
10
102.711
20
-97.2687
11
102.615
21
-97.3639
0
LINE
8
BLACK
6
CONTINUOUS
10
102.615
20
-97.3639
11
102.52
21
-97.5544
0
LINE
8
BLACK
6
CONTINUOUS
10
105.377
20
-96.4115
11
104.996
21
-96.4115
0
LINE
8
BLACK
6
CONTINUOUS
10
104.996
20
-96.4115
11
104.806
21
-96.5068
0
LINE
8
BLACK
6
CONTINUOUS
10
104.806
20
-96.5068
11
104.711
21
-96.602
0
LINE
8
BLACK
6
CONTINUOUS
10
104.711
20
-96.602
11
104.52
21
-96.8877
0
LINE
8
BLACK
6
CONTINUOUS
10
104.52
20
-96.8877
11
104.425
21
-97.2687
0
LINE
8
BLACK
6
CONTINUOUS
10
104.425
20
-97.2687
11
104.425
21
-98.0306
0
LINE
8
BLACK
6
CONTINUOUS
10
104.425
20
-98.0306
11
104.52
21
-98.221
0
LINE
8
BLACK
6
CONTINUOUS
10
104.52
20
-98.221
11
104.615
21
-98.3163
0
LINE
8
BLACK
6
CONTINUOUS
10
104.615
20
-98.3163
11
104.806
21
-98.4115
0
LINE
8
BLACK
6
CONTINUOUS
10
104.806
20
-98.4115
11
105.187
21
-98.4115
0
LINE
8
BLACK
6
CONTINUOUS
10
105.187
20
-98.4115
11
105.377
21
-98.3163
0
LINE
8
BLACK
6
CONTINUOUS
10
105.377
20
-98.3163
11
105.473
21
-98.221
0
LINE
8
BLACK
6
CONTINUOUS
10
105.473
20
-98.221
11
105.568
21
-98.0306
0
LINE
8
BLACK
6
CONTINUOUS
10
105.568
20
-98.0306
11
105.568
21
-97.5544
0
LINE
8
BLACK
6
CONTINUOUS
10
105.568
20
-97.5544
11
105.473
21
-97.3639
0
LINE
8
BLACK
6
CONTINUOUS
10
105.473
20
-97.3639
11
105.377
21
-97.2687
0
LINE
8
BLACK
6
CONTINUOUS
10
105.377
20
-97.2687
11
105.187
21
-97.1734
0
LINE
8
BLACK
6
CONTINUOUS
10
105.187
20
-97.1734
11
104.806
21
-97.1734
0
LINE
8
BLACK
6
CONTINUOUS
10
104.806
20
-97.1734
11
104.615
21
-97.2687
0
LINE
8
BLACK
6
CONTINUOUS
10
104.615
20
-97.2687
11
104.52
21
-97.3639
0
LINE
8
BLACK
6
CONTINUOUS
10
104.52
20
-97.3639
11
104.425
21
-97.5544
0
LINE
8
BLACK
6
CONTINUOUS
10
106.33
20
-96.4115
11
106.33
21
-96.7925
0
LINE
8
BLACK
6
CONTINUOUS
10
107.092
20
-96.4115
11
107.092
21
-96.7925
0
LINE
8
BLACK
6
CONTINUOUS
10
110.044
20
-99.1734
11
109.949
21
-99.0782
0
LINE
8
BLACK
6
CONTINUOUS
10
109.949
20
-99.0782
11
109.758
21
-98.7925
0
LINE
8
BLACK
6
CONTINUOUS
10
109.758
20
-98.7925
11
109.663
21
-98.602
0
LINE
8
BLACK
6
CONTINUOUS
10
109.663
20
-98.602
11
109.568
21
-98.3163
0
LINE
8
BLACK
6
CONTINUOUS
10
109.568
20
-98.3163
11
109.473
21
-97.8401
0
LINE
8
BLACK
6
CONTINUOUS
10
109.473
20
-97.8401
11
109.473
21
-97.4591
0
LINE
8
BLACK
6
CONTINUOUS
10
109.473
20
-97.4591
11
109.568
21
-96.983
0
LINE
8
BLACK
6
CONTINUOUS
10
109.568
20
-96.983
11
109.663
21
-96.6972
0
LINE
8
BLACK
6
CONTINUOUS
10
109.663
20
-96.6972
11
109.758
21
-96.5068
0
LINE
8
BLACK
6
CONTINUOUS
10
109.758
20
-96.5068
11
109.949
21
-96.221
0
LINE
8
BLACK
6
CONTINUOUS
10
109.949
20
-96.221
11
110.044
21
-96.1258
0
LINE
8
BLACK
6
CONTINUOUS
10
111.663
20
-97.0782
11
111.663
21
-98.4115
0
LINE
8
BLACK
6
CONTINUOUS
10
111.187
20
-96.3163
11
110.711
21
-97.7449
0
LINE
8
BLACK
6
CONTINUOUS
10
110.711
20
-97.7449
11
111.949
21
-97.7449
0
LINE
8
BLACK
6
CONTINUOUS
10
114.234
20
-98.4115
11
114.234
21
-96.4115
0
LINE
8
BLACK
6
CONTINUOUS
10
115.092
20
-98.4115
11
115.092
21
-97.3639
0
LINE
8
BLACK
6
CONTINUOUS
10
115.092
20
-97.3639
11
114.996
21
-97.1734
0
LINE
8
BLACK
6
CONTINUOUS
10
114.996
20
-97.1734
11
114.806
21
-97.0782
0
LINE
8
BLACK
6
CONTINUOUS
10
114.806
20
-97.0782
11
114.52
21
-97.0782
0
LINE
8
BLACK
6
CONTINUOUS
10
114.52
20
-97.0782
11
114.33
21
-97.1734
0
LINE
8
BLACK
6
CONTINUOUS
10
114.33
20
-97.1734
11
114.234
21
-97.2687
0
LINE
8
BLACK
6
CONTINUOUS
10
116.33
20
-98.4115
11
116.139
21
-98.3163
0
LINE
8
BLACK
6
CONTINUOUS
10
116.139
20
-98.3163
11
116.044
21
-98.221
0
LINE
8
BLACK
6
CONTINUOUS
10
116.044
20
-98.221
11
115.949
21
-98.0306
0
LINE
8
BLACK
6
CONTINUOUS
10
115.949
20
-98.0306
11
115.949
21
-97.4591
0
LINE
8
BLACK
6
CONTINUOUS
10
115.949
20
-97.4591
11
116.044
21
-97.2687
0
LINE
8
BLACK
6
CONTINUOUS
10
116.044
20
-97.2687
11
116.139
21
-97.1734
0
LINE
8
BLACK
6
CONTINUOUS
10
116.139
20
-97.1734
11
116.33
21
-97.0782
0
LINE
8
BLACK
6
CONTINUOUS
10
116.33
20
-97.0782
11
116.615
21
-97.0782
0
LINE
8
BLACK
6
CONTINUOUS
10
116.615
20
-97.0782
11
116.806
21
-97.1734
0
LINE
8
BLACK
6
CONTINUOUS
10
116.806
20
-97.1734
11
116.901
21
-97.2687
0
LINE
8
BLACK
6
CONTINUOUS
10
116.901
20
-97.2687
11
116.996
21
-97.4591
0
LINE
8
BLACK
6
CONTINUOUS
10
116.996
20
-97.4591
11
116.996
21
-98.0306
0
LINE
8
BLACK
6
CONTINUOUS
10
116.996
20
-98.0306
11
116.901
21
-98.221
0
LINE
8
BLACK
6
CONTINUOUS
10
116.901
20
-98.221
11
116.806
21
-98.3163
0
LINE
8
BLACK
6
CONTINUOUS
10
116.806
20
-98.3163
11
116.615
21
-98.4115
0
LINE
8
BLACK
6
CONTINUOUS
10
116.615
20
-98.4115
11
116.33
21
-98.4115
0
LINE
8
BLACK
6
CONTINUOUS
10
118.139
20
-98.4115
11
117.949
21
-98.3163
0
LINE
8
BLACK
6
CONTINUOUS
10
117.949
20
-98.3163
11
117.854
21
-98.1258
0
LINE
8
BLACK
6
CONTINUOUS
10
117.854
20
-98.1258
11
117.854
21
-96.4115
0
LINE
8
BLACK
6
CONTINUOUS
10
119.663
20
-98.3163
11
119.473
21
-98.4115
0
LINE
8
BLACK
6
CONTINUOUS
10
119.473
20
-98.4115
11
119.092
21
-98.4115
0
LINE
8
BLACK
6
CONTINUOUS
10
119.092
20
-98.4115
11
118.901
21
-98.3163
0
LINE
8
BLACK
6
CONTINUOUS
10
118.901
20
-98.3163
11
118.806
21
-98.1258
0
LINE
8
BLACK
6
CONTINUOUS
10
118.806
20
-98.1258
11
118.806
21
-97.3639
0
LINE
8
BLACK
6
CONTINUOUS
10
118.806
20
-97.3639
11
118.901
21
-97.1734
0
LINE
8
BLACK
6
CONTINUOUS
10
118.901
20
-97.1734
11
119.092
21
-97.0782
0
LINE
8
BLACK
6
CONTINUOUS
10
119.092
20
-97.0782
11
119.473
21
-97.0782
0
LINE
8
BLACK
6
CONTINUOUS
10
119.473
20
-97.0782
11
119.663
21
-97.1734
0
LINE
8
BLACK
6
CONTINUOUS
10
119.663
20
-97.1734
11
119.758
21
-97.3639
0
LINE
8
BLACK
6
CONTINUOUS
10
119.758
20
-97.3639
11
119.758
21
-97.5544
0
LINE
8
BLACK
6
CONTINUOUS
10
119.758
20
-97.5544
11
118.806
21
-97.7449
0
LINE
8
BLACK
6
CONTINUOUS
10
120.52
20
-98.3163
11
120.711
21
-98.4115
0
LINE
8
BLACK
6
CONTINUOUS
10
120.711
20
-98.4115
11
121.092
21
-98.4115
0
LINE
8
BLACK
6
CONTINUOUS
10
121.092
20
-98.4115
11
121.282
21
-98.3163
0
LINE
8
BLACK
6
CONTINUOUS
10
121.282
20
-98.3163
11
121.377
21
-98.1258
0
LINE
8
BLACK
6
CONTINUOUS
10
121.377
20
-98.1258
11
121.377
21
-98.0306
0
LINE
8
BLACK
6
CONTINUOUS
10
121.377
20
-98.0306
11
121.282
21
-97.8401
0
LINE
8
BLACK
6
CONTINUOUS
10
121.282
20
-97.8401
11
121.092
21
-97.7449
0
LINE
8
BLACK
6
CONTINUOUS
10
121.092
20
-97.7449
11
120.806
21
-97.7449
0
LINE
8
BLACK
6
CONTINUOUS
10
120.806
20
-97.7449
11
120.615
21
-97.6496
0
LINE
8
BLACK
6
CONTINUOUS
10
120.615
20
-97.6496
11
120.52
21
-97.4591
0
LINE
8
BLACK
6
CONTINUOUS
10
120.52
20
-97.4591
11
120.52
21
-97.3639
0
LINE
8
BLACK
6
CONTINUOUS
10
120.52
20
-97.3639
11
120.615
21
-97.1734
0
LINE
8
BLACK
6
CONTINUOUS
10
120.615
20
-97.1734
11
120.806
21
-97.0782
0
LINE
8
BLACK
6
CONTINUOUS
10
120.806
20
-97.0782
11
121.092
21
-97.0782
0
LINE
8
BLACK
6
CONTINUOUS
10
121.092
20
-97.0782
11
121.282
21
-97.1734
0
LINE
8
BLACK
6
CONTINUOUS
10
122.044
20
-99.1734
11
122.139
21
-99.0782
0
LINE
8
BLACK
6
CONTINUOUS
10
122.139
20
-99.0782
11
122.33
21
-98.7925
0
LINE
8
BLACK
6
CONTINUOUS
10
122.33
20
-98.7925
11
122.425
21
-98.602
0
LINE
8
BLACK
6
CONTINUOUS
10
122.425
20
-98.602
11
122.52
21
-98.3163
0
LINE
8
BLACK
6
CONTINUOUS
10
122.52
20
-98.3163
11
122.615
21
-97.8401
0
LINE
8
BLACK
6
CONTINUOUS
10
122.615
20
-97.8401
11
122.615
21
-97.4591
0
LINE
8
BLACK
6
CONTINUOUS
10
122.615
20
-97.4591
11
122.52
21
-96.983
0
LINE
8
BLACK
6
CONTINUOUS
10
122.52
20
-96.983
11
122.425
21
-96.6972
0
LINE
8
BLACK
6
CONTINUOUS
10
122.425
20
-96.6972
11
122.33
21
-96.5068
0
LINE
8
BLACK
6
CONTINUOUS
10
122.33
20
-96.5068
11
122.139
21
-96.221
0
LINE
8
BLACK
6
CONTINUOUS
10
122.139
20
-96.221
11
122.044
21
-96.1258
0
LINE
8
BLACK
6
CONTINUOUS
10
125.663
20
-99.1734
11
125.568
21
-99.0782
0
LINE
8
BLACK
6
CONTINUOUS
10
125.568
20
-99.0782
11
125.377
21
-98.7925
0
LINE
8
BLACK
6
CONTINUOUS
10
125.377
20
-98.7925
11
125.282
21
-98.602
0
LINE
8
BLACK
6
CONTINUOUS
10
125.282
20
-98.602
11
125.187
21
-98.3163
0
LINE
8
BLACK
6
CONTINUOUS
10
125.187
20
-98.3163
11
125.092
21
-97.8401
0
LINE
8
BLACK
6
CONTINUOUS
10
125.092
20
-97.8401
11
125.092
21
-97.4591
0
LINE
8
BLACK
6
CONTINUOUS
10
125.092
20
-97.4591
11
125.187
21
-96.983
0
LINE
8
BLACK
6
CONTINUOUS
10
125.187
20
-96.983
11
125.282
21
-96.6972
0
LINE
8
BLACK
6
CONTINUOUS
10
125.282
20
-96.6972
11
125.377
21
-96.5068
0
LINE
8
BLACK
6
CONTINUOUS
10
125.377
20
-96.5068
11
125.568
21
-96.221
0
LINE
8
BLACK
6
CONTINUOUS
10
125.568
20
-96.221
11
125.663
21
-96.1258
0
LINE
8
BLACK
6
CONTINUOUS
10
126.425
20
-97.0782
11
126.425
21
-98.4115
0
LINE
8
BLACK
6
CONTINUOUS
10
126.425
20
-97.2687
11
126.52
21
-97.1734
0
LINE
8
BLACK
6
CONTINUOUS
10
126.52
20
-97.1734
11
126.711
21
-97.0782
0
LINE
8
BLACK
6
CONTINUOUS
10
126.711
20
-97.0782
11
126.996
21
-97.0782
0
LINE
8
BLACK
6
CONTINUOUS
10
126.996
20
-97.0782
11
127.187
21
-97.1734
0
LINE
8
BLACK
6
CONTINUOUS
10
127.187
20
-97.1734
11
127.282
21
-97.3639
0
LINE
8
BLACK
6
CONTINUOUS
10
127.282
20
-97.3639
11
127.282
21
-98.4115
0
LINE
8
BLACK
6
CONTINUOUS
10
128.52
20
-98.4115
11
128.33
21
-98.3163
0
LINE
8
BLACK
6
CONTINUOUS
10
128.33
20
-98.3163
11
128.234
21
-98.221
0
LINE
8
BLACK
6
CONTINUOUS
10
128.234
20
-98.221
11
128.139
21
-98.0306
0
LINE
8
BLACK
6
CONTINUOUS
10
128.139
20
-98.0306
11
128.139
21
-97.4591
0
LINE
8
BLACK
6
CONTINUOUS
10
128.139
20
-97.4591
11
128.234
21
-97.2687
0
LINE
8
BLACK
6
CONTINUOUS
10
128.234
20
-97.2687
11
128.33
21
-97.1734
0
LINE
8
BLACK
6
CONTINUOUS
10
128.33
20
-97.1734
11
128.52
21
-97.0782
0
LINE
8
BLACK
6
CONTINUOUS
10
128.52
20
-97.0782
11
128.806
21
-97.0782
0
LINE
8
BLACK
6
CONTINUOUS
10
128.806
20
-97.0782
11
128.996
21
-97.1734
0
LINE
8
BLACK
6
CONTINUOUS
10
128.996
20
-97.1734
11
129.092
21
-97.2687
0
LINE
8
BLACK
6
CONTINUOUS
10
129.092
20
-97.2687
11
129.187
21
-97.4591
0
LINE
8
BLACK
6
CONTINUOUS
10
129.187
20
-97.4591
11
129.187
21
-98.0306
0
LINE
8
BLACK
6
CONTINUOUS
10
129.187
20
-98.0306
11
129.092
21
-98.221
0
LINE
8
BLACK
6
CONTINUOUS
10
129.092
20
-98.221
11
128.996
21
-98.3163
0
LINE
8
BLACK
6
CONTINUOUS
10
128.996
20
-98.3163
11
128.806
21
-98.4115
0
LINE
8
BLACK
6
CONTINUOUS
10
128.806
20
-98.4115
11
128.52
21
-98.4115
0
LINE
8
BLACK
6
CONTINUOUS
10
129.758
20
-97.0782
11
130.52
21
-97.0782
0
LINE
8
BLACK
6
CONTINUOUS
10
130.044
20
-96.4115
11
130.044
21
-98.1258
0
LINE
8
BLACK
6
CONTINUOUS
10
130.044
20
-98.1258
11
130.139
21
-98.3163
0
LINE
8
BLACK
6
CONTINUOUS
10
130.139
20
-98.3163
11
130.33
21
-98.4115
0
LINE
8
BLACK
6
CONTINUOUS
10
130.33
20
-98.4115
11
130.52
21
-98.4115
0
LINE
8
BLACK
6
CONTINUOUS
10
132.711
20
-97.0782
11
132.711
21
-99.0782
0
LINE
8
BLACK
6
CONTINUOUS
10
132.711
20
-97.1734
11
132.901
21
-97.0782
0
LINE
8
BLACK
6
CONTINUOUS
10
132.901
20
-97.0782
11
133.282
21
-97.0782
0
LINE
8
BLACK
6
CONTINUOUS
10
133.282
20
-97.0782
11
133.473
21
-97.1734
0
LINE
8
BLACK
6
CONTINUOUS
10
133.473
20
-97.1734
11
133.568
21
-97.2687
0
LINE
8
BLACK
6
CONTINUOUS
10
133.568
20
-97.2687
11
133.663
21
-97.4591
0
LINE
8
BLACK
6
CONTINUOUS
10
133.663
20
-97.4591
11
133.663
21
-98.0306
0
LINE
8
BLACK
6
CONTINUOUS
10
133.663
20
-98.0306
11
133.568
21
-98.221
0
LINE
8
BLACK
6
CONTINUOUS
10
133.568
20
-98.221
11
133.473
21
-98.3163
0
LINE
8
BLACK
6
CONTINUOUS
10
133.473
20
-98.3163
11
133.282
21
-98.4115
0
LINE
8
BLACK
6
CONTINUOUS
10
133.282
20
-98.4115
11
132.901
21
-98.4115
0
LINE
8
BLACK
6
CONTINUOUS
10
132.901
20
-98.4115
11
132.711
21
-98.3163
0
LINE
8
BLACK
6
CONTINUOUS
10
134.806
20
-98.4115
11
134.615
21
-98.3163
0
LINE
8
BLACK
6
CONTINUOUS
10
134.615
20
-98.3163
11
134.52
21
-98.1258
0
LINE
8
BLACK
6
CONTINUOUS
10
134.52
20
-98.1258
11
134.52
21
-96.4115
0
LINE
8
BLACK
6
CONTINUOUS
10
136.425
20
-98.4115
11
136.425
21
-97.3639
0
LINE
8
BLACK
6
CONTINUOUS
10
136.425
20
-97.3639
11
136.33
21
-97.1734
0
LINE
8
BLACK
6
CONTINUOUS
10
136.33
20
-97.1734
11
136.139
21
-97.0782
0
LINE
8
BLACK
6
CONTINUOUS
10
136.139
20
-97.0782
11
135.758
21
-97.0782
0
LINE
8
BLACK
6
CONTINUOUS
10
135.758
20
-97.0782
11
135.568
21
-97.1734
0
LINE
8
BLACK
6
CONTINUOUS
10
136.425
20
-98.3163
11
136.234
21
-98.4115
0
LINE
8
BLACK
6
CONTINUOUS
10
136.234
20
-98.4115
11
135.758
21
-98.4115
0
LINE
8
BLACK
6
CONTINUOUS
10
135.758
20
-98.4115
11
135.568
21
-98.3163
0
LINE
8
BLACK
6
CONTINUOUS
10
135.568
20
-98.3163
11
135.473
21
-98.1258
0
LINE
8
BLACK
6
CONTINUOUS
10
135.473
20
-98.1258
11
135.473
21
-97.9353
0
LINE
8
BLACK
6
CONTINUOUS
10
135.473
20
-97.9353
11
135.568
21
-97.7449
0
LINE
8
BLACK
6
CONTINUOUS
10
135.568
20
-97.7449
11
135.758
21
-97.6496
0
LINE
8
BLACK
6
CONTINUOUS
10
135.758
20
-97.6496
11
136.234
21
-97.6496
0
LINE
8
BLACK
6
CONTINUOUS
10
136.234
20
-97.6496
11
136.425
21
-97.5544
0
LINE
8
BLACK
6
CONTINUOUS
10
137.092
20
-97.0782
11
137.854
21
-97.0782
0
LINE
8
BLACK
6
CONTINUOUS
10
137.377
20
-96.4115
11
137.377
21
-98.1258
0
LINE
8
BLACK
6
CONTINUOUS
10
137.377
20
-98.1258
11
137.473
21
-98.3163
0
LINE
8
BLACK
6
CONTINUOUS
10
137.473
20
-98.3163
11
137.663
21
-98.4115
0
LINE
8
BLACK
6
CONTINUOUS
10
137.663
20
-98.4115
11
137.854
21
-98.4115
0
LINE
8
BLACK
6
CONTINUOUS
10
139.282
20
-98.3163
11
139.092
21
-98.4115
0
LINE
8
BLACK
6
CONTINUOUS
10
139.092
20
-98.4115
11
138.711
21
-98.4115
0
LINE
8
BLACK
6
CONTINUOUS
10
138.711
20
-98.4115
11
138.52
21
-98.3163
0
LINE
8
BLACK
6
CONTINUOUS
10
138.52
20
-98.3163
11
138.425
21
-98.1258
0
LINE
8
BLACK
6
CONTINUOUS
10
138.425
20
-98.1258
11
138.425
21
-97.3639
0
LINE
8
BLACK
6
CONTINUOUS
10
138.425
20
-97.3639
11
138.52
21
-97.1734
0
LINE
8
BLACK
6
CONTINUOUS
10
138.52
20
-97.1734
11
138.711
21
-97.0782
0
LINE
8
BLACK
6
CONTINUOUS
10
138.711
20
-97.0782
11
139.092
21
-97.0782
0
LINE
8
BLACK
6
CONTINUOUS
10
139.092
20
-97.0782
11
139.282
21
-97.1734
0
LINE
8
BLACK
6
CONTINUOUS
10
139.282
20
-97.1734
11
139.377
21
-97.3639
0
LINE
8
BLACK
6
CONTINUOUS
10
139.377
20
-97.3639
11
139.377
21
-97.5544
0
LINE
8
BLACK
6
CONTINUOUS
10
139.377
20
-97.5544
11
138.425
21
-97.7449
0
LINE
8
BLACK
6
CONTINUOUS
10
141.092
20
-98.4115
11
141.092
21
-96.4115
0
LINE
8
BLACK
6
CONTINUOUS
10
141.092
20
-98.3163
11
140.901
21
-98.4115
0
LINE
8
BLACK
6
CONTINUOUS
10
140.901
20
-98.4115
11
140.52
21
-98.4115
0
LINE
8
BLACK
6
CONTINUOUS
10
140.52
20
-98.4115
11
140.33
21
-98.3163
0
LINE
8
BLACK
6
CONTINUOUS
10
140.33
20
-98.3163
11
140.234
21
-98.221
0
LINE
8
BLACK
6
CONTINUOUS
10
140.234
20
-98.221
11
140.139
21
-98.0306
0
LINE
8
BLACK
6
CONTINUOUS
10
140.139
20
-98.0306
11
140.139
21
-97.4591
0
LINE
8
BLACK
6
CONTINUOUS
10
140.139
20
-97.4591
11
140.234
21
-97.2687
0
LINE
8
BLACK
6
CONTINUOUS
10
140.234
20
-97.2687
11
140.33
21
-97.1734
0
LINE
8
BLACK
6
CONTINUOUS
10
140.33
20
-97.1734
11
140.52
21
-97.0782
0
LINE
8
BLACK
6
CONTINUOUS
10
140.52
20
-97.0782
11
140.901
21
-97.0782
0
LINE
8
BLACK
6
CONTINUOUS
10
140.901
20
-97.0782
11
141.092
21
-97.1734
0
LINE
8
BLACK
6
CONTINUOUS
10
141.854
20
-99.1734
11
141.949
21
-99.0782
0
LINE
8
BLACK
6
CONTINUOUS
10
141.949
20
-99.0782
11
142.139
21
-98.7925
0
LINE
8
BLACK
6
CONTINUOUS
10
142.139
20
-98.7925
11
142.234
21
-98.602
0
LINE
8
BLACK
6
CONTINUOUS
10
142.234
20
-98.602
11
142.33
21
-98.3163
0
LINE
8
BLACK
6
CONTINUOUS
10
142.33
20
-98.3163
11
142.425
21
-97.8401
0
LINE
8
BLACK
6
CONTINUOUS
10
142.425
20
-97.8401
11
142.425
21
-97.4591
0
LINE
8
BLACK
6
CONTINUOUS
10
142.425
20
-97.4591
11
142.33
21
-96.983
0
LINE
8
BLACK
6
CONTINUOUS
10
142.33
20
-96.983
11
142.234
21
-96.6972
0
LINE
8
BLACK
6
CONTINUOUS
10
142.234
20
-96.6972
11
142.139
21
-96.5068
0
LINE
8
BLACK
6
CONTINUOUS
10
142.139
20
-96.5068
11
141.949
21
-96.221
0
LINE
8
BLACK
6
CONTINUOUS
10
141.949
20
-96.221
11
141.854
21
-96.1258
0
LINE
8
BLACK
6
CONTINUOUS
10
73.325
20
-101.707
11
74.325
21
-100.707
0
LINE
8
BLACK
6
CONTINUOUS
10
74.325
20
-100.707
11
73.325
21
-99.7068
0
LINE
8
BLACK
6
CONTINUOUS
10
73.325
20
-99.7068
11
72.325
21
-100.707
0
LINE
8
BLACK
6
CONTINUOUS
10
72.325
20
-100.707
11
73.325
21
-101.707
0
LINE
8
BLACK
6
CONTINUOUS
10
76.7107
20
-99.6115
11
77.9488
21
-99.6115
0
LINE
8
BLACK
6
CONTINUOUS
10
77.9488
20
-99.6115
11
77.2821
21
-100.373
0
LINE
8
BLACK
6
CONTINUOUS
10
77.2821
20
-100.373
11
77.5678
21
-100.373
0
LINE
8
BLACK
6
CONTINUOUS
10
77.5678
20
-100.373
11
77.7583
21
-100.469
0
LINE
8
BLACK
6
CONTINUOUS
10
77.7583
20
-100.469
11
77.8535
21
-100.564
0
LINE
8
BLACK
6
CONTINUOUS
10
77.8535
20
-100.564
11
77.9488
21
-100.754
0
LINE
8
BLACK
6
CONTINUOUS
10
77.9488
20
-100.754
11
77.9488
21
-101.231
0
LINE
8
BLACK
6
CONTINUOUS
10
77.9488
20
-101.231
11
77.8535
21
-101.421
0
LINE
8
BLACK
6
CONTINUOUS
10
77.8535
20
-101.421
11
77.7583
21
-101.516
0
LINE
8
BLACK
6
CONTINUOUS
10
77.7583
20
-101.516
11
77.5678
21
-101.612
0
LINE
8
BLACK
6
CONTINUOUS
10
77.5678
20
-101.612
11
76.9964
21
-101.612
0
LINE
8
BLACK
6
CONTINUOUS
10
76.9964
20
-101.612
11
76.8059
21
-101.516
0
LINE
8
BLACK
6
CONTINUOUS
10
76.8059
20
-101.516
11
76.7107
21
-101.421
0
LINE
8
BLACK
6
CONTINUOUS
10
78.8059
20
-101.421
11
78.9012
21
-101.516
0
LINE
8
BLACK
6
CONTINUOUS
10
78.9012
20
-101.516
11
78.8059
21
-101.612
0
LINE
8
BLACK
6
CONTINUOUS
10
78.8059
20
-101.612
11
78.7107
21
-101.516
0
LINE
8
BLACK
6
CONTINUOUS
10
78.7107
20
-101.516
11
78.8059
21
-101.421
0
LINE
8
BLACK
6
CONTINUOUS
10
78.8059
20
-101.421
11
78.8059
21
-101.612
0
LINE
8
BLACK
6
CONTINUOUS
10
80.1392
20
-99.6115
11
80.3297
21
-99.6115
0
LINE
8
BLACK
6
CONTINUOUS
10
80.3297
20
-99.6115
11
80.5202
21
-99.7068
0
LINE
8
BLACK
6
CONTINUOUS
10
80.5202
20
-99.7068
11
80.6154
21
-99.802
0
LINE
8
BLACK
6
CONTINUOUS
10
80.6154
20
-99.802
11
80.7107
21
-99.9925
0
LINE
8
BLACK
6
CONTINUOUS
10
80.7107
20
-99.9925
11
80.8059
21
-100.373
0
LINE
8
BLACK
6
CONTINUOUS
10
80.8059
20
-100.373
11
80.8059
21
-100.85
0
LINE
8
BLACK
6
CONTINUOUS
10
80.8059
20
-100.85
11
80.7107
21
-101.231
0
LINE
8
BLACK
6
CONTINUOUS
10
80.7107
20
-101.231
11
80.6154
21
-101.421
0
LINE
8
BLACK
6
CONTINUOUS
10
80.6154
20
-101.421
11
80.5202
21
-101.516
0
LINE
8
BLACK
6
CONTINUOUS
10
80.5202
20
-101.516
11
80.3297
21
-101.612
0
LINE
8
BLACK
6
CONTINUOUS
10
80.3297
20
-101.612
11
80.1392
21
-101.612
0
LINE
8
BLACK
6
CONTINUOUS
10
80.1392
20
-101.612
11
79.9488
21
-101.516
0
LINE
8
BLACK
6
CONTINUOUS
10
79.9488
20
-101.516
11
79.8535
21
-101.421
0
LINE
8
BLACK
6
CONTINUOUS
10
79.8535
20
-101.421
11
79.7583
21
-101.231
0
LINE
8
BLACK
6
CONTINUOUS
10
79.7583
20
-101.231
11
79.6631
21
-100.85
0
LINE
8
BLACK
6
CONTINUOUS
10
79.6631
20
-100.85
11
79.6631
21
-100.373
0
LINE
8
BLACK
6
CONTINUOUS
10
79.6631
20
-100.373
11
79.7583
21
-99.9925
0
LINE
8
BLACK
6
CONTINUOUS
10
79.7583
20
-99.9925
11
79.8535
21
-99.802
0
LINE
8
BLACK
6
CONTINUOUS
10
79.8535
20
-99.802
11
79.9488
21
-99.7068
0
LINE
8
BLACK
6
CONTINUOUS
10
79.9488
20
-99.7068
11
80.1392
21
-99.6115
0
LINE
8
BLACK
6
CONTINUOUS
10
82.044
20
-99.6115
11
82.2345
21
-99.6115
0
LINE
8
BLACK
6
CONTINUOUS
10
82.2345
20
-99.6115
11
82.425
21
-99.7068
0
LINE
8
BLACK
6
CONTINUOUS
10
82.425
20
-99.7068
11
82.5202
21
-99.802
0
LINE
8
BLACK
6
CONTINUOUS
10
82.5202
20
-99.802
11
82.6154
21
-99.9925
0
LINE
8
BLACK
6
CONTINUOUS
10
82.6154
20
-99.9925
11
82.7107
21
-100.373
0
LINE
8
BLACK
6
CONTINUOUS
10
82.7107
20
-100.373
11
82.7107
21
-100.85
0
LINE
8
BLACK
6
CONTINUOUS
10
82.7107
20
-100.85
11
82.6154
21
-101.231
0
LINE
8
BLACK
6
CONTINUOUS
10
82.6154
20
-101.231
11
82.5202
21
-101.421
0
LINE
8
BLACK
6
CONTINUOUS
10
82.5202
20
-101.421
11
82.425
21
-101.516
0
LINE
8
BLACK
6
CONTINUOUS
10
82.425
20
-101.516
11
82.2345
21
-101.612
0
LINE
8
BLACK
6
CONTINUOUS
10
82.2345
20
-101.612
11
82.044
21
-101.612
0
LINE
8
BLACK
6
CONTINUOUS
10
82.044
20
-101.612
11
81.8535
21
-101.516
0
LINE
8
BLACK
6
CONTINUOUS
10
81.8535
20
-101.516
11
81.7583
21
-101.421
0
LINE
8
BLACK
6
CONTINUOUS
10
81.7583
20
-101.421
11
81.6631
21
-101.231
0
LINE
8
BLACK
6
CONTINUOUS
10
81.6631
20
-101.231
11
81.5678
21
-100.85
0
LINE
8
BLACK
6
CONTINUOUS
10
81.5678
20
-100.85
11
81.5678
21
-100.373
0
LINE
8
BLACK
6
CONTINUOUS
10
81.5678
20
-100.373
11
81.6631
21
-99.9925
0
LINE
8
BLACK
6
CONTINUOUS
10
81.6631
20
-99.9925
11
81.7583
21
-99.802
0
LINE
8
BLACK
6
CONTINUOUS
10
81.7583
20
-99.802
11
81.8535
21
-99.7068
0
LINE
8
BLACK
6
CONTINUOUS
10
81.8535
20
-99.7068
11
82.044
21
-99.6115
0
LINE
8
BLACK
6
CONTINUOUS
10
83.9488
20
-99.6115
11
84.1392
21
-99.6115
0
LINE
8
BLACK
6
CONTINUOUS
10
84.1392
20
-99.6115
11
84.3297
21
-99.7068
0
LINE
8
BLACK
6
CONTINUOUS
10
84.3297
20
-99.7068
11
84.425
21
-99.802
0
LINE
8
BLACK
6
CONTINUOUS
10
84.425
20
-99.802
11
84.5202
21
-99.9925
0
LINE
8
BLACK
6
CONTINUOUS
10
84.5202
20
-99.9925
11
84.6154
21
-100.373
0
LINE
8
BLACK
6
CONTINUOUS
10
84.6154
20
-100.373
11
84.6154
21
-100.85
0
LINE
8
BLACK
6
CONTINUOUS
10
84.6154
20
-100.85
11
84.5202
21
-101.231
0
LINE
8
BLACK
6
CONTINUOUS
10
84.5202
20
-101.231
11
84.425
21
-101.421
0
LINE
8
BLACK
6
CONTINUOUS
10
84.425
20
-101.421
11
84.3297
21
-101.516
0
LINE
8
BLACK
6
CONTINUOUS
10
84.3297
20
-101.516
11
84.1392
21
-101.612
0
LINE
8
BLACK
6
CONTINUOUS
10
84.1392
20
-101.612
11
83.9488
21
-101.612
0
LINE
8
BLACK
6
CONTINUOUS
10
83.9488
20
-101.612
11
83.7583
21
-101.516
0
LINE
8
BLACK
6
CONTINUOUS
10
83.7583
20
-101.516
11
83.6631
21
-101.421
0
LINE
8
BLACK
6
CONTINUOUS
10
83.6631
20
-101.421
11
83.5678
21
-101.231
0
LINE
8
BLACK
6
CONTINUOUS
10
83.5678
20
-101.231
11
83.4726
21
-100.85
0
LINE
8
BLACK
6
CONTINUOUS
10
83.4726
20
-100.85
11
83.4726
21
-100.373
0
LINE
8
BLACK
6
CONTINUOUS
10
83.4726
20
-100.373
11
83.5678
21
-99.9925
0
LINE
8
BLACK
6
CONTINUOUS
10
83.5678
20
-99.9925
11
83.6631
21
-99.802
0
LINE
8
BLACK
6
CONTINUOUS
10
83.6631
20
-99.802
11
83.7583
21
-99.7068
0
LINE
8
BLACK
6
CONTINUOUS
10
83.7583
20
-99.7068
11
83.9488
21
-99.6115
0
LINE
8
BLACK
6
CONTINUOUS
10
85.4726
20
-101.612
11
85.4726
21
-100.278
0
LINE
8
BLACK
6
CONTINUOUS
10
85.4726
20
-100.469
11
85.5678
21
-100.373
0
LINE
8
BLACK
6
CONTINUOUS
10
85.5678
20
-100.373
11
85.7583
21
-100.278
0
LINE
8
BLACK
6
CONTINUOUS
10
85.7583
20
-100.278
11
86.044
21
-100.278
0
LINE
8
BLACK
6
CONTINUOUS
10
86.044
20
-100.278
11
86.2345
21
-100.373
0
LINE
8
BLACK
6
CONTINUOUS
10
86.2345
20
-100.373
11
86.3297
21
-100.564
0
LINE
8
BLACK
6
CONTINUOUS
10
86.3297
20
-100.564
11
86.3297
21
-101.612
0
LINE
8
BLACK
6
CONTINUOUS
10
86.3297
20
-100.564
11
86.425
21
-100.373
0
LINE
8
BLACK
6
CONTINUOUS
10
86.425
20
-100.373
11
86.6154
21
-100.278
0
LINE
8
BLACK
6
CONTINUOUS
10
86.6154
20
-100.278
11
86.9012
21
-100.278
0
LINE
8
BLACK
6
CONTINUOUS
10
86.9012
20
-100.278
11
87.0916
21
-100.373
0
LINE
8
BLACK
6
CONTINUOUS
10
87.0916
20
-100.373
11
87.1869
21
-100.564
0
LINE
8
BLACK
6
CONTINUOUS
10
87.1869
20
-100.564
11
87.1869
21
-101.612
0
LINE
8
BLACK
6
CONTINUOUS
10
88.1392
20
-101.612
11
88.1392
21
-100.278
0
LINE
8
BLACK
6
CONTINUOUS
10
88.1392
20
-100.469
11
88.2345
21
-100.373
0
LINE
8
BLACK
6
CONTINUOUS
10
88.2345
20
-100.373
11
88.425
21
-100.278
0
LINE
8
BLACK
6
CONTINUOUS
10
88.425
20
-100.278
11
88.7107
21
-100.278
0
LINE
8
BLACK
6
CONTINUOUS
10
88.7107
20
-100.278
11
88.9012
21
-100.373
0
LINE
8
BLACK
6
CONTINUOUS
10
88.9012
20
-100.373
11
88.9964
21
-100.564
0
LINE
8
BLACK
6
CONTINUOUS
10
88.9964
20
-100.564
11
88.9964
21
-101.612
0
LINE
8
BLACK
6
CONTINUOUS
10
88.9964
20
-100.564
11
89.0916
21
-100.373
0
LINE
8
BLACK
6
CONTINUOUS
10
89.0916
20
-100.373
11
89.2821
21
-100.278
0
LINE
8
BLACK
6
CONTINUOUS
10
89.2821
20
-100.278
11
89.5678
21
-100.278
0
LINE
8
BLACK
6
CONTINUOUS
10
89.5678
20
-100.278
11
89.7583
21
-100.373
0
LINE
8
BLACK
6
CONTINUOUS
10
89.7583
20
-100.373
11
89.8535
21
-100.564
0
LINE
8
BLACK
6
CONTINUOUS
10
89.8535
20
-100.564
11
89.8535
21
-101.612
0
LINE
8
BLACK
6
CONTINUOUS
10
93.7583
20
-99.5163
11
92.044
21
-102.088
0
LINE
8
BLACK
6
CONTINUOUS
10
96.3297
20
-99.6115
11
96.5202
21
-99.6115
0
LINE
8
BLACK
6
CONTINUOUS
10
96.5202
20
-99.6115
11
96.7107
21
-99.7068
0
LINE
8
BLACK
6
CONTINUOUS
10
96.7107
20
-99.7068
11
96.8059
21
-99.802
0
LINE
8
BLACK
6
CONTINUOUS
10
96.8059
20
-99.802
11
96.9012
21
-99.9925
0
LINE
8
BLACK
6
CONTINUOUS
10
96.9012
20
-99.9925
11
96.9964
21
-100.373
0
LINE
8
BLACK
6
CONTINUOUS
10
96.9964
20
-100.373
11
96.9964
21
-100.85
0
LINE
8
BLACK
6
CONTINUOUS
10
96.9964
20
-100.85
11
96.9012
21
-101.231
0
LINE
8
BLACK
6
CONTINUOUS
10
96.9012
20
-101.231
11
96.8059
21
-101.421
0
LINE
8
BLACK
6
CONTINUOUS
10
96.8059
20
-101.421
11
96.7107
21
-101.516
0
LINE
8
BLACK
6
CONTINUOUS
10
96.7107
20
-101.516
11
96.5202
21
-101.612
0
LINE
8
BLACK
6
CONTINUOUS
10
96.5202
20
-101.612
11
96.3297
21
-101.612
0
LINE
8
BLACK
6
CONTINUOUS
10
96.3297
20
-101.612
11
96.1392
21
-101.516
0
LINE
8
BLACK
6
CONTINUOUS
10
96.1392
20
-101.516
11
96.044
21
-101.421
0
LINE
8
BLACK
6
CONTINUOUS
10
96.044
20
-101.421
11
95.9488
21
-101.231
0
LINE
8
BLACK
6
CONTINUOUS
10
95.9488
20
-101.231
11
95.8535
21
-100.85
0
LINE
8
BLACK
6
CONTINUOUS
10
95.8535
20
-100.85
11
95.8535
21
-100.373
0
LINE
8
BLACK
6
CONTINUOUS
10
95.8535
20
-100.373
11
95.9488
21
-99.9925
0
LINE
8
BLACK
6
CONTINUOUS
10
95.9488
20
-99.9925
11
96.044
21
-99.802
0
LINE
8
BLACK
6
CONTINUOUS
10
96.044
20
-99.802
11
96.1392
21
-99.7068
0
LINE
8
BLACK
6
CONTINUOUS
10
96.1392
20
-99.7068
11
96.3297
21
-99.6115
0
LINE
8
BLACK
6
CONTINUOUS
10
97.8535
20
-101.421
11
97.9488
21
-101.516
0
LINE
8
BLACK
6
CONTINUOUS
10
97.9488
20
-101.516
11
97.8535
21
-101.612
0
LINE
8
BLACK
6
CONTINUOUS
10
97.8535
20
-101.612
11
97.7583
21
-101.516
0
LINE
8
BLACK
6
CONTINUOUS
10
97.7583
20
-101.516
11
97.8535
21
-101.421
0
LINE
8
BLACK
6
CONTINUOUS
10
97.8535
20
-101.421
11
97.8535
21
-101.612
0
LINE
8
BLACK
6
CONTINUOUS
10
99.8535
20
-101.612
11
98.7107
21
-101.612
0
LINE
8
BLACK
6
CONTINUOUS
10
99.2821
20
-101.612
11
99.2821
21
-99.6115
0
LINE
8
BLACK
6
CONTINUOUS
10
99.2821
20
-99.6115
11
99.0916
21
-99.8972
0
LINE
8
BLACK
6
CONTINUOUS
10
99.0916
20
-99.8972
11
98.9012
21
-100.088
0
LINE
8
BLACK
6
CONTINUOUS
10
98.9012
20
-100.088
11
98.7107
21
-100.183
0
LINE
8
BLACK
6
CONTINUOUS
10
101.758
20
-101.612
11
100.615
21
-101.612
0
LINE
8
BLACK
6
CONTINUOUS
10
101.187
20
-101.612
11
101.187
21
-99.6115
0
LINE
8
BLACK
6
CONTINUOUS
10
101.187
20
-99.6115
11
100.996
21
-99.8972
0
LINE
8
BLACK
6
CONTINUOUS
10
100.996
20
-99.8972
11
100.806
21
-100.088
0
LINE
8
BLACK
6
CONTINUOUS
10
100.806
20
-100.088
11
100.615
21
-100.183
0
LINE
8
BLACK
6
CONTINUOUS
10
102.901
20
-100.469
11
102.711
21
-100.373
0
LINE
8
BLACK
6
CONTINUOUS
10
102.711
20
-100.373
11
102.615
21
-100.278
0
LINE
8
BLACK
6
CONTINUOUS
10
102.615
20
-100.278
11
102.52
21
-100.088
0
LINE
8
BLACK
6
CONTINUOUS
10
102.52
20
-100.088
11
102.52
21
-99.9925
0
LINE
8
BLACK
6
CONTINUOUS
10
102.52
20
-99.9925
11
102.615
21
-99.802
0
LINE
8
BLACK
6
CONTINUOUS
10
102.615
20
-99.802
11
102.711
21
-99.7068
0
LINE
8
BLACK
6
CONTINUOUS
10
102.711
20
-99.7068
11
102.901
21
-99.6115
0
LINE
8
BLACK
6
CONTINUOUS
10
102.901
20
-99.6115
11
103.282
21
-99.6115
0
LINE
8
BLACK
6
CONTINUOUS
10
103.282
20
-99.6115
11
103.473
21
-99.7068
0
LINE
8
BLACK
6
CONTINUOUS
10
103.473
20
-99.7068
11
103.568
21
-99.802
0
LINE
8
BLACK
6
CONTINUOUS
10
103.568
20
-99.802
11
103.663
21
-99.9925
0
LINE
8
BLACK
6
CONTINUOUS
10
103.663
20
-99.9925
11
103.663
21
-100.088
0
LINE
8
BLACK
6
CONTINUOUS
10
103.663
20
-100.088
11
103.568
21
-100.278
0
LINE
8
BLACK
6
CONTINUOUS
10
103.568
20
-100.278
11
103.473
21
-100.373
0
LINE
8
BLACK
6
CONTINUOUS
10
103.473
20
-100.373
11
103.282
21
-100.469
0
LINE
8
BLACK
6
CONTINUOUS
10
103.282
20
-100.469
11
102.901
21
-100.469
0
LINE
8
BLACK
6
CONTINUOUS
10
102.901
20
-100.469
11
102.711
21
-100.564
0
LINE
8
BLACK
6
CONTINUOUS
10
102.711
20
-100.564
11
102.615
21
-100.659
0
LINE
8
BLACK
6
CONTINUOUS
10
102.615
20
-100.659
11
102.52
21
-100.85
0
LINE
8
BLACK
6
CONTINUOUS
10
102.52
20
-100.85
11
102.52
21
-101.231
0
LINE
8
BLACK
6
CONTINUOUS
10
102.52
20
-101.231
11
102.615
21
-101.421
0
LINE
8
BLACK
6
CONTINUOUS
10
102.615
20
-101.421
11
102.711
21
-101.516
0
LINE
8
BLACK
6
CONTINUOUS
10
102.711
20
-101.516
11
102.901
21
-101.612
0
LINE
8
BLACK
6
CONTINUOUS
10
102.901
20
-101.612
11
103.282
21
-101.612
0
LINE
8
BLACK
6
CONTINUOUS
10
103.282
20
-101.612
11
103.473
21
-101.516
0
LINE
8
BLACK
6
CONTINUOUS
10
103.473
20
-101.516
11
103.568
21
-101.421
0
LINE
8
BLACK
6
CONTINUOUS
10
103.568
20
-101.421
11
103.663
21
-101.231
0
LINE
8
BLACK
6
CONTINUOUS
10
103.663
20
-101.231
11
103.663
21
-100.85
0
LINE
8
BLACK
6
CONTINUOUS
10
103.663
20
-100.85
11
103.568
21
-100.659
0
LINE
8
BLACK
6
CONTINUOUS
10
103.568
20
-100.659
11
103.473
21
-100.564
0
LINE
8
BLACK
6
CONTINUOUS
10
103.473
20
-100.564
11
103.282
21
-100.469
0
LINE
8
BLACK
6
CONTINUOUS
10
105.568
20
-101.612
11
104.425
21
-101.612
0
LINE
8
BLACK
6
CONTINUOUS
10
104.996
20
-101.612
11
104.996
21
-99.6115
0
LINE
8
BLACK
6
CONTINUOUS
10
104.996
20
-99.6115
11
104.806
21
-99.8972
0
LINE
8
BLACK
6
CONTINUOUS
10
104.806
20
-99.8972
11
104.615
21
-100.088
0
LINE
8
BLACK
6
CONTINUOUS
10
104.615
20
-100.088
11
104.425
21
-100.183
0
LINE
8
BLACK
6
CONTINUOUS
10
106.33
20
-99.6115
11
106.33
21
-99.9925
0
LINE
8
BLACK
6
CONTINUOUS
10
107.092
20
-99.6115
11
107.092
21
-99.9925
0
LINE
8
BLACK
6
CONTINUOUS
10
110.044
20
-102.373
11
109.949
21
-102.278
0
LINE
8
BLACK
6
CONTINUOUS
10
109.949
20
-102.278
11
109.758
21
-101.992
0
LINE
8
BLACK
6
CONTINUOUS
10
109.758
20
-101.992
11
109.663
21
-101.802
0
LINE
8
BLACK
6
CONTINUOUS
10
109.663
20
-101.802
11
109.568
21
-101.516
0
LINE
8
BLACK
6
CONTINUOUS
10
109.568
20
-101.516
11
109.473
21
-101.04
0
LINE
8
BLACK
6
CONTINUOUS
10
109.473
20
-101.04
11
109.473
21
-100.659
0
LINE
8
BLACK
6
CONTINUOUS
10
109.473
20
-100.659
11
109.568
21
-100.183
0
LINE
8
BLACK
6
CONTINUOUS
10
109.568
20
-100.183
11
109.663
21
-99.8972
0
LINE
8
BLACK
6
CONTINUOUS
10
109.663
20
-99.8972
11
109.758
21
-99.7068
0
LINE
8
BLACK
6
CONTINUOUS
10
109.758
20
-99.7068
11
109.949
21
-99.421
0
LINE
8
BLACK
6
CONTINUOUS
10
109.949
20
-99.421
11
110.044
21
-99.3258
0
LINE
8
BLACK
6
CONTINUOUS
10
110.615
20
-99.6115
11
111.854
21
-99.6115
0
LINE
8
BLACK
6
CONTINUOUS
10
111.854
20
-99.6115
11
111.187
21
-100.373
0
LINE
8
BLACK
6
CONTINUOUS
10
111.187
20
-100.373
11
111.473
21
-100.373
0
LINE
8
BLACK
6
CONTINUOUS
10
111.473
20
-100.373
11
111.663
21
-100.469
0
LINE
8
BLACK
6
CONTINUOUS
10
111.663
20
-100.469
11
111.758
21
-100.564
0
LINE
8
BLACK
6
CONTINUOUS
10
111.758
20
-100.564
11
111.854
21
-100.754
0
LINE
8
BLACK
6
CONTINUOUS
10
111.854
20
-100.754
11
111.854
21
-101.231
0
LINE
8
BLACK
6
CONTINUOUS
10
111.854
20
-101.231
11
111.758
21
-101.421
0
LINE
8
BLACK
6
CONTINUOUS
10
111.758
20
-101.421
11
111.663
21
-101.516
0
LINE
8
BLACK
6
CONTINUOUS
10
111.663
20
-101.516
11
111.473
21
-101.612
0
LINE
8
BLACK
6
CONTINUOUS
10
111.473
20
-101.612
11
110.901
21
-101.612
0
LINE
8
BLACK
6
CONTINUOUS
10
110.901
20
-101.612
11
110.711
21
-101.516
0
LINE
8
BLACK
6
CONTINUOUS
10
110.711
20
-101.516
11
110.615
21
-101.421
0
LINE
8
BLACK
6
CONTINUOUS
10
112.615
20
-99.802
11
112.711
21
-99.7068
0
LINE
8
BLACK
6
CONTINUOUS
10
112.711
20
-99.7068
11
112.901
21
-99.6115
0
LINE
8
BLACK
6
CONTINUOUS
10
112.901
20
-99.6115
11
113.377
21
-99.6115
0
LINE
8
BLACK
6
CONTINUOUS
10
113.377
20
-99.6115
11
113.568
21
-99.7068
0
LINE
8
BLACK
6
CONTINUOUS
10
113.568
20
-99.7068
11
113.663
21
-99.802
0
LINE
8
BLACK
6
CONTINUOUS
10
113.663
20
-99.802
11
113.758
21
-99.9925
0
LINE
8
BLACK
6
CONTINUOUS
10
113.758
20
-99.9925
11
113.758
21
-100.183
0
LINE
8
BLACK
6
CONTINUOUS
10
113.758
20
-100.183
11
113.663
21
-100.469
0
LINE
8
BLACK
6
CONTINUOUS
10
113.663
20
-100.469
11
112.52
21
-101.612
0
LINE
8
BLACK
6
CONTINUOUS
10
112.52
20
-101.612
11
113.758
21
-101.612
0
LINE
8
BLACK
6
CONTINUOUS
10
116.139
20
-101.612
11
116.139
21
-99.6115
0
LINE
8
BLACK
6
CONTINUOUS
10
116.996
20
-101.612
11
116.996
21
-100.564
0
LINE
8
BLACK
6
CONTINUOUS
10
116.996
20
-100.564
11
116.901
21
-100.373
0
LINE
8
BLACK
6
CONTINUOUS
10
116.901
20
-100.373
11
116.711
21
-100.278
0
LINE
8
BLACK
6
CONTINUOUS
10
116.711
20
-100.278
11
116.425
21
-100.278
0
LINE
8
BLACK
6
CONTINUOUS
10
116.425
20
-100.278
11
116.234
21
-100.373
0
LINE
8
BLACK
6
CONTINUOUS
10
116.234
20
-100.373
11
116.139
21
-100.469
0
LINE
8
BLACK
6
CONTINUOUS
10
118.234
20
-101.612
11
118.044
21
-101.516
0
LINE
8
BLACK
6
CONTINUOUS
10
118.044
20
-101.516
11
117.949
21
-101.421
0
LINE
8
BLACK
6
CONTINUOUS
10
117.949
20
-101.421
11
117.854
21
-101.231
0
LINE
8
BLACK
6
CONTINUOUS
10
117.854
20
-101.231
11
117.854
21
-100.659
0
LINE
8
BLACK
6
CONTINUOUS
10
117.854
20
-100.659
11
117.949
21
-100.469
0
LINE
8
BLACK
6
CONTINUOUS
10
117.949
20
-100.469
11
118.044
21
-100.373
0
LINE
8
BLACK
6
CONTINUOUS
10
118.044
20
-100.373
11
118.234
21
-100.278
0
LINE
8
BLACK
6
CONTINUOUS
10
118.234
20
-100.278
11
118.52
21
-100.278
0
LINE
8
BLACK
6
CONTINUOUS
10
118.52
20
-100.278
11
118.711
21
-100.373
0
LINE
8
BLACK
6
CONTINUOUS
10
118.711
20
-100.373
11
118.806
21
-100.469
0
LINE
8
BLACK
6
CONTINUOUS
10
118.806
20
-100.469
11
118.901
21
-100.659
0
LINE
8
BLACK
6
CONTINUOUS
10
118.901
20
-100.659
11
118.901
21
-101.231
0
LINE
8
BLACK
6
CONTINUOUS
10
118.901
20
-101.231
11
118.806
21
-101.421
0
LINE
8
BLACK
6
CONTINUOUS
10
118.806
20
-101.421
11
118.711
21
-101.516
0
LINE
8
BLACK
6
CONTINUOUS
10
118.711
20
-101.516
11
118.52
21
-101.612
0
LINE
8
BLACK
6
CONTINUOUS
10
118.52
20
-101.612
11
118.234
21
-101.612
0
LINE
8
BLACK
6
CONTINUOUS
10
120.044
20
-101.612
11
119.854
21
-101.516
0
LINE
8
BLACK
6
CONTINUOUS
10
119.854
20
-101.516
11
119.758
21
-101.326
0
LINE
8
BLACK
6
CONTINUOUS
10
119.758
20
-101.326
11
119.758
21
-99.6115
0
LINE
8
BLACK
6
CONTINUOUS
10
121.568
20
-101.516
11
121.377
21
-101.612
0
LINE
8
BLACK
6
CONTINUOUS
10
121.377
20
-101.612
11
120.996
21
-101.612
0
LINE
8
BLACK
6
CONTINUOUS
10
120.996
20
-101.612
11
120.806
21
-101.516
0
LINE
8
BLACK
6
CONTINUOUS
10
120.806
20
-101.516
11
120.711
21
-101.326
0
LINE
8
BLACK
6
CONTINUOUS
10
120.711
20
-101.326
11
120.711
21
-100.564
0
LINE
8
BLACK
6
CONTINUOUS
10
120.711
20
-100.564
11
120.806
21
-100.373
0
LINE
8
BLACK
6
CONTINUOUS
10
120.806
20
-100.373
11
120.996
21
-100.278
0
LINE
8
BLACK
6
CONTINUOUS
10
120.996
20
-100.278
11
121.377
21
-100.278
0
LINE
8
BLACK
6
CONTINUOUS
10
121.377
20
-100.278
11
121.568
21
-100.373
0
LINE
8
BLACK
6
CONTINUOUS
10
121.568
20
-100.373
11
121.663
21
-100.564
0
LINE
8
BLACK
6
CONTINUOUS
10
121.663
20
-100.564
11
121.663
21
-100.754
0
LINE
8
BLACK
6
CONTINUOUS
10
121.663
20
-100.754
11
120.711
21
-100.945
0
LINE
8
BLACK
6
CONTINUOUS
10
122.425
20
-101.516
11
122.615
21
-101.612
0
LINE
8
BLACK
6
CONTINUOUS
10
122.615
20
-101.612
11
122.996
21
-101.612
0
LINE
8
BLACK
6
CONTINUOUS
10
122.996
20
-101.612
11
123.187
21
-101.516
0
LINE
8
BLACK
6
CONTINUOUS
10
123.187
20
-101.516
11
123.282
21
-101.326
0
LINE
8
BLACK
6
CONTINUOUS
10
123.282
20
-101.326
11
123.282
21
-101.231
0
LINE
8
BLACK
6
CONTINUOUS
10
123.282
20
-101.231
11
123.187
21
-101.04
0
LINE
8
BLACK
6
CONTINUOUS
10
123.187
20
-101.04
11
122.996
21
-100.945
0
LINE
8
BLACK
6
CONTINUOUS
10
122.996
20
-100.945
11
122.711
21
-100.945
0
LINE
8
BLACK
6
CONTINUOUS
10
122.711
20
-100.945
11
122.52
21
-100.85
0
LINE
8
BLACK
6
CONTINUOUS
10
122.52
20
-100.85
11
122.425
21
-100.659
0
LINE
8
BLACK
6
CONTINUOUS
10
122.425
20
-100.659
11
122.425
21
-100.564
0
LINE
8
BLACK
6
CONTINUOUS
10
122.425
20
-100.564
11
122.52
21
-100.373
0
LINE
8
BLACK
6
CONTINUOUS
10
122.52
20
-100.373
11
122.711
21
-100.278
0
LINE
8
BLACK
6
CONTINUOUS
10
122.711
20
-100.278
11
122.996
21
-100.278
0
LINE
8
BLACK
6
CONTINUOUS
10
122.996
20
-100.278
11
123.187
21
-100.373
0
LINE
8
BLACK
6
CONTINUOUS
10
123.949
20
-102.373
11
124.044
21
-102.278
0
LINE
8
BLACK
6
CONTINUOUS
10
124.044
20
-102.278
11
124.234
21
-101.992
0
LINE
8
BLACK
6
CONTINUOUS
10
124.234
20
-101.992
11
124.33
21
-101.802
0
LINE
8
BLACK
6
CONTINUOUS
10
124.33
20
-101.802
11
124.425
21
-101.516
0
LINE
8
BLACK
6
CONTINUOUS
10
124.425
20
-101.516
11
124.52
21
-101.04
0
LINE
8
BLACK
6
CONTINUOUS
10
124.52
20
-101.04
11
124.52
21
-100.659
0
LINE
8
BLACK
6
CONTINUOUS
10
124.52
20
-100.659
11
124.425
21
-100.183
0
LINE
8
BLACK
6
CONTINUOUS
10
124.425
20
-100.183
11
124.33
21
-99.8972
0
LINE
8
BLACK
6
CONTINUOUS
10
124.33
20
-99.8972
11
124.234
21
-99.7068
0
LINE
8
BLACK
6
CONTINUOUS
10
124.234
20
-99.7068
11
124.044
21
-99.421
0
LINE
8
BLACK
6
CONTINUOUS
10
124.044
20
-99.421
11
123.949
21
-99.3258
0
LINE
8
BLACK
6
CONTINUOUS
10
127.568
20
-102.373
11
127.473
21
-102.278
0
LINE
8
BLACK
6
CONTINUOUS
10
127.473
20
-102.278
11
127.282
21
-101.992
0
LINE
8
BLACK
6
CONTINUOUS
10
127.282
20
-101.992
11
127.187
21
-101.802
0
LINE
8
BLACK
6
CONTINUOUS
10
127.187
20
-101.802
11
127.092
21
-101.516
0
LINE
8
BLACK
6
CONTINUOUS
10
127.092
20
-101.516
11
126.996
21
-101.04
0
LINE
8
BLACK
6
CONTINUOUS
10
126.996
20
-101.04
11
126.996
21
-100.659
0
LINE
8
BLACK
6
CONTINUOUS
10
126.996
20
-100.659
11
127.092
21
-100.183
0
LINE
8
BLACK
6
CONTINUOUS
10
127.092
20
-100.183
11
127.187
21
-99.8972
0
LINE
8
BLACK
6
CONTINUOUS
10
127.187
20
-99.8972
11
127.282
21
-99.7068
0
LINE
8
BLACK
6
CONTINUOUS
10
127.282
20
-99.7068
11
127.473
21
-99.421
0
LINE
8
BLACK
6
CONTINUOUS
10
127.473
20
-99.421
11
127.568
21
-99.3258
0
LINE
8
BLACK
6
CONTINUOUS
10
128.33
20
-100.278
11
128.33
21
-101.612
0
LINE
8
BLACK
6
CONTINUOUS
10
128.33
20
-100.469
11
128.425
21
-100.373
0
LINE
8
BLACK
6
CONTINUOUS
10
128.425
20
-100.373
11
128.615
21
-100.278
0
LINE
8
BLACK
6
CONTINUOUS
10
128.615
20
-100.278
11
128.901
21
-100.278
0
LINE
8
BLACK
6
CONTINUOUS
10
128.901
20
-100.278
11
129.092
21
-100.373
0
LINE
8
BLACK
6
CONTINUOUS
10
129.092
20
-100.373
11
129.187
21
-100.564
0
LINE
8
BLACK
6
CONTINUOUS
10
129.187
20
-100.564
11
129.187
21
-101.612
0
LINE
8
BLACK
6
CONTINUOUS
10
130.425
20
-101.612
11
130.234
21
-101.516
0
LINE
8
BLACK
6
CONTINUOUS
10
130.234
20
-101.516
11
130.139
21
-101.421
0
LINE
8
BLACK
6
CONTINUOUS
10
130.139
20
-101.421
11
130.044
21
-101.231
0
LINE
8
BLACK
6
CONTINUOUS
10
130.044
20
-101.231
11
130.044
21
-100.659
0
LINE
8
BLACK
6
CONTINUOUS
10
130.044
20
-100.659
11
130.139
21
-100.469
0
LINE
8
BLACK
6
CONTINUOUS
10
130.139
20
-100.469
11
130.234
21
-100.373
0
LINE
8
BLACK
6
CONTINUOUS
10
130.234
20
-100.373
11
130.425
21
-100.278
0
LINE
8
BLACK
6
CONTINUOUS
10
130.425
20
-100.278
11
130.711
21
-100.278
0
LINE
8
BLACK
6
CONTINUOUS
10
130.711
20
-100.278
11
130.901
21
-100.373
0
LINE
8
BLACK
6
CONTINUOUS
10
130.901
20
-100.373
11
130.996
21
-100.469
0
LINE
8
BLACK
6
CONTINUOUS
10
130.996
20
-100.469
11
131.092
21
-100.659
0
LINE
8
BLACK
6
CONTINUOUS
10
131.092
20
-100.659
11
131.092
21
-101.231
0
LINE
8
BLACK
6
CONTINUOUS
10
131.092
20
-101.231
11
130.996
21
-101.421
0
LINE
8
BLACK
6
CONTINUOUS
10
130.996
20
-101.421
11
130.901
21
-101.516
0
LINE
8
BLACK
6
CONTINUOUS
10
130.901
20
-101.516
11
130.711
21
-101.612
0
LINE
8
BLACK
6
CONTINUOUS
10
130.711
20
-101.612
11
130.425
21
-101.612
0
LINE
8
BLACK
6
CONTINUOUS
10
131.663
20
-100.278
11
132.425
21
-100.278
0
LINE
8
BLACK
6
CONTINUOUS
10
131.949
20
-99.6115
11
131.949
21
-101.326
0
LINE
8
BLACK
6
CONTINUOUS
10
131.949
20
-101.326
11
132.044
21
-101.516
0
LINE
8
BLACK
6
CONTINUOUS
10
132.044
20
-101.516
11
132.234
21
-101.612
0
LINE
8
BLACK
6
CONTINUOUS
10
132.234
20
-101.612
11
132.425
21
-101.612
0
LINE
8
BLACK
6
CONTINUOUS
10
134.615
20
-100.278
11
134.615
21
-102.278
0
LINE
8
BLACK
6
CONTINUOUS
10
134.615
20
-100.373
11
134.806
21
-100.278
0
LINE
8
BLACK
6
CONTINUOUS
10
134.806
20
-100.278
11
135.187
21
-100.278
0
LINE
8
BLACK
6
CONTINUOUS
10
135.187
20
-100.278
11
135.377
21
-100.373
0
LINE
8
BLACK
6
CONTINUOUS
10
135.377
20
-100.373
11
135.473
21
-100.469
0
LINE
8
BLACK
6
CONTINUOUS
10
135.473
20
-100.469
11
135.568
21
-100.659
0
LINE
8
BLACK
6
CONTINUOUS
10
135.568
20
-100.659
11
135.568
21
-101.231
0
LINE
8
BLACK
6
CONTINUOUS
10
135.568
20
-101.231
11
135.473
21
-101.421
0
LINE
8
BLACK
6
CONTINUOUS
10
135.473
20
-101.421
11
135.377
21
-101.516
0
LINE
8
BLACK
6
CONTINUOUS
10
135.377
20
-101.516
11
135.187
21
-101.612
0
LINE
8
BLACK
6
CONTINUOUS
10
135.187
20
-101.612
11
134.806
21
-101.612
0
LINE
8
BLACK
6
CONTINUOUS
10
134.806
20
-101.612
11
134.615
21
-101.516
0
LINE
8
BLACK
6
CONTINUOUS
10
136.711
20
-101.612
11
136.52
21
-101.516
0
LINE
8
BLACK
6
CONTINUOUS
10
136.52
20
-101.516
11
136.425
21
-101.326
0
LINE
8
BLACK
6
CONTINUOUS
10
136.425
20
-101.326
11
136.425
21
-99.6115
0
LINE
8
BLACK
6
CONTINUOUS
10
138.33
20
-101.612
11
138.33
21
-100.564
0
LINE
8
BLACK
6
CONTINUOUS
10
138.33
20
-100.564
11
138.234
21
-100.373
0
LINE
8
BLACK
6
CONTINUOUS
10
138.234
20
-100.373
11
138.044
21
-100.278
0
LINE
8
BLACK
6
CONTINUOUS
10
138.044
20
-100.278
11
137.663
21
-100.278
0
LINE
8
BLACK
6
CONTINUOUS
10
137.663
20
-100.278
11
137.473
21
-100.373
0
LINE
8
BLACK
6
CONTINUOUS
10
138.33
20
-101.516
11
138.139
21
-101.612
0
LINE
8
BLACK
6
CONTINUOUS
10
138.139
20
-101.612
11
137.663
21
-101.612
0
LINE
8
BLACK
6
CONTINUOUS
10
137.663
20
-101.612
11
137.473
21
-101.516
0
LINE
8
BLACK
6
CONTINUOUS
10
137.473
20
-101.516
11
137.377
21
-101.326
0
LINE
8
BLACK
6
CONTINUOUS
10
137.377
20
-101.326
11
137.377
21
-101.135
0
LINE
8
BLACK
6
CONTINUOUS
10
137.377
20
-101.135
11
137.473
21
-100.945
0
LINE
8
BLACK
6
CONTINUOUS
10
137.473
20
-100.945
11
137.663
21
-100.85
0
LINE
8
BLACK
6
CONTINUOUS
10
137.663
20
-100.85
11
138.139
21
-100.85
0
LINE
8
BLACK
6
CONTINUOUS
10
138.139
20
-100.85
11
138.33
21
-100.754
0
LINE
8
BLACK
6
CONTINUOUS
10
138.996
20
-100.278
11
139.758
21
-100.278
0
LINE
8
BLACK
6
CONTINUOUS
10
139.282
20
-99.6115
11
139.282
21
-101.326
0
LINE
8
BLACK
6
CONTINUOUS
10
139.282
20
-101.326
11
139.377
21
-101.516
0
LINE
8
BLACK
6
CONTINUOUS
10
139.377
20
-101.516
11
139.568
21
-101.612
0
LINE
8
BLACK
6
CONTINUOUS
10
139.568
20
-101.612
11
139.758
21
-101.612
0
LINE
8
BLACK
6
CONTINUOUS
10
141.187
20
-101.516
11
140.996
21
-101.612
0
LINE
8
BLACK
6
CONTINUOUS
10
140.996
20
-101.612
11
140.615
21
-101.612
0
LINE
8
BLACK
6
CONTINUOUS
10
140.615
20
-101.612
11
140.425
21
-101.516
0
LINE
8
BLACK
6
CONTINUOUS
10
140.425
20
-101.516
11
140.33
21
-101.326
0
LINE
8
BLACK
6
CONTINUOUS
10
140.33
20
-101.326
11
140.33
21
-100.564
0
LINE
8
BLACK
6
CONTINUOUS
10
140.33
20
-100.564
11
140.425
21
-100.373
0
LINE
8
BLACK
6
CONTINUOUS
10
140.425
20
-100.373
11
140.615
21
-100.278
0
LINE
8
BLACK
6
CONTINUOUS
10
140.615
20
-100.278
11
140.996
21
-100.278
0
LINE
8
BLACK
6
CONTINUOUS
10
140.996
20
-100.278
11
141.187
21
-100.373
0
LINE
8
BLACK
6
CONTINUOUS
10
141.187
20
-100.373
11
141.282
21
-100.564
0
LINE
8
BLACK
6
CONTINUOUS
10
141.282
20
-100.564
11
141.282
21
-100.754
0
LINE
8
BLACK
6
CONTINUOUS
10
141.282
20
-100.754
11
140.33
21
-100.945
0
LINE
8
BLACK
6
CONTINUOUS
10
142.996
20
-101.612
11
142.996
21
-99.6115
0
LINE
8
BLACK
6
CONTINUOUS
10
142.996
20
-101.516
11
142.806
21
-101.612
0
LINE
8
BLACK
6
CONTINUOUS
10
142.806
20
-101.612
11
142.425
21
-101.612
0
LINE
8
BLACK
6
CONTINUOUS
10
142.425
20
-101.612
11
142.234
21
-101.516
0
LINE
8
BLACK
6
CONTINUOUS
10
142.234
20
-101.516
11
142.139
21
-101.421
0
LINE
8
BLACK
6
CONTINUOUS
10
142.139
20
-101.421
11
142.044
21
-101.231
0
LINE
8
BLACK
6
CONTINUOUS
10
142.044
20
-101.231
11
142.044
21
-100.659
0
LINE
8
BLACK
6
CONTINUOUS
10
142.044
20
-100.659
11
142.139
21
-100.469
0
LINE
8
BLACK
6
CONTINUOUS
10
142.139
20
-100.469
11
142.234
21
-100.373
0
LINE
8
BLACK
6
CONTINUOUS
10
142.234
20
-100.373
11
142.425
21
-100.278
0
LINE
8
BLACK
6
CONTINUOUS
10
142.425
20
-100.278
11
142.806
21
-100.278
0
LINE
8
BLACK
6
CONTINUOUS
10
142.806
20
-100.278
11
142.996
21
-100.373
0
LINE
8
BLACK
6
CONTINUOUS
10
143.758
20
-102.373
11
143.854
21
-102.278
0
LINE
8
BLACK
6
CONTINUOUS
10
143.854
20
-102.278
11
144.044
21
-101.992
0
LINE
8
BLACK
6
CONTINUOUS
10
144.044
20
-101.992
11
144.139
21
-101.802
0
LINE
8
BLACK
6
CONTINUOUS
10
144.139
20
-101.802
11
144.234
21
-101.516
0
LINE
8
BLACK
6
CONTINUOUS
10
144.234
20
-101.516
11
144.33
21
-101.04
0
LINE
8
BLACK
6
CONTINUOUS
10
144.33
20
-101.04
11
144.33
21
-100.659
0
LINE
8
BLACK
6
CONTINUOUS
10
144.33
20
-100.659
11
144.234
21
-100.183
0
LINE
8
BLACK
6
CONTINUOUS
10
144.234
20
-100.183
11
144.139
21
-99.8972
0
LINE
8
BLACK
6
CONTINUOUS
10
144.139
20
-99.8972
11
144.044
21
-99.7068
0
LINE
8
BLACK
6
CONTINUOUS
10
144.044
20
-99.7068
11
143.854
21
-99.421
0
LINE
8
BLACK
6
CONTINUOUS
10
143.854
20
-99.421
11
143.758
21
-99.3258
0
LINE
8
BLACK
6
CONTINUOUS
10
72.325
20
-102.907
11
74.325
21
-104.907
0
LINE
8
BLACK
6
CONTINUOUS
10
74.325
20
-102.907
11
72.325
21
-104.907
0
CIRCLE
8
BLACK
10
73.325
20
-103.907
40
1
0
LINE
8
BLACK
6
CONTINUOUS
10
76.7107
20
-102.812
11
77.9488
21
-102.812
0
LINE
8
BLACK
6
CONTINUOUS
10
77.9488
20
-102.812
11
77.2821
21
-103.573
0
LINE
8
BLACK
6
CONTINUOUS
10
77.2821
20
-103.573
11
77.5678
21
-103.573
0
LINE
8
BLACK
6
CONTINUOUS
10
77.5678
20
-103.573
11
77.7583
21
-103.669
0
LINE
8
BLACK
6
CONTINUOUS
10
77.7583
20
-103.669
11
77.8535
21
-103.764
0
LINE
8
BLACK
6
CONTINUOUS
10
77.8535
20
-103.764
11
77.9488
21
-103.954
0
LINE
8
BLACK
6
CONTINUOUS
10
77.9488
20
-103.954
11
77.9488
21
-104.431
0
LINE
8
BLACK
6
CONTINUOUS
10
77.9488
20
-104.431
11
77.8535
21
-104.621
0
LINE
8
BLACK
6
CONTINUOUS
10
77.8535
20
-104.621
11
77.7583
21
-104.716
0
LINE
8
BLACK
6
CONTINUOUS
10
77.7583
20
-104.716
11
77.5678
21
-104.812
0
LINE
8
BLACK
6
CONTINUOUS
10
77.5678
20
-104.812
11
76.9964
21
-104.812
0
LINE
8
BLACK
6
CONTINUOUS
10
76.9964
20
-104.812
11
76.8059
21
-104.716
0
LINE
8
BLACK
6
CONTINUOUS
10
76.8059
20
-104.716
11
76.7107
21
-104.621
0
LINE
8
BLACK
6
CONTINUOUS
10
78.8059
20
-104.621
11
78.9012
21
-104.716
0
LINE
8
BLACK
6
CONTINUOUS
10
78.9012
20
-104.716
11
78.8059
21
-104.812
0
LINE
8
BLACK
6
CONTINUOUS
10
78.8059
20
-104.812
11
78.7107
21
-104.716
0
LINE
8
BLACK
6
CONTINUOUS
10
78.7107
20
-104.716
11
78.8059
21
-104.621
0
LINE
8
BLACK
6
CONTINUOUS
10
78.8059
20
-104.621
11
78.8059
21
-104.812
0
LINE
8
BLACK
6
CONTINUOUS
10
80.6154
20
-103.478
11
80.6154
21
-104.812
0
LINE
8
BLACK
6
CONTINUOUS
10
80.1392
20
-102.716
11
79.6631
21
-104.145
0
LINE
8
BLACK
6
CONTINUOUS
10
79.6631
20
-104.145
11
80.9012
21
-104.145
0
LINE
8
BLACK
6
CONTINUOUS
10
81.5678
20
-103.002
11
81.6631
21
-102.907
0
LINE
8
BLACK
6
CONTINUOUS
10
81.6631
20
-102.907
11
81.8535
21
-102.812
0
LINE
8
BLACK
6
CONTINUOUS
10
81.8535
20
-102.812
11
82.3297
21
-102.812
0
LINE
8
BLACK
6
CONTINUOUS
10
82.3297
20
-102.812
11
82.5202
21
-102.907
0
LINE
8
BLACK
6
CONTINUOUS
10
82.5202
20
-102.907
11
82.6154
21
-103.002
0
LINE
8
BLACK
6
CONTINUOUS
10
82.6154
20
-103.002
11
82.7107
21
-103.192
0
LINE
8
BLACK
6
CONTINUOUS
10
82.7107
20
-103.192
11
82.7107
21
-103.383
0
LINE
8
BLACK
6
CONTINUOUS
10
82.7107
20
-103.383
11
82.6154
21
-103.669
0
LINE
8
BLACK
6
CONTINUOUS
10
82.6154
20
-103.669
11
81.4726
21
-104.812
0
LINE
8
BLACK
6
CONTINUOUS
10
81.4726
20
-104.812
11
82.7107
21
-104.812
0
LINE
8
BLACK
6
CONTINUOUS
10
83.6631
20
-104.812
11
84.044
21
-104.812
0
LINE
8
BLACK
6
CONTINUOUS
10
84.044
20
-104.812
11
84.2345
21
-104.716
0
LINE
8
BLACK
6
CONTINUOUS
10
84.2345
20
-104.716
11
84.3297
21
-104.621
0
LINE
8
BLACK
6
CONTINUOUS
10
84.3297
20
-104.621
11
84.5202
21
-104.335
0
LINE
8
BLACK
6
CONTINUOUS
10
84.5202
20
-104.335
11
84.6154
21
-103.954
0
LINE
8
BLACK
6
CONTINUOUS
10
84.6154
20
-103.954
11
84.6154
21
-103.192
0
LINE
8
BLACK
6
CONTINUOUS
10
84.6154
20
-103.192
11
84.5202
21
-103.002
0
LINE
8
BLACK
6
CONTINUOUS
10
84.5202
20
-103.002
11
84.425
21
-102.907
0
LINE
8
BLACK
6
CONTINUOUS
10
84.425
20
-102.907
11
84.2345
21
-102.812
0
LINE
8
BLACK
6
CONTINUOUS
10
84.2345
20
-102.812
11
83.8535
21
-102.812
0
LINE
8
BLACK
6
CONTINUOUS
10
83.8535
20
-102.812
11
83.6631
21
-102.907
0
LINE
8
BLACK
6
CONTINUOUS
10
83.6631
20
-102.907
11
83.5678
21
-103.002
0
LINE
8
BLACK
6
CONTINUOUS
10
83.5678
20
-103.002
11
83.4726
21
-103.192
0
LINE
8
BLACK
6
CONTINUOUS
10
83.4726
20
-103.192
11
83.4726
21
-103.669
0
LINE
8
BLACK
6
CONTINUOUS
10
83.4726
20
-103.669
11
83.5678
21
-103.859
0
LINE
8
BLACK
6
CONTINUOUS
10
83.5678
20
-103.859
11
83.6631
21
-103.954
0
LINE
8
BLACK
6
CONTINUOUS
10
83.6631
20
-103.954
11
83.8535
21
-104.05
0
LINE
8
BLACK
6
CONTINUOUS
10
83.8535
20
-104.05
11
84.2345
21
-104.05
0
LINE
8
BLACK
6
CONTINUOUS
10
84.2345
20
-104.05
11
84.425
21
-103.954
0
LINE
8
BLACK
6
CONTINUOUS
10
84.425
20
-103.954
11
84.5202
21
-103.859
0
LINE
8
BLACK
6
CONTINUOUS
10
84.5202
20
-103.859
11
84.6154
21
-103.669
0
LINE
8
BLACK
6
CONTINUOUS
10
85.4726
20
-104.812
11
85.4726
21
-103.478
0
LINE
8
BLACK
6
CONTINUOUS
10
85.4726
20
-103.669
11
85.5678
21
-103.573
0
LINE
8
BLACK
6
CONTINUOUS
10
85.5678
20
-103.573
11
85.7583
21
-103.478
0
LINE
8
BLACK
6
CONTINUOUS
10
85.7583
20
-103.478
11
86.044
21
-103.478
0
LINE
8
BLACK
6
CONTINUOUS
10
86.044
20
-103.478
11
86.2345
21
-103.573
0
LINE
8
BLACK
6
CONTINUOUS
10
86.2345
20
-103.573
11
86.3297
21
-103.764
0
LINE
8
BLACK
6
CONTINUOUS
10
86.3297
20
-103.764
11
86.3297
21
-104.812
0
LINE
8
BLACK
6
CONTINUOUS
10
86.3297
20
-103.764
11
86.425
21
-103.573
0
LINE
8
BLACK
6
CONTINUOUS
10
86.425
20
-103.573
11
86.6154
21
-103.478
0
LINE
8
BLACK
6
CONTINUOUS
10
86.6154
20
-103.478
11
86.9012
21
-103.478
0
LINE
8
BLACK
6
CONTINUOUS
10
86.9012
20
-103.478
11
87.0916
21
-103.573
0
LINE
8
BLACK
6
CONTINUOUS
10
87.0916
20
-103.573
11
87.1869
21
-103.764
0
LINE
8
BLACK
6
CONTINUOUS
10
87.1869
20
-103.764
11
87.1869
21
-104.812
0
LINE
8
BLACK
6
CONTINUOUS
10
88.1392
20
-104.812
11
88.1392
21
-103.478
0
LINE
8
BLACK
6
CONTINUOUS
10
88.1392
20
-103.669
11
88.2345
21
-103.573
0
LINE
8
BLACK
6
CONTINUOUS
10
88.2345
20
-103.573
11
88.425
21
-103.478
0
LINE
8
BLACK
6
CONTINUOUS
10
88.425
20
-103.478
11
88.7107
21
-103.478
0
LINE
8
BLACK
6
CONTINUOUS
10
88.7107
20
-103.478
11
88.9012
21
-103.573
0
LINE
8
BLACK
6
CONTINUOUS
10
88.9012
20
-103.573
11
88.9964
21
-103.764
0
LINE
8
BLACK
6
CONTINUOUS
10
88.9964
20
-103.764
11
88.9964
21
-104.812
0
LINE
8
BLACK
6
CONTINUOUS
10
88.9964
20
-103.764
11
89.0916
21
-103.573
0
LINE
8
BLACK
6
CONTINUOUS
10
89.0916
20
-103.573
11
89.2821
21
-103.478
0
LINE
8
BLACK
6
CONTINUOUS
10
89.2821
20
-103.478
11
89.5678
21
-103.478
0
LINE
8
BLACK
6
CONTINUOUS
10
89.5678
20
-103.478
11
89.7583
21
-103.573
0
LINE
8
BLACK
6
CONTINUOUS
10
89.7583
20
-103.573
11
89.8535
21
-103.764
0
LINE
8
BLACK
6
CONTINUOUS
10
89.8535
20
-103.764
11
89.8535
21
-104.812
0
LINE
8
BLACK
6
CONTINUOUS
10
93.7583
20
-102.716
11
92.044
21
-105.288
0
LINE
8
BLACK
6
CONTINUOUS
10
96.3297
20
-102.812
11
96.5202
21
-102.812
0
LINE
8
BLACK
6
CONTINUOUS
10
96.5202
20
-102.812
11
96.7107
21
-102.907
0
LINE
8
BLACK
6
CONTINUOUS
10
96.7107
20
-102.907
11
96.8059
21
-103.002
0
LINE
8
BLACK
6
CONTINUOUS
10
96.8059
20
-103.002
11
96.9012
21
-103.192
0
LINE
8
BLACK
6
CONTINUOUS
10
96.9012
20
-103.192
11
96.9964
21
-103.573
0
LINE
8
BLACK
6
CONTINUOUS
10
96.9964
20
-103.573
11
96.9964
21
-104.05
0
LINE
8
BLACK
6
CONTINUOUS
10
96.9964
20
-104.05
11
96.9012
21
-104.431
0
LINE
8
BLACK
6
CONTINUOUS
10
96.9012
20
-104.431
11
96.8059
21
-104.621
0
LINE
8
BLACK
6
CONTINUOUS
10
96.8059
20
-104.621
11
96.7107
21
-104.716
0
LINE
8
BLACK
6
CONTINUOUS
10
96.7107
20
-104.716
11
96.5202
21
-104.812
0
LINE
8
BLACK
6
CONTINUOUS
10
96.5202
20
-104.812
11
96.3297
21
-104.812
0
LINE
8
BLACK
6
CONTINUOUS
10
96.3297
20
-104.812
11
96.1392
21
-104.716
0
LINE
8
BLACK
6
CONTINUOUS
10
96.1392
20
-104.716
11
96.044
21
-104.621
0
LINE
8
BLACK
6
CONTINUOUS
10
96.044
20
-104.621
11
95.9488
21
-104.431
0
LINE
8
BLACK
6
CONTINUOUS
10
95.9488
20
-104.431
11
95.8535
21
-104.05
0
LINE
8
BLACK
6
CONTINUOUS
10
95.8535
20
-104.05
11
95.8535
21
-103.573
0
LINE
8
BLACK
6
CONTINUOUS
10
95.8535
20
-103.573
11
95.9488
21
-103.192
0
LINE
8
BLACK
6
CONTINUOUS
10
95.9488
20
-103.192
11
96.044
21
-103.002
0
LINE
8
BLACK
6
CONTINUOUS
10
96.044
20
-103.002
11
96.1392
21
-102.907
0
LINE
8
BLACK
6
CONTINUOUS
10
96.1392
20
-102.907
11
96.3297
21
-102.812
0
LINE
8
BLACK
6
CONTINUOUS
10
97.8535
20
-104.621
11
97.9488
21
-104.716
0
LINE
8
BLACK
6
CONTINUOUS
10
97.9488
20
-104.716
11
97.8535
21
-104.812
0
LINE
8
BLACK
6
CONTINUOUS
10
97.8535
20
-104.812
11
97.7583
21
-104.716
0
LINE
8
BLACK
6
CONTINUOUS
10
97.7583
20
-104.716
11
97.8535
21
-104.621
0
LINE
8
BLACK
6
CONTINUOUS
10
97.8535
20
-104.621
11
97.8535
21
-104.812
0
LINE
8
BLACK
6
CONTINUOUS
10
99.8535
20
-104.812
11
98.7107
21
-104.812
0
LINE
8
BLACK
6
CONTINUOUS
10
99.2821
20
-104.812
11
99.2821
21
-102.812
0
LINE
8
BLACK
6
CONTINUOUS
10
99.2821
20
-102.812
11
99.0916
21
-103.097
0
LINE
8
BLACK
6
CONTINUOUS
10
99.0916
20
-103.097
11
98.9012
21
-103.288
0
LINE
8
BLACK
6
CONTINUOUS
10
98.9012
20
-103.288
11
98.7107
21
-103.383
0
LINE
8
BLACK
6
CONTINUOUS
10
100.52
20
-102.812
11
101.758
21
-102.812
0
LINE
8
BLACK
6
CONTINUOUS
10
101.758
20
-102.812
11
101.092
21
-103.573
0
LINE
8
BLACK
6
CONTINUOUS
10
101.092
20
-103.573
11
101.377
21
-103.573
0
LINE
8
BLACK
6
CONTINUOUS
10
101.377
20
-103.573
11
101.568
21
-103.669
0
LINE
8
BLACK
6
CONTINUOUS
10
101.568
20
-103.669
11
101.663
21
-103.764
0
LINE
8
BLACK
6
CONTINUOUS
10
101.663
20
-103.764
11
101.758
21
-103.954
0
LINE
8
BLACK
6
CONTINUOUS
10
101.758
20
-103.954
11
101.758
21
-104.431
0
LINE
8
BLACK
6
CONTINUOUS
10
101.758
20
-104.431
11
101.663
21
-104.621
0
LINE
8
BLACK
6
CONTINUOUS
10
101.663
20
-104.621
11
101.568
21
-104.716
0
LINE
8
BLACK
6
CONTINUOUS
10
101.568
20
-104.716
11
101.377
21
-104.812
0
LINE
8
BLACK
6
CONTINUOUS
10
101.377
20
-104.812
11
100.806
21
-104.812
0
LINE
8
BLACK
6
CONTINUOUS
10
100.806
20
-104.812
11
100.615
21
-104.716
0
LINE
8
BLACK
6
CONTINUOUS
10
100.615
20
-104.716
11
100.52
21
-104.621
0
LINE
8
BLACK
6
CONTINUOUS
10
103.568
20
-102.812
11
102.615
21
-102.812
0
LINE
8
BLACK
6
CONTINUOUS
10
102.615
20
-102.812
11
102.52
21
-103.764
0
LINE
8
BLACK
6
CONTINUOUS
10
102.52
20
-103.764
11
102.615
21
-103.669
0
LINE
8
BLACK
6
CONTINUOUS
10
102.615
20
-103.669
11
102.806
21
-103.573
0
LINE
8
BLACK
6
CONTINUOUS
10
102.806
20
-103.573
11
103.282
21
-103.573
0
LINE
8
BLACK
6
CONTINUOUS
10
103.282
20
-103.573
11
103.473
21
-103.669
0
LINE
8
BLACK
6
CONTINUOUS
10
103.473
20
-103.669
11
103.568
21
-103.764
0
LINE
8
BLACK
6
CONTINUOUS
10
103.568
20
-103.764
11
103.663
21
-103.954
0
LINE
8
BLACK
6
CONTINUOUS
10
103.663
20
-103.954
11
103.663
21
-104.431
0
LINE
8
BLACK
6
CONTINUOUS
10
103.663
20
-104.431
11
103.568
21
-104.621
0
LINE
8
BLACK
6
CONTINUOUS
10
103.568
20
-104.621
11
103.473
21
-104.716
0
LINE
8
BLACK
6
CONTINUOUS
10
103.473
20
-104.716
11
103.282
21
-104.812
0
LINE
8
BLACK
6
CONTINUOUS
10
103.282
20
-104.812
11
102.806
21
-104.812
0
LINE
8
BLACK
6
CONTINUOUS
10
102.806
20
-104.812
11
102.615
21
-104.716
0
LINE
8
BLACK
6
CONTINUOUS
10
102.615
20
-104.716
11
102.52
21
-104.621
0
LINE
8
BLACK
6
CONTINUOUS
10
104.901
20
-102.812
11
105.092
21
-102.812
0
LINE
8
BLACK
6
CONTINUOUS
10
105.092
20
-102.812
11
105.282
21
-102.907
0
LINE
8
BLACK
6
CONTINUOUS
10
105.282
20
-102.907
11
105.377
21
-103.002
0
LINE
8
BLACK
6
CONTINUOUS
10
105.377
20
-103.002
11
105.473
21
-103.192
0
LINE
8
BLACK
6
CONTINUOUS
10
105.473
20
-103.192
11
105.568
21
-103.573
0
LINE
8
BLACK
6
CONTINUOUS
10
105.568
20
-103.573
11
105.568
21
-104.05
0
LINE
8
BLACK
6
CONTINUOUS
10
105.568
20
-104.05
11
105.473
21
-104.431
0
LINE
8
BLACK
6
CONTINUOUS
10
105.473
20
-104.431
11
105.377
21
-104.621
0
LINE
8
BLACK
6
CONTINUOUS
10
105.377
20
-104.621
11
105.282
21
-104.716
0
LINE
8
BLACK
6
CONTINUOUS
10
105.282
20
-104.716
11
105.092
21
-104.812
0
LINE
8
BLACK
6
CONTINUOUS
10
105.092
20
-104.812
11
104.901
21
-104.812
0
LINE
8
BLACK
6
CONTINUOUS
10
104.901
20
-104.812
11
104.711
21
-104.716
0
LINE
8
BLACK
6
CONTINUOUS
10
104.711
20
-104.716
11
104.615
21
-104.621
0
LINE
8
BLACK
6
CONTINUOUS
10
104.615
20
-104.621
11
104.52
21
-104.431
0
LINE
8
BLACK
6
CONTINUOUS
10
104.52
20
-104.431
11
104.425
21
-104.05
0
LINE
8
BLACK
6
CONTINUOUS
10
104.425
20
-104.05
11
104.425
21
-103.573
0
LINE
8
BLACK
6
CONTINUOUS
10
104.425
20
-103.573
11
104.52
21
-103.192
0
LINE
8
BLACK
6
CONTINUOUS
10
104.52
20
-103.192
11
104.615
21
-103.002
0
LINE
8
BLACK
6
CONTINUOUS
10
104.615
20
-103.002
11
104.711
21
-102.907
0
LINE
8
BLACK
6
CONTINUOUS
10
104.711
20
-102.907
11
104.901
21
-102.812
0
LINE
8
BLACK
6
CONTINUOUS
10
106.33
20
-102.812
11
106.33
21
-103.192
0
LINE
8
BLACK
6
CONTINUOUS
10
107.092
20
-102.812
11
107.092
21
-103.192
0
LINE
8
BLACK
6
CONTINUOUS
10
110.044
20
-105.573
11
109.949
21
-105.478
0
LINE
8
BLACK
6
CONTINUOUS
10
109.949
20
-105.478
11
109.758
21
-105.192
0
LINE
8
BLACK
6
CONTINUOUS
10
109.758
20
-105.192
11
109.663
21
-105.002
0
LINE
8
BLACK
6
CONTINUOUS
10
109.663
20
-105.002
11
109.568
21
-104.716
0
LINE
8
BLACK
6
CONTINUOUS
10
109.568
20
-104.716
11
109.473
21
-104.24
0
LINE
8
BLACK
6
CONTINUOUS
10
109.473
20
-104.24
11
109.473
21
-103.859
0
LINE
8
BLACK
6
CONTINUOUS
10
109.473
20
-103.859
11
109.568
21
-103.383
0
LINE
8
BLACK
6
CONTINUOUS
10
109.568
20
-103.383
11
109.663
21
-103.097
0
LINE
8
BLACK
6
CONTINUOUS
10
109.663
20
-103.097
11
109.758
21
-102.907
0
LINE
8
BLACK
6
CONTINUOUS
10
109.758
20
-102.907
11
109.949
21
-102.621
0
LINE
8
BLACK
6
CONTINUOUS
10
109.949
20
-102.621
11
110.044
21
-102.526
0
LINE
8
BLACK
6
CONTINUOUS
10
111.854
20
-104.812
11
110.711
21
-104.812
0
LINE
8
BLACK
6
CONTINUOUS
10
111.282
20
-104.812
11
111.282
21
-102.812
0
LINE
8
BLACK
6
CONTINUOUS
10
111.282
20
-102.812
11
111.092
21
-103.097
0
LINE
8
BLACK
6
CONTINUOUS
10
111.092
20
-103.097
11
110.901
21
-103.288
0
LINE
8
BLACK
6
CONTINUOUS
10
110.901
20
-103.288
11
110.711
21
-103.383
0
LINE
8
BLACK
6
CONTINUOUS
10
113.568
20
-102.812
11
113.187
21
-102.812
0
LINE
8
BLACK
6
CONTINUOUS
10
113.187
20
-102.812
11
112.996
21
-102.907
0
LINE
8
BLACK
6
CONTINUOUS
10
112.996
20
-102.907
11
112.901
21
-103.002
0
LINE
8
BLACK
6
CONTINUOUS
10
112.901
20
-103.002
11
112.711
21
-103.288
0
LINE
8
BLACK
6
CONTINUOUS
10
112.711
20
-103.288
11
112.615
21
-103.669
0
LINE
8
BLACK
6
CONTINUOUS
10
112.615
20
-103.669
11
112.615
21
-104.431
0
LINE
8
BLACK
6
CONTINUOUS
10
112.615
20
-104.431
11
112.711
21
-104.621
0
LINE
8
BLACK
6
CONTINUOUS
10
112.711
20
-104.621
11
112.806
21
-104.716
0
LINE
8
BLACK
6
CONTINUOUS
10
112.806
20
-104.716
11
112.996
21
-104.812
0
LINE
8
BLACK
6
CONTINUOUS
10
112.996
20
-104.812
11
113.377
21
-104.812
0
LINE
8
BLACK
6
CONTINUOUS
10
113.377
20
-104.812
11
113.568
21
-104.716
0
LINE
8
BLACK
6
CONTINUOUS
10
113.568
20
-104.716
11
113.663
21
-104.621
0
LINE
8
BLACK
6
CONTINUOUS
10
113.663
20
-104.621
11
113.758
21
-104.431
0
LINE
8
BLACK
6
CONTINUOUS
10
113.758
20
-104.431
11
113.758
21
-103.954
0
LINE
8
BLACK
6
CONTINUOUS
10
113.758
20
-103.954
11
113.663
21
-103.764
0
LINE
8
BLACK
6
CONTINUOUS
10
113.663
20
-103.764
11
113.568
21
-103.669
0
LINE
8
BLACK
6
CONTINUOUS
10
113.568
20
-103.669
11
113.377
21
-103.573
0
LINE
8
BLACK
6
CONTINUOUS
10
113.377
20
-103.573
11
112.996
21
-103.573
0
LINE
8
BLACK
6
CONTINUOUS
10
112.996
20
-103.573
11
112.806
21
-103.669
0
LINE
8
BLACK
6
CONTINUOUS
10
112.806
20
-103.669
11
112.711
21
-103.764
0
LINE
8
BLACK
6
CONTINUOUS
10
112.711
20
-103.764
11
112.615
21
-103.954
0
LINE
8
BLACK
6
CONTINUOUS
10
116.139
20
-104.812
11
116.139
21
-102.812
0
LINE
8
BLACK
6
CONTINUOUS
10
116.996
20
-104.812
11
116.996
21
-103.764
0
LINE
8
BLACK
6
CONTINUOUS
10
116.996
20
-103.764
11
116.901
21
-103.573
0
LINE
8
BLACK
6
CONTINUOUS
10
116.901
20
-103.573
11
116.711
21
-103.478
0
LINE
8
BLACK
6
CONTINUOUS
10
116.711
20
-103.478
11
116.425
21
-103.478
0
LINE
8
BLACK
6
CONTINUOUS
10
116.425
20
-103.478
11
116.234
21
-103.573
0
LINE
8
BLACK
6
CONTINUOUS
10
116.234
20
-103.573
11
116.139
21
-103.669
0
LINE
8
BLACK
6
CONTINUOUS
10
118.234
20
-104.812
11
118.044
21
-104.716
0
LINE
8
BLACK
6
CONTINUOUS
10
118.044
20
-104.716
11
117.949
21
-104.621
0
LINE
8
BLACK
6
CONTINUOUS
10
117.949
20
-104.621
11
117.854
21
-104.431
0
LINE
8
BLACK
6
CONTINUOUS
10
117.854
20
-104.431
11
117.854
21
-103.859
0
LINE
8
BLACK
6
CONTINUOUS
10
117.854
20
-103.859
11
117.949
21
-103.669
0
LINE
8
BLACK
6
CONTINUOUS
10
117.949
20
-103.669
11
118.044
21
-103.573
0
LINE
8
BLACK
6
CONTINUOUS
10
118.044
20
-103.573
11
118.234
21
-103.478
0
LINE
8
BLACK
6
CONTINUOUS
10
118.234
20
-103.478
11
118.52
21
-103.478
0
LINE
8
BLACK
6
CONTINUOUS
10
118.52
20
-103.478
11
118.711
21
-103.573
0
LINE
8
BLACK
6
CONTINUOUS
10
118.711
20
-103.573
11
118.806
21
-103.669
0
LINE
8
BLACK
6
CONTINUOUS
10
118.806
20
-103.669
11
118.901
21
-103.859
0
LINE
8
BLACK
6
CONTINUOUS
10
118.901
20
-103.859
11
118.901
21
-104.431
0
LINE
8
BLACK
6
CONTINUOUS
10
118.901
20
-104.431
11
118.806
21
-104.621
0
LINE
8
BLACK
6
CONTINUOUS
10
118.806
20
-104.621
11
118.711
21
-104.716
0
LINE
8
BLACK
6
CONTINUOUS
10
118.711
20
-104.716
11
118.52
21
-104.812
0
LINE
8
BLACK
6
CONTINUOUS
10
118.52
20
-104.812
11
118.234
21
-104.812
0
LINE
8
BLACK
6
CONTINUOUS
10
120.044
20
-104.812
11
119.854
21
-104.716
0
LINE
8
BLACK
6
CONTINUOUS
10
119.854
20
-104.716
11
119.758
21
-104.526
0
LINE
8
BLACK
6
CONTINUOUS
10
119.758
20
-104.526
11
119.758
21
-102.812
0
LINE
8
BLACK
6
CONTINUOUS
10
121.568
20
-104.716
11
121.377
21
-104.812
0
LINE
8
BLACK
6
CONTINUOUS
10
121.377
20
-104.812
11
120.996
21
-104.812
0
LINE
8
BLACK
6
CONTINUOUS
10
120.996
20
-104.812
11
120.806
21
-104.716
0
LINE
8
BLACK
6
CONTINUOUS
10
120.806
20
-104.716
11
120.711
21
-104.526
0
LINE
8
BLACK
6
CONTINUOUS
10
120.711
20
-104.526
11
120.711
21
-103.764
0
LINE
8
BLACK
6
CONTINUOUS
10
120.711
20
-103.764
11
120.806
21
-103.573
0
LINE
8
BLACK
6
CONTINUOUS
10
120.806
20
-103.573
11
120.996
21
-103.478
0
LINE
8
BLACK
6
CONTINUOUS
10
120.996
20
-103.478
11
121.377
21
-103.478
0
LINE
8
BLACK
6
CONTINUOUS
10
121.377
20
-103.478
11
121.568
21
-103.573
0
LINE
8
BLACK
6
CONTINUOUS
10
121.568
20
-103.573
11
121.663
21
-103.764
0
LINE
8
BLACK
6
CONTINUOUS
10
121.663
20
-103.764
11
121.663
21
-103.954
0
LINE
8
BLACK
6
CONTINUOUS
10
121.663
20
-103.954
11
120.711
21
-104.145
0
LINE
8
BLACK
6
CONTINUOUS
10
122.425
20
-104.716
11
122.615
21
-104.812
0
LINE
8
BLACK
6
CONTINUOUS
10
122.615
20
-104.812
11
122.996
21
-104.812
0
LINE
8
BLACK
6
CONTINUOUS
10
122.996
20
-104.812
11
123.187
21
-104.716
0
LINE
8
BLACK
6
CONTINUOUS
10
123.187
20
-104.716
11
123.282
21
-104.526
0
LINE
8
BLACK
6
CONTINUOUS
10
123.282
20
-104.526
11
123.282
21
-104.431
0
LINE
8
BLACK
6
CONTINUOUS
10
123.282
20
-104.431
11
123.187
21
-104.24
0
LINE
8
BLACK
6
CONTINUOUS
10
123.187
20
-104.24
11
122.996
21
-104.145
0
LINE
8
BLACK
6
CONTINUOUS
10
122.996
20
-104.145
11
122.711
21
-104.145
0
LINE
8
BLACK
6
CONTINUOUS
10
122.711
20
-104.145
11
122.52
21
-104.05
0
LINE
8
BLACK
6
CONTINUOUS
10
122.52
20
-104.05
11
122.425
21
-103.859
0
LINE
8
BLACK
6
CONTINUOUS
10
122.425
20
-103.859
11
122.425
21
-103.764
0
LINE
8
BLACK
6
CONTINUOUS
10
122.425
20
-103.764
11
122.52
21
-103.573
0
LINE
8
BLACK
6
CONTINUOUS
10
122.52
20
-103.573
11
122.711
21
-103.478
0
LINE
8
BLACK
6
CONTINUOUS
10
122.711
20
-103.478
11
122.996
21
-103.478
0
LINE
8
BLACK
6
CONTINUOUS
10
122.996
20
-103.478
11
123.187
21
-103.573
0
LINE
8
BLACK
6
CONTINUOUS
10
123.949
20
-105.573
11
124.044
21
-105.478
0
LINE
8
BLACK
6
CONTINUOUS
10
124.044
20
-105.478
11
124.234
21
-105.192
0
LINE
8
BLACK
6
CONTINUOUS
10
124.234
20
-105.192
11
124.33
21
-105.002
0
LINE
8
BLACK
6
CONTINUOUS
10
124.33
20
-105.002
11
124.425
21
-104.716
0
LINE
8
BLACK
6
CONTINUOUS
10
124.425
20
-104.716
11
124.52
21
-104.24
0
LINE
8
BLACK
6
CONTINUOUS
10
124.52
20
-104.24
11
124.52
21
-103.859
0
LINE
8
BLACK
6
CONTINUOUS
10
124.52
20
-103.859
11
124.425
21
-103.383
0
LINE
8
BLACK
6
CONTINUOUS
10
124.425
20
-103.383
11
124.33
21
-103.097
0
LINE
8
BLACK
6
CONTINUOUS
10
124.33
20
-103.097
11
124.234
21
-102.907
0
LINE
8
BLACK
6
CONTINUOUS
10
124.234
20
-102.907
11
124.044
21
-102.621
0
LINE
8
BLACK
6
CONTINUOUS
10
124.044
20
-102.621
11
123.949
21
-102.526
0
LINE
8
BLACK
6
CONTINUOUS
10
127.568
20
-105.573
11
127.473
21
-105.478
0
LINE
8
BLACK
6
CONTINUOUS
10
127.473
20
-105.478
11
127.282
21
-105.192
0
LINE
8
BLACK
6
CONTINUOUS
10
127.282
20
-105.192
11
127.187
21
-105.002
0
LINE
8
BLACK
6
CONTINUOUS
10
127.187
20
-105.002
11
127.092
21
-104.716
0
LINE
8
BLACK
6
CONTINUOUS
10
127.092
20
-104.716
11
126.996
21
-104.24
0
LINE
8
BLACK
6
CONTINUOUS
10
126.996
20
-104.24
11
126.996
21
-103.859
0
LINE
8
BLACK
6
CONTINUOUS
10
126.996
20
-103.859
11
127.092
21
-103.383
0
LINE
8
BLACK
6
CONTINUOUS
10
127.092
20
-103.383
11
127.187
21
-103.097
0
LINE
8
BLACK
6
CONTINUOUS
10
127.187
20
-103.097
11
127.282
21
-102.907
0
LINE
8
BLACK
6
CONTINUOUS
10
127.282
20
-102.907
11
127.473
21
-102.621
0
LINE
8
BLACK
6
CONTINUOUS
10
127.473
20
-102.621
11
127.568
21
-102.526
0
LINE
8
BLACK
6
CONTINUOUS
10
128.33
20
-103.478
11
128.33
21
-104.812
0
LINE
8
BLACK
6
CONTINUOUS
10
128.33
20
-103.669
11
128.425
21
-103.573
0
LINE
8
BLACK
6
CONTINUOUS
10
128.425
20
-103.573
11
128.615
21
-103.478
0
LINE
8
BLACK
6
CONTINUOUS
10
128.615
20
-103.478
11
128.901
21
-103.478
0
LINE
8
BLACK
6
CONTINUOUS
10
128.901
20
-103.478
11
129.092
21
-103.573
0
LINE
8
BLACK
6
CONTINUOUS
10
129.092
20
-103.573
11
129.187
21
-103.764
0
LINE
8
BLACK
6
CONTINUOUS
10
129.187
20
-103.764
11
129.187
21
-104.812
0
LINE
8
BLACK
6
CONTINUOUS
10
130.425
20
-104.812
11
130.234
21
-104.716
0
LINE
8
BLACK
6
CONTINUOUS
10
130.234
20
-104.716
11
130.139
21
-104.621
0
LINE
8
BLACK
6
CONTINUOUS
10
130.139
20
-104.621
11
130.044
21
-104.431
0
LINE
8
BLACK
6
CONTINUOUS
10
130.044
20
-104.431
11
130.044
21
-103.859
0
LINE
8
BLACK
6
CONTINUOUS
10
130.044
20
-103.859
11
130.139
21
-103.669
0
LINE
8
BLACK
6
CONTINUOUS
10
130.139
20
-103.669
11
130.234
21
-103.573
0
LINE
8
BLACK
6
CONTINUOUS
10
130.234
20
-103.573
11
130.425
21
-103.478
0
LINE
8
BLACK
6
CONTINUOUS
10
130.425
20
-103.478
11
130.711
21
-103.478
0
LINE
8
BLACK
6
CONTINUOUS
10
130.711
20
-103.478
11
130.901
21
-103.573
0
LINE
8
BLACK
6
CONTINUOUS
10
130.901
20
-103.573
11
130.996
21
-103.669
0
LINE
8
BLACK
6
CONTINUOUS
10
130.996
20
-103.669
11
131.092
21
-103.859
0
LINE
8
BLACK
6
CONTINUOUS
10
131.092
20
-103.859
11
131.092
21
-104.431
0
LINE
8
BLACK
6
CONTINUOUS
10
131.092
20
-104.431
11
130.996
21
-104.621
0
LINE
8
BLACK
6
CONTINUOUS
10
130.996
20
-104.621
11
130.901
21
-104.716
0
LINE
8
BLACK
6
CONTINUOUS
10
130.901
20
-104.716
11
130.711
21
-104.812
0
LINE
8
BLACK
6
CONTINUOUS
10
130.711
20
-104.812
11
130.425
21
-104.812
0
LINE
8
BLACK
6
CONTINUOUS
10
131.663
20
-103.478
11
132.425
21
-103.478
0
LINE
8
BLACK
6
CONTINUOUS
10
131.949
20
-102.812
11
131.949
21
-104.526
0
LINE
8
BLACK
6
CONTINUOUS
10
131.949
20
-104.526
11
132.044
21
-104.716
0
LINE
8
BLACK
6
CONTINUOUS
10
132.044
20
-104.716
11
132.234
21
-104.812
0
LINE
8
BLACK
6
CONTINUOUS
10
132.234
20
-104.812
11
132.425
21
-104.812
0
LINE
8
BLACK
6
CONTINUOUS
10
134.615
20
-103.478
11
134.615
21
-105.478
0
LINE
8
BLACK
6
CONTINUOUS
10
134.615
20
-103.573
11
134.806
21
-103.478
0
LINE
8
BLACK
6
CONTINUOUS
10
134.806
20
-103.478
11
135.187
21
-103.478
0
LINE
8
BLACK
6
CONTINUOUS
10
135.187
20
-103.478
11
135.377
21
-103.573
0
LINE
8
BLACK
6
CONTINUOUS
10
135.377
20
-103.573
11
135.473
21
-103.669
0
LINE
8
BLACK
6
CONTINUOUS
10
135.473
20
-103.669
11
135.568
21
-103.859
0
LINE
8
BLACK
6
CONTINUOUS
10
135.568
20
-103.859
11
135.568
21
-104.431
0
LINE
8
BLACK
6
CONTINUOUS
10
135.568
20
-104.431
11
135.473
21
-104.621
0
LINE
8
BLACK
6
CONTINUOUS
10
135.473
20
-104.621
11
135.377
21
-104.716
0
LINE
8
BLACK
6
CONTINUOUS
10
135.377
20
-104.716
11
135.187
21
-104.812
0
LINE
8
BLACK
6
CONTINUOUS
10
135.187
20
-104.812
11
134.806
21
-104.812
0
LINE
8
BLACK
6
CONTINUOUS
10
134.806
20
-104.812
11
134.615
21
-104.716
0
LINE
8
BLACK
6
CONTINUOUS
10
136.711
20
-104.812
11
136.52
21
-104.716
0
LINE
8
BLACK
6
CONTINUOUS
10
136.52
20
-104.716
11
136.425
21
-104.526
0
LINE
8
BLACK
6
CONTINUOUS
10
136.425
20
-104.526
11
136.425
21
-102.812
0
LINE
8
BLACK
6
CONTINUOUS
10
138.33
20
-104.812
11
138.33
21
-103.764
0
LINE
8
BLACK
6
CONTINUOUS
10
138.33
20
-103.764
11
138.234
21
-103.573
0
LINE
8
BLACK
6
CONTINUOUS
10
138.234
20
-103.573
11
138.044
21
-103.478
0
LINE
8
BLACK
6
CONTINUOUS
10
138.044
20
-103.478
11
137.663
21
-103.478
0
LINE
8
BLACK
6
CONTINUOUS
10
137.663
20
-103.478
11
137.473
21
-103.573
0
LINE
8
BLACK
6
CONTINUOUS
10
138.33
20
-104.716
11
138.139
21
-104.812
0
LINE
8
BLACK
6
CONTINUOUS
10
138.139
20
-104.812
11
137.663
21
-104.812
0
LINE
8
BLACK
6
CONTINUOUS
10
137.663
20
-104.812
11
137.473
21
-104.716
0
LINE
8
BLACK
6
CONTINUOUS
10
137.473
20
-104.716
11
137.377
21
-104.526
0
LINE
8
BLACK
6
CONTINUOUS
10
137.377
20
-104.526
11
137.377
21
-104.335
0
LINE
8
BLACK
6
CONTINUOUS
10
137.377
20
-104.335
11
137.473
21
-104.145
0
LINE
8
BLACK
6
CONTINUOUS
10
137.473
20
-104.145
11
137.663
21
-104.05
0
LINE
8
BLACK
6
CONTINUOUS
10
137.663
20
-104.05
11
138.139
21
-104.05
0
LINE
8
BLACK
6
CONTINUOUS
10
138.139
20
-104.05
11
138.33
21
-103.954
0
LINE
8
BLACK
6
CONTINUOUS
10
138.996
20
-103.478
11
139.758
21
-103.478
0
LINE
8
BLACK
6
CONTINUOUS
10
139.282
20
-102.812
11
139.282
21
-104.526
0
LINE
8
BLACK
6
CONTINUOUS
10
139.282
20
-104.526
11
139.377
21
-104.716
0
LINE
8
BLACK
6
CONTINUOUS
10
139.377
20
-104.716
11
139.568
21
-104.812
0
LINE
8
BLACK
6
CONTINUOUS
10
139.568
20
-104.812
11
139.758
21
-104.812
0
LINE
8
BLACK
6
CONTINUOUS
10
141.187
20
-104.716
11
140.996
21
-104.812
0
LINE
8
BLACK
6
CONTINUOUS
10
140.996
20
-104.812
11
140.615
21
-104.812
0
LINE
8
BLACK
6
CONTINUOUS
10
140.615
20
-104.812
11
140.425
21
-104.716
0
LINE
8
BLACK
6
CONTINUOUS
10
140.425
20
-104.716
11
140.33
21
-104.526
0
LINE
8
BLACK
6
CONTINUOUS
10
140.33
20
-104.526
11
140.33
21
-103.764
0
LINE
8
BLACK
6
CONTINUOUS
10
140.33
20
-103.764
11
140.425
21
-103.573
0
LINE
8
BLACK
6
CONTINUOUS
10
140.425
20
-103.573
11
140.615
21
-103.478
0
LINE
8
BLACK
6
CONTINUOUS
10
140.615
20
-103.478
11
140.996
21
-103.478
0
LINE
8
BLACK
6
CONTINUOUS
10
140.996
20
-103.478
11
141.187
21
-103.573
0
LINE
8
BLACK
6
CONTINUOUS
10
141.187
20
-103.573
11
141.282
21
-103.764
0
LINE
8
BLACK
6
CONTINUOUS
10
141.282
20
-103.764
11
141.282
21
-103.954
0
LINE
8
BLACK
6
CONTINUOUS
10
141.282
20
-103.954
11
140.33
21
-104.145
0
LINE
8
BLACK
6
CONTINUOUS
10
142.996
20
-104.812
11
142.996
21
-102.812
0
LINE
8
BLACK
6
CONTINUOUS
10
142.996
20
-104.716
11
142.806
21
-104.812
0
LINE
8
BLACK
6
CONTINUOUS
10
142.806
20
-104.812
11
142.425
21
-104.812
0
LINE
8
BLACK
6
CONTINUOUS
10
142.425
20
-104.812
11
142.234
21
-104.716
0
LINE
8
BLACK
6
CONTINUOUS
10
142.234
20
-104.716
11
142.139
21
-104.621
0
LINE
8
BLACK
6
CONTINUOUS
10
142.139
20
-104.621
11
142.044
21
-104.431
0
LINE
8
BLACK
6
CONTINUOUS
10
142.044
20
-104.431
11
142.044
21
-103.859
0
LINE
8
BLACK
6
CONTINUOUS
10
142.044
20
-103.859
11
142.139
21
-103.669
0
LINE
8
BLACK
6
CONTINUOUS
10
142.139
20
-103.669
11
142.234
21
-103.573
0
LINE
8
BLACK
6
CONTINUOUS
10
142.234
20
-103.573
11
142.425
21
-103.478
0
LINE
8
BLACK
6
CONTINUOUS
10
142.425
20
-103.478
11
142.806
21
-103.478
0
LINE
8
BLACK
6
CONTINUOUS
10
142.806
20
-103.478
11
142.996
21
-103.573
0
LINE
8
BLACK
6
CONTINUOUS
10
143.758
20
-105.573
11
143.854
21
-105.478
0
LINE
8
BLACK
6
CONTINUOUS
10
143.854
20
-105.478
11
144.044
21
-105.192
0
LINE
8
BLACK
6
CONTINUOUS
10
144.044
20
-105.192
11
144.139
21
-105.002
0
LINE
8
BLACK
6
CONTINUOUS
10
144.139
20
-105.002
11
144.234
21
-104.716
0
LINE
8
BLACK
6
CONTINUOUS
10
144.234
20
-104.716
11
144.33
21
-104.24
0
LINE
8
BLACK
6
CONTINUOUS
10
144.33
20
-104.24
11
144.33
21
-103.859
0
LINE
8
BLACK
6
CONTINUOUS
10
144.33
20
-103.859
11
144.234
21
-103.383
0
LINE
8
BLACK
6
CONTINUOUS
10
144.234
20
-103.383
11
144.139
21
-103.097
0
LINE
8
BLACK
6
CONTINUOUS
10
144.139
20
-103.097
11
144.044
21
-102.907
0
LINE
8
BLACK
6
CONTINUOUS
10
144.044
20
-102.907
11
143.854
21
-102.621
0
LINE
8
BLACK
6
CONTINUOUS
10
143.854
20
-102.621
11
143.758
21
-102.526
  0
ENDSEC
  0
EOF
