G04 #@! TF.GenerationSoftware,KiCad,Pcbnew,(6.0.4-0)*
G04 #@! TF.CreationDate,2023-09-21T22:42:23-05:00*
G04 #@! TF.ProjectId,kowgary16_cfx,6b6f7767-6172-4793-9136-5f6366782e6b,rev?*
G04 #@! TF.SameCoordinates,Original*
G04 #@! TF.FileFunction,Legend,Top*
G04 #@! TF.FilePolarity,Positive*
%FSLAX45Y45*%
G04 Gerber Fmt 4.5, Leading zero omitted, Abs format (unit mm)*
G04 Created by KiCad (PCBNEW (6.0.4-0)) date 2023-09-21 22:42:23*
%MOMM*%
%LPD*%
G01*
G04 APERTURE LIST*
%ADD10C,0.150000*%
G04 APERTURE END LIST*
D10*
G04 #@! TO.C,SW23*
X10987495Y-6437497D02*
X10987495Y-6337497D01*
X12387494Y-6437497D02*
X12287494Y-6437497D01*
X10987495Y-6437497D02*
X11087495Y-6437497D01*
X12387494Y-5037497D02*
X12287494Y-5037497D01*
X12387494Y-6337497D02*
X12387494Y-6437497D01*
X10987495Y-5137497D02*
X10987495Y-5037497D01*
X11087495Y-5037497D02*
X10987495Y-5037497D01*
X12387494Y-5037497D02*
X12387494Y-5137497D01*
X12287494Y-6437497D02*
X12387494Y-6437497D01*
G04 #@! TO.C,SW13*
X10987495Y-4737498D02*
X10987495Y-4637498D01*
X12387494Y-3337498D02*
X12287494Y-3337498D01*
X10987495Y-4737498D02*
X11087495Y-4737498D01*
X12387494Y-4637498D02*
X12387494Y-4737498D01*
X11087495Y-3337498D02*
X10987495Y-3337498D01*
X12387494Y-4737498D02*
X12287494Y-4737498D01*
X10987495Y-3437498D02*
X10987495Y-3337498D01*
X12287494Y-4737498D02*
X12387494Y-4737498D01*
X12387494Y-3337498D02*
X12387494Y-3437498D01*
G04 #@! TO.C,SW4*
X12687494Y-1737499D02*
X12687494Y-1637499D01*
X14087494Y-1637499D02*
X14087494Y-1737499D01*
X12787494Y-1637499D02*
X12687494Y-1637499D01*
X12687494Y-3037499D02*
X12687494Y-2937499D01*
X13987494Y-3037499D02*
X14087494Y-3037499D01*
X14087494Y-3037499D02*
X13987494Y-3037499D01*
X12687494Y-3037499D02*
X12787494Y-3037499D01*
X14087494Y-2937499D02*
X14087494Y-3037499D01*
X14087494Y-1637499D02*
X13987494Y-1637499D01*
G04 #@! TO.C,SW1*
X7587496Y-1637499D02*
X7687496Y-1637499D01*
X8987496Y-1637499D02*
X8987496Y-1737499D01*
X7587496Y-1737499D02*
X7587496Y-1637499D01*
X8987496Y-2937499D02*
X8987496Y-3037499D01*
X7587496Y-3037499D02*
X7687496Y-3037499D01*
X8887496Y-3037499D02*
X8987496Y-3037499D01*
X7587496Y-3037499D02*
X7587496Y-2937499D01*
X8987496Y-1637499D02*
X8887496Y-1637499D01*
X7687496Y-1637499D02*
X7587496Y-1637499D01*
G04 #@! TO.C,SW34*
X12687494Y-6837496D02*
X12687494Y-6737496D01*
X12687494Y-8137496D02*
X12787494Y-8137496D01*
X14087494Y-8137496D02*
X13987494Y-8137496D01*
X14087494Y-6737496D02*
X14087494Y-6837496D01*
X14087494Y-8037496D02*
X14087494Y-8137496D01*
X14087494Y-6737496D02*
X13987494Y-6737496D01*
X12687494Y-8137496D02*
X12687494Y-8037496D01*
X13987494Y-8137496D02*
X14087494Y-8137496D01*
X12787494Y-6737496D02*
X12687494Y-6737496D01*
G04 #@! TO.C,SW33*
X12387494Y-8137496D02*
X12287494Y-8137496D01*
X10987495Y-8137496D02*
X11087495Y-8137496D01*
X11087495Y-6737496D02*
X10987495Y-6737496D01*
X12387494Y-8037496D02*
X12387494Y-8137496D01*
X12287494Y-8137496D02*
X12387494Y-8137496D01*
X10987495Y-6837496D02*
X10987495Y-6737496D01*
X12387494Y-6737496D02*
X12287494Y-6737496D01*
X12387494Y-6737496D02*
X12387494Y-6837496D01*
X10987495Y-8137496D02*
X10987495Y-8037496D01*
G04 #@! TO.C,SW24*
X14087494Y-6337497D02*
X14087494Y-6437497D01*
X12787494Y-5037497D02*
X12687494Y-5037497D01*
X12687494Y-5137497D02*
X12687494Y-5037497D01*
X12687494Y-6437497D02*
X12787494Y-6437497D01*
X14087494Y-5037497D02*
X13987494Y-5037497D01*
X13987494Y-6437497D02*
X14087494Y-6437497D01*
X14087494Y-5037497D02*
X14087494Y-5137497D01*
X14087494Y-6437497D02*
X13987494Y-6437497D01*
X12687494Y-6437497D02*
X12687494Y-6337497D01*
G04 #@! TO.C,SW32*
X9287495Y-8137496D02*
X9287495Y-8037496D01*
X10687495Y-6737496D02*
X10687495Y-6837496D01*
X10687495Y-8037496D02*
X10687495Y-8137496D01*
X10687495Y-8137496D02*
X10587495Y-8137496D01*
X9287495Y-6837496D02*
X9287495Y-6737496D01*
X10687495Y-6737496D02*
X10587495Y-6737496D01*
X9287495Y-8137496D02*
X9387495Y-8137496D01*
X9387495Y-6737496D02*
X9287495Y-6737496D01*
X10587495Y-8137496D02*
X10687495Y-8137496D01*
G04 #@! TO.C,SW31*
X7687496Y-6737496D02*
X7587496Y-6737496D01*
X7587496Y-6837496D02*
X7587496Y-6737496D01*
X8987496Y-8037496D02*
X8987496Y-8137496D01*
X8987496Y-6737496D02*
X8987496Y-6837496D01*
X7587496Y-6737496D02*
X7687496Y-6737496D01*
X7587496Y-8137496D02*
X7687496Y-8137496D01*
X8887496Y-8137496D02*
X8987496Y-8137496D01*
X7587496Y-8137496D02*
X7587496Y-8037496D01*
X8987496Y-6737496D02*
X8887496Y-6737496D01*
G04 #@! TO.C,SW3*
X12387494Y-2937499D02*
X12387494Y-3037499D01*
X10987495Y-3037499D02*
X10987495Y-2937499D01*
X10987495Y-3037499D02*
X11087495Y-3037499D01*
X11087495Y-1637499D02*
X10987495Y-1637499D01*
X10987495Y-1737499D02*
X10987495Y-1637499D01*
X12287494Y-3037499D02*
X12387494Y-3037499D01*
X12387494Y-1637499D02*
X12387494Y-1737499D01*
X12387494Y-1637499D02*
X12287494Y-1637499D01*
X12387494Y-3037499D02*
X12287494Y-3037499D01*
G04 #@! TO.C,SW14*
X12687494Y-3437498D02*
X12687494Y-3337498D01*
X12687494Y-4737498D02*
X12687494Y-4637498D01*
X12687494Y-4737498D02*
X12787494Y-4737498D01*
X14087494Y-4637498D02*
X14087494Y-4737498D01*
X14087494Y-3337498D02*
X13987494Y-3337498D01*
X14087494Y-3337498D02*
X14087494Y-3437498D01*
X12787494Y-3337498D02*
X12687494Y-3337498D01*
X13987494Y-4737498D02*
X14087494Y-4737498D01*
X14087494Y-4737498D02*
X13987494Y-4737498D01*
G04 #@! TO.C,SW21*
X7687496Y-5037497D02*
X7587496Y-5037497D01*
X7587496Y-6437497D02*
X7687496Y-6437497D01*
X8987496Y-5037497D02*
X8987496Y-5137497D01*
X7587496Y-6437497D02*
X7587496Y-6337497D01*
X8987496Y-6337497D02*
X8987496Y-6437497D01*
X7587496Y-5037497D02*
X7687496Y-5037497D01*
X8987496Y-5037497D02*
X8887496Y-5037497D01*
X8887496Y-6437497D02*
X8987496Y-6437497D01*
X7587496Y-5137497D02*
X7587496Y-5037497D01*
G04 #@! TO.C,SW2*
X9287495Y-1737499D02*
X9287495Y-1637499D01*
X10687495Y-1637499D02*
X10587495Y-1637499D01*
X9287495Y-3037499D02*
X9287495Y-2937499D01*
X9387495Y-1637499D02*
X9287495Y-1637499D01*
X9287495Y-3037499D02*
X9387495Y-3037499D01*
X10687495Y-2937499D02*
X10687495Y-3037499D01*
X10687495Y-3037499D02*
X10587495Y-3037499D01*
X10587495Y-3037499D02*
X10687495Y-3037499D01*
X10687495Y-1637499D02*
X10687495Y-1737499D01*
G04 #@! TO.C,SW12*
X9287495Y-4737498D02*
X9387495Y-4737498D01*
X9387495Y-3337498D02*
X9287495Y-3337498D01*
X10687495Y-3337498D02*
X10687495Y-3437498D01*
X10687495Y-3337498D02*
X10587495Y-3337498D01*
X10587495Y-4737498D02*
X10687495Y-4737498D01*
X10687495Y-4737498D02*
X10587495Y-4737498D01*
X10687495Y-4637498D02*
X10687495Y-4737498D01*
X9287495Y-4737498D02*
X9287495Y-4637498D01*
X9287495Y-3437498D02*
X9287495Y-3337498D01*
G04 #@! TO.C,SW22*
X9287495Y-5137497D02*
X9287495Y-5037497D01*
X10687495Y-5037497D02*
X10587495Y-5037497D01*
X10587495Y-6437497D02*
X10687495Y-6437497D01*
X10687495Y-6437497D02*
X10587495Y-6437497D01*
X9287495Y-6437497D02*
X9387495Y-6437497D01*
X10687495Y-6337497D02*
X10687495Y-6437497D01*
X10687495Y-5037497D02*
X10687495Y-5137497D01*
X9387495Y-5037497D02*
X9287495Y-5037497D01*
X9287495Y-6437497D02*
X9287495Y-6337497D01*
G04 #@! TO.C,SW11*
X7687496Y-3337498D02*
X7587496Y-3337498D01*
X7587496Y-3337498D02*
X7687496Y-3337498D01*
X7587496Y-3437498D02*
X7587496Y-3337498D01*
X8987496Y-4637498D02*
X8987496Y-4737498D01*
X8987496Y-3337498D02*
X8887496Y-3337498D01*
X8987496Y-3337498D02*
X8987496Y-3437498D01*
X7587496Y-4737498D02*
X7587496Y-4637498D01*
X7587496Y-4737498D02*
X7687496Y-4737498D01*
X8887496Y-4737498D02*
X8987496Y-4737498D01*
G04 #@! TD*
M02*
