  0
SECTION
  2
HEADER
  9
$ANGBASE
  50
0.0
  9
$ANGDIR
  70
1
  9
$MEASUREMENT
  70
0
  0
ENDSEC
  0
SECTION
  2
TABLES
  0
TABLE
  2
LTYPE
  70
4
  0
LTYPE
  5
40F
  2
CONTINUOUS
  70
0
  3
Solid line
  72
65
  73
0
  40
0.0
  0
LTYPE
  5
410
  2
DASHDOT
 70
0
  3
Dash Dot ____ _ ____ _
 72
65
 73
4
 40
2.0
 49
1.25
 49
-0.25
 49
0.25
 49
-0.25
  0
LTYPE
  5
411
  2
DASHED
 70
0
  3
Dashed __ __ __ __ __
 72
65
 73
2
 40
0.75
 49
0.5
 49
-0.25
  0
LTYPE
  5
43B
  2
DOTTED
 70
0
  3
Dotted .  .  .  .
 72
65
 73
2
 40
0.2
 49
0.0
 49
-0.2
  0
ENDTAB
  0
TABLE
  2
STYLE
  70
4
  0
STYLE
  2
KICAD
  70
0
  40
0
  41
1
  42
1
  50
0
  71
0
  3
isocp.shx
  0
STYLE
  2
KICADB
  70
0
  40
0
  41
1
  42
1
  50
0
  71
0
  3
isocp.shx
  0
STYLE
  2
KICADI
  70
0
  40
0
  41
1
  42
1
  50
15
  71
0
  3
isocp.shx
  0
STYLE
  2
KICADBI
  70
0
  40
0
  41
1
  42
1
  50
15
  71
0
  3
isocp.shx
  0
ENDTAB
  0
TABLE
  2
LAYER
  70
1
  0
LAYER
  2
BLACK
  70
0
  62
7
  6
CONTINUOUS
  0
ENDTAB
  0
ENDSEC
  0
SECTION
  2
ENTITIES
0
LINE
8
BLACK
6
CONTINUOUS
10
3.81558
20
-2.98701
11
3.81997
21
-2.98925
0
LINE
8
BLACK
6
CONTINUOUS
10
3.81997
20
-2.98925
11
3.82345
21
-2.99273
0
LINE
8
BLACK
6
CONTINUOUS
10
3.82345
20
-2.99273
11
3.82566
21
-2.99706
0
LINE
8
BLACK
6
CONTINUOUS
10
3.82566
20
-2.99706
11
3.88961
21
-2.99706
0
LINE
8
BLACK
6
CONTINUOUS
10
3.88961
20
-2.99706
11
3.89048
21
-2.99719
0
LINE
8
BLACK
6
CONTINUOUS
10
3.89048
20
-2.99719
11
3.89066
21
-2.99718
0
LINE
8
BLACK
6
CONTINUOUS
10
3.89066
20
-2.99718
11
3.89076
21
-2.99723
0
LINE
8
BLACK
6
CONTINUOUS
10
3.89076
20
-2.99723
11
3.89101
21
-2.99727
0
LINE
8
BLACK
6
CONTINUOUS
10
3.89101
20
-2.99727
11
3.89203
21
-2.99792
0
LINE
8
BLACK
6
CONTINUOUS
10
3.89203
20
-2.99792
11
3.89309
21
-2.99851
0
LINE
8
BLACK
6
CONTINUOUS
10
3.89309
20
-2.99851
11
3.92936
21
-3.03478
0
LINE
8
BLACK
6
CONTINUOUS
10
3.92936
20
-3.03478
11
4.14023
21
-3.03478
0
LINE
8
BLACK
6
CONTINUOUS
10
4.14023
20
-3.03478
11
4.14244
21
-3.03044
0
LINE
8
BLACK
6
CONTINUOUS
10
4.14244
20
-3.03044
11
4.14593
21
-3.02696
0
LINE
8
BLACK
6
CONTINUOUS
10
4.14593
20
-3.02696
11
4.15032
21
-3.02472
0
LINE
8
BLACK
6
CONTINUOUS
10
4.15032
20
-3.02472
11
4.15518
21
-3.02395
0
LINE
8
BLACK
6
CONTINUOUS
10
4.15518
20
-3.02395
11
4.16005
21
-3.02472
0
LINE
8
BLACK
6
CONTINUOUS
10
4.16005
20
-3.02472
11
4.16214
21
-3.02578
0
LINE
8
BLACK
6
CONTINUOUS
10
4.16214
20
-3.02578
11
4.18941
21
-2.99851
0
LINE
8
BLACK
6
CONTINUOUS
10
4.18941
20
-2.99851
11
4.19011
21
-2.99798
0
LINE
8
BLACK
6
CONTINUOUS
10
4.19011
20
-2.99798
11
4.19023
21
-2.99784
0
LINE
8
BLACK
6
CONTINUOUS
10
4.19023
20
-2.99784
11
4.19034
21
-2.99781
0
LINE
8
BLACK
6
CONTINUOUS
10
4.19034
20
-2.99781
11
4.19054
21
-2.99766
0
LINE
8
BLACK
6
CONTINUOUS
10
4.19054
20
-2.99766
11
4.19173
21
-2.99741
0
LINE
8
BLACK
6
CONTINUOUS
10
4.19173
20
-2.99741
11
4.19289
21
-2.99706
0
LINE
8
BLACK
6
CONTINUOUS
10
4.19289
20
-2.99706
11
4.53578
21
-2.99706
0
LINE
8
BLACK
6
CONTINUOUS
10
4.53578
20
-2.99706
11
4.53665
21
-2.99719
0
LINE
8
BLACK
6
CONTINUOUS
10
4.53665
20
-2.99719
11
4.53683
21
-2.99718
0
LINE
8
BLACK
6
CONTINUOUS
10
4.53683
20
-2.99718
11
4.53692
21
-2.99723
0
LINE
8
BLACK
6
CONTINUOUS
10
4.53692
20
-2.99723
11
4.53718
21
-2.99727
0
LINE
8
BLACK
6
CONTINUOUS
10
4.53718
20
-2.99727
11
4.53819
21
-2.99792
0
LINE
8
BLACK
6
CONTINUOUS
10
4.53819
20
-2.99792
11
4.53926
21
-2.99851
0
LINE
8
BLACK
6
CONTINUOUS
10
4.53926
20
-2.99851
11
4.57553
21
-3.03478
0
LINE
8
BLACK
6
CONTINUOUS
10
4.57553
20
-3.03478
11
4.80952
21
-3.03478
0
LINE
8
BLACK
6
CONTINUOUS
10
4.80952
20
-3.03478
11
4.81173
21
-3.03044
0
LINE
8
BLACK
6
CONTINUOUS
10
4.81173
20
-3.03044
11
4.81522
21
-3.02696
0
LINE
8
BLACK
6
CONTINUOUS
10
4.81522
20
-3.02696
11
4.81961
21
-3.02472
0
LINE
8
BLACK
6
CONTINUOUS
10
4.81961
20
-3.02472
11
4.82447
21
-3.02395
0
LINE
8
BLACK
6
CONTINUOUS
10
4.82447
20
-3.02395
11
4.82934
21
-3.02472
0
LINE
8
BLACK
6
CONTINUOUS
10
4.82934
20
-3.02472
11
4.83143
21
-3.02578
0
LINE
8
BLACK
6
CONTINUOUS
10
4.83143
20
-3.02578
11
4.8587
21
-2.99851
0
LINE
8
BLACK
6
CONTINUOUS
10
4.8587
20
-2.99851
11
4.85941
21
-2.99798
0
LINE
8
BLACK
6
CONTINUOUS
10
4.85941
20
-2.99798
11
4.85952
21
-2.99784
0
LINE
8
BLACK
6
CONTINUOUS
10
4.85952
20
-2.99784
11
4.85963
21
-2.99781
0
LINE
8
BLACK
6
CONTINUOUS
10
4.85963
20
-2.99781
11
4.85984
21
-2.99766
0
LINE
8
BLACK
6
CONTINUOUS
10
4.85984
20
-2.99766
11
4.86102
21
-2.99741
0
LINE
8
BLACK
6
CONTINUOUS
10
4.86102
20
-2.99741
11
4.86218
21
-2.99706
0
LINE
8
BLACK
6
CONTINUOUS
10
4.86218
20
-2.99706
11
5.17718
21
-2.99706
0
LINE
8
BLACK
6
CONTINUOUS
10
5.17718
20
-2.99706
11
5.17805
21
-2.99719
0
LINE
8
BLACK
6
CONTINUOUS
10
5.17805
20
-2.99719
11
5.17823
21
-2.99718
0
LINE
8
BLACK
6
CONTINUOUS
10
5.17823
20
-2.99718
11
5.17833
21
-2.99723
0
LINE
8
BLACK
6
CONTINUOUS
10
5.17833
20
-2.99723
11
5.17858
21
-2.99727
0
LINE
8
BLACK
6
CONTINUOUS
10
5.17858
20
-2.99727
11
5.1796
21
-2.99792
0
LINE
8
BLACK
6
CONTINUOUS
10
5.1796
20
-2.99792
11
5.18066
21
-2.99851
0
LINE
8
BLACK
6
CONTINUOUS
10
5.18066
20
-2.99851
11
5.21693
21
-3.03478
0
LINE
8
BLACK
6
CONTINUOUS
10
5.21693
20
-3.03478
11
5.47881
21
-3.03478
0
LINE
8
BLACK
6
CONTINUOUS
10
5.47881
20
-3.03478
11
5.48102
21
-3.03044
0
LINE
8
BLACK
6
CONTINUOUS
10
5.48102
20
-3.03044
11
5.48451
21
-3.02696
0
LINE
8
BLACK
6
CONTINUOUS
10
5.48451
20
-3.02696
11
5.4889
21
-3.02472
0
LINE
8
BLACK
6
CONTINUOUS
10
5.4889
20
-3.02472
11
5.49376
21
-3.02395
0
LINE
8
BLACK
6
CONTINUOUS
10
5.49376
20
-3.02395
11
5.49863
21
-3.02472
0
LINE
8
BLACK
6
CONTINUOUS
10
5.49863
20
-3.02472
11
5.50302
21
-3.02696
0
LINE
8
BLACK
6
CONTINUOUS
10
5.50302
20
-3.02696
11
5.5065
21
-3.03044
0
LINE
8
BLACK
6
CONTINUOUS
10
5.5065
20
-3.03044
11
5.50874
21
-3.03483
0
LINE
8
BLACK
6
CONTINUOUS
10
5.50874
20
-3.03483
11
5.50951
21
-3.0397
0
LINE
8
BLACK
6
CONTINUOUS
10
5.50951
20
-3.0397
11
5.50874
21
-3.04456
0
LINE
8
BLACK
6
CONTINUOUS
10
5.50874
20
-3.04456
11
5.5065
21
-3.04895
0
LINE
8
BLACK
6
CONTINUOUS
10
5.5065
20
-3.04895
11
5.50302
21
-3.05244
0
LINE
8
BLACK
6
CONTINUOUS
10
5.50302
20
-3.05244
11
5.49863
21
-3.05467
0
LINE
8
BLACK
6
CONTINUOUS
10
5.49863
20
-3.05467
11
5.49376
21
-3.05544
0
LINE
8
BLACK
6
CONTINUOUS
10
5.49376
20
-3.05544
11
5.4889
21
-3.05467
0
LINE
8
BLACK
6
CONTINUOUS
10
5.4889
20
-3.05467
11
5.48451
21
-3.05244
0
LINE
8
BLACK
6
CONTINUOUS
10
5.48451
20
-3.05244
11
5.48102
21
-3.04895
0
LINE
8
BLACK
6
CONTINUOUS
10
5.48102
20
-3.04895
11
5.47881
21
-3.04462
0
LINE
8
BLACK
6
CONTINUOUS
10
5.47881
20
-3.04462
11
5.21489
21
-3.04462
0
LINE
8
BLACK
6
CONTINUOUS
10
5.21489
20
-3.04462
11
5.21403
21
-3.04449
0
LINE
8
BLACK
6
CONTINUOUS
10
5.21403
20
-3.04449
11
5.21384
21
-3.04451
0
LINE
8
BLACK
6
CONTINUOUS
10
5.21384
20
-3.04451
11
5.21375
21
-3.04445
0
LINE
8
BLACK
6
CONTINUOUS
10
5.21375
20
-3.04445
11
5.21349
21
-3.04442
0
LINE
8
BLACK
6
CONTINUOUS
10
5.21349
20
-3.04442
11
5.21248
21
-3.04376
0
LINE
8
BLACK
6
CONTINUOUS
10
5.21248
20
-3.04376
11
5.21141
21
-3.04318
0
LINE
8
BLACK
6
CONTINUOUS
10
5.21141
20
-3.04318
11
5.17514
21
-3.00691
0
LINE
8
BLACK
6
CONTINUOUS
10
5.17514
20
-3.00691
11
4.86422
21
-3.00691
0
LINE
8
BLACK
6
CONTINUOUS
10
4.86422
20
-3.00691
11
4.83839
21
-3.03274
0
LINE
8
BLACK
6
CONTINUOUS
10
4.83839
20
-3.03274
11
4.83945
21
-3.03483
0
LINE
8
BLACK
6
CONTINUOUS
10
4.83945
20
-3.03483
11
4.84022
21
-3.0397
0
LINE
8
BLACK
6
CONTINUOUS
10
4.84022
20
-3.0397
11
4.83945
21
-3.04456
0
LINE
8
BLACK
6
CONTINUOUS
10
4.83945
20
-3.04456
11
4.83721
21
-3.04895
0
LINE
8
BLACK
6
CONTINUOUS
10
4.83721
20
-3.04895
11
4.83373
21
-3.05244
0
LINE
8
BLACK
6
CONTINUOUS
10
4.83373
20
-3.05244
11
4.82934
21
-3.05467
0
LINE
8
BLACK
6
CONTINUOUS
10
4.82934
20
-3.05467
11
4.82447
21
-3.05544
0
LINE
8
BLACK
6
CONTINUOUS
10
4.82447
20
-3.05544
11
4.81961
21
-3.05467
0
LINE
8
BLACK
6
CONTINUOUS
10
4.81961
20
-3.05467
11
4.81522
21
-3.05244
0
LINE
8
BLACK
6
CONTINUOUS
10
4.81522
20
-3.05244
11
4.81173
21
-3.04895
0
LINE
8
BLACK
6
CONTINUOUS
10
4.81173
20
-3.04895
11
4.80952
21
-3.04462
0
LINE
8
BLACK
6
CONTINUOUS
10
4.80952
20
-3.04462
11
4.57349
21
-3.04462
0
LINE
8
BLACK
6
CONTINUOUS
10
4.57349
20
-3.04462
11
4.57262
21
-3.04449
0
LINE
8
BLACK
6
CONTINUOUS
10
4.57262
20
-3.04449
11
4.57244
21
-3.04451
0
LINE
8
BLACK
6
CONTINUOUS
10
4.57244
20
-3.04451
11
4.57234
21
-3.04445
0
LINE
8
BLACK
6
CONTINUOUS
10
4.57234
20
-3.04445
11
4.57209
21
-3.04442
0
LINE
8
BLACK
6
CONTINUOUS
10
4.57209
20
-3.04442
11
4.57107
21
-3.04376
0
LINE
8
BLACK
6
CONTINUOUS
10
4.57107
20
-3.04376
11
4.57001
21
-3.04318
0
LINE
8
BLACK
6
CONTINUOUS
10
4.57001
20
-3.04318
11
4.53374
21
-3.00691
0
LINE
8
BLACK
6
CONTINUOUS
10
4.53374
20
-3.00691
11
4.19493
21
-3.00691
0
LINE
8
BLACK
6
CONTINUOUS
10
4.19493
20
-3.00691
11
4.1691
21
-3.03274
0
LINE
8
BLACK
6
CONTINUOUS
10
4.1691
20
-3.03274
11
4.17016
21
-3.03483
0
LINE
8
BLACK
6
CONTINUOUS
10
4.17016
20
-3.03483
11
4.17093
21
-3.0397
0
LINE
8
BLACK
6
CONTINUOUS
10
4.17093
20
-3.0397
11
4.17016
21
-3.04456
0
LINE
8
BLACK
6
CONTINUOUS
10
4.17016
20
-3.04456
11
4.16792
21
-3.04895
0
LINE
8
BLACK
6
CONTINUOUS
10
4.16792
20
-3.04895
11
4.16444
21
-3.05244
0
LINE
8
BLACK
6
CONTINUOUS
10
4.16444
20
-3.05244
11
4.16005
21
-3.05467
0
LINE
8
BLACK
6
CONTINUOUS
10
4.16005
20
-3.05467
11
4.15518
21
-3.05544
0
LINE
8
BLACK
6
CONTINUOUS
10
4.15518
20
-3.05544
11
4.15032
21
-3.05467
0
LINE
8
BLACK
6
CONTINUOUS
10
4.15032
20
-3.05467
11
4.14593
21
-3.05244
0
LINE
8
BLACK
6
CONTINUOUS
10
4.14593
20
-3.05244
11
4.14244
21
-3.04895
0
LINE
8
BLACK
6
CONTINUOUS
10
4.14244
20
-3.04895
11
4.14023
21
-3.04462
0
LINE
8
BLACK
6
CONTINUOUS
10
4.14023
20
-3.04462
11
3.92732
21
-3.04462
0
LINE
8
BLACK
6
CONTINUOUS
10
3.92732
20
-3.04462
11
3.92645
21
-3.04449
0
LINE
8
BLACK
6
CONTINUOUS
10
3.92645
20
-3.04449
11
3.92627
21
-3.04451
0
LINE
8
BLACK
6
CONTINUOUS
10
3.92627
20
-3.04451
11
3.92618
21
-3.04445
0
LINE
8
BLACK
6
CONTINUOUS
10
3.92618
20
-3.04445
11
3.92592
21
-3.04442
0
LINE
8
BLACK
6
CONTINUOUS
10
3.92592
20
-3.04442
11
3.92491
21
-3.04376
0
LINE
8
BLACK
6
CONTINUOUS
10
3.92491
20
-3.04376
11
3.92384
21
-3.04318
0
LINE
8
BLACK
6
CONTINUOUS
10
3.92384
20
-3.04318
11
3.88757
21
-3.00691
0
LINE
8
BLACK
6
CONTINUOUS
10
3.88757
20
-3.00691
11
3.82566
21
-3.00691
0
LINE
8
BLACK
6
CONTINUOUS
10
3.82566
20
-3.00691
11
3.82345
21
-3.01124
0
LINE
8
BLACK
6
CONTINUOUS
10
3.82345
20
-3.01124
11
3.81997
21
-3.01473
0
LINE
8
BLACK
6
CONTINUOUS
10
3.81997
20
-3.01473
11
3.81558
21
-3.01696
0
LINE
8
BLACK
6
CONTINUOUS
10
3.81558
20
-3.01696
11
3.81071
21
-3.01773
0
LINE
8
BLACK
6
CONTINUOUS
10
3.81071
20
-3.01773
11
3.80585
21
-3.01696
0
LINE
8
BLACK
6
CONTINUOUS
10
3.80585
20
-3.01696
11
3.80146
21
-3.01473
0
LINE
8
BLACK
6
CONTINUOUS
10
3.80146
20
-3.01473
11
3.79797
21
-3.01124
0
LINE
8
BLACK
6
CONTINUOUS
10
3.79797
20
-3.01124
11
3.79576
21
-3.00691
0
LINE
8
BLACK
6
CONTINUOUS
10
3.79576
20
-3.00691
11
3.52564
21
-3.00691
0
LINE
8
BLACK
6
CONTINUOUS
10
3.52564
20
-3.00691
11
3.4998
21
-3.03274
0
LINE
8
BLACK
6
CONTINUOUS
10
3.4998
20
-3.03274
11
3.50087
21
-3.03483
0
LINE
8
BLACK
6
CONTINUOUS
10
3.50087
20
-3.03483
11
3.50164
21
-3.0397
0
LINE
8
BLACK
6
CONTINUOUS
10
3.50164
20
-3.0397
11
3.50087
21
-3.04456
0
LINE
8
BLACK
6
CONTINUOUS
10
3.50087
20
-3.04456
11
3.49863
21
-3.04895
0
LINE
8
BLACK
6
CONTINUOUS
10
3.49863
20
-3.04895
11
3.49515
21
-3.05244
0
LINE
8
BLACK
6
CONTINUOUS
10
3.49515
20
-3.05244
11
3.49076
21
-3.05467
0
LINE
8
BLACK
6
CONTINUOUS
10
3.49076
20
-3.05467
11
3.48589
21
-3.05544
0
LINE
8
BLACK
6
CONTINUOUS
10
3.48589
20
-3.05544
11
3.48102
21
-3.05467
0
LINE
8
BLACK
6
CONTINUOUS
10
3.48102
20
-3.05467
11
3.47663
21
-3.05244
0
LINE
8
BLACK
6
CONTINUOUS
10
3.47663
20
-3.05244
11
3.47315
21
-3.04895
0
LINE
8
BLACK
6
CONTINUOUS
10
3.47315
20
-3.04895
11
3.47091
21
-3.04456
0
LINE
8
BLACK
6
CONTINUOUS
10
3.47091
20
-3.04456
11
3.47014
21
-3.0397
0
LINE
8
BLACK
6
CONTINUOUS
10
3.47014
20
-3.0397
11
3.47091
21
-3.03483
0
LINE
8
BLACK
6
CONTINUOUS
10
3.47091
20
-3.03483
11
3.47315
21
-3.03044
0
LINE
8
BLACK
6
CONTINUOUS
10
3.47315
20
-3.03044
11
3.47663
21
-3.02696
0
LINE
8
BLACK
6
CONTINUOUS
10
3.47663
20
-3.02696
11
3.48102
21
-3.02472
0
LINE
8
BLACK
6
CONTINUOUS
10
3.48102
20
-3.02472
11
3.48589
21
-3.02395
0
LINE
8
BLACK
6
CONTINUOUS
10
3.48589
20
-3.02395
11
3.49076
21
-3.02472
0
LINE
8
BLACK
6
CONTINUOUS
10
3.49076
20
-3.02472
11
3.49284
21
-3.02578
0
LINE
8
BLACK
6
CONTINUOUS
10
3.49284
20
-3.02578
11
3.52012
21
-2.99851
0
LINE
8
BLACK
6
CONTINUOUS
10
3.52012
20
-2.99851
11
3.52082
21
-2.99798
0
LINE
8
BLACK
6
CONTINUOUS
10
3.52082
20
-2.99798
11
3.52094
21
-2.99784
0
LINE
8
BLACK
6
CONTINUOUS
10
3.52094
20
-2.99784
11
3.52105
21
-2.99781
0
LINE
8
BLACK
6
CONTINUOUS
10
3.52105
20
-2.99781
11
3.52125
21
-2.99766
0
LINE
8
BLACK
6
CONTINUOUS
10
3.52125
20
-2.99766
11
3.52244
21
-2.99741
0
LINE
8
BLACK
6
CONTINUOUS
10
3.52244
20
-2.99741
11
3.5236
21
-2.99706
0
LINE
8
BLACK
6
CONTINUOUS
10
3.5236
20
-2.99706
11
3.79576
21
-2.99706
0
LINE
8
BLACK
6
CONTINUOUS
10
3.79576
20
-2.99706
11
3.79797
21
-2.99273
0
LINE
8
BLACK
6
CONTINUOUS
10
3.79797
20
-2.99273
11
3.80146
21
-2.98925
0
LINE
8
BLACK
6
CONTINUOUS
10
3.80146
20
-2.98925
11
3.80585
21
-2.98701
0
LINE
8
BLACK
6
CONTINUOUS
10
3.80585
20
-2.98701
11
3.81071
21
-2.98624
0
LINE
8
BLACK
6
CONTINUOUS
10
3.81071
20
-2.98624
11
3.81558
21
-2.98701
0
LINE
8
BLACK
6
CONTINUOUS
10
3.43498
20
-2.43909
11
3.43937
21
-2.44133
0
LINE
8
BLACK
6
CONTINUOUS
10
3.43937
20
-2.44133
11
3.44286
21
-2.44481
0
LINE
8
BLACK
6
CONTINUOUS
10
3.44286
20
-2.44481
11
3.44509
21
-2.4492
0
LINE
8
BLACK
6
CONTINUOUS
10
3.44509
20
-2.4492
11
3.44586
21
-2.45407
0
LINE
8
BLACK
6
CONTINUOUS
10
3.44586
20
-2.45407
11
3.44509
21
-2.45893
0
LINE
8
BLACK
6
CONTINUOUS
10
3.44509
20
-2.45893
11
3.44286
21
-2.46332
0
LINE
8
BLACK
6
CONTINUOUS
10
3.44286
20
-2.46332
11
3.43937
21
-2.46681
0
LINE
8
BLACK
6
CONTINUOUS
10
3.43937
20
-2.46681
11
3.43504
21
-2.46902
0
LINE
8
BLACK
6
CONTINUOUS
10
3.43504
20
-2.46902
11
3.43504
21
-2.55067
0
LINE
8
BLACK
6
CONTINUOUS
10
3.43504
20
-2.55067
11
3.43937
21
-2.55288
0
LINE
8
BLACK
6
CONTINUOUS
10
3.43937
20
-2.55288
11
3.44286
21
-2.55636
0
LINE
8
BLACK
6
CONTINUOUS
10
3.44286
20
-2.55636
11
3.44509
21
-2.56075
0
LINE
8
BLACK
6
CONTINUOUS
10
3.44509
20
-2.56075
11
3.44586
21
-2.56562
0
LINE
8
BLACK
6
CONTINUOUS
10
3.44586
20
-2.56562
11
3.44509
21
-2.57048
0
LINE
8
BLACK
6
CONTINUOUS
10
3.44509
20
-2.57048
11
3.44286
21
-2.57487
0
LINE
8
BLACK
6
CONTINUOUS
10
3.44286
20
-2.57487
11
3.43937
21
-2.57836
0
LINE
8
BLACK
6
CONTINUOUS
10
3.43937
20
-2.57836
11
3.43498
21
-2.58059
0
LINE
8
BLACK
6
CONTINUOUS
10
3.43498
20
-2.58059
11
3.43012
21
-2.58136
0
LINE
8
BLACK
6
CONTINUOUS
10
3.43012
20
-2.58136
11
3.42525
21
-2.58059
0
LINE
8
BLACK
6
CONTINUOUS
10
3.42525
20
-2.58059
11
3.42086
21
-2.57836
0
LINE
8
BLACK
6
CONTINUOUS
10
3.42086
20
-2.57836
11
3.41738
21
-2.57487
0
LINE
8
BLACK
6
CONTINUOUS
10
3.41738
20
-2.57487
11
3.41514
21
-2.57048
0
LINE
8
BLACK
6
CONTINUOUS
10
3.41514
20
-2.57048
11
3.41437
21
-2.56562
0
LINE
8
BLACK
6
CONTINUOUS
10
3.41437
20
-2.56562
11
3.41514
21
-2.56075
0
LINE
8
BLACK
6
CONTINUOUS
10
3.41514
20
-2.56075
11
3.41738
21
-2.55636
0
LINE
8
BLACK
6
CONTINUOUS
10
3.41738
20
-2.55636
11
3.42086
21
-2.55288
0
LINE
8
BLACK
6
CONTINUOUS
10
3.42086
20
-2.55288
11
3.4252
21
-2.55067
0
LINE
8
BLACK
6
CONTINUOUS
10
3.4252
20
-2.55067
11
3.4252
21
-2.46902
0
LINE
8
BLACK
6
CONTINUOUS
10
3.4252
20
-2.46902
11
3.42086
21
-2.46681
0
LINE
8
BLACK
6
CONTINUOUS
10
3.42086
20
-2.46681
11
3.41738
21
-2.46332
0
LINE
8
BLACK
6
CONTINUOUS
10
3.41738
20
-2.46332
11
3.41514
21
-2.45893
0
LINE
8
BLACK
6
CONTINUOUS
10
3.41514
20
-2.45893
11
3.41437
21
-2.45407
0
LINE
8
BLACK
6
CONTINUOUS
10
3.41437
20
-2.45407
11
3.41514
21
-2.4492
0
LINE
8
BLACK
6
CONTINUOUS
10
3.41514
20
-2.4492
11
3.41738
21
-2.44481
0
LINE
8
BLACK
6
CONTINUOUS
10
3.41738
20
-2.44481
11
3.42086
21
-2.44133
0
LINE
8
BLACK
6
CONTINUOUS
10
3.42086
20
-2.44133
11
3.42525
21
-2.43909
0
LINE
8
BLACK
6
CONTINUOUS
10
3.42525
20
-2.43909
11
3.43012
21
-2.43832
0
LINE
8
BLACK
6
CONTINUOUS
10
3.43012
20
-2.43832
11
3.43498
21
-2.43909
0
LINE
8
BLACK
6
CONTINUOUS
10
3.87135
20
-2.31772
11
3.87574
21
-2.31995
0
LINE
8
BLACK
6
CONTINUOUS
10
3.87574
20
-2.31995
11
3.87923
21
-2.32344
0
LINE
8
BLACK
6
CONTINUOUS
10
3.87923
20
-2.32344
11
3.88146
21
-2.32783
0
LINE
8
BLACK
6
CONTINUOUS
10
3.88146
20
-2.32783
11
3.88223
21
-2.33269
0
LINE
8
BLACK
6
CONTINUOUS
10
3.88223
20
-2.33269
11
3.88146
21
-2.33756
0
LINE
8
BLACK
6
CONTINUOUS
10
3.88146
20
-2.33756
11
3.8804
21
-2.33965
0
LINE
8
BLACK
6
CONTINUOUS
10
3.8804
20
-2.33965
11
3.90624
21
-2.36548
0
LINE
8
BLACK
6
CONTINUOUS
10
3.90624
20
-2.36548
11
4.14023
21
-2.36548
0
LINE
8
BLACK
6
CONTINUOUS
10
4.14023
20
-2.36548
11
4.14244
21
-2.36115
0
LINE
8
BLACK
6
CONTINUOUS
10
4.14244
20
-2.36115
11
4.14593
21
-2.35767
0
LINE
8
BLACK
6
CONTINUOUS
10
4.14593
20
-2.35767
11
4.15032
21
-2.35543
0
LINE
8
BLACK
6
CONTINUOUS
10
4.15032
20
-2.35543
11
4.15518
21
-2.35466
0
LINE
8
BLACK
6
CONTINUOUS
10
4.15518
20
-2.35466
11
4.16005
21
-2.35543
0
LINE
8
BLACK
6
CONTINUOUS
10
4.16005
20
-2.35543
11
4.16214
21
-2.35649
0
LINE
8
BLACK
6
CONTINUOUS
10
4.16214
20
-2.35649
11
4.18941
21
-2.32922
0
LINE
8
BLACK
6
CONTINUOUS
10
4.18941
20
-2.32922
11
4.19011
21
-2.32869
0
LINE
8
BLACK
6
CONTINUOUS
10
4.19011
20
-2.32869
11
4.19023
21
-2.32855
0
LINE
8
BLACK
6
CONTINUOUS
10
4.19023
20
-2.32855
11
4.19034
21
-2.32852
0
LINE
8
BLACK
6
CONTINUOUS
10
4.19034
20
-2.32852
11
4.19054
21
-2.32837
0
LINE
8
BLACK
6
CONTINUOUS
10
4.19054
20
-2.32837
11
4.19173
21
-2.32811
0
LINE
8
BLACK
6
CONTINUOUS
10
4.19173
20
-2.32811
11
4.19289
21
-2.32777
0
LINE
8
BLACK
6
CONTINUOUS
10
4.19289
20
-2.32777
11
4.45111
21
-2.32777
0
LINE
8
BLACK
6
CONTINUOUS
10
4.45111
20
-2.32777
11
4.45198
21
-2.3279
0
LINE
8
BLACK
6
CONTINUOUS
10
4.45198
20
-2.3279
11
4.45216
21
-2.32789
0
LINE
8
BLACK
6
CONTINUOUS
10
4.45216
20
-2.32789
11
4.45226
21
-2.32794
0
LINE
8
BLACK
6
CONTINUOUS
10
4.45226
20
-2.32794
11
4.45251
21
-2.32798
0
LINE
8
BLACK
6
CONTINUOUS
10
4.45251
20
-2.32798
11
4.45353
21
-2.32863
0
LINE
8
BLACK
6
CONTINUOUS
10
4.45353
20
-2.32863
11
4.45459
21
-2.32922
0
LINE
8
BLACK
6
CONTINUOUS
10
4.45459
20
-2.32922
11
4.49086
21
-2.36548
0
LINE
8
BLACK
6
CONTINUOUS
10
4.49086
20
-2.36548
11
4.80952
21
-2.36548
0
LINE
8
BLACK
6
CONTINUOUS
10
4.80952
20
-2.36548
11
4.81173
21
-2.36115
0
LINE
8
BLACK
6
CONTINUOUS
10
4.81173
20
-2.36115
11
4.81522
21
-2.35767
0
LINE
8
BLACK
6
CONTINUOUS
10
4.81522
20
-2.35767
11
4.81961
21
-2.35543
0
LINE
8
BLACK
6
CONTINUOUS
10
4.81961
20
-2.35543
11
4.82447
21
-2.35466
0
LINE
8
BLACK
6
CONTINUOUS
10
4.82447
20
-2.35466
11
4.82934
21
-2.35543
0
LINE
8
BLACK
6
CONTINUOUS
10
4.82934
20
-2.35543
11
4.83143
21
-2.35649
0
LINE
8
BLACK
6
CONTINUOUS
10
4.83143
20
-2.35649
11
4.8587
21
-2.32922
0
LINE
8
BLACK
6
CONTINUOUS
10
4.8587
20
-2.32922
11
4.85941
21
-2.32869
0
LINE
8
BLACK
6
CONTINUOUS
10
4.85941
20
-2.32869
11
4.85952
21
-2.32855
0
LINE
8
BLACK
6
CONTINUOUS
10
4.85952
20
-2.32855
11
4.85963
21
-2.32852
0
LINE
8
BLACK
6
CONTINUOUS
10
4.85963
20
-2.32852
11
4.85984
21
-2.32837
0
LINE
8
BLACK
6
CONTINUOUS
10
4.85984
20
-2.32837
11
4.86102
21
-2.32811
0
LINE
8
BLACK
6
CONTINUOUS
10
4.86102
20
-2.32811
11
4.86218
21
-2.32777
0
LINE
8
BLACK
6
CONTINUOUS
10
4.86218
20
-2.32777
11
5.22819
21
-2.32777
0
LINE
8
BLACK
6
CONTINUOUS
10
5.22819
20
-2.32777
11
5.22906
21
-2.3279
0
LINE
8
BLACK
6
CONTINUOUS
10
5.22906
20
-2.3279
11
5.22924
21
-2.32789
0
LINE
8
BLACK
6
CONTINUOUS
10
5.22924
20
-2.32789
11
5.22934
21
-2.32794
0
LINE
8
BLACK
6
CONTINUOUS
10
5.22934
20
-2.32794
11
5.22959
21
-2.32798
0
LINE
8
BLACK
6
CONTINUOUS
10
5.22959
20
-2.32798
11
5.23061
21
-2.32863
0
LINE
8
BLACK
6
CONTINUOUS
10
5.23061
20
-2.32863
11
5.23167
21
-2.32922
0
LINE
8
BLACK
6
CONTINUOUS
10
5.23167
20
-2.32922
11
5.26794
21
-2.36548
0
LINE
8
BLACK
6
CONTINUOUS
10
5.26794
20
-2.36548
11
5.47881
21
-2.36548
0
LINE
8
BLACK
6
CONTINUOUS
10
5.47881
20
-2.36548
11
5.48102
21
-2.36115
0
LINE
8
BLACK
6
CONTINUOUS
10
5.48102
20
-2.36115
11
5.48451
21
-2.35767
0
LINE
8
BLACK
6
CONTINUOUS
10
5.48451
20
-2.35767
11
5.4889
21
-2.35543
0
LINE
8
BLACK
6
CONTINUOUS
10
5.4889
20
-2.35543
11
5.49376
21
-2.35466
0
LINE
8
BLACK
6
CONTINUOUS
10
5.49376
20
-2.35466
11
5.49863
21
-2.35543
0
LINE
8
BLACK
6
CONTINUOUS
10
5.49863
20
-2.35543
11
5.50302
21
-2.35767
0
LINE
8
BLACK
6
CONTINUOUS
10
5.50302
20
-2.35767
11
5.5065
21
-2.36115
0
LINE
8
BLACK
6
CONTINUOUS
10
5.5065
20
-2.36115
11
5.50874
21
-2.36554
0
LINE
8
BLACK
6
CONTINUOUS
10
5.50874
20
-2.36554
11
5.50951
21
-2.37041
0
LINE
8
BLACK
6
CONTINUOUS
10
5.50951
20
-2.37041
11
5.50874
21
-2.37527
0
LINE
8
BLACK
6
CONTINUOUS
10
5.50874
20
-2.37527
11
5.5065
21
-2.37966
0
LINE
8
BLACK
6
CONTINUOUS
10
5.5065
20
-2.37966
11
5.50302
21
-2.38315
0
LINE
8
BLACK
6
CONTINUOUS
10
5.50302
20
-2.38315
11
5.49863
21
-2.38538
0
LINE
8
BLACK
6
CONTINUOUS
10
5.49863
20
-2.38538
11
5.49376
21
-2.38615
0
LINE
8
BLACK
6
CONTINUOUS
10
5.49376
20
-2.38615
11
5.4889
21
-2.38538
0
LINE
8
BLACK
6
CONTINUOUS
10
5.4889
20
-2.38538
11
5.48451
21
-2.38315
0
LINE
8
BLACK
6
CONTINUOUS
10
5.48451
20
-2.38315
11
5.48102
21
-2.37966
0
LINE
8
BLACK
6
CONTINUOUS
10
5.48102
20
-2.37966
11
5.47881
21
-2.37533
0
LINE
8
BLACK
6
CONTINUOUS
10
5.47881
20
-2.37533
11
5.2659
21
-2.37533
0
LINE
8
BLACK
6
CONTINUOUS
10
5.2659
20
-2.37533
11
5.26504
21
-2.3752
0
LINE
8
BLACK
6
CONTINUOUS
10
5.26504
20
-2.3752
11
5.26485
21
-2.37521
0
LINE
8
BLACK
6
CONTINUOUS
10
5.26485
20
-2.37521
11
5.26476
21
-2.37516
0
LINE
8
BLACK
6
CONTINUOUS
10
5.26476
20
-2.37516
11
5.26451
21
-2.37512
0
LINE
8
BLACK
6
CONTINUOUS
10
5.26451
20
-2.37512
11
5.26349
21
-2.37447
0
LINE
8
BLACK
6
CONTINUOUS
10
5.26349
20
-2.37447
11
5.26242
21
-2.37389
0
LINE
8
BLACK
6
CONTINUOUS
10
5.26242
20
-2.37389
11
5.22615
21
-2.33762
0
LINE
8
BLACK
6
CONTINUOUS
10
5.22615
20
-2.33762
11
4.86422
21
-2.33762
0
LINE
8
BLACK
6
CONTINUOUS
10
4.86422
20
-2.33762
11
4.83839
21
-2.36345
0
LINE
8
BLACK
6
CONTINUOUS
10
4.83839
20
-2.36345
11
4.83945
21
-2.36554
0
LINE
8
BLACK
6
CONTINUOUS
10
4.83945
20
-2.36554
11
4.84022
21
-2.37041
0
LINE
8
BLACK
6
CONTINUOUS
10
4.84022
20
-2.37041
11
4.83945
21
-2.37527
0
LINE
8
BLACK
6
CONTINUOUS
10
4.83945
20
-2.37527
11
4.83721
21
-2.37966
0
LINE
8
BLACK
6
CONTINUOUS
10
4.83721
20
-2.37966
11
4.83373
21
-2.38315
0
LINE
8
BLACK
6
CONTINUOUS
10
4.83373
20
-2.38315
11
4.82934
21
-2.38538
0
LINE
8
BLACK
6
CONTINUOUS
10
4.82934
20
-2.38538
11
4.82447
21
-2.38615
0
LINE
8
BLACK
6
CONTINUOUS
10
4.82447
20
-2.38615
11
4.81961
21
-2.38538
0
LINE
8
BLACK
6
CONTINUOUS
10
4.81961
20
-2.38538
11
4.81522
21
-2.38315
0
LINE
8
BLACK
6
CONTINUOUS
10
4.81522
20
-2.38315
11
4.81173
21
-2.37966
0
LINE
8
BLACK
6
CONTINUOUS
10
4.81173
20
-2.37966
11
4.80952
21
-2.37533
0
LINE
8
BLACK
6
CONTINUOUS
10
4.80952
20
-2.37533
11
4.48882
21
-2.37533
0
LINE
8
BLACK
6
CONTINUOUS
10
4.48882
20
-2.37533
11
4.48796
21
-2.3752
0
LINE
8
BLACK
6
CONTINUOUS
10
4.48796
20
-2.3752
11
4.48778
21
-2.37521
0
LINE
8
BLACK
6
CONTINUOUS
10
4.48778
20
-2.37521
11
4.48768
21
-2.37516
0
LINE
8
BLACK
6
CONTINUOUS
10
4.48768
20
-2.37516
11
4.48743
21
-2.37512
0
LINE
8
BLACK
6
CONTINUOUS
10
4.48743
20
-2.37512
11
4.48641
21
-2.37447
0
LINE
8
BLACK
6
CONTINUOUS
10
4.48641
20
-2.37447
11
4.48534
21
-2.37389
0
LINE
8
BLACK
6
CONTINUOUS
10
4.48534
20
-2.37389
11
4.44908
21
-2.33762
0
LINE
8
BLACK
6
CONTINUOUS
10
4.44908
20
-2.33762
11
4.19493
21
-2.33762
0
LINE
8
BLACK
6
CONTINUOUS
10
4.19493
20
-2.33762
11
4.1691
21
-2.36345
0
LINE
8
BLACK
6
CONTINUOUS
10
4.1691
20
-2.36345
11
4.17016
21
-2.36554
0
LINE
8
BLACK
6
CONTINUOUS
10
4.17016
20
-2.36554
11
4.17093
21
-2.37041
0
LINE
8
BLACK
6
CONTINUOUS
10
4.17093
20
-2.37041
11
4.17016
21
-2.37527
0
LINE
8
BLACK
6
CONTINUOUS
10
4.17016
20
-2.37527
11
4.16792
21
-2.37966
0
LINE
8
BLACK
6
CONTINUOUS
10
4.16792
20
-2.37966
11
4.16444
21
-2.38315
0
LINE
8
BLACK
6
CONTINUOUS
10
4.16444
20
-2.38315
11
4.16005
21
-2.38538
0
LINE
8
BLACK
6
CONTINUOUS
10
4.16005
20
-2.38538
11
4.15518
21
-2.38615
0
LINE
8
BLACK
6
CONTINUOUS
10
4.15518
20
-2.38615
11
4.15032
21
-2.38538
0
LINE
8
BLACK
6
CONTINUOUS
10
4.15032
20
-2.38538
11
4.14593
21
-2.38315
0
LINE
8
BLACK
6
CONTINUOUS
10
4.14593
20
-2.38315
11
4.14244
21
-2.37966
0
LINE
8
BLACK
6
CONTINUOUS
10
4.14244
20
-2.37966
11
4.14023
21
-2.37533
0
LINE
8
BLACK
6
CONTINUOUS
10
4.14023
20
-2.37533
11
3.9042
21
-2.37533
0
LINE
8
BLACK
6
CONTINUOUS
10
3.9042
20
-2.37533
11
3.90333
21
-2.3752
0
LINE
8
BLACK
6
CONTINUOUS
10
3.90333
20
-2.3752
11
3.90315
21
-2.37521
0
LINE
8
BLACK
6
CONTINUOUS
10
3.90315
20
-2.37521
11
3.90305
21
-2.37516
0
LINE
8
BLACK
6
CONTINUOUS
10
3.90305
20
-2.37516
11
3.9028
21
-2.37512
0
LINE
8
BLACK
6
CONTINUOUS
10
3.9028
20
-2.37512
11
3.90178
21
-2.37447
0
LINE
8
BLACK
6
CONTINUOUS
10
3.90178
20
-2.37447
11
3.90072
21
-2.37389
0
LINE
8
BLACK
6
CONTINUOUS
10
3.90072
20
-2.37389
11
3.87344
21
-2.34661
0
LINE
8
BLACK
6
CONTINUOUS
10
3.87344
20
-2.34661
11
3.87135
21
-2.34767
0
LINE
8
BLACK
6
CONTINUOUS
10
3.87135
20
-2.34767
11
3.86649
21
-2.34844
0
LINE
8
BLACK
6
CONTINUOUS
10
3.86649
20
-2.34844
11
3.86162
21
-2.34767
0
LINE
8
BLACK
6
CONTINUOUS
10
3.86162
20
-2.34767
11
3.85723
21
-2.34544
0
LINE
8
BLACK
6
CONTINUOUS
10
3.85723
20
-2.34544
11
3.85375
21
-2.34195
0
LINE
8
BLACK
6
CONTINUOUS
10
3.85375
20
-2.34195
11
3.85154
21
-2.33762
0
LINE
8
BLACK
6
CONTINUOUS
10
3.85154
20
-2.33762
11
3.52564
21
-2.33762
0
LINE
8
BLACK
6
CONTINUOUS
10
3.52564
20
-2.33762
11
3.4998
21
-2.36345
0
LINE
8
BLACK
6
CONTINUOUS
10
3.4998
20
-2.36345
11
3.50087
21
-2.36554
0
LINE
8
BLACK
6
CONTINUOUS
10
3.50087
20
-2.36554
11
3.50164
21
-2.37041
0
LINE
8
BLACK
6
CONTINUOUS
10
3.50164
20
-2.37041
11
3.50087
21
-2.37527
0
LINE
8
BLACK
6
CONTINUOUS
10
3.50087
20
-2.37527
11
3.49863
21
-2.37966
0
LINE
8
BLACK
6
CONTINUOUS
10
3.49863
20
-2.37966
11
3.49515
21
-2.38315
0
LINE
8
BLACK
6
CONTINUOUS
10
3.49515
20
-2.38315
11
3.49076
21
-2.38538
0
LINE
8
BLACK
6
CONTINUOUS
10
3.49076
20
-2.38538
11
3.48589
21
-2.38615
0
LINE
8
BLACK
6
CONTINUOUS
10
3.48589
20
-2.38615
11
3.48102
21
-2.38538
0
LINE
8
BLACK
6
CONTINUOUS
10
3.48102
20
-2.38538
11
3.47663
21
-2.38315
0
LINE
8
BLACK
6
CONTINUOUS
10
3.47663
20
-2.38315
11
3.47315
21
-2.37966
0
LINE
8
BLACK
6
CONTINUOUS
10
3.47315
20
-2.37966
11
3.47091
21
-2.37527
0
LINE
8
BLACK
6
CONTINUOUS
10
3.47091
20
-2.37527
11
3.47014
21
-2.37041
0
LINE
8
BLACK
6
CONTINUOUS
10
3.47014
20
-2.37041
11
3.47091
21
-2.36554
0
LINE
8
BLACK
6
CONTINUOUS
10
3.47091
20
-2.36554
11
3.47315
21
-2.36115
0
LINE
8
BLACK
6
CONTINUOUS
10
3.47315
20
-2.36115
11
3.47663
21
-2.35767
0
LINE
8
BLACK
6
CONTINUOUS
10
3.47663
20
-2.35767
11
3.48102
21
-2.35543
0
LINE
8
BLACK
6
CONTINUOUS
10
3.48102
20
-2.35543
11
3.48589
21
-2.35466
0
LINE
8
BLACK
6
CONTINUOUS
10
3.48589
20
-2.35466
11
3.49076
21
-2.35543
0
LINE
8
BLACK
6
CONTINUOUS
10
3.49076
20
-2.35543
11
3.49284
21
-2.35649
0
LINE
8
BLACK
6
CONTINUOUS
10
3.49284
20
-2.35649
11
3.52012
21
-2.32922
0
LINE
8
BLACK
6
CONTINUOUS
10
3.52012
20
-2.32922
11
3.52082
21
-2.32869
0
LINE
8
BLACK
6
CONTINUOUS
10
3.52082
20
-2.32869
11
3.52094
21
-2.32855
0
LINE
8
BLACK
6
CONTINUOUS
10
3.52094
20
-2.32855
11
3.52105
21
-2.32852
0
LINE
8
BLACK
6
CONTINUOUS
10
3.52105
20
-2.32852
11
3.52125
21
-2.32837
0
LINE
8
BLACK
6
CONTINUOUS
10
3.52125
20
-2.32837
11
3.52244
21
-2.32811
0
LINE
8
BLACK
6
CONTINUOUS
10
3.52244
20
-2.32811
11
3.5236
21
-2.32777
0
LINE
8
BLACK
6
CONTINUOUS
10
3.5236
20
-2.32777
11
3.85154
21
-2.32777
0
LINE
8
BLACK
6
CONTINUOUS
10
3.85154
20
-2.32777
11
3.85375
21
-2.32344
0
LINE
8
BLACK
6
CONTINUOUS
10
3.85375
20
-2.32344
11
3.85723
21
-2.31995
0
LINE
8
BLACK
6
CONTINUOUS
10
3.85723
20
-2.31995
11
3.86162
21
-2.31772
0
LINE
8
BLACK
6
CONTINUOUS
10
3.86162
20
-2.31772
11
3.86649
21
-2.31695
0
LINE
8
BLACK
6
CONTINUOUS
10
3.86649
20
-2.31695
11
3.87135
21
-2.31772
0
LINE
8
BLACK
6
CONTINUOUS
10
4.88511
20
-2.13233
11
4.8895
21
-2.13457
0
LINE
8
BLACK
6
CONTINUOUS
10
4.8895
20
-2.13457
11
4.89299
21
-2.13805
0
LINE
8
BLACK
6
CONTINUOUS
10
4.89299
20
-2.13805
11
4.89522
21
-2.14244
0
LINE
8
BLACK
6
CONTINUOUS
10
4.89522
20
-2.14244
11
4.896
21
-2.14731
0
LINE
8
BLACK
6
CONTINUOUS
10
4.896
20
-2.14731
11
4.89522
21
-2.15218
0
LINE
8
BLACK
6
CONTINUOUS
10
4.89522
20
-2.15218
11
4.89299
21
-2.15657
0
LINE
8
BLACK
6
CONTINUOUS
10
4.89299
20
-2.15657
11
4.8895
21
-2.16005
0
LINE
8
BLACK
6
CONTINUOUS
10
4.8895
20
-2.16005
11
4.88517
21
-2.16226
0
LINE
8
BLACK
6
CONTINUOUS
10
4.88517
20
-2.16226
11
4.88517
21
-2.26475
0
LINE
8
BLACK
6
CONTINUOUS
10
4.88517
20
-2.26475
11
4.88504
21
-2.26562
0
LINE
8
BLACK
6
CONTINUOUS
10
4.88504
20
-2.26562
11
4.88506
21
-2.2658
0
LINE
8
BLACK
6
CONTINUOUS
10
4.88506
20
-2.2658
11
4.885
21
-2.2659
0
LINE
8
BLACK
6
CONTINUOUS
10
4.885
20
-2.2659
11
4.88497
21
-2.26615
0
LINE
8
BLACK
6
CONTINUOUS
10
4.88497
20
-2.26615
11
4.88431
21
-2.26717
0
LINE
8
BLACK
6
CONTINUOUS
10
4.88431
20
-2.26717
11
4.88373
21
-2.26823
0
LINE
8
BLACK
6
CONTINUOUS
10
4.88373
20
-2.26823
11
4.8066
21
-2.34536
0
LINE
8
BLACK
6
CONTINUOUS
10
4.8066
20
-2.34536
11
4.80589
21
-2.34589
0
LINE
8
BLACK
6
CONTINUOUS
10
4.80589
20
-2.34589
11
4.80577
21
-2.34602
0
LINE
8
BLACK
6
CONTINUOUS
10
4.80577
20
-2.34602
11
4.80567
21
-2.34605
0
LINE
8
BLACK
6
CONTINUOUS
10
4.80567
20
-2.34605
11
4.80546
21
-2.34621
0
LINE
8
BLACK
6
CONTINUOUS
10
4.80546
20
-2.34621
11
4.80428
21
-2.34646
0
LINE
8
BLACK
6
CONTINUOUS
10
4.80428
20
-2.34646
11
4.80312
21
-2.3468
0
LINE
8
BLACK
6
CONTINUOUS
10
4.80312
20
-2.3468
11
4.56809
21
-2.3468
0
LINE
8
BLACK
6
CONTINUOUS
10
4.56809
20
-2.3468
11
4.56722
21
-2.34668
0
LINE
8
BLACK
6
CONTINUOUS
10
4.56722
20
-2.34668
11
4.56704
21
-2.34669
0
LINE
8
BLACK
6
CONTINUOUS
10
4.56704
20
-2.34669
11
4.56694
21
-2.34664
0
LINE
8
BLACK
6
CONTINUOUS
10
4.56694
20
-2.34664
11
4.56669
21
-2.3466
0
LINE
8
BLACK
6
CONTINUOUS
10
4.56669
20
-2.3466
11
4.56567
21
-2.34594
0
LINE
8
BLACK
6
CONTINUOUS
10
4.56567
20
-2.34594
11
4.56461
21
-2.34536
0
LINE
8
BLACK
6
CONTINUOUS
10
4.56461
20
-2.34536
11
4.43057
21
-2.21133
0
LINE
8
BLACK
6
CONTINUOUS
10
4.43057
20
-2.21133
11
4.43005
21
-2.21062
0
LINE
8
BLACK
6
CONTINUOUS
10
4.43005
20
-2.21062
11
4.42991
21
-2.21051
0
LINE
8
BLACK
6
CONTINUOUS
10
4.42991
20
-2.21051
11
4.42988
21
-2.2104
0
LINE
8
BLACK
6
CONTINUOUS
10
4.42988
20
-2.2104
11
4.42973
21
-2.21019
0
LINE
8
BLACK
6
CONTINUOUS
10
4.42973
20
-2.21019
11
4.42947
21
-2.20901
0
LINE
8
BLACK
6
CONTINUOUS
10
4.42947
20
-2.20901
11
4.42913
21
-2.20785
0
LINE
8
BLACK
6
CONTINUOUS
10
4.42913
20
-2.20785
11
4.42913
21
-2.16226
0
LINE
8
BLACK
6
CONTINUOUS
10
4.42913
20
-2.16226
11
4.4248
21
-2.16005
0
LINE
8
BLACK
6
CONTINUOUS
10
4.4248
20
-2.16005
11
4.42131
21
-2.15657
0
LINE
8
BLACK
6
CONTINUOUS
10
4.42131
20
-2.15657
11
4.41908
21
-2.15218
0
LINE
8
BLACK
6
CONTINUOUS
10
4.41908
20
-2.15218
11
4.41831
21
-2.14731
0
LINE
8
BLACK
6
CONTINUOUS
10
4.41831
20
-2.14731
11
4.41908
21
-2.14244
0
LINE
8
BLACK
6
CONTINUOUS
10
4.41908
20
-2.14244
11
4.42131
21
-2.13805
0
LINE
8
BLACK
6
CONTINUOUS
10
4.42131
20
-2.13805
11
4.4248
21
-2.13457
0
LINE
8
BLACK
6
CONTINUOUS
10
4.4248
20
-2.13457
11
4.42919
21
-2.13233
0
LINE
8
BLACK
6
CONTINUOUS
10
4.42919
20
-2.13233
11
4.43405
21
-2.13156
0
LINE
8
BLACK
6
CONTINUOUS
10
4.43405
20
-2.13156
11
4.43892
21
-2.13233
0
LINE
8
BLACK
6
CONTINUOUS
10
4.43892
20
-2.13233
11
4.44331
21
-2.13457
0
LINE
8
BLACK
6
CONTINUOUS
10
4.44331
20
-2.13457
11
4.44679
21
-2.13805
0
LINE
8
BLACK
6
CONTINUOUS
10
4.44679
20
-2.13805
11
4.44903
21
-2.14244
0
LINE
8
BLACK
6
CONTINUOUS
10
4.44903
20
-2.14244
11
4.4498
21
-2.14731
0
LINE
8
BLACK
6
CONTINUOUS
10
4.4498
20
-2.14731
11
4.44903
21
-2.15218
0
LINE
8
BLACK
6
CONTINUOUS
10
4.44903
20
-2.15218
11
4.44679
21
-2.15657
0
LINE
8
BLACK
6
CONTINUOUS
10
4.44679
20
-2.15657
11
4.44331
21
-2.16005
0
LINE
8
BLACK
6
CONTINUOUS
10
4.44331
20
-2.16005
11
4.43897
21
-2.16226
0
LINE
8
BLACK
6
CONTINUOUS
10
4.43897
20
-2.16226
11
4.43897
21
-2.20581
0
LINE
8
BLACK
6
CONTINUOUS
10
4.43897
20
-2.20581
11
4.57013
21
-2.33696
0
LINE
8
BLACK
6
CONTINUOUS
10
4.57013
20
-2.33696
11
4.80108
21
-2.33696
0
LINE
8
BLACK
6
CONTINUOUS
10
4.80108
20
-2.33696
11
4.87533
21
-2.26271
0
LINE
8
BLACK
6
CONTINUOUS
10
4.87533
20
-2.26271
11
4.87533
21
-2.16226
0
LINE
8
BLACK
6
CONTINUOUS
10
4.87533
20
-2.16226
11
4.87099
21
-2.16005
0
LINE
8
BLACK
6
CONTINUOUS
10
4.87099
20
-2.16005
11
4.86751
21
-2.15657
0
LINE
8
BLACK
6
CONTINUOUS
10
4.86751
20
-2.15657
11
4.86527
21
-2.15218
0
LINE
8
BLACK
6
CONTINUOUS
10
4.86527
20
-2.15218
11
4.8645
21
-2.14731
0
LINE
8
BLACK
6
CONTINUOUS
10
4.8645
20
-2.14731
11
4.86527
21
-2.14244
0
LINE
8
BLACK
6
CONTINUOUS
10
4.86527
20
-2.14244
11
4.86751
21
-2.13805
0
LINE
8
BLACK
6
CONTINUOUS
10
4.86751
20
-2.13805
11
4.87099
21
-2.13457
0
LINE
8
BLACK
6
CONTINUOUS
10
4.87099
20
-2.13457
11
4.87538
21
-2.13233
0
LINE
8
BLACK
6
CONTINUOUS
10
4.87538
20
-2.13233
11
4.88025
21
-2.13156
0
LINE
8
BLACK
6
CONTINUOUS
10
4.88025
20
-2.13156
11
4.88511
21
-2.13233
0
LINE
8
BLACK
6
CONTINUOUS
10
4.09148
20
-1.72518
11
4.09587
21
-1.72742
0
LINE
8
BLACK
6
CONTINUOUS
10
4.09587
20
-1.72742
11
4.09935
21
-1.7309
0
LINE
8
BLACK
6
CONTINUOUS
10
4.09935
20
-1.7309
11
4.10159
21
-1.73529
0
LINE
8
BLACK
6
CONTINUOUS
10
4.10159
20
-1.73529
11
4.10236
21
-1.74016
0
LINE
8
BLACK
6
CONTINUOUS
10
4.10236
20
-1.74016
11
4.10159
21
-1.74502
0
LINE
8
BLACK
6
CONTINUOUS
10
4.10159
20
-1.74502
11
4.09935
21
-1.74941
0
LINE
8
BLACK
6
CONTINUOUS
10
4.09935
20
-1.74941
11
4.09587
21
-1.7529
0
LINE
8
BLACK
6
CONTINUOUS
10
4.09587
20
-1.7529
11
4.09148
21
-1.75513
0
LINE
8
BLACK
6
CONTINUOUS
10
4.09148
20
-1.75513
11
4.09055
21
-1.75528
0
LINE
8
BLACK
6
CONTINUOUS
10
4.09055
20
-1.75528
11
4.09055
21
-1.79227
0
LINE
8
BLACK
6
CONTINUOUS
10
4.09055
20
-1.79227
11
4.20771
21
-1.90943
0
LINE
8
BLACK
6
CONTINUOUS
10
4.20771
20
-1.90943
11
4.93307
21
-1.90943
0
LINE
8
BLACK
6
CONTINUOUS
10
4.93307
20
-1.90943
11
4.93337
21
-1.90953
0
LINE
8
BLACK
6
CONTINUOUS
10
4.93337
20
-1.90953
11
4.93369
21
-1.90948
0
LINE
8
BLACK
6
CONTINUOUS
10
4.93369
20
-1.90948
11
4.93451
21
-1.9099
0
LINE
8
BLACK
6
CONTINUOUS
10
4.93451
20
-1.9099
11
4.93539
21
-1.91018
0
LINE
8
BLACK
6
CONTINUOUS
10
4.93539
20
-1.91018
11
4.93557
21
-1.91044
0
LINE
8
BLACK
6
CONTINUOUS
10
4.93557
20
-1.91044
11
4.93586
21
-1.91058
0
LINE
8
BLACK
6
CONTINUOUS
10
4.93586
20
-1.91058
11
4.93701
21
-1.91173
0
LINE
8
BLACK
6
CONTINUOUS
10
4.93701
20
-1.91173
11
4.94002
21
-1.9102
0
LINE
8
BLACK
6
CONTINUOUS
10
4.94002
20
-1.9102
11
4.94488
21
-1.90943
0
LINE
8
BLACK
6
CONTINUOUS
10
4.94488
20
-1.90943
11
4.94975
21
-1.9102
0
LINE
8
BLACK
6
CONTINUOUS
10
4.94975
20
-1.9102
11
4.95414
21
-1.91244
0
LINE
8
BLACK
6
CONTINUOUS
10
4.95414
20
-1.91244
11
4.95762
21
-1.91592
0
LINE
8
BLACK
6
CONTINUOUS
10
4.95762
20
-1.91592
11
4.95986
21
-1.92031
0
LINE
8
BLACK
6
CONTINUOUS
10
4.95986
20
-1.92031
11
4.96063
21
-1.92518
0
LINE
8
BLACK
6
CONTINUOUS
10
4.96063
20
-1.92518
11
4.95986
21
-1.93004
0
LINE
8
BLACK
6
CONTINUOUS
10
4.95986
20
-1.93004
11
4.95762
21
-1.93443
0
LINE
8
BLACK
6
CONTINUOUS
10
4.95762
20
-1.93443
11
4.95414
21
-1.93792
0
LINE
8
BLACK
6
CONTINUOUS
10
4.95414
20
-1.93792
11
4.94975
21
-1.94015
0
LINE
8
BLACK
6
CONTINUOUS
10
4.94975
20
-1.94015
11
4.94488
21
-1.94093
0
LINE
8
BLACK
6
CONTINUOUS
10
4.94488
20
-1.94093
11
4.94002
21
-1.94015
0
LINE
8
BLACK
6
CONTINUOUS
10
4.94002
20
-1.94015
11
4.93563
21
-1.93792
0
LINE
8
BLACK
6
CONTINUOUS
10
4.93563
20
-1.93792
11
4.93214
21
-1.93443
0
LINE
8
BLACK
6
CONTINUOUS
10
4.93214
20
-1.93443
11
4.9299
21
-1.93004
0
LINE
8
BLACK
6
CONTINUOUS
10
4.9299
20
-1.93004
11
4.92913
21
-1.92518
0
LINE
8
BLACK
6
CONTINUOUS
10
4.92913
20
-1.92518
11
4.9299
21
-1.92031
0
LINE
8
BLACK
6
CONTINUOUS
10
4.9299
20
-1.92031
11
4.93144
21
-1.9173
0
LINE
8
BLACK
6
CONTINUOUS
10
4.93144
20
-1.9173
11
4.20608
21
-1.9173
0
LINE
8
BLACK
6
CONTINUOUS
10
4.20608
20
-1.9173
11
4.20578
21
-1.91721
0
LINE
8
BLACK
6
CONTINUOUS
10
4.20578
20
-1.91721
11
4.20547
21
-1.91726
0
LINE
8
BLACK
6
CONTINUOUS
10
4.20547
20
-1.91726
11
4.20465
21
-1.91684
0
LINE
8
BLACK
6
CONTINUOUS
10
4.20465
20
-1.91684
11
4.20377
21
-1.91655
0
LINE
8
BLACK
6
CONTINUOUS
10
4.20377
20
-1.91655
11
4.20358
21
-1.91629
0
LINE
8
BLACK
6
CONTINUOUS
10
4.20358
20
-1.91629
11
4.2033
21
-1.91615
0
LINE
8
BLACK
6
CONTINUOUS
10
4.2033
20
-1.91615
11
4.08383
21
-1.79668
0
LINE
8
BLACK
6
CONTINUOUS
10
4.08383
20
-1.79668
11
4.08369
21
-1.7964
0
LINE
8
BLACK
6
CONTINUOUS
10
4.08369
20
-1.7964
11
4.08343
21
-1.79621
0
LINE
8
BLACK
6
CONTINUOUS
10
4.08343
20
-1.79621
11
4.08314
21
-1.79534
0
LINE
8
BLACK
6
CONTINUOUS
10
4.08314
20
-1.79534
11
4.08273
21
-1.79451
0
LINE
8
BLACK
6
CONTINUOUS
10
4.08273
20
-1.79451
11
4.08278
21
-1.7942
0
LINE
8
BLACK
6
CONTINUOUS
10
4.08278
20
-1.7942
11
4.08268
21
-1.7939
0
LINE
8
BLACK
6
CONTINUOUS
10
4.08268
20
-1.7939
11
4.08268
21
-1.75528
0
LINE
8
BLACK
6
CONTINUOUS
10
4.08268
20
-1.75528
11
4.08175
21
-1.75513
0
LINE
8
BLACK
6
CONTINUOUS
10
4.08175
20
-1.75513
11
4.07736
21
-1.7529
0
LINE
8
BLACK
6
CONTINUOUS
10
4.07736
20
-1.7529
11
4.07387
21
-1.74941
0
LINE
8
BLACK
6
CONTINUOUS
10
4.07387
20
-1.74941
11
4.07164
21
-1.74502
0
LINE
8
BLACK
6
CONTINUOUS
10
4.07164
20
-1.74502
11
4.07087
21
-1.74016
0
LINE
8
BLACK
6
CONTINUOUS
10
4.07087
20
-1.74016
11
4.07164
21
-1.73529
0
LINE
8
BLACK
6
CONTINUOUS
10
4.07164
20
-1.73529
11
4.07387
21
-1.7309
0
LINE
8
BLACK
6
CONTINUOUS
10
4.07387
20
-1.7309
11
4.07736
21
-1.72742
0
LINE
8
BLACK
6
CONTINUOUS
10
4.07736
20
-1.72742
11
4.08175
21
-1.72518
0
LINE
8
BLACK
6
CONTINUOUS
10
4.08175
20
-1.72518
11
4.08661
21
-1.72441
0
LINE
8
BLACK
6
CONTINUOUS
10
4.08661
20
-1.72441
11
4.09148
21
-1.72518
0
LINE
8
BLACK
6
CONTINUOUS
10
3.49076
20
-1.68614
11
3.49515
21
-1.68837
0
LINE
8
BLACK
6
CONTINUOUS
10
3.49515
20
-1.68837
11
3.49863
21
-1.69186
0
LINE
8
BLACK
6
CONTINUOUS
10
3.49863
20
-1.69186
11
3.50087
21
-1.69625
0
LINE
8
BLACK
6
CONTINUOUS
10
3.50087
20
-1.69625
11
3.50164
21
-1.70111
0
LINE
8
BLACK
6
CONTINUOUS
10
3.50164
20
-1.70111
11
3.50087
21
-1.70598
0
LINE
8
BLACK
6
CONTINUOUS
10
3.50087
20
-1.70598
11
3.4998
21
-1.70807
0
LINE
8
BLACK
6
CONTINUOUS
10
3.4998
20
-1.70807
11
3.67795
21
-1.88622
0
LINE
8
BLACK
6
CONTINUOUS
10
3.67795
20
-1.88622
11
3.75836
21
-1.88622
0
LINE
8
BLACK
6
CONTINUOUS
10
3.75836
20
-1.88622
11
3.93879
21
-1.70579
0
LINE
8
BLACK
6
CONTINUOUS
10
3.93879
20
-1.70579
11
3.93949
21
-1.70526
0
LINE
8
BLACK
6
CONTINUOUS
10
3.93949
20
-1.70526
11
3.93961
21
-1.70513
0
LINE
8
BLACK
6
CONTINUOUS
10
3.93961
20
-1.70513
11
3.93971
21
-1.7051
0
LINE
8
BLACK
6
CONTINUOUS
10
3.93971
20
-1.7051
11
3.93992
21
-1.70494
0
LINE
8
BLACK
6
CONTINUOUS
10
3.93992
20
-1.70494
11
3.9411
21
-1.70469
0
LINE
8
BLACK
6
CONTINUOUS
10
3.9411
20
-1.70469
11
3.94227
21
-1.70435
0
LINE
8
BLACK
6
CONTINUOUS
10
3.94227
20
-1.70435
11
4.10419
21
-1.70435
0
LINE
8
BLACK
6
CONTINUOUS
10
4.10419
20
-1.70435
11
4.1064
21
-1.70001
0
LINE
8
BLACK
6
CONTINUOUS
10
4.1064
20
-1.70001
11
4.10988
21
-1.69653
0
LINE
8
BLACK
6
CONTINUOUS
10
4.10988
20
-1.69653
11
4.11427
21
-1.69429
0
LINE
8
BLACK
6
CONTINUOUS
10
4.11427
20
-1.69429
11
4.11914
21
-1.69352
0
LINE
8
BLACK
6
CONTINUOUS
10
4.11914
20
-1.69352
11
4.12401
21
-1.69429
0
LINE
8
BLACK
6
CONTINUOUS
10
4.12401
20
-1.69429
11
4.1284
21
-1.69653
0
LINE
8
BLACK
6
CONTINUOUS
10
4.1284
20
-1.69653
11
4.13188
21
-1.70001
0
LINE
8
BLACK
6
CONTINUOUS
10
4.13188
20
-1.70001
11
4.13412
21
-1.7044
0
LINE
8
BLACK
6
CONTINUOUS
10
4.13412
20
-1.7044
11
4.13489
21
-1.70927
0
LINE
8
BLACK
6
CONTINUOUS
10
4.13489
20
-1.70927
11
4.13412
21
-1.71413
0
LINE
8
BLACK
6
CONTINUOUS
10
4.13412
20
-1.71413
11
4.13188
21
-1.71852
0
LINE
8
BLACK
6
CONTINUOUS
10
4.13188
20
-1.71852
11
4.1284
21
-1.72201
0
LINE
8
BLACK
6
CONTINUOUS
10
4.1284
20
-1.72201
11
4.12401
21
-1.72425
0
LINE
8
BLACK
6
CONTINUOUS
10
4.12401
20
-1.72425
11
4.11914
21
-1.72502
0
LINE
8
BLACK
6
CONTINUOUS
10
4.11914
20
-1.72502
11
4.11427
21
-1.72425
0
LINE
8
BLACK
6
CONTINUOUS
10
4.11427
20
-1.72425
11
4.10988
21
-1.72201
0
LINE
8
BLACK
6
CONTINUOUS
10
4.10988
20
-1.72201
11
4.1064
21
-1.71852
0
LINE
8
BLACK
6
CONTINUOUS
10
4.1064
20
-1.71852
11
4.10419
21
-1.71419
0
LINE
8
BLACK
6
CONTINUOUS
10
4.10419
20
-1.71419
11
3.9443
21
-1.71419
0
LINE
8
BLACK
6
CONTINUOUS
10
3.9443
20
-1.71419
11
3.76388
21
-1.89462
0
LINE
8
BLACK
6
CONTINUOUS
10
3.76388
20
-1.89462
11
3.76317
21
-1.89514
0
LINE
8
BLACK
6
CONTINUOUS
10
3.76317
20
-1.89514
11
3.76306
21
-1.89528
0
LINE
8
BLACK
6
CONTINUOUS
10
3.76306
20
-1.89528
11
3.76295
21
-1.89531
0
LINE
8
BLACK
6
CONTINUOUS
10
3.76295
20
-1.89531
11
3.76274
21
-1.89546
0
LINE
8
BLACK
6
CONTINUOUS
10
3.76274
20
-1.89546
11
3.76156
21
-1.89572
0
LINE
8
BLACK
6
CONTINUOUS
10
3.76156
20
-1.89572
11
3.7604
21
-1.89606
0
LINE
8
BLACK
6
CONTINUOUS
10
3.7604
20
-1.89606
11
3.67591
21
-1.89606
0
LINE
8
BLACK
6
CONTINUOUS
10
3.67591
20
-1.89606
11
3.67505
21
-1.89593
0
LINE
8
BLACK
6
CONTINUOUS
10
3.67505
20
-1.89593
11
3.67487
21
-1.89595
0
LINE
8
BLACK
6
CONTINUOUS
10
3.67487
20
-1.89595
11
3.67477
21
-1.89589
0
LINE
8
BLACK
6
CONTINUOUS
10
3.67477
20
-1.89589
11
3.67452
21
-1.89586
0
LINE
8
BLACK
6
CONTINUOUS
10
3.67452
20
-1.89586
11
3.6735
21
-1.8952
0
LINE
8
BLACK
6
CONTINUOUS
10
3.6735
20
-1.8952
11
3.67243
21
-1.89462
0
LINE
8
BLACK
6
CONTINUOUS
10
3.67243
20
-1.89462
11
3.49284
21
-1.71503
0
LINE
8
BLACK
6
CONTINUOUS
10
3.49284
20
-1.71503
11
3.49076
21
-1.71609
0
LINE
8
BLACK
6
CONTINUOUS
10
3.49076
20
-1.71609
11
3.48589
21
-1.71686
0
LINE
8
BLACK
6
CONTINUOUS
10
3.48589
20
-1.71686
11
3.48102
21
-1.71609
0
LINE
8
BLACK
6
CONTINUOUS
10
3.48102
20
-1.71609
11
3.47663
21
-1.71386
0
LINE
8
BLACK
6
CONTINUOUS
10
3.47663
20
-1.71386
11
3.47315
21
-1.71037
0
LINE
8
BLACK
6
CONTINUOUS
10
3.47315
20
-1.71037
11
3.47091
21
-1.70598
0
LINE
8
BLACK
6
CONTINUOUS
10
3.47091
20
-1.70598
11
3.47014
21
-1.70111
0
LINE
8
BLACK
6
CONTINUOUS
10
3.47014
20
-1.70111
11
3.47091
21
-1.69625
0
LINE
8
BLACK
6
CONTINUOUS
10
3.47091
20
-1.69625
11
3.47315
21
-1.69186
0
LINE
8
BLACK
6
CONTINUOUS
10
3.47315
20
-1.69186
11
3.47663
21
-1.68837
0
LINE
8
BLACK
6
CONTINUOUS
10
3.47663
20
-1.68837
11
3.48102
21
-1.68614
0
LINE
8
BLACK
6
CONTINUOUS
10
3.48102
20
-1.68614
11
3.48589
21
-1.68537
0
LINE
8
BLACK
6
CONTINUOUS
10
3.48589
20
-1.68537
11
3.49076
21
-1.68614
0
LINE
8
BLACK
6
CONTINUOUS
10
4.52259
20
-1.68614
11
4.52698
21
-1.68838
0
LINE
8
BLACK
6
CONTINUOUS
10
4.52698
20
-1.68838
11
4.53046
21
-1.69186
0
LINE
8
BLACK
6
CONTINUOUS
10
4.53046
20
-1.69186
11
4.53267
21
-1.6962
0
LINE
8
BLACK
6
CONTINUOUS
10
4.53267
20
-1.6962
11
4.67467
21
-1.6962
0
LINE
8
BLACK
6
CONTINUOUS
10
4.67467
20
-1.6962
11
4.67554
21
-1.69632
0
LINE
8
BLACK
6
CONTINUOUS
10
4.67554
20
-1.69632
11
4.67572
21
-1.69631
0
LINE
8
BLACK
6
CONTINUOUS
10
4.67572
20
-1.69631
11
4.67582
21
-1.69636
0
LINE
8
BLACK
6
CONTINUOUS
10
4.67582
20
-1.69636
11
4.67607
21
-1.6964
0
LINE
8
BLACK
6
CONTINUOUS
10
4.67607
20
-1.6964
11
4.67709
21
-1.69706
0
LINE
8
BLACK
6
CONTINUOUS
10
4.67709
20
-1.69706
11
4.67815
21
-1.69764
0
LINE
8
BLACK
6
CONTINUOUS
10
4.67815
20
-1.69764
11
4.85849
21
-1.87797
0
LINE
8
BLACK
6
CONTINUOUS
10
4.85849
20
-1.87797
11
5.03109
21
-1.87797
0
LINE
8
BLACK
6
CONTINUOUS
10
5.03109
20
-1.87797
11
5.03366
21
-1.87539
0
LINE
8
BLACK
6
CONTINUOUS
10
5.03366
20
-1.87539
11
5.0326
21
-1.87331
0
LINE
8
BLACK
6
CONTINUOUS
10
5.0326
20
-1.87331
11
5.03183
21
-1.86844
0
LINE
8
BLACK
6
CONTINUOUS
10
5.03183
20
-1.86844
11
5.0326
21
-1.86357
0
LINE
8
BLACK
6
CONTINUOUS
10
5.0326
20
-1.86357
11
5.03484
21
-1.85918
0
LINE
8
BLACK
6
CONTINUOUS
10
5.03484
20
-1.85918
11
5.03832
21
-1.8557
0
LINE
8
BLACK
6
CONTINUOUS
10
5.03832
20
-1.8557
11
5.04271
21
-1.85346
0
LINE
8
BLACK
6
CONTINUOUS
10
5.04271
20
-1.85346
11
5.04758
21
-1.85269
0
LINE
8
BLACK
6
CONTINUOUS
10
5.04758
20
-1.85269
11
5.05244
21
-1.85346
0
LINE
8
BLACK
6
CONTINUOUS
10
5.05244
20
-1.85346
11
5.05683
21
-1.8557
0
LINE
8
BLACK
6
CONTINUOUS
10
5.05683
20
-1.8557
11
5.06032
21
-1.85918
0
LINE
8
BLACK
6
CONTINUOUS
10
5.06032
20
-1.85918
11
5.06255
21
-1.86357
0
LINE
8
BLACK
6
CONTINUOUS
10
5.06255
20
-1.86357
11
5.06332
21
-1.86844
0
LINE
8
BLACK
6
CONTINUOUS
10
5.06332
20
-1.86844
11
5.06255
21
-1.87331
0
LINE
8
BLACK
6
CONTINUOUS
10
5.06255
20
-1.87331
11
5.06032
21
-1.8777
0
LINE
8
BLACK
6
CONTINUOUS
10
5.06032
20
-1.8777
11
5.05683
21
-1.88118
0
LINE
8
BLACK
6
CONTINUOUS
10
5.05683
20
-1.88118
11
5.05244
21
-1.88342
0
LINE
8
BLACK
6
CONTINUOUS
10
5.05244
20
-1.88342
11
5.04758
21
-1.88419
0
LINE
8
BLACK
6
CONTINUOUS
10
5.04758
20
-1.88419
11
5.04271
21
-1.88342
0
LINE
8
BLACK
6
CONTINUOUS
10
5.04271
20
-1.88342
11
5.04062
21
-1.88235
0
LINE
8
BLACK
6
CONTINUOUS
10
5.04062
20
-1.88235
11
5.0366
21
-1.88637
0
LINE
8
BLACK
6
CONTINUOUS
10
5.0366
20
-1.88637
11
5.0359
21
-1.8869
0
LINE
8
BLACK
6
CONTINUOUS
10
5.0359
20
-1.8869
11
5.03578
21
-1.88703
0
LINE
8
BLACK
6
CONTINUOUS
10
5.03578
20
-1.88703
11
5.03568
21
-1.88707
0
LINE
8
BLACK
6
CONTINUOUS
10
5.03568
20
-1.88707
11
5.03547
21
-1.88722
0
LINE
8
BLACK
6
CONTINUOUS
10
5.03547
20
-1.88722
11
5.03429
21
-1.88747
0
LINE
8
BLACK
6
CONTINUOUS
10
5.03429
20
-1.88747
11
5.03312
21
-1.88781
0
LINE
8
BLACK
6
CONTINUOUS
10
5.03312
20
-1.88781
11
4.85645
21
-1.88781
0
LINE
8
BLACK
6
CONTINUOUS
10
4.85645
20
-1.88781
11
4.85558
21
-1.88769
0
LINE
8
BLACK
6
CONTINUOUS
10
4.85558
20
-1.88769
11
4.8554
21
-1.8877
0
LINE
8
BLACK
6
CONTINUOUS
10
4.8554
20
-1.8877
11
4.8553
21
-1.88765
0
LINE
8
BLACK
6
CONTINUOUS
10
4.8553
20
-1.88765
11
4.85505
21
-1.88761
0
LINE
8
BLACK
6
CONTINUOUS
10
4.85505
20
-1.88761
11
4.85403
21
-1.88695
0
LINE
8
BLACK
6
CONTINUOUS
10
4.85403
20
-1.88695
11
4.85297
21
-1.88637
0
LINE
8
BLACK
6
CONTINUOUS
10
4.85297
20
-1.88637
11
4.67263
21
-1.70604
0
LINE
8
BLACK
6
CONTINUOUS
10
4.67263
20
-1.70604
11
4.53267
21
-1.70604
0
LINE
8
BLACK
6
CONTINUOUS
10
4.53267
20
-1.70604
11
4.53046
21
-1.71037
0
LINE
8
BLACK
6
CONTINUOUS
10
4.53046
20
-1.71037
11
4.52698
21
-1.71386
0
LINE
8
BLACK
6
CONTINUOUS
10
4.52698
20
-1.71386
11
4.52259
21
-1.71609
0
LINE
8
BLACK
6
CONTINUOUS
10
4.52259
20
-1.71609
11
4.51772
21
-1.71687
0
LINE
8
BLACK
6
CONTINUOUS
10
4.51772
20
-1.71687
11
4.51285
21
-1.71609
0
LINE
8
BLACK
6
CONTINUOUS
10
4.51285
20
-1.71609
11
4.50846
21
-1.71386
0
LINE
8
BLACK
6
CONTINUOUS
10
4.50846
20
-1.71386
11
4.50498
21
-1.71037
0
LINE
8
BLACK
6
CONTINUOUS
10
4.50498
20
-1.71037
11
4.50274
21
-1.70598
0
LINE
8
BLACK
6
CONTINUOUS
10
4.50274
20
-1.70598
11
4.50197
21
-1.70112
0
LINE
8
BLACK
6
CONTINUOUS
10
4.50197
20
-1.70112
11
4.50274
21
-1.69625
0
LINE
8
BLACK
6
CONTINUOUS
10
4.50274
20
-1.69625
11
4.50498
21
-1.69186
0
LINE
8
BLACK
6
CONTINUOUS
10
4.50498
20
-1.69186
11
4.50846
21
-1.68838
0
LINE
8
BLACK
6
CONTINUOUS
10
4.50846
20
-1.68838
11
4.51285
21
-1.68614
0
LINE
8
BLACK
6
CONTINUOUS
10
4.51285
20
-1.68614
11
4.51772
21
-1.68537
0
LINE
8
BLACK
6
CONTINUOUS
10
4.51772
20
-1.68537
11
4.52259
21
-1.68614
0
LINE
8
BLACK
6
CONTINUOUS
10
5.22906
20
-1.65861
11
5.22924
21
-1.6586
0
LINE
8
BLACK
6
CONTINUOUS
10
5.22924
20
-1.6586
11
5.22934
21
-1.65865
0
LINE
8
BLACK
6
CONTINUOUS
10
5.22934
20
-1.65865
11
5.22959
21
-1.65869
0
LINE
8
BLACK
6
CONTINUOUS
10
5.22959
20
-1.65869
11
5.23061
21
-1.65934
0
LINE
8
BLACK
6
CONTINUOUS
10
5.23061
20
-1.65934
11
5.23167
21
-1.65992
0
LINE
8
BLACK
6
CONTINUOUS
10
5.23167
20
-1.65992
11
5.26794
21
-1.69619
0
LINE
8
BLACK
6
CONTINUOUS
10
5.26794
20
-1.69619
11
5.47881
21
-1.69619
0
LINE
8
BLACK
6
CONTINUOUS
10
5.47881
20
-1.69619
11
5.48102
21
-1.69186
0
LINE
8
BLACK
6
CONTINUOUS
10
5.48102
20
-1.69186
11
5.48451
21
-1.68837
0
LINE
8
BLACK
6
CONTINUOUS
10
5.48451
20
-1.68837
11
5.4889
21
-1.68614
0
LINE
8
BLACK
6
CONTINUOUS
10
5.4889
20
-1.68614
11
5.49376
21
-1.68537
0
LINE
8
BLACK
6
CONTINUOUS
10
5.49376
20
-1.68537
11
5.49863
21
-1.68614
0
LINE
8
BLACK
6
CONTINUOUS
10
5.49863
20
-1.68614
11
5.50302
21
-1.68837
0
LINE
8
BLACK
6
CONTINUOUS
10
5.50302
20
-1.68837
11
5.5065
21
-1.69186
0
LINE
8
BLACK
6
CONTINUOUS
10
5.5065
20
-1.69186
11
5.50874
21
-1.69625
0
LINE
8
BLACK
6
CONTINUOUS
10
5.50874
20
-1.69625
11
5.50951
21
-1.70111
0
LINE
8
BLACK
6
CONTINUOUS
10
5.50951
20
-1.70111
11
5.50874
21
-1.70598
0
LINE
8
BLACK
6
CONTINUOUS
10
5.50874
20
-1.70598
11
5.5065
21
-1.71037
0
LINE
8
BLACK
6
CONTINUOUS
10
5.5065
20
-1.71037
11
5.50302
21
-1.71386
0
LINE
8
BLACK
6
CONTINUOUS
10
5.50302
20
-1.71386
11
5.49863
21
-1.71609
0
LINE
8
BLACK
6
CONTINUOUS
10
5.49863
20
-1.71609
11
5.49376
21
-1.71686
0
LINE
8
BLACK
6
CONTINUOUS
10
5.49376
20
-1.71686
11
5.4889
21
-1.71609
0
LINE
8
BLACK
6
CONTINUOUS
10
5.4889
20
-1.71609
11
5.48451
21
-1.71386
0
LINE
8
BLACK
6
CONTINUOUS
10
5.48451
20
-1.71386
11
5.48102
21
-1.71037
0
LINE
8
BLACK
6
CONTINUOUS
10
5.48102
20
-1.71037
11
5.47881
21
-1.70604
0
LINE
8
BLACK
6
CONTINUOUS
10
5.47881
20
-1.70604
11
5.2659
21
-1.70604
0
LINE
8
BLACK
6
CONTINUOUS
10
5.2659
20
-1.70604
11
5.26504
21
-1.70591
0
LINE
8
BLACK
6
CONTINUOUS
10
5.26504
20
-1.70591
11
5.26485
21
-1.70592
0
LINE
8
BLACK
6
CONTINUOUS
10
5.26485
20
-1.70592
11
5.26476
21
-1.70587
0
LINE
8
BLACK
6
CONTINUOUS
10
5.26476
20
-1.70587
11
5.26451
21
-1.70583
0
LINE
8
BLACK
6
CONTINUOUS
10
5.26451
20
-1.70583
11
5.26349
21
-1.70518
0
LINE
8
BLACK
6
CONTINUOUS
10
5.26349
20
-1.70518
11
5.26242
21
-1.70459
0
LINE
8
BLACK
6
CONTINUOUS
10
5.26242
20
-1.70459
11
5.22615
21
-1.66833
0
LINE
8
BLACK
6
CONTINUOUS
10
5.22615
20
-1.66833
11
4.86422
21
-1.66833
0
LINE
8
BLACK
6
CONTINUOUS
10
4.86422
20
-1.66833
11
4.83839
21
-1.69416
0
LINE
8
BLACK
6
CONTINUOUS
10
4.83839
20
-1.69416
11
4.83945
21
-1.69625
0
LINE
8
BLACK
6
CONTINUOUS
10
4.83945
20
-1.69625
11
4.84022
21
-1.70111
0
LINE
8
BLACK
6
CONTINUOUS
10
4.84022
20
-1.70111
11
4.83945
21
-1.70598
0
LINE
8
BLACK
6
CONTINUOUS
10
4.83945
20
-1.70598
11
4.83839
21
-1.70807
0
LINE
8
BLACK
6
CONTINUOUS
10
4.83839
20
-1.70807
11
4.88373
21
-1.75341
0
LINE
8
BLACK
6
CONTINUOUS
10
4.88373
20
-1.75341
11
4.88425
21
-1.75411
0
LINE
8
BLACK
6
CONTINUOUS
10
4.88425
20
-1.75411
11
4.88439
21
-1.75423
0
LINE
8
BLACK
6
CONTINUOUS
10
4.88439
20
-1.75423
11
4.88442
21
-1.75434
0
LINE
8
BLACK
6
CONTINUOUS
10
4.88442
20
-1.75434
11
4.88457
21
-1.75454
0
LINE
8
BLACK
6
CONTINUOUS
10
4.88457
20
-1.75454
11
4.88483
21
-1.75573
0
LINE
8
BLACK
6
CONTINUOUS
10
4.88483
20
-1.75573
11
4.88517
21
-1.75689
0
LINE
8
BLACK
6
CONTINUOUS
10
4.88517
20
-1.75689
11
4.88517
21
-1.83942
0
LINE
8
BLACK
6
CONTINUOUS
10
4.88517
20
-1.83942
11
4.8895
21
-1.84163
0
LINE
8
BLACK
6
CONTINUOUS
10
4.8895
20
-1.84163
11
4.89299
21
-1.84511
0
LINE
8
BLACK
6
CONTINUOUS
10
4.89299
20
-1.84511
11
4.89522
21
-1.8495
0
LINE
8
BLACK
6
CONTINUOUS
10
4.89522
20
-1.8495
11
4.896
21
-1.85437
0
LINE
8
BLACK
6
CONTINUOUS
10
4.896
20
-1.85437
11
4.89522
21
-1.85924
0
LINE
8
BLACK
6
CONTINUOUS
10
4.89522
20
-1.85924
11
4.89299
21
-1.86363
0
LINE
8
BLACK
6
CONTINUOUS
10
4.89299
20
-1.86363
11
4.8895
21
-1.86711
0
LINE
8
BLACK
6
CONTINUOUS
10
4.8895
20
-1.86711
11
4.88511
21
-1.86935
0
LINE
8
BLACK
6
CONTINUOUS
10
4.88511
20
-1.86935
11
4.88025
21
-1.87012
0
LINE
8
BLACK
6
CONTINUOUS
10
4.88025
20
-1.87012
11
4.87538
21
-1.86935
0
LINE
8
BLACK
6
CONTINUOUS
10
4.87538
20
-1.86935
11
4.87099
21
-1.86711
0
LINE
8
BLACK
6
CONTINUOUS
10
4.87099
20
-1.86711
11
4.86751
21
-1.86363
0
LINE
8
BLACK
6
CONTINUOUS
10
4.86751
20
-1.86363
11
4.86527
21
-1.85924
0
LINE
8
BLACK
6
CONTINUOUS
10
4.86527
20
-1.85924
11
4.8645
21
-1.85437
0
LINE
8
BLACK
6
CONTINUOUS
10
4.8645
20
-1.85437
11
4.86527
21
-1.8495
0
LINE
8
BLACK
6
CONTINUOUS
10
4.86527
20
-1.8495
11
4.86751
21
-1.84511
0
LINE
8
BLACK
6
CONTINUOUS
10
4.86751
20
-1.84511
11
4.87099
21
-1.84163
0
LINE
8
BLACK
6
CONTINUOUS
10
4.87099
20
-1.84163
11
4.87533
21
-1.83942
0
LINE
8
BLACK
6
CONTINUOUS
10
4.87533
20
-1.83942
11
4.87533
21
-1.75893
0
LINE
8
BLACK
6
CONTINUOUS
10
4.87533
20
-1.75893
11
4.83143
21
-1.71503
0
LINE
8
BLACK
6
CONTINUOUS
10
4.83143
20
-1.71503
11
4.82934
21
-1.71609
0
LINE
8
BLACK
6
CONTINUOUS
10
4.82934
20
-1.71609
11
4.82447
21
-1.71686
0
LINE
8
BLACK
6
CONTINUOUS
10
4.82447
20
-1.71686
11
4.81961
21
-1.71609
0
LINE
8
BLACK
6
CONTINUOUS
10
4.81961
20
-1.71609
11
4.81522
21
-1.71386
0
LINE
8
BLACK
6
CONTINUOUS
10
4.81522
20
-1.71386
11
4.81173
21
-1.71037
0
LINE
8
BLACK
6
CONTINUOUS
10
4.81173
20
-1.71037
11
4.8095
21
-1.70598
0
LINE
8
BLACK
6
CONTINUOUS
10
4.8095
20
-1.70598
11
4.80872
21
-1.70111
0
LINE
8
BLACK
6
CONTINUOUS
10
4.80872
20
-1.70111
11
4.8095
21
-1.69625
0
LINE
8
BLACK
6
CONTINUOUS
10
4.8095
20
-1.69625
11
4.81173
21
-1.69186
0
LINE
8
BLACK
6
CONTINUOUS
10
4.81173
20
-1.69186
11
4.81522
21
-1.68837
0
LINE
8
BLACK
6
CONTINUOUS
10
4.81522
20
-1.68837
11
4.81961
21
-1.68614
0
LINE
8
BLACK
6
CONTINUOUS
10
4.81961
20
-1.68614
11
4.82447
21
-1.68537
0
LINE
8
BLACK
6
CONTINUOUS
10
4.82447
20
-1.68537
11
4.82934
21
-1.68614
0
LINE
8
BLACK
6
CONTINUOUS
10
4.82934
20
-1.68614
11
4.83143
21
-1.6872
0
LINE
8
BLACK
6
CONTINUOUS
10
4.83143
20
-1.6872
11
4.8587
21
-1.65992
0
LINE
8
BLACK
6
CONTINUOUS
10
4.8587
20
-1.65992
11
4.85941
21
-1.6594
0
LINE
8
BLACK
6
CONTINUOUS
10
4.85941
20
-1.6594
11
4.85952
21
-1.65926
0
LINE
8
BLACK
6
CONTINUOUS
10
4.85952
20
-1.65926
11
4.85963
21
-1.65923
0
LINE
8
BLACK
6
CONTINUOUS
10
4.85963
20
-1.65923
11
4.85984
21
-1.65908
0
LINE
8
BLACK
6
CONTINUOUS
10
4.85984
20
-1.65908
11
4.86102
21
-1.65882
0
LINE
8
BLACK
6
CONTINUOUS
10
4.86102
20
-1.65882
11
4.86218
21
-1.65848
0
LINE
8
BLACK
6
CONTINUOUS
10
4.86218
20
-1.65848
11
5.22819
21
-1.65848
0
LINE
8
BLACK
6
CONTINUOUS
10
5.22819
20
-1.65848
11
5.22906
21
-1.65861
0
LINE
8
BLACK
6
CONTINUOUS
10
4.2481
20
-1.82781
11
4.25158
21
-1.83129
0
LINE
8
BLACK
6
CONTINUOUS
10
4.25158
20
-1.83129
11
4.25379
21
-1.83563
0
LINE
8
BLACK
6
CONTINUOUS
10
4.25379
20
-1.83563
11
4.41125
21
-1.83563
0
LINE
8
BLACK
6
CONTINUOUS
10
4.41125
20
-1.83563
11
4.41346
21
-1.83129
0
LINE
8
BLACK
6
CONTINUOUS
10
4.41346
20
-1.83129
11
4.41694
21
-1.82781
0
LINE
8
BLACK
6
CONTINUOUS
10
4.41694
20
-1.82781
11
4.42133
21
-1.82557
0
LINE
8
BLACK
6
CONTINUOUS
10
4.42133
20
-1.82557
11
4.4262
21
-1.8248
0
LINE
8
BLACK
6
CONTINUOUS
10
4.4262
20
-1.8248
11
4.43106
21
-1.82557
0
LINE
8
BLACK
6
CONTINUOUS
10
4.43106
20
-1.82557
11
4.43545
21
-1.82781
0
LINE
8
BLACK
6
CONTINUOUS
10
4.43545
20
-1.82781
11
4.43894
21
-1.83129
0
LINE
8
BLACK
6
CONTINUOUS
10
4.43894
20
-1.83129
11
4.44117
21
-1.83568
0
LINE
8
BLACK
6
CONTINUOUS
10
4.44117
20
-1.83568
11
4.44195
21
-1.84055
0
LINE
8
BLACK
6
CONTINUOUS
10
4.44195
20
-1.84055
11
4.44117
21
-1.84542
0
LINE
8
BLACK
6
CONTINUOUS
10
4.44117
20
-1.84542
11
4.43894
21
-1.84981
0
LINE
8
BLACK
6
CONTINUOUS
10
4.43894
20
-1.84981
11
4.43545
21
-1.85329
0
LINE
8
BLACK
6
CONTINUOUS
10
4.43545
20
-1.85329
11
4.43106
21
-1.85553
0
LINE
8
BLACK
6
CONTINUOUS
10
4.43106
20
-1.85553
11
4.4262
21
-1.8563
0
LINE
8
BLACK
6
CONTINUOUS
10
4.4262
20
-1.8563
11
4.42133
21
-1.85553
0
LINE
8
BLACK
6
CONTINUOUS
10
4.42133
20
-1.85553
11
4.41694
21
-1.85329
0
LINE
8
BLACK
6
CONTINUOUS
10
4.41694
20
-1.85329
11
4.41346
21
-1.84981
0
LINE
8
BLACK
6
CONTINUOUS
10
4.41346
20
-1.84981
11
4.41125
21
-1.84547
0
LINE
8
BLACK
6
CONTINUOUS
10
4.41125
20
-1.84547
11
4.25379
21
-1.84547
0
LINE
8
BLACK
6
CONTINUOUS
10
4.25379
20
-1.84547
11
4.25158
21
-1.84981
0
LINE
8
BLACK
6
CONTINUOUS
10
4.25158
20
-1.84981
11
4.2481
21
-1.85329
0
LINE
8
BLACK
6
CONTINUOUS
10
4.2481
20
-1.85329
11
4.24371
21
-1.85553
0
LINE
8
BLACK
6
CONTINUOUS
10
4.24371
20
-1.85553
11
4.23884
21
-1.8563
0
LINE
8
BLACK
6
CONTINUOUS
10
4.23884
20
-1.8563
11
4.23398
21
-1.85553
0
LINE
8
BLACK
6
CONTINUOUS
10
4.23398
20
-1.85553
11
4.22959
21
-1.85329
0
LINE
8
BLACK
6
CONTINUOUS
10
4.22959
20
-1.85329
11
4.2261
21
-1.84981
0
LINE
8
BLACK
6
CONTINUOUS
10
4.2261
20
-1.84981
11
4.22387
21
-1.84542
0
LINE
8
BLACK
6
CONTINUOUS
10
4.22387
20
-1.84542
11
4.2231
21
-1.84055
0
LINE
8
BLACK
6
CONTINUOUS
10
4.2231
20
-1.84055
11
4.22387
21
-1.83568
0
LINE
8
BLACK
6
CONTINUOUS
10
4.22387
20
-1.83568
11
4.2261
21
-1.83129
0
LINE
8
BLACK
6
CONTINUOUS
10
4.2261
20
-1.83129
11
4.22959
21
-1.82781
0
LINE
8
BLACK
6
CONTINUOUS
10
4.22959
20
-1.82781
11
4.23392
21
-1.8256
0
LINE
8
BLACK
6
CONTINUOUS
10
4.23392
20
-1.8256
11
4.23392
21
-1.22649
0
LINE
8
BLACK
6
CONTINUOUS
10
4.23392
20
-1.22649
11
4.19421
21
-1.18678
0
LINE
8
BLACK
6
CONTINUOUS
10
4.19421
20
-1.18678
11
4.19213
21
-1.18784
0
LINE
8
BLACK
6
CONTINUOUS
10
4.19213
20
-1.18784
11
4.18726
21
-1.18861
0
LINE
8
BLACK
6
CONTINUOUS
10
4.18726
20
-1.18861
11
4.18239
21
-1.18784
0
LINE
8
BLACK
6
CONTINUOUS
10
4.18239
20
-1.18784
11
4.178
21
-1.18561
0
LINE
8
BLACK
6
CONTINUOUS
10
4.178
20
-1.18561
11
4.17452
21
-1.18212
0
LINE
8
BLACK
6
CONTINUOUS
10
4.17452
20
-1.18212
11
4.17228
21
-1.17773
0
LINE
8
BLACK
6
CONTINUOUS
10
4.17228
20
-1.17773
11
4.17151
21
-1.17287
0
LINE
8
BLACK
6
CONTINUOUS
10
4.17151
20
-1.17287
11
4.17228
21
-1.168
0
LINE
8
BLACK
6
CONTINUOUS
10
4.17228
20
-1.168
11
4.17452
21
-1.16361
0
LINE
8
BLACK
6
CONTINUOUS
10
4.17452
20
-1.16361
11
4.178
21
-1.16013
0
LINE
8
BLACK
6
CONTINUOUS
10
4.178
20
-1.16013
11
4.18239
21
-1.15789
0
LINE
8
BLACK
6
CONTINUOUS
10
4.18239
20
-1.15789
11
4.18726
21
-1.15712
0
LINE
8
BLACK
6
CONTINUOUS
10
4.18726
20
-1.15712
11
4.19213
21
-1.15789
0
LINE
8
BLACK
6
CONTINUOUS
10
4.19213
20
-1.15789
11
4.19652
21
-1.16013
0
LINE
8
BLACK
6
CONTINUOUS
10
4.19652
20
-1.16013
11
4.2
21
-1.16361
0
LINE
8
BLACK
6
CONTINUOUS
10
4.2
20
-1.16361
11
4.20224
21
-1.168
0
LINE
8
BLACK
6
CONTINUOUS
10
4.20224
20
-1.168
11
4.20301
21
-1.17287
0
LINE
8
BLACK
6
CONTINUOUS
10
4.20301
20
-1.17287
11
4.20224
21
-1.17773
0
LINE
8
BLACK
6
CONTINUOUS
10
4.20224
20
-1.17773
11
4.20117
21
-1.17982
0
LINE
8
BLACK
6
CONTINUOUS
10
4.20117
20
-1.17982
11
4.24232
21
-1.22097
0
LINE
8
BLACK
6
CONTINUOUS
10
4.24232
20
-1.22097
11
4.24285
21
-1.22167
0
LINE
8
BLACK
6
CONTINUOUS
10
4.24285
20
-1.22167
11
4.24298
21
-1.22179
0
LINE
8
BLACK
6
CONTINUOUS
10
4.24298
20
-1.22179
11
4.24302
21
-1.2219
0
LINE
8
BLACK
6
CONTINUOUS
10
4.24302
20
-1.2219
11
4.24317
21
-1.2221
0
LINE
8
BLACK
6
CONTINUOUS
10
4.24317
20
-1.2221
11
4.24342
21
-1.22329
0
LINE
8
BLACK
6
CONTINUOUS
10
4.24342
20
-1.22329
11
4.24376
21
-1.22445
0
LINE
8
BLACK
6
CONTINUOUS
10
4.24376
20
-1.22445
11
4.24376
21
-1.8256
0
LINE
8
BLACK
6
CONTINUOUS
10
4.24376
20
-1.8256
11
4.2481
21
-1.82781
0
LINE
8
BLACK
6
CONTINUOUS
10
4.09493
20
-1.54392
11
4.09932
21
-1.54616
0
LINE
8
BLACK
6
CONTINUOUS
10
4.09932
20
-1.54616
11
4.1028
21
-1.54964
0
LINE
8
BLACK
6
CONTINUOUS
10
4.1028
20
-1.54964
11
4.10504
21
-1.55403
0
LINE
8
BLACK
6
CONTINUOUS
10
4.10504
20
-1.55403
11
4.10581
21
-1.5589
0
LINE
8
BLACK
6
CONTINUOUS
10
4.10581
20
-1.5589
11
4.10504
21
-1.56376
0
LINE
8
BLACK
6
CONTINUOUS
10
4.10504
20
-1.56376
11
4.1028
21
-1.56815
0
LINE
8
BLACK
6
CONTINUOUS
10
4.1028
20
-1.56815
11
4.09932
21
-1.57164
0
LINE
8
BLACK
6
CONTINUOUS
10
4.09932
20
-1.57164
11
4.09493
21
-1.57387
0
LINE
8
BLACK
6
CONTINUOUS
10
4.09493
20
-1.57387
11
4.094
21
-1.57402
0
LINE
8
BLACK
6
CONTINUOUS
10
4.094
20
-1.57402
11
4.094
21
-1.66213
0
LINE
8
BLACK
6
CONTINUOUS
10
4.094
20
-1.66213
11
4.09563
21
-1.66376
0
LINE
8
BLACK
6
CONTINUOUS
10
4.09563
20
-1.66376
11
4.09787
21
-1.66815
0
LINE
8
BLACK
6
CONTINUOUS
10
4.09787
20
-1.66815
11
4.09864
21
-1.67302
0
LINE
8
BLACK
6
CONTINUOUS
10
4.09864
20
-1.67302
11
4.09787
21
-1.67788
0
LINE
8
BLACK
6
CONTINUOUS
10
4.09787
20
-1.67788
11
4.09563
21
-1.68227
0
LINE
8
BLACK
6
CONTINUOUS
10
4.09563
20
-1.68227
11
4.09215
21
-1.68576
0
LINE
8
BLACK
6
CONTINUOUS
10
4.09215
20
-1.68576
11
4.08776
21
-1.68799
0
LINE
8
BLACK
6
CONTINUOUS
10
4.08776
20
-1.68799
11
4.08289
21
-1.68876
0
LINE
8
BLACK
6
CONTINUOUS
10
4.08289
20
-1.68876
11
4.07802
21
-1.68799
0
LINE
8
BLACK
6
CONTINUOUS
10
4.07802
20
-1.68799
11
4.07363
21
-1.68576
0
LINE
8
BLACK
6
CONTINUOUS
10
4.07363
20
-1.68576
11
4.07015
21
-1.68227
0
LINE
8
BLACK
6
CONTINUOUS
10
4.07015
20
-1.68227
11
4.06791
21
-1.67788
0
LINE
8
BLACK
6
CONTINUOUS
10
4.06791
20
-1.67788
11
4.06714
21
-1.67302
0
LINE
8
BLACK
6
CONTINUOUS
10
4.06714
20
-1.67302
11
4.06791
21
-1.66815
0
LINE
8
BLACK
6
CONTINUOUS
10
4.06791
20
-1.66815
11
4.07015
21
-1.66376
0
LINE
8
BLACK
6
CONTINUOUS
10
4.07015
20
-1.66376
11
4.07363
21
-1.66028
0
LINE
8
BLACK
6
CONTINUOUS
10
4.07363
20
-1.66028
11
4.07802
21
-1.65804
0
LINE
8
BLACK
6
CONTINUOUS
10
4.07802
20
-1.65804
11
4.08289
21
-1.65727
0
LINE
8
BLACK
6
CONTINUOUS
10
4.08289
20
-1.65727
11
4.08612
21
-1.65778
0
LINE
8
BLACK
6
CONTINUOUS
10
4.08612
20
-1.65778
11
4.08612
21
-1.57402
0
LINE
8
BLACK
6
CONTINUOUS
10
4.08612
20
-1.57402
11
4.08519
21
-1.57387
0
LINE
8
BLACK
6
CONTINUOUS
10
4.08519
20
-1.57387
11
4.0808
21
-1.57164
0
LINE
8
BLACK
6
CONTINUOUS
10
4.0808
20
-1.57164
11
4.07732
21
-1.56815
0
LINE
8
BLACK
6
CONTINUOUS
10
4.07732
20
-1.56815
11
4.07508
21
-1.56376
0
LINE
8
BLACK
6
CONTINUOUS
10
4.07508
20
-1.56376
11
4.07431
21
-1.5589
0
LINE
8
BLACK
6
CONTINUOUS
10
4.07431
20
-1.5589
11
4.07508
21
-1.55403
0
LINE
8
BLACK
6
CONTINUOUS
10
4.07508
20
-1.55403
11
4.07732
21
-1.54964
0
LINE
8
BLACK
6
CONTINUOUS
10
4.07732
20
-1.54964
11
4.0808
21
-1.54616
0
LINE
8
BLACK
6
CONTINUOUS
10
4.0808
20
-1.54616
11
4.08519
21
-1.54392
0
LINE
8
BLACK
6
CONTINUOUS
10
4.08519
20
-1.54392
11
4.09006
21
-1.54315
0
LINE
8
BLACK
6
CONTINUOUS
10
4.09006
20
-1.54315
11
4.09493
21
-1.54392
0
LINE
8
BLACK
6
CONTINUOUS
10
4.80544
20
-1.46224
11
4.80983
21
-1.46448
0
LINE
8
BLACK
6
CONTINUOUS
10
4.80983
20
-1.46448
11
4.81331
21
-1.46796
0
LINE
8
BLACK
6
CONTINUOUS
10
4.81331
20
-1.46796
11
4.81555
21
-1.47235
0
LINE
8
BLACK
6
CONTINUOUS
10
4.81555
20
-1.47235
11
4.81632
21
-1.47722
0
LINE
8
BLACK
6
CONTINUOUS
10
4.81632
20
-1.47722
11
4.81555
21
-1.48208
0
LINE
8
BLACK
6
CONTINUOUS
10
4.81555
20
-1.48208
11
4.81331
21
-1.48647
0
LINE
8
BLACK
6
CONTINUOUS
10
4.81331
20
-1.48647
11
4.80983
21
-1.48996
0
LINE
8
BLACK
6
CONTINUOUS
10
4.80983
20
-1.48996
11
4.80549
21
-1.49217
0
LINE
8
BLACK
6
CONTINUOUS
10
4.80549
20
-1.49217
11
4.80549
21
-1.52981
0
LINE
8
BLACK
6
CONTINUOUS
10
4.80549
20
-1.52981
11
4.80537
21
-1.53067
0
LINE
8
BLACK
6
CONTINUOUS
10
4.80537
20
-1.53067
11
4.80538
21
-1.53086
0
LINE
8
BLACK
6
CONTINUOUS
10
4.80538
20
-1.53086
11
4.80533
21
-1.53095
0
LINE
8
BLACK
6
CONTINUOUS
10
4.80533
20
-1.53095
11
4.80529
21
-1.5312
0
LINE
8
BLACK
6
CONTINUOUS
10
4.80529
20
-1.5312
11
4.80463
21
-1.53222
0
LINE
8
BLACK
6
CONTINUOUS
10
4.80463
20
-1.53222
11
4.80405
21
-1.53329
0
LINE
8
BLACK
6
CONTINUOUS
10
4.80405
20
-1.53329
11
4.66063
21
-1.67671
0
LINE
8
BLACK
6
CONTINUOUS
10
4.66063
20
-1.67671
11
4.65993
21
-1.67723
0
LINE
8
BLACK
6
CONTINUOUS
10
4.65993
20
-1.67723
11
4.65981
21
-1.67737
0
LINE
8
BLACK
6
CONTINUOUS
10
4.65981
20
-1.67737
11
4.6597
21
-1.6774
0
LINE
8
BLACK
6
CONTINUOUS
10
4.6597
20
-1.6774
11
4.6595
21
-1.67755
0
LINE
8
BLACK
6
CONTINUOUS
10
4.6595
20
-1.67755
11
4.65831
21
-1.67781
0
LINE
8
BLACK
6
CONTINUOUS
10
4.65831
20
-1.67781
11
4.65715
21
-1.67815
0
LINE
8
BLACK
6
CONTINUOUS
10
4.65715
20
-1.67815
11
4.56749
21
-1.67815
0
LINE
8
BLACK
6
CONTINUOUS
10
4.56749
20
-1.67815
11
4.56662
21
-1.67802
0
LINE
8
BLACK
6
CONTINUOUS
10
4.56662
20
-1.67802
11
4.56644
21
-1.67804
0
LINE
8
BLACK
6
CONTINUOUS
10
4.56644
20
-1.67804
11
4.56634
21
-1.67798
0
LINE
8
BLACK
6
CONTINUOUS
10
4.56634
20
-1.67798
11
4.56609
21
-1.67795
0
LINE
8
BLACK
6
CONTINUOUS
10
4.56609
20
-1.67795
11
4.56507
21
-1.67729
0
LINE
8
BLACK
6
CONTINUOUS
10
4.56507
20
-1.67729
11
4.56401
21
-1.67671
0
LINE
8
BLACK
6
CONTINUOUS
10
4.56401
20
-1.67671
11
4.48635
21
-1.59904
0
LINE
8
BLACK
6
CONTINUOUS
10
4.48635
20
-1.59904
11
4.48582
21
-1.59834
0
LINE
8
BLACK
6
CONTINUOUS
10
4.48582
20
-1.59834
11
4.48569
21
-1.59822
0
LINE
8
BLACK
6
CONTINUOUS
10
4.48569
20
-1.59822
11
4.48565
21
-1.59812
0
LINE
8
BLACK
6
CONTINUOUS
10
4.48565
20
-1.59812
11
4.4855
21
-1.59791
0
LINE
8
BLACK
6
CONTINUOUS
10
4.4855
20
-1.59791
11
4.48525
21
-1.59673
0
LINE
8
BLACK
6
CONTINUOUS
10
4.48525
20
-1.59673
11
4.48491
21
-1.59556
0
LINE
8
BLACK
6
CONTINUOUS
10
4.48491
20
-1.59556
11
4.48491
21
-1.56232
0
LINE
8
BLACK
6
CONTINUOUS
10
4.48491
20
-1.56232
11
4.48503
21
-1.56145
0
LINE
8
BLACK
6
CONTINUOUS
10
4.48503
20
-1.56145
11
4.48502
21
-1.56127
0
LINE
8
BLACK
6
CONTINUOUS
10
4.48502
20
-1.56127
11
4.48507
21
-1.56117
0
LINE
8
BLACK
6
CONTINUOUS
10
4.48507
20
-1.56117
11
4.48511
21
-1.56092
0
LINE
8
BLACK
6
CONTINUOUS
10
4.48511
20
-1.56092
11
4.48577
21
-1.5599
0
LINE
8
BLACK
6
CONTINUOUS
10
4.48577
20
-1.5599
11
4.48635
21
-1.55884
0
LINE
8
BLACK
6
CONTINUOUS
10
4.48635
20
-1.55884
11
4.53232
21
-1.51286
0
LINE
8
BLACK
6
CONTINUOUS
10
4.53232
20
-1.51286
11
4.53126
21
-1.51077
0
LINE
8
BLACK
6
CONTINUOUS
10
4.53126
20
-1.51077
11
4.53049
21
-1.5059
0
LINE
8
BLACK
6
CONTINUOUS
10
4.53049
20
-1.5059
11
4.53126
21
-1.50104
0
LINE
8
BLACK
6
CONTINUOUS
10
4.53126
20
-1.50104
11
4.5335
21
-1.49665
0
LINE
8
BLACK
6
CONTINUOUS
10
4.5335
20
-1.49665
11
4.53698
21
-1.49316
0
LINE
8
BLACK
6
CONTINUOUS
10
4.53698
20
-1.49316
11
4.54137
21
-1.49093
0
LINE
8
BLACK
6
CONTINUOUS
10
4.54137
20
-1.49093
11
4.54624
21
-1.49016
0
LINE
8
BLACK
6
CONTINUOUS
10
4.54624
20
-1.49016
11
4.5511
21
-1.49093
0
LINE
8
BLACK
6
CONTINUOUS
10
4.5511
20
-1.49093
11
4.55549
21
-1.49316
0
LINE
8
BLACK
6
CONTINUOUS
10
4.55549
20
-1.49316
11
4.55898
21
-1.49665
0
LINE
8
BLACK
6
CONTINUOUS
10
4.55898
20
-1.49665
11
4.56122
21
-1.50104
0
LINE
8
BLACK
6
CONTINUOUS
10
4.56122
20
-1.50104
11
4.56199
21
-1.5059
0
LINE
8
BLACK
6
CONTINUOUS
10
4.56199
20
-1.5059
11
4.56122
21
-1.51077
0
LINE
8
BLACK
6
CONTINUOUS
10
4.56122
20
-1.51077
11
4.55898
21
-1.51516
0
LINE
8
BLACK
6
CONTINUOUS
10
4.55898
20
-1.51516
11
4.55549
21
-1.51865
0
LINE
8
BLACK
6
CONTINUOUS
10
4.55549
20
-1.51865
11
4.5511
21
-1.52088
0
LINE
8
BLACK
6
CONTINUOUS
10
4.5511
20
-1.52088
11
4.54624
21
-1.52165
0
LINE
8
BLACK
6
CONTINUOUS
10
4.54624
20
-1.52165
11
4.54137
21
-1.52088
0
LINE
8
BLACK
6
CONTINUOUS
10
4.54137
20
-1.52088
11
4.53928
21
-1.51982
0
LINE
8
BLACK
6
CONTINUOUS
10
4.53928
20
-1.51982
11
4.49475
21
-1.56435
0
LINE
8
BLACK
6
CONTINUOUS
10
4.49475
20
-1.56435
11
4.49475
21
-1.59353
0
LINE
8
BLACK
6
CONTINUOUS
10
4.49475
20
-1.59353
11
4.56953
21
-1.66831
0
LINE
8
BLACK
6
CONTINUOUS
10
4.56953
20
-1.66831
11
4.65511
21
-1.66831
0
LINE
8
BLACK
6
CONTINUOUS
10
4.65511
20
-1.66831
11
4.79565
21
-1.52777
0
LINE
8
BLACK
6
CONTINUOUS
10
4.79565
20
-1.52777
11
4.79565
21
-1.49217
0
LINE
8
BLACK
6
CONTINUOUS
10
4.79565
20
-1.49217
11
4.79131
21
-1.48996
0
LINE
8
BLACK
6
CONTINUOUS
10
4.79131
20
-1.48996
11
4.78783
21
-1.48647
0
LINE
8
BLACK
6
CONTINUOUS
10
4.78783
20
-1.48647
11
4.78559
21
-1.48208
0
LINE
8
BLACK
6
CONTINUOUS
10
4.78559
20
-1.48208
11
4.78482
21
-1.47722
0
LINE
8
BLACK
6
CONTINUOUS
10
4.78482
20
-1.47722
11
4.78559
21
-1.47235
0
LINE
8
BLACK
6
CONTINUOUS
10
4.78559
20
-1.47235
11
4.78783
21
-1.46796
0
LINE
8
BLACK
6
CONTINUOUS
10
4.78783
20
-1.46796
11
4.79131
21
-1.46448
0
LINE
8
BLACK
6
CONTINUOUS
10
4.79131
20
-1.46448
11
4.7957
21
-1.46224
0
LINE
8
BLACK
6
CONTINUOUS
10
4.7957
20
-1.46224
11
4.80057
21
-1.46147
0
LINE
8
BLACK
6
CONTINUOUS
10
4.80057
20
-1.46147
11
4.80544
21
-1.46224
0
LINE
8
BLACK
6
CONTINUOUS
10
4.28045
20
-1.11792
11
4.28484
21
-1.12015
0
LINE
8
BLACK
6
CONTINUOUS
10
4.28484
20
-1.12015
11
4.28833
21
-1.12364
0
LINE
8
BLACK
6
CONTINUOUS
10
4.28833
20
-1.12364
11
4.29057
21
-1.12803
0
LINE
8
BLACK
6
CONTINUOUS
10
4.29057
20
-1.12803
11
4.29134
21
-1.13289
0
LINE
8
BLACK
6
CONTINUOUS
10
4.29134
20
-1.13289
11
4.29057
21
-1.13776
0
LINE
8
BLACK
6
CONTINUOUS
10
4.29057
20
-1.13776
11
4.28833
21
-1.14215
0
LINE
8
BLACK
6
CONTINUOUS
10
4.28833
20
-1.14215
11
4.28484
21
-1.14563
0
LINE
8
BLACK
6
CONTINUOUS
10
4.28484
20
-1.14563
11
4.28051
21
-1.14784
0
LINE
8
BLACK
6
CONTINUOUS
10
4.28051
20
-1.14784
11
4.28051
21
-1.63859
0
LINE
8
BLACK
6
CONTINUOUS
10
4.28051
20
-1.63859
11
4.28485
21
-1.6408
0
LINE
8
BLACK
6
CONTINUOUS
10
4.28485
20
-1.6408
11
4.28833
21
-1.64429
0
LINE
8
BLACK
6
CONTINUOUS
10
4.28833
20
-1.64429
11
4.29057
21
-1.64868
0
LINE
8
BLACK
6
CONTINUOUS
10
4.29057
20
-1.64868
11
4.29134
21
-1.65354
0
LINE
8
BLACK
6
CONTINUOUS
10
4.29134
20
-1.65354
11
4.29057
21
-1.65841
0
LINE
8
BLACK
6
CONTINUOUS
10
4.29057
20
-1.65841
11
4.28833
21
-1.6628
0
LINE
8
BLACK
6
CONTINUOUS
10
4.28833
20
-1.6628
11
4.28485
21
-1.66628
0
LINE
8
BLACK
6
CONTINUOUS
10
4.28485
20
-1.66628
11
4.28046
21
-1.66852
0
LINE
8
BLACK
6
CONTINUOUS
10
4.28046
20
-1.66852
11
4.27559
21
-1.66929
0
LINE
8
BLACK
6
CONTINUOUS
10
4.27559
20
-1.66929
11
4.27072
21
-1.66852
0
LINE
8
BLACK
6
CONTINUOUS
10
4.27072
20
-1.66852
11
4.26633
21
-1.66628
0
LINE
8
BLACK
6
CONTINUOUS
10
4.26633
20
-1.66628
11
4.26285
21
-1.6628
0
LINE
8
BLACK
6
CONTINUOUS
10
4.26285
20
-1.6628
11
4.26061
21
-1.65841
0
LINE
8
BLACK
6
CONTINUOUS
10
4.26061
20
-1.65841
11
4.25984
21
-1.65354
0
LINE
8
BLACK
6
CONTINUOUS
10
4.25984
20
-1.65354
11
4.26061
21
-1.64868
0
LINE
8
BLACK
6
CONTINUOUS
10
4.26061
20
-1.64868
11
4.26285
21
-1.64429
0
LINE
8
BLACK
6
CONTINUOUS
10
4.26285
20
-1.64429
11
4.26633
21
-1.6408
0
LINE
8
BLACK
6
CONTINUOUS
10
4.26633
20
-1.6408
11
4.27067
21
-1.6386
0
LINE
8
BLACK
6
CONTINUOUS
10
4.27067
20
-1.6386
11
4.27067
21
-1.14784
0
LINE
8
BLACK
6
CONTINUOUS
10
4.27067
20
-1.14784
11
4.26633
21
-1.14563
0
LINE
8
BLACK
6
CONTINUOUS
10
4.26633
20
-1.14563
11
4.26285
21
-1.14215
0
LINE
8
BLACK
6
CONTINUOUS
10
4.26285
20
-1.14215
11
4.26061
21
-1.13776
0
LINE
8
BLACK
6
CONTINUOUS
10
4.26061
20
-1.13776
11
4.25984
21
-1.13289
0
LINE
8
BLACK
6
CONTINUOUS
10
4.25984
20
-1.13289
11
4.26061
21
-1.12803
0
LINE
8
BLACK
6
CONTINUOUS
10
4.26061
20
-1.12803
11
4.26285
21
-1.12364
0
LINE
8
BLACK
6
CONTINUOUS
10
4.26285
20
-1.12364
11
4.26633
21
-1.12015
0
LINE
8
BLACK
6
CONTINUOUS
10
4.26633
20
-1.12015
11
4.27072
21
-1.11792
0
LINE
8
BLACK
6
CONTINUOUS
10
4.27072
20
-1.11792
11
4.27559
21
-1.11715
0
LINE
8
BLACK
6
CONTINUOUS
10
4.27559
20
-1.11715
11
4.28045
21
-1.11792
0
LINE
8
BLACK
6
CONTINUOUS
10
3.78378
20
-1.56086
11
3.78817
21
-1.5631
0
LINE
8
BLACK
6
CONTINUOUS
10
3.78817
20
-1.5631
11
3.79166
21
-1.56658
0
LINE
8
BLACK
6
CONTINUOUS
10
3.79166
20
-1.56658
11
3.7939
21
-1.57097
0
LINE
8
BLACK
6
CONTINUOUS
10
3.7939
20
-1.57097
11
3.79467
21
-1.57584
0
LINE
8
BLACK
6
CONTINUOUS
10
3.79467
20
-1.57584
11
3.7939
21
-1.5807
0
LINE
8
BLACK
6
CONTINUOUS
10
3.7939
20
-1.5807
11
3.79166
21
-1.58509
0
LINE
8
BLACK
6
CONTINUOUS
10
3.79166
20
-1.58509
11
3.78817
21
-1.58858
0
LINE
8
BLACK
6
CONTINUOUS
10
3.78817
20
-1.58858
11
3.78384
21
-1.59078
0
LINE
8
BLACK
6
CONTINUOUS
10
3.78384
20
-1.59078
11
3.78384
21
-1.62957
0
LINE
8
BLACK
6
CONTINUOUS
10
3.78384
20
-1.62957
11
3.7857
21
-1.63143
0
LINE
8
BLACK
6
CONTINUOUS
10
3.7857
20
-1.63143
11
3.78778
21
-1.63036
0
LINE
8
BLACK
6
CONTINUOUS
10
3.78778
20
-1.63036
11
3.79265
21
-1.62959
0
LINE
8
BLACK
6
CONTINUOUS
10
3.79265
20
-1.62959
11
3.79752
21
-1.63036
0
LINE
8
BLACK
6
CONTINUOUS
10
3.79752
20
-1.63036
11
3.80191
21
-1.6326
0
LINE
8
BLACK
6
CONTINUOUS
10
3.80191
20
-1.6326
11
3.80539
21
-1.63608
0
LINE
8
BLACK
6
CONTINUOUS
10
3.80539
20
-1.63608
11
3.80763
21
-1.64047
0
LINE
8
BLACK
6
CONTINUOUS
10
3.80763
20
-1.64047
11
3.8084
21
-1.64534
0
LINE
8
BLACK
6
CONTINUOUS
10
3.8084
20
-1.64534
11
3.80763
21
-1.65021
0
LINE
8
BLACK
6
CONTINUOUS
10
3.80763
20
-1.65021
11
3.80539
21
-1.6546
0
LINE
8
BLACK
6
CONTINUOUS
10
3.80539
20
-1.6546
11
3.80191
21
-1.65808
0
LINE
8
BLACK
6
CONTINUOUS
10
3.80191
20
-1.65808
11
3.79752
21
-1.66032
0
LINE
8
BLACK
6
CONTINUOUS
10
3.79752
20
-1.66032
11
3.79265
21
-1.66109
0
LINE
8
BLACK
6
CONTINUOUS
10
3.79265
20
-1.66109
11
3.78778
21
-1.66032
0
LINE
8
BLACK
6
CONTINUOUS
10
3.78778
20
-1.66032
11
3.78339
21
-1.65808
0
LINE
8
BLACK
6
CONTINUOUS
10
3.78339
20
-1.65808
11
3.77991
21
-1.6546
0
LINE
8
BLACK
6
CONTINUOUS
10
3.77991
20
-1.6546
11
3.77767
21
-1.65021
0
LINE
8
BLACK
6
CONTINUOUS
10
3.77767
20
-1.65021
11
3.7769
21
-1.64534
0
LINE
8
BLACK
6
CONTINUOUS
10
3.7769
20
-1.64534
11
3.77767
21
-1.64047
0
LINE
8
BLACK
6
CONTINUOUS
10
3.77767
20
-1.64047
11
3.77874
21
-1.63839
0
LINE
8
BLACK
6
CONTINUOUS
10
3.77874
20
-1.63839
11
3.77544
21
-1.63509
0
LINE
8
BLACK
6
CONTINUOUS
10
3.77544
20
-1.63509
11
3.77491
21
-1.63439
0
LINE
8
BLACK
6
CONTINUOUS
10
3.77491
20
-1.63439
11
3.77478
21
-1.63427
0
LINE
8
BLACK
6
CONTINUOUS
10
3.77478
20
-1.63427
11
3.77475
21
-1.63416
0
LINE
8
BLACK
6
CONTINUOUS
10
3.77475
20
-1.63416
11
3.77459
21
-1.63396
0
LINE
8
BLACK
6
CONTINUOUS
10
3.77459
20
-1.63396
11
3.77434
21
-1.63277
0
LINE
8
BLACK
6
CONTINUOUS
10
3.77434
20
-1.63277
11
3.774
21
-1.63161
0
LINE
8
BLACK
6
CONTINUOUS
10
3.774
20
-1.63161
11
3.774
21
-1.59078
0
LINE
8
BLACK
6
CONTINUOUS
10
3.774
20
-1.59078
11
3.76966
21
-1.58858
0
LINE
8
BLACK
6
CONTINUOUS
10
3.76966
20
-1.58858
11
3.76618
21
-1.58509
0
LINE
8
BLACK
6
CONTINUOUS
10
3.76618
20
-1.58509
11
3.76394
21
-1.5807
0
LINE
8
BLACK
6
CONTINUOUS
10
3.76394
20
-1.5807
11
3.76317
21
-1.57584
0
LINE
8
BLACK
6
CONTINUOUS
10
3.76317
20
-1.57584
11
3.76394
21
-1.57097
0
LINE
8
BLACK
6
CONTINUOUS
10
3.76394
20
-1.57097
11
3.76618
21
-1.56658
0
LINE
8
BLACK
6
CONTINUOUS
10
3.76618
20
-1.56658
11
3.76966
21
-1.5631
0
LINE
8
BLACK
6
CONTINUOUS
10
3.76966
20
-1.5631
11
3.77405
21
-1.56086
0
LINE
8
BLACK
6
CONTINUOUS
10
3.77405
20
-1.56086
11
3.77892
21
-1.56009
0
LINE
8
BLACK
6
CONTINUOUS
10
3.77892
20
-1.56009
11
3.78378
21
-1.56086
0
LINE
8
BLACK
6
CONTINUOUS
10
3.85329
20
-1.49093
11
3.85768
21
-1.49316
0
LINE
8
BLACK
6
CONTINUOUS
10
3.85768
20
-1.49316
11
3.86116
21
-1.49665
0
LINE
8
BLACK
6
CONTINUOUS
10
3.86116
20
-1.49665
11
3.8634
21
-1.50104
0
LINE
8
BLACK
6
CONTINUOUS
10
3.8634
20
-1.50104
11
3.86417
21
-1.5059
0
LINE
8
BLACK
6
CONTINUOUS
10
3.86417
20
-1.5059
11
3.8634
21
-1.51077
0
LINE
8
BLACK
6
CONTINUOUS
10
3.8634
20
-1.51077
11
3.86116
21
-1.51516
0
LINE
8
BLACK
6
CONTINUOUS
10
3.86116
20
-1.51516
11
3.85768
21
-1.51865
0
LINE
8
BLACK
6
CONTINUOUS
10
3.85768
20
-1.51865
11
3.85334
21
-1.52085
0
LINE
8
BLACK
6
CONTINUOUS
10
3.85334
20
-1.52085
11
3.85334
21
-1.62186
0
LINE
8
BLACK
6
CONTINUOUS
10
3.85334
20
-1.62186
11
3.85768
21
-1.62407
0
LINE
8
BLACK
6
CONTINUOUS
10
3.85768
20
-1.62407
11
3.86116
21
-1.62755
0
LINE
8
BLACK
6
CONTINUOUS
10
3.86116
20
-1.62755
11
3.8634
21
-1.63194
0
LINE
8
BLACK
6
CONTINUOUS
10
3.8634
20
-1.63194
11
3.86417
21
-1.63681
0
LINE
8
BLACK
6
CONTINUOUS
10
3.86417
20
-1.63681
11
3.8634
21
-1.64168
0
LINE
8
BLACK
6
CONTINUOUS
10
3.8634
20
-1.64168
11
3.86116
21
-1.64607
0
LINE
8
BLACK
6
CONTINUOUS
10
3.86116
20
-1.64607
11
3.85768
21
-1.64955
0
LINE
8
BLACK
6
CONTINUOUS
10
3.85768
20
-1.64955
11
3.85329
21
-1.65179
0
LINE
8
BLACK
6
CONTINUOUS
10
3.85329
20
-1.65179
11
3.84842
21
-1.65256
0
LINE
8
BLACK
6
CONTINUOUS
10
3.84842
20
-1.65256
11
3.84356
21
-1.65179
0
LINE
8
BLACK
6
CONTINUOUS
10
3.84356
20
-1.65179
11
3.83917
21
-1.64955
0
LINE
8
BLACK
6
CONTINUOUS
10
3.83917
20
-1.64955
11
3.83568
21
-1.64607
0
LINE
8
BLACK
6
CONTINUOUS
10
3.83568
20
-1.64607
11
3.83345
21
-1.64168
0
LINE
8
BLACK
6
CONTINUOUS
10
3.83345
20
-1.64168
11
3.83268
21
-1.63681
0
LINE
8
BLACK
6
CONTINUOUS
10
3.83268
20
-1.63681
11
3.83345
21
-1.63194
0
LINE
8
BLACK
6
CONTINUOUS
10
3.83345
20
-1.63194
11
3.83568
21
-1.62755
0
LINE
8
BLACK
6
CONTINUOUS
10
3.83568
20
-1.62755
11
3.83917
21
-1.62407
0
LINE
8
BLACK
6
CONTINUOUS
10
3.83917
20
-1.62407
11
3.8435
21
-1.62186
0
LINE
8
BLACK
6
CONTINUOUS
10
3.8435
20
-1.62186
11
3.8435
21
-1.52085
0
LINE
8
BLACK
6
CONTINUOUS
10
3.8435
20
-1.52085
11
3.83917
21
-1.51865
0
LINE
8
BLACK
6
CONTINUOUS
10
3.83917
20
-1.51865
11
3.83568
21
-1.51516
0
LINE
8
BLACK
6
CONTINUOUS
10
3.83568
20
-1.51516
11
3.83345
21
-1.51077
0
LINE
8
BLACK
6
CONTINUOUS
10
3.83345
20
-1.51077
11
3.83268
21
-1.5059
0
LINE
8
BLACK
6
CONTINUOUS
10
3.83268
20
-1.5059
11
3.83345
21
-1.50104
0
LINE
8
BLACK
6
CONTINUOUS
10
3.83345
20
-1.50104
11
3.83568
21
-1.49665
0
LINE
8
BLACK
6
CONTINUOUS
10
3.83568
20
-1.49665
11
3.83917
21
-1.49316
0
LINE
8
BLACK
6
CONTINUOUS
10
3.83917
20
-1.49316
11
3.84356
21
-1.49093
0
LINE
8
BLACK
6
CONTINUOUS
10
3.84356
20
-1.49093
11
3.84842
21
-1.49016
0
LINE
8
BLACK
6
CONTINUOUS
10
3.84842
20
-1.49016
11
3.85329
21
-1.49093
0
LINE
8
BLACK
6
CONTINUOUS
10
4.06408
20
-1.51307
11
4.06847
21
-1.51531
0
LINE
8
BLACK
6
CONTINUOUS
10
4.06847
20
-1.51531
11
4.07195
21
-1.51879
0
LINE
8
BLACK
6
CONTINUOUS
10
4.07195
20
-1.51879
11
4.07419
21
-1.52318
0
LINE
8
BLACK
6
CONTINUOUS
10
4.07419
20
-1.52318
11
4.07496
21
-1.52805
0
LINE
8
BLACK
6
CONTINUOUS
10
4.07496
20
-1.52805
11
4.07419
21
-1.53292
0
LINE
8
BLACK
6
CONTINUOUS
10
4.07419
20
-1.53292
11
4.07195
21
-1.53731
0
LINE
8
BLACK
6
CONTINUOUS
10
4.07195
20
-1.53731
11
4.06847
21
-1.54079
0
LINE
8
BLACK
6
CONTINUOUS
10
4.06847
20
-1.54079
11
4.06408
21
-1.54303
0
LINE
8
BLACK
6
CONTINUOUS
10
4.06408
20
-1.54303
11
4.06315
21
-1.54317
0
LINE
8
BLACK
6
CONTINUOUS
10
4.06315
20
-1.54317
11
4.06315
21
-1.59293
0
LINE
8
BLACK
6
CONTINUOUS
10
4.06315
20
-1.59293
11
4.06437
21
-1.59356
0
LINE
8
BLACK
6
CONTINUOUS
10
4.06437
20
-1.59356
11
4.06786
21
-1.59704
0
LINE
8
BLACK
6
CONTINUOUS
10
4.06786
20
-1.59704
11
4.0701
21
-1.60143
0
LINE
8
BLACK
6
CONTINUOUS
10
4.0701
20
-1.60143
11
4.07087
21
-1.6063
0
LINE
8
BLACK
6
CONTINUOUS
10
4.07087
20
-1.6063
11
4.0701
21
-1.61117
0
LINE
8
BLACK
6
CONTINUOUS
10
4.0701
20
-1.61117
11
4.06786
21
-1.61556
0
LINE
8
BLACK
6
CONTINUOUS
10
4.06786
20
-1.61556
11
4.06437
21
-1.61904
0
LINE
8
BLACK
6
CONTINUOUS
10
4.06437
20
-1.61904
11
4.05998
21
-1.62128
0
LINE
8
BLACK
6
CONTINUOUS
10
4.05998
20
-1.62128
11
4.05512
21
-1.62205
0
LINE
8
BLACK
6
CONTINUOUS
10
4.05512
20
-1.62205
11
4.05025
21
-1.62128
0
LINE
8
BLACK
6
CONTINUOUS
10
4.05025
20
-1.62128
11
4.04586
21
-1.61904
0
LINE
8
BLACK
6
CONTINUOUS
10
4.04586
20
-1.61904
11
4.04238
21
-1.61556
0
LINE
8
BLACK
6
CONTINUOUS
10
4.04238
20
-1.61556
11
4.04014
21
-1.61117
0
LINE
8
BLACK
6
CONTINUOUS
10
4.04014
20
-1.61117
11
4.03937
21
-1.6063
0
LINE
8
BLACK
6
CONTINUOUS
10
4.03937
20
-1.6063
11
4.04014
21
-1.60143
0
LINE
8
BLACK
6
CONTINUOUS
10
4.04014
20
-1.60143
11
4.04238
21
-1.59704
0
LINE
8
BLACK
6
CONTINUOUS
10
4.04238
20
-1.59704
11
4.04586
21
-1.59356
0
LINE
8
BLACK
6
CONTINUOUS
10
4.04586
20
-1.59356
11
4.05025
21
-1.59132
0
LINE
8
BLACK
6
CONTINUOUS
10
4.05025
20
-1.59132
11
4.05512
21
-1.59055
0
LINE
8
BLACK
6
CONTINUOUS
10
4.05512
20
-1.59055
11
4.05528
21
-1.59058
0
LINE
8
BLACK
6
CONTINUOUS
10
4.05528
20
-1.59058
11
4.05528
21
-1.54317
0
LINE
8
BLACK
6
CONTINUOUS
10
4.05528
20
-1.54317
11
4.05435
21
-1.54303
0
LINE
8
BLACK
6
CONTINUOUS
10
4.05435
20
-1.54303
11
4.04996
21
-1.54079
0
LINE
8
BLACK
6
CONTINUOUS
10
4.04996
20
-1.54079
11
4.04647
21
-1.53731
0
LINE
8
BLACK
6
CONTINUOUS
10
4.04647
20
-1.53731
11
4.04424
21
-1.53292
0
LINE
8
BLACK
6
CONTINUOUS
10
4.04424
20
-1.53292
11
4.04347
21
-1.52805
0
LINE
8
BLACK
6
CONTINUOUS
10
4.04347
20
-1.52805
11
4.04424
21
-1.52318
0
LINE
8
BLACK
6
CONTINUOUS
10
4.04424
20
-1.52318
11
4.04647
21
-1.51879
0
LINE
8
BLACK
6
CONTINUOUS
10
4.04647
20
-1.51879
11
4.04996
21
-1.51531
0
LINE
8
BLACK
6
CONTINUOUS
10
4.04996
20
-1.51531
11
4.05435
21
-1.51307
0
LINE
8
BLACK
6
CONTINUOUS
10
4.05435
20
-1.51307
11
4.05921
21
-1.5123
0
LINE
8
BLACK
6
CONTINUOUS
10
4.05921
20
-1.5123
11
4.06408
21
-1.51307
0
LINE
8
BLACK
6
CONTINUOUS
10
5.21162
20
-0.667254
11
5.43264
21
-0.888273
0
LINE
8
BLACK
6
CONTINUOUS
10
5.43264
20
-0.888273
11
5.43316
21
-0.888975
0
LINE
8
BLACK
6
CONTINUOUS
10
5.43316
20
-0.888975
11
5.4333
21
-0.889094
0
LINE
8
BLACK
6
CONTINUOUS
10
5.4333
20
-0.889094
11
5.43333
21
-0.8892
0
LINE
8
BLACK
6
CONTINUOUS
10
5.43333
20
-0.8892
11
5.43348
21
-0.889404
0
LINE
8
BLACK
6
CONTINUOUS
10
5.43348
20
-0.889404
11
5.43374
21
-0.890589
0
LINE
8
BLACK
6
CONTINUOUS
10
5.43374
20
-0.890589
11
5.43408
21
-0.891752
0
LINE
8
BLACK
6
CONTINUOUS
10
5.43408
20
-0.891752
11
5.43408
21
-0.99308
0
LINE
8
BLACK
6
CONTINUOUS
10
5.43408
20
-0.99308
11
5.49725
21
-1.05625
0
LINE
8
BLACK
6
CONTINUOUS
10
5.49725
20
-1.05625
11
5.49778
21
-1.05695
0
LINE
8
BLACK
6
CONTINUOUS
10
5.49778
20
-1.05695
11
5.49791
21
-1.05707
0
LINE
8
BLACK
6
CONTINUOUS
10
5.49791
20
-1.05707
11
5.49794
21
-1.05718
0
LINE
8
BLACK
6
CONTINUOUS
10
5.49794
20
-1.05718
11
5.4981
21
-1.05738
0
LINE
8
BLACK
6
CONTINUOUS
10
5.4981
20
-1.05738
11
5.49835
21
-1.05857
0
LINE
8
BLACK
6
CONTINUOUS
10
5.49835
20
-1.05857
11
5.49869
21
-1.05973
0
LINE
8
BLACK
6
CONTINUOUS
10
5.49869
20
-1.05973
11
5.49869
21
-1.16238
0
LINE
8
BLACK
6
CONTINUOUS
10
5.49869
20
-1.16238
11
5.49857
21
-1.16325
0
LINE
8
BLACK
6
CONTINUOUS
10
5.49857
20
-1.16325
11
5.49858
21
-1.16343
0
LINE
8
BLACK
6
CONTINUOUS
10
5.49858
20
-1.16343
11
5.49853
21
-1.16353
0
LINE
8
BLACK
6
CONTINUOUS
10
5.49853
20
-1.16353
11
5.49849
21
-1.16378
0
LINE
8
BLACK
6
CONTINUOUS
10
5.49849
20
-1.16378
11
5.49783
21
-1.1648
0
LINE
8
BLACK
6
CONTINUOUS
10
5.49783
20
-1.1648
11
5.49725
21
-1.16586
0
LINE
8
BLACK
6
CONTINUOUS
10
5.49725
20
-1.16586
11
5.11831
21
-1.5448
0
LINE
8
BLACK
6
CONTINUOUS
10
5.11831
20
-1.5448
11
5.11761
21
-1.54533
0
LINE
8
BLACK
6
CONTINUOUS
10
5.11761
20
-1.54533
11
5.11749
21
-1.54546
0
LINE
8
BLACK
6
CONTINUOUS
10
5.11749
20
-1.54546
11
5.11739
21
-1.54549
0
LINE
8
BLACK
6
CONTINUOUS
10
5.11739
20
-1.54549
11
5.11718
21
-1.54565
0
LINE
8
BLACK
6
CONTINUOUS
10
5.11718
20
-1.54565
11
5.116
21
-1.5459
0
LINE
8
BLACK
6
CONTINUOUS
10
5.116
20
-1.5459
11
5.11484
21
-1.54624
0
LINE
8
BLACK
6
CONTINUOUS
10
5.11484
20
-1.54624
11
4.97243
21
-1.54624
0
LINE
8
BLACK
6
CONTINUOUS
10
4.97243
20
-1.54624
11
4.97156
21
-1.54612
0
LINE
8
BLACK
6
CONTINUOUS
10
4.97156
20
-1.54612
11
4.97138
21
-1.54613
0
LINE
8
BLACK
6
CONTINUOUS
10
4.97138
20
-1.54613
11
4.97128
21
-1.54608
0
LINE
8
BLACK
6
CONTINUOUS
10
4.97128
20
-1.54608
11
4.97103
21
-1.54604
0
LINE
8
BLACK
6
CONTINUOUS
10
4.97103
20
-1.54604
11
4.97001
21
-1.54538
0
LINE
8
BLACK
6
CONTINUOUS
10
4.97001
20
-1.54538
11
4.96895
21
-1.5448
0
LINE
8
BLACK
6
CONTINUOUS
10
4.96895
20
-1.5448
11
4.81903
21
-1.39489
0
LINE
8
BLACK
6
CONTINUOUS
10
4.81903
20
-1.39489
11
4.60781
21
-1.39489
0
LINE
8
BLACK
6
CONTINUOUS
10
4.60781
20
-1.39489
11
4.49752
21
-1.50518
0
LINE
8
BLACK
6
CONTINUOUS
10
4.49752
20
-1.50518
11
4.49858
21
-1.50727
0
LINE
8
BLACK
6
CONTINUOUS
10
4.49858
20
-1.50727
11
4.49935
21
-1.51213
0
LINE
8
BLACK
6
CONTINUOUS
10
4.49935
20
-1.51213
11
4.49858
21
-1.517
0
LINE
8
BLACK
6
CONTINUOUS
10
4.49858
20
-1.517
11
4.49635
21
-1.52139
0
LINE
8
BLACK
6
CONTINUOUS
10
4.49635
20
-1.52139
11
4.49286
21
-1.52488
0
LINE
8
BLACK
6
CONTINUOUS
10
4.49286
20
-1.52488
11
4.48847
21
-1.52711
0
LINE
8
BLACK
6
CONTINUOUS
10
4.48847
20
-1.52711
11
4.48361
21
-1.52788
0
LINE
8
BLACK
6
CONTINUOUS
10
4.48361
20
-1.52788
11
4.47874
21
-1.52711
0
LINE
8
BLACK
6
CONTINUOUS
10
4.47874
20
-1.52711
11
4.47435
21
-1.52488
0
LINE
8
BLACK
6
CONTINUOUS
10
4.47435
20
-1.52488
11
4.47087
21
-1.52139
0
LINE
8
BLACK
6
CONTINUOUS
10
4.47087
20
-1.52139
11
4.46863
21
-1.517
0
LINE
8
BLACK
6
CONTINUOUS
10
4.46863
20
-1.517
11
4.46786
21
-1.51213
0
LINE
8
BLACK
6
CONTINUOUS
10
4.46786
20
-1.51213
11
4.46863
21
-1.50727
0
LINE
8
BLACK
6
CONTINUOUS
10
4.46863
20
-1.50727
11
4.47087
21
-1.50288
0
LINE
8
BLACK
6
CONTINUOUS
10
4.47087
20
-1.50288
11
4.47435
21
-1.49939
0
LINE
8
BLACK
6
CONTINUOUS
10
4.47435
20
-1.49939
11
4.47874
21
-1.49716
0
LINE
8
BLACK
6
CONTINUOUS
10
4.47874
20
-1.49716
11
4.48361
21
-1.49639
0
LINE
8
BLACK
6
CONTINUOUS
10
4.48361
20
-1.49639
11
4.48847
21
-1.49716
0
LINE
8
BLACK
6
CONTINUOUS
10
4.48847
20
-1.49716
11
4.49056
21
-1.49822
0
LINE
8
BLACK
6
CONTINUOUS
10
4.49056
20
-1.49822
11
4.60229
21
-1.38649
0
LINE
8
BLACK
6
CONTINUOUS
10
4.60229
20
-1.38649
11
4.603
21
-1.38596
0
LINE
8
BLACK
6
CONTINUOUS
10
4.603
20
-1.38596
11
4.60311
21
-1.38583
0
LINE
8
BLACK
6
CONTINUOUS
10
4.60311
20
-1.38583
11
4.60322
21
-1.38579
0
LINE
8
BLACK
6
CONTINUOUS
10
4.60322
20
-1.38579
11
4.60343
21
-1.38564
0
LINE
8
BLACK
6
CONTINUOUS
10
4.60343
20
-1.38564
11
4.60461
21
-1.38539
0
LINE
8
BLACK
6
CONTINUOUS
10
4.60461
20
-1.38539
11
4.60577
21
-1.38505
0
LINE
8
BLACK
6
CONTINUOUS
10
4.60577
20
-1.38505
11
4.82107
21
-1.38505
0
LINE
8
BLACK
6
CONTINUOUS
10
4.82107
20
-1.38505
11
4.82194
21
-1.38517
0
LINE
8
BLACK
6
CONTINUOUS
10
4.82194
20
-1.38517
11
4.82212
21
-1.38516
0
LINE
8
BLACK
6
CONTINUOUS
10
4.82212
20
-1.38516
11
4.82222
21
-1.38521
0
LINE
8
BLACK
6
CONTINUOUS
10
4.82222
20
-1.38521
11
4.82247
21
-1.38525
0
LINE
8
BLACK
6
CONTINUOUS
10
4.82247
20
-1.38525
11
4.82349
21
-1.38591
0
LINE
8
BLACK
6
CONTINUOUS
10
4.82349
20
-1.38591
11
4.82455
21
-1.38649
0
LINE
8
BLACK
6
CONTINUOUS
10
4.82455
20
-1.38649
11
4.97447
21
-1.5364
0
LINE
8
BLACK
6
CONTINUOUS
10
4.97447
20
-1.5364
11
5.1128
21
-1.5364
0
LINE
8
BLACK
6
CONTINUOUS
10
5.1128
20
-1.5364
11
5.48885
21
-1.16035
0
LINE
8
BLACK
6
CONTINUOUS
10
5.48885
20
-1.16035
11
5.48885
21
-1.06177
0
LINE
8
BLACK
6
CONTINUOUS
10
5.48885
20
-1.06177
11
5.42568
21
-0.998598
0
LINE
8
BLACK
6
CONTINUOUS
10
5.42568
20
-0.998598
11
5.42515
21
-0.997896
0
LINE
8
BLACK
6
CONTINUOUS
10
5.42515
20
-0.997896
11
5.42502
21
-0.997777
0
LINE
8
BLACK
6
CONTINUOUS
10
5.42502
20
-0.997777
11
5.42499
21
-0.99767
0
LINE
8
BLACK
6
CONTINUOUS
10
5.42499
20
-0.99767
11
5.42483
21
-0.997466
0
LINE
8
BLACK
6
CONTINUOUS
10
5.42483
20
-0.997466
11
5.42458
21
-0.996281
0
LINE
8
BLACK
6
CONTINUOUS
10
5.42458
20
-0.996281
11
5.42424
21
-0.995118
0
LINE
8
BLACK
6
CONTINUOUS
10
5.42424
20
-0.995118
11
5.42424
21
-0.893791
0
LINE
8
BLACK
6
CONTINUOUS
10
5.42424
20
-0.893791
11
5.20466
21
-0.674213
0
LINE
8
BLACK
6
CONTINUOUS
10
5.20466
20
-0.674213
11
5.13288
21
-0.674213
0
LINE
8
BLACK
6
CONTINUOUS
10
5.13288
20
-0.674213
11
5.13288
21
-0.595473
0
LINE
8
BLACK
6
CONTINUOUS
10
5.13288
20
-0.595473
11
5.21162
21
-0.595473
0
LINE
8
BLACK
6
CONTINUOUS
10
5.21162
20
-0.595473
11
5.21162
21
-0.667254
0
LINE
8
BLACK
6
CONTINUOUS
10
5.05244
20
-1.29572
11
5.05683
21
-1.29795
0
LINE
8
BLACK
6
CONTINUOUS
10
5.05683
20
-1.29795
11
5.06031
21
-1.30144
0
LINE
8
BLACK
6
CONTINUOUS
10
5.06031
20
-1.30144
11
5.06255
21
-1.30583
0
LINE
8
BLACK
6
CONTINUOUS
10
5.06255
20
-1.30583
11
5.06332
21
-1.31069
0
LINE
8
BLACK
6
CONTINUOUS
10
5.06332
20
-1.31069
11
5.06255
21
-1.31556
0
LINE
8
BLACK
6
CONTINUOUS
10
5.06255
20
-1.31556
11
5.06148
21
-1.31765
0
LINE
8
BLACK
6
CONTINUOUS
10
5.06148
20
-1.31765
11
5.07894
21
-1.3351
0
LINE
8
BLACK
6
CONTINUOUS
10
5.07894
20
-1.3351
11
5.07946
21
-1.3358
0
LINE
8
BLACK
6
CONTINUOUS
10
5.07946
20
-1.3358
11
5.0796
21
-1.33592
0
LINE
8
BLACK
6
CONTINUOUS
10
5.0796
20
-1.33592
11
5.07963
21
-1.33603
0
LINE
8
BLACK
6
CONTINUOUS
10
5.07963
20
-1.33603
11
5.07978
21
-1.33623
0
LINE
8
BLACK
6
CONTINUOUS
10
5.07978
20
-1.33623
11
5.08004
21
-1.33742
0
LINE
8
BLACK
6
CONTINUOUS
10
5.08004
20
-1.33742
11
5.08038
21
-1.33858
0
LINE
8
BLACK
6
CONTINUOUS
10
5.08038
20
-1.33858
11
5.08038
21
-1.49096
0
LINE
8
BLACK
6
CONTINUOUS
10
5.08038
20
-1.49096
11
5.08471
21
-1.49316
0
LINE
8
BLACK
6
CONTINUOUS
10
5.08471
20
-1.49316
11
5.0882
21
-1.49665
0
LINE
8
BLACK
6
CONTINUOUS
10
5.0882
20
-1.49665
11
5.09043
21
-1.50104
0
LINE
8
BLACK
6
CONTINUOUS
10
5.09043
20
-1.50104
11
5.0912
21
-1.5059
0
LINE
8
BLACK
6
CONTINUOUS
10
5.0912
20
-1.5059
11
5.09043
21
-1.51077
0
LINE
8
BLACK
6
CONTINUOUS
10
5.09043
20
-1.51077
11
5.0882
21
-1.51516
0
LINE
8
BLACK
6
CONTINUOUS
10
5.0882
20
-1.51516
11
5.08471
21
-1.51865
0
LINE
8
BLACK
6
CONTINUOUS
10
5.08471
20
-1.51865
11
5.08032
21
-1.52088
0
LINE
8
BLACK
6
CONTINUOUS
10
5.08032
20
-1.52088
11
5.07546
21
-1.52165
0
LINE
8
BLACK
6
CONTINUOUS
10
5.07546
20
-1.52165
11
5.07059
21
-1.52088
0
LINE
8
BLACK
6
CONTINUOUS
10
5.07059
20
-1.52088
11
5.0662
21
-1.51865
0
LINE
8
BLACK
6
CONTINUOUS
10
5.0662
20
-1.51865
11
5.06272
21
-1.51516
0
LINE
8
BLACK
6
CONTINUOUS
10
5.06272
20
-1.51516
11
5.06048
21
-1.51077
0
LINE
8
BLACK
6
CONTINUOUS
10
5.06048
20
-1.51077
11
5.05971
21
-1.5059
0
LINE
8
BLACK
6
CONTINUOUS
10
5.05971
20
-1.5059
11
5.06048
21
-1.50104
0
LINE
8
BLACK
6
CONTINUOUS
10
5.06048
20
-1.50104
11
5.06272
21
-1.49665
0
LINE
8
BLACK
6
CONTINUOUS
10
5.06272
20
-1.49665
11
5.0662
21
-1.49316
0
LINE
8
BLACK
6
CONTINUOUS
10
5.0662
20
-1.49316
11
5.07054
21
-1.49096
0
LINE
8
BLACK
6
CONTINUOUS
10
5.07054
20
-1.49096
11
5.07054
21
-1.34062
0
LINE
8
BLACK
6
CONTINUOUS
10
5.07054
20
-1.34062
11
5.05452
21
-1.32461
0
LINE
8
BLACK
6
CONTINUOUS
10
5.05452
20
-1.32461
11
5.05244
21
-1.32567
0
LINE
8
BLACK
6
CONTINUOUS
10
5.05244
20
-1.32567
11
5.04757
21
-1.32644
0
LINE
8
BLACK
6
CONTINUOUS
10
5.04757
20
-1.32644
11
5.0427
21
-1.32567
0
LINE
8
BLACK
6
CONTINUOUS
10
5.0427
20
-1.32567
11
5.03831
21
-1.32344
0
LINE
8
BLACK
6
CONTINUOUS
10
5.03831
20
-1.32344
11
5.03483
21
-1.31995
0
LINE
8
BLACK
6
CONTINUOUS
10
5.03483
20
-1.31995
11
5.03259
21
-1.31556
0
LINE
8
BLACK
6
CONTINUOUS
10
5.03259
20
-1.31556
11
5.03182
21
-1.31069
0
LINE
8
BLACK
6
CONTINUOUS
10
5.03182
20
-1.31069
11
5.03259
21
-1.30583
0
LINE
8
BLACK
6
CONTINUOUS
10
5.03259
20
-1.30583
11
5.03483
21
-1.30144
0
LINE
8
BLACK
6
CONTINUOUS
10
5.03483
20
-1.30144
11
5.03831
21
-1.29795
0
LINE
8
BLACK
6
CONTINUOUS
10
5.03831
20
-1.29795
11
5.0427
21
-1.29572
0
LINE
8
BLACK
6
CONTINUOUS
10
5.0427
20
-1.29572
11
5.04757
21
-1.29495
0
LINE
8
BLACK
6
CONTINUOUS
10
5.04757
20
-1.29495
11
5.05244
21
-1.29572
0
LINE
8
BLACK
6
CONTINUOUS
10
3.93146
20
-1.47369
11
3.93585
21
-1.47593
0
LINE
8
BLACK
6
CONTINUOUS
10
3.93585
20
-1.47593
11
3.93933
21
-1.47941
0
LINE
8
BLACK
6
CONTINUOUS
10
3.93933
20
-1.47941
11
3.94157
21
-1.4838
0
LINE
8
BLACK
6
CONTINUOUS
10
3.94157
20
-1.4838
11
3.94234
21
-1.48867
0
LINE
8
BLACK
6
CONTINUOUS
10
3.94234
20
-1.48867
11
3.94157
21
-1.49354
0
LINE
8
BLACK
6
CONTINUOUS
10
3.94157
20
-1.49354
11
3.94017
21
-1.49629
0
LINE
8
BLACK
6
CONTINUOUS
10
3.94017
20
-1.49629
11
4.01626
21
-1.49629
0
LINE
8
BLACK
6
CONTINUOUS
10
4.01626
20
-1.49629
11
4.01641
21
-1.49536
0
LINE
8
BLACK
6
CONTINUOUS
10
4.01641
20
-1.49536
11
4.01865
21
-1.49097
0
LINE
8
BLACK
6
CONTINUOUS
10
4.01865
20
-1.49097
11
4.02213
21
-1.48748
0
LINE
8
BLACK
6
CONTINUOUS
10
4.02213
20
-1.48748
11
4.02652
21
-1.48525
0
LINE
8
BLACK
6
CONTINUOUS
10
4.02652
20
-1.48525
11
4.03139
21
-1.48448
0
LINE
8
BLACK
6
CONTINUOUS
10
4.03139
20
-1.48448
11
4.03625
21
-1.48525
0
LINE
8
BLACK
6
CONTINUOUS
10
4.03625
20
-1.48525
11
4.04064
21
-1.48748
0
LINE
8
BLACK
6
CONTINUOUS
10
4.04064
20
-1.48748
11
4.04413
21
-1.49097
0
LINE
8
BLACK
6
CONTINUOUS
10
4.04413
20
-1.49097
11
4.04637
21
-1.49536
0
LINE
8
BLACK
6
CONTINUOUS
10
4.04637
20
-1.49536
11
4.04714
21
-1.50022
0
LINE
8
BLACK
6
CONTINUOUS
10
4.04714
20
-1.50022
11
4.04637
21
-1.50509
0
LINE
8
BLACK
6
CONTINUOUS
10
4.04637
20
-1.50509
11
4.04413
21
-1.50948
0
LINE
8
BLACK
6
CONTINUOUS
10
4.04413
20
-1.50948
11
4.04064
21
-1.51296
0
LINE
8
BLACK
6
CONTINUOUS
10
4.04064
20
-1.51296
11
4.03625
21
-1.5152
0
LINE
8
BLACK
6
CONTINUOUS
10
4.03625
20
-1.5152
11
4.03139
21
-1.51597
0
LINE
8
BLACK
6
CONTINUOUS
10
4.03139
20
-1.51597
11
4.02652
21
-1.5152
0
LINE
8
BLACK
6
CONTINUOUS
10
4.02652
20
-1.5152
11
4.02213
21
-1.51296
0
LINE
8
BLACK
6
CONTINUOUS
10
4.02213
20
-1.51296
11
4.01865
21
-1.50948
0
LINE
8
BLACK
6
CONTINUOUS
10
4.01865
20
-1.50948
11
4.01641
21
-1.50509
0
LINE
8
BLACK
6
CONTINUOUS
10
4.01641
20
-1.50509
11
4.01626
21
-1.50416
0
LINE
8
BLACK
6
CONTINUOUS
10
4.01626
20
-1.50416
11
3.93815
21
-1.50416
0
LINE
8
BLACK
6
CONTINUOUS
10
3.93815
20
-1.50416
11
3.93784
21
-1.50406
0
LINE
8
BLACK
6
CONTINUOUS
10
3.93784
20
-1.50406
11
3.93753
21
-1.50411
0
LINE
8
BLACK
6
CONTINUOUS
10
3.93753
20
-1.50411
11
3.93671
21
-1.50369
0
LINE
8
BLACK
6
CONTINUOUS
10
3.93671
20
-1.50369
11
3.93583
21
-1.50341
0
LINE
8
BLACK
6
CONTINUOUS
10
3.93583
20
-1.50341
11
3.93565
21
-1.50315
0
LINE
8
BLACK
6
CONTINUOUS
10
3.93565
20
-1.50315
11
3.93536
21
-1.50301
0
LINE
8
BLACK
6
CONTINUOUS
10
3.93536
20
-1.50301
11
3.93447
21
-1.50211
0
LINE
8
BLACK
6
CONTINUOUS
10
3.93447
20
-1.50211
11
3.93146
21
-1.50365
0
LINE
8
BLACK
6
CONTINUOUS
10
3.93146
20
-1.50365
11
3.92659
21
-1.50442
0
LINE
8
BLACK
6
CONTINUOUS
10
3.92659
20
-1.50442
11
3.92172
21
-1.50365
0
LINE
8
BLACK
6
CONTINUOUS
10
3.92172
20
-1.50365
11
3.91733
21
-1.50141
0
LINE
8
BLACK
6
CONTINUOUS
10
3.91733
20
-1.50141
11
3.91385
21
-1.49793
0
LINE
8
BLACK
6
CONTINUOUS
10
3.91385
20
-1.49793
11
3.91161
21
-1.49354
0
LINE
8
BLACK
6
CONTINUOUS
10
3.91161
20
-1.49354
11
3.91084
21
-1.48867
0
LINE
8
BLACK
6
CONTINUOUS
10
3.91084
20
-1.48867
11
3.91161
21
-1.4838
0
LINE
8
BLACK
6
CONTINUOUS
10
3.91161
20
-1.4838
11
3.91385
21
-1.47941
0
LINE
8
BLACK
6
CONTINUOUS
10
3.91385
20
-1.47941
11
3.91733
21
-1.47593
0
LINE
8
BLACK
6
CONTINUOUS
10
3.91733
20
-1.47593
11
3.92172
21
-1.47369
0
LINE
8
BLACK
6
CONTINUOUS
10
3.92172
20
-1.47369
11
3.92659
21
-1.47292
0
LINE
8
BLACK
6
CONTINUOUS
10
3.92659
20
-1.47292
11
3.93146
21
-1.47369
0
LINE
8
BLACK
6
CONTINUOUS
10
4.01961
20
-1.44959
11
4.024
21
-1.45183
0
LINE
8
BLACK
6
CONTINUOUS
10
4.024
20
-1.45183
11
4.02748
21
-1.45531
0
LINE
8
BLACK
6
CONTINUOUS
10
4.02748
20
-1.45531
11
4.02972
21
-1.4597
0
LINE
8
BLACK
6
CONTINUOUS
10
4.02972
20
-1.4597
11
4.03049
21
-1.46457
0
LINE
8
BLACK
6
CONTINUOUS
10
4.03049
20
-1.46457
11
4.02972
21
-1.46943
0
LINE
8
BLACK
6
CONTINUOUS
10
4.02972
20
-1.46943
11
4.02748
21
-1.47382
0
LINE
8
BLACK
6
CONTINUOUS
10
4.02748
20
-1.47382
11
4.024
21
-1.47731
0
LINE
8
BLACK
6
CONTINUOUS
10
4.024
20
-1.47731
11
4.01961
21
-1.47954
0
LINE
8
BLACK
6
CONTINUOUS
10
4.01961
20
-1.47954
11
4.01474
21
-1.48031
0
LINE
8
BLACK
6
CONTINUOUS
10
4.01474
20
-1.48031
11
4.00988
21
-1.47954
0
LINE
8
BLACK
6
CONTINUOUS
10
4.00988
20
-1.47954
11
4.00549
21
-1.47731
0
LINE
8
BLACK
6
CONTINUOUS
10
4.00549
20
-1.47731
11
4.002
21
-1.47382
0
LINE
8
BLACK
6
CONTINUOUS
10
4.002
20
-1.47382
11
3.99977
21
-1.46943
0
LINE
8
BLACK
6
CONTINUOUS
10
3.99977
20
-1.46943
11
3.99962
21
-1.4685
0
LINE
8
BLACK
6
CONTINUOUS
10
3.99962
20
-1.4685
11
3.97282
21
-1.4685
0
LINE
8
BLACK
6
CONTINUOUS
10
3.97282
20
-1.4685
11
3.97267
21
-1.46943
0
LINE
8
BLACK
6
CONTINUOUS
10
3.97267
20
-1.46943
11
3.97044
21
-1.47382
0
LINE
8
BLACK
6
CONTINUOUS
10
3.97044
20
-1.47382
11
3.96695
21
-1.47731
0
LINE
8
BLACK
6
CONTINUOUS
10
3.96695
20
-1.47731
11
3.96256
21
-1.47954
0
LINE
8
BLACK
6
CONTINUOUS
10
3.96256
20
-1.47954
11
3.9577
21
-1.48031
0
LINE
8
BLACK
6
CONTINUOUS
10
3.9577
20
-1.48031
11
3.95283
21
-1.47954
0
LINE
8
BLACK
6
CONTINUOUS
10
3.95283
20
-1.47954
11
3.94844
21
-1.47731
0
LINE
8
BLACK
6
CONTINUOUS
10
3.94844
20
-1.47731
11
3.94496
21
-1.47382
0
LINE
8
BLACK
6
CONTINUOUS
10
3.94496
20
-1.47382
11
3.94272
21
-1.46943
0
LINE
8
BLACK
6
CONTINUOUS
10
3.94272
20
-1.46943
11
3.94195
21
-1.46457
0
LINE
8
BLACK
6
CONTINUOUS
10
3.94195
20
-1.46457
11
3.94272
21
-1.4597
0
LINE
8
BLACK
6
CONTINUOUS
10
3.94272
20
-1.4597
11
3.94496
21
-1.45531
0
LINE
8
BLACK
6
CONTINUOUS
10
3.94496
20
-1.45531
11
3.94844
21
-1.45183
0
LINE
8
BLACK
6
CONTINUOUS
10
3.94844
20
-1.45183
11
3.95283
21
-1.44959
0
LINE
8
BLACK
6
CONTINUOUS
10
3.95283
20
-1.44959
11
3.9577
21
-1.44882
0
LINE
8
BLACK
6
CONTINUOUS
10
3.9577
20
-1.44882
11
3.96256
21
-1.44959
0
LINE
8
BLACK
6
CONTINUOUS
10
3.96256
20
-1.44959
11
3.96695
21
-1.45183
0
LINE
8
BLACK
6
CONTINUOUS
10
3.96695
20
-1.45183
11
3.97044
21
-1.45531
0
LINE
8
BLACK
6
CONTINUOUS
10
3.97044
20
-1.45531
11
3.97267
21
-1.4597
0
LINE
8
BLACK
6
CONTINUOUS
10
3.97267
20
-1.4597
11
3.97282
21
-1.46063
0
LINE
8
BLACK
6
CONTINUOUS
10
3.97282
20
-1.46063
11
3.99962
21
-1.46063
0
LINE
8
BLACK
6
CONTINUOUS
10
3.99962
20
-1.46063
11
3.99977
21
-1.4597
0
LINE
8
BLACK
6
CONTINUOUS
10
3.99977
20
-1.4597
11
4.002
21
-1.45531
0
LINE
8
BLACK
6
CONTINUOUS
10
4.002
20
-1.45531
11
4.00549
21
-1.45183
0
LINE
8
BLACK
6
CONTINUOUS
10
4.00549
20
-1.45183
11
4.00988
21
-1.44959
0
LINE
8
BLACK
6
CONTINUOUS
10
4.00988
20
-1.44959
11
4.01474
21
-1.44882
0
LINE
8
BLACK
6
CONTINUOUS
10
4.01474
20
-1.44882
11
4.01961
21
-1.44959
0
LINE
8
BLACK
6
CONTINUOUS
10
4.02061
20
-1.40727
11
4.025
21
-1.4095
0
LINE
8
BLACK
6
CONTINUOUS
10
4.025
20
-1.4095
11
4.02849
21
-1.41299
0
LINE
8
BLACK
6
CONTINUOUS
10
4.02849
20
-1.41299
11
4.03072
21
-1.41738
0
LINE
8
BLACK
6
CONTINUOUS
10
4.03072
20
-1.41738
11
4.03149
21
-1.42224
0
LINE
8
BLACK
6
CONTINUOUS
10
4.03149
20
-1.42224
11
4.03072
21
-1.42711
0
LINE
8
BLACK
6
CONTINUOUS
10
4.03072
20
-1.42711
11
4.02849
21
-1.4315
0
LINE
8
BLACK
6
CONTINUOUS
10
4.02849
20
-1.4315
11
4.025
21
-1.43498
0
LINE
8
BLACK
6
CONTINUOUS
10
4.025
20
-1.43498
11
4.02061
21
-1.43722
0
LINE
8
BLACK
6
CONTINUOUS
10
4.02061
20
-1.43722
11
4.01575
21
-1.43799
0
LINE
8
BLACK
6
CONTINUOUS
10
4.01575
20
-1.43799
11
4.01088
21
-1.43722
0
LINE
8
BLACK
6
CONTINUOUS
10
4.01088
20
-1.43722
11
4.00649
21
-1.43498
0
LINE
8
BLACK
6
CONTINUOUS
10
4.00649
20
-1.43498
11
4.00301
21
-1.4315
0
LINE
8
BLACK
6
CONTINUOUS
10
4.00301
20
-1.4315
11
4.0008
21
-1.42716
0
LINE
8
BLACK
6
CONTINUOUS
10
4.0008
20
-1.42716
11
3.94703
21
-1.42716
0
LINE
8
BLACK
6
CONTINUOUS
10
3.94703
20
-1.42716
11
3.94483
21
-1.4315
0
LINE
8
BLACK
6
CONTINUOUS
10
3.94483
20
-1.4315
11
3.94134
21
-1.43498
0
LINE
8
BLACK
6
CONTINUOUS
10
3.94134
20
-1.43498
11
3.93695
21
-1.43722
0
LINE
8
BLACK
6
CONTINUOUS
10
3.93695
20
-1.43722
11
3.93208
21
-1.43799
0
LINE
8
BLACK
6
CONTINUOUS
10
3.93208
20
-1.43799
11
3.92722
21
-1.43722
0
LINE
8
BLACK
6
CONTINUOUS
10
3.92722
20
-1.43722
11
3.92283
21
-1.43498
0
LINE
8
BLACK
6
CONTINUOUS
10
3.92283
20
-1.43498
11
3.91934
21
-1.4315
0
LINE
8
BLACK
6
CONTINUOUS
10
3.91934
20
-1.4315
11
3.91711
21
-1.42711
0
LINE
8
BLACK
6
CONTINUOUS
10
3.91711
20
-1.42711
11
3.91634
21
-1.42224
0
LINE
8
BLACK
6
CONTINUOUS
10
3.91634
20
-1.42224
11
3.91711
21
-1.41738
0
LINE
8
BLACK
6
CONTINUOUS
10
3.91711
20
-1.41738
11
3.91934
21
-1.41299
0
LINE
8
BLACK
6
CONTINUOUS
10
3.91934
20
-1.41299
11
3.92283
21
-1.4095
0
LINE
8
BLACK
6
CONTINUOUS
10
3.92283
20
-1.4095
11
3.92722
21
-1.40727
0
LINE
8
BLACK
6
CONTINUOUS
10
3.92722
20
-1.40727
11
3.93208
21
-1.4065
0
LINE
8
BLACK
6
CONTINUOUS
10
3.93208
20
-1.4065
11
3.93695
21
-1.40727
0
LINE
8
BLACK
6
CONTINUOUS
10
3.93695
20
-1.40727
11
3.94134
21
-1.4095
0
LINE
8
BLACK
6
CONTINUOUS
10
3.94134
20
-1.4095
11
3.94483
21
-1.41299
0
LINE
8
BLACK
6
CONTINUOUS
10
3.94483
20
-1.41299
11
3.94703
21
-1.41732
0
LINE
8
BLACK
6
CONTINUOUS
10
3.94703
20
-1.41732
11
4.0008
21
-1.41732
0
LINE
8
BLACK
6
CONTINUOUS
10
4.0008
20
-1.41732
11
4.00301
21
-1.41299
0
LINE
8
BLACK
6
CONTINUOUS
10
4.00301
20
-1.41299
11
4.00649
21
-1.4095
0
LINE
8
BLACK
6
CONTINUOUS
10
4.00649
20
-1.4095
11
4.01088
21
-1.40727
0
LINE
8
BLACK
6
CONTINUOUS
10
4.01088
20
-1.40727
11
4.01575
21
-1.4065
0
LINE
8
BLACK
6
CONTINUOUS
10
4.01575
20
-1.4065
11
4.02061
21
-1.40727
0
LINE
8
BLACK
6
CONTINUOUS
10
4.14067
20
-1.17479
11
4.14506
21
-1.17702
0
LINE
8
BLACK
6
CONTINUOUS
10
4.14506
20
-1.17702
11
4.14855
21
-1.18051
0
LINE
8
BLACK
6
CONTINUOUS
10
4.14855
20
-1.18051
11
4.15078
21
-1.1849
0
LINE
8
BLACK
6
CONTINUOUS
10
4.15078
20
-1.1849
11
4.15155
21
-1.18976
0
LINE
8
BLACK
6
CONTINUOUS
10
4.15155
20
-1.18976
11
4.15078
21
-1.19463
0
LINE
8
BLACK
6
CONTINUOUS
10
4.15078
20
-1.19463
11
4.14855
21
-1.19902
0
LINE
8
BLACK
6
CONTINUOUS
10
4.14855
20
-1.19902
11
4.14506
21
-1.2025
0
LINE
8
BLACK
6
CONTINUOUS
10
4.14506
20
-1.2025
11
4.14073
21
-1.20471
0
LINE
8
BLACK
6
CONTINUOUS
10
4.14073
20
-1.20471
11
4.14073
21
-1.37757
0
LINE
8
BLACK
6
CONTINUOUS
10
4.14073
20
-1.37757
11
4.1406
21
-1.37844
0
LINE
8
BLACK
6
CONTINUOUS
10
4.1406
20
-1.37844
11
4.14061
21
-1.37862
0
LINE
8
BLACK
6
CONTINUOUS
10
4.14061
20
-1.37862
11
4.14056
21
-1.37872
0
LINE
8
BLACK
6
CONTINUOUS
10
4.14056
20
-1.37872
11
4.14052
21
-1.37897
0
LINE
8
BLACK
6
CONTINUOUS
10
4.14052
20
-1.37897
11
4.13987
21
-1.37999
0
LINE
8
BLACK
6
CONTINUOUS
10
4.13987
20
-1.37999
11
4.13929
21
-1.38105
0
LINE
8
BLACK
6
CONTINUOUS
10
4.13929
20
-1.38105
11
4.09819
21
-1.42215
0
LINE
8
BLACK
6
CONTINUOUS
10
4.09819
20
-1.42215
11
4.0978
21
-1.42461
0
LINE
8
BLACK
6
CONTINUOUS
10
4.0978
20
-1.42461
11
4.09556
21
-1.429
0
LINE
8
BLACK
6
CONTINUOUS
10
4.09556
20
-1.429
11
4.09208
21
-1.43248
0
LINE
8
BLACK
6
CONTINUOUS
10
4.09208
20
-1.43248
11
4.08769
21
-1.43472
0
LINE
8
BLACK
6
CONTINUOUS
10
4.08769
20
-1.43472
11
4.08282
21
-1.43549
0
LINE
8
BLACK
6
CONTINUOUS
10
4.08282
20
-1.43549
11
4.07795
21
-1.43472
0
LINE
8
BLACK
6
CONTINUOUS
10
4.07795
20
-1.43472
11
4.07356
21
-1.43248
0
LINE
8
BLACK
6
CONTINUOUS
10
4.07356
20
-1.43248
11
4.07008
21
-1.429
0
LINE
8
BLACK
6
CONTINUOUS
10
4.07008
20
-1.429
11
4.06784
21
-1.42461
0
LINE
8
BLACK
6
CONTINUOUS
10
4.06784
20
-1.42461
11
4.06707
21
-1.41974
0
LINE
8
BLACK
6
CONTINUOUS
10
4.06707
20
-1.41974
11
4.06784
21
-1.41488
0
LINE
8
BLACK
6
CONTINUOUS
10
4.06784
20
-1.41488
11
4.07008
21
-1.41049
0
LINE
8
BLACK
6
CONTINUOUS
10
4.07008
20
-1.41049
11
4.07356
21
-1.407
0
LINE
8
BLACK
6
CONTINUOUS
10
4.07356
20
-1.407
11
4.07795
21
-1.40477
0
LINE
8
BLACK
6
CONTINUOUS
10
4.07795
20
-1.40477
11
4.08282
21
-1.404
0
LINE
8
BLACK
6
CONTINUOUS
10
4.08282
20
-1.404
11
4.08769
21
-1.40477
0
LINE
8
BLACK
6
CONTINUOUS
10
4.08769
20
-1.40477
11
4.09208
21
-1.407
0
LINE
8
BLACK
6
CONTINUOUS
10
4.09208
20
-1.407
11
4.09556
21
-1.41049
0
LINE
8
BLACK
6
CONTINUOUS
10
4.09556
20
-1.41049
11
4.09568
21
-1.41073
0
LINE
8
BLACK
6
CONTINUOUS
10
4.09568
20
-1.41073
11
4.13088
21
-1.37554
0
LINE
8
BLACK
6
CONTINUOUS
10
4.13088
20
-1.37554
11
4.13088
21
-1.20471
0
LINE
8
BLACK
6
CONTINUOUS
10
4.13088
20
-1.20471
11
4.12655
21
-1.2025
0
LINE
8
BLACK
6
CONTINUOUS
10
4.12655
20
-1.2025
11
4.12306
21
-1.19902
0
LINE
8
BLACK
6
CONTINUOUS
10
4.12306
20
-1.19902
11
4.12083
21
-1.19463
0
LINE
8
BLACK
6
CONTINUOUS
10
4.12083
20
-1.19463
11
4.12006
21
-1.18976
0
LINE
8
BLACK
6
CONTINUOUS
10
4.12006
20
-1.18976
11
4.12083
21
-1.1849
0
LINE
8
BLACK
6
CONTINUOUS
10
4.12083
20
-1.1849
11
4.12306
21
-1.18051
0
LINE
8
BLACK
6
CONTINUOUS
10
4.12306
20
-1.18051
11
4.12655
21
-1.17702
0
LINE
8
BLACK
6
CONTINUOUS
10
4.12655
20
-1.17702
11
4.13094
21
-1.17479
0
LINE
8
BLACK
6
CONTINUOUS
10
4.13094
20
-1.17479
11
4.13581
21
-1.17402
0
LINE
8
BLACK
6
CONTINUOUS
10
4.13581
20
-1.17402
11
4.14067
21
-1.17479
0
LINE
8
BLACK
6
CONTINUOUS
10
4.64109
20
-1.33935
11
4.64548
21
-1.34159
0
LINE
8
BLACK
6
CONTINUOUS
10
4.64548
20
-1.34159
11
4.64896
21
-1.34507
0
LINE
8
BLACK
6
CONTINUOUS
10
4.64896
20
-1.34507
11
4.6512
21
-1.34946
0
LINE
8
BLACK
6
CONTINUOUS
10
4.6512
20
-1.34946
11
4.65197
21
-1.35433
0
LINE
8
BLACK
6
CONTINUOUS
10
4.65197
20
-1.35433
11
4.6512
21
-1.3592
0
LINE
8
BLACK
6
CONTINUOUS
10
4.6512
20
-1.3592
11
4.64896
21
-1.36359
0
LINE
8
BLACK
6
CONTINUOUS
10
4.64896
20
-1.36359
11
4.64548
21
-1.36707
0
LINE
8
BLACK
6
CONTINUOUS
10
4.64548
20
-1.36707
11
4.64109
21
-1.36931
0
LINE
8
BLACK
6
CONTINUOUS
10
4.64109
20
-1.36931
11
4.63622
21
-1.37008
0
LINE
8
BLACK
6
CONTINUOUS
10
4.63622
20
-1.37008
11
4.63136
21
-1.36931
0
LINE
8
BLACK
6
CONTINUOUS
10
4.63136
20
-1.36931
11
4.62773
21
-1.36746
0
LINE
8
BLACK
6
CONTINUOUS
10
4.62773
20
-1.36746
11
4.62746
21
-1.3676
0
LINE
8
BLACK
6
CONTINUOUS
10
4.62746
20
-1.3676
11
4.62714
21
-1.36755
0
LINE
8
BLACK
6
CONTINUOUS
10
4.62714
20
-1.36755
11
4.62684
21
-1.36765
0
LINE
8
BLACK
6
CONTINUOUS
10
4.62684
20
-1.36765
11
4.57569
21
-1.36765
0
LINE
8
BLACK
6
CONTINUOUS
10
4.57569
20
-1.36765
11
4.57554
21
-1.36858
0
LINE
8
BLACK
6
CONTINUOUS
10
4.57554
20
-1.36858
11
4.57331
21
-1.37297
0
LINE
8
BLACK
6
CONTINUOUS
10
4.57331
20
-1.37297
11
4.56982
21
-1.37646
0
LINE
8
BLACK
6
CONTINUOUS
10
4.56982
20
-1.37646
11
4.56543
21
-1.37869
0
LINE
8
BLACK
6
CONTINUOUS
10
4.56543
20
-1.37869
11
4.56057
21
-1.37946
0
LINE
8
BLACK
6
CONTINUOUS
10
4.56057
20
-1.37946
11
4.5557
21
-1.37869
0
LINE
8
BLACK
6
CONTINUOUS
10
4.5557
20
-1.37869
11
4.55131
21
-1.37646
0
LINE
8
BLACK
6
CONTINUOUS
10
4.55131
20
-1.37646
11
4.54783
21
-1.37297
0
LINE
8
BLACK
6
CONTINUOUS
10
4.54783
20
-1.37297
11
4.54559
21
-1.36858
0
LINE
8
BLACK
6
CONTINUOUS
10
4.54559
20
-1.36858
11
4.54482
21
-1.36372
0
LINE
8
BLACK
6
CONTINUOUS
10
4.54482
20
-1.36372
11
4.54559
21
-1.35885
0
LINE
8
BLACK
6
CONTINUOUS
10
4.54559
20
-1.35885
11
4.54783
21
-1.35446
0
LINE
8
BLACK
6
CONTINUOUS
10
4.54783
20
-1.35446
11
4.55131
21
-1.35097
0
LINE
8
BLACK
6
CONTINUOUS
10
4.55131
20
-1.35097
11
4.5557
21
-1.34874
0
LINE
8
BLACK
6
CONTINUOUS
10
4.5557
20
-1.34874
11
4.56057
21
-1.34797
0
LINE
8
BLACK
6
CONTINUOUS
10
4.56057
20
-1.34797
11
4.56543
21
-1.34874
0
LINE
8
BLACK
6
CONTINUOUS
10
4.56543
20
-1.34874
11
4.56982
21
-1.35097
0
LINE
8
BLACK
6
CONTINUOUS
10
4.56982
20
-1.35097
11
4.57331
21
-1.35446
0
LINE
8
BLACK
6
CONTINUOUS
10
4.57331
20
-1.35446
11
4.57554
21
-1.35885
0
LINE
8
BLACK
6
CONTINUOUS
10
4.57554
20
-1.35885
11
4.57569
21
-1.35978
0
LINE
8
BLACK
6
CONTINUOUS
10
4.57569
20
-1.35978
11
4.62154
21
-1.35978
0
LINE
8
BLACK
6
CONTINUOUS
10
4.62154
20
-1.35978
11
4.62125
21
-1.3592
0
LINE
8
BLACK
6
CONTINUOUS
10
4.62125
20
-1.3592
11
4.62048
21
-1.35433
0
LINE
8
BLACK
6
CONTINUOUS
10
4.62048
20
-1.35433
11
4.62125
21
-1.34946
0
LINE
8
BLACK
6
CONTINUOUS
10
4.62125
20
-1.34946
11
4.62348
21
-1.34507
0
LINE
8
BLACK
6
CONTINUOUS
10
4.62348
20
-1.34507
11
4.62697
21
-1.34159
0
LINE
8
BLACK
6
CONTINUOUS
10
4.62697
20
-1.34159
11
4.63136
21
-1.33935
0
LINE
8
BLACK
6
CONTINUOUS
10
4.63136
20
-1.33935
11
4.63622
21
-1.33858
0
LINE
8
BLACK
6
CONTINUOUS
10
4.63622
20
-1.33858
11
4.64109
21
-1.33935
0
LINE
8
BLACK
6
CONTINUOUS
10
4.21111
20
-0.750413
11
4.21646
21
-0.752012
0
LINE
8
BLACK
6
CONTINUOUS
10
4.21646
20
-0.752012
11
4.22114
21
-0.755048
0
LINE
8
BLACK
6
CONTINUOUS
10
4.22114
20
-0.755048
11
4.22478
21
-0.759276
0
LINE
8
BLACK
6
CONTINUOUS
10
4.22478
20
-0.759276
11
4.22709
21
-0.764357
0
LINE
8
BLACK
6
CONTINUOUS
10
4.22709
20
-0.764357
11
4.22789
21
-0.769882
0
LINE
8
BLACK
6
CONTINUOUS
10
4.22789
20
-0.769882
11
4.22789
21
-0.813189
0
LINE
8
BLACK
6
CONTINUOUS
10
4.22789
20
-0.813189
11
4.22788
21
-0.813429
0
LINE
8
BLACK
6
CONTINUOUS
10
4.22788
20
-0.813429
11
4.22702
21
-0.818944
0
LINE
8
BLACK
6
CONTINUOUS
10
4.22702
20
-0.818944
11
4.22465
21
-0.823996
0
LINE
8
BLACK
6
CONTINUOUS
10
4.22465
20
-0.823996
11
4.22096
21
-0.82818
0
LINE
8
BLACK
6
CONTINUOUS
10
4.22096
20
-0.82818
11
4.21624
21
-0.831158
0
LINE
8
BLACK
6
CONTINUOUS
10
4.21624
20
-0.831158
11
4.21312
21
-0.832049
0
LINE
8
BLACK
6
CONTINUOUS
10
4.21312
20
-0.832049
11
4.21312
21
-0.941518
0
LINE
8
BLACK
6
CONTINUOUS
10
4.21312
20
-0.941518
11
4.21589
21
-0.944287
0
LINE
8
BLACK
6
CONTINUOUS
10
4.21589
20
-0.944287
11
4.21813
21
-0.948677
0
LINE
8
BLACK
6
CONTINUOUS
10
4.21813
20
-0.948677
11
4.2189
21
-0.953543
0
LINE
8
BLACK
6
CONTINUOUS
10
4.2189
20
-0.953543
11
4.21813
21
-0.95841
0
LINE
8
BLACK
6
CONTINUOUS
10
4.21813
20
-0.95841
11
4.21589
21
-0.9628
0
LINE
8
BLACK
6
CONTINUOUS
10
4.21589
20
-0.9628
11
4.21241
21
-0.966284
0
LINE
8
BLACK
6
CONTINUOUS
10
4.21241
20
-0.966284
11
4.20802
21
-0.968521
0
LINE
8
BLACK
6
CONTINUOUS
10
4.20802
20
-0.968521
11
4.20315
21
-0.969291
0
LINE
8
BLACK
6
CONTINUOUS
10
4.20315
20
-0.969291
11
4.19828
21
-0.968521
0
LINE
8
BLACK
6
CONTINUOUS
10
4.19828
20
-0.968521
11
4.1962
21
-0.967457
0
LINE
8
BLACK
6
CONTINUOUS
10
4.1962
20
-0.967457
11
4.18803
21
-0.975624
0
LINE
8
BLACK
6
CONTINUOUS
10
4.18803
20
-0.975624
11
4.18803
21
-1.01059
0
LINE
8
BLACK
6
CONTINUOUS
10
4.18803
20
-1.01059
11
4.1879
21
-1.01146
0
LINE
8
BLACK
6
CONTINUOUS
10
4.1879
20
-1.01146
11
4.18792
21
-1.01164
0
LINE
8
BLACK
6
CONTINUOUS
10
4.18792
20
-1.01164
11
4.18786
21
-1.01174
0
LINE
8
BLACK
6
CONTINUOUS
10
4.18786
20
-1.01174
11
4.18783
21
-1.01199
0
LINE
8
BLACK
6
CONTINUOUS
10
4.18783
20
-1.01199
11
4.18717
21
-1.01301
0
LINE
8
BLACK
6
CONTINUOUS
10
4.18717
20
-1.01301
11
4.18659
21
-1.01407
0
LINE
8
BLACK
6
CONTINUOUS
10
4.18659
20
-1.01407
11
4.09547
21
-1.10519
0
LINE
8
BLACK
6
CONTINUOUS
10
4.09547
20
-1.10519
11
4.09547
21
-1.27542
0
LINE
8
BLACK
6
CONTINUOUS
10
4.09547
20
-1.27542
11
4.09981
21
-1.27763
0
LINE
8
BLACK
6
CONTINUOUS
10
4.09981
20
-1.27763
11
4.10329
21
-1.28112
0
LINE
8
BLACK
6
CONTINUOUS
10
4.10329
20
-1.28112
11
4.10553
21
-1.28551
0
LINE
8
BLACK
6
CONTINUOUS
10
4.10553
20
-1.28551
11
4.1063
21
-1.29037
0
LINE
8
BLACK
6
CONTINUOUS
10
4.1063
20
-1.29037
11
4.10553
21
-1.29524
0
LINE
8
BLACK
6
CONTINUOUS
10
4.10553
20
-1.29524
11
4.10329
21
-1.29963
0
LINE
8
BLACK
6
CONTINUOUS
10
4.10329
20
-1.29963
11
4.09981
21
-1.30311
0
LINE
8
BLACK
6
CONTINUOUS
10
4.09981
20
-1.30311
11
4.09542
21
-1.30535
0
LINE
8
BLACK
6
CONTINUOUS
10
4.09542
20
-1.30535
11
4.09055
21
-1.30612
0
LINE
8
BLACK
6
CONTINUOUS
10
4.09055
20
-1.30612
11
4.09055
21
-1.3323
0
LINE
8
BLACK
6
CONTINUOUS
10
4.09055
20
-1.3323
11
4.09148
21
-1.33244
0
LINE
8
BLACK
6
CONTINUOUS
10
4.09148
20
-1.33244
11
4.09587
21
-1.33468
0
LINE
8
BLACK
6
CONTINUOUS
10
4.09587
20
-1.33468
11
4.09935
21
-1.33816
0
LINE
8
BLACK
6
CONTINUOUS
10
4.09935
20
-1.33816
11
4.10159
21
-1.34255
0
LINE
8
BLACK
6
CONTINUOUS
10
4.10159
20
-1.34255
11
4.10236
21
-1.34742
0
LINE
8
BLACK
6
CONTINUOUS
10
4.10236
20
-1.34742
11
4.10159
21
-1.35229
0
LINE
8
BLACK
6
CONTINUOUS
10
4.10159
20
-1.35229
11
4.09935
21
-1.35668
0
LINE
8
BLACK
6
CONTINUOUS
10
4.09935
20
-1.35668
11
4.09587
21
-1.36016
0
LINE
8
BLACK
6
CONTINUOUS
10
4.09587
20
-1.36016
11
4.09148
21
-1.3624
0
LINE
8
BLACK
6
CONTINUOUS
10
4.09148
20
-1.3624
11
4.08661
21
-1.36317
0
LINE
8
BLACK
6
CONTINUOUS
10
4.08661
20
-1.36317
11
4.08175
21
-1.3624
0
LINE
8
BLACK
6
CONTINUOUS
10
4.08175
20
-1.3624
11
4.07736
21
-1.36016
0
LINE
8
BLACK
6
CONTINUOUS
10
4.07736
20
-1.36016
11
4.07387
21
-1.35668
0
LINE
8
BLACK
6
CONTINUOUS
10
4.07387
20
-1.35668
11
4.07164
21
-1.35229
0
LINE
8
BLACK
6
CONTINUOUS
10
4.07164
20
-1.35229
11
4.07087
21
-1.34742
0
LINE
8
BLACK
6
CONTINUOUS
10
4.07087
20
-1.34742
11
4.07164
21
-1.34255
0
LINE
8
BLACK
6
CONTINUOUS
10
4.07164
20
-1.34255
11
4.07387
21
-1.33816
0
LINE
8
BLACK
6
CONTINUOUS
10
4.07387
20
-1.33816
11
4.07736
21
-1.33468
0
LINE
8
BLACK
6
CONTINUOUS
10
4.07736
20
-1.33468
11
4.08175
21
-1.33244
0
LINE
8
BLACK
6
CONTINUOUS
10
4.08175
20
-1.33244
11
4.08268
21
-1.3323
0
LINE
8
BLACK
6
CONTINUOUS
10
4.08268
20
-1.3323
11
4.08268
21
-1.30382
0
LINE
8
BLACK
6
CONTINUOUS
10
4.08268
20
-1.30382
11
4.08129
21
-1.30311
0
LINE
8
BLACK
6
CONTINUOUS
10
4.08129
20
-1.30311
11
4.07781
21
-1.29963
0
LINE
8
BLACK
6
CONTINUOUS
10
4.07781
20
-1.29963
11
4.07557
21
-1.29524
0
LINE
8
BLACK
6
CONTINUOUS
10
4.07557
20
-1.29524
11
4.0748
21
-1.29037
0
LINE
8
BLACK
6
CONTINUOUS
10
4.0748
20
-1.29037
11
4.07557
21
-1.28551
0
LINE
8
BLACK
6
CONTINUOUS
10
4.07557
20
-1.28551
11
4.07781
21
-1.28112
0
LINE
8
BLACK
6
CONTINUOUS
10
4.07781
20
-1.28112
11
4.08129
21
-1.27763
0
LINE
8
BLACK
6
CONTINUOUS
10
4.08129
20
-1.27763
11
4.08563
21
-1.27542
0
LINE
8
BLACK
6
CONTINUOUS
10
4.08563
20
-1.27542
11
4.08563
21
-1.10315
0
LINE
8
BLACK
6
CONTINUOUS
10
4.08563
20
-1.10315
11
4.08576
21
-1.10228
0
LINE
8
BLACK
6
CONTINUOUS
10
4.08576
20
-1.10228
11
4.08574
21
-1.1021
0
LINE
8
BLACK
6
CONTINUOUS
10
4.08574
20
-1.1021
11
4.0858
21
-1.102
0
LINE
8
BLACK
6
CONTINUOUS
10
4.0858
20
-1.102
11
4.08583
21
-1.10175
0
LINE
8
BLACK
6
CONTINUOUS
10
4.08583
20
-1.10175
11
4.08649
21
-1.10073
0
LINE
8
BLACK
6
CONTINUOUS
10
4.08649
20
-1.10073
11
4.08707
21
-1.09967
0
LINE
8
BLACK
6
CONTINUOUS
10
4.08707
20
-1.09967
11
4.17819
21
-1.00855
0
LINE
8
BLACK
6
CONTINUOUS
10
4.17819
20
-1.00855
11
4.17819
21
-0.973585
0
LINE
8
BLACK
6
CONTINUOUS
10
4.17819
20
-0.973585
11
4.17831
21
-0.972718
0
LINE
8
BLACK
6
CONTINUOUS
10
4.17831
20
-0.972718
11
4.1783
21
-0.972537
0
LINE
8
BLACK
6
CONTINUOUS
10
4.1783
20
-0.972537
11
4.17835
21
-0.97244
0
LINE
8
BLACK
6
CONTINUOUS
10
4.17835
20
-0.97244
11
4.17839
21
-0.972188
0
LINE
8
BLACK
6
CONTINUOUS
10
4.17839
20
-0.972188
11
4.17905
21
-0.971169
0
LINE
8
BLACK
6
CONTINUOUS
10
4.17905
20
-0.971169
11
4.17963
21
-0.970105
0
LINE
8
BLACK
6
CONTINUOUS
10
4.17963
20
-0.970105
11
4.18924
21
-0.960497
0
LINE
8
BLACK
6
CONTINUOUS
10
4.18924
20
-0.960497
11
4.18817
21
-0.95841
0
LINE
8
BLACK
6
CONTINUOUS
10
4.18817
20
-0.95841
11
4.1874
21
-0.953543
0
LINE
8
BLACK
6
CONTINUOUS
10
4.1874
20
-0.953543
11
4.18817
21
-0.948677
0
LINE
8
BLACK
6
CONTINUOUS
10
4.18817
20
-0.948677
11
4.19041
21
-0.944287
0
LINE
8
BLACK
6
CONTINUOUS
10
4.19041
20
-0.944287
11
4.19389
21
-0.940803
0
LINE
8
BLACK
6
CONTINUOUS
10
4.19389
20
-0.940803
11
4.19828
21
-0.938566
0
LINE
8
BLACK
6
CONTINUOUS
10
4.19828
20
-0.938566
11
4.20315
21
-0.937795
0
LINE
8
BLACK
6
CONTINUOUS
10
4.20315
20
-0.937795
11
4.20328
21
-0.937816
0
LINE
8
BLACK
6
CONTINUOUS
10
4.20328
20
-0.937816
11
4.20328
21
-0.832056
0
LINE
8
BLACK
6
CONTINUOUS
10
4.20328
20
-0.832056
11
4.19994
21
-0.831058
0
LINE
8
BLACK
6
CONTINUOUS
10
4.19994
20
-0.831058
11
4.19526
21
-0.828023
0
LINE
8
BLACK
6
CONTINUOUS
10
4.19526
20
-0.828023
11
4.19162
21
-0.823794
0
LINE
8
BLACK
6
CONTINUOUS
10
4.19162
20
-0.823794
11
4.18931
21
-0.818714
0
LINE
8
BLACK
6
CONTINUOUS
10
4.18931
20
-0.818714
11
4.18851
21
-0.813189
0
LINE
8
BLACK
6
CONTINUOUS
10
4.18851
20
-0.813189
11
4.18851
21
-0.769882
0
LINE
8
BLACK
6
CONTINUOUS
10
4.18851
20
-0.769882
11
4.18852
21
-0.769641
0
LINE
8
BLACK
6
CONTINUOUS
10
4.18852
20
-0.769641
11
4.18938
21
-0.764126
0
LINE
8
BLACK
6
CONTINUOUS
10
4.18938
20
-0.764126
11
4.19175
21
-0.759074
0
LINE
8
BLACK
6
CONTINUOUS
10
4.19175
20
-0.759074
11
4.19544
21
-0.754891
0
LINE
8
BLACK
6
CONTINUOUS
10
4.19544
20
-0.754891
11
4.20016
21
-0.751912
0
LINE
8
BLACK
6
CONTINUOUS
10
4.20016
20
-0.751912
11
4.20553
21
-0.750379
0
LINE
8
BLACK
6
CONTINUOUS
10
4.20553
20
-0.750379
11
4.21111
21
-0.750413
0
LINE
8
BLACK
6
CONTINUOUS
10
4.85723
20
-1.23994
11
4.86162
21
-1.24218
0
LINE
8
BLACK
6
CONTINUOUS
10
4.86162
20
-1.24218
11
4.8651
21
-1.24566
0
LINE
8
BLACK
6
CONTINUOUS
10
4.8651
20
-1.24566
11
4.86734
21
-1.25005
0
LINE
8
BLACK
6
CONTINUOUS
10
4.86734
20
-1.25005
11
4.86811
21
-1.25492
0
LINE
8
BLACK
6
CONTINUOUS
10
4.86811
20
-1.25492
11
4.86734
21
-1.25979
0
LINE
8
BLACK
6
CONTINUOUS
10
4.86734
20
-1.25979
11
4.86627
21
-1.26187
0
LINE
8
BLACK
6
CONTINUOUS
10
4.86627
20
-1.26187
11
4.93806
21
-1.33366
0
LINE
8
BLACK
6
CONTINUOUS
10
4.93806
20
-1.33366
11
5.00473
21
-1.33366
0
LINE
8
BLACK
6
CONTINUOUS
10
5.00473
20
-1.33366
11
5.00694
21
-1.32933
0
LINE
8
BLACK
6
CONTINUOUS
10
5.00694
20
-1.32933
11
5.01043
21
-1.32584
0
LINE
8
BLACK
6
CONTINUOUS
10
5.01043
20
-1.32584
11
5.01482
21
-1.3236
0
LINE
8
BLACK
6
CONTINUOUS
10
5.01482
20
-1.3236
11
5.01968
21
-1.32283
0
LINE
8
BLACK
6
CONTINUOUS
10
5.01968
20
-1.32283
11
5.02455
21
-1.3236
0
LINE
8
BLACK
6
CONTINUOUS
10
5.02455
20
-1.3236
11
5.02894
21
-1.32584
0
LINE
8
BLACK
6
CONTINUOUS
10
5.02894
20
-1.32584
11
5.03242
21
-1.32933
0
LINE
8
BLACK
6
CONTINUOUS
10
5.03242
20
-1.32933
11
5.03466
21
-1.33372
0
LINE
8
BLACK
6
CONTINUOUS
10
5.03466
20
-1.33372
11
5.03543
21
-1.33858
0
LINE
8
BLACK
6
CONTINUOUS
10
5.03543
20
-1.33858
11
5.03466
21
-1.34345
0
LINE
8
BLACK
6
CONTINUOUS
10
5.03466
20
-1.34345
11
5.03242
21
-1.34784
0
LINE
8
BLACK
6
CONTINUOUS
10
5.03242
20
-1.34784
11
5.02894
21
-1.35132
0
LINE
8
BLACK
6
CONTINUOUS
10
5.02894
20
-1.35132
11
5.02455
21
-1.35356
0
LINE
8
BLACK
6
CONTINUOUS
10
5.02455
20
-1.35356
11
5.01968
21
-1.35433
0
LINE
8
BLACK
6
CONTINUOUS
10
5.01968
20
-1.35433
11
5.01482
21
-1.35356
0
LINE
8
BLACK
6
CONTINUOUS
10
5.01482
20
-1.35356
11
5.01043
21
-1.35132
0
LINE
8
BLACK
6
CONTINUOUS
10
5.01043
20
-1.35132
11
5.00694
21
-1.34784
0
LINE
8
BLACK
6
CONTINUOUS
10
5.00694
20
-1.34784
11
5.00473
21
-1.3435
0
LINE
8
BLACK
6
CONTINUOUS
10
5.00473
20
-1.3435
11
4.93602
21
-1.3435
0
LINE
8
BLACK
6
CONTINUOUS
10
4.93602
20
-1.3435
11
4.93515
21
-1.34338
0
LINE
8
BLACK
6
CONTINUOUS
10
4.93515
20
-1.34338
11
4.93497
21
-1.34339
0
LINE
8
BLACK
6
CONTINUOUS
10
4.93497
20
-1.34339
11
4.93488
21
-1.34334
0
LINE
8
BLACK
6
CONTINUOUS
10
4.93488
20
-1.34334
11
4.93462
21
-1.3433
0
LINE
8
BLACK
6
CONTINUOUS
10
4.93462
20
-1.3433
11
4.93361
21
-1.34264
0
LINE
8
BLACK
6
CONTINUOUS
10
4.93361
20
-1.34264
11
4.93254
21
-1.34206
0
LINE
8
BLACK
6
CONTINUOUS
10
4.93254
20
-1.34206
11
4.85931
21
-1.26883
0
LINE
8
BLACK
6
CONTINUOUS
10
4.85931
20
-1.26883
11
4.85723
21
-1.2699
0
LINE
8
BLACK
6
CONTINUOUS
10
4.85723
20
-1.2699
11
4.85236
21
-1.27067
0
LINE
8
BLACK
6
CONTINUOUS
10
4.85236
20
-1.27067
11
4.84749
21
-1.2699
0
LINE
8
BLACK
6
CONTINUOUS
10
4.84749
20
-1.2699
11
4.8431
21
-1.26766
0
LINE
8
BLACK
6
CONTINUOUS
10
4.8431
20
-1.26766
11
4.83962
21
-1.26418
0
LINE
8
BLACK
6
CONTINUOUS
10
4.83962
20
-1.26418
11
4.83738
21
-1.25979
0
LINE
8
BLACK
6
CONTINUOUS
10
4.83738
20
-1.25979
11
4.83661
21
-1.25492
0
LINE
8
BLACK
6
CONTINUOUS
10
4.83661
20
-1.25492
11
4.83738
21
-1.25005
0
LINE
8
BLACK
6
CONTINUOUS
10
4.83738
20
-1.25005
11
4.83962
21
-1.24566
0
LINE
8
BLACK
6
CONTINUOUS
10
4.83962
20
-1.24566
11
4.8431
21
-1.24218
0
LINE
8
BLACK
6
CONTINUOUS
10
4.8431
20
-1.24218
11
4.84749
21
-1.23994
0
LINE
8
BLACK
6
CONTINUOUS
10
4.84749
20
-1.23994
11
4.85236
21
-1.23917
0
LINE
8
BLACK
6
CONTINUOUS
10
4.85236
20
-1.23917
11
4.85723
21
-1.23994
0
LINE
8
BLACK
6
CONTINUOUS
10
3.71385
20
-1.20698
11
3.71824
21
-1.20922
0
LINE
8
BLACK
6
CONTINUOUS
10
3.71824
20
-1.20922
11
3.72173
21
-1.2127
0
LINE
8
BLACK
6
CONTINUOUS
10
3.72173
20
-1.2127
11
3.72397
21
-1.21709
0
LINE
8
BLACK
6
CONTINUOUS
10
3.72397
20
-1.21709
11
3.72474
21
-1.22196
0
LINE
8
BLACK
6
CONTINUOUS
10
3.72474
20
-1.22196
11
3.72397
21
-1.22683
0
LINE
8
BLACK
6
CONTINUOUS
10
3.72397
20
-1.22683
11
3.72173
21
-1.23122
0
LINE
8
BLACK
6
CONTINUOUS
10
3.72173
20
-1.23122
11
3.71824
21
-1.2347
0
LINE
8
BLACK
6
CONTINUOUS
10
3.71824
20
-1.2347
11
3.71385
21
-1.23694
0
LINE
8
BLACK
6
CONTINUOUS
10
3.71385
20
-1.23694
11
3.71292
21
-1.23709
0
LINE
8
BLACK
6
CONTINUOUS
10
3.71292
20
-1.23709
11
3.71292
21
-1.26768
0
LINE
8
BLACK
6
CONTINUOUS
10
3.71292
20
-1.26768
11
3.71385
21
-1.26783
0
LINE
8
BLACK
6
CONTINUOUS
10
3.71385
20
-1.26783
11
3.71824
21
-1.27007
0
LINE
8
BLACK
6
CONTINUOUS
10
3.71824
20
-1.27007
11
3.72173
21
-1.27355
0
LINE
8
BLACK
6
CONTINUOUS
10
3.72173
20
-1.27355
11
3.72397
21
-1.27794
0
LINE
8
BLACK
6
CONTINUOUS
10
3.72397
20
-1.27794
11
3.72474
21
-1.28281
0
LINE
8
BLACK
6
CONTINUOUS
10
3.72474
20
-1.28281
11
3.72397
21
-1.28767
0
LINE
8
BLACK
6
CONTINUOUS
10
3.72397
20
-1.28767
11
3.72173
21
-1.29206
0
LINE
8
BLACK
6
CONTINUOUS
10
3.72173
20
-1.29206
11
3.71824
21
-1.29555
0
LINE
8
BLACK
6
CONTINUOUS
10
3.71824
20
-1.29555
11
3.71385
21
-1.29779
0
LINE
8
BLACK
6
CONTINUOUS
10
3.71385
20
-1.29779
11
3.70899
21
-1.29856
0
LINE
8
BLACK
6
CONTINUOUS
10
3.70899
20
-1.29856
11
3.70412
21
-1.29779
0
LINE
8
BLACK
6
CONTINUOUS
10
3.70412
20
-1.29779
11
3.69973
21
-1.29555
0
LINE
8
BLACK
6
CONTINUOUS
10
3.69973
20
-1.29555
11
3.69625
21
-1.29206
0
LINE
8
BLACK
6
CONTINUOUS
10
3.69625
20
-1.29206
11
3.69401
21
-1.28767
0
LINE
8
BLACK
6
CONTINUOUS
10
3.69401
20
-1.28767
11
3.69324
21
-1.28281
0
LINE
8
BLACK
6
CONTINUOUS
10
3.69324
20
-1.28281
11
3.69401
21
-1.27794
0
LINE
8
BLACK
6
CONTINUOUS
10
3.69401
20
-1.27794
11
3.69625
21
-1.27355
0
LINE
8
BLACK
6
CONTINUOUS
10
3.69625
20
-1.27355
11
3.69973
21
-1.27007
0
LINE
8
BLACK
6
CONTINUOUS
10
3.69973
20
-1.27007
11
3.70412
21
-1.26783
0
LINE
8
BLACK
6
CONTINUOUS
10
3.70412
20
-1.26783
11
3.70505
21
-1.26768
0
LINE
8
BLACK
6
CONTINUOUS
10
3.70505
20
-1.26768
11
3.70505
21
-1.23709
0
LINE
8
BLACK
6
CONTINUOUS
10
3.70505
20
-1.23709
11
3.70412
21
-1.23694
0
LINE
8
BLACK
6
CONTINUOUS
10
3.70412
20
-1.23694
11
3.69973
21
-1.2347
0
LINE
8
BLACK
6
CONTINUOUS
10
3.69973
20
-1.2347
11
3.69625
21
-1.23122
0
LINE
8
BLACK
6
CONTINUOUS
10
3.69625
20
-1.23122
11
3.69401
21
-1.22683
0
LINE
8
BLACK
6
CONTINUOUS
10
3.69401
20
-1.22683
11
3.69324
21
-1.22196
0
LINE
8
BLACK
6
CONTINUOUS
10
3.69324
20
-1.22196
11
3.69401
21
-1.21709
0
LINE
8
BLACK
6
CONTINUOUS
10
3.69401
20
-1.21709
11
3.69625
21
-1.2127
0
LINE
8
BLACK
6
CONTINUOUS
10
3.69625
20
-1.2127
11
3.69973
21
-1.20922
0
LINE
8
BLACK
6
CONTINUOUS
10
3.69973
20
-1.20922
11
3.70412
21
-1.20698
0
LINE
8
BLACK
6
CONTINUOUS
10
3.70412
20
-1.20698
11
3.70899
21
-1.20621
0
LINE
8
BLACK
6
CONTINUOUS
10
3.70899
20
-1.20621
11
3.71385
21
-1.20698
0
LINE
8
BLACK
6
CONTINUOUS
10
3.9522
20
-1.22469
11
3.95659
21
-1.22693
0
LINE
8
BLACK
6
CONTINUOUS
10
3.95659
20
-1.22693
11
3.96007
21
-1.23042
0
LINE
8
BLACK
6
CONTINUOUS
10
3.96007
20
-1.23042
11
3.96231
21
-1.23481
0
LINE
8
BLACK
6
CONTINUOUS
10
3.96231
20
-1.23481
11
3.96308
21
-1.23967
0
LINE
8
BLACK
6
CONTINUOUS
10
3.96308
20
-1.23967
11
3.96231
21
-1.24454
0
LINE
8
BLACK
6
CONTINUOUS
10
3.96231
20
-1.24454
11
3.96007
21
-1.24893
0
LINE
8
BLACK
6
CONTINUOUS
10
3.96007
20
-1.24893
11
3.95659
21
-1.25241
0
LINE
8
BLACK
6
CONTINUOUS
10
3.95659
20
-1.25241
11
3.9522
21
-1.25465
0
LINE
8
BLACK
6
CONTINUOUS
10
3.9522
20
-1.25465
11
3.94733
21
-1.25542
0
LINE
8
BLACK
6
CONTINUOUS
10
3.94733
20
-1.25542
11
3.94247
21
-1.25465
0
LINE
8
BLACK
6
CONTINUOUS
10
3.94247
20
-1.25465
11
3.94038
21
-1.25359
0
LINE
8
BLACK
6
CONTINUOUS
10
3.94038
20
-1.25359
11
3.90768
21
-1.28629
0
LINE
8
BLACK
6
CONTINUOUS
10
3.90768
20
-1.28629
11
3.90698
21
-1.28681
0
LINE
8
BLACK
6
CONTINUOUS
10
3.90698
20
-1.28681
11
3.90686
21
-1.28695
0
LINE
8
BLACK
6
CONTINUOUS
10
3.90686
20
-1.28695
11
3.90675
21
-1.28698
0
LINE
8
BLACK
6
CONTINUOUS
10
3.90675
20
-1.28698
11
3.90655
21
-1.28713
0
LINE
8
BLACK
6
CONTINUOUS
10
3.90655
20
-1.28713
11
3.90536
21
-1.28739
0
LINE
8
BLACK
6
CONTINUOUS
10
3.90536
20
-1.28739
11
3.9042
21
-1.28773
0
LINE
8
BLACK
6
CONTINUOUS
10
3.9042
20
-1.28773
11
3.8076
21
-1.28773
0
LINE
8
BLACK
6
CONTINUOUS
10
3.8076
20
-1.28773
11
3.80539
21
-1.29206
0
LINE
8
BLACK
6
CONTINUOUS
10
3.80539
20
-1.29206
11
3.80191
21
-1.29555
0
LINE
8
BLACK
6
CONTINUOUS
10
3.80191
20
-1.29555
11
3.79752
21
-1.29779
0
LINE
8
BLACK
6
CONTINUOUS
10
3.79752
20
-1.29779
11
3.79265
21
-1.29856
0
LINE
8
BLACK
6
CONTINUOUS
10
3.79265
20
-1.29856
11
3.78778
21
-1.29779
0
LINE
8
BLACK
6
CONTINUOUS
10
3.78778
20
-1.29779
11
3.78339
21
-1.29555
0
LINE
8
BLACK
6
CONTINUOUS
10
3.78339
20
-1.29555
11
3.77991
21
-1.29206
0
LINE
8
BLACK
6
CONTINUOUS
10
3.77991
20
-1.29206
11
3.77767
21
-1.28767
0
LINE
8
BLACK
6
CONTINUOUS
10
3.77767
20
-1.28767
11
3.7769
21
-1.28281
0
LINE
8
BLACK
6
CONTINUOUS
10
3.7769
20
-1.28281
11
3.77767
21
-1.27794
0
LINE
8
BLACK
6
CONTINUOUS
10
3.77767
20
-1.27794
11
3.77991
21
-1.27355
0
LINE
8
BLACK
6
CONTINUOUS
10
3.77991
20
-1.27355
11
3.78339
21
-1.27007
0
LINE
8
BLACK
6
CONTINUOUS
10
3.78339
20
-1.27007
11
3.78778
21
-1.26783
0
LINE
8
BLACK
6
CONTINUOUS
10
3.78778
20
-1.26783
11
3.79265
21
-1.26706
0
LINE
8
BLACK
6
CONTINUOUS
10
3.79265
20
-1.26706
11
3.79752
21
-1.26783
0
LINE
8
BLACK
6
CONTINUOUS
10
3.79752
20
-1.26783
11
3.80191
21
-1.27007
0
LINE
8
BLACK
6
CONTINUOUS
10
3.80191
20
-1.27007
11
3.80539
21
-1.27355
0
LINE
8
BLACK
6
CONTINUOUS
10
3.80539
20
-1.27355
11
3.8076
21
-1.27789
0
LINE
8
BLACK
6
CONTINUOUS
10
3.8076
20
-1.27789
11
3.90216
21
-1.27789
0
LINE
8
BLACK
6
CONTINUOUS
10
3.90216
20
-1.27789
11
3.93342
21
-1.24663
0
LINE
8
BLACK
6
CONTINUOUS
10
3.93342
20
-1.24663
11
3.93236
21
-1.24454
0
LINE
8
BLACK
6
CONTINUOUS
10
3.93236
20
-1.24454
11
3.93159
21
-1.23967
0
LINE
8
BLACK
6
CONTINUOUS
10
3.93159
20
-1.23967
11
3.93236
21
-1.23481
0
LINE
8
BLACK
6
CONTINUOUS
10
3.93236
20
-1.23481
11
3.93459
21
-1.23042
0
LINE
8
BLACK
6
CONTINUOUS
10
3.93459
20
-1.23042
11
3.93808
21
-1.22693
0
LINE
8
BLACK
6
CONTINUOUS
10
3.93808
20
-1.22693
11
3.94247
21
-1.22469
0
LINE
8
BLACK
6
CONTINUOUS
10
3.94247
20
-1.22469
11
3.94733
21
-1.22392
0
LINE
8
BLACK
6
CONTINUOUS
10
3.94733
20
-1.22392
11
3.9522
21
-1.22469
0
LINE
8
BLACK
6
CONTINUOUS
10
4.41191
20
-1.14644
11
4.4163
21
-1.14868
0
LINE
8
BLACK
6
CONTINUOUS
10
4.4163
20
-1.14868
11
4.41979
21
-1.15216
0
LINE
8
BLACK
6
CONTINUOUS
10
4.41979
20
-1.15216
11
4.422
21
-1.1565
0
LINE
8
BLACK
6
CONTINUOUS
10
4.422
20
-1.1565
11
4.46006
21
-1.1565
0
LINE
8
BLACK
6
CONTINUOUS
10
4.46006
20
-1.1565
11
4.46093
21
-1.15662
0
LINE
8
BLACK
6
CONTINUOUS
10
4.46093
20
-1.15662
11
4.46111
21
-1.15661
0
LINE
8
BLACK
6
CONTINUOUS
10
4.46111
20
-1.15661
11
4.4612
21
-1.15666
0
LINE
8
BLACK
6
CONTINUOUS
10
4.4612
20
-1.15666
11
4.46146
21
-1.1567
0
LINE
8
BLACK
6
CONTINUOUS
10
4.46146
20
-1.1567
11
4.46248
21
-1.15736
0
LINE
8
BLACK
6
CONTINUOUS
10
4.46248
20
-1.15736
11
4.46354
21
-1.15794
0
LINE
8
BLACK
6
CONTINUOUS
10
4.46354
20
-1.15794
11
4.53635
21
-1.23075
0
LINE
8
BLACK
6
CONTINUOUS
10
4.53635
20
-1.23075
11
4.53844
21
-1.22969
0
LINE
8
BLACK
6
CONTINUOUS
10
4.53844
20
-1.22969
11
4.54331
21
-1.22892
0
LINE
8
BLACK
6
CONTINUOUS
10
4.54331
20
-1.22892
11
4.54817
21
-1.22969
0
LINE
8
BLACK
6
CONTINUOUS
10
4.54817
20
-1.22969
11
4.55256
21
-1.23192
0
LINE
8
BLACK
6
CONTINUOUS
10
4.55256
20
-1.23192
11
4.55605
21
-1.23541
0
LINE
8
BLACK
6
CONTINUOUS
10
4.55605
20
-1.23541
11
4.55828
21
-1.2398
0
LINE
8
BLACK
6
CONTINUOUS
10
4.55828
20
-1.2398
11
4.55906
21
-1.24467
0
LINE
8
BLACK
6
CONTINUOUS
10
4.55906
20
-1.24467
11
4.55828
21
-1.24953
0
LINE
8
BLACK
6
CONTINUOUS
10
4.55828
20
-1.24953
11
4.55605
21
-1.25392
0
LINE
8
BLACK
6
CONTINUOUS
10
4.55605
20
-1.25392
11
4.55256
21
-1.25741
0
LINE
8
BLACK
6
CONTINUOUS
10
4.55256
20
-1.25741
11
4.54817
21
-1.25964
0
LINE
8
BLACK
6
CONTINUOUS
10
4.54817
20
-1.25964
11
4.54331
21
-1.26041
0
LINE
8
BLACK
6
CONTINUOUS
10
4.54331
20
-1.26041
11
4.53844
21
-1.25964
0
LINE
8
BLACK
6
CONTINUOUS
10
4.53844
20
-1.25964
11
4.53405
21
-1.25741
0
LINE
8
BLACK
6
CONTINUOUS
10
4.53405
20
-1.25741
11
4.53057
21
-1.25392
0
LINE
8
BLACK
6
CONTINUOUS
10
4.53057
20
-1.25392
11
4.52833
21
-1.24953
0
LINE
8
BLACK
6
CONTINUOUS
10
4.52833
20
-1.24953
11
4.52756
21
-1.24467
0
LINE
8
BLACK
6
CONTINUOUS
10
4.52756
20
-1.24467
11
4.52833
21
-1.2398
0
LINE
8
BLACK
6
CONTINUOUS
10
4.52833
20
-1.2398
11
4.52939
21
-1.23771
0
LINE
8
BLACK
6
CONTINUOUS
10
4.52939
20
-1.23771
11
4.45802
21
-1.16634
0
LINE
8
BLACK
6
CONTINUOUS
10
4.45802
20
-1.16634
11
4.422
21
-1.16634
0
LINE
8
BLACK
6
CONTINUOUS
10
4.422
20
-1.16634
11
4.41979
21
-1.17067
0
LINE
8
BLACK
6
CONTINUOUS
10
4.41979
20
-1.17067
11
4.4163
21
-1.17416
0
LINE
8
BLACK
6
CONTINUOUS
10
4.4163
20
-1.17416
11
4.41191
21
-1.17639
0
LINE
8
BLACK
6
CONTINUOUS
10
4.41191
20
-1.17639
11
4.40705
21
-1.17717
0
LINE
8
BLACK
6
CONTINUOUS
10
4.40705
20
-1.17717
11
4.40218
21
-1.17639
0
LINE
8
BLACK
6
CONTINUOUS
10
4.40218
20
-1.17639
11
4.39779
21
-1.17416
0
LINE
8
BLACK
6
CONTINUOUS
10
4.39779
20
-1.17416
11
4.39431
21
-1.17067
0
LINE
8
BLACK
6
CONTINUOUS
10
4.39431
20
-1.17067
11
4.39207
21
-1.16628
0
LINE
8
BLACK
6
CONTINUOUS
10
4.39207
20
-1.16628
11
4.3913
21
-1.16142
0
LINE
8
BLACK
6
CONTINUOUS
10
4.3913
20
-1.16142
11
4.39207
21
-1.15655
0
LINE
8
BLACK
6
CONTINUOUS
10
4.39207
20
-1.15655
11
4.39431
21
-1.15216
0
LINE
8
BLACK
6
CONTINUOUS
10
4.39431
20
-1.15216
11
4.39779
21
-1.14868
0
LINE
8
BLACK
6
CONTINUOUS
10
4.39779
20
-1.14868
11
4.40218
21
-1.14644
0
LINE
8
BLACK
6
CONTINUOUS
10
4.40218
20
-1.14644
11
4.40705
21
-1.14567
0
LINE
8
BLACK
6
CONTINUOUS
10
4.40705
20
-1.14567
11
4.41191
21
-1.14644
0
LINE
8
BLACK
6
CONTINUOUS
10
5.37702
20
-1.16714
11
5.38436
21
-1.16942
0
LINE
8
BLACK
6
CONTINUOUS
10
5.38436
20
-1.16942
11
5.39111
21
-1.17307
0
LINE
8
BLACK
6
CONTINUOUS
10
5.39111
20
-1.17307
11
5.39704
21
-1.17797
0
LINE
8
BLACK
6
CONTINUOUS
10
5.39704
20
-1.17797
11
5.40189
21
-1.18392
0
LINE
8
BLACK
6
CONTINUOUS
10
5.40189
20
-1.18392
11
5.4055
21
-1.19071
0
LINE
8
BLACK
6
CONTINUOUS
10
5.4055
20
-1.19071
11
5.40772
21
-1.19806
0
LINE
8
BLACK
6
CONTINUOUS
10
5.40772
20
-1.19806
11
5.40847
21
-1.20571
0
LINE
8
BLACK
6
CONTINUOUS
10
5.40847
20
-1.20571
11
5.40845
21
-1.20681
0
LINE
8
BLACK
6
CONTINUOUS
10
5.40845
20
-1.20681
11
5.40749
21
-1.21443
0
LINE
8
BLACK
6
CONTINUOUS
10
5.40749
20
-1.21443
11
5.40507
21
-1.22172
0
LINE
8
BLACK
6
CONTINUOUS
10
5.40507
20
-1.22172
11
5.40127
21
-1.2284
0
LINE
8
BLACK
6
CONTINUOUS
10
5.40127
20
-1.2284
11
5.39625
21
-1.23422
0
LINE
8
BLACK
6
CONTINUOUS
10
5.39625
20
-1.23422
11
5.3902
21
-1.23895
0
LINE
8
BLACK
6
CONTINUOUS
10
5.3902
20
-1.23895
11
5.38334
21
-1.24242
0
LINE
8
BLACK
6
CONTINUOUS
10
5.38334
20
-1.24242
11
5.37594
21
-1.24448
0
LINE
8
BLACK
6
CONTINUOUS
10
5.37594
20
-1.24448
11
5.36827
21
-1.24507
0
LINE
8
BLACK
6
CONTINUOUS
10
5.36827
20
-1.24507
11
5.36065
21
-1.24416
0
LINE
8
BLACK
6
CONTINUOUS
10
5.36065
20
-1.24416
11
5.35334
21
-1.24179
0
LINE
8
BLACK
6
CONTINUOUS
10
5.35334
20
-1.24179
11
5.34663
21
-1.23804
0
LINE
8
BLACK
6
CONTINUOUS
10
5.34663
20
-1.23804
11
5.34078
21
-1.23306
0
LINE
8
BLACK
6
CONTINUOUS
10
5.34078
20
-1.23306
11
5.33601
21
-1.22704
0
LINE
8
BLACK
6
CONTINUOUS
10
5.33601
20
-1.22704
11
5.33249
21
-1.2202
0
LINE
8
BLACK
6
CONTINUOUS
10
5.33249
20
-1.2202
11
5.33038
21
-1.21282
0
LINE
8
BLACK
6
CONTINUOUS
10
5.33038
20
-1.21282
11
5.32973
21
-1.20516
0
LINE
8
BLACK
6
CONTINUOUS
10
5.32973
20
-1.20516
11
5.33059
21
-1.19752
0
LINE
8
BLACK
6
CONTINUOUS
10
5.33059
20
-1.19752
11
5.33291
21
-1.1902
0
LINE
8
BLACK
6
CONTINUOUS
10
5.33291
20
-1.1902
11
5.33661
21
-1.18347
0
LINE
8
BLACK
6
CONTINUOUS
10
5.33661
20
-1.18347
11
5.34155
21
-1.17758
0
LINE
8
BLACK
6
CONTINUOUS
10
5.34155
20
-1.17758
11
5.34754
21
-1.17277
0
LINE
8
BLACK
6
CONTINUOUS
10
5.34754
20
-1.17277
11
5.35435
21
-1.16921
0
LINE
8
BLACK
6
CONTINUOUS
10
5.35435
20
-1.16921
11
5.36172
21
-1.16704
0
LINE
8
BLACK
6
CONTINUOUS
10
5.36172
20
-1.16704
11
5.36937
21
-1.16634
0
LINE
8
BLACK
6
CONTINUOUS
10
5.36937
20
-1.16634
11
5.37702
21
-1.16714
0
LINE
8
BLACK
6
CONTINUOUS
10
5.18017
20
-1.16714
11
5.18751
21
-1.16942
0
LINE
8
BLACK
6
CONTINUOUS
10
5.18751
20
-1.16942
11
5.19426
21
-1.17307
0
LINE
8
BLACK
6
CONTINUOUS
10
5.19426
20
-1.17307
11
5.20018
21
-1.17797
0
LINE
8
BLACK
6
CONTINUOUS
10
5.20018
20
-1.17797
11
5.20504
21
-1.18392
0
LINE
8
BLACK
6
CONTINUOUS
10
5.20504
20
-1.18392
11
5.20865
21
-1.19071
0
LINE
8
BLACK
6
CONTINUOUS
10
5.20865
20
-1.19071
11
5.21087
21
-1.19806
0
LINE
8
BLACK
6
CONTINUOUS
10
5.21087
20
-1.19806
11
5.21162
21
-1.20571
0
LINE
8
BLACK
6
CONTINUOUS
10
5.21162
20
-1.20571
11
5.2116
21
-1.20681
0
LINE
8
BLACK
6
CONTINUOUS
10
5.2116
20
-1.20681
11
5.21064
21
-1.21443
0
LINE
8
BLACK
6
CONTINUOUS
10
5.21064
20
-1.21443
11
5.20822
21
-1.22172
0
LINE
8
BLACK
6
CONTINUOUS
10
5.20822
20
-1.22172
11
5.20442
21
-1.2284
0
LINE
8
BLACK
6
CONTINUOUS
10
5.20442
20
-1.2284
11
5.1994
21
-1.23422
0
LINE
8
BLACK
6
CONTINUOUS
10
5.1994
20
-1.23422
11
5.19334
21
-1.23895
0
LINE
8
BLACK
6
CONTINUOUS
10
5.19334
20
-1.23895
11
5.18649
21
-1.24242
0
LINE
8
BLACK
6
CONTINUOUS
10
5.18649
20
-1.24242
11
5.17909
21
-1.24448
0
LINE
8
BLACK
6
CONTINUOUS
10
5.17909
20
-1.24448
11
5.17142
21
-1.24507
0
LINE
8
BLACK
6
CONTINUOUS
10
5.17142
20
-1.24507
11
5.16379
21
-1.24416
0
LINE
8
BLACK
6
CONTINUOUS
10
5.16379
20
-1.24416
11
5.15649
21
-1.24179
0
LINE
8
BLACK
6
CONTINUOUS
10
5.15649
20
-1.24179
11
5.14978
21
-1.23804
0
LINE
8
BLACK
6
CONTINUOUS
10
5.14978
20
-1.23804
11
5.14393
21
-1.23306
0
LINE
8
BLACK
6
CONTINUOUS
10
5.14393
20
-1.23306
11
5.13916
21
-1.22704
0
LINE
8
BLACK
6
CONTINUOUS
10
5.13916
20
-1.22704
11
5.13564
21
-1.2202
0
LINE
8
BLACK
6
CONTINUOUS
10
5.13564
20
-1.2202
11
5.13353
21
-1.21282
0
LINE
8
BLACK
6
CONTINUOUS
10
5.13353
20
-1.21282
11
5.13288
21
-1.20516
0
LINE
8
BLACK
6
CONTINUOUS
10
5.13288
20
-1.20516
11
5.13374
21
-1.19752
0
LINE
8
BLACK
6
CONTINUOUS
10
5.13374
20
-1.19752
11
5.13606
21
-1.1902
0
LINE
8
BLACK
6
CONTINUOUS
10
5.13606
20
-1.1902
11
5.13976
21
-1.18347
0
LINE
8
BLACK
6
CONTINUOUS
10
5.13976
20
-1.18347
11
5.1447
21
-1.17758
0
LINE
8
BLACK
6
CONTINUOUS
10
5.1447
20
-1.17758
11
5.15069
21
-1.17277
0
LINE
8
BLACK
6
CONTINUOUS
10
5.15069
20
-1.17277
11
5.1575
21
-1.16921
0
LINE
8
BLACK
6
CONTINUOUS
10
5.1575
20
-1.16921
11
5.16487
21
-1.16704
0
LINE
8
BLACK
6
CONTINUOUS
10
5.16487
20
-1.16704
11
5.17252
21
-1.16634
0
LINE
8
BLACK
6
CONTINUOUS
10
5.17252
20
-1.16634
11
5.18017
21
-1.16714
0
LINE
8
BLACK
6
CONTINUOUS
10
4.99666
20
-1.15628
11
5.00105
21
-1.15852
0
LINE
8
BLACK
6
CONTINUOUS
10
5.00105
20
-1.15852
11
5.00454
21
-1.162
0
LINE
8
BLACK
6
CONTINUOUS
10
5.00454
20
-1.162
11
5.00677
21
-1.16639
0
LINE
8
BLACK
6
CONTINUOUS
10
5.00677
20
-1.16639
11
5.00754
21
-1.17126
0
LINE
8
BLACK
6
CONTINUOUS
10
5.00754
20
-1.17126
11
5.00677
21
-1.17613
0
LINE
8
BLACK
6
CONTINUOUS
10
5.00677
20
-1.17613
11
5.00454
21
-1.18052
0
LINE
8
BLACK
6
CONTINUOUS
10
5.00454
20
-1.18052
11
5.00105
21
-1.184
0
LINE
8
BLACK
6
CONTINUOUS
10
5.00105
20
-1.184
11
4.99666
21
-1.18624
0
LINE
8
BLACK
6
CONTINUOUS
10
4.99666
20
-1.18624
11
4.9918
21
-1.18701
0
LINE
8
BLACK
6
CONTINUOUS
10
4.9918
20
-1.18701
11
4.98693
21
-1.18624
0
LINE
8
BLACK
6
CONTINUOUS
10
4.98693
20
-1.18624
11
4.98254
21
-1.184
0
LINE
8
BLACK
6
CONTINUOUS
10
4.98254
20
-1.184
11
4.97906
21
-1.18052
0
LINE
8
BLACK
6
CONTINUOUS
10
4.97906
20
-1.18052
11
4.97682
21
-1.17613
0
LINE
8
BLACK
6
CONTINUOUS
10
4.97682
20
-1.17613
11
4.97667
21
-1.1752
0
LINE
8
BLACK
6
CONTINUOUS
10
4.97667
20
-1.1752
11
4.92326
21
-1.1752
0
LINE
8
BLACK
6
CONTINUOUS
10
4.92326
20
-1.1752
11
4.92311
21
-1.17613
0
LINE
8
BLACK
6
CONTINUOUS
10
4.92311
20
-1.17613
11
4.92087
21
-1.18052
0
LINE
8
BLACK
6
CONTINUOUS
10
4.92087
20
-1.18052
11
4.91739
21
-1.184
0
LINE
8
BLACK
6
CONTINUOUS
10
4.91739
20
-1.184
11
4.913
21
-1.18624
0
LINE
8
BLACK
6
CONTINUOUS
10
4.913
20
-1.18624
11
4.90813
21
-1.18701
0
LINE
8
BLACK
6
CONTINUOUS
10
4.90813
20
-1.18701
11
4.90327
21
-1.18624
0
LINE
8
BLACK
6
CONTINUOUS
10
4.90327
20
-1.18624
11
4.89888
21
-1.184
0
LINE
8
BLACK
6
CONTINUOUS
10
4.89888
20
-1.184
11
4.89539
21
-1.18052
0
LINE
8
BLACK
6
CONTINUOUS
10
4.89539
20
-1.18052
11
4.89316
21
-1.17613
0
LINE
8
BLACK
6
CONTINUOUS
10
4.89316
20
-1.17613
11
4.89239
21
-1.17126
0
LINE
8
BLACK
6
CONTINUOUS
10
4.89239
20
-1.17126
11
4.89316
21
-1.16639
0
LINE
8
BLACK
6
CONTINUOUS
10
4.89316
20
-1.16639
11
4.89539
21
-1.162
0
LINE
8
BLACK
6
CONTINUOUS
10
4.89539
20
-1.162
11
4.89888
21
-1.15852
0
LINE
8
BLACK
6
CONTINUOUS
10
4.89888
20
-1.15852
11
4.90327
21
-1.15628
0
LINE
8
BLACK
6
CONTINUOUS
10
4.90327
20
-1.15628
11
4.90813
21
-1.15551
0
LINE
8
BLACK
6
CONTINUOUS
10
4.90813
20
-1.15551
11
4.913
21
-1.15628
0
LINE
8
BLACK
6
CONTINUOUS
10
4.913
20
-1.15628
11
4.91739
21
-1.15852
0
LINE
8
BLACK
6
CONTINUOUS
10
4.91739
20
-1.15852
11
4.92087
21
-1.162
0
LINE
8
BLACK
6
CONTINUOUS
10
4.92087
20
-1.162
11
4.92311
21
-1.16639
0
LINE
8
BLACK
6
CONTINUOUS
10
4.92311
20
-1.16639
11
4.92326
21
-1.16732
0
LINE
8
BLACK
6
CONTINUOUS
10
4.92326
20
-1.16732
11
4.97667
21
-1.16732
0
LINE
8
BLACK
6
CONTINUOUS
10
4.97667
20
-1.16732
11
4.97682
21
-1.16639
0
LINE
8
BLACK
6
CONTINUOUS
10
4.97682
20
-1.16639
11
4.97906
21
-1.162
0
LINE
8
BLACK
6
CONTINUOUS
10
4.97906
20
-1.162
11
4.98254
21
-1.15852
0
LINE
8
BLACK
6
CONTINUOUS
10
4.98254
20
-1.15852
11
4.98693
21
-1.15628
0
LINE
8
BLACK
6
CONTINUOUS
10
4.98693
20
-1.15628
11
4.9918
21
-1.15551
0
LINE
8
BLACK
6
CONTINUOUS
10
4.9918
20
-1.15551
11
4.99666
21
-1.15628
0
LINE
8
BLACK
6
CONTINUOUS
10
5.46943
20
-1.05589
11
5.47382
21
-1.05813
0
LINE
8
BLACK
6
CONTINUOUS
10
5.47382
20
-1.05813
11
5.47731
21
-1.06161
0
LINE
8
BLACK
6
CONTINUOUS
10
5.47731
20
-1.06161
11
5.47954
21
-1.066
0
LINE
8
BLACK
6
CONTINUOUS
10
5.47954
20
-1.066
11
5.48031
21
-1.07087
0
LINE
8
BLACK
6
CONTINUOUS
10
5.48031
20
-1.07087
11
5.47954
21
-1.07573
0
LINE
8
BLACK
6
CONTINUOUS
10
5.47954
20
-1.07573
11
5.47731
21
-1.08012
0
LINE
8
BLACK
6
CONTINUOUS
10
5.47731
20
-1.08012
11
5.47382
21
-1.08361
0
LINE
8
BLACK
6
CONTINUOUS
10
5.47382
20
-1.08361
11
5.46943
21
-1.08584
0
LINE
8
BLACK
6
CONTINUOUS
10
5.46943
20
-1.08584
11
5.46457
21
-1.08661
0
LINE
8
BLACK
6
CONTINUOUS
10
5.46457
20
-1.08661
11
5.4597
21
-1.08584
0
LINE
8
BLACK
6
CONTINUOUS
10
5.4597
20
-1.08584
11
5.45531
21
-1.08361
0
LINE
8
BLACK
6
CONTINUOUS
10
5.45531
20
-1.08361
11
5.45183
21
-1.08012
0
LINE
8
BLACK
6
CONTINUOUS
10
5.45183
20
-1.08012
11
5.44962
21
-1.07579
0
LINE
8
BLACK
6
CONTINUOUS
10
5.44962
20
-1.07579
11
5.19889
21
-1.07579
0
LINE
8
BLACK
6
CONTINUOUS
10
5.19889
20
-1.07579
11
5.12948
21
-1.14519
0
LINE
8
BLACK
6
CONTINUOUS
10
5.12948
20
-1.14519
11
5.12878
21
-1.14572
0
LINE
8
BLACK
6
CONTINUOUS
10
5.12878
20
-1.14572
11
5.12866
21
-1.14585
0
LINE
8
BLACK
6
CONTINUOUS
10
5.12866
20
-1.14585
11
5.12856
21
-1.14589
0
LINE
8
BLACK
6
CONTINUOUS
10
5.12856
20
-1.14589
11
5.12835
21
-1.14604
0
LINE
8
BLACK
6
CONTINUOUS
10
5.12835
20
-1.14604
11
5.12717
21
-1.14629
0
LINE
8
BLACK
6
CONTINUOUS
10
5.12717
20
-1.14629
11
5.126
21
-1.14663
0
LINE
8
BLACK
6
CONTINUOUS
10
5.126
20
-1.14663
11
4.92911
21
-1.14663
0
LINE
8
BLACK
6
CONTINUOUS
10
4.92911
20
-1.14663
11
4.92825
21
-1.14651
0
LINE
8
BLACK
6
CONTINUOUS
10
4.92825
20
-1.14651
11
4.92807
21
-1.14652
0
LINE
8
BLACK
6
CONTINUOUS
10
4.92807
20
-1.14652
11
4.92797
21
-1.14647
0
LINE
8
BLACK
6
CONTINUOUS
10
4.92797
20
-1.14647
11
4.92772
21
-1.14643
0
LINE
8
BLACK
6
CONTINUOUS
10
4.92772
20
-1.14643
11
4.9267
21
-1.14577
0
LINE
8
BLACK
6
CONTINUOUS
10
4.9267
20
-1.14577
11
4.92563
21
-1.14519
0
LINE
8
BLACK
6
CONTINUOUS
10
4.92563
20
-1.14519
11
4.86522
21
-1.08478
0
LINE
8
BLACK
6
CONTINUOUS
10
4.86522
20
-1.08478
11
4.86313
21
-1.08584
0
LINE
8
BLACK
6
CONTINUOUS
10
4.86313
20
-1.08584
11
4.85827
21
-1.08661
0
LINE
8
BLACK
6
CONTINUOUS
10
4.85827
20
-1.08661
11
4.8534
21
-1.08584
0
LINE
8
BLACK
6
CONTINUOUS
10
4.8534
20
-1.08584
11
4.84901
21
-1.08361
0
LINE
8
BLACK
6
CONTINUOUS
10
4.84901
20
-1.08361
11
4.84553
21
-1.08012
0
LINE
8
BLACK
6
CONTINUOUS
10
4.84553
20
-1.08012
11
4.84329
21
-1.07573
0
LINE
8
BLACK
6
CONTINUOUS
10
4.84329
20
-1.07573
11
4.84252
21
-1.07087
0
LINE
8
BLACK
6
CONTINUOUS
10
4.84252
20
-1.07087
11
4.84329
21
-1.066
0
LINE
8
BLACK
6
CONTINUOUS
10
4.84329
20
-1.066
11
4.84553
21
-1.06161
0
LINE
8
BLACK
6
CONTINUOUS
10
4.84553
20
-1.06161
11
4.84901
21
-1.05813
0
LINE
8
BLACK
6
CONTINUOUS
10
4.84901
20
-1.05813
11
4.8534
21
-1.05589
0
LINE
8
BLACK
6
CONTINUOUS
10
4.8534
20
-1.05589
11
4.85827
21
-1.05512
0
LINE
8
BLACK
6
CONTINUOUS
10
4.85827
20
-1.05512
11
4.86313
21
-1.05589
0
LINE
8
BLACK
6
CONTINUOUS
10
4.86313
20
-1.05589
11
4.86752
21
-1.05813
0
LINE
8
BLACK
6
CONTINUOUS
10
4.86752
20
-1.05813
11
4.87101
21
-1.06161
0
LINE
8
BLACK
6
CONTINUOUS
10
4.87101
20
-1.06161
11
4.87324
21
-1.066
0
LINE
8
BLACK
6
CONTINUOUS
10
4.87324
20
-1.066
11
4.87402
21
-1.07087
0
LINE
8
BLACK
6
CONTINUOUS
10
4.87402
20
-1.07087
11
4.87324
21
-1.07573
0
LINE
8
BLACK
6
CONTINUOUS
10
4.87324
20
-1.07573
11
4.87218
21
-1.07782
0
LINE
8
BLACK
6
CONTINUOUS
10
4.87218
20
-1.07782
11
4.93115
21
-1.13679
0
LINE
8
BLACK
6
CONTINUOUS
10
4.93115
20
-1.13679
11
5.12397
21
-1.13679
0
LINE
8
BLACK
6
CONTINUOUS
10
5.12397
20
-1.13679
11
5.19337
21
-1.06739
0
LINE
8
BLACK
6
CONTINUOUS
10
5.19337
20
-1.06739
11
5.19407
21
-1.06686
0
LINE
8
BLACK
6
CONTINUOUS
10
5.19407
20
-1.06686
11
5.19419
21
-1.06672
0
LINE
8
BLACK
6
CONTINUOUS
10
5.19419
20
-1.06672
11
5.1943
21
-1.06669
0
LINE
8
BLACK
6
CONTINUOUS
10
5.1943
20
-1.06669
11
5.1945
21
-1.06654
0
LINE
8
BLACK
6
CONTINUOUS
10
5.1945
20
-1.06654
11
5.19569
21
-1.06629
0
LINE
8
BLACK
6
CONTINUOUS
10
5.19569
20
-1.06629
11
5.19685
21
-1.06594
0
LINE
8
BLACK
6
CONTINUOUS
10
5.19685
20
-1.06594
11
5.44962
21
-1.06594
0
LINE
8
BLACK
6
CONTINUOUS
10
5.44962
20
-1.06594
11
5.45183
21
-1.06161
0
LINE
8
BLACK
6
CONTINUOUS
10
5.45183
20
-1.06161
11
5.45531
21
-1.05813
0
LINE
8
BLACK
6
CONTINUOUS
10
5.45531
20
-1.05813
11
5.4597
21
-1.05589
0
LINE
8
BLACK
6
CONTINUOUS
10
5.4597
20
-1.05589
11
5.46457
21
-1.05512
0
LINE
8
BLACK
6
CONTINUOUS
10
5.46457
20
-1.05512
11
5.46943
21
-1.05589
0
LINE
8
BLACK
6
CONTINUOUS
10
4.74568
20
-1.04473
11
4.75007
21
-1.04697
0
LINE
8
BLACK
6
CONTINUOUS
10
4.75007
20
-1.04697
11
4.75355
21
-1.05045
0
LINE
8
BLACK
6
CONTINUOUS
10
4.75355
20
-1.05045
11
4.75579
21
-1.05484
0
LINE
8
BLACK
6
CONTINUOUS
10
4.75579
20
-1.05484
11
4.75656
21
-1.05971
0
LINE
8
BLACK
6
CONTINUOUS
10
4.75656
20
-1.05971
11
4.75579
21
-1.06458
0
LINE
8
BLACK
6
CONTINUOUS
10
4.75579
20
-1.06458
11
4.75473
21
-1.06666
0
LINE
8
BLACK
6
CONTINUOUS
10
4.75473
20
-1.06666
11
4.79862
21
-1.11056
0
LINE
8
BLACK
6
CONTINUOUS
10
4.79862
20
-1.11056
11
4.80952
21
-1.11056
0
LINE
8
BLACK
6
CONTINUOUS
10
4.80952
20
-1.11056
11
4.81173
21
-1.10623
0
LINE
8
BLACK
6
CONTINUOUS
10
4.81173
20
-1.10623
11
4.81522
21
-1.10274
0
LINE
8
BLACK
6
CONTINUOUS
10
4.81522
20
-1.10274
11
4.81961
21
-1.10051
0
LINE
8
BLACK
6
CONTINUOUS
10
4.81961
20
-1.10051
11
4.82447
21
-1.09974
0
LINE
8
BLACK
6
CONTINUOUS
10
4.82447
20
-1.09974
11
4.82934
21
-1.10051
0
LINE
8
BLACK
6
CONTINUOUS
10
4.82934
20
-1.10051
11
4.83373
21
-1.10274
0
LINE
8
BLACK
6
CONTINUOUS
10
4.83373
20
-1.10274
11
4.83721
21
-1.10623
0
LINE
8
BLACK
6
CONTINUOUS
10
4.83721
20
-1.10623
11
4.83945
21
-1.11062
0
LINE
8
BLACK
6
CONTINUOUS
10
4.83945
20
-1.11062
11
4.84022
21
-1.11549
0
LINE
8
BLACK
6
CONTINUOUS
10
4.84022
20
-1.11549
11
4.83945
21
-1.12035
0
LINE
8
BLACK
6
CONTINUOUS
10
4.83945
20
-1.12035
11
4.83721
21
-1.12474
0
LINE
8
BLACK
6
CONTINUOUS
10
4.83721
20
-1.12474
11
4.83373
21
-1.12823
0
LINE
8
BLACK
6
CONTINUOUS
10
4.83373
20
-1.12823
11
4.82934
21
-1.13046
0
LINE
8
BLACK
6
CONTINUOUS
10
4.82934
20
-1.13046
11
4.82447
21
-1.13123
0
LINE
8
BLACK
6
CONTINUOUS
10
4.82447
20
-1.13123
11
4.81961
21
-1.13046
0
LINE
8
BLACK
6
CONTINUOUS
10
4.81961
20
-1.13046
11
4.81522
21
-1.12823
0
LINE
8
BLACK
6
CONTINUOUS
10
4.81522
20
-1.12823
11
4.81173
21
-1.12474
0
LINE
8
BLACK
6
CONTINUOUS
10
4.81173
20
-1.12474
11
4.80952
21
-1.12041
0
LINE
8
BLACK
6
CONTINUOUS
10
4.80952
20
-1.12041
11
4.79659
21
-1.12041
0
LINE
8
BLACK
6
CONTINUOUS
10
4.79659
20
-1.12041
11
4.79572
21
-1.12028
0
LINE
8
BLACK
6
CONTINUOUS
10
4.79572
20
-1.12028
11
4.79554
21
-1.12029
0
LINE
8
BLACK
6
CONTINUOUS
10
4.79554
20
-1.12029
11
4.79544
21
-1.12024
0
LINE
8
BLACK
6
CONTINUOUS
10
4.79544
20
-1.12024
11
4.79519
21
-1.1202
0
LINE
8
BLACK
6
CONTINUOUS
10
4.79519
20
-1.1202
11
4.79417
21
-1.11955
0
LINE
8
BLACK
6
CONTINUOUS
10
4.79417
20
-1.11955
11
4.79311
21
-1.11896
0
LINE
8
BLACK
6
CONTINUOUS
10
4.79311
20
-1.11896
11
4.74777
21
-1.07362
0
LINE
8
BLACK
6
CONTINUOUS
10
4.74777
20
-1.07362
11
4.74568
21
-1.07469
0
LINE
8
BLACK
6
CONTINUOUS
10
4.74568
20
-1.07469
11
4.74081
21
-1.07546
0
LINE
8
BLACK
6
CONTINUOUS
10
4.74081
20
-1.07546
11
4.73595
21
-1.07469
0
LINE
8
BLACK
6
CONTINUOUS
10
4.73595
20
-1.07469
11
4.73155
21
-1.07245
0
LINE
8
BLACK
6
CONTINUOUS
10
4.73155
20
-1.07245
11
4.72807
21
-1.06897
0
LINE
8
BLACK
6
CONTINUOUS
10
4.72807
20
-1.06897
11
4.72583
21
-1.06458
0
LINE
8
BLACK
6
CONTINUOUS
10
4.72583
20
-1.06458
11
4.72506
21
-1.05971
0
LINE
8
BLACK
6
CONTINUOUS
10
4.72506
20
-1.05971
11
4.72583
21
-1.05484
0
LINE
8
BLACK
6
CONTINUOUS
10
4.72583
20
-1.05484
11
4.72807
21
-1.05045
0
LINE
8
BLACK
6
CONTINUOUS
10
4.72807
20
-1.05045
11
4.73155
21
-1.04697
0
LINE
8
BLACK
6
CONTINUOUS
10
4.73155
20
-1.04697
11
4.73595
21
-1.04473
0
LINE
8
BLACK
6
CONTINUOUS
10
4.73595
20
-1.04473
11
4.74081
21
-1.04396
0
LINE
8
BLACK
6
CONTINUOUS
10
4.74081
20
-1.04396
11
4.74568
21
-1.04473
0
LINE
8
BLACK
6
CONTINUOUS
10
4.49469
20
-0.645475
11
4.49908
21
-0.647712
0
LINE
8
BLACK
6
CONTINUOUS
10
4.49908
20
-0.647712
11
4.50257
21
-0.651196
0
LINE
8
BLACK
6
CONTINUOUS
10
4.50257
20
-0.651196
11
4.5048
21
-0.655586
0
LINE
8
BLACK
6
CONTINUOUS
10
4.5048
20
-0.655586
11
4.50558
21
-0.660453
0
LINE
8
BLACK
6
CONTINUOUS
10
4.50558
20
-0.660453
11
4.5048
21
-0.665319
0
LINE
8
BLACK
6
CONTINUOUS
10
4.5048
20
-0.665319
11
4.50257
21
-0.669709
0
LINE
8
BLACK
6
CONTINUOUS
10
4.50257
20
-0.669709
11
4.49908
21
-0.673193
0
LINE
8
BLACK
6
CONTINUOUS
10
4.49908
20
-0.673193
11
4.49469
21
-0.67543
0
LINE
8
BLACK
6
CONTINUOUS
10
4.49469
20
-0.67543
11
4.48983
21
-0.676201
0
LINE
8
BLACK
6
CONTINUOUS
10
4.48983
20
-0.676201
11
4.48496
21
-0.67543
0
LINE
8
BLACK
6
CONTINUOUS
10
4.48496
20
-0.67543
11
4.48057
21
-0.673193
0
LINE
8
BLACK
6
CONTINUOUS
10
4.48057
20
-0.673193
11
4.47709
21
-0.669709
0
LINE
8
BLACK
6
CONTINUOUS
10
4.47709
20
-0.669709
11
4.47488
21
-0.665374
0
LINE
8
BLACK
6
CONTINUOUS
10
4.47488
20
-0.665374
11
4.27376
21
-0.665374
0
LINE
8
BLACK
6
CONTINUOUS
10
4.27376
20
-0.665374
11
4.18066
21
-0.758474
0
LINE
8
BLACK
6
CONTINUOUS
10
4.18066
20
-0.758474
11
4.18066
21
-0.824928
0
LINE
8
BLACK
6
CONTINUOUS
10
4.18066
20
-0.824928
11
4.18053
21
-0.825795
0
LINE
8
BLACK
6
CONTINUOUS
10
4.18053
20
-0.825795
11
4.18055
21
-0.825976
0
LINE
8
BLACK
6
CONTINUOUS
10
4.18055
20
-0.825976
11
4.18049
21
-0.826074
0
LINE
8
BLACK
6
CONTINUOUS
10
4.18049
20
-0.826074
11
4.18046
21
-0.826326
0
LINE
8
BLACK
6
CONTINUOUS
10
4.18046
20
-0.826326
11
4.1798
21
-0.827344
0
LINE
8
BLACK
6
CONTINUOUS
10
4.1798
20
-0.827344
11
4.17922
21
-0.828408
0
LINE
8
BLACK
6
CONTINUOUS
10
4.17922
20
-0.828408
11
4.09154
21
-0.916091
0
LINE
8
BLACK
6
CONTINUOUS
10
4.09154
20
-0.916091
11
4.09154
21
-1.04804
0
LINE
8
BLACK
6
CONTINUOUS
10
4.09154
20
-1.04804
11
4.09587
21
-1.05025
0
LINE
8
BLACK
6
CONTINUOUS
10
4.09587
20
-1.05025
11
4.09935
21
-1.05374
0
LINE
8
BLACK
6
CONTINUOUS
10
4.09935
20
-1.05374
11
4.10159
21
-1.05813
0
LINE
8
BLACK
6
CONTINUOUS
10
4.10159
20
-1.05813
11
4.10236
21
-1.06299
0
LINE
8
BLACK
6
CONTINUOUS
10
4.10236
20
-1.06299
11
4.10159
21
-1.06786
0
LINE
8
BLACK
6
CONTINUOUS
10
4.10159
20
-1.06786
11
4.09935
21
-1.07225
0
LINE
8
BLACK
6
CONTINUOUS
10
4.09935
20
-1.07225
11
4.09587
21
-1.07573
0
LINE
8
BLACK
6
CONTINUOUS
10
4.09587
20
-1.07573
11
4.09148
21
-1.07797
0
LINE
8
BLACK
6
CONTINUOUS
10
4.09148
20
-1.07797
11
4.08661
21
-1.07874
0
LINE
8
BLACK
6
CONTINUOUS
10
4.08661
20
-1.07874
11
4.08175
21
-1.07797
0
LINE
8
BLACK
6
CONTINUOUS
10
4.08175
20
-1.07797
11
4.07736
21
-1.07573
0
LINE
8
BLACK
6
CONTINUOUS
10
4.07736
20
-1.07573
11
4.07387
21
-1.07225
0
LINE
8
BLACK
6
CONTINUOUS
10
4.07387
20
-1.07225
11
4.07166
21
-1.06791
0
LINE
8
BLACK
6
CONTINUOUS
10
4.07166
20
-1.06791
11
3.95849
21
-1.06791
0
LINE
8
BLACK
6
CONTINUOUS
10
3.95849
20
-1.06791
11
3.95762
21
-1.06779
0
LINE
8
BLACK
6
CONTINUOUS
10
3.95762
20
-1.06779
11
3.95744
21
-1.0678
0
LINE
8
BLACK
6
CONTINUOUS
10
3.95744
20
-1.0678
11
3.95734
21
-1.06775
0
LINE
8
BLACK
6
CONTINUOUS
10
3.95734
20
-1.06775
11
3.95709
21
-1.06771
0
LINE
8
BLACK
6
CONTINUOUS
10
3.95709
20
-1.06771
11
3.95607
21
-1.06705
0
LINE
8
BLACK
6
CONTINUOUS
10
3.95607
20
-1.06705
11
3.95501
21
-1.06647
0
LINE
8
BLACK
6
CONTINUOUS
10
3.95501
20
-1.06647
11
3.87771
21
-0.989173
0
LINE
8
BLACK
6
CONTINUOUS
10
3.87771
20
-0.989173
11
3.50314
21
-0.989173
0
LINE
8
BLACK
6
CONTINUOUS
10
3.50314
20
-0.989173
11
3.50093
21
-0.993508
0
LINE
8
BLACK
6
CONTINUOUS
10
3.50093
20
-0.993508
11
3.49745
21
-0.996992
0
LINE
8
BLACK
6
CONTINUOUS
10
3.49745
20
-0.996992
11
3.49306
21
-0.999229
0
LINE
8
BLACK
6
CONTINUOUS
10
3.49306
20
-0.999229
11
3.48819
21
-1
0
LINE
8
BLACK
6
CONTINUOUS
10
3.48819
20
-1
11
3.48332
21
-0.999229
0
LINE
8
BLACK
6
CONTINUOUS
10
3.48332
20
-0.999229
11
3.47893
21
-0.996992
0
LINE
8
BLACK
6
CONTINUOUS
10
3.47893
20
-0.996992
11
3.47545
21
-0.993508
0
LINE
8
BLACK
6
CONTINUOUS
10
3.47545
20
-0.993508
11
3.47321
21
-0.989118
0
LINE
8
BLACK
6
CONTINUOUS
10
3.47321
20
-0.989118
11
3.47244
21
-0.984252
0
LINE
8
BLACK
6
CONTINUOUS
10
3.47244
20
-0.984252
11
3.47321
21
-0.979386
0
LINE
8
BLACK
6
CONTINUOUS
10
3.47321
20
-0.979386
11
3.47545
21
-0.974996
0
LINE
8
BLACK
6
CONTINUOUS
10
3.47545
20
-0.974996
11
3.47893
21
-0.971512
0
LINE
8
BLACK
6
CONTINUOUS
10
3.47893
20
-0.971512
11
3.48332
21
-0.969275
0
LINE
8
BLACK
6
CONTINUOUS
10
3.48332
20
-0.969275
11
3.48819
21
-0.968504
0
LINE
8
BLACK
6
CONTINUOUS
10
3.48819
20
-0.968504
11
3.49306
21
-0.969275
0
LINE
8
BLACK
6
CONTINUOUS
10
3.49306
20
-0.969275
11
3.49745
21
-0.971512
0
LINE
8
BLACK
6
CONTINUOUS
10
3.49745
20
-0.971512
11
3.50093
21
-0.974996
0
LINE
8
BLACK
6
CONTINUOUS
10
3.50093
20
-0.974996
11
3.50314
21
-0.979331
0
LINE
8
BLACK
6
CONTINUOUS
10
3.50314
20
-0.979331
11
3.87975
21
-0.979331
0
LINE
8
BLACK
6
CONTINUOUS
10
3.87975
20
-0.979331
11
3.88062
21
-0.979456
0
LINE
8
BLACK
6
CONTINUOUS
10
3.88062
20
-0.979456
11
3.8808
21
-0.979444
0
LINE
8
BLACK
6
CONTINUOUS
10
3.8808
20
-0.979444
11
3.8809
21
-0.979497
0
LINE
8
BLACK
6
CONTINUOUS
10
3.8809
20
-0.979497
11
3.88115
21
-0.979533
0
LINE
8
BLACK
6
CONTINUOUS
10
3.88115
20
-0.979533
11
3.88217
21
-0.980191
0
LINE
8
BLACK
6
CONTINUOUS
10
3.88217
20
-0.980191
11
3.88323
21
-0.980772
0
LINE
8
BLACK
6
CONTINUOUS
10
3.88323
20
-0.980772
11
3.96053
21
-1.05807
0
LINE
8
BLACK
6
CONTINUOUS
10
3.96053
20
-1.05807
11
4.07166
21
-1.05807
0
LINE
8
BLACK
6
CONTINUOUS
10
4.07166
20
-1.05807
11
4.07387
21
-1.05374
0
LINE
8
BLACK
6
CONTINUOUS
10
4.07387
20
-1.05374
11
4.07736
21
-1.05025
0
LINE
8
BLACK
6
CONTINUOUS
10
4.07736
20
-1.05025
11
4.08169
21
-1.04804
0
LINE
8
BLACK
6
CONTINUOUS
10
4.08169
20
-1.04804
11
4.08169
21
-0.914053
0
LINE
8
BLACK
6
CONTINUOUS
10
4.08169
20
-0.914053
11
4.08182
21
-0.913185
0
LINE
8
BLACK
6
CONTINUOUS
10
4.08182
20
-0.913185
11
4.08181
21
-0.913004
0
LINE
8
BLACK
6
CONTINUOUS
10
4.08181
20
-0.913004
11
4.08186
21
-0.912907
0
LINE
8
BLACK
6
CONTINUOUS
10
4.08186
20
-0.912907
11
4.0819
21
-0.912655
0
LINE
8
BLACK
6
CONTINUOUS
10
4.0819
20
-0.912655
11
4.08255
21
-0.911636
0
LINE
8
BLACK
6
CONTINUOUS
10
4.08255
20
-0.911636
11
4.08313
21
-0.910573
0
LINE
8
BLACK
6
CONTINUOUS
10
4.08313
20
-0.910573
11
4.17082
21
-0.82289
0
LINE
8
BLACK
6
CONTINUOUS
10
4.17082
20
-0.82289
11
4.17082
21
-0.756436
0
LINE
8
BLACK
6
CONTINUOUS
10
4.17082
20
-0.756436
11
4.17094
21
-0.755568
0
LINE
8
BLACK
6
CONTINUOUS
10
4.17094
20
-0.755568
11
4.17093
21
-0.755387
0
LINE
8
BLACK
6
CONTINUOUS
10
4.17093
20
-0.755387
11
4.17098
21
-0.75529
0
LINE
8
BLACK
6
CONTINUOUS
10
4.17098
20
-0.75529
11
4.17102
21
-0.755038
0
LINE
8
BLACK
6
CONTINUOUS
10
4.17102
20
-0.755038
11
4.17168
21
-0.75402
0
LINE
8
BLACK
6
CONTINUOUS
10
4.17168
20
-0.75402
11
4.17226
21
-0.752956
0
LINE
8
BLACK
6
CONTINUOUS
10
4.17226
20
-0.752956
11
4.26824
21
-0.656973
0
LINE
8
BLACK
6
CONTINUOUS
10
4.26824
20
-0.656973
11
4.26894
21
-0.656449
0
LINE
8
BLACK
6
CONTINUOUS
10
4.26894
20
-0.656449
11
4.26906
21
-0.656311
0
LINE
8
BLACK
6
CONTINUOUS
10
4.26906
20
-0.656311
11
4.26917
21
-0.65628
0
LINE
8
BLACK
6
CONTINUOUS
10
4.26917
20
-0.65628
11
4.26937
21
-0.656128
0
LINE
8
BLACK
6
CONTINUOUS
10
4.26937
20
-0.656128
11
4.27056
21
-0.655873
0
LINE
8
BLACK
6
CONTINUOUS
10
4.27056
20
-0.655873
11
4.27172
21
-0.655531
0
LINE
8
BLACK
6
CONTINUOUS
10
4.27172
20
-0.655531
11
4.47488
21
-0.655531
0
LINE
8
BLACK
6
CONTINUOUS
10
4.47488
20
-0.655531
11
4.47709
21
-0.651196
0
LINE
8
BLACK
6
CONTINUOUS
10
4.47709
20
-0.651196
11
4.48057
21
-0.647712
0
LINE
8
BLACK
6
CONTINUOUS
10
4.48057
20
-0.647712
11
4.48496
21
-0.645475
0
LINE
8
BLACK
6
CONTINUOUS
10
4.48496
20
-0.645475
11
4.48983
21
-0.644705
0
LINE
8
BLACK
6
CONTINUOUS
10
4.48983
20
-0.644705
11
4.49469
21
-0.645475
0
LINE
8
BLACK
6
CONTINUOUS
10
4.60624
20
-0.654314
11
4.61063
21
-0.656551
0
LINE
8
BLACK
6
CONTINUOUS
10
4.61063
20
-0.656551
11
4.61412
21
-0.660035
0
LINE
8
BLACK
6
CONTINUOUS
10
4.61412
20
-0.660035
11
4.61635
21
-0.664425
0
LINE
8
BLACK
6
CONTINUOUS
10
4.61635
20
-0.664425
11
4.61712
21
-0.669291
0
LINE
8
BLACK
6
CONTINUOUS
10
4.61712
20
-0.669291
11
4.61635
21
-0.674157
0
LINE
8
BLACK
6
CONTINUOUS
10
4.61635
20
-0.674157
11
4.61412
21
-0.678547
0
LINE
8
BLACK
6
CONTINUOUS
10
4.61412
20
-0.678547
11
4.61063
21
-0.682031
0
LINE
8
BLACK
6
CONTINUOUS
10
4.61063
20
-0.682031
11
4.6063
21
-0.68424
0
LINE
8
BLACK
6
CONTINUOUS
10
4.6063
20
-0.68424
11
4.6063
21
-0.76993
0
LINE
8
BLACK
6
CONTINUOUS
10
4.6063
20
-0.76993
11
4.83025
21
-0.993884
0
LINE
8
BLACK
6
CONTINUOUS
10
4.83025
20
-0.993884
11
4.83078
21
-0.994587
0
LINE
8
BLACK
6
CONTINUOUS
10
4.83078
20
-0.994587
11
4.83091
21
-0.994706
0
LINE
8
BLACK
6
CONTINUOUS
10
4.83091
20
-0.994706
11
4.83094
21
-0.994812
0
LINE
8
BLACK
6
CONTINUOUS
10
4.83094
20
-0.994812
11
4.8311
21
-0.995016
0
LINE
8
BLACK
6
CONTINUOUS
10
4.8311
20
-0.995016
11
4.83135
21
-0.996201
0
LINE
8
BLACK
6
CONTINUOUS
10
4.83135
20
-0.996201
11
4.83169
21
-0.997364
0
LINE
8
BLACK
6
CONTINUOUS
10
4.83169
20
-0.997364
11
4.83169
21
-1.02442
0
LINE
8
BLACK
6
CONTINUOUS
10
4.83169
20
-1.02442
11
4.83603
21
-1.02663
0
LINE
8
BLACK
6
CONTINUOUS
10
4.83603
20
-1.02663
11
4.83951
21
-1.03011
0
LINE
8
BLACK
6
CONTINUOUS
10
4.83951
20
-1.03011
11
4.84175
21
-1.0345
0
LINE
8
BLACK
6
CONTINUOUS
10
4.84175
20
-1.0345
11
4.84252
21
-1.03937
0
LINE
8
BLACK
6
CONTINUOUS
10
4.84252
20
-1.03937
11
4.84175
21
-1.04424
0
LINE
8
BLACK
6
CONTINUOUS
10
4.84175
20
-1.04424
11
4.83951
21
-1.04863
0
LINE
8
BLACK
6
CONTINUOUS
10
4.83951
20
-1.04863
11
4.83603
21
-1.05211
0
LINE
8
BLACK
6
CONTINUOUS
10
4.83603
20
-1.05211
11
4.83164
21
-1.05435
0
LINE
8
BLACK
6
CONTINUOUS
10
4.83164
20
-1.05435
11
4.82677
21
-1.05512
0
LINE
8
BLACK
6
CONTINUOUS
10
4.82677
20
-1.05512
11
4.82191
21
-1.05435
0
LINE
8
BLACK
6
CONTINUOUS
10
4.82191
20
-1.05435
11
4.81752
21
-1.05211
0
LINE
8
BLACK
6
CONTINUOUS
10
4.81752
20
-1.05211
11
4.81403
21
-1.04863
0
LINE
8
BLACK
6
CONTINUOUS
10
4.81403
20
-1.04863
11
4.81179
21
-1.04424
0
LINE
8
BLACK
6
CONTINUOUS
10
4.81179
20
-1.04424
11
4.81102
21
-1.03937
0
LINE
8
BLACK
6
CONTINUOUS
10
4.81102
20
-1.03937
11
4.81179
21
-1.0345
0
LINE
8
BLACK
6
CONTINUOUS
10
4.81179
20
-1.0345
11
4.81403
21
-1.03011
0
LINE
8
BLACK
6
CONTINUOUS
10
4.81403
20
-1.03011
11
4.81752
21
-1.02663
0
LINE
8
BLACK
6
CONTINUOUS
10
4.81752
20
-1.02663
11
4.82185
21
-1.02442
0
LINE
8
BLACK
6
CONTINUOUS
10
4.82185
20
-1.02442
11
4.82185
21
-0.999403
0
LINE
8
BLACK
6
CONTINUOUS
10
4.82185
20
-0.999403
11
4.5979
21
-0.775448
0
LINE
8
BLACK
6
CONTINUOUS
10
4.5979
20
-0.775448
11
4.59737
21
-0.774746
0
LINE
8
BLACK
6
CONTINUOUS
10
4.59737
20
-0.774746
11
4.59723
21
-0.774627
0
LINE
8
BLACK
6
CONTINUOUS
10
4.59723
20
-0.774627
11
4.5972
21
-0.774521
0
LINE
8
BLACK
6
CONTINUOUS
10
4.5972
20
-0.774521
11
4.59705
21
-0.774317
0
LINE
8
BLACK
6
CONTINUOUS
10
4.59705
20
-0.774317
11
4.5968
21
-0.773132
0
LINE
8
BLACK
6
CONTINUOUS
10
4.5968
20
-0.773132
11
4.59645
21
-0.771968
0
LINE
8
BLACK
6
CONTINUOUS
10
4.59645
20
-0.771968
11
4.59645
21
-0.68424
0
LINE
8
BLACK
6
CONTINUOUS
10
4.59645
20
-0.68424
11
4.59212
21
-0.682031
0
LINE
8
BLACK
6
CONTINUOUS
10
4.59212
20
-0.682031
11
4.58864
21
-0.678547
0
LINE
8
BLACK
6
CONTINUOUS
10
4.58864
20
-0.678547
11
4.5864
21
-0.674157
0
LINE
8
BLACK
6
CONTINUOUS
10
4.5864
20
-0.674157
11
4.58563
21
-0.669291
0
LINE
8
BLACK
6
CONTINUOUS
10
4.58563
20
-0.669291
11
4.5864
21
-0.664425
0
LINE
8
BLACK
6
CONTINUOUS
10
4.5864
20
-0.664425
11
4.58864
21
-0.660035
0
LINE
8
BLACK
6
CONTINUOUS
10
4.58864
20
-0.660035
11
4.59212
21
-0.656551
0
LINE
8
BLACK
6
CONTINUOUS
10
4.59212
20
-0.656551
11
4.59651
21
-0.654314
0
LINE
8
BLACK
6
CONTINUOUS
10
4.59651
20
-0.654314
11
4.60138
21
-0.653543
0
LINE
8
BLACK
6
CONTINUOUS
10
4.60138
20
-0.653543
11
4.60624
21
-0.654314
0
LINE
8
BLACK
6
CONTINUOUS
10
5.09941
20
-0.989174
11
5.00099
21
-0.989174
0
LINE
8
BLACK
6
CONTINUOUS
10
5.00099
20
-0.989174
11
5.00099
21
-0.871064
0
LINE
8
BLACK
6
CONTINUOUS
10
5.00099
20
-0.871064
11
5.09941
21
-0.871064
0
LINE
8
BLACK
6
CONTINUOUS
10
5.09941
20
-0.871064
11
5.09941
21
-0.989174
0
LINE
8
BLACK
6
CONTINUOUS
10
5.54036
20
-0.989174
11
5.44193
21
-0.989174
0
LINE
8
BLACK
6
CONTINUOUS
10
5.44193
20
-0.989174
11
5.44193
21
-0.871064
0
LINE
8
BLACK
6
CONTINUOUS
10
5.44193
20
-0.871064
11
5.54036
21
-0.871064
0
LINE
8
BLACK
6
CONTINUOUS
10
5.54036
20
-0.871064
11
5.54036
21
-0.989174
0
LINE
8
BLACK
6
CONTINUOUS
10
4.55127
20
-0.595688
11
4.55661
21
-0.597288
0
LINE
8
BLACK
6
CONTINUOUS
10
4.55661
20
-0.597288
11
4.5613
21
-0.600323
0
LINE
8
BLACK
6
CONTINUOUS
10
4.5613
20
-0.600323
11
4.56494
21
-0.604551
0
LINE
8
BLACK
6
CONTINUOUS
10
4.56494
20
-0.604551
11
4.56725
21
-0.609632
0
LINE
8
BLACK
6
CONTINUOUS
10
4.56725
20
-0.609632
11
4.56804
21
-0.615157
0
LINE
8
BLACK
6
CONTINUOUS
10
4.56804
20
-0.615157
11
4.56804
21
-0.638779
0
LINE
8
BLACK
6
CONTINUOUS
10
4.56804
20
-0.638779
11
4.56804
21
-0.63902
0
LINE
8
BLACK
6
CONTINUOUS
10
4.56804
20
-0.63902
11
4.56718
21
-0.644535
0
LINE
8
BLACK
6
CONTINUOUS
10
4.56718
20
-0.644535
11
4.56481
21
-0.649587
0
LINE
8
BLACK
6
CONTINUOUS
10
4.56481
20
-0.649587
11
4.56112
21
-0.65377
0
LINE
8
BLACK
6
CONTINUOUS
10
4.56112
20
-0.65377
11
4.5564
21
-0.656748
0
LINE
8
BLACK
6
CONTINUOUS
10
4.5564
20
-0.656748
11
4.55328
21
-0.657639
0
LINE
8
BLACK
6
CONTINUOUS
10
4.55328
20
-0.657639
11
4.55328
21
-0.751014
0
LINE
8
BLACK
6
CONTINUOUS
10
4.55328
20
-0.751014
11
4.55661
21
-0.752012
0
LINE
8
BLACK
6
CONTINUOUS
10
4.55661
20
-0.752012
11
4.5613
21
-0.755048
0
LINE
8
BLACK
6
CONTINUOUS
10
4.5613
20
-0.755048
11
4.56494
21
-0.759276
0
LINE
8
BLACK
6
CONTINUOUS
10
4.56494
20
-0.759276
11
4.56725
21
-0.764357
0
LINE
8
BLACK
6
CONTINUOUS
10
4.56725
20
-0.764357
11
4.56804
21
-0.769882
0
LINE
8
BLACK
6
CONTINUOUS
10
4.56804
20
-0.769882
11
4.56804
21
-0.813189
0
LINE
8
BLACK
6
CONTINUOUS
10
4.56804
20
-0.813189
11
4.56804
21
-0.813429
0
LINE
8
BLACK
6
CONTINUOUS
10
4.56804
20
-0.813429
11
4.56718
21
-0.818944
0
LINE
8
BLACK
6
CONTINUOUS
10
4.56718
20
-0.818944
11
4.56481
21
-0.823996
0
LINE
8
BLACK
6
CONTINUOUS
10
4.56481
20
-0.823996
11
4.56112
21
-0.82818
0
LINE
8
BLACK
6
CONTINUOUS
10
4.56112
20
-0.82818
11
4.5564
21
-0.831158
0
LINE
8
BLACK
6
CONTINUOUS
10
4.5564
20
-0.831158
11
4.55103
21
-0.832692
0
LINE
8
BLACK
6
CONTINUOUS
10
4.55103
20
-0.832692
11
4.54545
21
-0.832657
0
LINE
8
BLACK
6
CONTINUOUS
10
4.54545
20
-0.832657
11
4.5401
21
-0.831058
0
LINE
8
BLACK
6
CONTINUOUS
10
4.5401
20
-0.831058
11
4.53542
21
-0.828023
0
LINE
8
BLACK
6
CONTINUOUS
10
4.53542
20
-0.828023
11
4.53177
21
-0.823794
0
LINE
8
BLACK
6
CONTINUOUS
10
4.53177
20
-0.823794
11
4.52946
21
-0.818714
0
LINE
8
BLACK
6
CONTINUOUS
10
4.52946
20
-0.818714
11
4.52867
21
-0.813189
0
LINE
8
BLACK
6
CONTINUOUS
10
4.52867
20
-0.813189
11
4.52867
21
-0.769882
0
LINE
8
BLACK
6
CONTINUOUS
10
4.52867
20
-0.769882
11
4.52867
21
-0.769641
0
LINE
8
BLACK
6
CONTINUOUS
10
4.52867
20
-0.769641
11
4.52953
21
-0.764126
0
LINE
8
BLACK
6
CONTINUOUS
10
4.52953
20
-0.764126
11
4.5319
21
-0.759074
0
LINE
8
BLACK
6
CONTINUOUS
10
4.5319
20
-0.759074
11
4.5356
21
-0.754891
0
LINE
8
BLACK
6
CONTINUOUS
10
4.5356
20
-0.754891
11
4.54032
21
-0.751912
0
LINE
8
BLACK
6
CONTINUOUS
10
4.54032
20
-0.751912
11
4.54344
21
-0.751022
0
LINE
8
BLACK
6
CONTINUOUS
10
4.54344
20
-0.751022
11
4.54344
21
-0.657646
0
LINE
8
BLACK
6
CONTINUOUS
10
4.54344
20
-0.657646
11
4.5401
21
-0.656649
0
LINE
8
BLACK
6
CONTINUOUS
10
4.5401
20
-0.656649
11
4.53542
21
-0.653613
0
LINE
8
BLACK
6
CONTINUOUS
10
4.53542
20
-0.653613
11
4.53177
21
-0.649385
0
LINE
8
BLACK
6
CONTINUOUS
10
4.53177
20
-0.649385
11
4.52946
21
-0.644304
0
LINE
8
BLACK
6
CONTINUOUS
10
4.52946
20
-0.644304
11
4.52867
21
-0.638779
0
LINE
8
BLACK
6
CONTINUOUS
10
4.52867
20
-0.638779
11
4.52867
21
-0.631889
0
LINE
8
BLACK
6
CONTINUOUS
10
4.52867
20
-0.631889
11
4.22789
21
-0.631889
0
LINE
8
BLACK
6
CONTINUOUS
10
4.22789
20
-0.631889
11
4.22789
21
-0.638779
0
LINE
8
BLACK
6
CONTINUOUS
10
4.22789
20
-0.638779
11
4.22788
21
-0.63902
0
LINE
8
BLACK
6
CONTINUOUS
10
4.22788
20
-0.63902
11
4.22702
21
-0.644535
0
LINE
8
BLACK
6
CONTINUOUS
10
4.22702
20
-0.644535
11
4.22465
21
-0.649587
0
LINE
8
BLACK
6
CONTINUOUS
10
4.22465
20
-0.649587
11
4.22096
21
-0.65377
0
LINE
8
BLACK
6
CONTINUOUS
10
4.22096
20
-0.65377
11
4.21624
21
-0.656748
0
LINE
8
BLACK
6
CONTINUOUS
10
4.21624
20
-0.656748
11
4.21087
21
-0.658282
0
LINE
8
BLACK
6
CONTINUOUS
10
4.21087
20
-0.658282
11
4.20529
21
-0.658248
0
LINE
8
BLACK
6
CONTINUOUS
10
4.20529
20
-0.658248
11
4.19994
21
-0.656649
0
LINE
8
BLACK
6
CONTINUOUS
10
4.19994
20
-0.656649
11
4.19526
21
-0.653613
0
LINE
8
BLACK
6
CONTINUOUS
10
4.19526
20
-0.653613
11
4.19162
21
-0.649385
0
LINE
8
BLACK
6
CONTINUOUS
10
4.19162
20
-0.649385
11
4.18931
21
-0.644304
0
LINE
8
BLACK
6
CONTINUOUS
10
4.18931
20
-0.644304
11
4.18851
21
-0.638779
0
LINE
8
BLACK
6
CONTINUOUS
10
4.18851
20
-0.638779
11
4.18851
21
-0.615157
0
LINE
8
BLACK
6
CONTINUOUS
10
4.18851
20
-0.615157
11
4.18852
21
-0.614917
0
LINE
8
BLACK
6
CONTINUOUS
10
4.18852
20
-0.614917
11
4.18938
21
-0.609402
0
LINE
8
BLACK
6
CONTINUOUS
10
4.18938
20
-0.609402
11
4.19175
21
-0.60435
0
LINE
8
BLACK
6
CONTINUOUS
10
4.19175
20
-0.60435
11
4.19544
21
-0.600166
0
LINE
8
BLACK
6
CONTINUOUS
10
4.19544
20
-0.600166
11
4.20016
21
-0.597188
0
LINE
8
BLACK
6
CONTINUOUS
10
4.20016
20
-0.597188
11
4.20553
21
-0.595654
0
LINE
8
BLACK
6
CONTINUOUS
10
4.20553
20
-0.595654
11
4.21111
21
-0.595688
0
LINE
8
BLACK
6
CONTINUOUS
10
4.21111
20
-0.595688
11
4.21646
21
-0.597288
0
LINE
8
BLACK
6
CONTINUOUS
10
4.21646
20
-0.597288
11
4.22114
21
-0.600323
0
LINE
8
BLACK
6
CONTINUOUS
10
4.22114
20
-0.600323
11
4.22478
21
-0.604551
0
LINE
8
BLACK
6
CONTINUOUS
10
4.22478
20
-0.604551
11
4.22709
21
-0.609632
0
LINE
8
BLACK
6
CONTINUOUS
10
4.22709
20
-0.609632
11
4.22789
21
-0.615157
0
LINE
8
BLACK
6
CONTINUOUS
10
4.22789
20
-0.615157
11
4.22789
21
-0.622047
0
LINE
8
BLACK
6
CONTINUOUS
10
4.22789
20
-0.622047
11
4.52867
21
-0.622047
0
LINE
8
BLACK
6
CONTINUOUS
10
4.52867
20
-0.622047
11
4.52867
21
-0.615157
0
LINE
8
BLACK
6
CONTINUOUS
10
4.52867
20
-0.615157
11
4.52867
21
-0.614917
0
LINE
8
BLACK
6
CONTINUOUS
10
4.52867
20
-0.614917
11
4.52953
21
-0.609402
0
LINE
8
BLACK
6
CONTINUOUS
10
4.52953
20
-0.609402
11
4.5319
21
-0.60435
0
LINE
8
BLACK
6
CONTINUOUS
10
4.5319
20
-0.60435
11
4.5356
21
-0.600166
0
LINE
8
BLACK
6
CONTINUOUS
10
4.5356
20
-0.600166
11
4.54032
21
-0.597188
0
LINE
8
BLACK
6
CONTINUOUS
10
4.54032
20
-0.597188
11
4.54569
21
-0.595654
0
LINE
8
BLACK
6
CONTINUOUS
10
4.54569
20
-0.595654
11
4.55127
21
-0.595688
0
LINE
8
BLACK
6
CONTINUOUS
10
4.48321
20
-0.713369
11
4.4876
21
-0.715606
0
LINE
8
BLACK
6
CONTINUOUS
10
4.4876
20
-0.715606
11
4.49109
21
-0.71909
0
LINE
8
BLACK
6
CONTINUOUS
10
4.49109
20
-0.71909
11
4.49332
21
-0.72348
0
LINE
8
BLACK
6
CONTINUOUS
10
4.49332
20
-0.72348
11
4.49409
21
-0.728346
0
LINE
8
BLACK
6
CONTINUOUS
10
4.49409
20
-0.728346
11
4.49332
21
-0.733213
0
LINE
8
BLACK
6
CONTINUOUS
10
4.49332
20
-0.733213
11
4.49109
21
-0.737603
0
LINE
8
BLACK
6
CONTINUOUS
10
4.49109
20
-0.737603
11
4.4876
21
-0.741087
0
LINE
8
BLACK
6
CONTINUOUS
10
4.4876
20
-0.741087
11
4.48321
21
-0.743324
0
LINE
8
BLACK
6
CONTINUOUS
10
4.48321
20
-0.743324
11
4.47835
21
-0.744094
0
LINE
8
BLACK
6
CONTINUOUS
10
4.47835
20
-0.744094
11
4.47348
21
-0.743324
0
LINE
8
BLACK
6
CONTINUOUS
10
4.47348
20
-0.743324
11
4.46909
21
-0.741087
0
LINE
8
BLACK
6
CONTINUOUS
10
4.46909
20
-0.741087
11
4.46561
21
-0.737603
0
LINE
8
BLACK
6
CONTINUOUS
10
4.46561
20
-0.737603
11
4.4634
21
-0.733268
0
LINE
8
BLACK
6
CONTINUOUS
10
4.4634
20
-0.733268
11
4.41456
21
-0.733268
0
LINE
8
BLACK
6
CONTINUOUS
10
4.41456
20
-0.733268
11
4.41235
21
-0.737603
0
LINE
8
BLACK
6
CONTINUOUS
10
4.41235
20
-0.737603
11
4.40886
21
-0.741087
0
LINE
8
BLACK
6
CONTINUOUS
10
4.40886
20
-0.741087
11
4.40447
21
-0.743324
0
LINE
8
BLACK
6
CONTINUOUS
10
4.40447
20
-0.743324
11
4.39961
21
-0.744094
0
LINE
8
BLACK
6
CONTINUOUS
10
4.39961
20
-0.744094
11
4.39474
21
-0.743324
0
LINE
8
BLACK
6
CONTINUOUS
10
4.39474
20
-0.743324
11
4.39035
21
-0.741087
0
LINE
8
BLACK
6
CONTINUOUS
10
4.39035
20
-0.741087
11
4.38687
21
-0.737603
0
LINE
8
BLACK
6
CONTINUOUS
10
4.38687
20
-0.737603
11
4.38463
21
-0.733213
0
LINE
8
BLACK
6
CONTINUOUS
10
4.38463
20
-0.733213
11
4.38386
21
-0.728346
0
LINE
8
BLACK
6
CONTINUOUS
10
4.38386
20
-0.728346
11
4.38463
21
-0.72348
0
LINE
8
BLACK
6
CONTINUOUS
10
4.38463
20
-0.72348
11
4.38687
21
-0.71909
0
LINE
8
BLACK
6
CONTINUOUS
10
4.38687
20
-0.71909
11
4.39035
21
-0.715606
0
LINE
8
BLACK
6
CONTINUOUS
10
4.39035
20
-0.715606
11
4.39474
21
-0.713369
0
LINE
8
BLACK
6
CONTINUOUS
10
4.39474
20
-0.713369
11
4.39961
21
-0.712598
0
LINE
8
BLACK
6
CONTINUOUS
10
4.39961
20
-0.712598
11
4.40447
21
-0.713369
0
LINE
8
BLACK
6
CONTINUOUS
10
4.40447
20
-0.713369
11
4.40886
21
-0.715606
0
LINE
8
BLACK
6
CONTINUOUS
10
4.40886
20
-0.715606
11
4.41235
21
-0.71909
0
LINE
8
BLACK
6
CONTINUOUS
10
4.41235
20
-0.71909
11
4.41456
21
-0.723425
0
LINE
8
BLACK
6
CONTINUOUS
10
4.41456
20
-0.723425
11
4.4634
21
-0.723425
0
LINE
8
BLACK
6
CONTINUOUS
10
4.4634
20
-0.723425
11
4.46561
21
-0.71909
0
LINE
8
BLACK
6
CONTINUOUS
10
4.46561
20
-0.71909
11
4.46909
21
-0.715606
0
LINE
8
BLACK
6
CONTINUOUS
10
4.46909
20
-0.715606
11
4.47348
21
-0.713369
0
LINE
8
BLACK
6
CONTINUOUS
10
4.47348
20
-0.713369
11
4.47835
21
-0.712598
0
LINE
8
BLACK
6
CONTINUOUS
10
4.47835
20
-0.712598
11
4.48321
21
-0.713369
0
LINE
8
BLACK
6
CONTINUOUS
10
5.37702
20
-0.596277
11
5.38436
21
-0.59855
0
LINE
8
BLACK
6
CONTINUOUS
10
5.38436
20
-0.59855
11
5.39111
21
-0.602204
0
LINE
8
BLACK
6
CONTINUOUS
10
5.39111
20
-0.602204
11
5.39704
21
-0.607102
0
LINE
8
BLACK
6
CONTINUOUS
10
5.39704
20
-0.607102
11
5.40189
21
-0.613056
0
LINE
8
BLACK
6
CONTINUOUS
10
5.40189
20
-0.613056
11
5.4055
21
-0.619841
0
LINE
8
BLACK
6
CONTINUOUS
10
5.4055
20
-0.619841
11
5.40772
21
-0.627196
0
LINE
8
BLACK
6
CONTINUOUS
10
5.40772
20
-0.627196
11
5.40847
21
-0.634843
0
LINE
8
BLACK
6
CONTINUOUS
10
5.40847
20
-0.634843
11
5.40845
21
-0.635943
0
LINE
8
BLACK
6
CONTINUOUS
10
5.40845
20
-0.635943
11
5.40749
21
-0.643566
0
LINE
8
BLACK
6
CONTINUOUS
10
5.40749
20
-0.643566
11
5.40507
21
-0.650857
0
LINE
8
BLACK
6
CONTINUOUS
10
5.40507
20
-0.650857
11
5.40127
21
-0.657538
0
LINE
8
BLACK
6
CONTINUOUS
10
5.40127
20
-0.657538
11
5.39625
21
-0.663354
0
LINE
8
BLACK
6
CONTINUOUS
10
5.39625
20
-0.663354
11
5.3902
21
-0.668085
0
LINE
8
BLACK
6
CONTINUOUS
10
5.3902
20
-0.668085
11
5.38334
21
-0.671549
0
LINE
8
BLACK
6
CONTINUOUS
10
5.38334
20
-0.671549
11
5.37594
21
-0.673615
0
LINE
8
BLACK
6
CONTINUOUS
10
5.37594
20
-0.673615
11
5.36827
21
-0.674205
0
LINE
8
BLACK
6
CONTINUOUS
10
5.36827
20
-0.674205
11
5.36065
21
-0.673295
0
LINE
8
BLACK
6
CONTINUOUS
10
5.36065
20
-0.673295
11
5.35334
21
-0.670921
0
LINE
8
BLACK
6
CONTINUOUS
10
5.35334
20
-0.670921
11
5.34663
21
-0.667172
0
LINE
8
BLACK
6
CONTINUOUS
10
5.34663
20
-0.667172
11
5.34078
21
-0.662192
0
LINE
8
BLACK
6
CONTINUOUS
10
5.34078
20
-0.662192
11
5.33601
21
-0.65617
0
LINE
8
BLACK
6
CONTINUOUS
10
5.33601
20
-0.65617
11
5.33249
21
-0.649336
0
LINE
8
BLACK
6
CONTINUOUS
10
5.33249
20
-0.649336
11
5.33038
21
-0.64195
0
LINE
8
BLACK
6
CONTINUOUS
10
5.33038
20
-0.64195
11
5.32973
21
-0.634294
0
LINE
8
BLACK
6
CONTINUOUS
10
5.32973
20
-0.634294
11
5.33059
21
-0.626658
0
LINE
8
BLACK
6
CONTINUOUS
10
5.33059
20
-0.626658
11
5.33291
21
-0.619334
0
LINE
8
BLACK
6
CONTINUOUS
10
5.33291
20
-0.619334
11
5.33661
21
-0.612601
0
LINE
8
BLACK
6
CONTINUOUS
10
5.33661
20
-0.612601
11
5.34155
21
-0.606715
0
LINE
8
BLACK
6
CONTINUOUS
10
5.34155
20
-0.606715
11
5.34754
21
-0.6019
0
LINE
8
BLACK
6
CONTINUOUS
10
5.34754
20
-0.6019
11
5.35435
21
-0.59834
0
LINE
8
BLACK
6
CONTINUOUS
10
5.35435
20
-0.59834
11
5.36172
21
-0.596171
0
LINE
8
BLACK
6
CONTINUOUS
10
5.36172
20
-0.596171
11
5.36937
21
-0.595474
0
LINE
8
BLACK
6
CONTINUOUS
10
5.36937
20
-0.595474
11
5.37702
21
-0.596277
0
LINE
8
BLACK
6
CONTINUOUS
10
5.27859
20
-0.596277
11
5.28593
21
-0.59855
0
LINE
8
BLACK
6
CONTINUOUS
10
5.28593
20
-0.59855
11
5.29269
21
-0.602204
0
LINE
8
BLACK
6
CONTINUOUS
10
5.29269
20
-0.602204
11
5.29861
21
-0.607102
0
LINE
8
BLACK
6
CONTINUOUS
10
5.29861
20
-0.607102
11
5.30347
21
-0.613056
0
LINE
8
BLACK
6
CONTINUOUS
10
5.30347
20
-0.613056
11
5.30707
21
-0.619841
0
LINE
8
BLACK
6
CONTINUOUS
10
5.30707
20
-0.619841
11
5.30929
21
-0.627196
0
LINE
8
BLACK
6
CONTINUOUS
10
5.30929
20
-0.627196
11
5.31004
21
-0.634843
0
LINE
8
BLACK
6
CONTINUOUS
10
5.31004
20
-0.634843
11
5.31003
21
-0.635943
0
LINE
8
BLACK
6
CONTINUOUS
10
5.31003
20
-0.635943
11
5.30907
21
-0.643566
0
LINE
8
BLACK
6
CONTINUOUS
10
5.30907
20
-0.643566
11
5.30664
21
-0.650857
0
LINE
8
BLACK
6
CONTINUOUS
10
5.30664
20
-0.650857
11
5.30285
21
-0.657538
0
LINE
8
BLACK
6
CONTINUOUS
10
5.30285
20
-0.657538
11
5.29782
21
-0.663354
0
LINE
8
BLACK
6
CONTINUOUS
10
5.29782
20
-0.663354
11
5.29177
21
-0.668085
0
LINE
8
BLACK
6
CONTINUOUS
10
5.29177
20
-0.668085
11
5.28491
21
-0.671549
0
LINE
8
BLACK
6
CONTINUOUS
10
5.28491
20
-0.671549
11
5.27751
21
-0.673615
0
LINE
8
BLACK
6
CONTINUOUS
10
5.27751
20
-0.673615
11
5.26985
21
-0.674205
0
LINE
8
BLACK
6
CONTINUOUS
10
5.26985
20
-0.674205
11
5.26222
21
-0.673295
0
LINE
8
BLACK
6
CONTINUOUS
10
5.26222
20
-0.673295
11
5.25491
21
-0.670921
0
LINE
8
BLACK
6
CONTINUOUS
10
5.25491
20
-0.670921
11
5.24821
21
-0.667172
0
LINE
8
BLACK
6
CONTINUOUS
10
5.24821
20
-0.667172
11
5.24235
21
-0.662192
0
LINE
8
BLACK
6
CONTINUOUS
10
5.24235
20
-0.662192
11
5.23758
21
-0.65617
0
LINE
8
BLACK
6
CONTINUOUS
10
5.23758
20
-0.65617
11
5.23407
21
-0.649336
0
LINE
8
BLACK
6
CONTINUOUS
10
5.23407
20
-0.649336
11
5.23195
21
-0.64195
0
LINE
8
BLACK
6
CONTINUOUS
10
5.23195
20
-0.64195
11
5.23131
21
-0.634294
0
LINE
8
BLACK
6
CONTINUOUS
10
5.23131
20
-0.634294
11
5.23216
21
-0.626658
0
LINE
8
BLACK
6
CONTINUOUS
10
5.23216
20
-0.626658
11
5.23449
21
-0.619334
0
LINE
8
BLACK
6
CONTINUOUS
10
5.23449
20
-0.619334
11
5.23819
21
-0.612601
0
LINE
8
BLACK
6
CONTINUOUS
10
5.23819
20
-0.612601
11
5.24313
21
-0.606715
0
LINE
8
BLACK
6
CONTINUOUS
10
5.24313
20
-0.606715
11
5.24912
21
-0.6019
0
LINE
8
BLACK
6
CONTINUOUS
10
5.24912
20
-0.6019
11
5.25593
21
-0.59834
0
LINE
8
BLACK
6
CONTINUOUS
10
5.25593
20
-0.59834
11
5.2633
21
-0.596171
0
LINE
8
BLACK
6
CONTINUOUS
10
5.2633
20
-0.596171
11
5.27095
21
-0.595474
0
LINE
8
BLACK
6
CONTINUOUS
10
5.27095
20
-0.595474
11
5.27859
21
-0.596277
0
CIRCLE
8
BLACK
10
4.08661
20
-1.34742
40
0.00787402
0
CIRCLE
8
BLACK
10
4.9918
20
-1.17126
40
0.00787402
0
CIRCLE
8
BLACK
10
4.20315
20
-0.953543
40
0.00787402
0
CIRCLE
8
BLACK
10
4.09055
20
-1.29037
40
0.00787402
0
CIRCLE
8
BLACK
10
4.90813
20
-1.17126
40
0.00787402
0
CIRCLE
8
BLACK
10
4.63622
20
-1.35433
40
0.00787402
0
CIRCLE
8
BLACK
10
4.56057
20
-1.36372
40
0.00787402
0
CIRCLE
8
BLACK
10
4.80057
20
-1.47722
40
0.00787402
0
CIRCLE
8
BLACK
10
4.54624
20
-1.5059
40
0.00787402
0
CIRCLE
8
BLACK
10
4.40705
20
-1.16142
40
0.00787402
0
CIRCLE
8
BLACK
10
4.54331
20
-1.24467
40
0.00787402
0
CIRCLE
8
BLACK
10
4.85236
20
-1.25492
40
0.00787402
0
CIRCLE
8
BLACK
10
5.01968
20
-1.33858
40
0.00787402
0
CIRCLE
8
BLACK
10
4.48983
20
-0.660453
40
0.00787402
0
CIRCLE
8
BLACK
10
4.85827
20
-1.07087
40
0.00787402
0
CIRCLE
8
BLACK
10
4.60138
20
-0.669291
40
0.00787402
0
CIRCLE
8
BLACK
10
4.82677
20
-1.03937
40
0.00787402
0
CIRCLE
8
BLACK
10
3.48819
20
-0.984252
40
0.00787402
0
CIRCLE
8
BLACK
10
4.08661
20
-1.06299
40
0.00787402
0
CIRCLE
8
BLACK
10
5.46457
20
-1.07087
40
0.00787402
0
CIRCLE
8
BLACK
10
4.82447
20
-1.11549
40
0.00787402
0
CIRCLE
8
BLACK
10
4.74081
20
-1.05971
40
0.00787402
0
CIRCLE
8
BLACK
10
4.48361
20
-1.51213
40
0.00787402
0
CIRCLE
8
BLACK
10
4.51772
20
-1.70112
40
0.00787402
0
CIRCLE
8
BLACK
10
5.04758
20
-1.86844
40
0.00787402
0
CIRCLE
8
BLACK
10
4.18726
20
-1.17287
40
0.00787402
0
CIRCLE
8
BLACK
10
4.82447
20
-1.70111
40
0.00787402
0
CIRCLE
8
BLACK
10
4.4262
20
-1.84055
40
0.00787402
0
CIRCLE
8
BLACK
10
4.23884
20
-1.84055
40
0.00787402
0
CIRCLE
8
BLACK
10
4.88025
20
-1.85437
40
0.00787402
0
CIRCLE
8
BLACK
10
3.48589
20
-1.70111
40
0.00787402
0
CIRCLE
8
BLACK
10
5.49376
20
-1.70111
40
0.00787402
0
CIRCLE
8
BLACK
10
4.88025
20
-2.14731
40
0.00787402
0
CIRCLE
8
BLACK
10
4.43405
20
-2.14731
40
0.00787402
0
CIRCLE
8
BLACK
10
4.11914
20
-1.70927
40
0.00787402
0
CIRCLE
8
BLACK
10
3.86649
20
-2.33269
40
0.00787402
0
CIRCLE
8
BLACK
10
4.08282
20
-1.41974
40
0.00787402
0
CIRCLE
8
BLACK
10
3.84842
20
-1.5059
40
0.00787402
0
CIRCLE
8
BLACK
10
4.13581
20
-1.18976
40
0.00787402
0
CIRCLE
8
BLACK
10
4.82447
20
-2.37041
40
0.00787402
0
CIRCLE
8
BLACK
10
4.01575
20
-1.42224
40
0.00787402
0
CIRCLE
8
BLACK
10
3.84842
20
-1.63681
40
0.00787402
0
CIRCLE
8
BLACK
10
4.15518
20
-2.37041
40
0.00787402
0
CIRCLE
8
BLACK
10
5.49376
20
-2.37041
40
0.00787402
0
CIRCLE
8
BLACK
10
3.93208
20
-1.42224
40
0.00787402
0
CIRCLE
8
BLACK
10
3.48589
20
-2.37041
40
0.00787402
0
CIRCLE
8
BLACK
10
4.82447
20
-3.0397
40
0.00787402
0
CIRCLE
8
BLACK
10
3.77892
20
-1.57584
40
0.00787402
0
CIRCLE
8
BLACK
10
3.79265
20
-1.28281
40
0.00787402
0
CIRCLE
8
BLACK
10
3.48589
20
-3.0397
40
0.00787402
0
CIRCLE
8
BLACK
10
3.81071
20
-3.00199
40
0.00787402
0
CIRCLE
8
BLACK
10
4.15518
20
-3.0397
40
0.00787402
0
CIRCLE
8
BLACK
10
5.49376
20
-3.0397
40
0.00787402
0
CIRCLE
8
BLACK
10
3.94733
20
-1.23967
40
0.00787402
0
CIRCLE
8
BLACK
10
3.79265
20
-1.64534
40
0.00787402
0
CIRCLE
8
BLACK
10
4.47835
20
-0.728346
40
0.00787402
0
CIRCLE
8
BLACK
10
4.39961
20
-0.728346
40
0.00787402
0
CIRCLE
8
BLACK
10
3.9577
20
-1.46457
40
0.00787402
0
CIRCLE
8
BLACK
10
3.43012
20
-2.45407
40
0.00787402
0
CIRCLE
8
BLACK
10
3.43012
20
-2.56562
40
0.00787402
0
CIRCLE
8
BLACK
10
4.01474
20
-1.46457
40
0.00787402
0
CIRCLE
8
BLACK
10
3.92659
20
-1.48867
40
0.00787402
0
CIRCLE
8
BLACK
10
3.70899
20
-1.28281
40
0.00787402
0
CIRCLE
8
BLACK
10
4.03139
20
-1.50022
40
0.00787402
0
CIRCLE
8
BLACK
10
3.70899
20
-1.22196
40
0.00787402
0
CIRCLE
8
BLACK
10
4.05512
20
-1.6063
40
0.00787402
0
CIRCLE
8
BLACK
10
4.27559
20
-1.65354
40
0.00787402
0
CIRCLE
8
BLACK
10
4.05921
20
-1.52805
40
0.00787402
0
CIRCLE
8
BLACK
10
4.27559
20
-1.13289
40
0.00787402
0
CIRCLE
8
BLACK
10
5.04757
20
-1.31069
40
0.00787402
0
CIRCLE
8
BLACK
10
4.94488
20
-1.92518
40
0.00787402
0
CIRCLE
8
BLACK
10
4.09006
20
-1.5589
40
0.00787402
0
CIRCLE
8
BLACK
10
5.07546
20
-1.5059
40
0.00787402
0
CIRCLE
8
BLACK
10
4.08289
20
-1.67302
40
0.00787402
0
CIRCLE
8
BLACK
10
4.08661
20
-1.74016
40
0.00787402
  0
ENDSEC
  0
EOF
