G04 #@! TF.GenerationSoftware,KiCad,Pcbnew,(6.0.4-0)*
G04 #@! TF.CreationDate,2023-09-21T22:42:23-05:00*
G04 #@! TF.ProjectId,kowgary16_cfx,6b6f7767-6172-4793-9136-5f6366782e6b,rev?*
G04 #@! TF.SameCoordinates,Original*
G04 #@! TF.FileFunction,Copper,L1,Top*
G04 #@! TF.FilePolarity,Positive*
%FSLAX45Y45*%
G04 Gerber Fmt 4.5, Leading zero omitted, Abs format (unit mm)*
G04 Created by KiCad (PCBNEW (6.0.4-0)) date 2023-09-21 22:42:23*
%MOMM*%
%LPD*%
G01*
G04 APERTURE LIST*
G04 #@! TA.AperFunction,ComponentPad*
%ADD10R,2.000000X2.000000*%
G04 #@! TD*
G04 #@! TA.AperFunction,ComponentPad*
%ADD11C,2.000000*%
G04 #@! TD*
G04 #@! TA.AperFunction,ComponentPad*
%ADD12R,2.500000X3.000000*%
G04 #@! TD*
G04 #@! TA.AperFunction,ComponentPad*
%ADD13O,1.000000X2.100000*%
G04 #@! TD*
G04 #@! TA.AperFunction,ComponentPad*
%ADD14O,1.000000X1.600000*%
G04 #@! TD*
G04 #@! TA.AperFunction,ViaPad*
%ADD15C,0.800000*%
G04 #@! TD*
G04 #@! TA.AperFunction,Conductor*
%ADD16C,0.200000*%
G04 #@! TD*
G04 #@! TA.AperFunction,Conductor*
%ADD17C,0.250000*%
G04 #@! TD*
G04 APERTURE END LIST*
D10*
G04 #@! TO.P,SW5,A,A*
G04 #@! TO.N,pad_a*
X13137513Y-1612502D03*
D11*
G04 #@! TO.P,SW5,B,B*
G04 #@! TO.N,pad_b*
X13637513Y-1612502D03*
G04 #@! TO.P,SW5,C,C*
G04 #@! TO.N,GND*
X13387513Y-1612502D03*
D12*
G04 #@! TO.P,SW5,MP*
G04 #@! TO.N,N/C*
X13947513Y-2362502D03*
X12827513Y-2362502D03*
D11*
G04 #@! TO.P,SW5,S1,S1*
G04 #@! TO.N,col4*
X13137513Y-3062502D03*
G04 #@! TO.P,SW5,S2,S2*
G04 #@! TO.N,Net-(D4-Pad2)*
X13637513Y-3062502D03*
G04 #@! TD*
D13*
G04 #@! TO.P,J1,S1,SHIELD*
G04 #@! TO.N,GND*
X10688828Y-2010499D03*
D14*
X10688828Y-1592499D03*
X11552828Y-1592499D03*
D13*
X11552828Y-2010499D03*
G04 #@! TD*
D15*
G04 #@! TO.N,GND*
X10380000Y-3422450D03*
X12679161Y-2974999D03*
X10676000Y-2422000D03*
X10390000Y-3277550D03*
X12466661Y-2974999D03*
G04 #@! TO.N,Net-(B1-Pad2)*
X11776009Y-3440000D03*
X11583836Y-3463836D03*
G04 #@! TO.N,Net-(C2-Pad2)*
X12193449Y-3752135D03*
X11547445Y-3824998D03*
G04 #@! TO.N,+5V*
X11193898Y-2950000D03*
X11540000Y-3161450D03*
X12324994Y-3187498D03*
X12749994Y-3399998D03*
G04 #@! TO.N,row1*
X11404161Y-1677550D03*
X12340000Y-2720000D03*
X11687494Y-1699999D03*
X12260000Y-2640000D03*
X8860000Y-2500000D03*
X10380000Y-2700000D03*
X13880000Y-2720000D03*
G04 #@! TO.N,Net-(D3-Pad2)*
X12254161Y-2833332D03*
X12041661Y-2691665D03*
G04 #@! TO.N,pad_a*
X11388359Y-3840822D03*
G04 #@! TO.N,pad_b*
X11475011Y-4320837D03*
X12820845Y-4745838D03*
G04 #@! TO.N,row2*
X10635641Y-2979079D03*
X12254161Y-4320831D03*
X11242541Y-4674998D03*
X10766662Y-4674998D03*
X12395827Y-4710098D03*
X8854163Y-4320831D03*
X13954160Y-4320831D03*
X12395827Y-5454164D03*
X11262495Y-5454164D03*
X10462618Y-4341542D03*
G04 #@! TO.N,row3*
X9820877Y-5925045D03*
X10370360Y-3606149D03*
X9774995Y-3824998D03*
X10504945Y-3022000D03*
X12254161Y-6020830D03*
X10199995Y-3612498D03*
X9774995Y-4157498D03*
X10554162Y-6020830D03*
X13954160Y-6020830D03*
X9987495Y-3612498D03*
X8854163Y-6020830D03*
G04 #@! TO.N,row4*
X12254161Y-7720830D03*
X9598453Y-4002622D03*
X9633329Y-3258332D03*
X8854163Y-7720830D03*
X9679210Y-7625044D03*
X10554162Y-7720830D03*
X13954160Y-7720830D03*
X10026227Y-3148767D03*
X9633329Y-4179165D03*
G04 #@! TO.N,VBUS*
X11375000Y-1850000D03*
X11175000Y-1850000D03*
G04 #@! TO.N,col1*
X10052550Y-3720000D03*
X8712496Y-6233330D03*
X8712496Y-6516664D03*
X10197450Y-3720000D03*
G04 #@! TO.N,col2*
X9973542Y-3781219D03*
X9420829Y-3258332D03*
X10239726Y-3810569D03*
X9420829Y-3103780D03*
G04 #@! TO.N,col3*
X10300000Y-4080000D03*
X10860000Y-4200000D03*
X10310401Y-3881245D03*
X10859995Y-2877550D03*
G04 #@! TO.N,col4*
X12820827Y-3329165D03*
X12560000Y-4889950D03*
X10388755Y-3959598D03*
X12891661Y-3824998D03*
X10370538Y-4249462D03*
X10380000Y-4420000D03*
G04 #@! TD*
D16*
G04 #@! TO.N,GND*
X10380000Y-3287550D02*
X10390000Y-3277550D01*
X10380000Y-3422450D02*
X10380000Y-3287550D01*
D17*
X10676000Y-2422000D02*
X10688828Y-2409172D01*
X10688828Y-1592499D02*
X11552828Y-1592499D01*
X10625093Y-2566901D02*
X10625093Y-2472907D01*
D16*
X12466661Y-2974999D02*
X12679161Y-2974999D01*
D17*
X10625093Y-2566901D02*
X10390000Y-2801994D01*
X10688828Y-2409172D02*
X10688828Y-2010499D01*
X10625093Y-2472907D02*
X10676000Y-2422000D01*
X11552828Y-1592499D02*
X11552828Y-2010499D01*
X10390000Y-2801994D02*
X10390000Y-3277550D01*
D16*
G04 #@! TO.N,Net-(B1-Pad2)*
X11752172Y-3463836D02*
X11776009Y-3440000D01*
X11583836Y-3463836D02*
X11752172Y-3463836D01*
X11756009Y-3460000D02*
X11776009Y-3440000D01*
D17*
G04 #@! TO.N,Net-(C2-Pad2)*
X11404161Y-4052733D02*
X11601426Y-4249998D01*
X11829161Y-4249998D02*
X12193449Y-3885710D01*
X11547445Y-3824998D02*
X11404161Y-3968281D01*
X12193449Y-3885710D02*
X12193449Y-3752135D01*
X11404161Y-3968281D02*
X11404161Y-4052733D01*
X11601426Y-4249998D02*
X11829161Y-4249998D01*
G04 #@! TO.N,+5V*
X12537494Y-3399998D02*
X12324994Y-3187498D01*
X11328550Y-2950000D02*
X11193898Y-2950000D01*
X12749994Y-3399998D02*
X12537494Y-3399998D01*
X11540000Y-3161450D02*
X11328550Y-2950000D01*
G04 #@! TO.N,row1*
X12340000Y-2720000D02*
X12519951Y-2899951D01*
X10606376Y-2095317D02*
X10606376Y-1921346D01*
X10850173Y-1677550D02*
X11404161Y-1677550D01*
X10054564Y-2700000D02*
X10380000Y-2700000D01*
X13020049Y-2899951D02*
X13200000Y-2720000D01*
X11687494Y-1699999D02*
X11687494Y-1960800D01*
X12260000Y-2533305D02*
X12260000Y-2640000D01*
X10380000Y-2321693D02*
X10606376Y-2095317D01*
X10606376Y-1921346D02*
X10850173Y-1677550D01*
X9854564Y-2500000D02*
X10054564Y-2700000D01*
X8860000Y-2500000D02*
X9854564Y-2500000D01*
X12519951Y-2899951D02*
X13020049Y-2899951D01*
X13200000Y-2720000D02*
X13880000Y-2720000D01*
X10380000Y-2700000D02*
X10380000Y-2321693D01*
X11687494Y-1960800D02*
X12260000Y-2533305D01*
G04 #@! TO.N,Net-(D3-Pad2)*
X12183328Y-2833332D02*
X12254161Y-2833332D01*
X12041661Y-2691665D02*
X12183328Y-2833332D01*
G04 #@! TO.N,pad_a*
X13790061Y-2527600D02*
X13954180Y-2691718D01*
X12629964Y-3914956D02*
X12245524Y-3530516D01*
X12991681Y-3914956D02*
X12629964Y-3914956D01*
X13790061Y-2265051D02*
X13790061Y-2527600D01*
X12245524Y-3530516D02*
X11698665Y-3530516D01*
X11698665Y-3530516D02*
X11388359Y-3840822D01*
X13954180Y-2691718D02*
X13954180Y-2952457D01*
X13954180Y-2952457D02*
X12991681Y-3914956D01*
X13137513Y-1612502D02*
X13790061Y-2265051D01*
G04 #@! TO.N,pad_b*
X12820845Y-4745838D02*
X12784134Y-4782549D01*
X11873668Y-4320837D02*
X11475011Y-4320837D01*
X12335380Y-4782549D02*
X11873668Y-4320837D01*
X12784134Y-4782549D02*
X12335380Y-4782549D01*
G04 #@! TO.N,row2*
X8854163Y-4320831D02*
X9336821Y-4803489D01*
X10635641Y-2979079D02*
X10766662Y-3110100D01*
X12254161Y-4320831D02*
X12395827Y-4462498D01*
X13375395Y-4320831D02*
X13954160Y-4320831D01*
X12395827Y-4462498D02*
X12395827Y-4710098D01*
X10766662Y-3110100D02*
X10766662Y-4249998D01*
X12395827Y-5752465D02*
X12395827Y-5454164D01*
X12254161Y-4320831D02*
X12349946Y-4225046D01*
X11262495Y-5454164D02*
X11262495Y-5607930D01*
X10766662Y-4674998D02*
X11242541Y-4674998D01*
X11602944Y-5948379D02*
X12199913Y-5948379D01*
X12199913Y-5948379D02*
X12395827Y-5752465D01*
X13279609Y-4225046D02*
X13375395Y-4320831D01*
X10013354Y-4341542D02*
X10462618Y-4341542D01*
X9551407Y-4803489D02*
X10013354Y-4341542D01*
X10766662Y-4249998D02*
X10766662Y-4674998D01*
X9336821Y-4803489D02*
X9551407Y-4803489D01*
X11262495Y-5607930D02*
X11602944Y-5948379D01*
X12349946Y-4225046D02*
X13279609Y-4225046D01*
G04 #@! TO.N,row3*
X9820877Y-5925045D02*
X9916662Y-6020830D01*
X12254161Y-6020830D02*
X12349946Y-5925045D01*
X10397833Y-3606149D02*
X10370360Y-3606149D01*
X13279609Y-5925045D02*
X13375395Y-6020830D01*
X10649947Y-5925045D02*
X11305830Y-5925045D01*
X10504945Y-3022000D02*
X10504945Y-3499037D01*
X8949948Y-5925045D02*
X9820877Y-5925045D01*
X10199995Y-3612498D02*
X9987495Y-3612498D01*
X10554162Y-6020830D02*
X10649947Y-5925045D01*
X8854163Y-6020830D02*
X8949948Y-5925045D01*
X9916662Y-6020830D02*
X10554162Y-6020830D01*
X9774995Y-3824998D02*
X9774995Y-4157498D01*
X11401615Y-6020830D02*
X12254161Y-6020830D01*
X12349946Y-5925045D02*
X13279609Y-5925045D01*
X11305830Y-5925045D02*
X11401615Y-6020830D01*
X13375395Y-6020830D02*
X13954160Y-6020830D01*
X10504945Y-3499037D02*
X10397833Y-3606149D01*
G04 #@! TO.N,row4*
X9679210Y-7625044D02*
X9879611Y-7625044D01*
X8854163Y-7720830D02*
X8949948Y-7625044D01*
X12254161Y-7720830D02*
X12349946Y-7625044D01*
X9916662Y-3258332D02*
X9633329Y-3258332D01*
X9879611Y-7625044D02*
X9975396Y-7720830D01*
X8949948Y-7625044D02*
X9679210Y-7625044D01*
X10649947Y-7625044D02*
X11520876Y-7625044D01*
X10554162Y-7720830D02*
X10649947Y-7625044D01*
X11520876Y-7625044D02*
X11616661Y-7720830D01*
X10026227Y-3148767D02*
X9916662Y-3258332D01*
X9598453Y-4144289D02*
X9633329Y-4179165D01*
X9598453Y-4002622D02*
X9598453Y-4144289D01*
X13150042Y-7625044D02*
X13245827Y-7720830D01*
X9975396Y-7720830D02*
X10554162Y-7720830D01*
X13245827Y-7720830D02*
X13954160Y-7720830D01*
X12349946Y-7625044D02*
X13150042Y-7625044D01*
X11616661Y-7720830D02*
X12254161Y-7720830D01*
G04 #@! TO.N,VBUS*
X11175000Y-1850000D02*
X11375000Y-1850000D01*
G04 #@! TO.N,col1*
X8712496Y-6516664D02*
X8712496Y-6233330D01*
D16*
X10197450Y-3720000D02*
X10052550Y-3720000D01*
G04 #@! TO.N,col2*
X10002892Y-3810569D02*
X9973542Y-3781219D01*
X9420829Y-3258332D02*
X9420829Y-3103780D01*
X10239726Y-3810569D02*
X10002892Y-3810569D01*
G04 #@! TO.N,col3*
X10310401Y-3881245D02*
X10310401Y-4069599D01*
D17*
X10859995Y-4199995D02*
X10860000Y-4200000D01*
X10859995Y-2877550D02*
X10859995Y-4199995D01*
D16*
X10310401Y-4069599D02*
X10300000Y-4080000D01*
G04 #@! TO.N,col4*
X10388755Y-4231245D02*
X10370538Y-4249462D01*
X10683451Y-4859952D02*
X12530002Y-4859952D01*
X12530002Y-4859952D02*
X12560000Y-4889950D01*
X10380000Y-4420000D02*
X10380000Y-4556501D01*
D17*
X12820827Y-3329165D02*
X12891661Y-3399998D01*
D16*
X10388755Y-3959598D02*
X10388755Y-4231245D01*
D17*
X12891661Y-3399998D02*
X12891661Y-3824998D01*
D16*
X10380000Y-4556501D02*
X10683451Y-4859952D01*
G04 #@! TD*
M02*
