G04 #@! TF.GenerationSoftware,KiCad,Pcbnew,(6.0.4-0)*
G04 #@! TF.CreationDate,2023-09-21T22:42:23-05:00*
G04 #@! TF.ProjectId,kowgary16_cfx,6b6f7767-6172-4793-9136-5f6366782e6b,rev?*
G04 #@! TF.SameCoordinates,Original*
G04 #@! TF.FileFunction,Copper,L2,Bot*
G04 #@! TF.FilePolarity,Positive*
%FSLAX45Y45*%
G04 Gerber Fmt 4.5, Leading zero omitted, Abs format (unit mm)*
G04 Created by KiCad (PCBNEW (6.0.4-0)) date 2023-09-21 22:42:23*
%MOMM*%
%LPD*%
G01*
G04 APERTURE LIST*
G04 Aperture macros list*
%AMRoundRect*
0 Rectangle with rounded corners*
0 $1 Rounding radius*
0 $2 $3 $4 $5 $6 $7 $8 $9 X,Y pos of 4 corners*
0 Add a 4 corners polygon primitive as box body*
4,1,4,$2,$3,$4,$5,$6,$7,$8,$9,$2,$3,0*
0 Add four circle primitives for the rounded corners*
1,1,$1+$1,$2,$3*
1,1,$1+$1,$4,$5*
1,1,$1+$1,$6,$7*
1,1,$1+$1,$8,$9*
0 Add four rect primitives between the rounded corners*
20,1,$1+$1,$2,$3,$4,$5,0*
20,1,$1+$1,$4,$5,$6,$7,0*
20,1,$1+$1,$6,$7,$8,$9,0*
20,1,$1+$1,$8,$9,$2,$3,0*%
%AMRotRect*
0 Rectangle, with rotation*
0 The origin of the aperture is its center*
0 $1 length*
0 $2 width*
0 $3 Rotation angle, in degrees counterclockwise*
0 Add horizontal line*
21,1,$1,$2,0,0,$3*%
G04 Aperture macros list end*
G04 #@! TA.AperFunction,SMDPad,CuDef*
%ADD10R,2.600000X2.600000*%
G04 #@! TD*
G04 #@! TA.AperFunction,SMDPad,CuDef*
%ADD11R,0.450000X0.600000*%
G04 #@! TD*
G04 #@! TA.AperFunction,SMDPad,CuDef*
%ADD12RoundRect,0.140000X0.219203X0.021213X0.021213X0.219203X-0.219203X-0.021213X-0.021213X-0.219203X0*%
G04 #@! TD*
G04 #@! TA.AperFunction,SMDPad,CuDef*
%ADD13RoundRect,0.135000X-0.185000X0.135000X-0.185000X-0.135000X0.185000X-0.135000X0.185000X0.135000X0*%
G04 #@! TD*
G04 #@! TA.AperFunction,SMDPad,CuDef*
%ADD14RoundRect,0.140000X0.021213X-0.219203X0.219203X-0.021213X-0.021213X0.219203X-0.219203X0.021213X0*%
G04 #@! TD*
G04 #@! TA.AperFunction,SMDPad,CuDef*
%ADD15RoundRect,0.062500X0.291682X0.380070X-0.380070X-0.291682X-0.291682X-0.380070X0.380070X0.291682X0*%
G04 #@! TD*
G04 #@! TA.AperFunction,SMDPad,CuDef*
%ADD16RoundRect,0.062500X-0.291682X0.380070X-0.380070X0.291682X0.291682X-0.380070X0.380070X-0.291682X0*%
G04 #@! TD*
G04 #@! TA.AperFunction,SMDPad,CuDef*
%ADD17RotRect,5.200000X5.200000X225.000000*%
G04 #@! TD*
G04 #@! TA.AperFunction,SMDPad,CuDef*
%ADD18RoundRect,0.140000X-0.140000X-0.170000X0.140000X-0.170000X0.140000X0.170000X-0.140000X0.170000X0*%
G04 #@! TD*
G04 #@! TA.AperFunction,SMDPad,CuDef*
%ADD19R,1.200000X1.400000*%
G04 #@! TD*
G04 #@! TA.AperFunction,ComponentPad*
%ADD20R,2.000000X2.000000*%
G04 #@! TD*
G04 #@! TA.AperFunction,ComponentPad*
%ADD21C,2.000000*%
G04 #@! TD*
G04 #@! TA.AperFunction,ComponentPad*
%ADD22R,2.500000X3.000000*%
G04 #@! TD*
G04 #@! TA.AperFunction,SMDPad,CuDef*
%ADD23RoundRect,0.140000X-0.021213X0.219203X-0.219203X0.021213X0.021213X-0.219203X0.219203X-0.021213X0*%
G04 #@! TD*
G04 #@! TA.AperFunction,SMDPad,CuDef*
%ADD24RoundRect,0.135000X0.135000X0.185000X-0.135000X0.185000X-0.135000X-0.185000X0.135000X-0.185000X0*%
G04 #@! TD*
G04 #@! TA.AperFunction,SMDPad,CuDef*
%ADD25R,1.800000X1.100000*%
G04 #@! TD*
G04 #@! TA.AperFunction,SMDPad,CuDef*
%ADD26RoundRect,0.135000X-0.135000X-0.185000X0.135000X-0.185000X0.135000X0.185000X-0.135000X0.185000X0*%
G04 #@! TD*
G04 #@! TA.AperFunction,SMDPad,CuDef*
%ADD27RoundRect,0.140000X0.140000X0.170000X-0.140000X0.170000X-0.140000X-0.170000X0.140000X-0.170000X0*%
G04 #@! TD*
G04 #@! TA.AperFunction,SMDPad,CuDef*
%ADD28R,0.300000X1.150000*%
G04 #@! TD*
G04 #@! TA.AperFunction,ComponentPad*
%ADD29O,1.000000X2.100000*%
G04 #@! TD*
G04 #@! TA.AperFunction,ComponentPad*
%ADD30O,1.000000X1.600000*%
G04 #@! TD*
G04 #@! TA.AperFunction,SMDPad,CuDef*
%ADD31RoundRect,0.250000X-0.625000X0.375000X-0.625000X-0.375000X0.625000X-0.375000X0.625000X0.375000X0*%
G04 #@! TD*
G04 #@! TA.AperFunction,SMDPad,CuDef*
%ADD32RoundRect,0.140000X-0.219203X-0.021213X-0.021213X-0.219203X0.219203X0.021213X0.021213X0.219203X0*%
G04 #@! TD*
G04 #@! TA.AperFunction,ViaPad*
%ADD33C,0.800000*%
G04 #@! TD*
G04 #@! TA.AperFunction,Conductor*
%ADD34C,0.250000*%
G04 #@! TD*
G04 #@! TA.AperFunction,Conductor*
%ADD35C,0.200000*%
G04 #@! TD*
G04 APERTURE END LIST*
D10*
G04 #@! TO.P,SW23,1,1*
G04 #@! TO.N,Net-(D23-Pad2)*
X12014994Y-6332497D03*
G04 #@! TO.P,SW23,2,2*
G04 #@! TO.N,col3*
X10859995Y-6112497D03*
G04 #@! TD*
G04 #@! TO.P,SW13,1,1*
G04 #@! TO.N,Net-(D13-Pad2)*
X12014994Y-4632498D03*
G04 #@! TO.P,SW13,2,2*
G04 #@! TO.N,col3*
X10859995Y-4412498D03*
G04 #@! TD*
G04 #@! TO.P,SW4,1,1*
G04 #@! TO.N,Net-(D4-Pad2)*
X13714994Y-2932499D03*
G04 #@! TO.P,SW4,2,2*
G04 #@! TO.N,col4*
X12559994Y-2712499D03*
G04 #@! TD*
G04 #@! TO.P,SW1,1,1*
G04 #@! TO.N,Net-(D1-Pad2)*
X7959996Y-1742499D03*
G04 #@! TO.P,SW1,2,2*
G04 #@! TO.N,col1*
X9114996Y-1962499D03*
G04 #@! TD*
G04 #@! TO.P,SW34,1,1*
G04 #@! TO.N,Net-(D34-Pad2)*
X13714994Y-8032496D03*
G04 #@! TO.P,SW34,2,2*
G04 #@! TO.N,col4*
X12559994Y-7812496D03*
G04 #@! TD*
G04 #@! TO.P,SW33,1,1*
G04 #@! TO.N,Net-(D33-Pad2)*
X12014994Y-8032496D03*
G04 #@! TO.P,SW33,2,2*
G04 #@! TO.N,col3*
X10859995Y-7812496D03*
G04 #@! TD*
G04 #@! TO.P,SW24,1,1*
G04 #@! TO.N,Net-(D24-Pad2)*
X13714994Y-6332497D03*
G04 #@! TO.P,SW24,2,2*
G04 #@! TO.N,col4*
X12559994Y-6112497D03*
G04 #@! TD*
G04 #@! TO.P,SW32,1,1*
G04 #@! TO.N,Net-(D32-Pad2)*
X10314995Y-8032496D03*
G04 #@! TO.P,SW32,2,2*
G04 #@! TO.N,col2*
X9159995Y-7812496D03*
G04 #@! TD*
G04 #@! TO.P,SW31,1,1*
G04 #@! TO.N,Net-(D31-Pad2)*
X7959996Y-6842496D03*
G04 #@! TO.P,SW31,2,2*
G04 #@! TO.N,col1*
X9114996Y-7062496D03*
G04 #@! TD*
G04 #@! TO.P,SW3,1,1*
G04 #@! TO.N,Net-(D3-Pad2)*
X12014994Y-2932499D03*
G04 #@! TO.P,SW3,2,2*
G04 #@! TO.N,col3*
X10859995Y-2712499D03*
G04 #@! TD*
G04 #@! TO.P,SW14,1,1*
G04 #@! TO.N,Net-(D14-Pad2)*
X13714994Y-4632498D03*
G04 #@! TO.P,SW14,2,2*
G04 #@! TO.N,col4*
X12559994Y-4412498D03*
G04 #@! TD*
G04 #@! TO.P,SW21,1,1*
G04 #@! TO.N,Net-(D21-Pad2)*
X7959996Y-5142497D03*
G04 #@! TO.P,SW21,2,2*
G04 #@! TO.N,col1*
X9114996Y-5362497D03*
G04 #@! TD*
G04 #@! TO.P,SW2,1,1*
G04 #@! TO.N,Net-(D2-Pad2)*
X10314995Y-2932499D03*
G04 #@! TO.P,SW2,2,2*
G04 #@! TO.N,col2*
X9159995Y-2712499D03*
G04 #@! TD*
G04 #@! TO.P,SW12,1,1*
G04 #@! TO.N,Net-(D12-Pad2)*
X10314995Y-4632498D03*
G04 #@! TO.P,SW12,2,2*
G04 #@! TO.N,col2*
X9159995Y-4412498D03*
G04 #@! TD*
G04 #@! TO.P,SW22,1,1*
G04 #@! TO.N,Net-(D22-Pad2)*
X10314995Y-6332497D03*
G04 #@! TO.P,SW22,2,2*
G04 #@! TO.N,col2*
X9159995Y-6112497D03*
G04 #@! TD*
G04 #@! TO.P,SW11,1,1*
G04 #@! TO.N,Net-(D11-Pad2)*
X7959996Y-3442498D03*
G04 #@! TO.P,SW11,2,2*
G04 #@! TO.N,col1*
X9114996Y-3662498D03*
G04 #@! TD*
D11*
G04 #@! TO.P,D31,1,K*
G04 #@! TO.N,row4*
X8854163Y-7828330D03*
G04 #@! TO.P,D31,2,A*
G04 #@! TO.N,Net-(D31-Pad2)*
X8854163Y-8038330D03*
G04 #@! TD*
G04 #@! TO.P,D34,1,K*
G04 #@! TO.N,row4*
X13954160Y-7828330D03*
G04 #@! TO.P,D34,2,A*
G04 #@! TO.N,Net-(D34-Pad2)*
X13954160Y-8038330D03*
G04 #@! TD*
D12*
G04 #@! TO.P,C5,1*
G04 #@! TO.N,+5V*
X10583941Y-3308941D03*
G04 #@! TO.P,C5,2*
G04 #@! TO.N,GND*
X10516059Y-3241059D03*
G04 #@! TD*
D13*
G04 #@! TO.P,R4,1*
G04 #@! TO.N,D+*
X11425000Y-2324000D03*
G04 #@! TO.P,R4,2*
G04 #@! TO.N,D_res+*
X11425000Y-2426000D03*
G04 #@! TD*
D11*
G04 #@! TO.P,D11,1,K*
G04 #@! TO.N,row2*
X8854163Y-4428331D03*
G04 #@! TO.P,D11,2,A*
G04 #@! TO.N,Net-(D11-Pad2)*
X8854163Y-4638331D03*
G04 #@! TD*
G04 #@! TO.P,D22,1,K*
G04 #@! TO.N,row3*
X10554162Y-6128330D03*
G04 #@! TO.P,D22,2,A*
G04 #@! TO.N,Net-(D22-Pad2)*
X10554162Y-6338330D03*
G04 #@! TD*
G04 #@! TO.P,D24,1,K*
G04 #@! TO.N,row3*
X13954160Y-6128330D03*
G04 #@! TO.P,D24,2,A*
G04 #@! TO.N,Net-(D24-Pad2)*
X13954160Y-6338330D03*
G04 #@! TD*
D14*
G04 #@! TO.P,C4,1*
G04 #@! TO.N,+5V*
X11666059Y-3653941D03*
G04 #@! TO.P,C4,2*
G04 #@! TO.N,GND*
X11733941Y-3586059D03*
G04 #@! TD*
D15*
G04 #@! TO.P,U1,1,PE6*
G04 #@! TO.N,unconnected-(U1-Pad1)*
X11180048Y-3058058D03*
G04 #@! TO.P,U1,2,UVCC*
G04 #@! TO.N,+5V*
X11215404Y-3093413D03*
G04 #@! TO.P,U1,3,D-*
G04 #@! TO.N,D_res-*
X11250759Y-3128769D03*
G04 #@! TO.P,U1,4,D+*
G04 #@! TO.N,D_res+*
X11286114Y-3164124D03*
G04 #@! TO.P,U1,5,UGND*
G04 #@! TO.N,GND*
X11321470Y-3199479D03*
G04 #@! TO.P,U1,6,UCAP*
G04 #@! TO.N,Net-(C3-Pad1)*
X11356825Y-3234835D03*
G04 #@! TO.P,U1,7,VBUS*
G04 #@! TO.N,+5V*
X11392180Y-3270190D03*
G04 #@! TO.P,U1,8,PB0*
G04 #@! TO.N,unconnected-(U1-Pad8)*
X11427536Y-3305545D03*
G04 #@! TO.P,U1,9,PB1*
G04 #@! TO.N,unconnected-(U1-Pad9)*
X11462891Y-3340901D03*
G04 #@! TO.P,U1,10,PB2*
G04 #@! TO.N,unconnected-(U1-Pad10)*
X11498246Y-3376256D03*
G04 #@! TO.P,U1,11,PB3*
G04 #@! TO.N,unconnected-(U1-Pad11)*
X11533602Y-3411611D03*
D16*
G04 #@! TO.P,U1,12,PB7*
G04 #@! TO.N,unconnected-(U1-Pad12)*
X11533602Y-3530052D03*
G04 #@! TO.P,U1,13,~{RESET}*
G04 #@! TO.N,Net-(B1-Pad2)*
X11498246Y-3565407D03*
G04 #@! TO.P,U1,14,VCC*
G04 #@! TO.N,+5V*
X11462891Y-3600763D03*
G04 #@! TO.P,U1,15,GND*
G04 #@! TO.N,GND*
X11427536Y-3636118D03*
G04 #@! TO.P,U1,16,XTAL2*
G04 #@! TO.N,Net-(C2-Pad2)*
X11392180Y-3671473D03*
G04 #@! TO.P,U1,17,XTAL1*
G04 #@! TO.N,Net-(C1-Pad2)*
X11356825Y-3706829D03*
G04 #@! TO.P,U1,18,PD0*
G04 #@! TO.N,unconnected-(U1-Pad18)*
X11321470Y-3742184D03*
G04 #@! TO.P,U1,19,PD1*
G04 #@! TO.N,unconnected-(U1-Pad19)*
X11286114Y-3777539D03*
G04 #@! TO.P,U1,20,PD2*
G04 #@! TO.N,unconnected-(U1-Pad20)*
X11250759Y-3812895D03*
G04 #@! TO.P,U1,21,PD3*
G04 #@! TO.N,pad_a*
X11215404Y-3848250D03*
G04 #@! TO.P,U1,22,PD5*
G04 #@! TO.N,pad_b*
X11180048Y-3883605D03*
D15*
G04 #@! TO.P,U1,23,GND*
G04 #@! TO.N,GND*
X11061608Y-3883605D03*
G04 #@! TO.P,U1,24,AVCC*
G04 #@! TO.N,+5V*
X11026253Y-3848250D03*
G04 #@! TO.P,U1,25,PD4*
G04 #@! TO.N,unconnected-(U1-Pad25)*
X10990897Y-3812895D03*
G04 #@! TO.P,U1,26,PD6*
G04 #@! TO.N,col4*
X10955542Y-3777539D03*
G04 #@! TO.P,U1,27,PD7*
G04 #@! TO.N,col3*
X10920187Y-3742184D03*
G04 #@! TO.P,U1,28,PB4*
G04 #@! TO.N,col2*
X10884831Y-3706829D03*
G04 #@! TO.P,U1,29,PB5*
G04 #@! TO.N,col1*
X10849476Y-3671473D03*
G04 #@! TO.P,U1,30,PB6*
G04 #@! TO.N,unconnected-(U1-Pad30)*
X10814121Y-3636118D03*
G04 #@! TO.P,U1,31,PC6*
G04 #@! TO.N,unconnected-(U1-Pad31)*
X10778765Y-3600763D03*
G04 #@! TO.P,U1,32,PC7*
G04 #@! TO.N,unconnected-(U1-Pad32)*
X10743410Y-3565407D03*
G04 #@! TO.P,U1,33,~{HWB}/PE2*
G04 #@! TO.N,Net-(R6-Pad1)*
X10708055Y-3530052D03*
D16*
G04 #@! TO.P,U1,34,VCC*
G04 #@! TO.N,+5V*
X10708055Y-3411611D03*
G04 #@! TO.P,U1,35,GND*
G04 #@! TO.N,GND*
X10743410Y-3376256D03*
G04 #@! TO.P,U1,36,PF7*
G04 #@! TO.N,unconnected-(U1-Pad36)*
X10778765Y-3340901D03*
G04 #@! TO.P,U1,37,PF6*
G04 #@! TO.N,unconnected-(U1-Pad37)*
X10814121Y-3305545D03*
G04 #@! TO.P,U1,38,PF5*
G04 #@! TO.N,row4*
X10849476Y-3270190D03*
G04 #@! TO.P,U1,39,PF4*
G04 #@! TO.N,row3*
X10884831Y-3234835D03*
G04 #@! TO.P,U1,40,PF1*
G04 #@! TO.N,row2*
X10920187Y-3199479D03*
G04 #@! TO.P,U1,41,PF0*
G04 #@! TO.N,row1*
X10955542Y-3164124D03*
G04 #@! TO.P,U1,42,AREF*
G04 #@! TO.N,unconnected-(U1-Pad42)*
X10990897Y-3128769D03*
G04 #@! TO.P,U1,43,GND*
G04 #@! TO.N,GND*
X11026253Y-3093413D03*
G04 #@! TO.P,U1,44,AVCC*
G04 #@! TO.N,+5V*
X11061608Y-3058058D03*
D17*
G04 #@! TO.P,U1,45,GND*
G04 #@! TO.N,GND*
X11120828Y-3470832D03*
G04 #@! TD*
D11*
G04 #@! TO.P,D4,1,K*
G04 #@! TO.N,row1*
X13954160Y-2728332D03*
G04 #@! TO.P,D4,2,A*
G04 #@! TO.N,Net-(D4-Pad2)*
X13954160Y-2938332D03*
G04 #@! TD*
G04 #@! TO.P,D33,1,K*
G04 #@! TO.N,row4*
X12254161Y-7828330D03*
G04 #@! TO.P,D33,2,A*
G04 #@! TO.N,Net-(D33-Pad2)*
X12254161Y-8038330D03*
G04 #@! TD*
G04 #@! TO.P,D21,1,K*
G04 #@! TO.N,row3*
X8854163Y-6128330D03*
G04 #@! TO.P,D21,2,A*
G04 #@! TO.N,Net-(D21-Pad2)*
X8854163Y-6338330D03*
G04 #@! TD*
D18*
G04 #@! TO.P,C2,1*
G04 #@! TO.N,GND*
X11952000Y-3400000D03*
G04 #@! TO.P,C2,2*
G04 #@! TO.N,Net-(C2-Pad2)*
X12048000Y-3400000D03*
G04 #@! TD*
D19*
G04 #@! TO.P,Y1,1,1*
G04 #@! TO.N,Net-(C1-Pad2)*
X11890000Y-3785000D03*
G04 #@! TO.P,Y1,2,2*
G04 #@! TO.N,GND*
X11890000Y-3565000D03*
G04 #@! TO.P,Y1,3,3*
G04 #@! TO.N,Net-(C2-Pad2)*
X12060000Y-3565000D03*
G04 #@! TO.P,Y1,4,4*
G04 #@! TO.N,GND*
X12060000Y-3785000D03*
G04 #@! TD*
D20*
G04 #@! TO.P,SW5,A,A*
G04 #@! TO.N,pad_a*
X13137513Y-1612502D03*
D21*
G04 #@! TO.P,SW5,B,B*
G04 #@! TO.N,pad_b*
X13637513Y-1612502D03*
G04 #@! TO.P,SW5,C,C*
G04 #@! TO.N,GND*
X13387513Y-1612502D03*
D22*
G04 #@! TO.P,SW5,MP*
G04 #@! TO.N,N/C*
X13947513Y-2362502D03*
X12827513Y-2362502D03*
D21*
G04 #@! TO.P,SW5,S1,S1*
G04 #@! TO.N,col4*
X13137513Y-3062502D03*
G04 #@! TO.P,SW5,S2,S2*
G04 #@! TO.N,Net-(D4-Pad2)*
X13637513Y-3062502D03*
G04 #@! TD*
D11*
G04 #@! TO.P,D32,1,K*
G04 #@! TO.N,row4*
X10554162Y-7828330D03*
G04 #@! TO.P,D32,2,A*
G04 #@! TO.N,Net-(D32-Pad2)*
X10554162Y-8038330D03*
G04 #@! TD*
D13*
G04 #@! TO.P,R5,1*
G04 #@! TO.N,D-*
X11300000Y-2324000D03*
G04 #@! TO.P,R5,2*
G04 #@! TO.N,D_res-*
X11300000Y-2426000D03*
G04 #@! TD*
D11*
G04 #@! TO.P,D14,1,K*
G04 #@! TO.N,row2*
X13954160Y-4428331D03*
G04 #@! TO.P,D14,2,A*
G04 #@! TO.N,Net-(D14-Pad2)*
X13954160Y-4638331D03*
G04 #@! TD*
D23*
G04 #@! TO.P,C7,1*
G04 #@! TO.N,+5V*
X10968941Y-2953559D03*
G04 #@! TO.P,C7,2*
G04 #@! TO.N,GND*
X10901059Y-3021441D03*
G04 #@! TD*
D24*
G04 #@! TO.P,R6,1*
G04 #@! TO.N,Net-(R6-Pad1)*
X10476000Y-3500000D03*
G04 #@! TO.P,R6,2*
G04 #@! TO.N,GND*
X10374000Y-3500000D03*
G04 #@! TD*
D11*
G04 #@! TO.P,D13,1,K*
G04 #@! TO.N,row2*
X12254161Y-4428331D03*
G04 #@! TO.P,D13,2,A*
G04 #@! TO.N,Net-(D13-Pad2)*
X12254161Y-4638331D03*
G04 #@! TD*
D25*
G04 #@! TO.P,B1,1,1*
G04 #@! TO.N,GND*
X13694000Y-3382000D03*
X13074000Y-3382000D03*
G04 #@! TO.P,B1,2,2*
G04 #@! TO.N,Net-(B1-Pad2)*
X13694000Y-3752000D03*
X13074000Y-3752000D03*
G04 #@! TD*
D11*
G04 #@! TO.P,D1,1,K*
G04 #@! TO.N,row1*
X8854163Y-2728332D03*
G04 #@! TO.P,D1,2,A*
G04 #@! TO.N,Net-(D1-Pad2)*
X8854163Y-2938332D03*
G04 #@! TD*
G04 #@! TO.P,D3,1,K*
G04 #@! TO.N,row1*
X12254161Y-2728332D03*
G04 #@! TO.P,D3,2,A*
G04 #@! TO.N,Net-(D3-Pad2)*
X12254161Y-2938332D03*
G04 #@! TD*
D18*
G04 #@! TO.P,C6,1*
G04 #@! TO.N,+5V*
X10883162Y-4037498D03*
G04 #@! TO.P,C6,2*
G04 #@! TO.N,GND*
X10979162Y-4037498D03*
G04 #@! TD*
D26*
G04 #@! TO.P,R3,1*
G04 #@! TO.N,Net-(J1-PadB5)*
X11699000Y-2100000D03*
G04 #@! TO.P,R3,2*
G04 #@! TO.N,GND*
X11801000Y-2100000D03*
G04 #@! TD*
D11*
G04 #@! TO.P,D23,1,K*
G04 #@! TO.N,row3*
X12254161Y-6128330D03*
G04 #@! TO.P,D23,2,A*
G04 #@! TO.N,Net-(D23-Pad2)*
X12254161Y-6338330D03*
G04 #@! TD*
D27*
G04 #@! TO.P,C1,1*
G04 #@! TO.N,GND*
X12073000Y-3950000D03*
G04 #@! TO.P,C1,2*
G04 #@! TO.N,Net-(C1-Pad2)*
X11977000Y-3950000D03*
G04 #@! TD*
D28*
G04 #@! TO.P,J1,A1,GND*
G04 #@! TO.N,GND*
X10785828Y-2066999D03*
G04 #@! TO.P,J1,A4,VBUS*
G04 #@! TO.N,VBUS*
X10865828Y-2066999D03*
G04 #@! TO.P,J1,A5,CC1*
G04 #@! TO.N,Net-(J1-PadA5)*
X10995828Y-2066999D03*
G04 #@! TO.P,J1,A6,D+*
G04 #@! TO.N,D+*
X11095828Y-2066999D03*
G04 #@! TO.P,J1,A7,D-*
G04 #@! TO.N,D-*
X11145828Y-2066999D03*
G04 #@! TO.P,J1,A8,SBU1*
G04 #@! TO.N,unconnected-(J1-PadA8)*
X11245828Y-2066999D03*
G04 #@! TO.P,J1,A9,VBUS*
G04 #@! TO.N,VBUS*
X11375828Y-2066999D03*
G04 #@! TO.P,J1,A12,GND*
G04 #@! TO.N,GND*
X11455828Y-2066999D03*
G04 #@! TO.P,J1,B1,GND*
X11425828Y-2066999D03*
G04 #@! TO.P,J1,B4,VBUS*
G04 #@! TO.N,VBUS*
X11345828Y-2066999D03*
G04 #@! TO.P,J1,B5,CC2*
G04 #@! TO.N,Net-(J1-PadB5)*
X11295828Y-2066999D03*
G04 #@! TO.P,J1,B6,D+*
G04 #@! TO.N,D+*
X11195828Y-2066999D03*
G04 #@! TO.P,J1,B7,D-*
G04 #@! TO.N,D-*
X11045828Y-2066999D03*
G04 #@! TO.P,J1,B8,SBU2*
G04 #@! TO.N,unconnected-(J1-PadB8)*
X10945828Y-2066999D03*
G04 #@! TO.P,J1,B9,VBUS*
G04 #@! TO.N,VBUS*
X10895828Y-2066999D03*
G04 #@! TO.P,J1,B12,GND*
G04 #@! TO.N,GND*
X10815828Y-2066999D03*
D29*
G04 #@! TO.P,J1,S1,SHIELD*
X10688828Y-2010499D03*
D30*
X10688828Y-1592499D03*
X11552828Y-1592499D03*
D29*
X11552828Y-2010499D03*
G04 #@! TD*
D11*
G04 #@! TO.P,D12,1,K*
G04 #@! TO.N,row2*
X10554162Y-4428331D03*
G04 #@! TO.P,D12,2,A*
G04 #@! TO.N,Net-(D12-Pad2)*
X10554162Y-4638331D03*
G04 #@! TD*
D31*
G04 #@! TO.P,F1,1*
G04 #@! TO.N,VBUS*
X10300000Y-2260000D03*
G04 #@! TO.P,F1,2*
G04 #@! TO.N,+5V*
X10300000Y-2540000D03*
G04 #@! TD*
D32*
G04 #@! TO.P,C3,1*
G04 #@! TO.N,Net-(C3-Pad1)*
X11714059Y-3198059D03*
G04 #@! TO.P,C3,2*
G04 #@! TO.N,GND*
X11781941Y-3265941D03*
G04 #@! TD*
D13*
G04 #@! TO.P,R2,1*
G04 #@! TO.N,Net-(J1-PadA5)*
X10775000Y-2248000D03*
G04 #@! TO.P,R2,2*
G04 #@! TO.N,GND*
X10775000Y-2350000D03*
G04 #@! TD*
G04 #@! TO.P,R1,1*
G04 #@! TO.N,+5V*
X12895000Y-3510000D03*
G04 #@! TO.P,R1,2*
G04 #@! TO.N,Net-(B1-Pad2)*
X12895000Y-3612000D03*
G04 #@! TD*
D11*
G04 #@! TO.P,D2,1,K*
G04 #@! TO.N,row1*
X10554162Y-2728332D03*
G04 #@! TO.P,D2,2,A*
G04 #@! TO.N,Net-(D2-Pad2)*
X10554162Y-2938332D03*
G04 #@! TD*
D33*
G04 #@! TO.N,GND*
X10380000Y-3422450D03*
X12679161Y-2974999D03*
X10676000Y-2422000D03*
X10390000Y-3277550D03*
X12466661Y-2974999D03*
G04 #@! TO.N,Net-(B1-Pad2)*
X11776009Y-3440000D03*
X11583836Y-3463836D03*
G04 #@! TO.N,Net-(C2-Pad2)*
X12193449Y-3752135D03*
X11547445Y-3824998D03*
G04 #@! TO.N,+5V*
X11193898Y-2950000D03*
X11540000Y-3161450D03*
X12324994Y-3187498D03*
X12749994Y-3399998D03*
G04 #@! TO.N,row1*
X11404161Y-1677550D03*
X12340000Y-2720000D03*
X11687494Y-1699999D03*
X12260000Y-2640000D03*
X8860000Y-2500000D03*
X10380000Y-2700000D03*
X13880000Y-2720000D03*
G04 #@! TO.N,Net-(D3-Pad2)*
X12254161Y-2833332D03*
X12041661Y-2691665D03*
G04 #@! TO.N,pad_a*
X11388359Y-3840822D03*
G04 #@! TO.N,pad_b*
X11475011Y-4320837D03*
X12820845Y-4745838D03*
G04 #@! TO.N,row2*
X10635641Y-2979079D03*
X12254161Y-4320831D03*
X11242541Y-4674998D03*
X10766662Y-4674998D03*
X12395827Y-4710098D03*
X8854163Y-4320831D03*
X13954160Y-4320831D03*
X12395827Y-5454164D03*
X11262495Y-5454164D03*
X10462618Y-4341542D03*
G04 #@! TO.N,row3*
X9820877Y-5925045D03*
X10370360Y-3606149D03*
X9774995Y-3824998D03*
X10504945Y-3022000D03*
X12254161Y-6020830D03*
X10199995Y-3612498D03*
X9774995Y-4157498D03*
X10554162Y-6020830D03*
X13954160Y-6020830D03*
X9987495Y-3612498D03*
X8854163Y-6020830D03*
G04 #@! TO.N,row4*
X12254161Y-7720830D03*
X9598453Y-4002622D03*
X9633329Y-3258332D03*
X8854163Y-7720830D03*
X9679210Y-7625044D03*
X10554162Y-7720830D03*
X13954160Y-7720830D03*
X10026227Y-3148767D03*
X9633329Y-4179165D03*
G04 #@! TO.N,VBUS*
X11375000Y-1850000D03*
X11175000Y-1850000D03*
G04 #@! TO.N,col1*
X10052550Y-3720000D03*
X8712496Y-6233330D03*
X8712496Y-6516664D03*
X10197450Y-3720000D03*
G04 #@! TO.N,col2*
X9973542Y-3781219D03*
X9420829Y-3258332D03*
X10239726Y-3810569D03*
X9420829Y-3103780D03*
G04 #@! TO.N,col3*
X10300000Y-4080000D03*
X10860000Y-4200000D03*
X10310401Y-3881245D03*
X10859995Y-2877550D03*
G04 #@! TO.N,col4*
X12820827Y-3329165D03*
X12560000Y-4889950D03*
X10388755Y-3959598D03*
X12891661Y-3824998D03*
X10370538Y-4249462D03*
X10380000Y-4420000D03*
G04 #@! TD*
D34*
G04 #@! TO.N,GND*
X11026253Y-3093413D02*
X10961780Y-3028941D01*
X11487396Y-2691665D02*
X11566611Y-2612450D01*
D35*
X10517118Y-3240000D02*
X10617828Y-3240000D01*
X10516059Y-3241059D02*
X10517118Y-3240000D01*
D34*
X11102962Y-3729961D02*
X10625093Y-3252093D01*
X11890000Y-3575000D02*
X12060000Y-3745000D01*
X10961780Y-3028941D02*
X10908559Y-3028941D01*
X10837985Y-3470832D02*
X11120828Y-3470832D01*
X13269964Y-1744953D02*
X13005061Y-1744953D01*
D35*
X12174946Y-3092054D02*
X12349605Y-3092054D01*
D34*
X11120828Y-3820917D02*
X11120828Y-3470832D01*
D35*
X12679161Y-2987161D02*
X13074000Y-3382000D01*
D34*
X11061608Y-3883605D02*
X11003000Y-3942213D01*
X11692151Y-3737849D02*
X11742249Y-3737849D01*
X11427536Y-3636118D02*
X11262249Y-3470832D01*
X12060000Y-3745000D02*
X12060000Y-3785000D01*
D35*
X12174550Y-3092450D02*
X12174946Y-3092054D01*
D34*
X10748000Y-2350000D02*
X10676000Y-2422000D01*
X10745328Y-2066999D02*
X10688828Y-2010499D01*
D35*
X10374000Y-3428450D02*
X10380000Y-3422450D01*
D34*
X13387513Y-1612502D02*
X13387513Y-1627404D01*
X11496328Y-2066999D02*
X11552828Y-2010499D01*
X11321470Y-3199479D02*
X11120828Y-3400121D01*
X11003000Y-4013660D02*
X10979162Y-4037498D01*
D35*
X12174946Y-2473946D02*
X11801000Y-2100000D01*
D34*
X13387513Y-1627404D02*
X13269964Y-1744953D01*
D35*
X12174946Y-2612450D02*
X12174946Y-2473946D01*
D34*
X11026253Y-3093413D02*
X11120828Y-3187989D01*
X11734431Y-3695569D02*
X11692151Y-3737849D01*
X11120828Y-3400121D02*
X11120828Y-3470832D01*
X11566611Y-2612450D02*
X12174946Y-2612450D01*
X11952000Y-3503000D02*
X11890000Y-3565000D01*
D35*
X10617828Y-3240000D02*
X10848660Y-3470832D01*
D34*
X10815828Y-2066999D02*
X10745328Y-2066999D01*
X13005061Y-1744953D02*
X12852607Y-1592499D01*
X11427536Y-3636118D02*
X11529267Y-3737849D01*
D35*
X13074000Y-3382000D02*
X13694000Y-3382000D01*
D34*
X11890000Y-3590098D02*
X11890000Y-3565000D01*
D35*
X11955432Y-3092450D02*
X12174550Y-3092450D01*
D34*
X12073000Y-3798000D02*
X12060000Y-3785000D01*
X12073000Y-3950000D02*
X12073000Y-3798000D01*
D35*
X10848660Y-3470832D02*
X11120828Y-3470832D01*
X11781941Y-3265941D02*
X11955432Y-3092450D01*
D34*
X11952000Y-3400000D02*
X11952000Y-3503000D01*
X11425828Y-2066999D02*
X11496328Y-2066999D01*
X11061608Y-3880138D02*
X11120828Y-3820917D01*
X11262249Y-3470832D02*
X11120828Y-3470832D01*
D35*
X10390000Y-3277550D02*
X10479568Y-3277550D01*
X12174946Y-3092054D02*
X12174946Y-2612450D01*
D34*
X11734431Y-3586549D02*
X11734431Y-3695569D01*
X11003000Y-3942213D02*
X11003000Y-4013660D01*
X11102962Y-3842252D02*
X11102962Y-3729961D01*
X11061608Y-3883605D02*
X11061608Y-3880138D01*
X11487396Y-3033553D02*
X11487396Y-2691665D01*
X10908559Y-3028941D02*
X10901059Y-3021441D01*
X11321470Y-3199479D02*
X11487396Y-3033553D01*
X12852607Y-1592499D02*
X11552828Y-1592499D01*
X11529267Y-3737849D02*
X11692151Y-3737849D01*
X11742249Y-3737849D02*
X11890000Y-3590098D01*
X11890000Y-3565000D02*
X11890000Y-3575000D01*
D35*
X12349605Y-3092054D02*
X12466661Y-2974999D01*
X10374000Y-3500000D02*
X10374000Y-3428450D01*
D34*
X10775000Y-2350000D02*
X10748000Y-2350000D01*
D35*
X12679161Y-2974999D02*
X12679161Y-2987161D01*
D34*
X11733941Y-3586059D02*
X11734431Y-3586549D01*
X10743410Y-3376256D02*
X10837985Y-3470832D01*
D35*
X10479568Y-3277550D02*
X10516059Y-3241059D01*
D34*
X11120828Y-3187989D02*
X11120828Y-3470832D01*
D35*
G04 #@! TO.N,Net-(B1-Pad2)*
X11537100Y-3604261D02*
X11577765Y-3604261D01*
X12583520Y-3332451D02*
X12863070Y-3612000D01*
X11498246Y-3565407D02*
X11537100Y-3604261D01*
X12964000Y-3752000D02*
X13074000Y-3752000D01*
X11949451Y-3332451D02*
X12583520Y-3332451D01*
X11577765Y-3604261D02*
X11607811Y-3574215D01*
X12895000Y-3683000D02*
X12964000Y-3752000D01*
X12895000Y-3612000D02*
X12895000Y-3683000D01*
X12863070Y-3612000D02*
X12895000Y-3612000D01*
X11607811Y-3574215D02*
X11607811Y-3487811D01*
X11776009Y-3440000D02*
X11777000Y-3440000D01*
X11917000Y-3300000D02*
X11949451Y-3332451D01*
X11777000Y-3440000D02*
X11917000Y-3300000D01*
X11607811Y-3487811D02*
X11583836Y-3463836D01*
X13074000Y-3752000D02*
X13694000Y-3752000D01*
D34*
G04 #@! TO.N,Net-(C1-Pad2)*
X11474995Y-3824998D02*
X11474995Y-4120430D01*
X11977000Y-4043425D02*
X11977000Y-3950000D01*
X11890000Y-3785000D02*
X11890000Y-3863000D01*
X11356825Y-3706829D02*
X11474995Y-3824998D01*
X11474995Y-4120430D02*
X11600964Y-4246400D01*
X11600964Y-4246400D02*
X11774025Y-4246400D01*
X11774025Y-4246400D02*
X11977000Y-4043425D01*
X11890000Y-3863000D02*
X11977000Y-3950000D01*
G04 #@! TO.N,Net-(C2-Pad2)*
X12193449Y-3752135D02*
X12060000Y-3565000D01*
X12060000Y-3412000D02*
X12048000Y-3400000D01*
X11543348Y-3822641D02*
X11545087Y-3822641D01*
X11392180Y-3671473D02*
X11543348Y-3822641D01*
X11545087Y-3822641D02*
X11547445Y-3824998D01*
X12060000Y-3565000D02*
X12060000Y-3412000D01*
G04 #@! TO.N,Net-(C3-Pad1)*
X11681059Y-3198059D02*
X11714059Y-3198059D01*
X11356825Y-3234835D02*
X11363964Y-3234835D01*
X11363964Y-3234835D02*
X11509799Y-3089000D01*
X11509799Y-3089000D02*
X11572000Y-3089000D01*
X11572000Y-3089000D02*
X11681059Y-3198059D01*
G04 #@! TO.N,+5V*
X12859996Y-3510000D02*
X12749994Y-3399998D01*
X10583941Y-3308941D02*
X10605384Y-3308941D01*
X9800043Y-2854854D02*
X9800043Y-3025043D01*
X10487696Y-4161000D02*
X10737693Y-4161000D01*
X11951501Y-3187498D02*
X11900952Y-3238048D01*
X10737693Y-4161000D02*
X10923000Y-3975693D01*
X11392180Y-3270190D02*
X11500920Y-3161450D01*
D35*
X11714550Y-3336000D02*
X11803000Y-3336000D01*
D34*
X11058058Y-3058058D02*
X10950000Y-2950000D01*
X10923000Y-3951502D02*
X11026253Y-3848250D01*
X11215404Y-3093413D02*
X11256757Y-3052060D01*
X10772593Y-2950000D02*
X10697543Y-2874950D01*
X10605384Y-3308941D02*
X10708055Y-3411611D01*
X10950000Y-2950000D02*
X10772593Y-2950000D01*
X10125000Y-3350000D02*
X10542882Y-3350000D01*
X11061608Y-3058058D02*
X11058058Y-3058058D01*
X11256757Y-3012859D02*
X11193898Y-2950000D01*
X10114897Y-2540000D02*
X9800043Y-2854854D01*
X10923000Y-3975000D02*
X10923000Y-3951502D01*
D35*
X11666059Y-3384491D02*
X11714550Y-3336000D01*
D34*
X10300000Y-2540000D02*
X10114897Y-2540000D01*
X10697543Y-2494451D02*
X10345549Y-2494451D01*
X11193898Y-2950000D02*
X10950000Y-2950000D01*
D35*
X11525128Y-3663000D02*
X11657000Y-3663000D01*
D34*
X11256757Y-3052060D02*
X11256757Y-3012859D01*
X10345549Y-2494451D02*
X10300000Y-2540000D01*
X12895000Y-3510000D02*
X12859996Y-3510000D01*
D35*
X11540000Y-3161450D02*
X11714550Y-3336000D01*
D34*
X10923000Y-3975693D02*
X10923000Y-3975000D01*
D35*
X11462891Y-3600763D02*
X11525128Y-3663000D01*
D34*
X10697543Y-2874950D02*
X10697543Y-2494451D01*
X9800043Y-3025043D02*
X10125000Y-3350000D01*
X10542882Y-3350000D02*
X10583941Y-3308941D01*
X11500920Y-3161450D02*
X11540000Y-3161450D01*
X10125000Y-3798304D02*
X10487696Y-4161000D01*
D35*
X11803000Y-3336000D02*
X11900952Y-3238048D01*
D34*
X10125000Y-3350000D02*
X10125000Y-3798304D01*
X12324994Y-3187498D02*
X11951501Y-3187498D01*
D35*
X11666059Y-3653941D02*
X11666059Y-3384491D01*
D34*
G04 #@! TO.N,row1*
X10380000Y-2700000D02*
X10525830Y-2700000D01*
X12260000Y-2640000D02*
X12260000Y-2722493D01*
X10786370Y-2994952D02*
X10753974Y-2994952D01*
X12254161Y-2728332D02*
X12331668Y-2728332D01*
X12331668Y-2728332D02*
X12340000Y-2720000D01*
X8854163Y-2728332D02*
X8854163Y-2505838D01*
X10525830Y-2700000D02*
X10554162Y-2728332D01*
X8854163Y-2505838D02*
X8860000Y-2500000D01*
X13880000Y-2720000D02*
X13945828Y-2720000D01*
X10554162Y-2795140D02*
X10554162Y-2728332D01*
X10955542Y-3164124D02*
X10786370Y-2994952D01*
X12260000Y-2722493D02*
X12254161Y-2728332D01*
X11404161Y-1677550D02*
X11431562Y-1704951D01*
X13945828Y-2720000D02*
X13954160Y-2728332D01*
X11431562Y-1704951D02*
X11682542Y-1704951D01*
X11682542Y-1704951D02*
X11687494Y-1699999D01*
X10753974Y-2994952D02*
X10554162Y-2795140D01*
G04 #@! TO.N,Net-(D1-Pad2)*
X7959996Y-2305431D02*
X8592897Y-2938332D01*
X8592897Y-2938332D02*
X8854163Y-2938332D01*
X7959996Y-1742499D02*
X7959996Y-2305431D01*
G04 #@! TO.N,Net-(D2-Pad2)*
X10554162Y-2938332D02*
X10320828Y-2938332D01*
X10320828Y-2938332D02*
X10314995Y-2932499D01*
G04 #@! TO.N,Net-(D3-Pad2)*
X12014994Y-2932499D02*
X12014994Y-2718332D01*
X12014994Y-2718332D02*
X12041661Y-2691665D01*
X12254161Y-2833332D02*
X12254161Y-2938332D01*
G04 #@! TO.N,Net-(D4-Pad2)*
X13714994Y-2932499D02*
X13948327Y-2932499D01*
X13637513Y-3062502D02*
X13637513Y-3009980D01*
X13637513Y-3009980D02*
X13714994Y-2932499D01*
X13948327Y-2932499D02*
X13954160Y-2938332D01*
G04 #@! TO.N,pad_a*
X11388359Y-3840822D02*
X11333344Y-3895837D01*
X11333344Y-3895837D02*
X11262991Y-3895837D01*
X11262991Y-3895837D02*
X11215404Y-3848250D01*
G04 #@! TO.N,pad_b*
X14009111Y-2665881D02*
X14009111Y-3646791D01*
X11180048Y-3906751D02*
X11333344Y-4060047D01*
X13104179Y-4462504D02*
X12820845Y-4745838D01*
X13322273Y-3794452D02*
X13104179Y-4012546D01*
X13526550Y-3794452D02*
X13322273Y-3794452D01*
X11475011Y-4320837D02*
X11475011Y-4250004D01*
X13637513Y-1612502D02*
X13637513Y-2375051D01*
X13637513Y-2375051D02*
X13928342Y-2665881D01*
X13928342Y-2665881D02*
X14009111Y-2665881D01*
X13571549Y-3839451D02*
X13526550Y-3794452D01*
X13816451Y-3839451D02*
X13571549Y-3839451D01*
X14009111Y-3646791D02*
X13816451Y-3839451D01*
X11333344Y-4108337D02*
X11333344Y-4060047D01*
X13104179Y-4012546D02*
X13104179Y-4462504D01*
X11180048Y-3883605D02*
X11180048Y-3906751D01*
X11475011Y-4250004D02*
X11333344Y-4108337D01*
G04 #@! TO.N,row2*
X11262495Y-5454164D02*
X11262495Y-4694952D01*
X10554162Y-4462498D02*
X10554162Y-4428331D01*
X10696466Y-3039904D02*
X10635641Y-2979079D01*
X10766662Y-4674998D02*
X10554162Y-4462498D01*
X10462618Y-4341542D02*
X10467373Y-4341542D01*
X10760611Y-3039904D02*
X10696466Y-3039904D01*
X8854163Y-4428331D02*
X8854163Y-4320831D01*
X13954160Y-4320831D02*
X13954160Y-4428331D01*
X10467373Y-4341542D02*
X10554162Y-4428331D01*
X10920187Y-3199479D02*
X10760611Y-3039904D01*
X12395827Y-4710098D02*
X12395827Y-5454164D01*
X11262495Y-4694952D02*
X11242541Y-4674998D01*
X12254161Y-4320831D02*
X12254161Y-4428331D01*
G04 #@! TO.N,Net-(D11-Pad2)*
X7959996Y-3442498D02*
X7959996Y-4005430D01*
X8592897Y-4638331D02*
X8854163Y-4638331D01*
X7959996Y-4005430D02*
X8592897Y-4638331D01*
G04 #@! TO.N,Net-(D12-Pad2)*
X10314995Y-4632498D02*
X10548329Y-4632498D01*
X10548329Y-4632498D02*
X10554162Y-4638331D01*
G04 #@! TO.N,Net-(D13-Pad2)*
X12248328Y-4632498D02*
X12254161Y-4638331D01*
X12014994Y-4632498D02*
X12248328Y-4632498D01*
G04 #@! TO.N,Net-(D14-Pad2)*
X13948327Y-4632498D02*
X13954160Y-4638331D01*
X13714994Y-4632498D02*
X13948327Y-4632498D01*
G04 #@! TO.N,row3*
X10734852Y-3084856D02*
X10592397Y-3084856D01*
X9774995Y-4157498D02*
X9774995Y-5879164D01*
X12254161Y-6020830D02*
X12254161Y-6128330D01*
X10370360Y-3606149D02*
X10206344Y-3606149D01*
X10529541Y-3022000D02*
X10504945Y-3022000D01*
X10554162Y-6020830D02*
X10554162Y-6128330D01*
X10592397Y-3084856D02*
X10529541Y-3022000D01*
X10206344Y-3606149D02*
X10199995Y-3612498D01*
X9774995Y-5879164D02*
X9820877Y-5925045D01*
X10884831Y-3234835D02*
X10734852Y-3084856D01*
X13954160Y-6020830D02*
X13954160Y-6128330D01*
X9987495Y-3612498D02*
X9774995Y-3824998D01*
X8854163Y-6128330D02*
X8854163Y-6020830D01*
G04 #@! TO.N,Net-(D21-Pad2)*
X7959996Y-5142497D02*
X7959996Y-5705430D01*
X7959996Y-5705430D02*
X8592897Y-6338330D01*
X8592897Y-6338330D02*
X8854163Y-6338330D01*
G04 #@! TO.N,Net-(D22-Pad2)*
X10314995Y-6332497D02*
X10548329Y-6332497D01*
X10548329Y-6332497D02*
X10554162Y-6338330D01*
G04 #@! TO.N,Net-(D23-Pad2)*
X12248328Y-6332497D02*
X12254161Y-6338330D01*
X12014994Y-6332497D02*
X12248328Y-6332497D01*
G04 #@! TO.N,Net-(D24-Pad2)*
X13948327Y-6332497D02*
X13954160Y-6338330D01*
X13714994Y-6332497D02*
X13948327Y-6332497D01*
G04 #@! TO.N,row4*
X10728053Y-3148767D02*
X10026227Y-3148767D01*
X13954160Y-7720830D02*
X13954160Y-7828330D01*
X9633329Y-4249998D02*
X9704162Y-4320831D01*
X9704162Y-7600092D02*
X9679210Y-7625044D01*
X8854163Y-7828330D02*
X8854163Y-7720830D01*
X9633329Y-4179165D02*
X9633329Y-4249998D01*
X9633329Y-3967747D02*
X9598453Y-4002622D01*
X9633329Y-3258332D02*
X9633329Y-3967747D01*
X10849476Y-3270190D02*
X10728053Y-3148767D01*
X9704162Y-4320831D02*
X9704162Y-7600092D01*
X12254161Y-7720830D02*
X12254161Y-7828330D01*
X10554162Y-7720830D02*
X10554162Y-7828330D01*
G04 #@! TO.N,Net-(D31-Pad2)*
X7959996Y-6842496D02*
X7959996Y-7405429D01*
X7959996Y-7405429D02*
X8592897Y-8038330D01*
X8592897Y-8038330D02*
X8854163Y-8038330D01*
G04 #@! TO.N,Net-(D32-Pad2)*
X10548329Y-8032496D02*
X10554162Y-8038330D01*
X10314995Y-8032496D02*
X10548329Y-8032496D01*
G04 #@! TO.N,Net-(D33-Pad2)*
X12248328Y-8032496D02*
X12254161Y-8038330D01*
X12014994Y-8032496D02*
X12248328Y-8032496D01*
G04 #@! TO.N,Net-(D34-Pad2)*
X13714994Y-8032496D02*
X13948327Y-8032496D01*
X13948327Y-8032496D02*
X13954160Y-8038330D01*
D35*
G04 #@! TO.N,VBUS*
X11342376Y-1929024D02*
X11350000Y-1921400D01*
D34*
X10865828Y-2025426D02*
X11041255Y-1850000D01*
X10830327Y-2175000D02*
X10385000Y-2175000D01*
X11350000Y-1875000D02*
X11350000Y-1921400D01*
X10385000Y-2175000D02*
X10300000Y-2260000D01*
X10895828Y-2066999D02*
X10895828Y-2109499D01*
X11375000Y-1850000D02*
X11350000Y-1875000D01*
D35*
X11342376Y-2033547D02*
X11342376Y-1929024D01*
D34*
X11041255Y-1850000D02*
X11175000Y-1850000D01*
X10895828Y-2109499D02*
X10830327Y-2175000D01*
D35*
X11375828Y-2066999D02*
X11342376Y-2033547D01*
D34*
X10865828Y-2066999D02*
X10865828Y-2025426D01*
G04 #@! TO.N,Net-(J1-PadA5)*
X10902230Y-2248000D02*
X10995828Y-2154401D01*
X10775000Y-2248000D02*
X10902230Y-2248000D01*
X10995828Y-2154401D02*
X10995828Y-2066999D01*
D35*
G04 #@! TO.N,D+*
X11095828Y-2066999D02*
X11100877Y-2066999D01*
X11190779Y-2154450D02*
X11190779Y-2089779D01*
X11100877Y-2066999D02*
X11100877Y-2154450D01*
X11200877Y-2154450D02*
X11255450Y-2154450D01*
X11190779Y-2089779D02*
X11200877Y-2099877D01*
X11100877Y-2154450D02*
X11190779Y-2154450D01*
X11200877Y-2099877D02*
X11200877Y-2154450D01*
X11255450Y-2154450D02*
X11425000Y-2324000D01*
G04 #@! TO.N,D-*
X11045828Y-2066999D02*
X11050829Y-2072000D01*
X11145828Y-1984597D02*
X11136231Y-1975000D01*
X11082238Y-2199449D02*
X11236810Y-2199449D01*
X11050829Y-2168041D02*
X11082238Y-2199449D01*
X11050829Y-2072000D02*
X11050829Y-2168041D01*
X11045828Y-1984597D02*
X11045828Y-2066999D01*
X11300000Y-2262640D02*
X11300000Y-2324000D01*
X11136231Y-1975000D02*
X11055425Y-1975000D01*
X11236810Y-2199449D02*
X11300000Y-2262640D01*
X11145828Y-2066999D02*
X11145828Y-1984597D01*
X11055425Y-1975000D02*
X11045828Y-1984597D01*
D34*
G04 #@! TO.N,Net-(J1-PadB5)*
X11300000Y-1750000D02*
X11295828Y-1754172D01*
X11295828Y-1754172D02*
X11295828Y-2066999D01*
X11699000Y-2100000D02*
X11699000Y-1885276D01*
X11699000Y-1885276D02*
X11563724Y-1750000D01*
X11563724Y-1750000D02*
X11300000Y-1750000D01*
G04 #@! TO.N,Net-(R6-Pad1)*
X10476000Y-3500000D02*
X10678003Y-3500000D01*
X10678003Y-3500000D02*
X10708055Y-3530052D01*
D35*
G04 #@! TO.N,col1*
X9197537Y-3332451D02*
X8999115Y-3332451D01*
X8999115Y-3332451D02*
X8992544Y-3325880D01*
X10849476Y-3671473D02*
X10810622Y-3710327D01*
D34*
X8712496Y-6035798D02*
X9114996Y-5633298D01*
D35*
X8992544Y-3540046D02*
X8992544Y-3325880D01*
X8992544Y-3325880D02*
X8992544Y-2084951D01*
X10052550Y-3720000D02*
X10060000Y-3712550D01*
D34*
X9114996Y-5362497D02*
X8990044Y-5237545D01*
D35*
X8992544Y-2084951D02*
X9114996Y-1962499D01*
D34*
X8990044Y-5237545D02*
X8990044Y-3787451D01*
D35*
X9888694Y-3173730D02*
X9846270Y-3173730D01*
X9846270Y-3173730D02*
X9356258Y-3173730D01*
X10060000Y-3712550D02*
X10060000Y-3345036D01*
D34*
X8990044Y-3787451D02*
X9114996Y-3662498D01*
D35*
X10207123Y-3710327D02*
X10197450Y-3720000D01*
X9114996Y-3662498D02*
X8992544Y-3540046D01*
X9356258Y-3173730D02*
X9197537Y-3332451D01*
D34*
X9114996Y-7062496D02*
X9114996Y-6919164D01*
D35*
X10810622Y-3710327D02*
X10207123Y-3710327D01*
D34*
X9114996Y-6919164D02*
X8712496Y-6516664D01*
D35*
X10060000Y-3345036D02*
X9907482Y-3192518D01*
D34*
X8712496Y-6233330D02*
X8712496Y-6035798D01*
D35*
X9907482Y-3192518D02*
X9888694Y-3173730D01*
D34*
X9114996Y-5633298D02*
X9114996Y-5362497D01*
D35*
G04 #@! TO.N,col2*
X9420829Y-2973332D02*
X9159995Y-2712499D01*
X9159995Y-4412498D02*
X9279162Y-4293331D01*
X10300000Y-3750279D02*
X10239726Y-3810553D01*
X9918781Y-3781219D02*
X9472454Y-4227546D01*
X9472454Y-4227546D02*
X9344947Y-4227546D01*
X9282448Y-5990045D02*
X9159995Y-6112497D01*
X9279162Y-3399998D02*
X9420829Y-3258332D01*
X9282448Y-7690044D02*
X9282448Y-6234950D01*
X10841381Y-3750279D02*
X10300000Y-3750279D01*
X9279162Y-4293331D02*
X9279162Y-3399998D01*
X9282448Y-6234950D02*
X9159995Y-6112497D01*
X10884831Y-3706829D02*
X10841381Y-3750279D01*
X9159995Y-4412498D02*
X9282448Y-4534951D01*
D34*
X9277447Y-4295046D02*
X9159995Y-4412498D01*
D35*
X10239726Y-3810553D02*
X10239726Y-3810569D01*
X9420829Y-3103780D02*
X9420829Y-2973332D01*
X9159995Y-7812496D02*
X9282448Y-7690044D01*
X9344947Y-4227546D02*
X9159995Y-4412498D01*
X9282448Y-4534951D02*
X9282448Y-5990045D01*
X9973542Y-3781219D02*
X9918781Y-3781219D01*
D34*
G04 #@! TO.N,col3*
X10859995Y-4412498D02*
X10859995Y-7812496D01*
D35*
X10329769Y-3790231D02*
X10872140Y-3790231D01*
D34*
X10859995Y-2712499D02*
X10859995Y-2877550D01*
X10860000Y-4412493D02*
X10859995Y-4412498D01*
D35*
X10588380Y-4368380D02*
X10815877Y-4368380D01*
X10815877Y-4368380D02*
X10859995Y-4412498D01*
X10310401Y-3881245D02*
X10310401Y-3809599D01*
D34*
X10860000Y-4200000D02*
X10860000Y-4412493D01*
D35*
X10300000Y-4080000D02*
X10588380Y-4368380D01*
X10872140Y-3790231D02*
X10920187Y-3742184D01*
X10310401Y-3809599D02*
X10329769Y-3790231D01*
G04 #@! TO.N,col4*
X12560000Y-4889950D02*
X12559994Y-4889956D01*
X12682446Y-7690044D02*
X12559994Y-7812496D01*
X12559994Y-6112497D02*
X12682446Y-6234950D01*
X10370538Y-4410538D02*
X10380000Y-4420000D01*
X12559994Y-4889956D02*
X12559994Y-6112497D01*
D34*
X12559994Y-3001469D02*
X12820827Y-3262303D01*
X12891661Y-3824998D02*
X12876693Y-3824998D01*
X13137513Y-3062502D02*
X12909997Y-3062502D01*
D35*
X10370538Y-4249462D02*
X10370538Y-4410538D01*
D34*
X12559994Y-4141697D02*
X12559994Y-4412498D01*
D35*
X10858985Y-3874096D02*
X10474257Y-3874096D01*
X12560000Y-4889950D02*
X12559994Y-4889944D01*
X10955542Y-3777539D02*
X10858985Y-3874096D01*
X12682446Y-6234950D02*
X12682446Y-7690044D01*
D34*
X12876693Y-3824998D02*
X12559994Y-4141697D01*
D35*
X10474257Y-3874096D02*
X10388755Y-3959598D01*
D34*
X12909997Y-3062502D02*
X12559994Y-2712499D01*
D35*
X12559994Y-4889944D02*
X12559994Y-4412498D01*
D34*
X12820827Y-3262303D02*
X12820827Y-3329165D01*
X12559994Y-2712499D02*
X12559994Y-3001469D01*
D35*
G04 #@! TO.N,D_res+*
X11417446Y-3029257D02*
X11286114Y-3160589D01*
X11425000Y-2426000D02*
X11385000Y-2466000D01*
X11385000Y-2584804D02*
X11417446Y-2617250D01*
X11417446Y-2617250D02*
X11417446Y-3029257D01*
X11286114Y-3160589D02*
X11286114Y-3164124D01*
X11385000Y-2466000D02*
X11385000Y-2584804D01*
G04 #@! TO.N,D_res-*
X11254294Y-3128769D02*
X11250759Y-3128769D01*
X11300000Y-2426000D02*
X11340000Y-2466000D01*
X11372447Y-2635889D02*
X11372447Y-3010617D01*
X11372447Y-3010617D02*
X11254294Y-3128769D01*
X11340000Y-2603442D02*
X11372447Y-2635889D01*
X11340000Y-2466000D02*
X11340000Y-2603442D01*
G04 #@! TD*
G04 #@! TA.AperFunction,Conductor*
G04 #@! TO.N,GND*
G36*
X12415212Y-3395301D02*
G01*
X12419861Y-3400666D01*
X12421000Y-3405901D01*
X12421000Y-4222827D01*
X12419000Y-4229639D01*
X12413634Y-4234288D01*
X12412823Y-4234625D01*
X12406448Y-4237015D01*
X12405323Y-4237437D01*
X12393668Y-4246172D01*
X12384932Y-4257828D01*
X12384617Y-4258668D01*
X12380081Y-4270768D01*
X12375817Y-4276444D01*
X12368509Y-4278943D01*
X12342651Y-4279407D01*
X12335804Y-4277529D01*
X12331513Y-4273109D01*
X12328395Y-4267709D01*
X12328065Y-4267137D01*
X12320440Y-4258668D01*
X12315728Y-4253436D01*
X12315728Y-4253436D01*
X12315286Y-4252945D01*
X12299836Y-4241720D01*
X12299233Y-4241451D01*
X12299233Y-4241451D01*
X12282993Y-4234220D01*
X12282993Y-4234220D01*
X12282390Y-4233952D01*
X12273050Y-4231967D01*
X12264355Y-4230119D01*
X12264355Y-4230119D01*
X12263710Y-4229981D01*
X12244612Y-4229981D01*
X12243967Y-4230119D01*
X12243966Y-4230119D01*
X12235272Y-4231967D01*
X12225932Y-4233952D01*
X12225329Y-4234220D01*
X12225329Y-4234220D01*
X12209089Y-4241451D01*
X12209088Y-4241451D01*
X12208486Y-4241720D01*
X12193036Y-4252945D01*
X12192593Y-4253436D01*
X12192593Y-4253436D01*
X12187882Y-4258668D01*
X12180257Y-4267137D01*
X12179927Y-4267709D01*
X12174960Y-4276312D01*
X12169821Y-4281211D01*
X12164274Y-4282610D01*
X12057564Y-4284526D01*
X11852450Y-4288209D01*
X11845603Y-4286331D01*
X11840858Y-4281050D01*
X11839722Y-4274042D01*
X11842555Y-4267532D01*
X11843314Y-4266701D01*
X12016225Y-4093791D01*
X12017054Y-4093036D01*
X12017702Y-4092625D01*
X12022366Y-4087658D01*
X12022641Y-4087374D01*
X12024613Y-4085402D01*
X12024861Y-4085082D01*
X12025632Y-4084180D01*
X12028116Y-4081535D01*
X12028659Y-4080957D01*
X12029635Y-4079182D01*
X12030720Y-4077529D01*
X12031475Y-4076555D01*
X12031961Y-4075929D01*
X12033718Y-4071871D01*
X12034238Y-4070808D01*
X12036369Y-4066931D01*
X12036567Y-4066163D01*
X12036567Y-4066163D01*
X12036873Y-4064969D01*
X12037514Y-4063098D01*
X12038003Y-4061967D01*
X12038318Y-4061239D01*
X12038442Y-4060457D01*
X12038442Y-4060456D01*
X12039010Y-4056872D01*
X12039250Y-4055710D01*
X12040153Y-4052196D01*
X12040153Y-4052196D01*
X12040350Y-4051428D01*
X12040350Y-4049402D01*
X12040505Y-4047431D01*
X12040698Y-4046213D01*
X12040822Y-4045431D01*
X12040607Y-4043160D01*
X12041958Y-4036190D01*
X12046309Y-4031394D01*
X12047197Y-4030820D01*
X12047600Y-4029931D01*
X12047600Y-4002138D01*
X12049355Y-3995724D01*
X12050586Y-3993642D01*
X12050586Y-3993642D01*
X12050989Y-3992960D01*
X12055561Y-3977225D01*
X12055850Y-3973548D01*
X12055850Y-3926452D01*
X12055561Y-3922775D01*
X12050989Y-3907040D01*
X12050350Y-3905959D01*
X12043052Y-3893619D01*
X12042649Y-3892937D01*
X12038290Y-3888579D01*
X12034888Y-3882348D01*
X12034600Y-3879669D01*
X12034600Y-3772200D01*
X12036600Y-3765388D01*
X12041966Y-3760739D01*
X12047200Y-3759600D01*
X12072800Y-3759600D01*
X12079612Y-3761600D01*
X12084261Y-3766966D01*
X12085400Y-3772200D01*
X12085400Y-3862388D01*
X12085847Y-3863912D01*
X12085986Y-3864033D01*
X12088078Y-3864488D01*
X12088000Y-3864846D01*
X12092612Y-3866200D01*
X12097261Y-3871566D01*
X12098400Y-3876800D01*
X12098400Y-4029356D01*
X12099479Y-4033032D01*
X12100990Y-4035383D01*
X12101492Y-4038460D01*
X12102080Y-4054125D01*
X12106817Y-4076703D01*
X12107013Y-4077199D01*
X12107013Y-4077199D01*
X12108725Y-4081535D01*
X12115291Y-4098160D01*
X12127259Y-4117883D01*
X12127609Y-4118286D01*
X12141574Y-4134379D01*
X12142379Y-4135307D01*
X12142792Y-4135646D01*
X12159806Y-4149596D01*
X12159807Y-4149597D01*
X12160219Y-4149935D01*
X12180268Y-4161347D01*
X12180770Y-4161530D01*
X12180770Y-4161530D01*
X12201452Y-4169037D01*
X12201452Y-4169037D01*
X12201953Y-4169219D01*
X12202478Y-4169314D01*
X12202479Y-4169314D01*
X12224247Y-4173250D01*
X12224247Y-4173250D01*
X12224655Y-4173324D01*
X12226429Y-4173408D01*
X12226924Y-4173431D01*
X12226924Y-4173431D01*
X12227072Y-4173438D01*
X12243287Y-4173438D01*
X12249983Y-4172870D01*
X12259951Y-4172024D01*
X12259951Y-4172024D01*
X12260482Y-4171979D01*
X12260997Y-4171845D01*
X12260998Y-4171845D01*
X12282295Y-4166318D01*
X12282295Y-4166317D01*
X12282812Y-4166183D01*
X12283298Y-4165964D01*
X12283299Y-4165964D01*
X12303359Y-4156927D01*
X12303846Y-4156708D01*
X12304288Y-4156411D01*
X12304288Y-4156410D01*
X12317563Y-4147473D01*
X12322983Y-4143824D01*
X12339676Y-4127900D01*
X12348908Y-4115492D01*
X12353128Y-4109819D01*
X12353128Y-4109819D01*
X12353447Y-4109391D01*
X12358925Y-4098616D01*
X12363660Y-4089303D01*
X12363660Y-4089303D01*
X12363902Y-4088827D01*
X12369167Y-4071872D01*
X12370585Y-4067305D01*
X12370585Y-4067304D01*
X12370743Y-4066795D01*
X12373310Y-4047431D01*
X12373704Y-4044453D01*
X12373704Y-4044453D01*
X12373774Y-4043925D01*
X12373734Y-4042844D01*
X12372936Y-4021593D01*
X12372909Y-4020871D01*
X12368172Y-3998293D01*
X12359698Y-3976836D01*
X12347730Y-3957113D01*
X12345409Y-3954439D01*
X12332960Y-3940092D01*
X12332960Y-3940092D01*
X12332610Y-3939689D01*
X12326825Y-3934946D01*
X12315183Y-3925400D01*
X12315182Y-3925399D01*
X12314770Y-3925061D01*
X12294721Y-3913649D01*
X12294219Y-3913467D01*
X12294219Y-3913466D01*
X12273537Y-3905959D01*
X12273537Y-3905959D01*
X12273035Y-3905777D01*
X12272511Y-3905682D01*
X12272510Y-3905682D01*
X12250742Y-3901746D01*
X12250741Y-3901746D01*
X12250334Y-3901672D01*
X12248560Y-3901588D01*
X12248065Y-3901565D01*
X12248065Y-3901565D01*
X12247916Y-3901558D01*
X12231702Y-3901558D01*
X12225006Y-3902126D01*
X12215038Y-3902972D01*
X12215038Y-3902972D01*
X12214507Y-3903017D01*
X12213992Y-3903151D01*
X12213991Y-3903151D01*
X12192694Y-3908679D01*
X12192694Y-3908679D01*
X12192177Y-3908813D01*
X12191691Y-3909032D01*
X12191690Y-3909032D01*
X12181847Y-3913466D01*
X12171143Y-3918288D01*
X12170701Y-3918586D01*
X12170701Y-3918586D01*
X12167951Y-3920437D01*
X12161183Y-3922582D01*
X12154330Y-3920728D01*
X12149567Y-3915463D01*
X12148814Y-3913501D01*
X12147284Y-3908233D01*
X12147304Y-3901134D01*
X12151159Y-3895172D01*
X12151827Y-3894635D01*
X12155572Y-3891828D01*
X12156828Y-3890572D01*
X12164479Y-3880365D01*
X12165332Y-3878805D01*
X12169848Y-3866761D01*
X12170210Y-3865235D01*
X12170763Y-3860149D01*
X12170800Y-3859467D01*
X12170800Y-3855532D01*
X12172800Y-3848720D01*
X12178166Y-3844071D01*
X12183900Y-3843134D01*
X12183900Y-3842985D01*
X12202997Y-3842985D01*
X12203642Y-3842848D01*
X12203643Y-3842848D01*
X12212337Y-3840999D01*
X12221677Y-3839014D01*
X12230776Y-3834963D01*
X12238521Y-3831515D01*
X12238521Y-3831515D01*
X12239124Y-3831247D01*
X12254574Y-3820021D01*
X12257602Y-3816658D01*
X12266911Y-3806320D01*
X12266911Y-3806320D01*
X12267353Y-3805829D01*
X12275167Y-3792294D01*
X12276571Y-3789863D01*
X12276571Y-3789863D01*
X12276901Y-3789290D01*
X12282803Y-3771128D01*
X12284799Y-3752135D01*
X12283672Y-3741410D01*
X12282872Y-3733798D01*
X12282872Y-3733798D01*
X12282803Y-3733142D01*
X12276901Y-3714979D01*
X12273230Y-3708620D01*
X12271556Y-3701720D01*
X12273878Y-3695011D01*
X12275942Y-3692753D01*
X12282077Y-3687494D01*
X12282562Y-3687079D01*
X12295061Y-3670966D01*
X12304064Y-3652668D01*
X12305055Y-3648864D01*
X12309043Y-3633552D01*
X12309044Y-3633552D01*
X12309204Y-3632934D01*
X12309737Y-3622770D01*
X12310238Y-3613207D01*
X12310238Y-3613207D01*
X12310272Y-3612569D01*
X12307222Y-3592406D01*
X12303393Y-3581997D01*
X12300401Y-3573866D01*
X12300401Y-3573866D01*
X12300181Y-3573267D01*
X12289435Y-3555936D01*
X12285902Y-3552200D01*
X12275862Y-3541583D01*
X12275423Y-3541119D01*
X12274880Y-3540739D01*
X12259242Y-3529789D01*
X12259242Y-3529789D01*
X12258718Y-3529422D01*
X12240003Y-3521323D01*
X12232393Y-3519734D01*
X12220516Y-3517252D01*
X12220515Y-3517252D01*
X12220041Y-3517153D01*
X12219557Y-3517128D01*
X12219557Y-3517128D01*
X12219550Y-3517127D01*
X12219373Y-3517118D01*
X12204398Y-3517118D01*
X12197133Y-3517856D01*
X12189841Y-3518597D01*
X12189841Y-3518597D01*
X12189206Y-3518661D01*
X12187561Y-3519177D01*
X12187218Y-3519284D01*
X12180119Y-3519413D01*
X12174078Y-3515683D01*
X12171013Y-3509279D01*
X12170850Y-3507261D01*
X12170850Y-3490187D01*
X12170174Y-3483968D01*
X12165061Y-3470329D01*
X12156326Y-3458674D01*
X12144670Y-3449938D01*
X12143830Y-3449623D01*
X12143829Y-3449623D01*
X12133323Y-3445685D01*
X12127647Y-3441421D01*
X12125177Y-3434764D01*
X12125647Y-3430371D01*
X12126381Y-3427844D01*
X12126381Y-3427843D01*
X12126561Y-3427225D01*
X12126850Y-3423548D01*
X12126850Y-3405901D01*
X12128850Y-3399088D01*
X12134216Y-3394439D01*
X12139450Y-3393301D01*
X12408400Y-3393301D01*
X12415212Y-3395301D01*
G37*
G04 #@! TD.AperFunction*
G04 #@! TA.AperFunction,Conductor*
G36*
X11786536Y-3662583D02*
G01*
X11789096Y-3665135D01*
X11790795Y-3667402D01*
X11793280Y-3674052D01*
X11791775Y-3680990D01*
X11790795Y-3682515D01*
X11784938Y-3690329D01*
X11779825Y-3703968D01*
X11779150Y-3710187D01*
X11779150Y-3815942D01*
X11777150Y-3822754D01*
X11771784Y-3827403D01*
X11764757Y-3828413D01*
X11762950Y-3828017D01*
X11737255Y-3820356D01*
X11737255Y-3820356D01*
X11736855Y-3820237D01*
X11736443Y-3820172D01*
X11736443Y-3820172D01*
X11708035Y-3815673D01*
X11708035Y-3815672D01*
X11707687Y-3815617D01*
X11705231Y-3815506D01*
X11698593Y-3815204D01*
X11698591Y-3815204D01*
X11698451Y-3815198D01*
X11680004Y-3815198D01*
X11658028Y-3816658D01*
X11651910Y-3817891D01*
X11644837Y-3817277D01*
X11639219Y-3812936D01*
X11637057Y-3807297D01*
X11637005Y-3807308D01*
X11636935Y-3806980D01*
X11636888Y-3806857D01*
X11636868Y-3806662D01*
X11636868Y-3806662D01*
X11636799Y-3806005D01*
X11630897Y-3787843D01*
X11621349Y-3771304D01*
X11617672Y-3767221D01*
X11609012Y-3757603D01*
X11609012Y-3757603D01*
X11608570Y-3757112D01*
X11594162Y-3746644D01*
X11589827Y-3741021D01*
X11589219Y-3733948D01*
X11592532Y-3727669D01*
X11598714Y-3724177D01*
X11601568Y-3723850D01*
X11619382Y-3723850D01*
X11626194Y-3725850D01*
X11627564Y-3726868D01*
X11629759Y-3728743D01*
X11630323Y-3729053D01*
X11630324Y-3729053D01*
X11635439Y-3731865D01*
X11644118Y-3736637D01*
X11659988Y-3740711D01*
X11676373Y-3740711D01*
X11689064Y-3737453D01*
X11691474Y-3736834D01*
X11691475Y-3736834D01*
X11692243Y-3736637D01*
X11696769Y-3734148D01*
X11706037Y-3729053D01*
X11706037Y-3729053D01*
X11706601Y-3728743D01*
X11709406Y-3726348D01*
X11738465Y-3697288D01*
X11740861Y-3694483D01*
X11741812Y-3692753D01*
X11748372Y-3680820D01*
X11748754Y-3680125D01*
X11749238Y-3678240D01*
X11752870Y-3672139D01*
X11758309Y-3669169D01*
X11759339Y-3668904D01*
X11760801Y-3668325D01*
X11772944Y-3661650D01*
X11779877Y-3660121D01*
X11786536Y-3662583D01*
G37*
G04 #@! TD.AperFunction*
G04 #@! TA.AperFunction,Conductor*
G36*
X11909612Y-3541600D02*
G01*
X11914261Y-3546966D01*
X11915400Y-3552200D01*
X11915400Y-3577800D01*
X11913400Y-3584612D01*
X11908034Y-3589261D01*
X11902800Y-3590400D01*
X11787800Y-3590400D01*
X11780988Y-3588400D01*
X11776339Y-3583034D01*
X11775200Y-3577800D01*
X11775200Y-3552200D01*
X11777200Y-3545388D01*
X11782566Y-3540739D01*
X11787800Y-3539600D01*
X11902800Y-3539600D01*
X11909612Y-3541600D01*
G37*
G04 #@! TD.AperFunction*
G04 #@! TA.AperFunction,Conductor*
G36*
X10703405Y-3214117D02*
G01*
X10705503Y-3215807D01*
X10723160Y-3233465D01*
X10726563Y-3239696D01*
X10726056Y-3246777D01*
X10721801Y-3252461D01*
X10721224Y-3252842D01*
X10720801Y-3253017D01*
X10711868Y-3259872D01*
X10697736Y-3274003D01*
X10690881Y-3282936D01*
X10690877Y-3282947D01*
X10686012Y-3287585D01*
X10679040Y-3288929D01*
X10672449Y-3286290D01*
X10671329Y-3285295D01*
X10665275Y-3279241D01*
X10663143Y-3276402D01*
X10659053Y-3268963D01*
X10659053Y-3268963D01*
X10658743Y-3268399D01*
X10656348Y-3265594D01*
X10627288Y-3236534D01*
X10624670Y-3234298D01*
X10620789Y-3228353D01*
X10620738Y-3221254D01*
X10624533Y-3215254D01*
X10630970Y-3212258D01*
X10632853Y-3212117D01*
X10696593Y-3212117D01*
X10703405Y-3214117D01*
G37*
G04 #@! TD.AperFunction*
G04 #@! TA.AperFunction,Conductor*
G36*
X10425781Y-3214117D02*
G01*
X10430430Y-3219483D01*
X10431441Y-3226510D01*
X10431173Y-3227851D01*
X10429536Y-3234226D01*
X10429339Y-3235786D01*
X10429339Y-3250574D01*
X10429536Y-3252134D01*
X10433213Y-3266456D01*
X10433792Y-3267919D01*
X10433826Y-3267980D01*
X10433838Y-3268034D01*
X10434084Y-3268656D01*
X10433984Y-3268696D01*
X10435355Y-3274914D01*
X10432892Y-3281573D01*
X10427221Y-3285843D01*
X10422784Y-3286650D01*
X10324796Y-3286650D01*
X10317984Y-3284650D01*
X10313335Y-3279284D01*
X10312325Y-3272257D01*
X10315274Y-3265799D01*
X10318830Y-3262952D01*
X10325026Y-3259621D01*
X10410595Y-3213619D01*
X10416561Y-3212117D01*
X10418969Y-3212117D01*
X10425781Y-3214117D01*
G37*
G04 #@! TD.AperFunction*
G04 #@! TA.AperFunction,Conductor*
G36*
X12257841Y-3095988D02*
G01*
X12264615Y-3098114D01*
X12269164Y-3103564D01*
X12270045Y-3110609D01*
X12266977Y-3117012D01*
X12265015Y-3118779D01*
X12263869Y-3119612D01*
X12263427Y-3120102D01*
X12262936Y-3120544D01*
X12262824Y-3120420D01*
X12257493Y-3123704D01*
X12254174Y-3124148D01*
X12185353Y-3124148D01*
X12178541Y-3122148D01*
X12173892Y-3116783D01*
X12172882Y-3109755D01*
X12175831Y-3103297D01*
X12177797Y-3101466D01*
X12181321Y-3098825D01*
X12181669Y-3098360D01*
X12187760Y-3095034D01*
X12190671Y-3094748D01*
X12257841Y-3095988D01*
G37*
G04 #@! TD.AperFunction*
G04 #@! TD*
G04 #@! TA.AperFunction,Conductor*
G04 #@! TO.N,GND*
G36*
X11022680Y-2227557D02*
G01*
X11027186Y-2230453D01*
X11031250Y-2234516D01*
X11034652Y-2240747D01*
X11034146Y-2247829D01*
X11032449Y-2250946D01*
X11021542Y-2265606D01*
X11021301Y-2266081D01*
X11015832Y-2276837D01*
X11011087Y-2286170D01*
X11008486Y-2294547D01*
X11004404Y-2307692D01*
X11004404Y-2307693D01*
X11004246Y-2308202D01*
X11003941Y-2310502D01*
X11001371Y-2329895D01*
X11001215Y-2331072D01*
X11001235Y-2331605D01*
X11001235Y-2331605D01*
X11001492Y-2338450D01*
X11002080Y-2354126D01*
X11006817Y-2376704D01*
X11015291Y-2398161D01*
X11027259Y-2417884D01*
X11027609Y-2418287D01*
X11041004Y-2433723D01*
X11042379Y-2435308D01*
X11042792Y-2435647D01*
X11059806Y-2449597D01*
X11059807Y-2449598D01*
X11060219Y-2449936D01*
X11061633Y-2450740D01*
X11062879Y-2451450D01*
X11067809Y-2456558D01*
X11069196Y-2463521D01*
X11066597Y-2470128D01*
X11060839Y-2474282D01*
X11056646Y-2475000D01*
X10766847Y-2475000D01*
X10760035Y-2473000D01*
X10755504Y-2467832D01*
X10755320Y-2467264D01*
X10754895Y-2466594D01*
X10754878Y-2466568D01*
X10753802Y-2464455D01*
X10753791Y-2464427D01*
X10753790Y-2464426D01*
X10753499Y-2463689D01*
X10753033Y-2463049D01*
X10753033Y-2463048D01*
X10750198Y-2459146D01*
X10749753Y-2458491D01*
X10748622Y-2456709D01*
X10746743Y-2453749D01*
X10746143Y-2453185D01*
X10744575Y-2451407D01*
X10744557Y-2451382D01*
X10744557Y-2451382D01*
X10744091Y-2450740D01*
X10742702Y-2449592D01*
X10738728Y-2443708D01*
X10738566Y-2436611D01*
X10742267Y-2430552D01*
X10748144Y-2427553D01*
X10749303Y-2427309D01*
X10749600Y-2426163D01*
X10749600Y-2425957D01*
X10800400Y-2425957D01*
X10800834Y-2427436D01*
X10802000Y-2427642D01*
X10802998Y-2427564D01*
X10804256Y-2427334D01*
X10818478Y-2423202D01*
X10819922Y-2422577D01*
X10832541Y-2415115D01*
X10833784Y-2414150D01*
X10844150Y-2403784D01*
X10845115Y-2402541D01*
X10852577Y-2389922D01*
X10853202Y-2388478D01*
X10856496Y-2377140D01*
X10856492Y-2375730D01*
X10855765Y-2375400D01*
X10802212Y-2375400D01*
X10800688Y-2375848D01*
X10800567Y-2375987D01*
X10800400Y-2376755D01*
X10800400Y-2425957D01*
X10749600Y-2425957D01*
X10749600Y-2338450D01*
X10751600Y-2331638D01*
X10756966Y-2326989D01*
X10762200Y-2325850D01*
X10799006Y-2325850D01*
X10799999Y-2325850D01*
X10803647Y-2325563D01*
X10804265Y-2325383D01*
X10804265Y-2325383D01*
X10805239Y-2325100D01*
X10808754Y-2324600D01*
X10855190Y-2324600D01*
X10856543Y-2324203D01*
X10856837Y-2322157D01*
X10859786Y-2315699D01*
X10865759Y-2311860D01*
X10869309Y-2311350D01*
X10894353Y-2311350D01*
X10895471Y-2311403D01*
X10896220Y-2311570D01*
X10897013Y-2311545D01*
X10897013Y-2311545D01*
X10903028Y-2311356D01*
X10903424Y-2311350D01*
X10906215Y-2311350D01*
X10906609Y-2311300D01*
X10906615Y-2311300D01*
X10907799Y-2311206D01*
X10911025Y-2311105D01*
X10911427Y-2311092D01*
X10912218Y-2311067D01*
X10914164Y-2310502D01*
X10916100Y-2310101D01*
X10917323Y-2309947D01*
X10917323Y-2309947D01*
X10918109Y-2309847D01*
X10918846Y-2309556D01*
X10918847Y-2309556D01*
X10922221Y-2308220D01*
X10923344Y-2307835D01*
X10926828Y-2306823D01*
X10926828Y-2306823D01*
X10927589Y-2306602D01*
X10928271Y-2306199D01*
X10928271Y-2306198D01*
X10929332Y-2305571D01*
X10931107Y-2304701D01*
X10932991Y-2303955D01*
X10936568Y-2301356D01*
X10937560Y-2300705D01*
X10940683Y-2298858D01*
X10940683Y-2298858D01*
X10941366Y-2298454D01*
X10942798Y-2297022D01*
X10944301Y-2295738D01*
X10945299Y-2295013D01*
X10945940Y-2294547D01*
X10946445Y-2293937D01*
X10946446Y-2293936D01*
X10948759Y-2291140D01*
X10949558Y-2290262D01*
X11009367Y-2230453D01*
X11015599Y-2227050D01*
X11022680Y-2227557D01*
G37*
G04 #@! TD.AperFunction*
G04 #@! TA.AperFunction,Conductor*
G36*
X11944212Y-1540349D02*
G01*
X11948861Y-1545715D01*
X11950000Y-1550949D01*
X11950000Y-2462400D01*
X11948000Y-2469212D01*
X11942634Y-2473861D01*
X11937400Y-2475000D01*
X11886478Y-2475000D01*
X11879666Y-2473000D01*
X11875017Y-2467634D01*
X11874006Y-2460607D01*
X11875911Y-2455538D01*
X11877968Y-2452370D01*
X11881979Y-2446193D01*
X11894646Y-2419516D01*
X11897760Y-2409820D01*
X11903546Y-2391797D01*
X11903546Y-2391797D01*
X11903674Y-2391399D01*
X11906447Y-2375987D01*
X11908830Y-2362745D01*
X11908830Y-2362744D01*
X11908903Y-2362334D01*
X11909253Y-2354648D01*
X11910224Y-2333250D01*
X11910224Y-2333250D01*
X11910243Y-2332833D01*
X11910139Y-2331638D01*
X11907706Y-2303830D01*
X11907669Y-2303414D01*
X11907578Y-2303006D01*
X11901318Y-2275002D01*
X11901318Y-2275001D01*
X11901227Y-2274594D01*
X11891030Y-2246879D01*
X11890646Y-2246150D01*
X11880843Y-2227557D01*
X11877257Y-2220756D01*
X11865625Y-2204389D01*
X11860393Y-2197025D01*
X11860392Y-2197025D01*
X11860150Y-2196684D01*
X11859866Y-2196379D01*
X11859865Y-2196379D01*
X11852409Y-2188383D01*
X11849226Y-2182037D01*
X11849980Y-2174978D01*
X11853902Y-2169834D01*
X11854784Y-2169150D01*
X11865150Y-2158784D01*
X11866115Y-2157541D01*
X11873577Y-2144922D01*
X11874202Y-2143478D01*
X11878334Y-2129256D01*
X11878564Y-2127998D01*
X11878626Y-2127206D01*
X11878309Y-2125697D01*
X11877163Y-2125400D01*
X11789450Y-2125400D01*
X11782638Y-2123400D01*
X11777989Y-2118034D01*
X11776850Y-2112800D01*
X11776850Y-2075248D01*
X11776850Y-2075001D01*
X11776676Y-2072788D01*
X11826400Y-2072788D01*
X11826847Y-2074312D01*
X11826986Y-2074433D01*
X11827755Y-2074600D01*
X11876957Y-2074600D01*
X11878436Y-2074166D01*
X11878642Y-2073000D01*
X11878564Y-2072002D01*
X11878334Y-2070744D01*
X11874202Y-2056522D01*
X11873577Y-2055078D01*
X11866115Y-2042459D01*
X11865150Y-2041216D01*
X11854784Y-2030850D01*
X11853540Y-2029885D01*
X11840922Y-2022423D01*
X11839478Y-2021798D01*
X11828139Y-2018504D01*
X11826729Y-2018508D01*
X11826400Y-2019235D01*
X11826400Y-2072788D01*
X11776676Y-2072788D01*
X11776563Y-2071353D01*
X11776100Y-2069761D01*
X11775600Y-2066246D01*
X11775600Y-2019810D01*
X11775203Y-2018457D01*
X11773157Y-2018163D01*
X11766699Y-2015214D01*
X11762860Y-2009241D01*
X11762350Y-2005691D01*
X11762350Y-1893153D01*
X11762403Y-1892034D01*
X11762570Y-1891285D01*
X11762483Y-1888496D01*
X11762356Y-1884476D01*
X11762350Y-1884080D01*
X11762350Y-1881290D01*
X11762300Y-1880891D01*
X11762206Y-1879707D01*
X11762172Y-1878613D01*
X11762067Y-1875287D01*
X11761846Y-1874525D01*
X11761846Y-1874525D01*
X11761502Y-1873342D01*
X11761101Y-1871405D01*
X11760947Y-1870182D01*
X11760847Y-1869396D01*
X11760556Y-1868659D01*
X11760556Y-1868659D01*
X11759220Y-1865285D01*
X11758835Y-1864162D01*
X11758329Y-1862419D01*
X11757602Y-1859916D01*
X11756690Y-1858374D01*
X11756571Y-1858173D01*
X11755701Y-1856398D01*
X11754955Y-1854514D01*
X11752356Y-1850937D01*
X11751705Y-1849945D01*
X11749858Y-1846822D01*
X11749858Y-1846822D01*
X11749454Y-1846140D01*
X11748022Y-1844707D01*
X11746738Y-1843204D01*
X11746013Y-1842206D01*
X11745547Y-1841565D01*
X11742139Y-1838746D01*
X11741262Y-1837947D01*
X11710938Y-1807624D01*
X11707536Y-1801393D01*
X11708042Y-1794311D01*
X11712297Y-1788627D01*
X11715632Y-1786898D01*
X11715723Y-1786879D01*
X11732378Y-1779463D01*
X11732567Y-1779379D01*
X11732567Y-1779379D01*
X11733170Y-1779111D01*
X11748620Y-1767886D01*
X11749062Y-1767395D01*
X11760957Y-1754184D01*
X11760957Y-1754184D01*
X11761398Y-1753694D01*
X11768548Y-1741311D01*
X11770617Y-1737727D01*
X11770617Y-1737727D01*
X11770947Y-1737155D01*
X11776849Y-1718992D01*
X11777102Y-1716585D01*
X11778776Y-1700656D01*
X11778845Y-1699999D01*
X11778141Y-1693299D01*
X11776918Y-1681663D01*
X11776918Y-1681662D01*
X11776849Y-1681006D01*
X11770947Y-1662844D01*
X11769598Y-1660507D01*
X11761729Y-1646877D01*
X11761398Y-1646305D01*
X11748620Y-1632113D01*
X11733170Y-1620887D01*
X11732567Y-1620619D01*
X11732567Y-1620619D01*
X11716326Y-1613388D01*
X11716326Y-1613388D01*
X11715723Y-1613120D01*
X11706383Y-1611134D01*
X11697689Y-1609286D01*
X11697688Y-1609286D01*
X11697043Y-1609149D01*
X11677946Y-1609149D01*
X11677301Y-1609286D01*
X11677300Y-1609286D01*
X11663428Y-1612235D01*
X11659266Y-1613120D01*
X11658662Y-1613388D01*
X11658662Y-1613388D01*
X11650977Y-1616810D01*
X11645853Y-1617899D01*
X11540028Y-1617899D01*
X11533216Y-1615899D01*
X11528567Y-1610533D01*
X11527428Y-1605299D01*
X11527428Y-1579699D01*
X11529428Y-1572887D01*
X11534794Y-1568238D01*
X11540028Y-1567099D01*
X11651817Y-1567099D01*
X11653340Y-1566652D01*
X11653461Y-1566513D01*
X11653628Y-1565744D01*
X11653628Y-1557833D01*
X11653598Y-1557219D01*
X11653104Y-1552179D01*
X11654430Y-1545204D01*
X11659316Y-1540053D01*
X11665644Y-1538349D01*
X11937400Y-1538349D01*
X11944212Y-1540349D01*
G37*
G04 #@! TD.AperFunction*
G04 #@! TA.AperFunction,Conductor*
G36*
X10685960Y-2366331D02*
G01*
X10691253Y-2371063D01*
X10692648Y-2374195D01*
X10696798Y-2388478D01*
X10697423Y-2389922D01*
X10704885Y-2402541D01*
X10705850Y-2403784D01*
X10711415Y-2409349D01*
X10714817Y-2415580D01*
X10714311Y-2422661D01*
X10710056Y-2428345D01*
X10703404Y-2430826D01*
X10702119Y-2430832D01*
X10701553Y-2430724D01*
X10695948Y-2431076D01*
X10695157Y-2431101D01*
X10662375Y-2431101D01*
X10655563Y-2429101D01*
X10650914Y-2423735D01*
X10649903Y-2416708D01*
X10652266Y-2410980D01*
X10653447Y-2409392D01*
X10658926Y-2398617D01*
X10663661Y-2389304D01*
X10663661Y-2389303D01*
X10663903Y-2388828D01*
X10668515Y-2373973D01*
X10672446Y-2368061D01*
X10678949Y-2365212D01*
X10685960Y-2366331D01*
G37*
G04 #@! TD.AperFunction*
G04 #@! TA.AperFunction,Conductor*
G36*
X11489840Y-2053999D02*
G01*
X11494489Y-2059365D01*
X11495628Y-2064599D01*
X11495628Y-2069399D01*
X11493628Y-2076211D01*
X11488262Y-2080861D01*
X11483028Y-2081999D01*
X11472640Y-2081999D01*
X11471116Y-2082447D01*
X11470995Y-2082586D01*
X11470828Y-2083354D01*
X11470828Y-2173488D01*
X11471276Y-2175012D01*
X11471415Y-2175132D01*
X11472183Y-2175299D01*
X11475295Y-2175299D01*
X11475977Y-2175262D01*
X11481063Y-2174710D01*
X11482588Y-2174347D01*
X11494633Y-2169832D01*
X11496193Y-2168978D01*
X11505674Y-2161872D01*
X11512324Y-2159388D01*
X11516956Y-2159918D01*
X11522304Y-2161574D01*
X11528220Y-2165499D01*
X11531075Y-2171999D01*
X11529962Y-2179011D01*
X11528145Y-2181810D01*
X11515104Y-2197025D01*
X11509094Y-2204038D01*
X11508866Y-2204388D01*
X11508866Y-2204389D01*
X11493237Y-2228454D01*
X11493010Y-2228805D01*
X11492830Y-2229183D01*
X11492830Y-2229184D01*
X11487841Y-2239690D01*
X11485699Y-2244201D01*
X11485406Y-2244818D01*
X11480677Y-2250114D01*
X11473836Y-2252013D01*
X11469408Y-2251061D01*
X11469260Y-2250973D01*
X11468498Y-2250752D01*
X11468498Y-2250752D01*
X11456517Y-2247271D01*
X11453647Y-2246437D01*
X11453006Y-2246387D01*
X11453005Y-2246387D01*
X11450244Y-2246169D01*
X11450244Y-2246169D01*
X11449999Y-2246150D01*
X11438424Y-2246150D01*
X11431612Y-2244150D01*
X11429514Y-2242460D01*
X11383914Y-2196859D01*
X11380511Y-2190628D01*
X11381017Y-2183546D01*
X11385272Y-2177862D01*
X11391924Y-2175381D01*
X11392823Y-2175349D01*
X11395641Y-2175349D01*
X11399700Y-2174908D01*
X11402421Y-2174908D01*
X11405680Y-2175262D01*
X11406361Y-2175299D01*
X11409017Y-2175299D01*
X11410540Y-2174852D01*
X11412767Y-2172282D01*
X11412820Y-2172328D01*
X11413496Y-2171089D01*
X11415512Y-2169579D01*
X11415499Y-2169561D01*
X11426436Y-2161363D01*
X11427154Y-2160825D01*
X11435890Y-2149170D01*
X11441003Y-2135531D01*
X11441678Y-2129313D01*
X11441678Y-2064599D01*
X11443678Y-2057787D01*
X11449044Y-2053138D01*
X11454278Y-2051999D01*
X11483028Y-2051999D01*
X11489840Y-2053999D01*
G37*
G04 #@! TD.AperFunction*
G04 #@! TA.AperFunction,Conductor*
G36*
X11457661Y-1502000D02*
G01*
X11462310Y-1507366D01*
X11463321Y-1514393D01*
X11461890Y-1518670D01*
X11460028Y-1522058D01*
X11459545Y-1523185D01*
X11453940Y-1540853D01*
X11453685Y-1542052D01*
X11452067Y-1556475D01*
X11452028Y-1557178D01*
X11452028Y-1580012D01*
X11450028Y-1586824D01*
X11444662Y-1591473D01*
X11437635Y-1592483D01*
X11434303Y-1591522D01*
X11432994Y-1590939D01*
X11432993Y-1590939D01*
X11432390Y-1590671D01*
X11423050Y-1588685D01*
X11414356Y-1586837D01*
X11414355Y-1586837D01*
X11413710Y-1586700D01*
X11394613Y-1586700D01*
X11393967Y-1586837D01*
X11393967Y-1586837D01*
X11385273Y-1588685D01*
X11375932Y-1590671D01*
X11375329Y-1590939D01*
X11375329Y-1590939D01*
X11359089Y-1598170D01*
X11359089Y-1598170D01*
X11358486Y-1598438D01*
X11343036Y-1609663D01*
X11342594Y-1610154D01*
X11342594Y-1610154D01*
X11335620Y-1617899D01*
X11330257Y-1623856D01*
X11320709Y-1640394D01*
X11314807Y-1658557D01*
X11314738Y-1659213D01*
X11314738Y-1659213D01*
X11313046Y-1675313D01*
X11310345Y-1681879D01*
X11304522Y-1685942D01*
X11300911Y-1686590D01*
X11299669Y-1686629D01*
X11299200Y-1686644D01*
X11298804Y-1686650D01*
X11296014Y-1686650D01*
X11295615Y-1686700D01*
X11294432Y-1686794D01*
X11290011Y-1686933D01*
X11289249Y-1687154D01*
X11289249Y-1687154D01*
X11288065Y-1687498D01*
X11286129Y-1687899D01*
X11285998Y-1687915D01*
X11284120Y-1688153D01*
X11283384Y-1688444D01*
X11283383Y-1688444D01*
X11280010Y-1689780D01*
X11278887Y-1690164D01*
X11275402Y-1691177D01*
X11274641Y-1691398D01*
X11273958Y-1691802D01*
X11272897Y-1692429D01*
X11271121Y-1693299D01*
X11270886Y-1693392D01*
X11269238Y-1694045D01*
X11268597Y-1694511D01*
X11265661Y-1696644D01*
X11264669Y-1697295D01*
X11260864Y-1699546D01*
X11259431Y-1700978D01*
X11257929Y-1702262D01*
X11256289Y-1703453D01*
X11255784Y-1704063D01*
X11255783Y-1704064D01*
X11254591Y-1705506D01*
X11254068Y-1706099D01*
X11250465Y-1709936D01*
X11250189Y-1710220D01*
X11248215Y-1712195D01*
X11247967Y-1712515D01*
X11247196Y-1713417D01*
X11244169Y-1716640D01*
X11243788Y-1717334D01*
X11243787Y-1717335D01*
X11243193Y-1718415D01*
X11242108Y-1720067D01*
X11240867Y-1721668D01*
X11240552Y-1722395D01*
X11240552Y-1722395D01*
X11239111Y-1725726D01*
X11238589Y-1726791D01*
X11236459Y-1730666D01*
X11236261Y-1731433D01*
X11236261Y-1731433D01*
X11235955Y-1732628D01*
X11235314Y-1734498D01*
X11234510Y-1736357D01*
X11234386Y-1737140D01*
X11234386Y-1737141D01*
X11233818Y-1740724D01*
X11233578Y-1741886D01*
X11232478Y-1746169D01*
X11232478Y-1748194D01*
X11232323Y-1750165D01*
X11232006Y-1752166D01*
X11232081Y-1752955D01*
X11232081Y-1752956D01*
X11232322Y-1755511D01*
X11230972Y-1762481D01*
X11226068Y-1767614D01*
X11219166Y-1769281D01*
X11214653Y-1768207D01*
X11203229Y-1763121D01*
X11193889Y-1761135D01*
X11185194Y-1759287D01*
X11185194Y-1759287D01*
X11184549Y-1759150D01*
X11165451Y-1759150D01*
X11164806Y-1759287D01*
X11164806Y-1759287D01*
X11156111Y-1761135D01*
X11146771Y-1763121D01*
X11146168Y-1763389D01*
X11146168Y-1763389D01*
X11129928Y-1770620D01*
X11129928Y-1770620D01*
X11129325Y-1770888D01*
X11113875Y-1782113D01*
X11113433Y-1782604D01*
X11112942Y-1783046D01*
X11112830Y-1782921D01*
X11107499Y-1786205D01*
X11104180Y-1786650D01*
X11049131Y-1786650D01*
X11048013Y-1786597D01*
X11047264Y-1786430D01*
X11046471Y-1786455D01*
X11040458Y-1786644D01*
X11040062Y-1786650D01*
X11037269Y-1786650D01*
X11036878Y-1786699D01*
X11036877Y-1786699D01*
X11036871Y-1786700D01*
X11036868Y-1786701D01*
X11035684Y-1786794D01*
X11031266Y-1786933D01*
X11029529Y-1787437D01*
X11029320Y-1787498D01*
X11027385Y-1787899D01*
X11026678Y-1787988D01*
X11025375Y-1788153D01*
X11024638Y-1788444D01*
X11024638Y-1788444D01*
X11021264Y-1789780D01*
X11020142Y-1790164D01*
X11015895Y-1791398D01*
X11015213Y-1791802D01*
X11015213Y-1791802D01*
X11014151Y-1792429D01*
X11012376Y-1793299D01*
X11011230Y-1793753D01*
X11011230Y-1793753D01*
X11010493Y-1794045D01*
X11009851Y-1794511D01*
X11006917Y-1796643D01*
X11005925Y-1797294D01*
X11004057Y-1798399D01*
X11002118Y-1799546D01*
X11000686Y-1800978D01*
X10999183Y-1802262D01*
X10997544Y-1803453D01*
X10994726Y-1806859D01*
X10993927Y-1807737D01*
X10904380Y-1897284D01*
X10898148Y-1900687D01*
X10891067Y-1900181D01*
X10887817Y-1898385D01*
X10886378Y-1897284D01*
X10875260Y-1888784D01*
X10861496Y-1882366D01*
X10859465Y-1881419D01*
X10859465Y-1881419D01*
X10858847Y-1881131D01*
X10858183Y-1880982D01*
X10858182Y-1880982D01*
X10843115Y-1877614D01*
X10841174Y-1877180D01*
X10840619Y-1877149D01*
X10827304Y-1877149D01*
X10813824Y-1878613D01*
X10802401Y-1882458D01*
X10797308Y-1884172D01*
X10797308Y-1884172D01*
X10796661Y-1884390D01*
X10782024Y-1893184D01*
X10775155Y-1894978D01*
X10768407Y-1892773D01*
X10765771Y-1890347D01*
X10761088Y-1884606D01*
X10760224Y-1883735D01*
X10745943Y-1871921D01*
X10744925Y-1871235D01*
X10728621Y-1862419D01*
X10727490Y-1861944D01*
X10715959Y-1858374D01*
X10714549Y-1858354D01*
X10714228Y-1859029D01*
X10714228Y-1983288D01*
X10714676Y-1984812D01*
X10714815Y-1984932D01*
X10715583Y-1985099D01*
X10742971Y-1985099D01*
X10749783Y-1987099D01*
X10754116Y-1991823D01*
X10758354Y-1999860D01*
X10762320Y-2007383D01*
X10762761Y-2007904D01*
X10762761Y-2007904D01*
X10768144Y-2014274D01*
X10768869Y-2015132D01*
X10768898Y-2015166D01*
X10771767Y-2021660D01*
X10770670Y-2028675D01*
X10765955Y-2033982D01*
X10759274Y-2035899D01*
X10589840Y-2035899D01*
X10588316Y-2036347D01*
X10588195Y-2036486D01*
X10588028Y-2037254D01*
X10588028Y-2070165D01*
X10588058Y-2070780D01*
X10589409Y-2084559D01*
X10589648Y-2085763D01*
X10592560Y-2095408D01*
X10592614Y-2102508D01*
X10588821Y-2108509D01*
X10582386Y-2111508D01*
X10580498Y-2111650D01*
X10437600Y-2111650D01*
X10430788Y-2109650D01*
X10426139Y-2104284D01*
X10425000Y-2099050D01*
X10425000Y-2005082D01*
X10427000Y-1998270D01*
X10432366Y-1993620D01*
X10439393Y-1992610D01*
X10444827Y-1994760D01*
X10460271Y-2005575D01*
X10478987Y-2013674D01*
X10484033Y-2014728D01*
X10498474Y-2017745D01*
X10498475Y-2017745D01*
X10498949Y-2017844D01*
X10499432Y-2017869D01*
X10499433Y-2017869D01*
X10499439Y-2017870D01*
X10499617Y-2017879D01*
X10514592Y-2017879D01*
X10521857Y-2017141D01*
X10529149Y-2016400D01*
X10529149Y-2016400D01*
X10529784Y-2016336D01*
X10549243Y-2010237D01*
X10567079Y-2000351D01*
X10581335Y-1988132D01*
X10587809Y-1985218D01*
X10589534Y-1985099D01*
X10661617Y-1985099D01*
X10663141Y-1984652D01*
X10663261Y-1984513D01*
X10663428Y-1983744D01*
X10663428Y-1859707D01*
X10663031Y-1858354D01*
X10662251Y-1858242D01*
X10651476Y-1861413D01*
X10650339Y-1861872D01*
X10633913Y-1870460D01*
X10632887Y-1871131D01*
X10620707Y-1880924D01*
X10614144Y-1883634D01*
X10607159Y-1882366D01*
X10601968Y-1877522D01*
X10600986Y-1875456D01*
X10600402Y-1873867D01*
X10600402Y-1873867D01*
X10600182Y-1873268D01*
X10590934Y-1858354D01*
X10589772Y-1856479D01*
X10589772Y-1856479D01*
X10589436Y-1855937D01*
X10584253Y-1850457D01*
X10575862Y-1841583D01*
X10575424Y-1841120D01*
X10573661Y-1839885D01*
X10559243Y-1829789D01*
X10559242Y-1829789D01*
X10558719Y-1829423D01*
X10540004Y-1821324D01*
X10534958Y-1820270D01*
X10520517Y-1817253D01*
X10520516Y-1817253D01*
X10520042Y-1817154D01*
X10519558Y-1817129D01*
X10519558Y-1817128D01*
X10519551Y-1817128D01*
X10519374Y-1817119D01*
X10504399Y-1817119D01*
X10497134Y-1817857D01*
X10489842Y-1818597D01*
X10489842Y-1818597D01*
X10489207Y-1818662D01*
X10469748Y-1824760D01*
X10451912Y-1834647D01*
X10451427Y-1835062D01*
X10445800Y-1839885D01*
X10439326Y-1842800D01*
X10432304Y-1841751D01*
X10426964Y-1837073D01*
X10425000Y-1830318D01*
X10425000Y-1627165D01*
X10588028Y-1627165D01*
X10588058Y-1627780D01*
X10589409Y-1641559D01*
X10589648Y-1642763D01*
X10595005Y-1660507D01*
X10595472Y-1661641D01*
X10604174Y-1678007D01*
X10604853Y-1679029D01*
X10616568Y-1693392D01*
X10617432Y-1694263D01*
X10631714Y-1706078D01*
X10632731Y-1706764D01*
X10649036Y-1715580D01*
X10650166Y-1716055D01*
X10661697Y-1719624D01*
X10663108Y-1719645D01*
X10663428Y-1718969D01*
X10663428Y-1718292D01*
X10714228Y-1718292D01*
X10714625Y-1719645D01*
X10715405Y-1719757D01*
X10726180Y-1716585D01*
X10727317Y-1716126D01*
X10743744Y-1707538D01*
X10744770Y-1706867D01*
X10759215Y-1695252D01*
X10760091Y-1694395D01*
X10772006Y-1680195D01*
X10772699Y-1679183D01*
X10781628Y-1662941D01*
X10782112Y-1661813D01*
X10787716Y-1644145D01*
X10787971Y-1642946D01*
X10789589Y-1628523D01*
X10789628Y-1627821D01*
X10789628Y-1619711D01*
X10789181Y-1618187D01*
X10789042Y-1618066D01*
X10788273Y-1617899D01*
X10716040Y-1617899D01*
X10714516Y-1618347D01*
X10714395Y-1618486D01*
X10714228Y-1619254D01*
X10714228Y-1718292D01*
X10663428Y-1718292D01*
X10663428Y-1619711D01*
X10662981Y-1618187D01*
X10662842Y-1618066D01*
X10662073Y-1617899D01*
X10589840Y-1617899D01*
X10588316Y-1618347D01*
X10588195Y-1618486D01*
X10588028Y-1619254D01*
X10588028Y-1627165D01*
X10425000Y-1627165D01*
X10425000Y-1550949D01*
X10427000Y-1544137D01*
X10432366Y-1539488D01*
X10437600Y-1538349D01*
X10576008Y-1538349D01*
X10582820Y-1540349D01*
X10587470Y-1545715D01*
X10588530Y-1552354D01*
X10588067Y-1556475D01*
X10588028Y-1557178D01*
X10588028Y-1565288D01*
X10588476Y-1566812D01*
X10588615Y-1566932D01*
X10589383Y-1567099D01*
X10787817Y-1567099D01*
X10789341Y-1566652D01*
X10789461Y-1566513D01*
X10789628Y-1565744D01*
X10789628Y-1557833D01*
X10789598Y-1557219D01*
X10788247Y-1543439D01*
X10788009Y-1542235D01*
X10782651Y-1524492D01*
X10782184Y-1523357D01*
X10779609Y-1518515D01*
X10778177Y-1511562D01*
X10780732Y-1504937D01*
X10786463Y-1500746D01*
X10790735Y-1500000D01*
X11450849Y-1500000D01*
X11457661Y-1502000D01*
G37*
G04 #@! TD.AperFunction*
G04 #@! TA.AperFunction,Conductor*
G36*
X10794190Y-2053999D02*
G01*
X10798840Y-2059365D01*
X10799978Y-2064599D01*
X10799978Y-2069399D01*
X10797978Y-2076211D01*
X10792612Y-2080861D01*
X10787378Y-2081999D01*
X10758628Y-2081999D01*
X10751816Y-2079999D01*
X10747167Y-2074633D01*
X10746028Y-2069399D01*
X10746028Y-2064599D01*
X10748028Y-2057787D01*
X10753394Y-2053138D01*
X10758628Y-2051999D01*
X10787378Y-2051999D01*
X10794190Y-2053999D01*
G37*
G04 #@! TD.AperFunction*
G04 #@! TA.AperFunction,Conductor*
G36*
X11539077Y-1815350D02*
G01*
X11541174Y-1817040D01*
X11574538Y-1850404D01*
X11577940Y-1856635D01*
X11578228Y-1859313D01*
X11578228Y-2023299D01*
X11576228Y-2030111D01*
X11570862Y-2034761D01*
X11565628Y-2035899D01*
X11482925Y-2035899D01*
X11476112Y-2033899D01*
X11471463Y-2028533D01*
X11470453Y-2021506D01*
X11473302Y-2015192D01*
X11473677Y-2014838D01*
X11483856Y-1999860D01*
X11486592Y-1993020D01*
X11490978Y-1987438D01*
X11498291Y-1985099D01*
X11525617Y-1985099D01*
X11527140Y-1984652D01*
X11527261Y-1984513D01*
X11527428Y-1983744D01*
X11527428Y-1859707D01*
X11527031Y-1858354D01*
X11526251Y-1858242D01*
X11515476Y-1861413D01*
X11514339Y-1861872D01*
X11497913Y-1870460D01*
X11496887Y-1871131D01*
X11484592Y-1881016D01*
X11478030Y-1883726D01*
X11471044Y-1882458D01*
X11465853Y-1877614D01*
X11464105Y-1870733D01*
X11464300Y-1869160D01*
X11464354Y-1868993D01*
X11466350Y-1850000D01*
X11464780Y-1835062D01*
X11464423Y-1831663D01*
X11464423Y-1831663D01*
X11464354Y-1831007D01*
X11464150Y-1830380D01*
X11464150Y-1830379D01*
X11463976Y-1829844D01*
X11463773Y-1822747D01*
X11467439Y-1816667D01*
X11473811Y-1813535D01*
X11475959Y-1813350D01*
X11532265Y-1813350D01*
X11539077Y-1815350D01*
G37*
G04 #@! TD.AperFunction*
G04 #@! TD*
M02*
