%TF.GenerationSoftware,KiCad,Pcbnew,(6.0.4-0)*%
%TF.CreationDate,2023-09-21T22:39:34-05:00*%
%TF.ProjectId,kowgary16_cfx,6b6f7767-6172-4793-9136-5f6366782e6b,rev?*%
%TF.SameCoordinates,Original*%
%TF.FileFunction,NonPlated,1,2,NPTH,Drill*%
%TF.FilePolarity,Positive*%
%FSLAX46Y46*%
G04 Gerber Fmt 4.6, Leading zero omitted, Abs format (unit mm)*
G04 Created by KiCad (PCBNEW (6.0.4-0)) date 2023-09-21 22:39:34*
%MOMM*%
%LPD*%
G01*
G04 APERTURE LIST*
%TA.AperFunction,ComponentDrill*%
%ADD10C,0.650000*%
%TD*%
%TA.AperFunction,ComponentDrill*%
%ADD11C,0.990600*%
%TD*%
%TA.AperFunction,ComponentDrill*%
%ADD12C,1.701800*%
%TD*%
%TA.AperFunction,ComponentDrill*%
%ADD13C,2.200000*%
%TD*%
%TA.AperFunction,ComponentDrill*%
%ADD14C,3.000000*%
%TD*%
%TA.AperFunction,ComponentDrill*%
%ADD15C,3.429000*%
%TD*%
G04 APERTURE END LIST*
D10*
%TO.C,J1*%
X108318281Y-19604992D03*
X114098281Y-19604992D03*
D11*
%TO.C,SW1*%
X77654961Y-27574989D03*
%TO.C,SW11*%
X77654961Y-44574981D03*
%TO.C,SW21*%
X77654961Y-61574973D03*
%TO.C,SW31*%
X77654961Y-78574965D03*
%TO.C,SW2*%
X105094953Y-19174989D03*
%TO.C,SW12*%
X105094953Y-36174981D03*
%TO.C,SW22*%
X105094953Y-53174973D03*
%TO.C,SW32*%
X105094953Y-70174965D03*
%TO.C,SW3*%
X122094945Y-19174989D03*
%TO.C,SW13*%
X122094945Y-36174981D03*
%TO.C,SW23*%
X122094945Y-53174973D03*
%TO.C,SW33*%
X122094945Y-70174965D03*
%TO.C,SW4*%
X139094937Y-19174989D03*
%TO.C,SW14*%
X139094937Y-36174981D03*
%TO.C,SW24*%
X139094937Y-53174973D03*
%TO.C,SW34*%
X139094937Y-70174965D03*
D12*
%TO.C,SW1*%
X77374961Y-23374989D03*
%TO.C,SW11*%
X77374961Y-40374981D03*
%TO.C,SW21*%
X77374961Y-57374973D03*
%TO.C,SW31*%
X77374961Y-74374965D03*
%TO.C,SW1*%
X88374961Y-23374989D03*
%TO.C,SW11*%
X88374961Y-40374981D03*
%TO.C,SW21*%
X88374961Y-57374973D03*
%TO.C,SW31*%
X88374961Y-74374965D03*
%TO.C,SW2*%
X94374953Y-23374989D03*
%TO.C,SW12*%
X94374953Y-40374981D03*
%TO.C,SW22*%
X94374953Y-57374973D03*
%TO.C,SW32*%
X94374953Y-74374965D03*
%TO.C,SW2*%
X105374953Y-23374989D03*
%TO.C,SW12*%
X105374953Y-40374981D03*
%TO.C,SW22*%
X105374953Y-57374973D03*
%TO.C,SW32*%
X105374953Y-74374965D03*
%TO.C,SW3*%
X111374945Y-23374989D03*
%TO.C,SW13*%
X111374945Y-40374981D03*
%TO.C,SW23*%
X111374945Y-57374973D03*
%TO.C,SW33*%
X111374945Y-74374965D03*
%TO.C,SW3*%
X122374945Y-23374989D03*
%TO.C,SW13*%
X122374945Y-40374981D03*
%TO.C,SW23*%
X122374945Y-57374973D03*
%TO.C,SW33*%
X122374945Y-74374965D03*
%TO.C,SW4*%
X128374937Y-23374989D03*
%TO.C,SW14*%
X128374937Y-40374981D03*
%TO.C,SW24*%
X128374937Y-57374973D03*
%TO.C,SW34*%
X128374937Y-74374965D03*
%TO.C,SW4*%
X139374937Y-23374989D03*
%TO.C,SW14*%
X139374937Y-40374981D03*
%TO.C,SW24*%
X139374937Y-57374973D03*
%TO.C,SW34*%
X139374937Y-74374965D03*
D13*
%TO.C,H2*%
X91374957Y-31874985D03*
%TO.C,H3*%
X91374957Y-65874969D03*
%TO.C,H1*%
X125374941Y-31874985D03*
%TO.C,H4*%
X125374941Y-65874969D03*
D14*
%TO.C,SW1*%
X82874961Y-17424989D03*
%TO.C,SW11*%
X82874961Y-34424981D03*
%TO.C,SW21*%
X82874961Y-51424973D03*
%TO.C,SW31*%
X82874961Y-68424965D03*
%TO.C,SW1*%
X87874961Y-19624989D03*
%TO.C,SW11*%
X87874961Y-36624981D03*
%TO.C,SW21*%
X87874961Y-53624973D03*
%TO.C,SW31*%
X87874961Y-70624965D03*
%TO.C,SW2*%
X94874953Y-27124989D03*
%TO.C,SW12*%
X94874953Y-44124981D03*
%TO.C,SW22*%
X94874953Y-61124973D03*
%TO.C,SW32*%
X94874953Y-78124965D03*
%TO.C,SW2*%
X99874953Y-29324989D03*
%TO.C,SW12*%
X99874953Y-46324981D03*
%TO.C,SW22*%
X99874953Y-63324973D03*
%TO.C,SW32*%
X99874953Y-80324965D03*
%TO.C,SW3*%
X111874945Y-27124989D03*
%TO.C,SW13*%
X111874945Y-44124981D03*
%TO.C,SW23*%
X111874945Y-61124973D03*
%TO.C,SW33*%
X111874945Y-78124965D03*
%TO.C,SW3*%
X116874945Y-29324989D03*
%TO.C,SW13*%
X116874945Y-46324981D03*
%TO.C,SW23*%
X116874945Y-63324973D03*
%TO.C,SW33*%
X116874945Y-80324965D03*
%TO.C,SW4*%
X128874937Y-27124989D03*
%TO.C,SW14*%
X128874937Y-44124981D03*
%TO.C,SW24*%
X128874937Y-61124973D03*
%TO.C,SW34*%
X128874937Y-78124965D03*
%TO.C,SW4*%
X133874937Y-29324989D03*
%TO.C,SW14*%
X133874937Y-46324981D03*
%TO.C,SW24*%
X133874937Y-63324973D03*
%TO.C,SW34*%
X133874937Y-80324965D03*
D15*
%TO.C,SW1*%
X82874961Y-23374989D03*
%TO.C,SW11*%
X82874961Y-40374981D03*
%TO.C,SW21*%
X82874961Y-57374973D03*
%TO.C,SW31*%
X82874961Y-74374965D03*
%TO.C,SW2*%
X99874953Y-23374989D03*
%TO.C,SW12*%
X99874953Y-40374981D03*
%TO.C,SW22*%
X99874953Y-57374973D03*
%TO.C,SW32*%
X99874953Y-74374965D03*
%TO.C,SW3*%
X116874945Y-23374989D03*
%TO.C,SW13*%
X116874945Y-40374981D03*
%TO.C,SW23*%
X116874945Y-57374973D03*
%TO.C,SW33*%
X116874945Y-74374965D03*
%TO.C,SW4*%
X133874937Y-23374989D03*
%TO.C,SW14*%
X133874937Y-40374981D03*
%TO.C,SW24*%
X133874937Y-57374973D03*
%TO.C,SW34*%
X133874937Y-74374965D03*
M02*
