%TF.GenerationSoftware,KiCad,Pcbnew,(6.0.4-0)*%
%TF.CreationDate,2023-09-21T22:39:34-05:00*%
%TF.ProjectId,kowgary16_cfx,6b6f7767-6172-4793-9136-5f6366782e6b,rev?*%
%TF.SameCoordinates,Original*%
%TF.FileFunction,Plated,1,2,PTH,Mixed*%
%TF.FilePolarity,Positive*%
%FSLAX46Y46*%
G04 Gerber Fmt 4.6, Leading zero omitted, Abs format (unit mm)*
G04 Created by KiCad (PCBNEW (6.0.4-0)) date 2023-09-21 22:39:34*
%MOMM*%
%LPD*%
G01*
G04 APERTURE LIST*
%TA.AperFunction,ViaDrill*%
%ADD10C,0.400000*%
%TD*%
G04 aperture for slot hole*
%TA.AperFunction,ComponentDrill*%
%ADD11O,0.600000X1.200000*%
%TD*%
G04 aperture for slot hole*
%TA.AperFunction,ComponentDrill*%
%ADD12O,0.600000X1.700000*%
%TD*%
%TA.AperFunction,ComponentDrill*%
%ADD13C,1.000000*%
%TD*%
G04 aperture for slot hole*
%TA.AperFunction,ComponentDrill*%
%ADD14O,2.000000X2.500000*%
%TD*%
G04 APERTURE END LIST*
D10*
X87124959Y-62333304D03*
X87124959Y-65166636D03*
X88541625Y-43208313D03*
X88541625Y-60208305D03*
X88541625Y-77208297D03*
X88600000Y-25000000D03*
X94208289Y-31037799D03*
X94208289Y-32583318D03*
X95984531Y-40026225D03*
X96333288Y-32583318D03*
X96333288Y-41791647D03*
X96792101Y-76250444D03*
X97749954Y-38249982D03*
X97749954Y-41574981D03*
X98208767Y-59250452D03*
X99735416Y-37812187D03*
X99874953Y-36124983D03*
X100262268Y-31487670D03*
X100525500Y-37200000D03*
X101974500Y-37200000D03*
X101999952Y-36124983D03*
X102397256Y-38105693D03*
X103000000Y-40800000D03*
X103104011Y-38812449D03*
X103703597Y-36061495D03*
X103705378Y-42494622D03*
X103800000Y-27000000D03*
X103800000Y-34224500D03*
X103800000Y-44200000D03*
X103887548Y-39595985D03*
X103900000Y-32775500D03*
X104626176Y-43415420D03*
X105049454Y-30220001D03*
X105541617Y-60208305D03*
X105541617Y-77208297D03*
X106356406Y-29790789D03*
X106760000Y-24220000D03*
X107666616Y-46749978D03*
X108599945Y-28775500D03*
X108600000Y-42000000D03*
X111750000Y-18500000D03*
X111938982Y-29500000D03*
X112425408Y-46749978D03*
X112624947Y-54541641D03*
X113750000Y-18500000D03*
X113883588Y-38408222D03*
X114041613Y-16775500D03*
X114750108Y-43208374D03*
X115400000Y-31614500D03*
X115474446Y-38249982D03*
X115838365Y-34638365D03*
X116874945Y-16999992D03*
X117760089Y-34400000D03*
X120416610Y-26916654D03*
X121934486Y-37521348D03*
X122541609Y-28333320D03*
X122541609Y-43208313D03*
X122541609Y-60208305D03*
X122541609Y-77208297D03*
X122600000Y-26400000D03*
X123249942Y-31874985D03*
X123400000Y-27200000D03*
X123958275Y-47100980D03*
X123958275Y-54541641D03*
X124666608Y-29749986D03*
X125600000Y-48899500D03*
X126791607Y-29749986D03*
X127499940Y-33999984D03*
X128208273Y-33291651D03*
X128208454Y-47458378D03*
X128916606Y-38249982D03*
X138800000Y-27200000D03*
X139541601Y-43208313D03*
X139541601Y-60208305D03*
X139541601Y-77208297D03*
D11*
%TO.C,J1*%
X106888281Y-15924992D03*
D12*
X106888281Y-20104992D03*
D11*
X115528281Y-15924992D03*
D12*
X115528281Y-20104992D03*
D13*
%TO.C,SW5*%
X131375126Y-16125022D03*
X131375126Y-30625022D03*
X133875126Y-16125022D03*
X136375126Y-16125022D03*
X136375126Y-30625022D03*
D14*
X128275126Y-23625022D03*
X139475126Y-23625022D03*
M02*
