  0
SECTION
  2
HEADER
  9
$ANGBASE
  50
0.0
  9
$ANGDIR
  70
1
  9
$MEASUREMENT
  70
0
  0
ENDSEC
  0
SECTION
  2
TABLES
  0
TABLE
  2
LTYPE
  70
4
  0
LTYPE
  5
40F
  2
CONTINUOUS
  70
0
  3
Solid line
  72
65
  73
0
  40
0.0
  0
LTYPE
  5
410
  2
DASHDOT
 70
0
  3
Dash Dot ____ _ ____ _
 72
65
 73
4
 40
2.0
 49
1.25
 49
-0.25
 49
0.25
 49
-0.25
  0
LTYPE
  5
411
  2
DASHED
 70
0
  3
Dashed __ __ __ __ __
 72
65
 73
2
 40
0.75
 49
0.5
 49
-0.25
  0
LTYPE
  5
43B
  2
DOTTED
 70
0
  3
Dotted .  .  .  .
 72
65
 73
2
 40
0.2
 49
0.0
 49
-0.2
  0
ENDTAB
  0
TABLE
  2
STYLE
  70
4
  0
STYLE
  2
KICAD
  70
0
  40
0
  41
1
  42
1
  50
0
  71
0
  3
isocp.shx
  0
STYLE
  2
KICADB
  70
0
  40
0
  41
1
  42
1
  50
0
  71
0
  3
isocp.shx
  0
STYLE
  2
KICADI
  70
0
  40
0
  41
1
  42
1
  50
15
  71
0
  3
isocp.shx
  0
STYLE
  2
KICADBI
  70
0
  40
0
  41
1
  42
1
  50
15
  71
0
  3
isocp.shx
  0
ENDTAB
  0
TABLE
  2
LAYER
  70
1
  0
LAYER
  2
BLACK
  70
0
  62
7
  6
CONTINUOUS
  0
ENDTAB
  0
ENDSEC
  0
SECTION
  2
ENTITIES
0
LINE
8
BLACK
6
CONTINUOUS
10
4.32805
20
-3.16247
11
4.32874
21
-3.16437
0
LINE
8
BLACK
6
CONTINUOUS
10
4.32874
20
-3.16437
11
4.32874
21
-3.20079
0
LINE
8
BLACK
6
CONTINUOUS
10
4.32874
20
-3.20079
11
4.36516
21
-3.20079
0
LINE
8
BLACK
6
CONTINUOUS
10
4.36516
20
-3.20079
11
4.36617
21
-3.20096
0
LINE
8
BLACK
6
CONTINUOUS
10
4.36617
20
-3.20096
11
4.36771
21
-3.20226
0
LINE
8
BLACK
6
CONTINUOUS
10
4.36771
20
-3.20226
11
4.36806
21
-3.20425
0
LINE
8
BLACK
6
CONTINUOUS
10
4.36806
20
-3.20425
11
4.36705
21
-3.206
0
LINE
8
BLACK
6
CONTINUOUS
10
4.36705
20
-3.206
11
4.36516
21
-3.20669
0
LINE
8
BLACK
6
CONTINUOUS
10
4.36516
20
-3.20669
11
4.32579
21
-3.20669
0
LINE
8
BLACK
6
CONTINUOUS
10
4.32579
20
-3.20669
11
4.3254
21
-3.20662
0
LINE
8
BLACK
6
CONTINUOUS
10
4.3254
20
-3.20662
11
4.32527
21
-3.20665
0
LINE
8
BLACK
6
CONTINUOUS
10
4.32527
20
-3.20665
11
4.32516
21
-3.20658
0
LINE
8
BLACK
6
CONTINUOUS
10
4.32516
20
-3.20658
11
4.32478
21
-3.20651
0
LINE
8
BLACK
6
CONTINUOUS
10
4.32478
20
-3.20651
11
4.32419
21
-3.20602
0
LINE
8
BLACK
6
CONTINUOUS
10
4.32419
20
-3.20602
11
4.32352
21
-3.20564
0
LINE
8
BLACK
6
CONTINUOUS
10
4.32352
20
-3.20564
11
4.32343
21
-3.20539
0
LINE
8
BLACK
6
CONTINUOUS
10
4.32343
20
-3.20539
11
4.32323
21
-3.20522
0
LINE
8
BLACK
6
CONTINUOUS
10
4.32323
20
-3.20522
11
4.32309
21
-3.20446
0
LINE
8
BLACK
6
CONTINUOUS
10
4.32309
20
-3.20446
11
4.32283
21
-3.20374
0
LINE
8
BLACK
6
CONTINUOUS
10
4.32283
20
-3.20374
11
4.32283
21
-3.16437
0
LINE
8
BLACK
6
CONTINUOUS
10
4.32283
20
-3.16437
11
4.32301
21
-3.16336
0
LINE
8
BLACK
6
CONTINUOUS
10
4.32301
20
-3.16336
11
4.32431
21
-3.16181
0
LINE
8
BLACK
6
CONTINUOUS
10
4.32431
20
-3.16181
11
4.3263
21
-3.16146
0
LINE
8
BLACK
6
CONTINUOUS
10
4.3263
20
-3.16146
11
4.32805
21
-3.16247
0
LINE
8
BLACK
6
CONTINUOUS
10
4.87923
20
-3.16247
11
4.87992
21
-3.16437
0
LINE
8
BLACK
6
CONTINUOUS
10
4.87992
20
-3.16437
11
4.87992
21
-3.20374
0
LINE
8
BLACK
6
CONTINUOUS
10
4.87992
20
-3.20374
11
4.87985
21
-3.20412
0
LINE
8
BLACK
6
CONTINUOUS
10
4.87985
20
-3.20412
11
4.87987
21
-3.20425
0
LINE
8
BLACK
6
CONTINUOUS
10
4.87987
20
-3.20425
11
4.87981
21
-3.20437
0
LINE
8
BLACK
6
CONTINUOUS
10
4.87981
20
-3.20437
11
4.87974
21
-3.20475
0
LINE
8
BLACK
6
CONTINUOUS
10
4.87974
20
-3.20475
11
4.87925
21
-3.20534
0
LINE
8
BLACK
6
CONTINUOUS
10
4.87925
20
-3.20534
11
4.87886
21
-3.206
0
LINE
8
BLACK
6
CONTINUOUS
10
4.87886
20
-3.206
11
4.87861
21
-3.20609
0
LINE
8
BLACK
6
CONTINUOUS
10
4.87861
20
-3.20609
11
4.87844
21
-3.2063
0
LINE
8
BLACK
6
CONTINUOUS
10
4.87844
20
-3.2063
11
4.87769
21
-3.20643
0
LINE
8
BLACK
6
CONTINUOUS
10
4.87769
20
-3.20643
11
4.87697
21
-3.20669
0
LINE
8
BLACK
6
CONTINUOUS
10
4.87697
20
-3.20669
11
4.8376
21
-3.20669
0
LINE
8
BLACK
6
CONTINUOUS
10
4.8376
20
-3.20669
11
4.83659
21
-3.20651
0
LINE
8
BLACK
6
CONTINUOUS
10
4.83659
20
-3.20651
11
4.83504
21
-3.20522
0
LINE
8
BLACK
6
CONTINUOUS
10
4.83504
20
-3.20522
11
4.83469
21
-3.20323
0
LINE
8
BLACK
6
CONTINUOUS
10
4.83469
20
-3.20323
11
4.8357
21
-3.20148
0
LINE
8
BLACK
6
CONTINUOUS
10
4.8357
20
-3.20148
11
4.8376
21
-3.20079
0
LINE
8
BLACK
6
CONTINUOUS
10
4.8376
20
-3.20079
11
4.87401
21
-3.20079
0
LINE
8
BLACK
6
CONTINUOUS
10
4.87401
20
-3.20079
11
4.87401
21
-3.16437
0
LINE
8
BLACK
6
CONTINUOUS
10
4.87401
20
-3.16437
11
4.87419
21
-3.16336
0
LINE
8
BLACK
6
CONTINUOUS
10
4.87419
20
-3.16336
11
4.87549
21
-3.16181
0
LINE
8
BLACK
6
CONTINUOUS
10
4.87549
20
-3.16181
11
4.87748
21
-3.16146
0
LINE
8
BLACK
6
CONTINUOUS
10
4.87748
20
-3.16146
11
4.87923
21
-3.16247
0
LINE
8
BLACK
6
CONTINUOUS
10
5.54852
20
-3.16247
11
5.54921
21
-3.16437
0
LINE
8
BLACK
6
CONTINUOUS
10
5.54921
20
-3.16437
11
5.54921
21
-3.20374
0
LINE
8
BLACK
6
CONTINUOUS
10
5.54921
20
-3.20374
11
5.54914
21
-3.20412
0
LINE
8
BLACK
6
CONTINUOUS
10
5.54914
20
-3.20412
11
5.54917
21
-3.20425
0
LINE
8
BLACK
6
CONTINUOUS
10
5.54917
20
-3.20425
11
5.5491
21
-3.20437
0
LINE
8
BLACK
6
CONTINUOUS
10
5.5491
20
-3.20437
11
5.54903
21
-3.20475
0
LINE
8
BLACK
6
CONTINUOUS
10
5.54903
20
-3.20475
11
5.54854
21
-3.20534
0
LINE
8
BLACK
6
CONTINUOUS
10
5.54854
20
-3.20534
11
5.54816
21
-3.206
0
LINE
8
BLACK
6
CONTINUOUS
10
5.54816
20
-3.206
11
5.54791
21
-3.20609
0
LINE
8
BLACK
6
CONTINUOUS
10
5.54791
20
-3.20609
11
5.54773
21
-3.2063
0
LINE
8
BLACK
6
CONTINUOUS
10
5.54773
20
-3.2063
11
5.54698
21
-3.20643
0
LINE
8
BLACK
6
CONTINUOUS
10
5.54698
20
-3.20643
11
5.54626
21
-3.20669
0
LINE
8
BLACK
6
CONTINUOUS
10
5.54626
20
-3.20669
11
5.50689
21
-3.20669
0
LINE
8
BLACK
6
CONTINUOUS
10
5.50689
20
-3.20669
11
5.50588
21
-3.20651
0
LINE
8
BLACK
6
CONTINUOUS
10
5.50588
20
-3.20651
11
5.50433
21
-3.20522
0
LINE
8
BLACK
6
CONTINUOUS
10
5.50433
20
-3.20522
11
5.50398
21
-3.20323
0
LINE
8
BLACK
6
CONTINUOUS
10
5.50398
20
-3.20323
11
5.50499
21
-3.20148
0
LINE
8
BLACK
6
CONTINUOUS
10
5.50499
20
-3.20148
11
5.50689
21
-3.20079
0
LINE
8
BLACK
6
CONTINUOUS
10
5.50689
20
-3.20079
11
5.5433
21
-3.20079
0
LINE
8
BLACK
6
CONTINUOUS
10
5.5433
20
-3.20079
11
5.5433
21
-3.16437
0
LINE
8
BLACK
6
CONTINUOUS
10
5.5433
20
-3.16437
11
5.54348
21
-3.16336
0
LINE
8
BLACK
6
CONTINUOUS
10
5.54348
20
-3.16336
11
5.54478
21
-3.16181
0
LINE
8
BLACK
6
CONTINUOUS
10
5.54478
20
-3.16181
11
5.54677
21
-3.16146
0
LINE
8
BLACK
6
CONTINUOUS
10
5.54677
20
-3.16146
11
5.54852
21
-3.16247
0
LINE
8
BLACK
6
CONTINUOUS
10
4.99734
20
-3.16247
11
4.99803
21
-3.16437
0
LINE
8
BLACK
6
CONTINUOUS
10
4.99803
20
-3.16437
11
4.99803
21
-3.20079
0
LINE
8
BLACK
6
CONTINUOUS
10
4.99803
20
-3.20079
11
5.03445
21
-3.20079
0
LINE
8
BLACK
6
CONTINUOUS
10
5.03445
20
-3.20079
11
5.03546
21
-3.20096
0
LINE
8
BLACK
6
CONTINUOUS
10
5.03546
20
-3.20096
11
5.037
21
-3.20226
0
LINE
8
BLACK
6
CONTINUOUS
10
5.037
20
-3.20226
11
5.03735
21
-3.20425
0
LINE
8
BLACK
6
CONTINUOUS
10
5.03735
20
-3.20425
11
5.03634
21
-3.206
0
LINE
8
BLACK
6
CONTINUOUS
10
5.03634
20
-3.206
11
5.03445
21
-3.20669
0
LINE
8
BLACK
6
CONTINUOUS
10
5.03445
20
-3.20669
11
4.99508
21
-3.20669
0
LINE
8
BLACK
6
CONTINUOUS
10
4.99508
20
-3.20669
11
4.99469
21
-3.20662
0
LINE
8
BLACK
6
CONTINUOUS
10
4.99469
20
-3.20662
11
4.99456
21
-3.20665
0
LINE
8
BLACK
6
CONTINUOUS
10
4.99456
20
-3.20665
11
4.99445
21
-3.20658
0
LINE
8
BLACK
6
CONTINUOUS
10
4.99445
20
-3.20658
11
4.99407
21
-3.20651
0
LINE
8
BLACK
6
CONTINUOUS
10
4.99407
20
-3.20651
11
4.99348
21
-3.20602
0
LINE
8
BLACK
6
CONTINUOUS
10
4.99348
20
-3.20602
11
4.99281
21
-3.20564
0
LINE
8
BLACK
6
CONTINUOUS
10
4.99281
20
-3.20564
11
4.99272
21
-3.20539
0
LINE
8
BLACK
6
CONTINUOUS
10
4.99272
20
-3.20539
11
4.99252
21
-3.20522
0
LINE
8
BLACK
6
CONTINUOUS
10
4.99252
20
-3.20522
11
4.99239
21
-3.20446
0
LINE
8
BLACK
6
CONTINUOUS
10
4.99239
20
-3.20446
11
4.99212
21
-3.20374
0
LINE
8
BLACK
6
CONTINUOUS
10
4.99212
20
-3.20374
11
4.99212
21
-3.16437
0
LINE
8
BLACK
6
CONTINUOUS
10
4.99212
20
-3.16437
11
4.9923
21
-3.16336
0
LINE
8
BLACK
6
CONTINUOUS
10
4.9923
20
-3.16336
11
4.9936
21
-3.16181
0
LINE
8
BLACK
6
CONTINUOUS
10
4.9936
20
-3.16181
11
4.99559
21
-3.16146
0
LINE
8
BLACK
6
CONTINUOUS
10
4.99559
20
-3.16146
11
4.99734
21
-3.16247
0
LINE
8
BLACK
6
CONTINUOUS
10
4.20994
20
-3.16247
11
4.21063
21
-3.16437
0
LINE
8
BLACK
6
CONTINUOUS
10
4.21063
20
-3.16437
11
4.21063
21
-3.20374
0
LINE
8
BLACK
6
CONTINUOUS
10
4.21063
20
-3.20374
11
4.21056
21
-3.20412
0
LINE
8
BLACK
6
CONTINUOUS
10
4.21056
20
-3.20412
11
4.21058
21
-3.20425
0
LINE
8
BLACK
6
CONTINUOUS
10
4.21058
20
-3.20425
11
4.21052
21
-3.20437
0
LINE
8
BLACK
6
CONTINUOUS
10
4.21052
20
-3.20437
11
4.21045
21
-3.20475
0
LINE
8
BLACK
6
CONTINUOUS
10
4.21045
20
-3.20475
11
4.20996
21
-3.20534
0
LINE
8
BLACK
6
CONTINUOUS
10
4.20996
20
-3.20534
11
4.20957
21
-3.206
0
LINE
8
BLACK
6
CONTINUOUS
10
4.20957
20
-3.206
11
4.20932
21
-3.20609
0
LINE
8
BLACK
6
CONTINUOUS
10
4.20932
20
-3.20609
11
4.20915
21
-3.2063
0
LINE
8
BLACK
6
CONTINUOUS
10
4.20915
20
-3.2063
11
4.2084
21
-3.20643
0
LINE
8
BLACK
6
CONTINUOUS
10
4.2084
20
-3.20643
11
4.20768
21
-3.20669
0
LINE
8
BLACK
6
CONTINUOUS
10
4.20768
20
-3.20669
11
4.16831
21
-3.20669
0
LINE
8
BLACK
6
CONTINUOUS
10
4.16831
20
-3.20669
11
4.1673
21
-3.20651
0
LINE
8
BLACK
6
CONTINUOUS
10
4.1673
20
-3.20651
11
4.16575
21
-3.20522
0
LINE
8
BLACK
6
CONTINUOUS
10
4.16575
20
-3.20522
11
4.1654
21
-3.20323
0
LINE
8
BLACK
6
CONTINUOUS
10
4.1654
20
-3.20323
11
4.16641
21
-3.20148
0
LINE
8
BLACK
6
CONTINUOUS
10
4.16641
20
-3.20148
11
4.16831
21
-3.20079
0
LINE
8
BLACK
6
CONTINUOUS
10
4.16831
20
-3.20079
11
4.20472
21
-3.20079
0
LINE
8
BLACK
6
CONTINUOUS
10
4.20472
20
-3.20079
11
4.20472
21
-3.16437
0
LINE
8
BLACK
6
CONTINUOUS
10
4.20472
20
-3.16437
11
4.2049
21
-3.16336
0
LINE
8
BLACK
6
CONTINUOUS
10
4.2049
20
-3.16336
11
4.2062
21
-3.16181
0
LINE
8
BLACK
6
CONTINUOUS
10
4.2062
20
-3.16181
11
4.20819
21
-3.16146
0
LINE
8
BLACK
6
CONTINUOUS
10
4.20819
20
-3.16146
11
4.20994
21
-3.16247
0
LINE
8
BLACK
6
CONTINUOUS
10
3.65876
20
-3.16247
11
3.65945
21
-3.16437
0
LINE
8
BLACK
6
CONTINUOUS
10
3.65945
20
-3.16437
11
3.65945
21
-3.20079
0
LINE
8
BLACK
6
CONTINUOUS
10
3.65945
20
-3.20079
11
3.69586
21
-3.20079
0
LINE
8
BLACK
6
CONTINUOUS
10
3.69586
20
-3.20079
11
3.69687
21
-3.20096
0
LINE
8
BLACK
6
CONTINUOUS
10
3.69687
20
-3.20096
11
3.69842
21
-3.20226
0
LINE
8
BLACK
6
CONTINUOUS
10
3.69842
20
-3.20226
11
3.69877
21
-3.20425
0
LINE
8
BLACK
6
CONTINUOUS
10
3.69877
20
-3.20425
11
3.69776
21
-3.206
0
LINE
8
BLACK
6
CONTINUOUS
10
3.69776
20
-3.206
11
3.69586
21
-3.20669
0
LINE
8
BLACK
6
CONTINUOUS
10
3.69586
20
-3.20669
11
3.65649
21
-3.20669
0
LINE
8
BLACK
6
CONTINUOUS
10
3.65649
20
-3.20669
11
3.65611
21
-3.20662
0
LINE
8
BLACK
6
CONTINUOUS
10
3.65611
20
-3.20662
11
3.65598
21
-3.20665
0
LINE
8
BLACK
6
CONTINUOUS
10
3.65598
20
-3.20665
11
3.65587
21
-3.20658
0
LINE
8
BLACK
6
CONTINUOUS
10
3.65587
20
-3.20658
11
3.65548
21
-3.20651
0
LINE
8
BLACK
6
CONTINUOUS
10
3.65548
20
-3.20651
11
3.6549
21
-3.20602
0
LINE
8
BLACK
6
CONTINUOUS
10
3.6549
20
-3.20602
11
3.65423
21
-3.20564
0
LINE
8
BLACK
6
CONTINUOUS
10
3.65423
20
-3.20564
11
3.65414
21
-3.20539
0
LINE
8
BLACK
6
CONTINUOUS
10
3.65414
20
-3.20539
11
3.65394
21
-3.20522
0
LINE
8
BLACK
6
CONTINUOUS
10
3.65394
20
-3.20522
11
3.6538
21
-3.20446
0
LINE
8
BLACK
6
CONTINUOUS
10
3.6538
20
-3.20446
11
3.65354
21
-3.20374
0
LINE
8
BLACK
6
CONTINUOUS
10
3.65354
20
-3.20374
11
3.65354
21
-3.16437
0
LINE
8
BLACK
6
CONTINUOUS
10
3.65354
20
-3.16437
11
3.65372
21
-3.16336
0
LINE
8
BLACK
6
CONTINUOUS
10
3.65372
20
-3.16336
11
3.65502
21
-3.16181
0
LINE
8
BLACK
6
CONTINUOUS
10
3.65502
20
-3.16181
11
3.65701
21
-3.16146
0
LINE
8
BLACK
6
CONTINUOUS
10
3.65701
20
-3.16146
11
3.65876
21
-3.16247
0
LINE
8
BLACK
6
CONTINUOUS
10
2.98947
20
-3.16247
11
2.99016
21
-3.16437
0
LINE
8
BLACK
6
CONTINUOUS
10
2.99016
20
-3.16437
11
2.99016
21
-3.20079
0
LINE
8
BLACK
6
CONTINUOUS
10
2.99016
20
-3.20079
11
3.02657
21
-3.20079
0
LINE
8
BLACK
6
CONTINUOUS
10
3.02657
20
-3.20079
11
3.02758
21
-3.20096
0
LINE
8
BLACK
6
CONTINUOUS
10
3.02758
20
-3.20096
11
3.02913
21
-3.20226
0
LINE
8
BLACK
6
CONTINUOUS
10
3.02913
20
-3.20226
11
3.02948
21
-3.20425
0
LINE
8
BLACK
6
CONTINUOUS
10
3.02948
20
-3.20425
11
3.02847
21
-3.206
0
LINE
8
BLACK
6
CONTINUOUS
10
3.02847
20
-3.206
11
3.02657
21
-3.20669
0
LINE
8
BLACK
6
CONTINUOUS
10
3.02657
20
-3.20669
11
2.9872
21
-3.20669
0
LINE
8
BLACK
6
CONTINUOUS
10
2.9872
20
-3.20669
11
2.98682
21
-3.20662
0
LINE
8
BLACK
6
CONTINUOUS
10
2.98682
20
-3.20662
11
2.98669
21
-3.20665
0
LINE
8
BLACK
6
CONTINUOUS
10
2.98669
20
-3.20665
11
2.98658
21
-3.20658
0
LINE
8
BLACK
6
CONTINUOUS
10
2.98658
20
-3.20658
11
2.98619
21
-3.20651
0
LINE
8
BLACK
6
CONTINUOUS
10
2.98619
20
-3.20651
11
2.98561
21
-3.20602
0
LINE
8
BLACK
6
CONTINUOUS
10
2.98561
20
-3.20602
11
2.98494
21
-3.20564
0
LINE
8
BLACK
6
CONTINUOUS
10
2.98494
20
-3.20564
11
2.98485
21
-3.20539
0
LINE
8
BLACK
6
CONTINUOUS
10
2.98485
20
-3.20539
11
2.98465
21
-3.20522
0
LINE
8
BLACK
6
CONTINUOUS
10
2.98465
20
-3.20522
11
2.98451
21
-3.20446
0
LINE
8
BLACK
6
CONTINUOUS
10
2.98451
20
-3.20446
11
2.98425
21
-3.20374
0
LINE
8
BLACK
6
CONTINUOUS
10
2.98425
20
-3.20374
11
2.98425
21
-3.16437
0
LINE
8
BLACK
6
CONTINUOUS
10
2.98425
20
-3.16437
11
2.98443
21
-3.16336
0
LINE
8
BLACK
6
CONTINUOUS
10
2.98443
20
-3.16336
11
2.98573
21
-3.16181
0
LINE
8
BLACK
6
CONTINUOUS
10
2.98573
20
-3.16181
11
2.98772
21
-3.16146
0
LINE
8
BLACK
6
CONTINUOUS
10
2.98772
20
-3.16146
11
2.98947
21
-3.16247
0
LINE
8
BLACK
6
CONTINUOUS
10
3.54065
20
-3.16247
11
3.54134
21
-3.16437
0
LINE
8
BLACK
6
CONTINUOUS
10
3.54134
20
-3.16437
11
3.54134
21
-3.20374
0
LINE
8
BLACK
6
CONTINUOUS
10
3.54134
20
-3.20374
11
3.54127
21
-3.20412
0
LINE
8
BLACK
6
CONTINUOUS
10
3.54127
20
-3.20412
11
3.54129
21
-3.20425
0
LINE
8
BLACK
6
CONTINUOUS
10
3.54129
20
-3.20425
11
3.54123
21
-3.20437
0
LINE
8
BLACK
6
CONTINUOUS
10
3.54123
20
-3.20437
11
3.54116
21
-3.20475
0
LINE
8
BLACK
6
CONTINUOUS
10
3.54116
20
-3.20475
11
3.54067
21
-3.20534
0
LINE
8
BLACK
6
CONTINUOUS
10
3.54067
20
-3.20534
11
3.54028
21
-3.206
0
LINE
8
BLACK
6
CONTINUOUS
10
3.54028
20
-3.206
11
3.54003
21
-3.20609
0
LINE
8
BLACK
6
CONTINUOUS
10
3.54003
20
-3.20609
11
3.53986
21
-3.2063
0
LINE
8
BLACK
6
CONTINUOUS
10
3.53986
20
-3.2063
11
3.53911
21
-3.20643
0
LINE
8
BLACK
6
CONTINUOUS
10
3.53911
20
-3.20643
11
3.53838
21
-3.20669
0
LINE
8
BLACK
6
CONTINUOUS
10
3.53838
20
-3.20669
11
3.49901
21
-3.20669
0
LINE
8
BLACK
6
CONTINUOUS
10
3.49901
20
-3.20669
11
3.498
21
-3.20651
0
LINE
8
BLACK
6
CONTINUOUS
10
3.498
20
-3.20651
11
3.49646
21
-3.20522
0
LINE
8
BLACK
6
CONTINUOUS
10
3.49646
20
-3.20522
11
3.49611
21
-3.20323
0
LINE
8
BLACK
6
CONTINUOUS
10
3.49611
20
-3.20323
11
3.49712
21
-3.20148
0
LINE
8
BLACK
6
CONTINUOUS
10
3.49712
20
-3.20148
11
3.49901
21
-3.20079
0
LINE
8
BLACK
6
CONTINUOUS
10
3.49901
20
-3.20079
11
3.53543
21
-3.20079
0
LINE
8
BLACK
6
CONTINUOUS
10
3.53543
20
-3.20079
11
3.53543
21
-3.16437
0
LINE
8
BLACK
6
CONTINUOUS
10
3.53543
20
-3.16437
11
3.53561
21
-3.16336
0
LINE
8
BLACK
6
CONTINUOUS
10
3.53561
20
-3.16336
11
3.53691
21
-3.16181
0
LINE
8
BLACK
6
CONTINUOUS
10
3.53691
20
-3.16181
11
3.5389
21
-3.16146
0
LINE
8
BLACK
6
CONTINUOUS
10
3.5389
20
-3.16146
11
3.54065
21
-3.16247
0
LINE
8
BLACK
6
CONTINUOUS
10
3.53877
20
-2.64967
11
3.5389
21
-2.64965
0
LINE
8
BLACK
6
CONTINUOUS
10
3.5389
20
-2.64965
11
3.53901
21
-2.64972
0
LINE
8
BLACK
6
CONTINUOUS
10
3.53901
20
-2.64972
11
3.53939
21
-2.64978
0
LINE
8
BLACK
6
CONTINUOUS
10
3.53939
20
-2.64978
11
3.53998
21
-2.65028
0
LINE
8
BLACK
6
CONTINUOUS
10
3.53998
20
-2.65028
11
3.54065
21
-2.65066
0
LINE
8
BLACK
6
CONTINUOUS
10
3.54065
20
-2.65066
11
3.54074
21
-2.65091
0
LINE
8
BLACK
6
CONTINUOUS
10
3.54074
20
-2.65091
11
3.54094
21
-2.65108
0
LINE
8
BLACK
6
CONTINUOUS
10
3.54094
20
-2.65108
11
3.54107
21
-2.65184
0
LINE
8
BLACK
6
CONTINUOUS
10
3.54107
20
-2.65184
11
3.54134
21
-2.65256
0
LINE
8
BLACK
6
CONTINUOUS
10
3.54134
20
-2.65256
11
3.54134
21
-2.69193
0
LINE
8
BLACK
6
CONTINUOUS
10
3.54134
20
-2.69193
11
3.54116
21
-2.69294
0
LINE
8
BLACK
6
CONTINUOUS
10
3.54116
20
-2.69294
11
3.53986
21
-2.69448
0
LINE
8
BLACK
6
CONTINUOUS
10
3.53986
20
-2.69448
11
3.53787
21
-2.69484
0
LINE
8
BLACK
6
CONTINUOUS
10
3.53787
20
-2.69484
11
3.53612
21
-2.69383
0
LINE
8
BLACK
6
CONTINUOUS
10
3.53612
20
-2.69383
11
3.53543
21
-2.69193
0
LINE
8
BLACK
6
CONTINUOUS
10
3.53543
20
-2.69193
11
3.53543
21
-2.65551
0
LINE
8
BLACK
6
CONTINUOUS
10
3.53543
20
-2.65551
11
3.49901
21
-2.65551
0
LINE
8
BLACK
6
CONTINUOUS
10
3.49901
20
-2.65551
11
3.498
21
-2.65533
0
LINE
8
BLACK
6
CONTINUOUS
10
3.498
20
-2.65533
11
3.49646
21
-2.65403
0
LINE
8
BLACK
6
CONTINUOUS
10
3.49646
20
-2.65403
11
3.49611
21
-2.65204
0
LINE
8
BLACK
6
CONTINUOUS
10
3.49611
20
-2.65204
11
3.49712
21
-2.6503
0
LINE
8
BLACK
6
CONTINUOUS
10
3.49712
20
-2.6503
11
3.49901
21
-2.6496
0
LINE
8
BLACK
6
CONTINUOUS
10
3.49901
20
-2.6496
11
3.53838
21
-2.6496
0
LINE
8
BLACK
6
CONTINUOUS
10
3.53838
20
-2.6496
11
3.53877
21
-2.64967
0
LINE
8
BLACK
6
CONTINUOUS
10
3.02758
20
-2.64978
11
3.02913
21
-2.65108
0
LINE
8
BLACK
6
CONTINUOUS
10
3.02913
20
-2.65108
11
3.02948
21
-2.65307
0
LINE
8
BLACK
6
CONTINUOUS
10
3.02948
20
-2.65307
11
3.02847
21
-2.65482
0
LINE
8
BLACK
6
CONTINUOUS
10
3.02847
20
-2.65482
11
3.02657
21
-2.65551
0
LINE
8
BLACK
6
CONTINUOUS
10
3.02657
20
-2.65551
11
2.99016
21
-2.65551
0
LINE
8
BLACK
6
CONTINUOUS
10
2.99016
20
-2.65551
11
2.99016
21
-2.69193
0
LINE
8
BLACK
6
CONTINUOUS
10
2.99016
20
-2.69193
11
2.98998
21
-2.69294
0
LINE
8
BLACK
6
CONTINUOUS
10
2.98998
20
-2.69294
11
2.98868
21
-2.69448
0
LINE
8
BLACK
6
CONTINUOUS
10
2.98868
20
-2.69448
11
2.98669
21
-2.69484
0
LINE
8
BLACK
6
CONTINUOUS
10
2.98669
20
-2.69484
11
2.98494
21
-2.69383
0
LINE
8
BLACK
6
CONTINUOUS
10
2.98494
20
-2.69383
11
2.98425
21
-2.69193
0
LINE
8
BLACK
6
CONTINUOUS
10
2.98425
20
-2.69193
11
2.98425
21
-2.65256
0
LINE
8
BLACK
6
CONTINUOUS
10
2.98425
20
-2.65256
11
2.98432
21
-2.65217
0
LINE
8
BLACK
6
CONTINUOUS
10
2.98432
20
-2.65217
11
2.9843
21
-2.65204
0
LINE
8
BLACK
6
CONTINUOUS
10
2.9843
20
-2.65204
11
2.98436
21
-2.65193
0
LINE
8
BLACK
6
CONTINUOUS
10
2.98436
20
-2.65193
11
2.98443
21
-2.65155
0
LINE
8
BLACK
6
CONTINUOUS
10
2.98443
20
-2.65155
11
2.98492
21
-2.65096
0
LINE
8
BLACK
6
CONTINUOUS
10
2.98492
20
-2.65096
11
2.98531
21
-2.6503
0
LINE
8
BLACK
6
CONTINUOUS
10
2.98531
20
-2.6503
11
2.98556
21
-2.6502
0
LINE
8
BLACK
6
CONTINUOUS
10
2.98556
20
-2.6502
11
2.98573
21
-2.65
0
LINE
8
BLACK
6
CONTINUOUS
10
2.98573
20
-2.65
11
2.98648
21
-2.64987
0
LINE
8
BLACK
6
CONTINUOUS
10
2.98648
20
-2.64987
11
2.9872
21
-2.6496
0
LINE
8
BLACK
6
CONTINUOUS
10
2.9872
20
-2.6496
11
3.02657
21
-2.6496
0
LINE
8
BLACK
6
CONTINUOUS
10
3.02657
20
-2.6496
11
3.02758
21
-2.64978
0
LINE
8
BLACK
6
CONTINUOUS
10
5.54664
20
-2.64967
11
5.54677
21
-2.64965
0
LINE
8
BLACK
6
CONTINUOUS
10
5.54677
20
-2.64965
11
5.54688
21
-2.64972
0
LINE
8
BLACK
6
CONTINUOUS
10
5.54688
20
-2.64972
11
5.54727
21
-2.64978
0
LINE
8
BLACK
6
CONTINUOUS
10
5.54727
20
-2.64978
11
5.54785
21
-2.65028
0
LINE
8
BLACK
6
CONTINUOUS
10
5.54785
20
-2.65028
11
5.54852
21
-2.65066
0
LINE
8
BLACK
6
CONTINUOUS
10
5.54852
20
-2.65066
11
5.54861
21
-2.65091
0
LINE
8
BLACK
6
CONTINUOUS
10
5.54861
20
-2.65091
11
5.54881
21
-2.65108
0
LINE
8
BLACK
6
CONTINUOUS
10
5.54881
20
-2.65108
11
5.54895
21
-2.65184
0
LINE
8
BLACK
6
CONTINUOUS
10
5.54895
20
-2.65184
11
5.54921
21
-2.65256
0
LINE
8
BLACK
6
CONTINUOUS
10
5.54921
20
-2.65256
11
5.54921
21
-2.69193
0
LINE
8
BLACK
6
CONTINUOUS
10
5.54921
20
-2.69193
11
5.54903
21
-2.69294
0
LINE
8
BLACK
6
CONTINUOUS
10
5.54903
20
-2.69294
11
5.54773
21
-2.69448
0
LINE
8
BLACK
6
CONTINUOUS
10
5.54773
20
-2.69448
11
5.54574
21
-2.69484
0
LINE
8
BLACK
6
CONTINUOUS
10
5.54574
20
-2.69484
11
5.544
21
-2.69383
0
LINE
8
BLACK
6
CONTINUOUS
10
5.544
20
-2.69383
11
5.5433
21
-2.69193
0
LINE
8
BLACK
6
CONTINUOUS
10
5.5433
20
-2.69193
11
5.5433
21
-2.65551
0
LINE
8
BLACK
6
CONTINUOUS
10
5.5433
20
-2.65551
11
5.50689
21
-2.65551
0
LINE
8
BLACK
6
CONTINUOUS
10
5.50689
20
-2.65551
11
5.50588
21
-2.65533
0
LINE
8
BLACK
6
CONTINUOUS
10
5.50588
20
-2.65533
11
5.50433
21
-2.65403
0
LINE
8
BLACK
6
CONTINUOUS
10
5.50433
20
-2.65403
11
5.50398
21
-2.65204
0
LINE
8
BLACK
6
CONTINUOUS
10
5.50398
20
-2.65204
11
5.50499
21
-2.6503
0
LINE
8
BLACK
6
CONTINUOUS
10
5.50499
20
-2.6503
11
5.50689
21
-2.6496
0
LINE
8
BLACK
6
CONTINUOUS
10
5.50689
20
-2.6496
11
5.54626
21
-2.6496
0
LINE
8
BLACK
6
CONTINUOUS
10
5.54626
20
-2.6496
11
5.54664
21
-2.64967
0
LINE
8
BLACK
6
CONTINUOUS
10
5.03546
20
-2.64978
11
5.037
21
-2.65108
0
LINE
8
BLACK
6
CONTINUOUS
10
5.037
20
-2.65108
11
5.03735
21
-2.65307
0
LINE
8
BLACK
6
CONTINUOUS
10
5.03735
20
-2.65307
11
5.03634
21
-2.65482
0
LINE
8
BLACK
6
CONTINUOUS
10
5.03634
20
-2.65482
11
5.03445
21
-2.65551
0
LINE
8
BLACK
6
CONTINUOUS
10
5.03445
20
-2.65551
11
4.99803
21
-2.65551
0
LINE
8
BLACK
6
CONTINUOUS
10
4.99803
20
-2.65551
11
4.99803
21
-2.69193
0
LINE
8
BLACK
6
CONTINUOUS
10
4.99803
20
-2.69193
11
4.99785
21
-2.69294
0
LINE
8
BLACK
6
CONTINUOUS
10
4.99785
20
-2.69294
11
4.99655
21
-2.69448
0
LINE
8
BLACK
6
CONTINUOUS
10
4.99655
20
-2.69448
11
4.99456
21
-2.69484
0
LINE
8
BLACK
6
CONTINUOUS
10
4.99456
20
-2.69484
11
4.99281
21
-2.69383
0
LINE
8
BLACK
6
CONTINUOUS
10
4.99281
20
-2.69383
11
4.99212
21
-2.69193
0
LINE
8
BLACK
6
CONTINUOUS
10
4.99212
20
-2.69193
11
4.99212
21
-2.65256
0
LINE
8
BLACK
6
CONTINUOUS
10
4.99212
20
-2.65256
11
4.99219
21
-2.65217
0
LINE
8
BLACK
6
CONTINUOUS
10
4.99219
20
-2.65217
11
4.99217
21
-2.65204
0
LINE
8
BLACK
6
CONTINUOUS
10
4.99217
20
-2.65204
11
4.99223
21
-2.65193
0
LINE
8
BLACK
6
CONTINUOUS
10
4.99223
20
-2.65193
11
4.9923
21
-2.65155
0
LINE
8
BLACK
6
CONTINUOUS
10
4.9923
20
-2.65155
11
4.99279
21
-2.65096
0
LINE
8
BLACK
6
CONTINUOUS
10
4.99279
20
-2.65096
11
4.99318
21
-2.6503
0
LINE
8
BLACK
6
CONTINUOUS
10
4.99318
20
-2.6503
11
4.99343
21
-2.6502
0
LINE
8
BLACK
6
CONTINUOUS
10
4.99343
20
-2.6502
11
4.9936
21
-2.65
0
LINE
8
BLACK
6
CONTINUOUS
10
4.9936
20
-2.65
11
4.99436
21
-2.64987
0
LINE
8
BLACK
6
CONTINUOUS
10
4.99436
20
-2.64987
11
4.99508
21
-2.6496
0
LINE
8
BLACK
6
CONTINUOUS
10
4.99508
20
-2.6496
11
5.03445
21
-2.6496
0
LINE
8
BLACK
6
CONTINUOUS
10
5.03445
20
-2.6496
11
5.03546
21
-2.64978
0
LINE
8
BLACK
6
CONTINUOUS
10
3.69687
20
-2.64978
11
3.69842
21
-2.65108
0
LINE
8
BLACK
6
CONTINUOUS
10
3.69842
20
-2.65108
11
3.69877
21
-2.65307
0
LINE
8
BLACK
6
CONTINUOUS
10
3.69877
20
-2.65307
11
3.69776
21
-2.65482
0
LINE
8
BLACK
6
CONTINUOUS
10
3.69776
20
-2.65482
11
3.69586
21
-2.65551
0
LINE
8
BLACK
6
CONTINUOUS
10
3.69586
20
-2.65551
11
3.65945
21
-2.65551
0
LINE
8
BLACK
6
CONTINUOUS
10
3.65945
20
-2.65551
11
3.65945
21
-2.69193
0
LINE
8
BLACK
6
CONTINUOUS
10
3.65945
20
-2.69193
11
3.65927
21
-2.69294
0
LINE
8
BLACK
6
CONTINUOUS
10
3.65927
20
-2.69294
11
3.65797
21
-2.69448
0
LINE
8
BLACK
6
CONTINUOUS
10
3.65797
20
-2.69448
11
3.65598
21
-2.69484
0
LINE
8
BLACK
6
CONTINUOUS
10
3.65598
20
-2.69484
11
3.65423
21
-2.69383
0
LINE
8
BLACK
6
CONTINUOUS
10
3.65423
20
-2.69383
11
3.65354
21
-2.69193
0
LINE
8
BLACK
6
CONTINUOUS
10
3.65354
20
-2.69193
11
3.65354
21
-2.65256
0
LINE
8
BLACK
6
CONTINUOUS
10
3.65354
20
-2.65256
11
3.65361
21
-2.65217
0
LINE
8
BLACK
6
CONTINUOUS
10
3.65361
20
-2.65217
11
3.65359
21
-2.65204
0
LINE
8
BLACK
6
CONTINUOUS
10
3.65359
20
-2.65204
11
3.65365
21
-2.65193
0
LINE
8
BLACK
6
CONTINUOUS
10
3.65365
20
-2.65193
11
3.65372
21
-2.65155
0
LINE
8
BLACK
6
CONTINUOUS
10
3.65372
20
-2.65155
11
3.65421
21
-2.65096
0
LINE
8
BLACK
6
CONTINUOUS
10
3.65421
20
-2.65096
11
3.6546
21
-2.6503
0
LINE
8
BLACK
6
CONTINUOUS
10
3.6546
20
-2.6503
11
3.65485
21
-2.6502
0
LINE
8
BLACK
6
CONTINUOUS
10
3.65485
20
-2.6502
11
3.65502
21
-2.65
0
LINE
8
BLACK
6
CONTINUOUS
10
3.65502
20
-2.65
11
3.65577
21
-2.64987
0
LINE
8
BLACK
6
CONTINUOUS
10
3.65577
20
-2.64987
11
3.65649
21
-2.6496
0
LINE
8
BLACK
6
CONTINUOUS
10
3.65649
20
-2.6496
11
3.69586
21
-2.6496
0
LINE
8
BLACK
6
CONTINUOUS
10
3.69586
20
-2.6496
11
3.69687
21
-2.64978
0
LINE
8
BLACK
6
CONTINUOUS
10
4.36617
20
-2.64978
11
4.36771
21
-2.65108
0
LINE
8
BLACK
6
CONTINUOUS
10
4.36771
20
-2.65108
11
4.36806
21
-2.65307
0
LINE
8
BLACK
6
CONTINUOUS
10
4.36806
20
-2.65307
11
4.36705
21
-2.65482
0
LINE
8
BLACK
6
CONTINUOUS
10
4.36705
20
-2.65482
11
4.36516
21
-2.65551
0
LINE
8
BLACK
6
CONTINUOUS
10
4.36516
20
-2.65551
11
4.32874
21
-2.65551
0
LINE
8
BLACK
6
CONTINUOUS
10
4.32874
20
-2.65551
11
4.32874
21
-2.69193
0
LINE
8
BLACK
6
CONTINUOUS
10
4.32874
20
-2.69193
11
4.32856
21
-2.69294
0
LINE
8
BLACK
6
CONTINUOUS
10
4.32856
20
-2.69294
11
4.32726
21
-2.69448
0
LINE
8
BLACK
6
CONTINUOUS
10
4.32726
20
-2.69448
11
4.32527
21
-2.69484
0
LINE
8
BLACK
6
CONTINUOUS
10
4.32527
20
-2.69484
11
4.32352
21
-2.69383
0
LINE
8
BLACK
6
CONTINUOUS
10
4.32352
20
-2.69383
11
4.32283
21
-2.69193
0
LINE
8
BLACK
6
CONTINUOUS
10
4.32283
20
-2.69193
11
4.32283
21
-2.65256
0
LINE
8
BLACK
6
CONTINUOUS
10
4.32283
20
-2.65256
11
4.3229
21
-2.65217
0
LINE
8
BLACK
6
CONTINUOUS
10
4.3229
20
-2.65217
11
4.32288
21
-2.65204
0
LINE
8
BLACK
6
CONTINUOUS
10
4.32288
20
-2.65204
11
4.32294
21
-2.65193
0
LINE
8
BLACK
6
CONTINUOUS
10
4.32294
20
-2.65193
11
4.32301
21
-2.65155
0
LINE
8
BLACK
6
CONTINUOUS
10
4.32301
20
-2.65155
11
4.3235
21
-2.65096
0
LINE
8
BLACK
6
CONTINUOUS
10
4.3235
20
-2.65096
11
4.32389
21
-2.6503
0
LINE
8
BLACK
6
CONTINUOUS
10
4.32389
20
-2.6503
11
4.32414
21
-2.6502
0
LINE
8
BLACK
6
CONTINUOUS
10
4.32414
20
-2.6502
11
4.32431
21
-2.65
0
LINE
8
BLACK
6
CONTINUOUS
10
4.32431
20
-2.65
11
4.32506
21
-2.64987
0
LINE
8
BLACK
6
CONTINUOUS
10
4.32506
20
-2.64987
11
4.32579
21
-2.6496
0
LINE
8
BLACK
6
CONTINUOUS
10
4.32579
20
-2.6496
11
4.36516
21
-2.6496
0
LINE
8
BLACK
6
CONTINUOUS
10
4.36516
20
-2.6496
11
4.36617
21
-2.64978
0
LINE
8
BLACK
6
CONTINUOUS
10
4.20806
20
-2.64967
11
4.20819
21
-2.64965
0
LINE
8
BLACK
6
CONTINUOUS
10
4.20819
20
-2.64965
11
4.2083
21
-2.64972
0
LINE
8
BLACK
6
CONTINUOUS
10
4.2083
20
-2.64972
11
4.20869
21
-2.64978
0
LINE
8
BLACK
6
CONTINUOUS
10
4.20869
20
-2.64978
11
4.20927
21
-2.65028
0
LINE
8
BLACK
6
CONTINUOUS
10
4.20927
20
-2.65028
11
4.20994
21
-2.65066
0
LINE
8
BLACK
6
CONTINUOUS
10
4.20994
20
-2.65066
11
4.21003
21
-2.65091
0
LINE
8
BLACK
6
CONTINUOUS
10
4.21003
20
-2.65091
11
4.21023
21
-2.65108
0
LINE
8
BLACK
6
CONTINUOUS
10
4.21023
20
-2.65108
11
4.21037
21
-2.65184
0
LINE
8
BLACK
6
CONTINUOUS
10
4.21037
20
-2.65184
11
4.21063
21
-2.65256
0
LINE
8
BLACK
6
CONTINUOUS
10
4.21063
20
-2.65256
11
4.21063
21
-2.69193
0
LINE
8
BLACK
6
CONTINUOUS
10
4.21063
20
-2.69193
11
4.21045
21
-2.69294
0
LINE
8
BLACK
6
CONTINUOUS
10
4.21045
20
-2.69294
11
4.20915
21
-2.69448
0
LINE
8
BLACK
6
CONTINUOUS
10
4.20915
20
-2.69448
11
4.20716
21
-2.69484
0
LINE
8
BLACK
6
CONTINUOUS
10
4.20716
20
-2.69484
11
4.20541
21
-2.69383
0
LINE
8
BLACK
6
CONTINUOUS
10
4.20541
20
-2.69383
11
4.20472
21
-2.69193
0
LINE
8
BLACK
6
CONTINUOUS
10
4.20472
20
-2.69193
11
4.20472
21
-2.65551
0
LINE
8
BLACK
6
CONTINUOUS
10
4.20472
20
-2.65551
11
4.16831
21
-2.65551
0
LINE
8
BLACK
6
CONTINUOUS
10
4.16831
20
-2.65551
11
4.1673
21
-2.65533
0
LINE
8
BLACK
6
CONTINUOUS
10
4.1673
20
-2.65533
11
4.16575
21
-2.65403
0
LINE
8
BLACK
6
CONTINUOUS
10
4.16575
20
-2.65403
11
4.1654
21
-2.65204
0
LINE
8
BLACK
6
CONTINUOUS
10
4.1654
20
-2.65204
11
4.16641
21
-2.6503
0
LINE
8
BLACK
6
CONTINUOUS
10
4.16641
20
-2.6503
11
4.16831
21
-2.6496
0
LINE
8
BLACK
6
CONTINUOUS
10
4.16831
20
-2.6496
11
4.20768
21
-2.6496
0
LINE
8
BLACK
6
CONTINUOUS
10
4.20768
20
-2.6496
11
4.20806
21
-2.64967
0
LINE
8
BLACK
6
CONTINUOUS
10
4.87735
20
-2.64967
11
4.87748
21
-2.64965
0
LINE
8
BLACK
6
CONTINUOUS
10
4.87748
20
-2.64965
11
4.87759
21
-2.64972
0
LINE
8
BLACK
6
CONTINUOUS
10
4.87759
20
-2.64972
11
4.87798
21
-2.64978
0
LINE
8
BLACK
6
CONTINUOUS
10
4.87798
20
-2.64978
11
4.87856
21
-2.65028
0
LINE
8
BLACK
6
CONTINUOUS
10
4.87856
20
-2.65028
11
4.87923
21
-2.65066
0
LINE
8
BLACK
6
CONTINUOUS
10
4.87923
20
-2.65066
11
4.87932
21
-2.65091
0
LINE
8
BLACK
6
CONTINUOUS
10
4.87932
20
-2.65091
11
4.87952
21
-2.65108
0
LINE
8
BLACK
6
CONTINUOUS
10
4.87952
20
-2.65108
11
4.87966
21
-2.65184
0
LINE
8
BLACK
6
CONTINUOUS
10
4.87966
20
-2.65184
11
4.87992
21
-2.65256
0
LINE
8
BLACK
6
CONTINUOUS
10
4.87992
20
-2.65256
11
4.87992
21
-2.69193
0
LINE
8
BLACK
6
CONTINUOUS
10
4.87992
20
-2.69193
11
4.87974
21
-2.69294
0
LINE
8
BLACK
6
CONTINUOUS
10
4.87974
20
-2.69294
11
4.87844
21
-2.69448
0
LINE
8
BLACK
6
CONTINUOUS
10
4.87844
20
-2.69448
11
4.87645
21
-2.69484
0
LINE
8
BLACK
6
CONTINUOUS
10
4.87645
20
-2.69484
11
4.8747
21
-2.69383
0
LINE
8
BLACK
6
CONTINUOUS
10
4.8747
20
-2.69383
11
4.87401
21
-2.69193
0
LINE
8
BLACK
6
CONTINUOUS
10
4.87401
20
-2.69193
11
4.87401
21
-2.65551
0
LINE
8
BLACK
6
CONTINUOUS
10
4.87401
20
-2.65551
11
4.8376
21
-2.65551
0
LINE
8
BLACK
6
CONTINUOUS
10
4.8376
20
-2.65551
11
4.83659
21
-2.65533
0
LINE
8
BLACK
6
CONTINUOUS
10
4.83659
20
-2.65533
11
4.83504
21
-2.65403
0
LINE
8
BLACK
6
CONTINUOUS
10
4.83504
20
-2.65403
11
4.83469
21
-2.65204
0
LINE
8
BLACK
6
CONTINUOUS
10
4.83469
20
-2.65204
11
4.8357
21
-2.6503
0
LINE
8
BLACK
6
CONTINUOUS
10
4.8357
20
-2.6503
11
4.8376
21
-2.6496
0
LINE
8
BLACK
6
CONTINUOUS
10
4.8376
20
-2.6496
11
4.87697
21
-2.6496
0
LINE
8
BLACK
6
CONTINUOUS
10
4.87697
20
-2.6496
11
4.87735
21
-2.64967
0
LINE
8
BLACK
6
CONTINUOUS
10
4.99734
20
-2.49318
11
4.99803
21
-2.49508
0
LINE
8
BLACK
6
CONTINUOUS
10
4.99803
20
-2.49508
11
4.99803
21
-2.5315
0
LINE
8
BLACK
6
CONTINUOUS
10
4.99803
20
-2.5315
11
5.03445
21
-2.5315
0
LINE
8
BLACK
6
CONTINUOUS
10
5.03445
20
-2.5315
11
5.03546
21
-2.53167
0
LINE
8
BLACK
6
CONTINUOUS
10
5.03546
20
-2.53167
11
5.037
21
-2.53297
0
LINE
8
BLACK
6
CONTINUOUS
10
5.037
20
-2.53297
11
5.03735
21
-2.53496
0
LINE
8
BLACK
6
CONTINUOUS
10
5.03735
20
-2.53496
11
5.03634
21
-2.53671
0
LINE
8
BLACK
6
CONTINUOUS
10
5.03634
20
-2.53671
11
5.03445
21
-2.5374
0
LINE
8
BLACK
6
CONTINUOUS
10
5.03445
20
-2.5374
11
4.99508
21
-2.5374
0
LINE
8
BLACK
6
CONTINUOUS
10
4.99508
20
-2.5374
11
4.99469
21
-2.53733
0
LINE
8
BLACK
6
CONTINUOUS
10
4.99469
20
-2.53733
11
4.99456
21
-2.53736
0
LINE
8
BLACK
6
CONTINUOUS
10
4.99456
20
-2.53736
11
4.99445
21
-2.53729
0
LINE
8
BLACK
6
CONTINUOUS
10
4.99445
20
-2.53729
11
4.99407
21
-2.53722
0
LINE
8
BLACK
6
CONTINUOUS
10
4.99407
20
-2.53722
11
4.99348
21
-2.53673
0
LINE
8
BLACK
6
CONTINUOUS
10
4.99348
20
-2.53673
11
4.99281
21
-2.53635
0
LINE
8
BLACK
6
CONTINUOUS
10
4.99281
20
-2.53635
11
4.99272
21
-2.5361
0
LINE
8
BLACK
6
CONTINUOUS
10
4.99272
20
-2.5361
11
4.99252
21
-2.53592
0
LINE
8
BLACK
6
CONTINUOUS
10
4.99252
20
-2.53592
11
4.99239
21
-2.53517
0
LINE
8
BLACK
6
CONTINUOUS
10
4.99239
20
-2.53517
11
4.99212
21
-2.53445
0
LINE
8
BLACK
6
CONTINUOUS
10
4.99212
20
-2.53445
11
4.99212
21
-2.49508
0
LINE
8
BLACK
6
CONTINUOUS
10
4.99212
20
-2.49508
11
4.9923
21
-2.49407
0
LINE
8
BLACK
6
CONTINUOUS
10
4.9923
20
-2.49407
11
4.9936
21
-2.49252
0
LINE
8
BLACK
6
CONTINUOUS
10
4.9936
20
-2.49252
11
4.99559
21
-2.49217
0
LINE
8
BLACK
6
CONTINUOUS
10
4.99559
20
-2.49217
11
4.99734
21
-2.49318
0
LINE
8
BLACK
6
CONTINUOUS
10
5.54852
20
-2.49318
11
5.54921
21
-2.49508
0
LINE
8
BLACK
6
CONTINUOUS
10
5.54921
20
-2.49508
11
5.54921
21
-2.53445
0
LINE
8
BLACK
6
CONTINUOUS
10
5.54921
20
-2.53445
11
5.54914
21
-2.53483
0
LINE
8
BLACK
6
CONTINUOUS
10
5.54914
20
-2.53483
11
5.54917
21
-2.53496
0
LINE
8
BLACK
6
CONTINUOUS
10
5.54917
20
-2.53496
11
5.5491
21
-2.53507
0
LINE
8
BLACK
6
CONTINUOUS
10
5.5491
20
-2.53507
11
5.54903
21
-2.53546
0
LINE
8
BLACK
6
CONTINUOUS
10
5.54903
20
-2.53546
11
5.54854
21
-2.53605
0
LINE
8
BLACK
6
CONTINUOUS
10
5.54854
20
-2.53605
11
5.54816
21
-2.53671
0
LINE
8
BLACK
6
CONTINUOUS
10
5.54816
20
-2.53671
11
5.54791
21
-2.5368
0
LINE
8
BLACK
6
CONTINUOUS
10
5.54791
20
-2.5368
11
5.54773
21
-2.537
0
LINE
8
BLACK
6
CONTINUOUS
10
5.54773
20
-2.537
11
5.54698
21
-2.53714
0
LINE
8
BLACK
6
CONTINUOUS
10
5.54698
20
-2.53714
11
5.54626
21
-2.5374
0
LINE
8
BLACK
6
CONTINUOUS
10
5.54626
20
-2.5374
11
5.50689
21
-2.5374
0
LINE
8
BLACK
6
CONTINUOUS
10
5.50689
20
-2.5374
11
5.50588
21
-2.53722
0
LINE
8
BLACK
6
CONTINUOUS
10
5.50588
20
-2.53722
11
5.50433
21
-2.53592
0
LINE
8
BLACK
6
CONTINUOUS
10
5.50433
20
-2.53592
11
5.50398
21
-2.53394
0
LINE
8
BLACK
6
CONTINUOUS
10
5.50398
20
-2.53394
11
5.50499
21
-2.53219
0
LINE
8
BLACK
6
CONTINUOUS
10
5.50499
20
-2.53219
11
5.50689
21
-2.5315
0
LINE
8
BLACK
6
CONTINUOUS
10
5.50689
20
-2.5315
11
5.5433
21
-2.5315
0
LINE
8
BLACK
6
CONTINUOUS
10
5.5433
20
-2.5315
11
5.5433
21
-2.49508
0
LINE
8
BLACK
6
CONTINUOUS
10
5.5433
20
-2.49508
11
5.54348
21
-2.49407
0
LINE
8
BLACK
6
CONTINUOUS
10
5.54348
20
-2.49407
11
5.54478
21
-2.49252
0
LINE
8
BLACK
6
CONTINUOUS
10
5.54478
20
-2.49252
11
5.54677
21
-2.49217
0
LINE
8
BLACK
6
CONTINUOUS
10
5.54677
20
-2.49217
11
5.54852
21
-2.49318
0
LINE
8
BLACK
6
CONTINUOUS
10
3.54065
20
-2.49318
11
3.54134
21
-2.49508
0
LINE
8
BLACK
6
CONTINUOUS
10
3.54134
20
-2.49508
11
3.54134
21
-2.53445
0
LINE
8
BLACK
6
CONTINUOUS
10
3.54134
20
-2.53445
11
3.54127
21
-2.53483
0
LINE
8
BLACK
6
CONTINUOUS
10
3.54127
20
-2.53483
11
3.54129
21
-2.53496
0
LINE
8
BLACK
6
CONTINUOUS
10
3.54129
20
-2.53496
11
3.54123
21
-2.53507
0
LINE
8
BLACK
6
CONTINUOUS
10
3.54123
20
-2.53507
11
3.54116
21
-2.53546
0
LINE
8
BLACK
6
CONTINUOUS
10
3.54116
20
-2.53546
11
3.54067
21
-2.53605
0
LINE
8
BLACK
6
CONTINUOUS
10
3.54067
20
-2.53605
11
3.54028
21
-2.53671
0
LINE
8
BLACK
6
CONTINUOUS
10
3.54028
20
-2.53671
11
3.54003
21
-2.5368
0
LINE
8
BLACK
6
CONTINUOUS
10
3.54003
20
-2.5368
11
3.53986
21
-2.537
0
LINE
8
BLACK
6
CONTINUOUS
10
3.53986
20
-2.537
11
3.53911
21
-2.53714
0
LINE
8
BLACK
6
CONTINUOUS
10
3.53911
20
-2.53714
11
3.53838
21
-2.5374
0
LINE
8
BLACK
6
CONTINUOUS
10
3.53838
20
-2.5374
11
3.49901
21
-2.5374
0
LINE
8
BLACK
6
CONTINUOUS
10
3.49901
20
-2.5374
11
3.498
21
-2.53722
0
LINE
8
BLACK
6
CONTINUOUS
10
3.498
20
-2.53722
11
3.49646
21
-2.53592
0
LINE
8
BLACK
6
CONTINUOUS
10
3.49646
20
-2.53592
11
3.49611
21
-2.53394
0
LINE
8
BLACK
6
CONTINUOUS
10
3.49611
20
-2.53394
11
3.49712
21
-2.53219
0
LINE
8
BLACK
6
CONTINUOUS
10
3.49712
20
-2.53219
11
3.49901
21
-2.5315
0
LINE
8
BLACK
6
CONTINUOUS
10
3.49901
20
-2.5315
11
3.53543
21
-2.5315
0
LINE
8
BLACK
6
CONTINUOUS
10
3.53543
20
-2.5315
11
3.53543
21
-2.49508
0
LINE
8
BLACK
6
CONTINUOUS
10
3.53543
20
-2.49508
11
3.53561
21
-2.49407
0
LINE
8
BLACK
6
CONTINUOUS
10
3.53561
20
-2.49407
11
3.53691
21
-2.49252
0
LINE
8
BLACK
6
CONTINUOUS
10
3.53691
20
-2.49252
11
3.5389
21
-2.49217
0
LINE
8
BLACK
6
CONTINUOUS
10
3.5389
20
-2.49217
11
3.54065
21
-2.49318
0
LINE
8
BLACK
6
CONTINUOUS
10
4.20994
20
-2.49318
11
4.21063
21
-2.49508
0
LINE
8
BLACK
6
CONTINUOUS
10
4.21063
20
-2.49508
11
4.21063
21
-2.53445
0
LINE
8
BLACK
6
CONTINUOUS
10
4.21063
20
-2.53445
11
4.21056
21
-2.53483
0
LINE
8
BLACK
6
CONTINUOUS
10
4.21056
20
-2.53483
11
4.21058
21
-2.53496
0
LINE
8
BLACK
6
CONTINUOUS
10
4.21058
20
-2.53496
11
4.21052
21
-2.53507
0
LINE
8
BLACK
6
CONTINUOUS
10
4.21052
20
-2.53507
11
4.21045
21
-2.53546
0
LINE
8
BLACK
6
CONTINUOUS
10
4.21045
20
-2.53546
11
4.20996
21
-2.53605
0
LINE
8
BLACK
6
CONTINUOUS
10
4.20996
20
-2.53605
11
4.20957
21
-2.53671
0
LINE
8
BLACK
6
CONTINUOUS
10
4.20957
20
-2.53671
11
4.20932
21
-2.5368
0
LINE
8
BLACK
6
CONTINUOUS
10
4.20932
20
-2.5368
11
4.20915
21
-2.537
0
LINE
8
BLACK
6
CONTINUOUS
10
4.20915
20
-2.537
11
4.2084
21
-2.53714
0
LINE
8
BLACK
6
CONTINUOUS
10
4.2084
20
-2.53714
11
4.20768
21
-2.5374
0
LINE
8
BLACK
6
CONTINUOUS
10
4.20768
20
-2.5374
11
4.16831
21
-2.5374
0
LINE
8
BLACK
6
CONTINUOUS
10
4.16831
20
-2.5374
11
4.1673
21
-2.53722
0
LINE
8
BLACK
6
CONTINUOUS
10
4.1673
20
-2.53722
11
4.16575
21
-2.53592
0
LINE
8
BLACK
6
CONTINUOUS
10
4.16575
20
-2.53592
11
4.1654
21
-2.53394
0
LINE
8
BLACK
6
CONTINUOUS
10
4.1654
20
-2.53394
11
4.16641
21
-2.53219
0
LINE
8
BLACK
6
CONTINUOUS
10
4.16641
20
-2.53219
11
4.16831
21
-2.5315
0
LINE
8
BLACK
6
CONTINUOUS
10
4.16831
20
-2.5315
11
4.20472
21
-2.5315
0
LINE
8
BLACK
6
CONTINUOUS
10
4.20472
20
-2.5315
11
4.20472
21
-2.49508
0
LINE
8
BLACK
6
CONTINUOUS
10
4.20472
20
-2.49508
11
4.2049
21
-2.49407
0
LINE
8
BLACK
6
CONTINUOUS
10
4.2049
20
-2.49407
11
4.2062
21
-2.49252
0
LINE
8
BLACK
6
CONTINUOUS
10
4.2062
20
-2.49252
11
4.20819
21
-2.49217
0
LINE
8
BLACK
6
CONTINUOUS
10
4.20819
20
-2.49217
11
4.20994
21
-2.49318
0
LINE
8
BLACK
6
CONTINUOUS
10
2.98947
20
-2.49318
11
2.99016
21
-2.49508
0
LINE
8
BLACK
6
CONTINUOUS
10
2.99016
20
-2.49508
11
2.99016
21
-2.5315
0
LINE
8
BLACK
6
CONTINUOUS
10
2.99016
20
-2.5315
11
3.02657
21
-2.5315
0
LINE
8
BLACK
6
CONTINUOUS
10
3.02657
20
-2.5315
11
3.02758
21
-2.53167
0
LINE
8
BLACK
6
CONTINUOUS
10
3.02758
20
-2.53167
11
3.02913
21
-2.53297
0
LINE
8
BLACK
6
CONTINUOUS
10
3.02913
20
-2.53297
11
3.02948
21
-2.53496
0
LINE
8
BLACK
6
CONTINUOUS
10
3.02948
20
-2.53496
11
3.02847
21
-2.53671
0
LINE
8
BLACK
6
CONTINUOUS
10
3.02847
20
-2.53671
11
3.02657
21
-2.5374
0
LINE
8
BLACK
6
CONTINUOUS
10
3.02657
20
-2.5374
11
2.9872
21
-2.5374
0
LINE
8
BLACK
6
CONTINUOUS
10
2.9872
20
-2.5374
11
2.98682
21
-2.53733
0
LINE
8
BLACK
6
CONTINUOUS
10
2.98682
20
-2.53733
11
2.98669
21
-2.53736
0
LINE
8
BLACK
6
CONTINUOUS
10
2.98669
20
-2.53736
11
2.98658
21
-2.53729
0
LINE
8
BLACK
6
CONTINUOUS
10
2.98658
20
-2.53729
11
2.98619
21
-2.53722
0
LINE
8
BLACK
6
CONTINUOUS
10
2.98619
20
-2.53722
11
2.98561
21
-2.53673
0
LINE
8
BLACK
6
CONTINUOUS
10
2.98561
20
-2.53673
11
2.98494
21
-2.53635
0
LINE
8
BLACK
6
CONTINUOUS
10
2.98494
20
-2.53635
11
2.98485
21
-2.5361
0
LINE
8
BLACK
6
CONTINUOUS
10
2.98485
20
-2.5361
11
2.98465
21
-2.53592
0
LINE
8
BLACK
6
CONTINUOUS
10
2.98465
20
-2.53592
11
2.98451
21
-2.53517
0
LINE
8
BLACK
6
CONTINUOUS
10
2.98451
20
-2.53517
11
2.98425
21
-2.53445
0
LINE
8
BLACK
6
CONTINUOUS
10
2.98425
20
-2.53445
11
2.98425
21
-2.49508
0
LINE
8
BLACK
6
CONTINUOUS
10
2.98425
20
-2.49508
11
2.98443
21
-2.49407
0
LINE
8
BLACK
6
CONTINUOUS
10
2.98443
20
-2.49407
11
2.98573
21
-2.49252
0
LINE
8
BLACK
6
CONTINUOUS
10
2.98573
20
-2.49252
11
2.98772
21
-2.49217
0
LINE
8
BLACK
6
CONTINUOUS
10
2.98772
20
-2.49217
11
2.98947
21
-2.49318
0
LINE
8
BLACK
6
CONTINUOUS
10
3.65876
20
-2.49318
11
3.65945
21
-2.49508
0
LINE
8
BLACK
6
CONTINUOUS
10
3.65945
20
-2.49508
11
3.65945
21
-2.5315
0
LINE
8
BLACK
6
CONTINUOUS
10
3.65945
20
-2.5315
11
3.69586
21
-2.5315
0
LINE
8
BLACK
6
CONTINUOUS
10
3.69586
20
-2.5315
11
3.69687
21
-2.53167
0
LINE
8
BLACK
6
CONTINUOUS
10
3.69687
20
-2.53167
11
3.69842
21
-2.53297
0
LINE
8
BLACK
6
CONTINUOUS
10
3.69842
20
-2.53297
11
3.69877
21
-2.53496
0
LINE
8
BLACK
6
CONTINUOUS
10
3.69877
20
-2.53496
11
3.69776
21
-2.53671
0
LINE
8
BLACK
6
CONTINUOUS
10
3.69776
20
-2.53671
11
3.69586
21
-2.5374
0
LINE
8
BLACK
6
CONTINUOUS
10
3.69586
20
-2.5374
11
3.65649
21
-2.5374
0
LINE
8
BLACK
6
CONTINUOUS
10
3.65649
20
-2.5374
11
3.65611
21
-2.53733
0
LINE
8
BLACK
6
CONTINUOUS
10
3.65611
20
-2.53733
11
3.65598
21
-2.53736
0
LINE
8
BLACK
6
CONTINUOUS
10
3.65598
20
-2.53736
11
3.65587
21
-2.53729
0
LINE
8
BLACK
6
CONTINUOUS
10
3.65587
20
-2.53729
11
3.65548
21
-2.53722
0
LINE
8
BLACK
6
CONTINUOUS
10
3.65548
20
-2.53722
11
3.6549
21
-2.53673
0
LINE
8
BLACK
6
CONTINUOUS
10
3.6549
20
-2.53673
11
3.65423
21
-2.53635
0
LINE
8
BLACK
6
CONTINUOUS
10
3.65423
20
-2.53635
11
3.65414
21
-2.5361
0
LINE
8
BLACK
6
CONTINUOUS
10
3.65414
20
-2.5361
11
3.65394
21
-2.53592
0
LINE
8
BLACK
6
CONTINUOUS
10
3.65394
20
-2.53592
11
3.6538
21
-2.53517
0
LINE
8
BLACK
6
CONTINUOUS
10
3.6538
20
-2.53517
11
3.65354
21
-2.53445
0
LINE
8
BLACK
6
CONTINUOUS
10
3.65354
20
-2.53445
11
3.65354
21
-2.49508
0
LINE
8
BLACK
6
CONTINUOUS
10
3.65354
20
-2.49508
11
3.65372
21
-2.49407
0
LINE
8
BLACK
6
CONTINUOUS
10
3.65372
20
-2.49407
11
3.65502
21
-2.49252
0
LINE
8
BLACK
6
CONTINUOUS
10
3.65502
20
-2.49252
11
3.65701
21
-2.49217
0
LINE
8
BLACK
6
CONTINUOUS
10
3.65701
20
-2.49217
11
3.65876
21
-2.49318
0
LINE
8
BLACK
6
CONTINUOUS
10
4.87923
20
-2.49318
11
4.87992
21
-2.49508
0
LINE
8
BLACK
6
CONTINUOUS
10
4.87992
20
-2.49508
11
4.87992
21
-2.53445
0
LINE
8
BLACK
6
CONTINUOUS
10
4.87992
20
-2.53445
11
4.87985
21
-2.53483
0
LINE
8
BLACK
6
CONTINUOUS
10
4.87985
20
-2.53483
11
4.87987
21
-2.53496
0
LINE
8
BLACK
6
CONTINUOUS
10
4.87987
20
-2.53496
11
4.87981
21
-2.53507
0
LINE
8
BLACK
6
CONTINUOUS
10
4.87981
20
-2.53507
11
4.87974
21
-2.53546
0
LINE
8
BLACK
6
CONTINUOUS
10
4.87974
20
-2.53546
11
4.87925
21
-2.53605
0
LINE
8
BLACK
6
CONTINUOUS
10
4.87925
20
-2.53605
11
4.87886
21
-2.53671
0
LINE
8
BLACK
6
CONTINUOUS
10
4.87886
20
-2.53671
11
4.87861
21
-2.5368
0
LINE
8
BLACK
6
CONTINUOUS
10
4.87861
20
-2.5368
11
4.87844
21
-2.537
0
LINE
8
BLACK
6
CONTINUOUS
10
4.87844
20
-2.537
11
4.87769
21
-2.53714
0
LINE
8
BLACK
6
CONTINUOUS
10
4.87769
20
-2.53714
11
4.87697
21
-2.5374
0
LINE
8
BLACK
6
CONTINUOUS
10
4.87697
20
-2.5374
11
4.8376
21
-2.5374
0
LINE
8
BLACK
6
CONTINUOUS
10
4.8376
20
-2.5374
11
4.83659
21
-2.53722
0
LINE
8
BLACK
6
CONTINUOUS
10
4.83659
20
-2.53722
11
4.83504
21
-2.53592
0
LINE
8
BLACK
6
CONTINUOUS
10
4.83504
20
-2.53592
11
4.83469
21
-2.53394
0
LINE
8
BLACK
6
CONTINUOUS
10
4.83469
20
-2.53394
11
4.8357
21
-2.53219
0
LINE
8
BLACK
6
CONTINUOUS
10
4.8357
20
-2.53219
11
4.8376
21
-2.5315
0
LINE
8
BLACK
6
CONTINUOUS
10
4.8376
20
-2.5315
11
4.87401
21
-2.5315
0
LINE
8
BLACK
6
CONTINUOUS
10
4.87401
20
-2.5315
11
4.87401
21
-2.49508
0
LINE
8
BLACK
6
CONTINUOUS
10
4.87401
20
-2.49508
11
4.87419
21
-2.49407
0
LINE
8
BLACK
6
CONTINUOUS
10
4.87419
20
-2.49407
11
4.87549
21
-2.49252
0
LINE
8
BLACK
6
CONTINUOUS
10
4.87549
20
-2.49252
11
4.87748
21
-2.49217
0
LINE
8
BLACK
6
CONTINUOUS
10
4.87748
20
-2.49217
11
4.87923
21
-2.49318
0
LINE
8
BLACK
6
CONTINUOUS
10
4.32805
20
-2.49318
11
4.32874
21
-2.49508
0
LINE
8
BLACK
6
CONTINUOUS
10
4.32874
20
-2.49508
11
4.32874
21
-2.5315
0
LINE
8
BLACK
6
CONTINUOUS
10
4.32874
20
-2.5315
11
4.36516
21
-2.5315
0
LINE
8
BLACK
6
CONTINUOUS
10
4.36516
20
-2.5315
11
4.36617
21
-2.53167
0
LINE
8
BLACK
6
CONTINUOUS
10
4.36617
20
-2.53167
11
4.36771
21
-2.53297
0
LINE
8
BLACK
6
CONTINUOUS
10
4.36771
20
-2.53297
11
4.36806
21
-2.53496
0
LINE
8
BLACK
6
CONTINUOUS
10
4.36806
20
-2.53496
11
4.36705
21
-2.53671
0
LINE
8
BLACK
6
CONTINUOUS
10
4.36705
20
-2.53671
11
4.36516
21
-2.5374
0
LINE
8
BLACK
6
CONTINUOUS
10
4.36516
20
-2.5374
11
4.32579
21
-2.5374
0
LINE
8
BLACK
6
CONTINUOUS
10
4.32579
20
-2.5374
11
4.3254
21
-2.53733
0
LINE
8
BLACK
6
CONTINUOUS
10
4.3254
20
-2.53733
11
4.32527
21
-2.53736
0
LINE
8
BLACK
6
CONTINUOUS
10
4.32527
20
-2.53736
11
4.32516
21
-2.53729
0
LINE
8
BLACK
6
CONTINUOUS
10
4.32516
20
-2.53729
11
4.32478
21
-2.53722
0
LINE
8
BLACK
6
CONTINUOUS
10
4.32478
20
-2.53722
11
4.32419
21
-2.53673
0
LINE
8
BLACK
6
CONTINUOUS
10
4.32419
20
-2.53673
11
4.32352
21
-2.53635
0
LINE
8
BLACK
6
CONTINUOUS
10
4.32352
20
-2.53635
11
4.32343
21
-2.5361
0
LINE
8
BLACK
6
CONTINUOUS
10
4.32343
20
-2.5361
11
4.32323
21
-2.53592
0
LINE
8
BLACK
6
CONTINUOUS
10
4.32323
20
-2.53592
11
4.32309
21
-2.53517
0
LINE
8
BLACK
6
CONTINUOUS
10
4.32309
20
-2.53517
11
4.32283
21
-2.53445
0
LINE
8
BLACK
6
CONTINUOUS
10
4.32283
20
-2.53445
11
4.32283
21
-2.49508
0
LINE
8
BLACK
6
CONTINUOUS
10
4.32283
20
-2.49508
11
4.32301
21
-2.49407
0
LINE
8
BLACK
6
CONTINUOUS
10
4.32301
20
-2.49407
11
4.32431
21
-2.49252
0
LINE
8
BLACK
6
CONTINUOUS
10
4.32431
20
-2.49252
11
4.3263
21
-2.49217
0
LINE
8
BLACK
6
CONTINUOUS
10
4.3263
20
-2.49217
11
4.32805
21
-2.49318
0
LINE
8
BLACK
6
CONTINUOUS
10
4.87735
20
-1.98038
11
4.87748
21
-1.98036
0
LINE
8
BLACK
6
CONTINUOUS
10
4.87748
20
-1.98036
11
4.87759
21
-1.98042
0
LINE
8
BLACK
6
CONTINUOUS
10
4.87759
20
-1.98042
11
4.87798
21
-1.98049
0
LINE
8
BLACK
6
CONTINUOUS
10
4.87798
20
-1.98049
11
4.87856
21
-1.98099
0
LINE
8
BLACK
6
CONTINUOUS
10
4.87856
20
-1.98099
11
4.87923
21
-1.98137
0
LINE
8
BLACK
6
CONTINUOUS
10
4.87923
20
-1.98137
11
4.87932
21
-1.98162
0
LINE
8
BLACK
6
CONTINUOUS
10
4.87932
20
-1.98162
11
4.87952
21
-1.98179
0
LINE
8
BLACK
6
CONTINUOUS
10
4.87952
20
-1.98179
11
4.87966
21
-1.98255
0
LINE
8
BLACK
6
CONTINUOUS
10
4.87966
20
-1.98255
11
4.87992
21
-1.98327
0
LINE
8
BLACK
6
CONTINUOUS
10
4.87992
20
-1.98327
11
4.87992
21
-2.02264
0
LINE
8
BLACK
6
CONTINUOUS
10
4.87992
20
-2.02264
11
4.87974
21
-2.02365
0
LINE
8
BLACK
6
CONTINUOUS
10
4.87974
20
-2.02365
11
4.87844
21
-2.02519
0
LINE
8
BLACK
6
CONTINUOUS
10
4.87844
20
-2.02519
11
4.87645
21
-2.02554
0
LINE
8
BLACK
6
CONTINUOUS
10
4.87645
20
-2.02554
11
4.8747
21
-2.02453
0
LINE
8
BLACK
6
CONTINUOUS
10
4.8747
20
-2.02453
11
4.87401
21
-2.02264
0
LINE
8
BLACK
6
CONTINUOUS
10
4.87401
20
-2.02264
11
4.87401
21
-1.98622
0
LINE
8
BLACK
6
CONTINUOUS
10
4.87401
20
-1.98622
11
4.8376
21
-1.98622
0
LINE
8
BLACK
6
CONTINUOUS
10
4.8376
20
-1.98622
11
4.83659
21
-1.98604
0
LINE
8
BLACK
6
CONTINUOUS
10
4.83659
20
-1.98604
11
4.83504
21
-1.98474
0
LINE
8
BLACK
6
CONTINUOUS
10
4.83504
20
-1.98474
11
4.83469
21
-1.98275
0
LINE
8
BLACK
6
CONTINUOUS
10
4.83469
20
-1.98275
11
4.8357
21
-1.981
0
LINE
8
BLACK
6
CONTINUOUS
10
4.8357
20
-1.981
11
4.8376
21
-1.98031
0
LINE
8
BLACK
6
CONTINUOUS
10
4.8376
20
-1.98031
11
4.87697
21
-1.98031
0
LINE
8
BLACK
6
CONTINUOUS
10
4.87697
20
-1.98031
11
4.87735
21
-1.98038
0
LINE
8
BLACK
6
CONTINUOUS
10
3.53877
20
-1.98038
11
3.5389
21
-1.98036
0
LINE
8
BLACK
6
CONTINUOUS
10
3.5389
20
-1.98036
11
3.53901
21
-1.98042
0
LINE
8
BLACK
6
CONTINUOUS
10
3.53901
20
-1.98042
11
3.53939
21
-1.98049
0
LINE
8
BLACK
6
CONTINUOUS
10
3.53939
20
-1.98049
11
3.53998
21
-1.98099
0
LINE
8
BLACK
6
CONTINUOUS
10
3.53998
20
-1.98099
11
3.54065
21
-1.98137
0
LINE
8
BLACK
6
CONTINUOUS
10
3.54065
20
-1.98137
11
3.54074
21
-1.98162
0
LINE
8
BLACK
6
CONTINUOUS
10
3.54074
20
-1.98162
11
3.54094
21
-1.98179
0
LINE
8
BLACK
6
CONTINUOUS
10
3.54094
20
-1.98179
11
3.54107
21
-1.98255
0
LINE
8
BLACK
6
CONTINUOUS
10
3.54107
20
-1.98255
11
3.54134
21
-1.98327
0
LINE
8
BLACK
6
CONTINUOUS
10
3.54134
20
-1.98327
11
3.54134
21
-2.02264
0
LINE
8
BLACK
6
CONTINUOUS
10
3.54134
20
-2.02264
11
3.54116
21
-2.02365
0
LINE
8
BLACK
6
CONTINUOUS
10
3.54116
20
-2.02365
11
3.53986
21
-2.02519
0
LINE
8
BLACK
6
CONTINUOUS
10
3.53986
20
-2.02519
11
3.53787
21
-2.02554
0
LINE
8
BLACK
6
CONTINUOUS
10
3.53787
20
-2.02554
11
3.53612
21
-2.02453
0
LINE
8
BLACK
6
CONTINUOUS
10
3.53612
20
-2.02453
11
3.53543
21
-2.02264
0
LINE
8
BLACK
6
CONTINUOUS
10
3.53543
20
-2.02264
11
3.53543
21
-1.98622
0
LINE
8
BLACK
6
CONTINUOUS
10
3.53543
20
-1.98622
11
3.49901
21
-1.98622
0
LINE
8
BLACK
6
CONTINUOUS
10
3.49901
20
-1.98622
11
3.498
21
-1.98604
0
LINE
8
BLACK
6
CONTINUOUS
10
3.498
20
-1.98604
11
3.49646
21
-1.98474
0
LINE
8
BLACK
6
CONTINUOUS
10
3.49646
20
-1.98474
11
3.49611
21
-1.98275
0
LINE
8
BLACK
6
CONTINUOUS
10
3.49611
20
-1.98275
11
3.49712
21
-1.981
0
LINE
8
BLACK
6
CONTINUOUS
10
3.49712
20
-1.981
11
3.49901
21
-1.98031
0
LINE
8
BLACK
6
CONTINUOUS
10
3.49901
20
-1.98031
11
3.53838
21
-1.98031
0
LINE
8
BLACK
6
CONTINUOUS
10
3.53838
20
-1.98031
11
3.53877
21
-1.98038
0
LINE
8
BLACK
6
CONTINUOUS
10
5.03546
20
-1.98049
11
5.037
21
-1.98179
0
LINE
8
BLACK
6
CONTINUOUS
10
5.037
20
-1.98179
11
5.03735
21
-1.98378
0
LINE
8
BLACK
6
CONTINUOUS
10
5.03735
20
-1.98378
11
5.03634
21
-1.98553
0
LINE
8
BLACK
6
CONTINUOUS
10
5.03634
20
-1.98553
11
5.03445
21
-1.98622
0
LINE
8
BLACK
6
CONTINUOUS
10
5.03445
20
-1.98622
11
4.99803
21
-1.98622
0
LINE
8
BLACK
6
CONTINUOUS
10
4.99803
20
-1.98622
11
4.99803
21
-2.02264
0
LINE
8
BLACK
6
CONTINUOUS
10
4.99803
20
-2.02264
11
4.99785
21
-2.02365
0
LINE
8
BLACK
6
CONTINUOUS
10
4.99785
20
-2.02365
11
4.99655
21
-2.02519
0
LINE
8
BLACK
6
CONTINUOUS
10
4.99655
20
-2.02519
11
4.99456
21
-2.02554
0
LINE
8
BLACK
6
CONTINUOUS
10
4.99456
20
-2.02554
11
4.99281
21
-2.02453
0
LINE
8
BLACK
6
CONTINUOUS
10
4.99281
20
-2.02453
11
4.99212
21
-2.02264
0
LINE
8
BLACK
6
CONTINUOUS
10
4.99212
20
-2.02264
11
4.99212
21
-1.98327
0
LINE
8
BLACK
6
CONTINUOUS
10
4.99212
20
-1.98327
11
4.99219
21
-1.98288
0
LINE
8
BLACK
6
CONTINUOUS
10
4.99219
20
-1.98288
11
4.99217
21
-1.98275
0
LINE
8
BLACK
6
CONTINUOUS
10
4.99217
20
-1.98275
11
4.99223
21
-1.98264
0
LINE
8
BLACK
6
CONTINUOUS
10
4.99223
20
-1.98264
11
4.9923
21
-1.98226
0
LINE
8
BLACK
6
CONTINUOUS
10
4.9923
20
-1.98226
11
4.99279
21
-1.98167
0
LINE
8
BLACK
6
CONTINUOUS
10
4.99279
20
-1.98167
11
4.99318
21
-1.981
0
LINE
8
BLACK
6
CONTINUOUS
10
4.99318
20
-1.981
11
4.99343
21
-1.98091
0
LINE
8
BLACK
6
CONTINUOUS
10
4.99343
20
-1.98091
11
4.9936
21
-1.98071
0
LINE
8
BLACK
6
CONTINUOUS
10
4.9936
20
-1.98071
11
4.99436
21
-1.98058
0
LINE
8
BLACK
6
CONTINUOUS
10
4.99436
20
-1.98058
11
4.99508
21
-1.98031
0
LINE
8
BLACK
6
CONTINUOUS
10
4.99508
20
-1.98031
11
5.03445
21
-1.98031
0
LINE
8
BLACK
6
CONTINUOUS
10
5.03445
20
-1.98031
11
5.03546
21
-1.98049
0
LINE
8
BLACK
6
CONTINUOUS
10
5.54664
20
-1.98038
11
5.54677
21
-1.98036
0
LINE
8
BLACK
6
CONTINUOUS
10
5.54677
20
-1.98036
11
5.54688
21
-1.98042
0
LINE
8
BLACK
6
CONTINUOUS
10
5.54688
20
-1.98042
11
5.54727
21
-1.98049
0
LINE
8
BLACK
6
CONTINUOUS
10
5.54727
20
-1.98049
11
5.54785
21
-1.98099
0
LINE
8
BLACK
6
CONTINUOUS
10
5.54785
20
-1.98099
11
5.54852
21
-1.98137
0
LINE
8
BLACK
6
CONTINUOUS
10
5.54852
20
-1.98137
11
5.54861
21
-1.98162
0
LINE
8
BLACK
6
CONTINUOUS
10
5.54861
20
-1.98162
11
5.54881
21
-1.98179
0
LINE
8
BLACK
6
CONTINUOUS
10
5.54881
20
-1.98179
11
5.54895
21
-1.98255
0
LINE
8
BLACK
6
CONTINUOUS
10
5.54895
20
-1.98255
11
5.54921
21
-1.98327
0
LINE
8
BLACK
6
CONTINUOUS
10
5.54921
20
-1.98327
11
5.54921
21
-2.02264
0
LINE
8
BLACK
6
CONTINUOUS
10
5.54921
20
-2.02264
11
5.54903
21
-2.02365
0
LINE
8
BLACK
6
CONTINUOUS
10
5.54903
20
-2.02365
11
5.54773
21
-2.02519
0
LINE
8
BLACK
6
CONTINUOUS
10
5.54773
20
-2.02519
11
5.54574
21
-2.02554
0
LINE
8
BLACK
6
CONTINUOUS
10
5.54574
20
-2.02554
11
5.544
21
-2.02453
0
LINE
8
BLACK
6
CONTINUOUS
10
5.544
20
-2.02453
11
5.5433
21
-2.02264
0
LINE
8
BLACK
6
CONTINUOUS
10
5.5433
20
-2.02264
11
5.5433
21
-1.98622
0
LINE
8
BLACK
6
CONTINUOUS
10
5.5433
20
-1.98622
11
5.50689
21
-1.98622
0
LINE
8
BLACK
6
CONTINUOUS
10
5.50689
20
-1.98622
11
5.50588
21
-1.98604
0
LINE
8
BLACK
6
CONTINUOUS
10
5.50588
20
-1.98604
11
5.50433
21
-1.98474
0
LINE
8
BLACK
6
CONTINUOUS
10
5.50433
20
-1.98474
11
5.50398
21
-1.98275
0
LINE
8
BLACK
6
CONTINUOUS
10
5.50398
20
-1.98275
11
5.50499
21
-1.981
0
LINE
8
BLACK
6
CONTINUOUS
10
5.50499
20
-1.981
11
5.50689
21
-1.98031
0
LINE
8
BLACK
6
CONTINUOUS
10
5.50689
20
-1.98031
11
5.54626
21
-1.98031
0
LINE
8
BLACK
6
CONTINUOUS
10
5.54626
20
-1.98031
11
5.54664
21
-1.98038
0
LINE
8
BLACK
6
CONTINUOUS
10
4.20806
20
-1.98038
11
4.20819
21
-1.98036
0
LINE
8
BLACK
6
CONTINUOUS
10
4.20819
20
-1.98036
11
4.2083
21
-1.98042
0
LINE
8
BLACK
6
CONTINUOUS
10
4.2083
20
-1.98042
11
4.20869
21
-1.98049
0
LINE
8
BLACK
6
CONTINUOUS
10
4.20869
20
-1.98049
11
4.20927
21
-1.98099
0
LINE
8
BLACK
6
CONTINUOUS
10
4.20927
20
-1.98099
11
4.20994
21
-1.98137
0
LINE
8
BLACK
6
CONTINUOUS
10
4.20994
20
-1.98137
11
4.21003
21
-1.98162
0
LINE
8
BLACK
6
CONTINUOUS
10
4.21003
20
-1.98162
11
4.21023
21
-1.98179
0
LINE
8
BLACK
6
CONTINUOUS
10
4.21023
20
-1.98179
11
4.21037
21
-1.98255
0
LINE
8
BLACK
6
CONTINUOUS
10
4.21037
20
-1.98255
11
4.21063
21
-1.98327
0
LINE
8
BLACK
6
CONTINUOUS
10
4.21063
20
-1.98327
11
4.21063
21
-2.02264
0
LINE
8
BLACK
6
CONTINUOUS
10
4.21063
20
-2.02264
11
4.21045
21
-2.02365
0
LINE
8
BLACK
6
CONTINUOUS
10
4.21045
20
-2.02365
11
4.20915
21
-2.02519
0
LINE
8
BLACK
6
CONTINUOUS
10
4.20915
20
-2.02519
11
4.20716
21
-2.02554
0
LINE
8
BLACK
6
CONTINUOUS
10
4.20716
20
-2.02554
11
4.20541
21
-2.02453
0
LINE
8
BLACK
6
CONTINUOUS
10
4.20541
20
-2.02453
11
4.20472
21
-2.02264
0
LINE
8
BLACK
6
CONTINUOUS
10
4.20472
20
-2.02264
11
4.20472
21
-1.98622
0
LINE
8
BLACK
6
CONTINUOUS
10
4.20472
20
-1.98622
11
4.16831
21
-1.98622
0
LINE
8
BLACK
6
CONTINUOUS
10
4.16831
20
-1.98622
11
4.1673
21
-1.98604
0
LINE
8
BLACK
6
CONTINUOUS
10
4.1673
20
-1.98604
11
4.16575
21
-1.98474
0
LINE
8
BLACK
6
CONTINUOUS
10
4.16575
20
-1.98474
11
4.1654
21
-1.98275
0
LINE
8
BLACK
6
CONTINUOUS
10
4.1654
20
-1.98275
11
4.16641
21
-1.981
0
LINE
8
BLACK
6
CONTINUOUS
10
4.16641
20
-1.981
11
4.16831
21
-1.98031
0
LINE
8
BLACK
6
CONTINUOUS
10
4.16831
20
-1.98031
11
4.20768
21
-1.98031
0
LINE
8
BLACK
6
CONTINUOUS
10
4.20768
20
-1.98031
11
4.20806
21
-1.98038
0
LINE
8
BLACK
6
CONTINUOUS
10
4.36617
20
-1.98049
11
4.36771
21
-1.98179
0
LINE
8
BLACK
6
CONTINUOUS
10
4.36771
20
-1.98179
11
4.36806
21
-1.98378
0
LINE
8
BLACK
6
CONTINUOUS
10
4.36806
20
-1.98378
11
4.36705
21
-1.98553
0
LINE
8
BLACK
6
CONTINUOUS
10
4.36705
20
-1.98553
11
4.36516
21
-1.98622
0
LINE
8
BLACK
6
CONTINUOUS
10
4.36516
20
-1.98622
11
4.32874
21
-1.98622
0
LINE
8
BLACK
6
CONTINUOUS
10
4.32874
20
-1.98622
11
4.32874
21
-2.02264
0
LINE
8
BLACK
6
CONTINUOUS
10
4.32874
20
-2.02264
11
4.32856
21
-2.02365
0
LINE
8
BLACK
6
CONTINUOUS
10
4.32856
20
-2.02365
11
4.32726
21
-2.02519
0
LINE
8
BLACK
6
CONTINUOUS
10
4.32726
20
-2.02519
11
4.32527
21
-2.02554
0
LINE
8
BLACK
6
CONTINUOUS
10
4.32527
20
-2.02554
11
4.32352
21
-2.02453
0
LINE
8
BLACK
6
CONTINUOUS
10
4.32352
20
-2.02453
11
4.32283
21
-2.02264
0
LINE
8
BLACK
6
CONTINUOUS
10
4.32283
20
-2.02264
11
4.32283
21
-1.98327
0
LINE
8
BLACK
6
CONTINUOUS
10
4.32283
20
-1.98327
11
4.3229
21
-1.98288
0
LINE
8
BLACK
6
CONTINUOUS
10
4.3229
20
-1.98288
11
4.32288
21
-1.98275
0
LINE
8
BLACK
6
CONTINUOUS
10
4.32288
20
-1.98275
11
4.32294
21
-1.98264
0
LINE
8
BLACK
6
CONTINUOUS
10
4.32294
20
-1.98264
11
4.32301
21
-1.98226
0
LINE
8
BLACK
6
CONTINUOUS
10
4.32301
20
-1.98226
11
4.3235
21
-1.98167
0
LINE
8
BLACK
6
CONTINUOUS
10
4.3235
20
-1.98167
11
4.32389
21
-1.981
0
LINE
8
BLACK
6
CONTINUOUS
10
4.32389
20
-1.981
11
4.32414
21
-1.98091
0
LINE
8
BLACK
6
CONTINUOUS
10
4.32414
20
-1.98091
11
4.32431
21
-1.98071
0
LINE
8
BLACK
6
CONTINUOUS
10
4.32431
20
-1.98071
11
4.32506
21
-1.98058
0
LINE
8
BLACK
6
CONTINUOUS
10
4.32506
20
-1.98058
11
4.32579
21
-1.98031
0
LINE
8
BLACK
6
CONTINUOUS
10
4.32579
20
-1.98031
11
4.36516
21
-1.98031
0
LINE
8
BLACK
6
CONTINUOUS
10
4.36516
20
-1.98031
11
4.36617
21
-1.98049
0
LINE
8
BLACK
6
CONTINUOUS
10
3.69687
20
-1.98049
11
3.69842
21
-1.98179
0
LINE
8
BLACK
6
CONTINUOUS
10
3.69842
20
-1.98179
11
3.69877
21
-1.98378
0
LINE
8
BLACK
6
CONTINUOUS
10
3.69877
20
-1.98378
11
3.69776
21
-1.98553
0
LINE
8
BLACK
6
CONTINUOUS
10
3.69776
20
-1.98553
11
3.69586
21
-1.98622
0
LINE
8
BLACK
6
CONTINUOUS
10
3.69586
20
-1.98622
11
3.65945
21
-1.98622
0
LINE
8
BLACK
6
CONTINUOUS
10
3.65945
20
-1.98622
11
3.65945
21
-2.02264
0
LINE
8
BLACK
6
CONTINUOUS
10
3.65945
20
-2.02264
11
3.65927
21
-2.02365
0
LINE
8
BLACK
6
CONTINUOUS
10
3.65927
20
-2.02365
11
3.65797
21
-2.02519
0
LINE
8
BLACK
6
CONTINUOUS
10
3.65797
20
-2.02519
11
3.65598
21
-2.02554
0
LINE
8
BLACK
6
CONTINUOUS
10
3.65598
20
-2.02554
11
3.65423
21
-2.02453
0
LINE
8
BLACK
6
CONTINUOUS
10
3.65423
20
-2.02453
11
3.65354
21
-2.02264
0
LINE
8
BLACK
6
CONTINUOUS
10
3.65354
20
-2.02264
11
3.65354
21
-1.98327
0
LINE
8
BLACK
6
CONTINUOUS
10
3.65354
20
-1.98327
11
3.65361
21
-1.98288
0
LINE
8
BLACK
6
CONTINUOUS
10
3.65361
20
-1.98288
11
3.65359
21
-1.98275
0
LINE
8
BLACK
6
CONTINUOUS
10
3.65359
20
-1.98275
11
3.65365
21
-1.98264
0
LINE
8
BLACK
6
CONTINUOUS
10
3.65365
20
-1.98264
11
3.65372
21
-1.98226
0
LINE
8
BLACK
6
CONTINUOUS
10
3.65372
20
-1.98226
11
3.65421
21
-1.98167
0
LINE
8
BLACK
6
CONTINUOUS
10
3.65421
20
-1.98167
11
3.6546
21
-1.981
0
LINE
8
BLACK
6
CONTINUOUS
10
3.6546
20
-1.981
11
3.65485
21
-1.98091
0
LINE
8
BLACK
6
CONTINUOUS
10
3.65485
20
-1.98091
11
3.65502
21
-1.98071
0
LINE
8
BLACK
6
CONTINUOUS
10
3.65502
20
-1.98071
11
3.65577
21
-1.98058
0
LINE
8
BLACK
6
CONTINUOUS
10
3.65577
20
-1.98058
11
3.65649
21
-1.98031
0
LINE
8
BLACK
6
CONTINUOUS
10
3.65649
20
-1.98031
11
3.69586
21
-1.98031
0
LINE
8
BLACK
6
CONTINUOUS
10
3.69586
20
-1.98031
11
3.69687
21
-1.98049
0
LINE
8
BLACK
6
CONTINUOUS
10
3.02758
20
-1.98049
11
3.02913
21
-1.98179
0
LINE
8
BLACK
6
CONTINUOUS
10
3.02913
20
-1.98179
11
3.02948
21
-1.98378
0
LINE
8
BLACK
6
CONTINUOUS
10
3.02948
20
-1.98378
11
3.02847
21
-1.98553
0
LINE
8
BLACK
6
CONTINUOUS
10
3.02847
20
-1.98553
11
3.02657
21
-1.98622
0
LINE
8
BLACK
6
CONTINUOUS
10
3.02657
20
-1.98622
11
2.99016
21
-1.98622
0
LINE
8
BLACK
6
CONTINUOUS
10
2.99016
20
-1.98622
11
2.99016
21
-2.02264
0
LINE
8
BLACK
6
CONTINUOUS
10
2.99016
20
-2.02264
11
2.98998
21
-2.02365
0
LINE
8
BLACK
6
CONTINUOUS
10
2.98998
20
-2.02365
11
2.98868
21
-2.02519
0
LINE
8
BLACK
6
CONTINUOUS
10
2.98868
20
-2.02519
11
2.98669
21
-2.02554
0
LINE
8
BLACK
6
CONTINUOUS
10
2.98669
20
-2.02554
11
2.98494
21
-2.02453
0
LINE
8
BLACK
6
CONTINUOUS
10
2.98494
20
-2.02453
11
2.98425
21
-2.02264
0
LINE
8
BLACK
6
CONTINUOUS
10
2.98425
20
-2.02264
11
2.98425
21
-1.98327
0
LINE
8
BLACK
6
CONTINUOUS
10
2.98425
20
-1.98327
11
2.98432
21
-1.98288
0
LINE
8
BLACK
6
CONTINUOUS
10
2.98432
20
-1.98288
11
2.9843
21
-1.98275
0
LINE
8
BLACK
6
CONTINUOUS
10
2.9843
20
-1.98275
11
2.98436
21
-1.98264
0
LINE
8
BLACK
6
CONTINUOUS
10
2.98436
20
-1.98264
11
2.98443
21
-1.98226
0
LINE
8
BLACK
6
CONTINUOUS
10
2.98443
20
-1.98226
11
2.98492
21
-1.98167
0
LINE
8
BLACK
6
CONTINUOUS
10
2.98492
20
-1.98167
11
2.98531
21
-1.981
0
LINE
8
BLACK
6
CONTINUOUS
10
2.98531
20
-1.981
11
2.98556
21
-1.98091
0
LINE
8
BLACK
6
CONTINUOUS
10
2.98556
20
-1.98091
11
2.98573
21
-1.98071
0
LINE
8
BLACK
6
CONTINUOUS
10
2.98573
20
-1.98071
11
2.98648
21
-1.98058
0
LINE
8
BLACK
6
CONTINUOUS
10
2.98648
20
-1.98058
11
2.9872
21
-1.98031
0
LINE
8
BLACK
6
CONTINUOUS
10
2.9872
20
-1.98031
11
3.02657
21
-1.98031
0
LINE
8
BLACK
6
CONTINUOUS
10
3.02657
20
-1.98031
11
3.02758
21
-1.98049
0
LINE
8
BLACK
6
CONTINUOUS
10
4.87923
20
-1.82389
11
4.87992
21
-1.82579
0
LINE
8
BLACK
6
CONTINUOUS
10
4.87992
20
-1.82579
11
4.87992
21
-1.86516
0
LINE
8
BLACK
6
CONTINUOUS
10
4.87992
20
-1.86516
11
4.87985
21
-1.86554
0
LINE
8
BLACK
6
CONTINUOUS
10
4.87985
20
-1.86554
11
4.87987
21
-1.86567
0
LINE
8
BLACK
6
CONTINUOUS
10
4.87987
20
-1.86567
11
4.87981
21
-1.86578
0
LINE
8
BLACK
6
CONTINUOUS
10
4.87981
20
-1.86578
11
4.87974
21
-1.86617
0
LINE
8
BLACK
6
CONTINUOUS
10
4.87974
20
-1.86617
11
4.87925
21
-1.86675
0
LINE
8
BLACK
6
CONTINUOUS
10
4.87925
20
-1.86675
11
4.87886
21
-1.86742
0
LINE
8
BLACK
6
CONTINUOUS
10
4.87886
20
-1.86742
11
4.87861
21
-1.86751
0
LINE
8
BLACK
6
CONTINUOUS
10
4.87861
20
-1.86751
11
4.87844
21
-1.86771
0
LINE
8
BLACK
6
CONTINUOUS
10
4.87844
20
-1.86771
11
4.87769
21
-1.86785
0
LINE
8
BLACK
6
CONTINUOUS
10
4.87769
20
-1.86785
11
4.87697
21
-1.86811
0
LINE
8
BLACK
6
CONTINUOUS
10
4.87697
20
-1.86811
11
4.8376
21
-1.86811
0
LINE
8
BLACK
6
CONTINUOUS
10
4.8376
20
-1.86811
11
4.83659
21
-1.86793
0
LINE
8
BLACK
6
CONTINUOUS
10
4.83659
20
-1.86793
11
4.83504
21
-1.86663
0
LINE
8
BLACK
6
CONTINUOUS
10
4.83504
20
-1.86663
11
4.83469
21
-1.86464
0
LINE
8
BLACK
6
CONTINUOUS
10
4.83469
20
-1.86464
11
4.8357
21
-1.86289
0
LINE
8
BLACK
6
CONTINUOUS
10
4.8357
20
-1.86289
11
4.8376
21
-1.8622
0
LINE
8
BLACK
6
CONTINUOUS
10
4.8376
20
-1.8622
11
4.87401
21
-1.8622
0
LINE
8
BLACK
6
CONTINUOUS
10
4.87401
20
-1.8622
11
4.87401
21
-1.82579
0
LINE
8
BLACK
6
CONTINUOUS
10
4.87401
20
-1.82579
11
4.87419
21
-1.82478
0
LINE
8
BLACK
6
CONTINUOUS
10
4.87419
20
-1.82478
11
4.87549
21
-1.82323
0
LINE
8
BLACK
6
CONTINUOUS
10
4.87549
20
-1.82323
11
4.87748
21
-1.82288
0
LINE
8
BLACK
6
CONTINUOUS
10
4.87748
20
-1.82288
11
4.87923
21
-1.82389
0
LINE
8
BLACK
6
CONTINUOUS
10
4.20994
20
-1.82389
11
4.21063
21
-1.82579
0
LINE
8
BLACK
6
CONTINUOUS
10
4.21063
20
-1.82579
11
4.21063
21
-1.86516
0
LINE
8
BLACK
6
CONTINUOUS
10
4.21063
20
-1.86516
11
4.21056
21
-1.86554
0
LINE
8
BLACK
6
CONTINUOUS
10
4.21056
20
-1.86554
11
4.21058
21
-1.86567
0
LINE
8
BLACK
6
CONTINUOUS
10
4.21058
20
-1.86567
11
4.21052
21
-1.86578
0
LINE
8
BLACK
6
CONTINUOUS
10
4.21052
20
-1.86578
11
4.21045
21
-1.86617
0
LINE
8
BLACK
6
CONTINUOUS
10
4.21045
20
-1.86617
11
4.20996
21
-1.86675
0
LINE
8
BLACK
6
CONTINUOUS
10
4.20996
20
-1.86675
11
4.20957
21
-1.86742
0
LINE
8
BLACK
6
CONTINUOUS
10
4.20957
20
-1.86742
11
4.20932
21
-1.86751
0
LINE
8
BLACK
6
CONTINUOUS
10
4.20932
20
-1.86751
11
4.20915
21
-1.86771
0
LINE
8
BLACK
6
CONTINUOUS
10
4.20915
20
-1.86771
11
4.2084
21
-1.86785
0
LINE
8
BLACK
6
CONTINUOUS
10
4.2084
20
-1.86785
11
4.20768
21
-1.86811
0
LINE
8
BLACK
6
CONTINUOUS
10
4.20768
20
-1.86811
11
4.16831
21
-1.86811
0
LINE
8
BLACK
6
CONTINUOUS
10
4.16831
20
-1.86811
11
4.1673
21
-1.86793
0
LINE
8
BLACK
6
CONTINUOUS
10
4.1673
20
-1.86793
11
4.16575
21
-1.86663
0
LINE
8
BLACK
6
CONTINUOUS
10
4.16575
20
-1.86663
11
4.1654
21
-1.86464
0
LINE
8
BLACK
6
CONTINUOUS
10
4.1654
20
-1.86464
11
4.16641
21
-1.86289
0
LINE
8
BLACK
6
CONTINUOUS
10
4.16641
20
-1.86289
11
4.16831
21
-1.8622
0
LINE
8
BLACK
6
CONTINUOUS
10
4.16831
20
-1.8622
11
4.20472
21
-1.8622
0
LINE
8
BLACK
6
CONTINUOUS
10
4.20472
20
-1.8622
11
4.20472
21
-1.82579
0
LINE
8
BLACK
6
CONTINUOUS
10
4.20472
20
-1.82579
11
4.2049
21
-1.82478
0
LINE
8
BLACK
6
CONTINUOUS
10
4.2049
20
-1.82478
11
4.2062
21
-1.82323
0
LINE
8
BLACK
6
CONTINUOUS
10
4.2062
20
-1.82323
11
4.20819
21
-1.82288
0
LINE
8
BLACK
6
CONTINUOUS
10
4.20819
20
-1.82288
11
4.20994
21
-1.82389
0
LINE
8
BLACK
6
CONTINUOUS
10
4.32805
20
-1.82389
11
4.32874
21
-1.82579
0
LINE
8
BLACK
6
CONTINUOUS
10
4.32874
20
-1.82579
11
4.32874
21
-1.8622
0
LINE
8
BLACK
6
CONTINUOUS
10
4.32874
20
-1.8622
11
4.36516
21
-1.8622
0
LINE
8
BLACK
6
CONTINUOUS
10
4.36516
20
-1.8622
11
4.36617
21
-1.86238
0
LINE
8
BLACK
6
CONTINUOUS
10
4.36617
20
-1.86238
11
4.36771
21
-1.86368
0
LINE
8
BLACK
6
CONTINUOUS
10
4.36771
20
-1.86368
11
4.36806
21
-1.86567
0
LINE
8
BLACK
6
CONTINUOUS
10
4.36806
20
-1.86567
11
4.36705
21
-1.86742
0
LINE
8
BLACK
6
CONTINUOUS
10
4.36705
20
-1.86742
11
4.36516
21
-1.86811
0
LINE
8
BLACK
6
CONTINUOUS
10
4.36516
20
-1.86811
11
4.32579
21
-1.86811
0
LINE
8
BLACK
6
CONTINUOUS
10
4.32579
20
-1.86811
11
4.3254
21
-1.86804
0
LINE
8
BLACK
6
CONTINUOUS
10
4.3254
20
-1.86804
11
4.32527
21
-1.86806
0
LINE
8
BLACK
6
CONTINUOUS
10
4.32527
20
-1.86806
11
4.32516
21
-1.868
0
LINE
8
BLACK
6
CONTINUOUS
10
4.32516
20
-1.868
11
4.32478
21
-1.86793
0
LINE
8
BLACK
6
CONTINUOUS
10
4.32478
20
-1.86793
11
4.32419
21
-1.86744
0
LINE
8
BLACK
6
CONTINUOUS
10
4.32419
20
-1.86744
11
4.32352
21
-1.86705
0
LINE
8
BLACK
6
CONTINUOUS
10
4.32352
20
-1.86705
11
4.32343
21
-1.8668
0
LINE
8
BLACK
6
CONTINUOUS
10
4.32343
20
-1.8668
11
4.32323
21
-1.86663
0
LINE
8
BLACK
6
CONTINUOUS
10
4.32323
20
-1.86663
11
4.32309
21
-1.86588
0
LINE
8
BLACK
6
CONTINUOUS
10
4.32309
20
-1.86588
11
4.32283
21
-1.86516
0
LINE
8
BLACK
6
CONTINUOUS
10
4.32283
20
-1.86516
11
4.32283
21
-1.82579
0
LINE
8
BLACK
6
CONTINUOUS
10
4.32283
20
-1.82579
11
4.32301
21
-1.82478
0
LINE
8
BLACK
6
CONTINUOUS
10
4.32301
20
-1.82478
11
4.32431
21
-1.82323
0
LINE
8
BLACK
6
CONTINUOUS
10
4.32431
20
-1.82323
11
4.3263
21
-1.82288
0
LINE
8
BLACK
6
CONTINUOUS
10
4.3263
20
-1.82288
11
4.32805
21
-1.82389
0
LINE
8
BLACK
6
CONTINUOUS
10
3.65876
20
-1.82389
11
3.65945
21
-1.82579
0
LINE
8
BLACK
6
CONTINUOUS
10
3.65945
20
-1.82579
11
3.65945
21
-1.8622
0
LINE
8
BLACK
6
CONTINUOUS
10
3.65945
20
-1.8622
11
3.69586
21
-1.8622
0
LINE
8
BLACK
6
CONTINUOUS
10
3.69586
20
-1.8622
11
3.69687
21
-1.86238
0
LINE
8
BLACK
6
CONTINUOUS
10
3.69687
20
-1.86238
11
3.69842
21
-1.86368
0
LINE
8
BLACK
6
CONTINUOUS
10
3.69842
20
-1.86368
11
3.69877
21
-1.86567
0
LINE
8
BLACK
6
CONTINUOUS
10
3.69877
20
-1.86567
11
3.69776
21
-1.86742
0
LINE
8
BLACK
6
CONTINUOUS
10
3.69776
20
-1.86742
11
3.69586
21
-1.86811
0
LINE
8
BLACK
6
CONTINUOUS
10
3.69586
20
-1.86811
11
3.65649
21
-1.86811
0
LINE
8
BLACK
6
CONTINUOUS
10
3.65649
20
-1.86811
11
3.65611
21
-1.86804
0
LINE
8
BLACK
6
CONTINUOUS
10
3.65611
20
-1.86804
11
3.65598
21
-1.86806
0
LINE
8
BLACK
6
CONTINUOUS
10
3.65598
20
-1.86806
11
3.65587
21
-1.868
0
LINE
8
BLACK
6
CONTINUOUS
10
3.65587
20
-1.868
11
3.65548
21
-1.86793
0
LINE
8
BLACK
6
CONTINUOUS
10
3.65548
20
-1.86793
11
3.6549
21
-1.86744
0
LINE
8
BLACK
6
CONTINUOUS
10
3.6549
20
-1.86744
11
3.65423
21
-1.86705
0
LINE
8
BLACK
6
CONTINUOUS
10
3.65423
20
-1.86705
11
3.65414
21
-1.8668
0
LINE
8
BLACK
6
CONTINUOUS
10
3.65414
20
-1.8668
11
3.65394
21
-1.86663
0
LINE
8
BLACK
6
CONTINUOUS
10
3.65394
20
-1.86663
11
3.6538
21
-1.86588
0
LINE
8
BLACK
6
CONTINUOUS
10
3.6538
20
-1.86588
11
3.65354
21
-1.86516
0
LINE
8
BLACK
6
CONTINUOUS
10
3.65354
20
-1.86516
11
3.65354
21
-1.82579
0
LINE
8
BLACK
6
CONTINUOUS
10
3.65354
20
-1.82579
11
3.65372
21
-1.82478
0
LINE
8
BLACK
6
CONTINUOUS
10
3.65372
20
-1.82478
11
3.65502
21
-1.82323
0
LINE
8
BLACK
6
CONTINUOUS
10
3.65502
20
-1.82323
11
3.65701
21
-1.82288
0
LINE
8
BLACK
6
CONTINUOUS
10
3.65701
20
-1.82288
11
3.65876
21
-1.82389
0
LINE
8
BLACK
6
CONTINUOUS
10
4.99734
20
-1.82389
11
4.99803
21
-1.82579
0
LINE
8
BLACK
6
CONTINUOUS
10
4.99803
20
-1.82579
11
4.99803
21
-1.8622
0
LINE
8
BLACK
6
CONTINUOUS
10
4.99803
20
-1.8622
11
5.03445
21
-1.8622
0
LINE
8
BLACK
6
CONTINUOUS
10
5.03445
20
-1.8622
11
5.03546
21
-1.86238
0
LINE
8
BLACK
6
CONTINUOUS
10
5.03546
20
-1.86238
11
5.037
21
-1.86368
0
LINE
8
BLACK
6
CONTINUOUS
10
5.037
20
-1.86368
11
5.03735
21
-1.86567
0
LINE
8
BLACK
6
CONTINUOUS
10
5.03735
20
-1.86567
11
5.03634
21
-1.86742
0
LINE
8
BLACK
6
CONTINUOUS
10
5.03634
20
-1.86742
11
5.03445
21
-1.86811
0
LINE
8
BLACK
6
CONTINUOUS
10
5.03445
20
-1.86811
11
4.99508
21
-1.86811
0
LINE
8
BLACK
6
CONTINUOUS
10
4.99508
20
-1.86811
11
4.99469
21
-1.86804
0
LINE
8
BLACK
6
CONTINUOUS
10
4.99469
20
-1.86804
11
4.99456
21
-1.86806
0
LINE
8
BLACK
6
CONTINUOUS
10
4.99456
20
-1.86806
11
4.99445
21
-1.868
0
LINE
8
BLACK
6
CONTINUOUS
10
4.99445
20
-1.868
11
4.99407
21
-1.86793
0
LINE
8
BLACK
6
CONTINUOUS
10
4.99407
20
-1.86793
11
4.99348
21
-1.86744
0
LINE
8
BLACK
6
CONTINUOUS
10
4.99348
20
-1.86744
11
4.99281
21
-1.86705
0
LINE
8
BLACK
6
CONTINUOUS
10
4.99281
20
-1.86705
11
4.99272
21
-1.8668
0
LINE
8
BLACK
6
CONTINUOUS
10
4.99272
20
-1.8668
11
4.99252
21
-1.86663
0
LINE
8
BLACK
6
CONTINUOUS
10
4.99252
20
-1.86663
11
4.99239
21
-1.86588
0
LINE
8
BLACK
6
CONTINUOUS
10
4.99239
20
-1.86588
11
4.99212
21
-1.86516
0
LINE
8
BLACK
6
CONTINUOUS
10
4.99212
20
-1.86516
11
4.99212
21
-1.82579
0
LINE
8
BLACK
6
CONTINUOUS
10
4.99212
20
-1.82579
11
4.9923
21
-1.82478
0
LINE
8
BLACK
6
CONTINUOUS
10
4.9923
20
-1.82478
11
4.9936
21
-1.82323
0
LINE
8
BLACK
6
CONTINUOUS
10
4.9936
20
-1.82323
11
4.99559
21
-1.82288
0
LINE
8
BLACK
6
CONTINUOUS
10
4.99559
20
-1.82288
11
4.99734
21
-1.82389
0
LINE
8
BLACK
6
CONTINUOUS
10
2.98947
20
-1.82389
11
2.99016
21
-1.82579
0
LINE
8
BLACK
6
CONTINUOUS
10
2.99016
20
-1.82579
11
2.99016
21
-1.8622
0
LINE
8
BLACK
6
CONTINUOUS
10
2.99016
20
-1.8622
11
3.02657
21
-1.8622
0
LINE
8
BLACK
6
CONTINUOUS
10
3.02657
20
-1.8622
11
3.02758
21
-1.86238
0
LINE
8
BLACK
6
CONTINUOUS
10
3.02758
20
-1.86238
11
3.02913
21
-1.86368
0
LINE
8
BLACK
6
CONTINUOUS
10
3.02913
20
-1.86368
11
3.02948
21
-1.86567
0
LINE
8
BLACK
6
CONTINUOUS
10
3.02948
20
-1.86567
11
3.02847
21
-1.86742
0
LINE
8
BLACK
6
CONTINUOUS
10
3.02847
20
-1.86742
11
3.02657
21
-1.86811
0
LINE
8
BLACK
6
CONTINUOUS
10
3.02657
20
-1.86811
11
2.9872
21
-1.86811
0
LINE
8
BLACK
6
CONTINUOUS
10
2.9872
20
-1.86811
11
2.98682
21
-1.86804
0
LINE
8
BLACK
6
CONTINUOUS
10
2.98682
20
-1.86804
11
2.98669
21
-1.86806
0
LINE
8
BLACK
6
CONTINUOUS
10
2.98669
20
-1.86806
11
2.98658
21
-1.868
0
LINE
8
BLACK
6
CONTINUOUS
10
2.98658
20
-1.868
11
2.98619
21
-1.86793
0
LINE
8
BLACK
6
CONTINUOUS
10
2.98619
20
-1.86793
11
2.98561
21
-1.86744
0
LINE
8
BLACK
6
CONTINUOUS
10
2.98561
20
-1.86744
11
2.98494
21
-1.86705
0
LINE
8
BLACK
6
CONTINUOUS
10
2.98494
20
-1.86705
11
2.98485
21
-1.8668
0
LINE
8
BLACK
6
CONTINUOUS
10
2.98485
20
-1.8668
11
2.98465
21
-1.86663
0
LINE
8
BLACK
6
CONTINUOUS
10
2.98465
20
-1.86663
11
2.98451
21
-1.86588
0
LINE
8
BLACK
6
CONTINUOUS
10
2.98451
20
-1.86588
11
2.98425
21
-1.86516
0
LINE
8
BLACK
6
CONTINUOUS
10
2.98425
20
-1.86516
11
2.98425
21
-1.82579
0
LINE
8
BLACK
6
CONTINUOUS
10
2.98425
20
-1.82579
11
2.98443
21
-1.82478
0
LINE
8
BLACK
6
CONTINUOUS
10
2.98443
20
-1.82478
11
2.98573
21
-1.82323
0
LINE
8
BLACK
6
CONTINUOUS
10
2.98573
20
-1.82323
11
2.98772
21
-1.82288
0
LINE
8
BLACK
6
CONTINUOUS
10
2.98772
20
-1.82288
11
2.98947
21
-1.82389
0
LINE
8
BLACK
6
CONTINUOUS
10
3.54065
20
-1.82389
11
3.54134
21
-1.82579
0
LINE
8
BLACK
6
CONTINUOUS
10
3.54134
20
-1.82579
11
3.54134
21
-1.86516
0
LINE
8
BLACK
6
CONTINUOUS
10
3.54134
20
-1.86516
11
3.54127
21
-1.86554
0
LINE
8
BLACK
6
CONTINUOUS
10
3.54127
20
-1.86554
11
3.54129
21
-1.86567
0
LINE
8
BLACK
6
CONTINUOUS
10
3.54129
20
-1.86567
11
3.54123
21
-1.86578
0
LINE
8
BLACK
6
CONTINUOUS
10
3.54123
20
-1.86578
11
3.54116
21
-1.86617
0
LINE
8
BLACK
6
CONTINUOUS
10
3.54116
20
-1.86617
11
3.54067
21
-1.86675
0
LINE
8
BLACK
6
CONTINUOUS
10
3.54067
20
-1.86675
11
3.54028
21
-1.86742
0
LINE
8
BLACK
6
CONTINUOUS
10
3.54028
20
-1.86742
11
3.54003
21
-1.86751
0
LINE
8
BLACK
6
CONTINUOUS
10
3.54003
20
-1.86751
11
3.53986
21
-1.86771
0
LINE
8
BLACK
6
CONTINUOUS
10
3.53986
20
-1.86771
11
3.53911
21
-1.86785
0
LINE
8
BLACK
6
CONTINUOUS
10
3.53911
20
-1.86785
11
3.53838
21
-1.86811
0
LINE
8
BLACK
6
CONTINUOUS
10
3.53838
20
-1.86811
11
3.49901
21
-1.86811
0
LINE
8
BLACK
6
CONTINUOUS
10
3.49901
20
-1.86811
11
3.498
21
-1.86793
0
LINE
8
BLACK
6
CONTINUOUS
10
3.498
20
-1.86793
11
3.49646
21
-1.86663
0
LINE
8
BLACK
6
CONTINUOUS
10
3.49646
20
-1.86663
11
3.49611
21
-1.86464
0
LINE
8
BLACK
6
CONTINUOUS
10
3.49611
20
-1.86464
11
3.49712
21
-1.86289
0
LINE
8
BLACK
6
CONTINUOUS
10
3.49712
20
-1.86289
11
3.49901
21
-1.8622
0
LINE
8
BLACK
6
CONTINUOUS
10
3.49901
20
-1.8622
11
3.53543
21
-1.8622
0
LINE
8
BLACK
6
CONTINUOUS
10
3.53543
20
-1.8622
11
3.53543
21
-1.82579
0
LINE
8
BLACK
6
CONTINUOUS
10
3.53543
20
-1.82579
11
3.53561
21
-1.82478
0
LINE
8
BLACK
6
CONTINUOUS
10
3.53561
20
-1.82478
11
3.53691
21
-1.82323
0
LINE
8
BLACK
6
CONTINUOUS
10
3.53691
20
-1.82323
11
3.5389
21
-1.82288
0
LINE
8
BLACK
6
CONTINUOUS
10
3.5389
20
-1.82288
11
3.54065
21
-1.82389
0
LINE
8
BLACK
6
CONTINUOUS
10
5.54852
20
-1.82389
11
5.54921
21
-1.82579
0
LINE
8
BLACK
6
CONTINUOUS
10
5.54921
20
-1.82579
11
5.54921
21
-1.86516
0
LINE
8
BLACK
6
CONTINUOUS
10
5.54921
20
-1.86516
11
5.54914
21
-1.86554
0
LINE
8
BLACK
6
CONTINUOUS
10
5.54914
20
-1.86554
11
5.54917
21
-1.86567
0
LINE
8
BLACK
6
CONTINUOUS
10
5.54917
20
-1.86567
11
5.5491
21
-1.86578
0
LINE
8
BLACK
6
CONTINUOUS
10
5.5491
20
-1.86578
11
5.54903
21
-1.86617
0
LINE
8
BLACK
6
CONTINUOUS
10
5.54903
20
-1.86617
11
5.54854
21
-1.86675
0
LINE
8
BLACK
6
CONTINUOUS
10
5.54854
20
-1.86675
11
5.54816
21
-1.86742
0
LINE
8
BLACK
6
CONTINUOUS
10
5.54816
20
-1.86742
11
5.54791
21
-1.86751
0
LINE
8
BLACK
6
CONTINUOUS
10
5.54791
20
-1.86751
11
5.54773
21
-1.86771
0
LINE
8
BLACK
6
CONTINUOUS
10
5.54773
20
-1.86771
11
5.54698
21
-1.86785
0
LINE
8
BLACK
6
CONTINUOUS
10
5.54698
20
-1.86785
11
5.54626
21
-1.86811
0
LINE
8
BLACK
6
CONTINUOUS
10
5.54626
20
-1.86811
11
5.50689
21
-1.86811
0
LINE
8
BLACK
6
CONTINUOUS
10
5.50689
20
-1.86811
11
5.50588
21
-1.86793
0
LINE
8
BLACK
6
CONTINUOUS
10
5.50588
20
-1.86793
11
5.50433
21
-1.86663
0
LINE
8
BLACK
6
CONTINUOUS
10
5.50433
20
-1.86663
11
5.50398
21
-1.86464
0
LINE
8
BLACK
6
CONTINUOUS
10
5.50398
20
-1.86464
11
5.50499
21
-1.86289
0
LINE
8
BLACK
6
CONTINUOUS
10
5.50499
20
-1.86289
11
5.50689
21
-1.8622
0
LINE
8
BLACK
6
CONTINUOUS
10
5.50689
20
-1.8622
11
5.5433
21
-1.8622
0
LINE
8
BLACK
6
CONTINUOUS
10
5.5433
20
-1.8622
11
5.5433
21
-1.82579
0
LINE
8
BLACK
6
CONTINUOUS
10
5.5433
20
-1.82579
11
5.54348
21
-1.82478
0
LINE
8
BLACK
6
CONTINUOUS
10
5.54348
20
-1.82478
11
5.54478
21
-1.82323
0
LINE
8
BLACK
6
CONTINUOUS
10
5.54478
20
-1.82323
11
5.54677
21
-1.82288
0
LINE
8
BLACK
6
CONTINUOUS
10
5.54677
20
-1.82288
11
5.54852
21
-1.82389
0
LINE
8
BLACK
6
CONTINUOUS
10
4.36617
20
-1.3112
11
4.36771
21
-1.3125
0
LINE
8
BLACK
6
CONTINUOUS
10
4.36771
20
-1.3125
11
4.36806
21
-1.31449
0
LINE
8
BLACK
6
CONTINUOUS
10
4.36806
20
-1.31449
11
4.36705
21
-1.31624
0
LINE
8
BLACK
6
CONTINUOUS
10
4.36705
20
-1.31624
11
4.36516
21
-1.31693
0
LINE
8
BLACK
6
CONTINUOUS
10
4.36516
20
-1.31693
11
4.32874
21
-1.31693
0
LINE
8
BLACK
6
CONTINUOUS
10
4.32874
20
-1.31693
11
4.32874
21
-1.35335
0
LINE
8
BLACK
6
CONTINUOUS
10
4.32874
20
-1.35335
11
4.32856
21
-1.35436
0
LINE
8
BLACK
6
CONTINUOUS
10
4.32856
20
-1.35436
11
4.32726
21
-1.3559
0
LINE
8
BLACK
6
CONTINUOUS
10
4.32726
20
-1.3559
11
4.32527
21
-1.35625
0
LINE
8
BLACK
6
CONTINUOUS
10
4.32527
20
-1.35625
11
4.32352
21
-1.35524
0
LINE
8
BLACK
6
CONTINUOUS
10
4.32352
20
-1.35524
11
4.32283
21
-1.35335
0
LINE
8
BLACK
6
CONTINUOUS
10
4.32283
20
-1.35335
11
4.32283
21
-1.31398
0
LINE
8
BLACK
6
CONTINUOUS
10
4.32283
20
-1.31398
11
4.3229
21
-1.31359
0
LINE
8
BLACK
6
CONTINUOUS
10
4.3229
20
-1.31359
11
4.32288
21
-1.31346
0
LINE
8
BLACK
6
CONTINUOUS
10
4.32288
20
-1.31346
11
4.32294
21
-1.31335
0
LINE
8
BLACK
6
CONTINUOUS
10
4.32294
20
-1.31335
11
4.32301
21
-1.31297
0
LINE
8
BLACK
6
CONTINUOUS
10
4.32301
20
-1.31297
11
4.3235
21
-1.31238
0
LINE
8
BLACK
6
CONTINUOUS
10
4.3235
20
-1.31238
11
4.32389
21
-1.31171
0
LINE
8
BLACK
6
CONTINUOUS
10
4.32389
20
-1.31171
11
4.32414
21
-1.31162
0
LINE
8
BLACK
6
CONTINUOUS
10
4.32414
20
-1.31162
11
4.32431
21
-1.31142
0
LINE
8
BLACK
6
CONTINUOUS
10
4.32431
20
-1.31142
11
4.32506
21
-1.31129
0
LINE
8
BLACK
6
CONTINUOUS
10
4.32506
20
-1.31129
11
4.32579
21
-1.31102
0
LINE
8
BLACK
6
CONTINUOUS
10
4.32579
20
-1.31102
11
4.36516
21
-1.31102
0
LINE
8
BLACK
6
CONTINUOUS
10
4.36516
20
-1.31102
11
4.36617
21
-1.3112
0
LINE
8
BLACK
6
CONTINUOUS
10
4.20806
20
-1.31109
11
4.20819
21
-1.31107
0
LINE
8
BLACK
6
CONTINUOUS
10
4.20819
20
-1.31107
11
4.2083
21
-1.31113
0
LINE
8
BLACK
6
CONTINUOUS
10
4.2083
20
-1.31113
11
4.20869
21
-1.3112
0
LINE
8
BLACK
6
CONTINUOUS
10
4.20869
20
-1.3112
11
4.20927
21
-1.31169
0
LINE
8
BLACK
6
CONTINUOUS
10
4.20927
20
-1.31169
11
4.20994
21
-1.31208
0
LINE
8
BLACK
6
CONTINUOUS
10
4.20994
20
-1.31208
11
4.21003
21
-1.31233
0
LINE
8
BLACK
6
CONTINUOUS
10
4.21003
20
-1.31233
11
4.21023
21
-1.3125
0
LINE
8
BLACK
6
CONTINUOUS
10
4.21023
20
-1.3125
11
4.21037
21
-1.31325
0
LINE
8
BLACK
6
CONTINUOUS
10
4.21037
20
-1.31325
11
4.21063
21
-1.31398
0
LINE
8
BLACK
6
CONTINUOUS
10
4.21063
20
-1.31398
11
4.21063
21
-1.35335
0
LINE
8
BLACK
6
CONTINUOUS
10
4.21063
20
-1.35335
11
4.21045
21
-1.35436
0
LINE
8
BLACK
6
CONTINUOUS
10
4.21045
20
-1.35436
11
4.20915
21
-1.3559
0
LINE
8
BLACK
6
CONTINUOUS
10
4.20915
20
-1.3559
11
4.20716
21
-1.35625
0
LINE
8
BLACK
6
CONTINUOUS
10
4.20716
20
-1.35625
11
4.20541
21
-1.35524
0
LINE
8
BLACK
6
CONTINUOUS
10
4.20541
20
-1.35524
11
4.20472
21
-1.35335
0
LINE
8
BLACK
6
CONTINUOUS
10
4.20472
20
-1.35335
11
4.20472
21
-1.31693
0
LINE
8
BLACK
6
CONTINUOUS
10
4.20472
20
-1.31693
11
4.16831
21
-1.31693
0
LINE
8
BLACK
6
CONTINUOUS
10
4.16831
20
-1.31693
11
4.1673
21
-1.31675
0
LINE
8
BLACK
6
CONTINUOUS
10
4.1673
20
-1.31675
11
4.16575
21
-1.31545
0
LINE
8
BLACK
6
CONTINUOUS
10
4.16575
20
-1.31545
11
4.1654
21
-1.31346
0
LINE
8
BLACK
6
CONTINUOUS
10
4.1654
20
-1.31346
11
4.16641
21
-1.31171
0
LINE
8
BLACK
6
CONTINUOUS
10
4.16641
20
-1.31171
11
4.16831
21
-1.31102
0
LINE
8
BLACK
6
CONTINUOUS
10
4.16831
20
-1.31102
11
4.20768
21
-1.31102
0
LINE
8
BLACK
6
CONTINUOUS
10
4.20768
20
-1.31102
11
4.20806
21
-1.31109
0
LINE
8
BLACK
6
CONTINUOUS
10
4.87735
20
-1.31109
11
4.87748
21
-1.31107
0
LINE
8
BLACK
6
CONTINUOUS
10
4.87748
20
-1.31107
11
4.87759
21
-1.31113
0
LINE
8
BLACK
6
CONTINUOUS
10
4.87759
20
-1.31113
11
4.87798
21
-1.3112
0
LINE
8
BLACK
6
CONTINUOUS
10
4.87798
20
-1.3112
11
4.87856
21
-1.31169
0
LINE
8
BLACK
6
CONTINUOUS
10
4.87856
20
-1.31169
11
4.87923
21
-1.31208
0
LINE
8
BLACK
6
CONTINUOUS
10
4.87923
20
-1.31208
11
4.87932
21
-1.31233
0
LINE
8
BLACK
6
CONTINUOUS
10
4.87932
20
-1.31233
11
4.87952
21
-1.3125
0
LINE
8
BLACK
6
CONTINUOUS
10
4.87952
20
-1.3125
11
4.87966
21
-1.31325
0
LINE
8
BLACK
6
CONTINUOUS
10
4.87966
20
-1.31325
11
4.87992
21
-1.31398
0
LINE
8
BLACK
6
CONTINUOUS
10
4.87992
20
-1.31398
11
4.87992
21
-1.35335
0
LINE
8
BLACK
6
CONTINUOUS
10
4.87992
20
-1.35335
11
4.87974
21
-1.35436
0
LINE
8
BLACK
6
CONTINUOUS
10
4.87974
20
-1.35436
11
4.87844
21
-1.3559
0
LINE
8
BLACK
6
CONTINUOUS
10
4.87844
20
-1.3559
11
4.87645
21
-1.35625
0
LINE
8
BLACK
6
CONTINUOUS
10
4.87645
20
-1.35625
11
4.8747
21
-1.35524
0
LINE
8
BLACK
6
CONTINUOUS
10
4.8747
20
-1.35524
11
4.87401
21
-1.35335
0
LINE
8
BLACK
6
CONTINUOUS
10
4.87401
20
-1.35335
11
4.87401
21
-1.31693
0
LINE
8
BLACK
6
CONTINUOUS
10
4.87401
20
-1.31693
11
4.8376
21
-1.31693
0
LINE
8
BLACK
6
CONTINUOUS
10
4.8376
20
-1.31693
11
4.83659
21
-1.31675
0
LINE
8
BLACK
6
CONTINUOUS
10
4.83659
20
-1.31675
11
4.83504
21
-1.31545
0
LINE
8
BLACK
6
CONTINUOUS
10
4.83504
20
-1.31545
11
4.83469
21
-1.31346
0
LINE
8
BLACK
6
CONTINUOUS
10
4.83469
20
-1.31346
11
4.8357
21
-1.31171
0
LINE
8
BLACK
6
CONTINUOUS
10
4.8357
20
-1.31171
11
4.8376
21
-1.31102
0
LINE
8
BLACK
6
CONTINUOUS
10
4.8376
20
-1.31102
11
4.87697
21
-1.31102
0
LINE
8
BLACK
6
CONTINUOUS
10
4.87697
20
-1.31102
11
4.87735
21
-1.31109
0
LINE
8
BLACK
6
CONTINUOUS
10
3.69687
20
-1.3112
11
3.69842
21
-1.3125
0
LINE
8
BLACK
6
CONTINUOUS
10
3.69842
20
-1.3125
11
3.69877
21
-1.31449
0
LINE
8
BLACK
6
CONTINUOUS
10
3.69877
20
-1.31449
11
3.69776
21
-1.31624
0
LINE
8
BLACK
6
CONTINUOUS
10
3.69776
20
-1.31624
11
3.69586
21
-1.31693
0
LINE
8
BLACK
6
CONTINUOUS
10
3.69586
20
-1.31693
11
3.65945
21
-1.31693
0
LINE
8
BLACK
6
CONTINUOUS
10
3.65945
20
-1.31693
11
3.65945
21
-1.35335
0
LINE
8
BLACK
6
CONTINUOUS
10
3.65945
20
-1.35335
11
3.65927
21
-1.35436
0
LINE
8
BLACK
6
CONTINUOUS
10
3.65927
20
-1.35436
11
3.65797
21
-1.3559
0
LINE
8
BLACK
6
CONTINUOUS
10
3.65797
20
-1.3559
11
3.65598
21
-1.35625
0
LINE
8
BLACK
6
CONTINUOUS
10
3.65598
20
-1.35625
11
3.65423
21
-1.35524
0
LINE
8
BLACK
6
CONTINUOUS
10
3.65423
20
-1.35524
11
3.65354
21
-1.35335
0
LINE
8
BLACK
6
CONTINUOUS
10
3.65354
20
-1.35335
11
3.65354
21
-1.31398
0
LINE
8
BLACK
6
CONTINUOUS
10
3.65354
20
-1.31398
11
3.65361
21
-1.31359
0
LINE
8
BLACK
6
CONTINUOUS
10
3.65361
20
-1.31359
11
3.65359
21
-1.31346
0
LINE
8
BLACK
6
CONTINUOUS
10
3.65359
20
-1.31346
11
3.65365
21
-1.31335
0
LINE
8
BLACK
6
CONTINUOUS
10
3.65365
20
-1.31335
11
3.65372
21
-1.31297
0
LINE
8
BLACK
6
CONTINUOUS
10
3.65372
20
-1.31297
11
3.65421
21
-1.31238
0
LINE
8
BLACK
6
CONTINUOUS
10
3.65421
20
-1.31238
11
3.6546
21
-1.31171
0
LINE
8
BLACK
6
CONTINUOUS
10
3.6546
20
-1.31171
11
3.65485
21
-1.31162
0
LINE
8
BLACK
6
CONTINUOUS
10
3.65485
20
-1.31162
11
3.65502
21
-1.31142
0
LINE
8
BLACK
6
CONTINUOUS
10
3.65502
20
-1.31142
11
3.65577
21
-1.31129
0
LINE
8
BLACK
6
CONTINUOUS
10
3.65577
20
-1.31129
11
3.65649
21
-1.31102
0
LINE
8
BLACK
6
CONTINUOUS
10
3.65649
20
-1.31102
11
3.69586
21
-1.31102
0
LINE
8
BLACK
6
CONTINUOUS
10
3.69586
20
-1.31102
11
3.69687
21
-1.3112
0
LINE
8
BLACK
6
CONTINUOUS
10
3.02758
20
-1.3112
11
3.02913
21
-1.3125
0
LINE
8
BLACK
6
CONTINUOUS
10
3.02913
20
-1.3125
11
3.02948
21
-1.31449
0
LINE
8
BLACK
6
CONTINUOUS
10
3.02948
20
-1.31449
11
3.02847
21
-1.31624
0
LINE
8
BLACK
6
CONTINUOUS
10
3.02847
20
-1.31624
11
3.02657
21
-1.31693
0
LINE
8
BLACK
6
CONTINUOUS
10
3.02657
20
-1.31693
11
2.99016
21
-1.31693
0
LINE
8
BLACK
6
CONTINUOUS
10
2.99016
20
-1.31693
11
2.99016
21
-1.35335
0
LINE
8
BLACK
6
CONTINUOUS
10
2.99016
20
-1.35335
11
2.98998
21
-1.35436
0
LINE
8
BLACK
6
CONTINUOUS
10
2.98998
20
-1.35436
11
2.98868
21
-1.3559
0
LINE
8
BLACK
6
CONTINUOUS
10
2.98868
20
-1.3559
11
2.98669
21
-1.35625
0
LINE
8
BLACK
6
CONTINUOUS
10
2.98669
20
-1.35625
11
2.98494
21
-1.35524
0
LINE
8
BLACK
6
CONTINUOUS
10
2.98494
20
-1.35524
11
2.98425
21
-1.35335
0
LINE
8
BLACK
6
CONTINUOUS
10
2.98425
20
-1.35335
11
2.98425
21
-1.31398
0
LINE
8
BLACK
6
CONTINUOUS
10
2.98425
20
-1.31398
11
2.98432
21
-1.31359
0
LINE
8
BLACK
6
CONTINUOUS
10
2.98432
20
-1.31359
11
2.9843
21
-1.31346
0
LINE
8
BLACK
6
CONTINUOUS
10
2.9843
20
-1.31346
11
2.98436
21
-1.31335
0
LINE
8
BLACK
6
CONTINUOUS
10
2.98436
20
-1.31335
11
2.98443
21
-1.31297
0
LINE
8
BLACK
6
CONTINUOUS
10
2.98443
20
-1.31297
11
2.98492
21
-1.31238
0
LINE
8
BLACK
6
CONTINUOUS
10
2.98492
20
-1.31238
11
2.98531
21
-1.31171
0
LINE
8
BLACK
6
CONTINUOUS
10
2.98531
20
-1.31171
11
2.98556
21
-1.31162
0
LINE
8
BLACK
6
CONTINUOUS
10
2.98556
20
-1.31162
11
2.98573
21
-1.31142
0
LINE
8
BLACK
6
CONTINUOUS
10
2.98573
20
-1.31142
11
2.98648
21
-1.31129
0
LINE
8
BLACK
6
CONTINUOUS
10
2.98648
20
-1.31129
11
2.9872
21
-1.31102
0
LINE
8
BLACK
6
CONTINUOUS
10
2.9872
20
-1.31102
11
3.02657
21
-1.31102
0
LINE
8
BLACK
6
CONTINUOUS
10
3.02657
20
-1.31102
11
3.02758
21
-1.3112
0
LINE
8
BLACK
6
CONTINUOUS
10
3.53877
20
-1.31109
11
3.5389
21
-1.31107
0
LINE
8
BLACK
6
CONTINUOUS
10
3.5389
20
-1.31107
11
3.53901
21
-1.31113
0
LINE
8
BLACK
6
CONTINUOUS
10
3.53901
20
-1.31113
11
3.53939
21
-1.3112
0
LINE
8
BLACK
6
CONTINUOUS
10
3.53939
20
-1.3112
11
3.53998
21
-1.31169
0
LINE
8
BLACK
6
CONTINUOUS
10
3.53998
20
-1.31169
11
3.54065
21
-1.31208
0
LINE
8
BLACK
6
CONTINUOUS
10
3.54065
20
-1.31208
11
3.54074
21
-1.31233
0
LINE
8
BLACK
6
CONTINUOUS
10
3.54074
20
-1.31233
11
3.54094
21
-1.3125
0
LINE
8
BLACK
6
CONTINUOUS
10
3.54094
20
-1.3125
11
3.54107
21
-1.31325
0
LINE
8
BLACK
6
CONTINUOUS
10
3.54107
20
-1.31325
11
3.54134
21
-1.31398
0
LINE
8
BLACK
6
CONTINUOUS
10
3.54134
20
-1.31398
11
3.54134
21
-1.35335
0
LINE
8
BLACK
6
CONTINUOUS
10
3.54134
20
-1.35335
11
3.54116
21
-1.35436
0
LINE
8
BLACK
6
CONTINUOUS
10
3.54116
20
-1.35436
11
3.53986
21
-1.3559
0
LINE
8
BLACK
6
CONTINUOUS
10
3.53986
20
-1.3559
11
3.53787
21
-1.35625
0
LINE
8
BLACK
6
CONTINUOUS
10
3.53787
20
-1.35625
11
3.53612
21
-1.35524
0
LINE
8
BLACK
6
CONTINUOUS
10
3.53612
20
-1.35524
11
3.53543
21
-1.35335
0
LINE
8
BLACK
6
CONTINUOUS
10
3.53543
20
-1.35335
11
3.53543
21
-1.31693
0
LINE
8
BLACK
6
CONTINUOUS
10
3.53543
20
-1.31693
11
3.49901
21
-1.31693
0
LINE
8
BLACK
6
CONTINUOUS
10
3.49901
20
-1.31693
11
3.498
21
-1.31675
0
LINE
8
BLACK
6
CONTINUOUS
10
3.498
20
-1.31675
11
3.49646
21
-1.31545
0
LINE
8
BLACK
6
CONTINUOUS
10
3.49646
20
-1.31545
11
3.49611
21
-1.31346
0
LINE
8
BLACK
6
CONTINUOUS
10
3.49611
20
-1.31346
11
3.49712
21
-1.31171
0
LINE
8
BLACK
6
CONTINUOUS
10
3.49712
20
-1.31171
11
3.49901
21
-1.31102
0
LINE
8
BLACK
6
CONTINUOUS
10
3.49901
20
-1.31102
11
3.53838
21
-1.31102
0
LINE
8
BLACK
6
CONTINUOUS
10
3.53838
20
-1.31102
11
3.53877
21
-1.31109
0
LINE
8
BLACK
6
CONTINUOUS
10
5.03546
20
-1.3112
11
5.037
21
-1.3125
0
LINE
8
BLACK
6
CONTINUOUS
10
5.037
20
-1.3125
11
5.03735
21
-1.31449
0
LINE
8
BLACK
6
CONTINUOUS
10
5.03735
20
-1.31449
11
5.03634
21
-1.31624
0
LINE
8
BLACK
6
CONTINUOUS
10
5.03634
20
-1.31624
11
5.03445
21
-1.31693
0
LINE
8
BLACK
6
CONTINUOUS
10
5.03445
20
-1.31693
11
4.99803
21
-1.31693
0
LINE
8
BLACK
6
CONTINUOUS
10
4.99803
20
-1.31693
11
4.99803
21
-1.35335
0
LINE
8
BLACK
6
CONTINUOUS
10
4.99803
20
-1.35335
11
4.99785
21
-1.35436
0
LINE
8
BLACK
6
CONTINUOUS
10
4.99785
20
-1.35436
11
4.99655
21
-1.3559
0
LINE
8
BLACK
6
CONTINUOUS
10
4.99655
20
-1.3559
11
4.99456
21
-1.35625
0
LINE
8
BLACK
6
CONTINUOUS
10
4.99456
20
-1.35625
11
4.99281
21
-1.35524
0
LINE
8
BLACK
6
CONTINUOUS
10
4.99281
20
-1.35524
11
4.99212
21
-1.35335
0
LINE
8
BLACK
6
CONTINUOUS
10
4.99212
20
-1.35335
11
4.99212
21
-1.31398
0
LINE
8
BLACK
6
CONTINUOUS
10
4.99212
20
-1.31398
11
4.99219
21
-1.31359
0
LINE
8
BLACK
6
CONTINUOUS
10
4.99219
20
-1.31359
11
4.99217
21
-1.31346
0
LINE
8
BLACK
6
CONTINUOUS
10
4.99217
20
-1.31346
11
4.99223
21
-1.31335
0
LINE
8
BLACK
6
CONTINUOUS
10
4.99223
20
-1.31335
11
4.9923
21
-1.31297
0
LINE
8
BLACK
6
CONTINUOUS
10
4.9923
20
-1.31297
11
4.99279
21
-1.31238
0
LINE
8
BLACK
6
CONTINUOUS
10
4.99279
20
-1.31238
11
4.99318
21
-1.31171
0
LINE
8
BLACK
6
CONTINUOUS
10
4.99318
20
-1.31171
11
4.99343
21
-1.31162
0
LINE
8
BLACK
6
CONTINUOUS
10
4.99343
20
-1.31162
11
4.9936
21
-1.31142
0
LINE
8
BLACK
6
CONTINUOUS
10
4.9936
20
-1.31142
11
4.99436
21
-1.31129
0
LINE
8
BLACK
6
CONTINUOUS
10
4.99436
20
-1.31129
11
4.99508
21
-1.31102
0
LINE
8
BLACK
6
CONTINUOUS
10
4.99508
20
-1.31102
11
5.03445
21
-1.31102
0
LINE
8
BLACK
6
CONTINUOUS
10
5.03445
20
-1.31102
11
5.03546
21
-1.3112
0
LINE
8
BLACK
6
CONTINUOUS
10
5.54664
20
-1.31109
11
5.54677
21
-1.31107
0
LINE
8
BLACK
6
CONTINUOUS
10
5.54677
20
-1.31107
11
5.54688
21
-1.31113
0
LINE
8
BLACK
6
CONTINUOUS
10
5.54688
20
-1.31113
11
5.54727
21
-1.3112
0
LINE
8
BLACK
6
CONTINUOUS
10
5.54727
20
-1.3112
11
5.54785
21
-1.31169
0
LINE
8
BLACK
6
CONTINUOUS
10
5.54785
20
-1.31169
11
5.54852
21
-1.31208
0
LINE
8
BLACK
6
CONTINUOUS
10
5.54852
20
-1.31208
11
5.54861
21
-1.31233
0
LINE
8
BLACK
6
CONTINUOUS
10
5.54861
20
-1.31233
11
5.54881
21
-1.3125
0
LINE
8
BLACK
6
CONTINUOUS
10
5.54881
20
-1.3125
11
5.54895
21
-1.31325
0
LINE
8
BLACK
6
CONTINUOUS
10
5.54895
20
-1.31325
11
5.54921
21
-1.31398
0
LINE
8
BLACK
6
CONTINUOUS
10
5.54921
20
-1.31398
11
5.54921
21
-1.35335
0
LINE
8
BLACK
6
CONTINUOUS
10
5.54921
20
-1.35335
11
5.54903
21
-1.35436
0
LINE
8
BLACK
6
CONTINUOUS
10
5.54903
20
-1.35436
11
5.54773
21
-1.3559
0
LINE
8
BLACK
6
CONTINUOUS
10
5.54773
20
-1.3559
11
5.54574
21
-1.35625
0
LINE
8
BLACK
6
CONTINUOUS
10
5.54574
20
-1.35625
11
5.544
21
-1.35524
0
LINE
8
BLACK
6
CONTINUOUS
10
5.544
20
-1.35524
11
5.5433
21
-1.35335
0
LINE
8
BLACK
6
CONTINUOUS
10
5.5433
20
-1.35335
11
5.5433
21
-1.31693
0
LINE
8
BLACK
6
CONTINUOUS
10
5.5433
20
-1.31693
11
5.50689
21
-1.31693
0
LINE
8
BLACK
6
CONTINUOUS
10
5.50689
20
-1.31693
11
5.50588
21
-1.31675
0
LINE
8
BLACK
6
CONTINUOUS
10
5.50588
20
-1.31675
11
5.50433
21
-1.31545
0
LINE
8
BLACK
6
CONTINUOUS
10
5.50433
20
-1.31545
11
5.50398
21
-1.31346
0
LINE
8
BLACK
6
CONTINUOUS
10
5.50398
20
-1.31346
11
5.50499
21
-1.31171
0
LINE
8
BLACK
6
CONTINUOUS
10
5.50499
20
-1.31171
11
5.50689
21
-1.31102
0
LINE
8
BLACK
6
CONTINUOUS
10
5.50689
20
-1.31102
11
5.54626
21
-1.31102
0
LINE
8
BLACK
6
CONTINUOUS
10
5.54626
20
-1.31102
11
5.54664
21
-1.31109
0
LINE
8
BLACK
6
CONTINUOUS
10
3.54065
20
-1.1546
11
3.54134
21
-1.1565
0
LINE
8
BLACK
6
CONTINUOUS
10
3.54134
20
-1.1565
11
3.54134
21
-1.19587
0
LINE
8
BLACK
6
CONTINUOUS
10
3.54134
20
-1.19587
11
3.54127
21
-1.19625
0
LINE
8
BLACK
6
CONTINUOUS
10
3.54127
20
-1.19625
11
3.54129
21
-1.19638
0
LINE
8
BLACK
6
CONTINUOUS
10
3.54129
20
-1.19638
11
3.54123
21
-1.19649
0
LINE
8
BLACK
6
CONTINUOUS
10
3.54123
20
-1.19649
11
3.54116
21
-1.19688
0
LINE
8
BLACK
6
CONTINUOUS
10
3.54116
20
-1.19688
11
3.54067
21
-1.19746
0
LINE
8
BLACK
6
CONTINUOUS
10
3.54067
20
-1.19746
11
3.54028
21
-1.19813
0
LINE
8
BLACK
6
CONTINUOUS
10
3.54028
20
-1.19813
11
3.54003
21
-1.19822
0
LINE
8
BLACK
6
CONTINUOUS
10
3.54003
20
-1.19822
11
3.53986
21
-1.19842
0
LINE
8
BLACK
6
CONTINUOUS
10
3.53986
20
-1.19842
11
3.53911
21
-1.19856
0
LINE
8
BLACK
6
CONTINUOUS
10
3.53911
20
-1.19856
11
3.53838
21
-1.19882
0
LINE
8
BLACK
6
CONTINUOUS
10
3.53838
20
-1.19882
11
3.49901
21
-1.19882
0
LINE
8
BLACK
6
CONTINUOUS
10
3.49901
20
-1.19882
11
3.498
21
-1.19864
0
LINE
8
BLACK
6
CONTINUOUS
10
3.498
20
-1.19864
11
3.49646
21
-1.19734
0
LINE
8
BLACK
6
CONTINUOUS
10
3.49646
20
-1.19734
11
3.49611
21
-1.19535
0
LINE
8
BLACK
6
CONTINUOUS
10
3.49611
20
-1.19535
11
3.49712
21
-1.1936
0
LINE
8
BLACK
6
CONTINUOUS
10
3.49712
20
-1.1936
11
3.49901
21
-1.19291
0
LINE
8
BLACK
6
CONTINUOUS
10
3.49901
20
-1.19291
11
3.53543
21
-1.19291
0
LINE
8
BLACK
6
CONTINUOUS
10
3.53543
20
-1.19291
11
3.53543
21
-1.1565
0
LINE
8
BLACK
6
CONTINUOUS
10
3.53543
20
-1.1565
11
3.53561
21
-1.15549
0
LINE
8
BLACK
6
CONTINUOUS
10
3.53561
20
-1.15549
11
3.53691
21
-1.15394
0
LINE
8
BLACK
6
CONTINUOUS
10
3.53691
20
-1.15394
11
3.5389
21
-1.15359
0
LINE
8
BLACK
6
CONTINUOUS
10
3.5389
20
-1.15359
11
3.54065
21
-1.1546
0
LINE
8
BLACK
6
CONTINUOUS
10
3.65876
20
-1.1546
11
3.65945
21
-1.1565
0
LINE
8
BLACK
6
CONTINUOUS
10
3.65945
20
-1.1565
11
3.65945
21
-1.19291
0
LINE
8
BLACK
6
CONTINUOUS
10
3.65945
20
-1.19291
11
3.69586
21
-1.19291
0
LINE
8
BLACK
6
CONTINUOUS
10
3.69586
20
-1.19291
11
3.69687
21
-1.19309
0
LINE
8
BLACK
6
CONTINUOUS
10
3.69687
20
-1.19309
11
3.69842
21
-1.19439
0
LINE
8
BLACK
6
CONTINUOUS
10
3.69842
20
-1.19439
11
3.69877
21
-1.19638
0
LINE
8
BLACK
6
CONTINUOUS
10
3.69877
20
-1.19638
11
3.69776
21
-1.19813
0
LINE
8
BLACK
6
CONTINUOUS
10
3.69776
20
-1.19813
11
3.69586
21
-1.19882
0
LINE
8
BLACK
6
CONTINUOUS
10
3.69586
20
-1.19882
11
3.65649
21
-1.19882
0
LINE
8
BLACK
6
CONTINUOUS
10
3.65649
20
-1.19882
11
3.65611
21
-1.19875
0
LINE
8
BLACK
6
CONTINUOUS
10
3.65611
20
-1.19875
11
3.65598
21
-1.19877
0
LINE
8
BLACK
6
CONTINUOUS
10
3.65598
20
-1.19877
11
3.65587
21
-1.19871
0
LINE
8
BLACK
6
CONTINUOUS
10
3.65587
20
-1.19871
11
3.65548
21
-1.19864
0
LINE
8
BLACK
6
CONTINUOUS
10
3.65548
20
-1.19864
11
3.6549
21
-1.19815
0
LINE
8
BLACK
6
CONTINUOUS
10
3.6549
20
-1.19815
11
3.65423
21
-1.19776
0
LINE
8
BLACK
6
CONTINUOUS
10
3.65423
20
-1.19776
11
3.65414
21
-1.19751
0
LINE
8
BLACK
6
CONTINUOUS
10
3.65414
20
-1.19751
11
3.65394
21
-1.19734
0
LINE
8
BLACK
6
CONTINUOUS
10
3.65394
20
-1.19734
11
3.6538
21
-1.19659
0
LINE
8
BLACK
6
CONTINUOUS
10
3.6538
20
-1.19659
11
3.65354
21
-1.19587
0
LINE
8
BLACK
6
CONTINUOUS
10
3.65354
20
-1.19587
11
3.65354
21
-1.1565
0
LINE
8
BLACK
6
CONTINUOUS
10
3.65354
20
-1.1565
11
3.65372
21
-1.15549
0
LINE
8
BLACK
6
CONTINUOUS
10
3.65372
20
-1.15549
11
3.65502
21
-1.15394
0
LINE
8
BLACK
6
CONTINUOUS
10
3.65502
20
-1.15394
11
3.65701
21
-1.15359
0
LINE
8
BLACK
6
CONTINUOUS
10
3.65701
20
-1.15359
11
3.65876
21
-1.1546
0
LINE
8
BLACK
6
CONTINUOUS
10
4.20994
20
-1.1546
11
4.21063
21
-1.1565
0
LINE
8
BLACK
6
CONTINUOUS
10
4.21063
20
-1.1565
11
4.21063
21
-1.19587
0
LINE
8
BLACK
6
CONTINUOUS
10
4.21063
20
-1.19587
11
4.21056
21
-1.19625
0
LINE
8
BLACK
6
CONTINUOUS
10
4.21056
20
-1.19625
11
4.21058
21
-1.19638
0
LINE
8
BLACK
6
CONTINUOUS
10
4.21058
20
-1.19638
11
4.21052
21
-1.19649
0
LINE
8
BLACK
6
CONTINUOUS
10
4.21052
20
-1.19649
11
4.21045
21
-1.19688
0
LINE
8
BLACK
6
CONTINUOUS
10
4.21045
20
-1.19688
11
4.20996
21
-1.19746
0
LINE
8
BLACK
6
CONTINUOUS
10
4.20996
20
-1.19746
11
4.20957
21
-1.19813
0
LINE
8
BLACK
6
CONTINUOUS
10
4.20957
20
-1.19813
11
4.20932
21
-1.19822
0
LINE
8
BLACK
6
CONTINUOUS
10
4.20932
20
-1.19822
11
4.20915
21
-1.19842
0
LINE
8
BLACK
6
CONTINUOUS
10
4.20915
20
-1.19842
11
4.2084
21
-1.19856
0
LINE
8
BLACK
6
CONTINUOUS
10
4.2084
20
-1.19856
11
4.20768
21
-1.19882
0
LINE
8
BLACK
6
CONTINUOUS
10
4.20768
20
-1.19882
11
4.16831
21
-1.19882
0
LINE
8
BLACK
6
CONTINUOUS
10
4.16831
20
-1.19882
11
4.1673
21
-1.19864
0
LINE
8
BLACK
6
CONTINUOUS
10
4.1673
20
-1.19864
11
4.16575
21
-1.19734
0
LINE
8
BLACK
6
CONTINUOUS
10
4.16575
20
-1.19734
11
4.1654
21
-1.19535
0
LINE
8
BLACK
6
CONTINUOUS
10
4.1654
20
-1.19535
11
4.16641
21
-1.1936
0
LINE
8
BLACK
6
CONTINUOUS
10
4.16641
20
-1.1936
11
4.16831
21
-1.19291
0
LINE
8
BLACK
6
CONTINUOUS
10
4.16831
20
-1.19291
11
4.20472
21
-1.19291
0
LINE
8
BLACK
6
CONTINUOUS
10
4.20472
20
-1.19291
11
4.20472
21
-1.1565
0
LINE
8
BLACK
6
CONTINUOUS
10
4.20472
20
-1.1565
11
4.2049
21
-1.15549
0
LINE
8
BLACK
6
CONTINUOUS
10
4.2049
20
-1.15549
11
4.2062
21
-1.15394
0
LINE
8
BLACK
6
CONTINUOUS
10
4.2062
20
-1.15394
11
4.20819
21
-1.15359
0
LINE
8
BLACK
6
CONTINUOUS
10
4.20819
20
-1.15359
11
4.20994
21
-1.1546
0
LINE
8
BLACK
6
CONTINUOUS
10
4.32805
20
-1.1546
11
4.32874
21
-1.1565
0
LINE
8
BLACK
6
CONTINUOUS
10
4.32874
20
-1.1565
11
4.32874
21
-1.19291
0
LINE
8
BLACK
6
CONTINUOUS
10
4.32874
20
-1.19291
11
4.36516
21
-1.19291
0
LINE
8
BLACK
6
CONTINUOUS
10
4.36516
20
-1.19291
11
4.36617
21
-1.19309
0
LINE
8
BLACK
6
CONTINUOUS
10
4.36617
20
-1.19309
11
4.36771
21
-1.19439
0
LINE
8
BLACK
6
CONTINUOUS
10
4.36771
20
-1.19439
11
4.36806
21
-1.19638
0
LINE
8
BLACK
6
CONTINUOUS
10
4.36806
20
-1.19638
11
4.36705
21
-1.19813
0
LINE
8
BLACK
6
CONTINUOUS
10
4.36705
20
-1.19813
11
4.36516
21
-1.19882
0
LINE
8
BLACK
6
CONTINUOUS
10
4.36516
20
-1.19882
11
4.32579
21
-1.19882
0
LINE
8
BLACK
6
CONTINUOUS
10
4.32579
20
-1.19882
11
4.3254
21
-1.19875
0
LINE
8
BLACK
6
CONTINUOUS
10
4.3254
20
-1.19875
11
4.32527
21
-1.19877
0
LINE
8
BLACK
6
CONTINUOUS
10
4.32527
20
-1.19877
11
4.32516
21
-1.19871
0
LINE
8
BLACK
6
CONTINUOUS
10
4.32516
20
-1.19871
11
4.32478
21
-1.19864
0
LINE
8
BLACK
6
CONTINUOUS
10
4.32478
20
-1.19864
11
4.32419
21
-1.19815
0
LINE
8
BLACK
6
CONTINUOUS
10
4.32419
20
-1.19815
11
4.32352
21
-1.19776
0
LINE
8
BLACK
6
CONTINUOUS
10
4.32352
20
-1.19776
11
4.32343
21
-1.19751
0
LINE
8
BLACK
6
CONTINUOUS
10
4.32343
20
-1.19751
11
4.32323
21
-1.19734
0
LINE
8
BLACK
6
CONTINUOUS
10
4.32323
20
-1.19734
11
4.32309
21
-1.19659
0
LINE
8
BLACK
6
CONTINUOUS
10
4.32309
20
-1.19659
11
4.32283
21
-1.19587
0
LINE
8
BLACK
6
CONTINUOUS
10
4.32283
20
-1.19587
11
4.32283
21
-1.1565
0
LINE
8
BLACK
6
CONTINUOUS
10
4.32283
20
-1.1565
11
4.32301
21
-1.15549
0
LINE
8
BLACK
6
CONTINUOUS
10
4.32301
20
-1.15549
11
4.32431
21
-1.15394
0
LINE
8
BLACK
6
CONTINUOUS
10
4.32431
20
-1.15394
11
4.3263
21
-1.15359
0
LINE
8
BLACK
6
CONTINUOUS
10
4.3263
20
-1.15359
11
4.32805
21
-1.1546
0
LINE
8
BLACK
6
CONTINUOUS
10
2.98947
20
-1.1546
11
2.99016
21
-1.1565
0
LINE
8
BLACK
6
CONTINUOUS
10
2.99016
20
-1.1565
11
2.99016
21
-1.19291
0
LINE
8
BLACK
6
CONTINUOUS
10
2.99016
20
-1.19291
11
3.02657
21
-1.19291
0
LINE
8
BLACK
6
CONTINUOUS
10
3.02657
20
-1.19291
11
3.02758
21
-1.19309
0
LINE
8
BLACK
6
CONTINUOUS
10
3.02758
20
-1.19309
11
3.02913
21
-1.19439
0
LINE
8
BLACK
6
CONTINUOUS
10
3.02913
20
-1.19439
11
3.02948
21
-1.19638
0
LINE
8
BLACK
6
CONTINUOUS
10
3.02948
20
-1.19638
11
3.02847
21
-1.19813
0
LINE
8
BLACK
6
CONTINUOUS
10
3.02847
20
-1.19813
11
3.02657
21
-1.19882
0
LINE
8
BLACK
6
CONTINUOUS
10
3.02657
20
-1.19882
11
2.9872
21
-1.19882
0
LINE
8
BLACK
6
CONTINUOUS
10
2.9872
20
-1.19882
11
2.98682
21
-1.19875
0
LINE
8
BLACK
6
CONTINUOUS
10
2.98682
20
-1.19875
11
2.98669
21
-1.19877
0
LINE
8
BLACK
6
CONTINUOUS
10
2.98669
20
-1.19877
11
2.98658
21
-1.19871
0
LINE
8
BLACK
6
CONTINUOUS
10
2.98658
20
-1.19871
11
2.98619
21
-1.19864
0
LINE
8
BLACK
6
CONTINUOUS
10
2.98619
20
-1.19864
11
2.98561
21
-1.19815
0
LINE
8
BLACK
6
CONTINUOUS
10
2.98561
20
-1.19815
11
2.98494
21
-1.19776
0
LINE
8
BLACK
6
CONTINUOUS
10
2.98494
20
-1.19776
11
2.98485
21
-1.19751
0
LINE
8
BLACK
6
CONTINUOUS
10
2.98485
20
-1.19751
11
2.98465
21
-1.19734
0
LINE
8
BLACK
6
CONTINUOUS
10
2.98465
20
-1.19734
11
2.98451
21
-1.19659
0
LINE
8
BLACK
6
CONTINUOUS
10
2.98451
20
-1.19659
11
2.98425
21
-1.19587
0
LINE
8
BLACK
6
CONTINUOUS
10
2.98425
20
-1.19587
11
2.98425
21
-1.1565
0
LINE
8
BLACK
6
CONTINUOUS
10
2.98425
20
-1.1565
11
2.98443
21
-1.15549
0
LINE
8
BLACK
6
CONTINUOUS
10
2.98443
20
-1.15549
11
2.98573
21
-1.15394
0
LINE
8
BLACK
6
CONTINUOUS
10
2.98573
20
-1.15394
11
2.98772
21
-1.15359
0
LINE
8
BLACK
6
CONTINUOUS
10
2.98772
20
-1.15359
11
2.98947
21
-1.1546
0
LINE
8
BLACK
6
CONTINUOUS
10
4.87923
20
-1.1546
11
4.87992
21
-1.1565
0
LINE
8
BLACK
6
CONTINUOUS
10
4.87992
20
-1.1565
11
4.87992
21
-1.19587
0
LINE
8
BLACK
6
CONTINUOUS
10
4.87992
20
-1.19587
11
4.87985
21
-1.19625
0
LINE
8
BLACK
6
CONTINUOUS
10
4.87985
20
-1.19625
11
4.87987
21
-1.19638
0
LINE
8
BLACK
6
CONTINUOUS
10
4.87987
20
-1.19638
11
4.87981
21
-1.19649
0
LINE
8
BLACK
6
CONTINUOUS
10
4.87981
20
-1.19649
11
4.87974
21
-1.19688
0
LINE
8
BLACK
6
CONTINUOUS
10
4.87974
20
-1.19688
11
4.87925
21
-1.19746
0
LINE
8
BLACK
6
CONTINUOUS
10
4.87925
20
-1.19746
11
4.87886
21
-1.19813
0
LINE
8
BLACK
6
CONTINUOUS
10
4.87886
20
-1.19813
11
4.87861
21
-1.19822
0
LINE
8
BLACK
6
CONTINUOUS
10
4.87861
20
-1.19822
11
4.87844
21
-1.19842
0
LINE
8
BLACK
6
CONTINUOUS
10
4.87844
20
-1.19842
11
4.87769
21
-1.19856
0
LINE
8
BLACK
6
CONTINUOUS
10
4.87769
20
-1.19856
11
4.87697
21
-1.19882
0
LINE
8
BLACK
6
CONTINUOUS
10
4.87697
20
-1.19882
11
4.8376
21
-1.19882
0
LINE
8
BLACK
6
CONTINUOUS
10
4.8376
20
-1.19882
11
4.83659
21
-1.19864
0
LINE
8
BLACK
6
CONTINUOUS
10
4.83659
20
-1.19864
11
4.83504
21
-1.19734
0
LINE
8
BLACK
6
CONTINUOUS
10
4.83504
20
-1.19734
11
4.83469
21
-1.19535
0
LINE
8
BLACK
6
CONTINUOUS
10
4.83469
20
-1.19535
11
4.8357
21
-1.1936
0
LINE
8
BLACK
6
CONTINUOUS
10
4.8357
20
-1.1936
11
4.8376
21
-1.19291
0
LINE
8
BLACK
6
CONTINUOUS
10
4.8376
20
-1.19291
11
4.87401
21
-1.19291
0
LINE
8
BLACK
6
CONTINUOUS
10
4.87401
20
-1.19291
11
4.87401
21
-1.1565
0
LINE
8
BLACK
6
CONTINUOUS
10
4.87401
20
-1.1565
11
4.87419
21
-1.15549
0
LINE
8
BLACK
6
CONTINUOUS
10
4.87419
20
-1.15549
11
4.87549
21
-1.15394
0
LINE
8
BLACK
6
CONTINUOUS
10
4.87549
20
-1.15394
11
4.87748
21
-1.15359
0
LINE
8
BLACK
6
CONTINUOUS
10
4.87748
20
-1.15359
11
4.87923
21
-1.1546
0
LINE
8
BLACK
6
CONTINUOUS
10
5.54852
20
-1.1546
11
5.54921
21
-1.1565
0
LINE
8
BLACK
6
CONTINUOUS
10
5.54921
20
-1.1565
11
5.54921
21
-1.19587
0
LINE
8
BLACK
6
CONTINUOUS
10
5.54921
20
-1.19587
11
5.54914
21
-1.19625
0
LINE
8
BLACK
6
CONTINUOUS
10
5.54914
20
-1.19625
11
5.54917
21
-1.19638
0
LINE
8
BLACK
6
CONTINUOUS
10
5.54917
20
-1.19638
11
5.5491
21
-1.19649
0
LINE
8
BLACK
6
CONTINUOUS
10
5.5491
20
-1.19649
11
5.54903
21
-1.19688
0
LINE
8
BLACK
6
CONTINUOUS
10
5.54903
20
-1.19688
11
5.54854
21
-1.19746
0
LINE
8
BLACK
6
CONTINUOUS
10
5.54854
20
-1.19746
11
5.54816
21
-1.19813
0
LINE
8
BLACK
6
CONTINUOUS
10
5.54816
20
-1.19813
11
5.54791
21
-1.19822
0
LINE
8
BLACK
6
CONTINUOUS
10
5.54791
20
-1.19822
11
5.54773
21
-1.19842
0
LINE
8
BLACK
6
CONTINUOUS
10
5.54773
20
-1.19842
11
5.54698
21
-1.19856
0
LINE
8
BLACK
6
CONTINUOUS
10
5.54698
20
-1.19856
11
5.54626
21
-1.19882
0
LINE
8
BLACK
6
CONTINUOUS
10
5.54626
20
-1.19882
11
5.50689
21
-1.19882
0
LINE
8
BLACK
6
CONTINUOUS
10
5.50689
20
-1.19882
11
5.50588
21
-1.19864
0
LINE
8
BLACK
6
CONTINUOUS
10
5.50588
20
-1.19864
11
5.50433
21
-1.19734
0
LINE
8
BLACK
6
CONTINUOUS
10
5.50433
20
-1.19734
11
5.50398
21
-1.19535
0
LINE
8
BLACK
6
CONTINUOUS
10
5.50398
20
-1.19535
11
5.50499
21
-1.1936
0
LINE
8
BLACK
6
CONTINUOUS
10
5.50499
20
-1.1936
11
5.50689
21
-1.19291
0
LINE
8
BLACK
6
CONTINUOUS
10
5.50689
20
-1.19291
11
5.5433
21
-1.19291
0
LINE
8
BLACK
6
CONTINUOUS
10
5.5433
20
-1.19291
11
5.5433
21
-1.1565
0
LINE
8
BLACK
6
CONTINUOUS
10
5.5433
20
-1.1565
11
5.54348
21
-1.15549
0
LINE
8
BLACK
6
CONTINUOUS
10
5.54348
20
-1.15549
11
5.54478
21
-1.15394
0
LINE
8
BLACK
6
CONTINUOUS
10
5.54478
20
-1.15394
11
5.54677
21
-1.15359
0
LINE
8
BLACK
6
CONTINUOUS
10
5.54677
20
-1.15359
11
5.54852
21
-1.1546
0
LINE
8
BLACK
6
CONTINUOUS
10
4.99734
20
-1.1546
11
4.99803
21
-1.1565
0
LINE
8
BLACK
6
CONTINUOUS
10
4.99803
20
-1.1565
11
4.99803
21
-1.19291
0
LINE
8
BLACK
6
CONTINUOUS
10
4.99803
20
-1.19291
11
5.03445
21
-1.19291
0
LINE
8
BLACK
6
CONTINUOUS
10
5.03445
20
-1.19291
11
5.03546
21
-1.19309
0
LINE
8
BLACK
6
CONTINUOUS
10
5.03546
20
-1.19309
11
5.037
21
-1.19439
0
LINE
8
BLACK
6
CONTINUOUS
10
5.037
20
-1.19439
11
5.03735
21
-1.19638
0
LINE
8
BLACK
6
CONTINUOUS
10
5.03735
20
-1.19638
11
5.03634
21
-1.19813
0
LINE
8
BLACK
6
CONTINUOUS
10
5.03634
20
-1.19813
11
5.03445
21
-1.19882
0
LINE
8
BLACK
6
CONTINUOUS
10
5.03445
20
-1.19882
11
4.99508
21
-1.19882
0
LINE
8
BLACK
6
CONTINUOUS
10
4.99508
20
-1.19882
11
4.99469
21
-1.19875
0
LINE
8
BLACK
6
CONTINUOUS
10
4.99469
20
-1.19875
11
4.99456
21
-1.19877
0
LINE
8
BLACK
6
CONTINUOUS
10
4.99456
20
-1.19877
11
4.99445
21
-1.19871
0
LINE
8
BLACK
6
CONTINUOUS
10
4.99445
20
-1.19871
11
4.99407
21
-1.19864
0
LINE
8
BLACK
6
CONTINUOUS
10
4.99407
20
-1.19864
11
4.99348
21
-1.19815
0
LINE
8
BLACK
6
CONTINUOUS
10
4.99348
20
-1.19815
11
4.99281
21
-1.19776
0
LINE
8
BLACK
6
CONTINUOUS
10
4.99281
20
-1.19776
11
4.99272
21
-1.19751
0
LINE
8
BLACK
6
CONTINUOUS
10
4.99272
20
-1.19751
11
4.99252
21
-1.19734
0
LINE
8
BLACK
6
CONTINUOUS
10
4.99252
20
-1.19734
11
4.99239
21
-1.19659
0
LINE
8
BLACK
6
CONTINUOUS
10
4.99239
20
-1.19659
11
4.99212
21
-1.19587
0
LINE
8
BLACK
6
CONTINUOUS
10
4.99212
20
-1.19587
11
4.99212
21
-1.1565
0
LINE
8
BLACK
6
CONTINUOUS
10
4.99212
20
-1.1565
11
4.9923
21
-1.15549
0
LINE
8
BLACK
6
CONTINUOUS
10
4.9923
20
-1.15549
11
4.9936
21
-1.15394
0
LINE
8
BLACK
6
CONTINUOUS
10
4.9936
20
-1.15394
11
4.99559
21
-1.15359
0
LINE
8
BLACK
6
CONTINUOUS
10
4.99559
20
-1.15359
11
4.99734
21
-1.1546
0
LINE
8
BLACK
6
CONTINUOUS
10
3.69687
20
-0.64191
11
3.69842
21
-0.643208
0
LINE
8
BLACK
6
CONTINUOUS
10
3.69842
20
-0.643208
11
3.69877
21
-0.645197
0
LINE
8
BLACK
6
CONTINUOUS
10
3.69877
20
-0.645197
11
3.69776
21
-0.646947
0
LINE
8
BLACK
6
CONTINUOUS
10
3.69776
20
-0.646947
11
3.69586
21
-0.647637
0
LINE
8
BLACK
6
CONTINUOUS
10
3.69586
20
-0.647637
11
3.65945
21
-0.647637
0
LINE
8
BLACK
6
CONTINUOUS
10
3.65945
20
-0.647637
11
3.65945
21
-0.684055
0
LINE
8
BLACK
6
CONTINUOUS
10
3.65945
20
-0.684055
11
3.65927
21
-0.685065
0
LINE
8
BLACK
6
CONTINUOUS
10
3.65927
20
-0.685065
11
3.65797
21
-0.686612
0
LINE
8
BLACK
6
CONTINUOUS
10
3.65797
20
-0.686612
11
3.65598
21
-0.686963
0
LINE
8
BLACK
6
CONTINUOUS
10
3.65598
20
-0.686963
11
3.65423
21
-0.685953
0
LINE
8
BLACK
6
CONTINUOUS
10
3.65423
20
-0.685953
11
3.65354
21
-0.684055
0
LINE
8
BLACK
6
CONTINUOUS
10
3.65354
20
-0.684055
11
3.65354
21
-0.644685
0
LINE
8
BLACK
6
CONTINUOUS
10
3.65354
20
-0.644685
11
3.65361
21
-0.644301
0
LINE
8
BLACK
6
CONTINUOUS
10
3.65361
20
-0.644301
11
3.65359
21
-0.644172
0
LINE
8
BLACK
6
CONTINUOUS
10
3.65359
20
-0.644172
11
3.65365
21
-0.644058
0
LINE
8
BLACK
6
CONTINUOUS
10
3.65365
20
-0.644058
11
3.65372
21
-0.643675
0
LINE
8
BLACK
6
CONTINUOUS
10
3.65372
20
-0.643675
11
3.65421
21
-0.643087
0
LINE
8
BLACK
6
CONTINUOUS
10
3.65421
20
-0.643087
11
3.6546
21
-0.642423
0
LINE
8
BLACK
6
CONTINUOUS
10
3.6546
20
-0.642423
11
3.65485
21
-0.642332
0
LINE
8
BLACK
6
CONTINUOUS
10
3.65485
20
-0.642332
11
3.65502
21
-0.642127
0
LINE
8
BLACK
6
CONTINUOUS
10
3.65502
20
-0.642127
11
3.65577
21
-0.641994
0
LINE
8
BLACK
6
CONTINUOUS
10
3.65577
20
-0.641994
11
3.65649
21
-0.641732
0
LINE
8
BLACK
6
CONTINUOUS
10
3.65649
20
-0.641732
11
3.69586
21
-0.641732
0
LINE
8
BLACK
6
CONTINUOUS
10
3.69586
20
-0.641732
11
3.69687
21
-0.64191
0
LINE
8
BLACK
6
CONTINUOUS
10
4.20806
20
-0.641799
11
4.20819
21
-0.641777
0
LINE
8
BLACK
6
CONTINUOUS
10
4.20819
20
-0.641777
11
4.2083
21
-0.641842
0
LINE
8
BLACK
6
CONTINUOUS
10
4.2083
20
-0.641842
11
4.20869
21
-0.64191
0
LINE
8
BLACK
6
CONTINUOUS
10
4.20869
20
-0.64191
11
4.20927
21
-0.642403
0
LINE
8
BLACK
6
CONTINUOUS
10
4.20927
20
-0.642403
11
4.20994
21
-0.642787
0
LINE
8
BLACK
6
CONTINUOUS
10
4.20994
20
-0.642787
11
4.21003
21
-0.643037
0
LINE
8
BLACK
6
CONTINUOUS
10
4.21003
20
-0.643037
11
4.21023
21
-0.643208
0
LINE
8
BLACK
6
CONTINUOUS
10
4.21023
20
-0.643208
11
4.21037
21
-0.643964
0
LINE
8
BLACK
6
CONTINUOUS
10
4.21037
20
-0.643964
11
4.21063
21
-0.644685
0
LINE
8
BLACK
6
CONTINUOUS
10
4.21063
20
-0.644685
11
4.21063
21
-0.684055
0
LINE
8
BLACK
6
CONTINUOUS
10
4.21063
20
-0.684055
11
4.21045
21
-0.685065
0
LINE
8
BLACK
6
CONTINUOUS
10
4.21045
20
-0.685065
11
4.20915
21
-0.686612
0
LINE
8
BLACK
6
CONTINUOUS
10
4.20915
20
-0.686612
11
4.20716
21
-0.686963
0
LINE
8
BLACK
6
CONTINUOUS
10
4.20716
20
-0.686963
11
4.20541
21
-0.685953
0
LINE
8
BLACK
6
CONTINUOUS
10
4.20541
20
-0.685953
11
4.20472
21
-0.684055
0
LINE
8
BLACK
6
CONTINUOUS
10
4.20472
20
-0.684055
11
4.20472
21
-0.647637
0
LINE
8
BLACK
6
CONTINUOUS
10
4.20472
20
-0.647637
11
4.16831
21
-0.647637
0
LINE
8
BLACK
6
CONTINUOUS
10
4.16831
20
-0.647637
11
4.1673
21
-0.647459
0
LINE
8
BLACK
6
CONTINUOUS
10
4.1673
20
-0.647459
11
4.16575
21
-0.646161
0
LINE
8
BLACK
6
CONTINUOUS
10
4.16575
20
-0.646161
11
4.1654
21
-0.644172
0
LINE
8
BLACK
6
CONTINUOUS
10
4.1654
20
-0.644172
11
4.16641
21
-0.642423
0
LINE
8
BLACK
6
CONTINUOUS
10
4.16641
20
-0.642423
11
4.16831
21
-0.641732
0
LINE
8
BLACK
6
CONTINUOUS
10
4.16831
20
-0.641732
11
4.20768
21
-0.641732
0
LINE
8
BLACK
6
CONTINUOUS
10
4.20768
20
-0.641732
11
4.20806
21
-0.641799
0
LINE
8
BLACK
6
CONTINUOUS
10
4.36617
20
-0.64191
11
4.36771
21
-0.643208
0
LINE
8
BLACK
6
CONTINUOUS
10
4.36771
20
-0.643208
11
4.36806
21
-0.645197
0
LINE
8
BLACK
6
CONTINUOUS
10
4.36806
20
-0.645197
11
4.36705
21
-0.646947
0
LINE
8
BLACK
6
CONTINUOUS
10
4.36705
20
-0.646947
11
4.36516
21
-0.647637
0
LINE
8
BLACK
6
CONTINUOUS
10
4.36516
20
-0.647637
11
4.32874
21
-0.647637
0
LINE
8
BLACK
6
CONTINUOUS
10
4.32874
20
-0.647637
11
4.32874
21
-0.684055
0
LINE
8
BLACK
6
CONTINUOUS
10
4.32874
20
-0.684055
11
4.32856
21
-0.685065
0
LINE
8
BLACK
6
CONTINUOUS
10
4.32856
20
-0.685065
11
4.32726
21
-0.686612
0
LINE
8
BLACK
6
CONTINUOUS
10
4.32726
20
-0.686612
11
4.32527
21
-0.686963
0
LINE
8
BLACK
6
CONTINUOUS
10
4.32527
20
-0.686963
11
4.32352
21
-0.685953
0
LINE
8
BLACK
6
CONTINUOUS
10
4.32352
20
-0.685953
11
4.32283
21
-0.684055
0
LINE
8
BLACK
6
CONTINUOUS
10
4.32283
20
-0.684055
11
4.32283
21
-0.644685
0
LINE
8
BLACK
6
CONTINUOUS
10
4.32283
20
-0.644685
11
4.3229
21
-0.644301
0
LINE
8
BLACK
6
CONTINUOUS
10
4.3229
20
-0.644301
11
4.32288
21
-0.644172
0
LINE
8
BLACK
6
CONTINUOUS
10
4.32288
20
-0.644172
11
4.32294
21
-0.644058
0
LINE
8
BLACK
6
CONTINUOUS
10
4.32294
20
-0.644058
11
4.32301
21
-0.643675
0
LINE
8
BLACK
6
CONTINUOUS
10
4.32301
20
-0.643675
11
4.3235
21
-0.643087
0
LINE
8
BLACK
6
CONTINUOUS
10
4.3235
20
-0.643087
11
4.32389
21
-0.642423
0
LINE
8
BLACK
6
CONTINUOUS
10
4.32389
20
-0.642423
11
4.32414
21
-0.642332
0
LINE
8
BLACK
6
CONTINUOUS
10
4.32414
20
-0.642332
11
4.32431
21
-0.642127
0
LINE
8
BLACK
6
CONTINUOUS
10
4.32431
20
-0.642127
11
4.32506
21
-0.641994
0
LINE
8
BLACK
6
CONTINUOUS
10
4.32506
20
-0.641994
11
4.32579
21
-0.641732
0
LINE
8
BLACK
6
CONTINUOUS
10
4.32579
20
-0.641732
11
4.36516
21
-0.641732
0
LINE
8
BLACK
6
CONTINUOUS
10
4.36516
20
-0.641732
11
4.36617
21
-0.64191
0
LINE
8
BLACK
6
CONTINUOUS
10
5.03546
20
-0.64191
11
5.037
21
-0.643208
0
LINE
8
BLACK
6
CONTINUOUS
10
5.037
20
-0.643208
11
5.03735
21
-0.645197
0
LINE
8
BLACK
6
CONTINUOUS
10
5.03735
20
-0.645197
11
5.03634
21
-0.646947
0
LINE
8
BLACK
6
CONTINUOUS
10
5.03634
20
-0.646947
11
5.03445
21
-0.647637
0
LINE
8
BLACK
6
CONTINUOUS
10
5.03445
20
-0.647637
11
4.99803
21
-0.647637
0
LINE
8
BLACK
6
CONTINUOUS
10
4.99803
20
-0.647637
11
4.99803
21
-0.684055
0
LINE
8
BLACK
6
CONTINUOUS
10
4.99803
20
-0.684055
11
4.99785
21
-0.685065
0
LINE
8
BLACK
6
CONTINUOUS
10
4.99785
20
-0.685065
11
4.99655
21
-0.686612
0
LINE
8
BLACK
6
CONTINUOUS
10
4.99655
20
-0.686612
11
4.99456
21
-0.686963
0
LINE
8
BLACK
6
CONTINUOUS
10
4.99456
20
-0.686963
11
4.99281
21
-0.685953
0
LINE
8
BLACK
6
CONTINUOUS
10
4.99281
20
-0.685953
11
4.99212
21
-0.684055
0
LINE
8
BLACK
6
CONTINUOUS
10
4.99212
20
-0.684055
11
4.99212
21
-0.644685
0
LINE
8
BLACK
6
CONTINUOUS
10
4.99212
20
-0.644685
11
4.99219
21
-0.644301
0
LINE
8
BLACK
6
CONTINUOUS
10
4.99219
20
-0.644301
11
4.99217
21
-0.644172
0
LINE
8
BLACK
6
CONTINUOUS
10
4.99217
20
-0.644172
11
4.99223
21
-0.644058
0
LINE
8
BLACK
6
CONTINUOUS
10
4.99223
20
-0.644058
11
4.9923
21
-0.643675
0
LINE
8
BLACK
6
CONTINUOUS
10
4.9923
20
-0.643675
11
4.99279
21
-0.643087
0
LINE
8
BLACK
6
CONTINUOUS
10
4.99279
20
-0.643087
11
4.99318
21
-0.642423
0
LINE
8
BLACK
6
CONTINUOUS
10
4.99318
20
-0.642423
11
4.99343
21
-0.642332
0
LINE
8
BLACK
6
CONTINUOUS
10
4.99343
20
-0.642332
11
4.9936
21
-0.642127
0
LINE
8
BLACK
6
CONTINUOUS
10
4.9936
20
-0.642127
11
4.99436
21
-0.641994
0
LINE
8
BLACK
6
CONTINUOUS
10
4.99436
20
-0.641994
11
4.99508
21
-0.641732
0
LINE
8
BLACK
6
CONTINUOUS
10
4.99508
20
-0.641732
11
5.03445
21
-0.641732
0
LINE
8
BLACK
6
CONTINUOUS
10
5.03445
20
-0.641732
11
5.03546
21
-0.64191
0
LINE
8
BLACK
6
CONTINUOUS
10
5.54664
20
-0.641799
11
5.54677
21
-0.641777
0
LINE
8
BLACK
6
CONTINUOUS
10
5.54677
20
-0.641777
11
5.54688
21
-0.641842
0
LINE
8
BLACK
6
CONTINUOUS
10
5.54688
20
-0.641842
11
5.54727
21
-0.64191
0
LINE
8
BLACK
6
CONTINUOUS
10
5.54727
20
-0.64191
11
5.54785
21
-0.642403
0
LINE
8
BLACK
6
CONTINUOUS
10
5.54785
20
-0.642403
11
5.54852
21
-0.642787
0
LINE
8
BLACK
6
CONTINUOUS
10
5.54852
20
-0.642787
11
5.54861
21
-0.643037
0
LINE
8
BLACK
6
CONTINUOUS
10
5.54861
20
-0.643037
11
5.54881
21
-0.643208
0
LINE
8
BLACK
6
CONTINUOUS
10
5.54881
20
-0.643208
11
5.54895
21
-0.643964
0
LINE
8
BLACK
6
CONTINUOUS
10
5.54895
20
-0.643964
11
5.54921
21
-0.644685
0
LINE
8
BLACK
6
CONTINUOUS
10
5.54921
20
-0.644685
11
5.54921
21
-0.684055
0
LINE
8
BLACK
6
CONTINUOUS
10
5.54921
20
-0.684055
11
5.54903
21
-0.685065
0
LINE
8
BLACK
6
CONTINUOUS
10
5.54903
20
-0.685065
11
5.54773
21
-0.686612
0
LINE
8
BLACK
6
CONTINUOUS
10
5.54773
20
-0.686612
11
5.54574
21
-0.686963
0
LINE
8
BLACK
6
CONTINUOUS
10
5.54574
20
-0.686963
11
5.544
21
-0.685953
0
LINE
8
BLACK
6
CONTINUOUS
10
5.544
20
-0.685953
11
5.5433
21
-0.684055
0
LINE
8
BLACK
6
CONTINUOUS
10
5.5433
20
-0.684055
11
5.5433
21
-0.647637
0
LINE
8
BLACK
6
CONTINUOUS
10
5.5433
20
-0.647637
11
5.50689
21
-0.647637
0
LINE
8
BLACK
6
CONTINUOUS
10
5.50689
20
-0.647637
11
5.50588
21
-0.647459
0
LINE
8
BLACK
6
CONTINUOUS
10
5.50588
20
-0.647459
11
5.50433
21
-0.646161
0
LINE
8
BLACK
6
CONTINUOUS
10
5.50433
20
-0.646161
11
5.50398
21
-0.644172
0
LINE
8
BLACK
6
CONTINUOUS
10
5.50398
20
-0.644172
11
5.50499
21
-0.642423
0
LINE
8
BLACK
6
CONTINUOUS
10
5.50499
20
-0.642423
11
5.50689
21
-0.641732
0
LINE
8
BLACK
6
CONTINUOUS
10
5.50689
20
-0.641732
11
5.54626
21
-0.641732
0
LINE
8
BLACK
6
CONTINUOUS
10
5.54626
20
-0.641732
11
5.54664
21
-0.641799
0
LINE
8
BLACK
6
CONTINUOUS
10
3.02758
20
-0.64191
11
3.02913
21
-0.643208
0
LINE
8
BLACK
6
CONTINUOUS
10
3.02913
20
-0.643208
11
3.02948
21
-0.645197
0
LINE
8
BLACK
6
CONTINUOUS
10
3.02948
20
-0.645197
11
3.02847
21
-0.646947
0
LINE
8
BLACK
6
CONTINUOUS
10
3.02847
20
-0.646947
11
3.02657
21
-0.647637
0
LINE
8
BLACK
6
CONTINUOUS
10
3.02657
20
-0.647637
11
2.99016
21
-0.647637
0
LINE
8
BLACK
6
CONTINUOUS
10
2.99016
20
-0.647637
11
2.99016
21
-0.684055
0
LINE
8
BLACK
6
CONTINUOUS
10
2.99016
20
-0.684055
11
2.98998
21
-0.685065
0
LINE
8
BLACK
6
CONTINUOUS
10
2.98998
20
-0.685065
11
2.98868
21
-0.686612
0
LINE
8
BLACK
6
CONTINUOUS
10
2.98868
20
-0.686612
11
2.98669
21
-0.686963
0
LINE
8
BLACK
6
CONTINUOUS
10
2.98669
20
-0.686963
11
2.98494
21
-0.685953
0
LINE
8
BLACK
6
CONTINUOUS
10
2.98494
20
-0.685953
11
2.98425
21
-0.684055
0
LINE
8
BLACK
6
CONTINUOUS
10
2.98425
20
-0.684055
11
2.98425
21
-0.644685
0
LINE
8
BLACK
6
CONTINUOUS
10
2.98425
20
-0.644685
11
2.98432
21
-0.644301
0
LINE
8
BLACK
6
CONTINUOUS
10
2.98432
20
-0.644301
11
2.9843
21
-0.644172
0
LINE
8
BLACK
6
CONTINUOUS
10
2.9843
20
-0.644172
11
2.98436
21
-0.644058
0
LINE
8
BLACK
6
CONTINUOUS
10
2.98436
20
-0.644058
11
2.98443
21
-0.643675
0
LINE
8
BLACK
6
CONTINUOUS
10
2.98443
20
-0.643675
11
2.98492
21
-0.643087
0
LINE
8
BLACK
6
CONTINUOUS
10
2.98492
20
-0.643087
11
2.98531
21
-0.642423
0
LINE
8
BLACK
6
CONTINUOUS
10
2.98531
20
-0.642423
11
2.98556
21
-0.642332
0
LINE
8
BLACK
6
CONTINUOUS
10
2.98556
20
-0.642332
11
2.98573
21
-0.642127
0
LINE
8
BLACK
6
CONTINUOUS
10
2.98573
20
-0.642127
11
2.98648
21
-0.641994
0
LINE
8
BLACK
6
CONTINUOUS
10
2.98648
20
-0.641994
11
2.9872
21
-0.641732
0
LINE
8
BLACK
6
CONTINUOUS
10
2.9872
20
-0.641732
11
3.02657
21
-0.641732
0
LINE
8
BLACK
6
CONTINUOUS
10
3.02657
20
-0.641732
11
3.02758
21
-0.64191
0
LINE
8
BLACK
6
CONTINUOUS
10
4.87735
20
-0.641799
11
4.87748
21
-0.641777
0
LINE
8
BLACK
6
CONTINUOUS
10
4.87748
20
-0.641777
11
4.87759
21
-0.641842
0
LINE
8
BLACK
6
CONTINUOUS
10
4.87759
20
-0.641842
11
4.87798
21
-0.64191
0
LINE
8
BLACK
6
CONTINUOUS
10
4.87798
20
-0.64191
11
4.87856
21
-0.642403
0
LINE
8
BLACK
6
CONTINUOUS
10
4.87856
20
-0.642403
11
4.87923
21
-0.642787
0
LINE
8
BLACK
6
CONTINUOUS
10
4.87923
20
-0.642787
11
4.87932
21
-0.643037
0
LINE
8
BLACK
6
CONTINUOUS
10
4.87932
20
-0.643037
11
4.87952
21
-0.643208
0
LINE
8
BLACK
6
CONTINUOUS
10
4.87952
20
-0.643208
11
4.87966
21
-0.643964
0
LINE
8
BLACK
6
CONTINUOUS
10
4.87966
20
-0.643964
11
4.87992
21
-0.644685
0
LINE
8
BLACK
6
CONTINUOUS
10
4.87992
20
-0.644685
11
4.87992
21
-0.684055
0
LINE
8
BLACK
6
CONTINUOUS
10
4.87992
20
-0.684055
11
4.87974
21
-0.685065
0
LINE
8
BLACK
6
CONTINUOUS
10
4.87974
20
-0.685065
11
4.87844
21
-0.686612
0
LINE
8
BLACK
6
CONTINUOUS
10
4.87844
20
-0.686612
11
4.87645
21
-0.686963
0
LINE
8
BLACK
6
CONTINUOUS
10
4.87645
20
-0.686963
11
4.8747
21
-0.685953
0
LINE
8
BLACK
6
CONTINUOUS
10
4.8747
20
-0.685953
11
4.87401
21
-0.684055
0
LINE
8
BLACK
6
CONTINUOUS
10
4.87401
20
-0.684055
11
4.87401
21
-0.647637
0
LINE
8
BLACK
6
CONTINUOUS
10
4.87401
20
-0.647637
11
4.8376
21
-0.647637
0
LINE
8
BLACK
6
CONTINUOUS
10
4.8376
20
-0.647637
11
4.83659
21
-0.647459
0
LINE
8
BLACK
6
CONTINUOUS
10
4.83659
20
-0.647459
11
4.83504
21
-0.646161
0
LINE
8
BLACK
6
CONTINUOUS
10
4.83504
20
-0.646161
11
4.83469
21
-0.644172
0
LINE
8
BLACK
6
CONTINUOUS
10
4.83469
20
-0.644172
11
4.8357
21
-0.642423
0
LINE
8
BLACK
6
CONTINUOUS
10
4.8357
20
-0.642423
11
4.8376
21
-0.641732
0
LINE
8
BLACK
6
CONTINUOUS
10
4.8376
20
-0.641732
11
4.87697
21
-0.641732
0
LINE
8
BLACK
6
CONTINUOUS
10
4.87697
20
-0.641732
11
4.87735
21
-0.641799
0
LINE
8
BLACK
6
CONTINUOUS
10
3.53877
20
-0.641799
11
3.5389
21
-0.641777
0
LINE
8
BLACK
6
CONTINUOUS
10
3.5389
20
-0.641777
11
3.53901
21
-0.641842
0
LINE
8
BLACK
6
CONTINUOUS
10
3.53901
20
-0.641842
11
3.53939
21
-0.64191
0
LINE
8
BLACK
6
CONTINUOUS
10
3.53939
20
-0.64191
11
3.53998
21
-0.642403
0
LINE
8
BLACK
6
CONTINUOUS
10
3.53998
20
-0.642403
11
3.54065
21
-0.642787
0
LINE
8
BLACK
6
CONTINUOUS
10
3.54065
20
-0.642787
11
3.54074
21
-0.643037
0
LINE
8
BLACK
6
CONTINUOUS
10
3.54074
20
-0.643037
11
3.54094
21
-0.643208
0
LINE
8
BLACK
6
CONTINUOUS
10
3.54094
20
-0.643208
11
3.54107
21
-0.643964
0
LINE
8
BLACK
6
CONTINUOUS
10
3.54107
20
-0.643964
11
3.54134
21
-0.644685
0
LINE
8
BLACK
6
CONTINUOUS
10
3.54134
20
-0.644685
11
3.54134
21
-0.684055
0
LINE
8
BLACK
6
CONTINUOUS
10
3.54134
20
-0.684055
11
3.54116
21
-0.685065
0
LINE
8
BLACK
6
CONTINUOUS
10
3.54116
20
-0.685065
11
3.53986
21
-0.686612
0
LINE
8
BLACK
6
CONTINUOUS
10
3.53986
20
-0.686612
11
3.53787
21
-0.686963
0
LINE
8
BLACK
6
CONTINUOUS
10
3.53787
20
-0.686963
11
3.53612
21
-0.685953
0
LINE
8
BLACK
6
CONTINUOUS
10
3.53612
20
-0.685953
11
3.53543
21
-0.684055
0
LINE
8
BLACK
6
CONTINUOUS
10
3.53543
20
-0.684055
11
3.53543
21
-0.647637
0
LINE
8
BLACK
6
CONTINUOUS
10
3.53543
20
-0.647637
11
3.49901
21
-0.647637
0
LINE
8
BLACK
6
CONTINUOUS
10
3.49901
20
-0.647637
11
3.498
21
-0.647459
0
LINE
8
BLACK
6
CONTINUOUS
10
3.498
20
-0.647459
11
3.49646
21
-0.646161
0
LINE
8
BLACK
6
CONTINUOUS
10
3.49646
20
-0.646161
11
3.49611
21
-0.644172
0
LINE
8
BLACK
6
CONTINUOUS
10
3.49611
20
-0.644172
11
3.49712
21
-0.642423
0
LINE
8
BLACK
6
CONTINUOUS
10
3.49712
20
-0.642423
11
3.49901
21
-0.641732
0
LINE
8
BLACK
6
CONTINUOUS
10
3.49901
20
-0.641732
11
3.53838
21
-0.641732
0
LINE
8
BLACK
6
CONTINUOUS
10
3.53838
20
-0.641732
11
3.53877
21
-0.641799
  0
ENDSEC
  0
EOF
