%TF.GenerationSoftware,KiCad,Pcbnew,(6.0.4-0)*%
%TF.CreationDate,2023-01-14T23:55:11-06:00*%
%TF.ProjectId,kowgary16_cfx,6b6f7767-6172-4793-9136-5f6366782e6b,rev?*%
%TF.SameCoordinates,Original*%
%TF.FileFunction,Copper,L1,Top*%
%TF.FilePolarity,Positive*%
%FSLAX46Y46*%
G04 Gerber Fmt 4.6, Leading zero omitted, Abs format (unit mm)*
G04 Created by KiCad (PCBNEW (6.0.4-0)) date 2023-01-14 23:55:11*
%MOMM*%
%LPD*%
G01*
G04 APERTURE LIST*
%TA.AperFunction,ComponentPad*%
%ADD10O,1.000000X2.100000*%
%TD*%
%TA.AperFunction,ComponentPad*%
%ADD11O,1.000000X1.600000*%
%TD*%
%TA.AperFunction,ViaPad*%
%ADD12C,0.800000*%
%TD*%
%TA.AperFunction,Conductor*%
%ADD13C,0.200000*%
%TD*%
%TA.AperFunction,Conductor*%
%ADD14C,0.250000*%
%TD*%
G04 APERTURE END LIST*
D10*
%TO.P,J1,S1,SHIELD*%
%TO.N,GND*%
X106888281Y-20104992D03*
D11*
X106888281Y-15924992D03*
X115528281Y-15924992D03*
D10*
X115528281Y-20104992D03*
%TD*%
D12*
%TO.N,col2*%
X94208289Y-31037799D03*
X94208289Y-32583318D03*
%TO.N,col1*%
X87124959Y-62333304D03*
X87124959Y-65166636D03*
%TO.N,GND*%
X103800000Y-34224500D03*
X126791607Y-29749986D03*
X106760000Y-24220000D03*
X103900000Y-32775500D03*
X124666608Y-29749986D03*
%TO.N,Net-(B1-Pad2)*%
X117760089Y-34400000D03*
X115838365Y-34638365D03*
%TO.N,Net-(C2-Pad2)*%
X121934486Y-37521348D03*
X115474446Y-38249982D03*
%TO.N,+5V*%
X111938982Y-29500000D03*
X115400000Y-31614500D03*
X123249942Y-31874985D03*
X127499940Y-33999984D03*
%TO.N,row1*%
X114041613Y-16775500D03*
X123400000Y-27200000D03*
X116874945Y-16999992D03*
X122600000Y-26400000D03*
X88600000Y-25000000D03*
X103800000Y-27000000D03*
X138800000Y-27200000D03*
%TO.N,Net-(D3-Pad2)*%
X122541609Y-28333320D03*
X120416610Y-26916654D03*
%TO.N,row2*%
X106356406Y-29790789D03*
X122541609Y-43208313D03*
X112425408Y-46749978D03*
X107666616Y-46749978D03*
X123958275Y-47100980D03*
X88541625Y-43208313D03*
X139541601Y-43208313D03*
X123958275Y-54541641D03*
X112624947Y-54541641D03*
X104626176Y-43415420D03*
%TO.N,row3*%
X98208767Y-59250452D03*
X103703597Y-36061495D03*
X97749954Y-38249982D03*
X105049454Y-30220001D03*
X122541609Y-60208305D03*
X101999952Y-36124983D03*
X97749954Y-41574981D03*
X105541617Y-60208305D03*
X139541601Y-60208305D03*
X99874953Y-36124983D03*
X88541625Y-60208305D03*
%TO.N,row4*%
X122541609Y-77208297D03*
X95984531Y-40026225D03*
X96333288Y-32583318D03*
X88541625Y-77208297D03*
X96792101Y-76250444D03*
X105541617Y-77208297D03*
X139541601Y-77208297D03*
X100262268Y-31487670D03*
X96333288Y-41791647D03*
%TO.N,VBUS*%
X113750000Y-18500000D03*
X111750000Y-18500000D03*
%TO.N,col1*%
X100525500Y-37200000D03*
X101974500Y-37200000D03*
%TO.N,col2*%
X99735416Y-37812187D03*
X102397256Y-38105693D03*
%TO.N,col3*%
X103000000Y-40800000D03*
X108600000Y-42000000D03*
X103104011Y-38812449D03*
X108599945Y-28775500D03*
%TO.N,col4*%
X128208273Y-33291651D03*
X125600000Y-48899500D03*
X103887548Y-39595985D03*
X128916606Y-38249982D03*
X103705378Y-42494622D03*
X103800000Y-44200000D03*
%TD*%
D13*
%TO.N,col2*%
X94208289Y-32583318D02*
X94208289Y-31037799D01*
D14*
%TO.N,col1*%
X87124959Y-65166636D02*
X87124959Y-62333304D01*
D13*
%TO.N,GND*%
X103800000Y-32875500D02*
X103900000Y-32775500D01*
X103800000Y-34224500D02*
X103800000Y-32875500D01*
D14*
X106760000Y-24220000D02*
X106888281Y-24091719D01*
X106888281Y-15924992D02*
X115528281Y-15924992D01*
X106250934Y-25669011D02*
X106250934Y-24729066D01*
D13*
X124666608Y-29749986D02*
X126791607Y-29749986D01*
D14*
X106250934Y-25669011D02*
X103900000Y-28019945D01*
X106888281Y-24091719D02*
X106888281Y-20104992D01*
X106250934Y-24729066D02*
X106760000Y-24220000D01*
X115528281Y-15924992D02*
X115528281Y-20104992D01*
X103900000Y-28019945D02*
X103900000Y-32775500D01*
D13*
%TO.N,Net-(B1-Pad2)*%
X117521724Y-34638365D02*
X117760089Y-34400000D01*
X115838365Y-34638365D02*
X117521724Y-34638365D01*
X117560089Y-34600000D02*
X117760089Y-34400000D01*
D14*
%TO.N,Net-(C2-Pad2)*%
X114041613Y-40527331D02*
X116014262Y-42499980D01*
X118291611Y-42499980D02*
X121934486Y-38857105D01*
X115474446Y-38249982D02*
X114041613Y-39682815D01*
X121934486Y-38857105D02*
X121934486Y-37521348D01*
X114041613Y-39682815D02*
X114041613Y-40527331D01*
X116014262Y-42499980D02*
X118291611Y-42499980D01*
%TO.N,+5V*%
X125374941Y-33999984D02*
X123249942Y-31874985D01*
X113285500Y-29500000D02*
X111938982Y-29500000D01*
X127499940Y-33999984D02*
X125374941Y-33999984D01*
X115400000Y-31614500D02*
X113285500Y-29500000D01*
%TO.N,row1*%
X123400000Y-27200000D02*
X125199510Y-28999510D01*
X106063761Y-20953173D02*
X106063761Y-19213465D01*
X108501726Y-16775500D02*
X114041613Y-16775500D01*
X100545641Y-27000000D02*
X103800000Y-27000000D01*
X130200490Y-28999510D02*
X132000000Y-27200000D01*
X116874945Y-16999992D02*
X116874945Y-19607997D01*
X122600000Y-25333052D02*
X122600000Y-26400000D01*
X103800000Y-23216934D02*
X106063761Y-20953173D01*
X106063761Y-19213465D02*
X108501726Y-16775500D01*
X98545641Y-25000000D02*
X100545641Y-27000000D01*
X88600000Y-25000000D02*
X98545641Y-25000000D01*
X125199510Y-28999510D02*
X130200490Y-28999510D01*
X132000000Y-27200000D02*
X138800000Y-27200000D01*
X103800000Y-27000000D02*
X103800000Y-23216934D01*
X116874945Y-19607997D02*
X122600000Y-25333052D01*
%TO.N,Net-(D3-Pad2)*%
X121833276Y-28333320D02*
X122541609Y-28333320D01*
X120416610Y-26916654D02*
X121833276Y-28333320D01*
%TO.N,row2*%
X88541625Y-43208313D02*
X93368205Y-48034893D01*
X106356406Y-29790789D02*
X107666616Y-31100999D01*
X122541609Y-43208313D02*
X123958275Y-44624979D01*
X133753946Y-43208313D02*
X139541601Y-43208313D01*
X123958275Y-44624979D02*
X123958275Y-47100980D01*
X107666616Y-31100999D02*
X107666616Y-42499980D01*
X123958275Y-57524651D02*
X123958275Y-54541641D01*
X122541609Y-43208313D02*
X123499462Y-42250460D01*
X112624947Y-54541641D02*
X112624947Y-56079298D01*
X107666616Y-46749978D02*
X112425408Y-46749978D01*
X116029443Y-59483794D02*
X121999132Y-59483794D01*
X121999132Y-59483794D02*
X123958275Y-57524651D01*
X132796093Y-42250460D02*
X133753946Y-43208313D01*
X100133540Y-43415420D02*
X104626176Y-43415420D01*
X95514067Y-48034893D02*
X100133540Y-43415420D01*
X107666616Y-42499980D02*
X107666616Y-46749978D01*
X93368205Y-48034893D02*
X95514067Y-48034893D01*
X112624947Y-56079298D02*
X116029443Y-59483794D01*
X123499462Y-42250460D02*
X132796093Y-42250460D01*
%TO.N,row3*%
X98208767Y-59250452D02*
X99166620Y-60208305D01*
X122541609Y-60208305D02*
X123499462Y-59250452D01*
X103978325Y-36061495D02*
X103703597Y-36061495D01*
X132796093Y-59250452D02*
X133753946Y-60208305D01*
X106499470Y-59250452D02*
X113058296Y-59250452D01*
X105049454Y-30220001D02*
X105049454Y-34990366D01*
X89499478Y-59250452D02*
X98208767Y-59250452D01*
X101999952Y-36124983D02*
X99874953Y-36124983D01*
X105541617Y-60208305D02*
X106499470Y-59250452D01*
X88541625Y-60208305D02*
X89499478Y-59250452D01*
X99166620Y-60208305D02*
X105541617Y-60208305D01*
X97749954Y-38249982D02*
X97749954Y-41574981D01*
X114016149Y-60208305D02*
X122541609Y-60208305D01*
X123499462Y-59250452D02*
X132796093Y-59250452D01*
X113058296Y-59250452D02*
X114016149Y-60208305D01*
X133753946Y-60208305D02*
X139541601Y-60208305D01*
X105049454Y-34990366D02*
X103978325Y-36061495D01*
%TO.N,row4*%
X96792101Y-76250444D02*
X98796109Y-76250444D01*
X88541625Y-77208297D02*
X89499478Y-76250444D01*
X122541609Y-77208297D02*
X123499462Y-76250444D01*
X99166620Y-32583318D02*
X96333288Y-32583318D01*
X98796109Y-76250444D02*
X99753962Y-77208297D01*
X89499478Y-76250444D02*
X96792101Y-76250444D01*
X106499470Y-76250444D02*
X115208759Y-76250444D01*
X105541617Y-77208297D02*
X106499470Y-76250444D01*
X115208759Y-76250444D02*
X116166612Y-77208297D01*
X100262268Y-31487670D02*
X99166620Y-32583318D01*
X95984531Y-41442890D02*
X96333288Y-41791647D01*
X95984531Y-40026225D02*
X95984531Y-41442890D01*
X131500418Y-76250444D02*
X132458271Y-77208297D01*
X99753962Y-77208297D02*
X105541617Y-77208297D01*
X132458271Y-77208297D02*
X139541601Y-77208297D01*
X123499462Y-76250444D02*
X131500418Y-76250444D01*
X116166612Y-77208297D02*
X122541609Y-77208297D01*
%TO.N,VBUS*%
X111750000Y-18500000D02*
X113750000Y-18500000D01*
D13*
%TO.N,col1*%
X101974500Y-37200000D02*
X100525500Y-37200000D01*
%TO.N,col2*%
X100028922Y-38105693D02*
X99735416Y-37812187D01*
X102397256Y-38105693D02*
X100028922Y-38105693D01*
%TO.N,col3*%
X103104011Y-38812449D02*
X103104011Y-40695989D01*
D14*
X108599945Y-41999945D02*
X108600000Y-42000000D01*
X108599945Y-28775500D02*
X108599945Y-41999945D01*
D13*
X103104011Y-40695989D02*
X103000000Y-40800000D01*
%TO.N,col4*%
X103887548Y-42312452D02*
X103705378Y-42494622D01*
X106834513Y-48599519D02*
X125300019Y-48599519D01*
X125300019Y-48599519D02*
X125600000Y-48899500D01*
X103800000Y-44200000D02*
X103800000Y-45565006D01*
D14*
X128208273Y-33291651D02*
X128916606Y-33999984D01*
D13*
X103887548Y-39595985D02*
X103887548Y-42312452D01*
D14*
X128916606Y-33999984D02*
X128916606Y-38249982D01*
D13*
X103800000Y-45565006D02*
X106834513Y-48599519D01*
%TD*%
M02*
