%FSLAX45Y45*%
G04 Gerber Fmt 4.5, Leading zero omitted, Abs format (unit mm)*
G04 Created by KiCad (PCBNEW (6.0.4-0)) date 2023-09-21 22:39:34*
%MOMM*%
%LPD*%
G01*
G04 APERTURE LIST*
%TA.AperFunction,Profile*%
%ADD10C,0.100000*%
%TD*%
%ADD11C,0.200000*%
%ADD12C,0.040000*%
%ADD13C,0.060000*%
%ADD14C,0.100000*%
G04 APERTURE END LIST*
D10*
X7649996Y-1487496D02*
G75*
G03*
X7437496Y-1699999I4J-212504D01*
G01*
X14237491Y-1699999D02*
G75*
G03*
X14024993Y-1487499I-212501J-1D01*
G01*
X11545828Y-1345833D02*
X11652078Y-1487499D01*
X10589578Y-1487499D02*
X10554162Y-1487499D01*
X7437496Y-8145829D02*
X7437496Y-1699999D01*
X7649996Y-1487499D02*
X10554162Y-1487499D01*
X11687494Y-1487499D02*
X14024993Y-1487499D01*
X14237493Y-1699999D02*
X14237493Y-8074996D01*
X11687494Y-1487499D02*
X11652078Y-1487499D01*
X14024993Y-8287496D02*
X7579163Y-8287496D01*
X14024993Y-8287503D02*
G75*
G03*
X14237493Y-8074996I-3J212503D01*
G01*
X10589578Y-1487499D02*
X10695828Y-1345833D01*
X10695828Y-1345833D02*
X11545828Y-1345833D01*
X7437494Y-8145829D02*
G75*
G03*
X7579163Y-8287496I141666J-1D01*
G01*
D11*
D12*
X8692496Y-6213330D02*
X8732496Y-6253330D01*
X8732496Y-6213330D02*
X8692496Y-6253330D01*
X8692496Y-6496664D02*
X8732496Y-6536664D01*
X8732496Y-6496664D02*
X8692496Y-6536664D01*
X8834163Y-4300831D02*
X8874163Y-4340831D01*
X8874163Y-4300831D02*
X8834163Y-4340831D01*
X8834163Y-6000830D02*
X8874163Y-6040830D01*
X8874163Y-6000830D02*
X8834163Y-6040830D01*
X8834163Y-7700830D02*
X8874163Y-7740830D01*
X8874163Y-7700830D02*
X8834163Y-7740830D01*
X8840000Y-2480000D02*
X8880000Y-2520000D01*
X8880000Y-2480000D02*
X8840000Y-2520000D01*
X9400829Y-3083780D02*
X9440829Y-3123780D01*
X9440829Y-3083780D02*
X9400829Y-3123780D01*
X9400829Y-3238332D02*
X9440829Y-3278332D01*
X9440829Y-3238332D02*
X9400829Y-3278332D01*
X9578453Y-3982622D02*
X9618453Y-4022622D01*
X9618453Y-3982622D02*
X9578453Y-4022622D01*
X9613329Y-3238332D02*
X9653329Y-3278332D01*
X9653329Y-3238332D02*
X9613329Y-3278332D01*
X9613329Y-4159165D02*
X9653329Y-4199165D01*
X9653329Y-4159165D02*
X9613329Y-4199165D01*
X9659210Y-7605044D02*
X9699210Y-7645044D01*
X9699210Y-7605044D02*
X9659210Y-7645044D01*
X9754995Y-3804998D02*
X9794995Y-3844998D01*
X9794995Y-3804998D02*
X9754995Y-3844998D01*
X9754995Y-4137498D02*
X9794995Y-4177498D01*
X9794995Y-4137498D02*
X9754995Y-4177498D01*
X9800877Y-5905045D02*
X9840877Y-5945045D01*
X9840877Y-5905045D02*
X9800877Y-5945045D01*
X9953542Y-3761219D02*
X9993542Y-3801219D01*
X9993542Y-3761219D02*
X9953542Y-3801219D01*
X9967495Y-3592498D02*
X10007495Y-3632498D01*
X10007495Y-3592498D02*
X9967495Y-3632498D01*
X10006227Y-3128767D02*
X10046227Y-3168767D01*
X10046227Y-3128767D02*
X10006227Y-3168767D01*
X10032550Y-3700000D02*
X10072550Y-3740000D01*
X10072550Y-3700000D02*
X10032550Y-3740000D01*
X10177450Y-3700000D02*
X10217450Y-3740000D01*
X10217450Y-3700000D02*
X10177450Y-3740000D01*
X10179995Y-3592498D02*
X10219995Y-3632498D01*
X10219995Y-3592498D02*
X10179995Y-3632498D01*
X10219726Y-3790569D02*
X10259726Y-3830569D01*
X10259726Y-3790569D02*
X10219726Y-3830569D01*
X10280000Y-4060000D02*
X10320000Y-4100000D01*
X10320000Y-4060000D02*
X10280000Y-4100000D01*
X10290401Y-3861245D02*
X10330401Y-3901245D01*
X10330401Y-3861245D02*
X10290401Y-3901245D01*
X10350360Y-3586149D02*
X10390360Y-3626149D01*
X10390360Y-3586149D02*
X10350360Y-3626149D01*
X10350538Y-4229462D02*
X10390538Y-4269462D01*
X10390538Y-4229462D02*
X10350538Y-4269462D01*
X10360000Y-2680000D02*
X10400000Y-2720000D01*
X10400000Y-2680000D02*
X10360000Y-2720000D01*
X10360000Y-3402450D02*
X10400000Y-3442450D01*
X10400000Y-3402450D02*
X10360000Y-3442450D01*
X10360000Y-4400000D02*
X10400000Y-4440000D01*
X10400000Y-4400000D02*
X10360000Y-4440000D01*
X10368755Y-3939598D02*
X10408755Y-3979598D01*
X10408755Y-3939598D02*
X10368755Y-3979598D01*
X10370000Y-3257550D02*
X10410000Y-3297550D01*
X10410000Y-3257550D02*
X10370000Y-3297550D01*
X10442618Y-4321542D02*
X10482618Y-4361542D01*
X10482618Y-4321542D02*
X10442618Y-4361542D01*
X10484945Y-3002000D02*
X10524945Y-3042000D01*
X10524945Y-3002000D02*
X10484945Y-3042000D01*
X10534162Y-6000830D02*
X10574162Y-6040830D01*
X10574162Y-6000830D02*
X10534162Y-6040830D01*
X10534162Y-7700830D02*
X10574162Y-7740830D01*
X10574162Y-7700830D02*
X10534162Y-7740830D01*
X10615641Y-2959079D02*
X10655641Y-2999079D01*
X10655641Y-2959079D02*
X10615641Y-2999079D01*
X10656000Y-2402000D02*
X10696000Y-2442000D01*
X10696000Y-2402000D02*
X10656000Y-2442000D01*
X10746662Y-4654998D02*
X10786662Y-4694998D01*
X10786662Y-4654998D02*
X10746662Y-4694998D01*
X10839995Y-2857550D02*
X10879995Y-2897550D01*
X10879995Y-2857550D02*
X10839995Y-2897550D01*
X10840000Y-4180000D02*
X10880000Y-4220000D01*
X10880000Y-4180000D02*
X10840000Y-4220000D01*
X11155000Y-1830000D02*
X11195000Y-1870000D01*
X11195000Y-1830000D02*
X11155000Y-1870000D01*
X11173898Y-2930000D02*
X11213898Y-2970000D01*
X11213898Y-2930000D02*
X11173898Y-2970000D01*
X11222541Y-4654998D02*
X11262541Y-4694998D01*
X11262541Y-4654998D02*
X11222541Y-4694998D01*
X11242495Y-5434164D02*
X11282495Y-5474164D01*
X11282495Y-5434164D02*
X11242495Y-5474164D01*
X11355000Y-1830000D02*
X11395000Y-1870000D01*
X11395000Y-1830000D02*
X11355000Y-1870000D01*
X11368359Y-3820822D02*
X11408359Y-3860822D01*
X11408359Y-3820822D02*
X11368359Y-3860822D01*
X11384161Y-1657550D02*
X11424161Y-1697550D01*
X11424161Y-1657550D02*
X11384161Y-1697550D01*
X11455011Y-4300837D02*
X11495011Y-4340837D01*
X11495011Y-4300837D02*
X11455011Y-4340837D01*
X11520000Y-3141450D02*
X11560000Y-3181450D01*
X11560000Y-3141450D02*
X11520000Y-3181450D01*
X11527445Y-3804998D02*
X11567445Y-3844998D01*
X11567445Y-3804998D02*
X11527445Y-3844998D01*
X11563836Y-3443836D02*
X11603836Y-3483836D01*
X11603836Y-3443836D02*
X11563836Y-3483836D01*
X11667494Y-1679999D02*
X11707494Y-1719999D01*
X11707494Y-1679999D02*
X11667494Y-1719999D01*
X11756009Y-3420000D02*
X11796009Y-3460000D01*
X11796009Y-3420000D02*
X11756009Y-3460000D01*
X12021661Y-2671665D02*
X12061661Y-2711665D01*
X12061661Y-2671665D02*
X12021661Y-2711665D01*
X12173449Y-3732135D02*
X12213449Y-3772135D01*
X12213449Y-3732135D02*
X12173449Y-3772135D01*
X12234161Y-2813332D02*
X12274161Y-2853332D01*
X12274161Y-2813332D02*
X12234161Y-2853332D01*
X12234161Y-4300831D02*
X12274161Y-4340831D01*
X12274161Y-4300831D02*
X12234161Y-4340831D01*
X12234161Y-6000830D02*
X12274161Y-6040830D01*
X12274161Y-6000830D02*
X12234161Y-6040830D01*
X12234161Y-7700830D02*
X12274161Y-7740830D01*
X12274161Y-7700830D02*
X12234161Y-7740830D01*
X12240000Y-2620000D02*
X12280000Y-2660000D01*
X12280000Y-2620000D02*
X12240000Y-2660000D01*
X12304994Y-3167498D02*
X12344994Y-3207498D01*
X12344994Y-3167498D02*
X12304994Y-3207498D01*
X12320000Y-2700000D02*
X12360000Y-2740000D01*
X12360000Y-2700000D02*
X12320000Y-2740000D01*
X12375827Y-4690098D02*
X12415827Y-4730098D01*
X12415827Y-4690098D02*
X12375827Y-4730098D01*
X12375827Y-5434164D02*
X12415827Y-5474164D01*
X12415827Y-5434164D02*
X12375827Y-5474164D01*
X12446661Y-2954999D02*
X12486661Y-2994999D01*
X12486661Y-2954999D02*
X12446661Y-2994999D01*
X12540000Y-4869950D02*
X12580000Y-4909950D01*
X12580000Y-4869950D02*
X12540000Y-4909950D01*
X12659161Y-2954999D02*
X12699161Y-2994999D01*
X12699161Y-2954999D02*
X12659161Y-2994999D01*
X12729994Y-3379998D02*
X12769994Y-3419998D01*
X12769994Y-3379998D02*
X12729994Y-3419998D01*
X12800827Y-3309165D02*
X12840827Y-3349165D01*
X12840827Y-3309165D02*
X12800827Y-3349165D01*
X12800845Y-4725838D02*
X12840845Y-4765838D01*
X12840845Y-4725838D02*
X12800845Y-4765838D01*
X12871661Y-3804998D02*
X12911661Y-3844998D01*
X12911661Y-3804998D02*
X12871661Y-3844998D01*
X13860000Y-2700000D02*
X13900000Y-2740000D01*
X13900000Y-2700000D02*
X13860000Y-2740000D01*
X13934160Y-4300831D02*
X13974160Y-4340831D01*
X13974160Y-4300831D02*
X13934160Y-4340831D01*
X13934160Y-6000830D02*
X13974160Y-6040830D01*
X13974160Y-6000830D02*
X13934160Y-6040830D01*
X13934160Y-7700830D02*
X13974160Y-7740830D01*
X13974160Y-7700830D02*
X13934160Y-7740830D01*
D13*
X10718828Y-1592499D02*
G75*
G03*
X10718828Y-1592499I-30000J0D01*
G01*
D11*
X10668828Y-1562499D02*
X10668828Y-1622499D01*
X10708828Y-1562499D02*
X10708828Y-1622499D01*
X10668828Y-1622499D02*
G75*
G03*
X10708828Y-1622499I20000J0D01*
G01*
X10708828Y-1562499D02*
G75*
G03*
X10668828Y-1562499I-20000J0D01*
G01*
D13*
X10718828Y-2010499D02*
G75*
G03*
X10718828Y-2010499I-30000J0D01*
G01*
D11*
X10668828Y-1955499D02*
X10668828Y-2065499D01*
X10708828Y-1955499D02*
X10708828Y-2065499D01*
X10668828Y-2065499D02*
G75*
G03*
X10708828Y-2065499I20000J0D01*
G01*
X10708828Y-1955499D02*
G75*
G03*
X10668828Y-1955499I-20000J0D01*
G01*
D13*
X11582828Y-1592499D02*
G75*
G03*
X11582828Y-1592499I-30000J0D01*
G01*
D11*
X11532828Y-1562499D02*
X11532828Y-1622499D01*
X11572828Y-1562499D02*
X11572828Y-1622499D01*
X11532828Y-1622499D02*
G75*
G03*
X11572828Y-1622499I20000J0D01*
G01*
X11572828Y-1562499D02*
G75*
G03*
X11532828Y-1562499I-20000J0D01*
G01*
D13*
X11582828Y-2010499D02*
G75*
G03*
X11582828Y-2010499I-30000J0D01*
G01*
D11*
X11532828Y-1955499D02*
X11532828Y-2065499D01*
X11572828Y-1955499D02*
X11572828Y-2065499D01*
X11532828Y-2065499D02*
G75*
G03*
X11572828Y-2065499I20000J0D01*
G01*
X11572828Y-1955499D02*
G75*
G03*
X11532828Y-1955499I-20000J0D01*
G01*
D14*
X13137513Y-1562502D02*
X13137513Y-1662502D01*
X13087513Y-1612502D02*
X13187513Y-1612502D01*
X13137513Y-3012502D02*
X13137513Y-3112502D01*
X13087513Y-3062502D02*
X13187513Y-3062502D01*
X13387513Y-1562502D02*
X13387513Y-1662502D01*
X13337513Y-1612502D02*
X13437513Y-1612502D01*
X13637513Y-1562502D02*
X13637513Y-1662502D01*
X13587513Y-1612502D02*
X13687513Y-1612502D01*
X13637513Y-3012502D02*
X13637513Y-3112502D01*
X13587513Y-3062502D02*
X13687513Y-3062502D01*
D11*
X12898224Y-2433214D02*
X12898224Y-2291791D01*
X12756801Y-2291791D01*
X12756801Y-2433214D01*
X12898224Y-2433214D01*
X12737513Y-2337502D02*
X12737513Y-2387502D01*
X12917513Y-2337502D02*
X12917513Y-2387502D01*
X12737513Y-2387502D02*
G75*
G03*
X12917513Y-2387502I90000J0D01*
G01*
X12917513Y-2337502D02*
G75*
G03*
X12737513Y-2337502I-90000J0D01*
G01*
X14018224Y-2433214D02*
X14018224Y-2291791D01*
X13876801Y-2291791D01*
X13876801Y-2433214D01*
X14018224Y-2433214D01*
X13857513Y-2337502D02*
X13857513Y-2387502D01*
X14037513Y-2337502D02*
X14037513Y-2387502D01*
X13857513Y-2387502D02*
G75*
G03*
X14037513Y-2387502I90000J0D01*
G01*
X14037513Y-2337502D02*
G75*
G03*
X13857513Y-2337502I-90000J0D01*
G01*
X7690115Y-8602972D02*
X7690115Y-8402972D01*
X7737734Y-8402972D01*
X7766306Y-8412496D01*
X7785354Y-8431544D01*
X7794877Y-8450591D01*
X7804401Y-8488687D01*
X7804401Y-8517258D01*
X7794877Y-8555353D01*
X7785354Y-8574401D01*
X7766306Y-8593448D01*
X7737734Y-8602972D01*
X7690115Y-8602972D01*
X7890115Y-8602972D02*
X7890115Y-8469639D01*
X7890115Y-8507734D02*
X7899639Y-8488687D01*
X7909163Y-8479163D01*
X7928211Y-8469639D01*
X7947258Y-8469639D01*
X8013925Y-8602972D02*
X8013925Y-8469639D01*
X8013925Y-8402972D02*
X8004401Y-8412496D01*
X8013925Y-8422020D01*
X8023449Y-8412496D01*
X8013925Y-8402972D01*
X8013925Y-8422020D01*
X8137734Y-8602972D02*
X8118687Y-8593448D01*
X8109163Y-8574401D01*
X8109163Y-8402972D01*
X8242496Y-8602972D02*
X8223449Y-8593448D01*
X8213925Y-8574401D01*
X8213925Y-8402972D01*
X8471068Y-8602972D02*
X8471068Y-8402972D01*
X8537735Y-8545829D01*
X8604401Y-8402972D01*
X8604401Y-8602972D01*
X8785354Y-8602972D02*
X8785354Y-8498210D01*
X8775830Y-8479163D01*
X8756782Y-8469639D01*
X8718687Y-8469639D01*
X8699639Y-8479163D01*
X8785354Y-8593448D02*
X8766306Y-8602972D01*
X8718687Y-8602972D01*
X8699639Y-8593448D01*
X8690116Y-8574401D01*
X8690116Y-8555353D01*
X8699639Y-8536306D01*
X8718687Y-8526782D01*
X8766306Y-8526782D01*
X8785354Y-8517258D01*
X8880592Y-8469639D02*
X8880592Y-8669639D01*
X8880592Y-8479163D02*
X8899639Y-8469639D01*
X8937735Y-8469639D01*
X8956782Y-8479163D01*
X8966306Y-8488687D01*
X8975830Y-8507734D01*
X8975830Y-8564877D01*
X8966306Y-8583925D01*
X8956782Y-8593448D01*
X8937735Y-8602972D01*
X8899639Y-8602972D01*
X8880592Y-8593448D01*
X9061544Y-8583925D02*
X9071068Y-8593448D01*
X9061544Y-8602972D01*
X9052020Y-8593448D01*
X9061544Y-8583925D01*
X9061544Y-8602972D01*
X9061544Y-8479163D02*
X9071068Y-8488687D01*
X9061544Y-8498210D01*
X9052020Y-8488687D01*
X9061544Y-8479163D01*
X9061544Y-8498210D01*
D12*
X7392496Y-8912496D02*
X7432496Y-8952496D01*
X7432496Y-8912496D02*
X7392496Y-8952496D01*
D11*
X7728211Y-8822972D02*
X7747258Y-8822972D01*
X7766306Y-8832496D01*
X7775830Y-8842020D01*
X7785354Y-8861068D01*
X7794877Y-8899163D01*
X7794877Y-8946782D01*
X7785354Y-8984877D01*
X7775830Y-9003925D01*
X7766306Y-9013448D01*
X7747258Y-9022972D01*
X7728211Y-9022972D01*
X7709163Y-9013448D01*
X7699639Y-9003925D01*
X7690115Y-8984877D01*
X7680592Y-8946782D01*
X7680592Y-8899163D01*
X7690115Y-8861068D01*
X7699639Y-8842020D01*
X7709163Y-8832496D01*
X7728211Y-8822972D01*
X7880592Y-9003925D02*
X7890115Y-9013448D01*
X7880592Y-9022972D01*
X7871068Y-9013448D01*
X7880592Y-9003925D01*
X7880592Y-9022972D01*
X8061544Y-8889639D02*
X8061544Y-9022972D01*
X8013925Y-8813448D02*
X7966306Y-8956306D01*
X8090115Y-8956306D01*
X8204401Y-8822972D02*
X8223449Y-8822972D01*
X8242496Y-8832496D01*
X8252020Y-8842020D01*
X8261544Y-8861068D01*
X8271068Y-8899163D01*
X8271068Y-8946782D01*
X8261544Y-8984877D01*
X8252020Y-9003925D01*
X8242496Y-9013448D01*
X8223449Y-9022972D01*
X8204401Y-9022972D01*
X8185354Y-9013448D01*
X8175830Y-9003925D01*
X8166306Y-8984877D01*
X8156782Y-8946782D01*
X8156782Y-8899163D01*
X8166306Y-8861068D01*
X8175830Y-8842020D01*
X8185354Y-8832496D01*
X8204401Y-8822972D01*
X8394877Y-8822972D02*
X8413925Y-8822972D01*
X8432973Y-8832496D01*
X8442497Y-8842020D01*
X8452020Y-8861068D01*
X8461544Y-8899163D01*
X8461544Y-8946782D01*
X8452020Y-8984877D01*
X8442497Y-9003925D01*
X8432973Y-9013448D01*
X8413925Y-9022972D01*
X8394877Y-9022972D01*
X8375830Y-9013448D01*
X8366306Y-9003925D01*
X8356782Y-8984877D01*
X8347258Y-8946782D01*
X8347258Y-8899163D01*
X8356782Y-8861068D01*
X8366306Y-8842020D01*
X8375830Y-8832496D01*
X8394877Y-8822972D01*
X8547258Y-9022972D02*
X8547258Y-8889639D01*
X8547258Y-8908687D02*
X8556782Y-8899163D01*
X8575830Y-8889639D01*
X8604401Y-8889639D01*
X8623449Y-8899163D01*
X8632973Y-8918210D01*
X8632973Y-9022972D01*
X8632973Y-8918210D02*
X8642497Y-8899163D01*
X8661544Y-8889639D01*
X8690116Y-8889639D01*
X8709163Y-8899163D01*
X8718687Y-8918210D01*
X8718687Y-9022972D01*
X8813925Y-9022972D02*
X8813925Y-8889639D01*
X8813925Y-8908687D02*
X8823449Y-8899163D01*
X8842497Y-8889639D01*
X8871068Y-8889639D01*
X8890116Y-8899163D01*
X8899639Y-8918210D01*
X8899639Y-9022972D01*
X8899639Y-8918210D02*
X8909163Y-8899163D01*
X8928211Y-8889639D01*
X8956782Y-8889639D01*
X8975830Y-8899163D01*
X8985354Y-8918210D01*
X8985354Y-9022972D01*
X9375830Y-8813448D02*
X9204401Y-9070591D01*
X9632973Y-8822972D02*
X9652020Y-8822972D01*
X9671068Y-8832496D01*
X9680592Y-8842020D01*
X9690116Y-8861068D01*
X9699639Y-8899163D01*
X9699639Y-8946782D01*
X9690116Y-8984877D01*
X9680592Y-9003925D01*
X9671068Y-9013448D01*
X9652020Y-9022972D01*
X9632973Y-9022972D01*
X9613925Y-9013448D01*
X9604401Y-9003925D01*
X9594877Y-8984877D01*
X9585354Y-8946782D01*
X9585354Y-8899163D01*
X9594877Y-8861068D01*
X9604401Y-8842020D01*
X9613925Y-8832496D01*
X9632973Y-8822972D01*
X9785354Y-9003925D02*
X9794877Y-9013448D01*
X9785354Y-9022972D01*
X9775830Y-9013448D01*
X9785354Y-9003925D01*
X9785354Y-9022972D01*
X9918687Y-8822972D02*
X9937735Y-8822972D01*
X9956782Y-8832496D01*
X9966306Y-8842020D01*
X9975830Y-8861068D01*
X9985354Y-8899163D01*
X9985354Y-8946782D01*
X9975830Y-8984877D01*
X9966306Y-9003925D01*
X9956782Y-9013448D01*
X9937735Y-9022972D01*
X9918687Y-9022972D01*
X9899639Y-9013448D01*
X9890116Y-9003925D01*
X9880592Y-8984877D01*
X9871068Y-8946782D01*
X9871068Y-8899163D01*
X9880592Y-8861068D01*
X9890116Y-8842020D01*
X9899639Y-8832496D01*
X9918687Y-8822972D01*
X10175830Y-9022972D02*
X10061544Y-9022972D01*
X10118687Y-9022972D02*
X10118687Y-8822972D01*
X10099639Y-8851544D01*
X10080592Y-8870591D01*
X10061544Y-8880115D01*
X10356782Y-8822972D02*
X10261544Y-8822972D01*
X10252020Y-8918210D01*
X10261544Y-8908687D01*
X10280592Y-8899163D01*
X10328211Y-8899163D01*
X10347258Y-8908687D01*
X10356782Y-8918210D01*
X10366306Y-8937258D01*
X10366306Y-8984877D01*
X10356782Y-9003925D01*
X10347258Y-9013448D01*
X10328211Y-9022972D01*
X10280592Y-9022972D01*
X10261544Y-9013448D01*
X10252020Y-9003925D01*
X10432973Y-8822972D02*
X10566306Y-8822972D01*
X10480592Y-9022972D01*
X10632973Y-8822972D02*
X10632973Y-8861068D01*
X10709163Y-8822972D02*
X10709163Y-8861068D01*
X11004401Y-9099163D02*
X10994877Y-9089639D01*
X10975830Y-9061068D01*
X10966306Y-9042020D01*
X10956782Y-9013448D01*
X10947258Y-8965829D01*
X10947258Y-8927734D01*
X10956782Y-8880115D01*
X10966306Y-8851544D01*
X10975830Y-8832496D01*
X10994877Y-8803925D01*
X11004401Y-8794401D01*
X11061544Y-8822972D02*
X11194877Y-8822972D01*
X11109163Y-9022972D01*
X11366306Y-8822972D02*
X11271068Y-8822972D01*
X11261544Y-8918210D01*
X11271068Y-8908687D01*
X11290115Y-8899163D01*
X11337734Y-8899163D01*
X11356782Y-8908687D01*
X11366306Y-8918210D01*
X11375830Y-8937258D01*
X11375830Y-8984877D01*
X11366306Y-9003925D01*
X11356782Y-9013448D01*
X11337734Y-9022972D01*
X11290115Y-9022972D01*
X11271068Y-9013448D01*
X11261544Y-9003925D01*
X11613925Y-9022972D02*
X11613925Y-8822972D01*
X11699639Y-9022972D02*
X11699639Y-8918210D01*
X11690115Y-8899163D01*
X11671068Y-8889639D01*
X11642496Y-8889639D01*
X11623449Y-8899163D01*
X11613925Y-8908687D01*
X11823449Y-9022972D02*
X11804401Y-9013448D01*
X11794877Y-9003925D01*
X11785354Y-8984877D01*
X11785354Y-8927734D01*
X11794877Y-8908687D01*
X11804401Y-8899163D01*
X11823449Y-8889639D01*
X11852020Y-8889639D01*
X11871068Y-8899163D01*
X11880592Y-8908687D01*
X11890115Y-8927734D01*
X11890115Y-8984877D01*
X11880592Y-9003925D01*
X11871068Y-9013448D01*
X11852020Y-9022972D01*
X11823449Y-9022972D01*
X12004401Y-9022972D02*
X11985354Y-9013448D01*
X11975830Y-8994401D01*
X11975830Y-8822972D01*
X12156782Y-9013448D02*
X12137734Y-9022972D01*
X12099639Y-9022972D01*
X12080592Y-9013448D01*
X12071068Y-8994401D01*
X12071068Y-8918210D01*
X12080592Y-8899163D01*
X12099639Y-8889639D01*
X12137734Y-8889639D01*
X12156782Y-8899163D01*
X12166306Y-8918210D01*
X12166306Y-8937258D01*
X12071068Y-8956306D01*
X12242496Y-9013448D02*
X12261544Y-9022972D01*
X12299639Y-9022972D01*
X12318687Y-9013448D01*
X12328211Y-8994401D01*
X12328211Y-8984877D01*
X12318687Y-8965829D01*
X12299639Y-8956306D01*
X12271068Y-8956306D01*
X12252020Y-8946782D01*
X12242496Y-8927734D01*
X12242496Y-8918210D01*
X12252020Y-8899163D01*
X12271068Y-8889639D01*
X12299639Y-8889639D01*
X12318687Y-8899163D01*
X12394877Y-9099163D02*
X12404401Y-9089639D01*
X12423449Y-9061068D01*
X12432973Y-9042020D01*
X12442496Y-9013448D01*
X12452020Y-8965829D01*
X12452020Y-8927734D01*
X12442496Y-8880115D01*
X12432973Y-8851544D01*
X12423449Y-8832496D01*
X12404401Y-8803925D01*
X12394877Y-8794401D01*
D13*
X7432496Y-9196496D02*
G75*
G03*
X7432496Y-9196496I-30000J0D01*
G01*
D11*
X7728211Y-9086972D02*
X7747258Y-9086972D01*
X7766306Y-9096496D01*
X7775830Y-9106020D01*
X7785354Y-9125068D01*
X7794877Y-9163163D01*
X7794877Y-9210782D01*
X7785354Y-9248877D01*
X7775830Y-9267925D01*
X7766306Y-9277448D01*
X7747258Y-9286972D01*
X7728211Y-9286972D01*
X7709163Y-9277448D01*
X7699639Y-9267925D01*
X7690115Y-9248877D01*
X7680592Y-9210782D01*
X7680592Y-9163163D01*
X7690115Y-9125068D01*
X7699639Y-9106020D01*
X7709163Y-9096496D01*
X7728211Y-9086972D01*
X7880592Y-9267925D02*
X7890115Y-9277448D01*
X7880592Y-9286972D01*
X7871068Y-9277448D01*
X7880592Y-9267925D01*
X7880592Y-9286972D01*
X8061544Y-9086972D02*
X8023449Y-9086972D01*
X8004401Y-9096496D01*
X7994877Y-9106020D01*
X7975830Y-9134591D01*
X7966306Y-9172687D01*
X7966306Y-9248877D01*
X7975830Y-9267925D01*
X7985354Y-9277448D01*
X8004401Y-9286972D01*
X8042496Y-9286972D01*
X8061544Y-9277448D01*
X8071068Y-9267925D01*
X8080592Y-9248877D01*
X8080592Y-9201258D01*
X8071068Y-9182210D01*
X8061544Y-9172687D01*
X8042496Y-9163163D01*
X8004401Y-9163163D01*
X7985354Y-9172687D01*
X7975830Y-9182210D01*
X7966306Y-9201258D01*
X8204401Y-9086972D02*
X8223449Y-9086972D01*
X8242496Y-9096496D01*
X8252020Y-9106020D01*
X8261544Y-9125068D01*
X8271068Y-9163163D01*
X8271068Y-9210782D01*
X8261544Y-9248877D01*
X8252020Y-9267925D01*
X8242496Y-9277448D01*
X8223449Y-9286972D01*
X8204401Y-9286972D01*
X8185354Y-9277448D01*
X8175830Y-9267925D01*
X8166306Y-9248877D01*
X8156782Y-9210782D01*
X8156782Y-9163163D01*
X8166306Y-9125068D01*
X8175830Y-9106020D01*
X8185354Y-9096496D01*
X8204401Y-9086972D01*
X8394877Y-9086972D02*
X8413925Y-9086972D01*
X8432973Y-9096496D01*
X8442497Y-9106020D01*
X8452020Y-9125068D01*
X8461544Y-9163163D01*
X8461544Y-9210782D01*
X8452020Y-9248877D01*
X8442497Y-9267925D01*
X8432973Y-9277448D01*
X8413925Y-9286972D01*
X8394877Y-9286972D01*
X8375830Y-9277448D01*
X8366306Y-9267925D01*
X8356782Y-9248877D01*
X8347258Y-9210782D01*
X8347258Y-9163163D01*
X8356782Y-9125068D01*
X8366306Y-9106020D01*
X8375830Y-9096496D01*
X8394877Y-9086972D01*
X8547258Y-9286972D02*
X8547258Y-9153639D01*
X8547258Y-9172687D02*
X8556782Y-9163163D01*
X8575830Y-9153639D01*
X8604401Y-9153639D01*
X8623449Y-9163163D01*
X8632973Y-9182210D01*
X8632973Y-9286972D01*
X8632973Y-9182210D02*
X8642497Y-9163163D01*
X8661544Y-9153639D01*
X8690116Y-9153639D01*
X8709163Y-9163163D01*
X8718687Y-9182210D01*
X8718687Y-9286972D01*
X8813925Y-9286972D02*
X8813925Y-9153639D01*
X8813925Y-9172687D02*
X8823449Y-9163163D01*
X8842497Y-9153639D01*
X8871068Y-9153639D01*
X8890116Y-9163163D01*
X8899639Y-9182210D01*
X8899639Y-9286972D01*
X8899639Y-9182210D02*
X8909163Y-9163163D01*
X8928211Y-9153639D01*
X8956782Y-9153639D01*
X8975830Y-9163163D01*
X8985354Y-9182210D01*
X8985354Y-9286972D01*
X9375830Y-9077448D02*
X9204401Y-9334591D01*
X9632973Y-9086972D02*
X9652020Y-9086972D01*
X9671068Y-9096496D01*
X9680592Y-9106020D01*
X9690116Y-9125068D01*
X9699639Y-9163163D01*
X9699639Y-9210782D01*
X9690116Y-9248877D01*
X9680592Y-9267925D01*
X9671068Y-9277448D01*
X9652020Y-9286972D01*
X9632973Y-9286972D01*
X9613925Y-9277448D01*
X9604401Y-9267925D01*
X9594877Y-9248877D01*
X9585354Y-9210782D01*
X9585354Y-9163163D01*
X9594877Y-9125068D01*
X9604401Y-9106020D01*
X9613925Y-9096496D01*
X9632973Y-9086972D01*
X9785354Y-9267925D02*
X9794877Y-9277448D01*
X9785354Y-9286972D01*
X9775830Y-9277448D01*
X9785354Y-9267925D01*
X9785354Y-9286972D01*
X9918687Y-9086972D02*
X9937735Y-9086972D01*
X9956782Y-9096496D01*
X9966306Y-9106020D01*
X9975830Y-9125068D01*
X9985354Y-9163163D01*
X9985354Y-9210782D01*
X9975830Y-9248877D01*
X9966306Y-9267925D01*
X9956782Y-9277448D01*
X9937735Y-9286972D01*
X9918687Y-9286972D01*
X9899639Y-9277448D01*
X9890116Y-9267925D01*
X9880592Y-9248877D01*
X9871068Y-9210782D01*
X9871068Y-9163163D01*
X9880592Y-9125068D01*
X9890116Y-9106020D01*
X9899639Y-9096496D01*
X9918687Y-9086972D01*
X10061544Y-9106020D02*
X10071068Y-9096496D01*
X10090116Y-9086972D01*
X10137735Y-9086972D01*
X10156782Y-9096496D01*
X10166306Y-9106020D01*
X10175830Y-9125068D01*
X10175830Y-9144115D01*
X10166306Y-9172687D01*
X10052020Y-9286972D01*
X10175830Y-9286972D01*
X10242497Y-9086972D02*
X10366306Y-9086972D01*
X10299639Y-9163163D01*
X10328211Y-9163163D01*
X10347258Y-9172687D01*
X10356782Y-9182210D01*
X10366306Y-9201258D01*
X10366306Y-9248877D01*
X10356782Y-9267925D01*
X10347258Y-9277448D01*
X10328211Y-9286972D01*
X10271068Y-9286972D01*
X10252020Y-9277448D01*
X10242497Y-9267925D01*
X10537735Y-9086972D02*
X10499639Y-9086972D01*
X10480592Y-9096496D01*
X10471068Y-9106020D01*
X10452020Y-9134591D01*
X10442496Y-9172687D01*
X10442496Y-9248877D01*
X10452020Y-9267925D01*
X10461544Y-9277448D01*
X10480592Y-9286972D01*
X10518687Y-9286972D01*
X10537735Y-9277448D01*
X10547258Y-9267925D01*
X10556782Y-9248877D01*
X10556782Y-9201258D01*
X10547258Y-9182210D01*
X10537735Y-9172687D01*
X10518687Y-9163163D01*
X10480592Y-9163163D01*
X10461544Y-9172687D01*
X10452020Y-9182210D01*
X10442496Y-9201258D01*
X10632973Y-9086972D02*
X10632973Y-9125068D01*
X10709163Y-9086972D02*
X10709163Y-9125068D01*
X11004401Y-9363163D02*
X10994877Y-9353639D01*
X10975830Y-9325068D01*
X10966306Y-9306020D01*
X10956782Y-9277448D01*
X10947258Y-9229829D01*
X10947258Y-9191734D01*
X10956782Y-9144115D01*
X10966306Y-9115544D01*
X10975830Y-9096496D01*
X10994877Y-9067925D01*
X11004401Y-9058401D01*
X11118687Y-9086972D02*
X11137735Y-9086972D01*
X11156782Y-9096496D01*
X11166306Y-9106020D01*
X11175830Y-9125068D01*
X11185354Y-9163163D01*
X11185354Y-9210782D01*
X11175830Y-9248877D01*
X11166306Y-9267925D01*
X11156782Y-9277448D01*
X11137735Y-9286972D01*
X11118687Y-9286972D01*
X11099639Y-9277448D01*
X11090116Y-9267925D01*
X11080592Y-9248877D01*
X11071068Y-9210782D01*
X11071068Y-9163163D01*
X11080592Y-9125068D01*
X11090116Y-9106020D01*
X11099639Y-9096496D01*
X11118687Y-9086972D01*
X11423449Y-9286972D02*
X11423449Y-9086972D01*
X11509163Y-9286972D02*
X11509163Y-9182210D01*
X11499639Y-9163163D01*
X11480592Y-9153639D01*
X11452020Y-9153639D01*
X11432973Y-9163163D01*
X11423449Y-9172687D01*
X11632973Y-9286972D02*
X11613925Y-9277448D01*
X11604401Y-9267925D01*
X11594877Y-9248877D01*
X11594877Y-9191734D01*
X11604401Y-9172687D01*
X11613925Y-9163163D01*
X11632973Y-9153639D01*
X11661544Y-9153639D01*
X11680592Y-9163163D01*
X11690115Y-9172687D01*
X11699639Y-9191734D01*
X11699639Y-9248877D01*
X11690115Y-9267925D01*
X11680592Y-9277448D01*
X11661544Y-9286972D01*
X11632973Y-9286972D01*
X11813925Y-9286972D02*
X11794877Y-9277448D01*
X11785354Y-9258401D01*
X11785354Y-9086972D01*
X11966306Y-9277448D02*
X11947258Y-9286972D01*
X11909163Y-9286972D01*
X11890115Y-9277448D01*
X11880592Y-9258401D01*
X11880592Y-9182210D01*
X11890115Y-9163163D01*
X11909163Y-9153639D01*
X11947258Y-9153639D01*
X11966306Y-9163163D01*
X11975830Y-9182210D01*
X11975830Y-9201258D01*
X11880592Y-9220306D01*
X12052020Y-9277448D02*
X12071068Y-9286972D01*
X12109163Y-9286972D01*
X12128211Y-9277448D01*
X12137734Y-9258401D01*
X12137734Y-9248877D01*
X12128211Y-9229829D01*
X12109163Y-9220306D01*
X12080592Y-9220306D01*
X12061544Y-9210782D01*
X12052020Y-9191734D01*
X12052020Y-9182210D01*
X12061544Y-9163163D01*
X12080592Y-9153639D01*
X12109163Y-9153639D01*
X12128211Y-9163163D01*
X12375830Y-9210782D02*
X12528211Y-9210782D01*
X12452020Y-9286972D02*
X12452020Y-9134591D01*
X12861544Y-9153639D02*
X12861544Y-9286972D01*
X12813925Y-9077448D02*
X12766306Y-9220306D01*
X12890115Y-9220306D01*
X13109163Y-9277448D02*
X13128211Y-9286972D01*
X13166306Y-9286972D01*
X13185354Y-9277448D01*
X13194877Y-9258401D01*
X13194877Y-9248877D01*
X13185354Y-9229829D01*
X13166306Y-9220306D01*
X13137734Y-9220306D01*
X13118687Y-9210782D01*
X13109163Y-9191734D01*
X13109163Y-9182210D01*
X13118687Y-9163163D01*
X13137734Y-9153639D01*
X13166306Y-9153639D01*
X13185354Y-9163163D01*
X13309163Y-9286972D02*
X13290115Y-9277448D01*
X13280592Y-9258401D01*
X13280592Y-9086972D01*
X13413925Y-9286972D02*
X13394877Y-9277448D01*
X13385354Y-9267925D01*
X13375830Y-9248877D01*
X13375830Y-9191734D01*
X13385354Y-9172687D01*
X13394877Y-9163163D01*
X13413925Y-9153639D01*
X13442496Y-9153639D01*
X13461544Y-9163163D01*
X13471068Y-9172687D01*
X13480592Y-9191734D01*
X13480592Y-9248877D01*
X13471068Y-9267925D01*
X13461544Y-9277448D01*
X13442496Y-9286972D01*
X13413925Y-9286972D01*
X13537734Y-9153639D02*
X13613925Y-9153639D01*
X13566306Y-9086972D02*
X13566306Y-9258401D01*
X13575830Y-9277448D01*
X13594877Y-9286972D01*
X13613925Y-9286972D01*
X13671068Y-9277448D02*
X13690115Y-9286972D01*
X13728211Y-9286972D01*
X13747258Y-9277448D01*
X13756782Y-9258401D01*
X13756782Y-9248877D01*
X13747258Y-9229829D01*
X13728211Y-9220306D01*
X13699639Y-9220306D01*
X13680592Y-9210782D01*
X13671068Y-9191734D01*
X13671068Y-9182210D01*
X13680592Y-9163163D01*
X13699639Y-9153639D01*
X13728211Y-9153639D01*
X13747258Y-9163163D01*
X13823449Y-9363163D02*
X13832973Y-9353639D01*
X13852020Y-9325068D01*
X13861544Y-9306020D01*
X13871068Y-9277448D01*
X13880592Y-9229829D01*
X13880592Y-9191734D01*
X13871068Y-9144115D01*
X13861544Y-9115544D01*
X13852020Y-9096496D01*
X13832973Y-9067925D01*
X13823449Y-9058401D01*
D14*
X7382496Y-9410496D02*
X7382496Y-9510496D01*
X7332496Y-9460496D02*
X7432496Y-9460496D01*
D11*
X7794877Y-9550972D02*
X7680592Y-9550972D01*
X7737734Y-9550972D02*
X7737734Y-9350972D01*
X7718687Y-9379544D01*
X7699639Y-9398591D01*
X7680592Y-9408115D01*
X7880592Y-9531925D02*
X7890115Y-9541448D01*
X7880592Y-9550972D01*
X7871068Y-9541448D01*
X7880592Y-9531925D01*
X7880592Y-9550972D01*
X8013925Y-9350972D02*
X8032973Y-9350972D01*
X8052020Y-9360496D01*
X8061544Y-9370020D01*
X8071068Y-9389068D01*
X8080592Y-9427163D01*
X8080592Y-9474782D01*
X8071068Y-9512877D01*
X8061544Y-9531925D01*
X8052020Y-9541448D01*
X8032973Y-9550972D01*
X8013925Y-9550972D01*
X7994877Y-9541448D01*
X7985354Y-9531925D01*
X7975830Y-9512877D01*
X7966306Y-9474782D01*
X7966306Y-9427163D01*
X7975830Y-9389068D01*
X7985354Y-9370020D01*
X7994877Y-9360496D01*
X8013925Y-9350972D01*
X8204401Y-9350972D02*
X8223449Y-9350972D01*
X8242496Y-9360496D01*
X8252020Y-9370020D01*
X8261544Y-9389068D01*
X8271068Y-9427163D01*
X8271068Y-9474782D01*
X8261544Y-9512877D01*
X8252020Y-9531925D01*
X8242496Y-9541448D01*
X8223449Y-9550972D01*
X8204401Y-9550972D01*
X8185354Y-9541448D01*
X8175830Y-9531925D01*
X8166306Y-9512877D01*
X8156782Y-9474782D01*
X8156782Y-9427163D01*
X8166306Y-9389068D01*
X8175830Y-9370020D01*
X8185354Y-9360496D01*
X8204401Y-9350972D01*
X8394877Y-9350972D02*
X8413925Y-9350972D01*
X8432973Y-9360496D01*
X8442497Y-9370020D01*
X8452020Y-9389068D01*
X8461544Y-9427163D01*
X8461544Y-9474782D01*
X8452020Y-9512877D01*
X8442497Y-9531925D01*
X8432973Y-9541448D01*
X8413925Y-9550972D01*
X8394877Y-9550972D01*
X8375830Y-9541448D01*
X8366306Y-9531925D01*
X8356782Y-9512877D01*
X8347258Y-9474782D01*
X8347258Y-9427163D01*
X8356782Y-9389068D01*
X8366306Y-9370020D01*
X8375830Y-9360496D01*
X8394877Y-9350972D01*
X8547258Y-9550972D02*
X8547258Y-9417639D01*
X8547258Y-9436687D02*
X8556782Y-9427163D01*
X8575830Y-9417639D01*
X8604401Y-9417639D01*
X8623449Y-9427163D01*
X8632973Y-9446210D01*
X8632973Y-9550972D01*
X8632973Y-9446210D02*
X8642497Y-9427163D01*
X8661544Y-9417639D01*
X8690116Y-9417639D01*
X8709163Y-9427163D01*
X8718687Y-9446210D01*
X8718687Y-9550972D01*
X8813925Y-9550972D02*
X8813925Y-9417639D01*
X8813925Y-9436687D02*
X8823449Y-9427163D01*
X8842497Y-9417639D01*
X8871068Y-9417639D01*
X8890116Y-9427163D01*
X8899639Y-9446210D01*
X8899639Y-9550972D01*
X8899639Y-9446210D02*
X8909163Y-9427163D01*
X8928211Y-9417639D01*
X8956782Y-9417639D01*
X8975830Y-9427163D01*
X8985354Y-9446210D01*
X8985354Y-9550972D01*
X9375830Y-9341448D02*
X9204401Y-9598591D01*
X9632973Y-9350972D02*
X9652020Y-9350972D01*
X9671068Y-9360496D01*
X9680592Y-9370020D01*
X9690116Y-9389068D01*
X9699639Y-9427163D01*
X9699639Y-9474782D01*
X9690116Y-9512877D01*
X9680592Y-9531925D01*
X9671068Y-9541448D01*
X9652020Y-9550972D01*
X9632973Y-9550972D01*
X9613925Y-9541448D01*
X9604401Y-9531925D01*
X9594877Y-9512877D01*
X9585354Y-9474782D01*
X9585354Y-9427163D01*
X9594877Y-9389068D01*
X9604401Y-9370020D01*
X9613925Y-9360496D01*
X9632973Y-9350972D01*
X9785354Y-9531925D02*
X9794877Y-9541448D01*
X9785354Y-9550972D01*
X9775830Y-9541448D01*
X9785354Y-9531925D01*
X9785354Y-9550972D01*
X9918687Y-9350972D02*
X9937735Y-9350972D01*
X9956782Y-9360496D01*
X9966306Y-9370020D01*
X9975830Y-9389068D01*
X9985354Y-9427163D01*
X9985354Y-9474782D01*
X9975830Y-9512877D01*
X9966306Y-9531925D01*
X9956782Y-9541448D01*
X9937735Y-9550972D01*
X9918687Y-9550972D01*
X9899639Y-9541448D01*
X9890116Y-9531925D01*
X9880592Y-9512877D01*
X9871068Y-9474782D01*
X9871068Y-9427163D01*
X9880592Y-9389068D01*
X9890116Y-9370020D01*
X9899639Y-9360496D01*
X9918687Y-9350972D01*
X10052020Y-9350972D02*
X10175830Y-9350972D01*
X10109163Y-9427163D01*
X10137735Y-9427163D01*
X10156782Y-9436687D01*
X10166306Y-9446210D01*
X10175830Y-9465258D01*
X10175830Y-9512877D01*
X10166306Y-9531925D01*
X10156782Y-9541448D01*
X10137735Y-9550972D01*
X10080592Y-9550972D01*
X10061544Y-9541448D01*
X10052020Y-9531925D01*
X10271068Y-9550972D02*
X10309163Y-9550972D01*
X10328211Y-9541448D01*
X10337735Y-9531925D01*
X10356782Y-9503353D01*
X10366306Y-9465258D01*
X10366306Y-9389068D01*
X10356782Y-9370020D01*
X10347258Y-9360496D01*
X10328211Y-9350972D01*
X10290116Y-9350972D01*
X10271068Y-9360496D01*
X10261544Y-9370020D01*
X10252020Y-9389068D01*
X10252020Y-9436687D01*
X10261544Y-9455734D01*
X10271068Y-9465258D01*
X10290116Y-9474782D01*
X10328211Y-9474782D01*
X10347258Y-9465258D01*
X10356782Y-9455734D01*
X10366306Y-9436687D01*
X10537735Y-9417639D02*
X10537735Y-9550972D01*
X10490116Y-9341448D02*
X10442496Y-9484306D01*
X10566306Y-9484306D01*
X10632973Y-9350972D02*
X10632973Y-9389068D01*
X10709163Y-9350972D02*
X10709163Y-9389068D01*
X11004401Y-9627163D02*
X10994877Y-9617639D01*
X10975830Y-9589068D01*
X10966306Y-9570020D01*
X10956782Y-9541448D01*
X10947258Y-9493829D01*
X10947258Y-9455734D01*
X10956782Y-9408115D01*
X10966306Y-9379544D01*
X10975830Y-9360496D01*
X10994877Y-9331925D01*
X11004401Y-9322401D01*
X11175830Y-9350972D02*
X11080592Y-9350972D01*
X11071068Y-9446210D01*
X11080592Y-9436687D01*
X11099639Y-9427163D01*
X11147258Y-9427163D01*
X11166306Y-9436687D01*
X11175830Y-9446210D01*
X11185354Y-9465258D01*
X11185354Y-9512877D01*
X11175830Y-9531925D01*
X11166306Y-9541448D01*
X11147258Y-9550972D01*
X11099639Y-9550972D01*
X11080592Y-9541448D01*
X11071068Y-9531925D01*
X11423449Y-9550972D02*
X11423449Y-9350972D01*
X11509163Y-9550972D02*
X11509163Y-9446210D01*
X11499639Y-9427163D01*
X11480592Y-9417639D01*
X11452020Y-9417639D01*
X11432973Y-9427163D01*
X11423449Y-9436687D01*
X11632973Y-9550972D02*
X11613925Y-9541448D01*
X11604401Y-9531925D01*
X11594877Y-9512877D01*
X11594877Y-9455734D01*
X11604401Y-9436687D01*
X11613925Y-9427163D01*
X11632973Y-9417639D01*
X11661544Y-9417639D01*
X11680592Y-9427163D01*
X11690115Y-9436687D01*
X11699639Y-9455734D01*
X11699639Y-9512877D01*
X11690115Y-9531925D01*
X11680592Y-9541448D01*
X11661544Y-9550972D01*
X11632973Y-9550972D01*
X11813925Y-9550972D02*
X11794877Y-9541448D01*
X11785354Y-9522401D01*
X11785354Y-9350972D01*
X11966306Y-9541448D02*
X11947258Y-9550972D01*
X11909163Y-9550972D01*
X11890115Y-9541448D01*
X11880592Y-9522401D01*
X11880592Y-9446210D01*
X11890115Y-9427163D01*
X11909163Y-9417639D01*
X11947258Y-9417639D01*
X11966306Y-9427163D01*
X11975830Y-9446210D01*
X11975830Y-9465258D01*
X11880592Y-9484306D01*
X12052020Y-9541448D02*
X12071068Y-9550972D01*
X12109163Y-9550972D01*
X12128211Y-9541448D01*
X12137734Y-9522401D01*
X12137734Y-9512877D01*
X12128211Y-9493829D01*
X12109163Y-9484306D01*
X12080592Y-9484306D01*
X12061544Y-9474782D01*
X12052020Y-9455734D01*
X12052020Y-9446210D01*
X12061544Y-9427163D01*
X12080592Y-9417639D01*
X12109163Y-9417639D01*
X12128211Y-9427163D01*
X12204401Y-9627163D02*
X12213925Y-9617639D01*
X12232973Y-9589068D01*
X12242496Y-9570020D01*
X12252020Y-9541448D01*
X12261544Y-9493829D01*
X12261544Y-9455734D01*
X12252020Y-9408115D01*
X12242496Y-9379544D01*
X12232973Y-9360496D01*
X12213925Y-9331925D01*
X12204401Y-9322401D01*
X7403208Y-9795208D02*
X7403208Y-9653785D01*
X7261785Y-9653785D01*
X7261785Y-9795208D01*
X7403208Y-9795208D01*
X7680592Y-9634020D02*
X7690115Y-9624496D01*
X7709163Y-9614972D01*
X7756782Y-9614972D01*
X7775830Y-9624496D01*
X7785354Y-9634020D01*
X7794877Y-9653068D01*
X7794877Y-9672115D01*
X7785354Y-9700687D01*
X7671068Y-9814972D01*
X7794877Y-9814972D01*
X7880592Y-9795925D02*
X7890115Y-9805448D01*
X7880592Y-9814972D01*
X7871068Y-9805448D01*
X7880592Y-9795925D01*
X7880592Y-9814972D01*
X8013925Y-9614972D02*
X8032973Y-9614972D01*
X8052020Y-9624496D01*
X8061544Y-9634020D01*
X8071068Y-9653068D01*
X8080592Y-9691163D01*
X8080592Y-9738782D01*
X8071068Y-9776877D01*
X8061544Y-9795925D01*
X8052020Y-9805448D01*
X8032973Y-9814972D01*
X8013925Y-9814972D01*
X7994877Y-9805448D01*
X7985354Y-9795925D01*
X7975830Y-9776877D01*
X7966306Y-9738782D01*
X7966306Y-9691163D01*
X7975830Y-9653068D01*
X7985354Y-9634020D01*
X7994877Y-9624496D01*
X8013925Y-9614972D01*
X8204401Y-9614972D02*
X8223449Y-9614972D01*
X8242496Y-9624496D01*
X8252020Y-9634020D01*
X8261544Y-9653068D01*
X8271068Y-9691163D01*
X8271068Y-9738782D01*
X8261544Y-9776877D01*
X8252020Y-9795925D01*
X8242496Y-9805448D01*
X8223449Y-9814972D01*
X8204401Y-9814972D01*
X8185354Y-9805448D01*
X8175830Y-9795925D01*
X8166306Y-9776877D01*
X8156782Y-9738782D01*
X8156782Y-9691163D01*
X8166306Y-9653068D01*
X8175830Y-9634020D01*
X8185354Y-9624496D01*
X8204401Y-9614972D01*
X8394877Y-9614972D02*
X8413925Y-9614972D01*
X8432973Y-9624496D01*
X8442497Y-9634020D01*
X8452020Y-9653068D01*
X8461544Y-9691163D01*
X8461544Y-9738782D01*
X8452020Y-9776877D01*
X8442497Y-9795925D01*
X8432973Y-9805448D01*
X8413925Y-9814972D01*
X8394877Y-9814972D01*
X8375830Y-9805448D01*
X8366306Y-9795925D01*
X8356782Y-9776877D01*
X8347258Y-9738782D01*
X8347258Y-9691163D01*
X8356782Y-9653068D01*
X8366306Y-9634020D01*
X8375830Y-9624496D01*
X8394877Y-9614972D01*
X8547258Y-9814972D02*
X8547258Y-9681639D01*
X8547258Y-9700687D02*
X8556782Y-9691163D01*
X8575830Y-9681639D01*
X8604401Y-9681639D01*
X8623449Y-9691163D01*
X8632973Y-9710210D01*
X8632973Y-9814972D01*
X8632973Y-9710210D02*
X8642497Y-9691163D01*
X8661544Y-9681639D01*
X8690116Y-9681639D01*
X8709163Y-9691163D01*
X8718687Y-9710210D01*
X8718687Y-9814972D01*
X8813925Y-9814972D02*
X8813925Y-9681639D01*
X8813925Y-9700687D02*
X8823449Y-9691163D01*
X8842497Y-9681639D01*
X8871068Y-9681639D01*
X8890116Y-9691163D01*
X8899639Y-9710210D01*
X8899639Y-9814972D01*
X8899639Y-9710210D02*
X8909163Y-9691163D01*
X8928211Y-9681639D01*
X8956782Y-9681639D01*
X8975830Y-9691163D01*
X8985354Y-9710210D01*
X8985354Y-9814972D01*
X9375830Y-9605448D02*
X9204401Y-9862591D01*
X9632973Y-9614972D02*
X9652020Y-9614972D01*
X9671068Y-9624496D01*
X9680592Y-9634020D01*
X9690116Y-9653068D01*
X9699639Y-9691163D01*
X9699639Y-9738782D01*
X9690116Y-9776877D01*
X9680592Y-9795925D01*
X9671068Y-9805448D01*
X9652020Y-9814972D01*
X9632973Y-9814972D01*
X9613925Y-9805448D01*
X9604401Y-9795925D01*
X9594877Y-9776877D01*
X9585354Y-9738782D01*
X9585354Y-9691163D01*
X9594877Y-9653068D01*
X9604401Y-9634020D01*
X9613925Y-9624496D01*
X9632973Y-9614972D01*
X9785354Y-9795925D02*
X9794877Y-9805448D01*
X9785354Y-9814972D01*
X9775830Y-9805448D01*
X9785354Y-9795925D01*
X9785354Y-9814972D01*
X9918687Y-9614972D02*
X9937735Y-9614972D01*
X9956782Y-9624496D01*
X9966306Y-9634020D01*
X9975830Y-9653068D01*
X9985354Y-9691163D01*
X9985354Y-9738782D01*
X9975830Y-9776877D01*
X9966306Y-9795925D01*
X9956782Y-9805448D01*
X9937735Y-9814972D01*
X9918687Y-9814972D01*
X9899639Y-9805448D01*
X9890116Y-9795925D01*
X9880592Y-9776877D01*
X9871068Y-9738782D01*
X9871068Y-9691163D01*
X9880592Y-9653068D01*
X9890116Y-9634020D01*
X9899639Y-9624496D01*
X9918687Y-9614972D01*
X10052020Y-9614972D02*
X10185354Y-9614972D01*
X10099639Y-9814972D01*
X10290116Y-9700687D02*
X10271068Y-9691163D01*
X10261544Y-9681639D01*
X10252020Y-9662591D01*
X10252020Y-9653068D01*
X10261544Y-9634020D01*
X10271068Y-9624496D01*
X10290116Y-9614972D01*
X10328211Y-9614972D01*
X10347258Y-9624496D01*
X10356782Y-9634020D01*
X10366306Y-9653068D01*
X10366306Y-9662591D01*
X10356782Y-9681639D01*
X10347258Y-9691163D01*
X10328211Y-9700687D01*
X10290116Y-9700687D01*
X10271068Y-9710210D01*
X10261544Y-9719734D01*
X10252020Y-9738782D01*
X10252020Y-9776877D01*
X10261544Y-9795925D01*
X10271068Y-9805448D01*
X10290116Y-9814972D01*
X10328211Y-9814972D01*
X10347258Y-9805448D01*
X10356782Y-9795925D01*
X10366306Y-9776877D01*
X10366306Y-9738782D01*
X10356782Y-9719734D01*
X10347258Y-9710210D01*
X10328211Y-9700687D01*
X10432973Y-9614972D02*
X10566306Y-9614972D01*
X10480592Y-9814972D01*
X10632973Y-9614972D02*
X10632973Y-9653068D01*
X10709163Y-9614972D02*
X10709163Y-9653068D01*
X11004401Y-9891163D02*
X10994877Y-9881639D01*
X10975830Y-9853068D01*
X10966306Y-9834020D01*
X10956782Y-9805448D01*
X10947258Y-9757829D01*
X10947258Y-9719734D01*
X10956782Y-9672115D01*
X10966306Y-9643544D01*
X10975830Y-9624496D01*
X10994877Y-9595925D01*
X11004401Y-9586401D01*
X11118687Y-9614972D02*
X11137735Y-9614972D01*
X11156782Y-9624496D01*
X11166306Y-9634020D01*
X11175830Y-9653068D01*
X11185354Y-9691163D01*
X11185354Y-9738782D01*
X11175830Y-9776877D01*
X11166306Y-9795925D01*
X11156782Y-9805448D01*
X11137735Y-9814972D01*
X11118687Y-9814972D01*
X11099639Y-9805448D01*
X11090116Y-9795925D01*
X11080592Y-9776877D01*
X11071068Y-9738782D01*
X11071068Y-9691163D01*
X11080592Y-9653068D01*
X11090116Y-9634020D01*
X11099639Y-9624496D01*
X11118687Y-9614972D01*
X11423449Y-9814972D02*
X11423449Y-9614972D01*
X11509163Y-9814972D02*
X11509163Y-9710210D01*
X11499639Y-9691163D01*
X11480592Y-9681639D01*
X11452020Y-9681639D01*
X11432973Y-9691163D01*
X11423449Y-9700687D01*
X11632973Y-9814972D02*
X11613925Y-9805448D01*
X11604401Y-9795925D01*
X11594877Y-9776877D01*
X11594877Y-9719734D01*
X11604401Y-9700687D01*
X11613925Y-9691163D01*
X11632973Y-9681639D01*
X11661544Y-9681639D01*
X11680592Y-9691163D01*
X11690115Y-9700687D01*
X11699639Y-9719734D01*
X11699639Y-9776877D01*
X11690115Y-9795925D01*
X11680592Y-9805448D01*
X11661544Y-9814972D01*
X11632973Y-9814972D01*
X11813925Y-9814972D02*
X11794877Y-9805448D01*
X11785354Y-9786401D01*
X11785354Y-9614972D01*
X11966306Y-9805448D02*
X11947258Y-9814972D01*
X11909163Y-9814972D01*
X11890115Y-9805448D01*
X11880592Y-9786401D01*
X11880592Y-9710210D01*
X11890115Y-9691163D01*
X11909163Y-9681639D01*
X11947258Y-9681639D01*
X11966306Y-9691163D01*
X11975830Y-9710210D01*
X11975830Y-9729258D01*
X11880592Y-9748306D01*
X12052020Y-9805448D02*
X12071068Y-9814972D01*
X12109163Y-9814972D01*
X12128211Y-9805448D01*
X12137734Y-9786401D01*
X12137734Y-9776877D01*
X12128211Y-9757829D01*
X12109163Y-9748306D01*
X12080592Y-9748306D01*
X12061544Y-9738782D01*
X12052020Y-9719734D01*
X12052020Y-9710210D01*
X12061544Y-9691163D01*
X12080592Y-9681639D01*
X12109163Y-9681639D01*
X12128211Y-9691163D01*
X12375830Y-9738782D02*
X12528211Y-9738782D01*
X12452020Y-9814972D02*
X12452020Y-9662591D01*
X12766306Y-9634020D02*
X12775830Y-9624496D01*
X12794877Y-9614972D01*
X12842496Y-9614972D01*
X12861544Y-9624496D01*
X12871068Y-9634020D01*
X12880592Y-9653068D01*
X12880592Y-9672115D01*
X12871068Y-9700687D01*
X12756782Y-9814972D01*
X12880592Y-9814972D01*
X13109163Y-9805448D02*
X13128211Y-9814972D01*
X13166306Y-9814972D01*
X13185354Y-9805448D01*
X13194877Y-9786401D01*
X13194877Y-9776877D01*
X13185354Y-9757829D01*
X13166306Y-9748306D01*
X13137734Y-9748306D01*
X13118687Y-9738782D01*
X13109163Y-9719734D01*
X13109163Y-9710210D01*
X13118687Y-9691163D01*
X13137734Y-9681639D01*
X13166306Y-9681639D01*
X13185354Y-9691163D01*
X13309163Y-9814972D02*
X13290115Y-9805448D01*
X13280592Y-9786401D01*
X13280592Y-9614972D01*
X13413925Y-9814972D02*
X13394877Y-9805448D01*
X13385354Y-9795925D01*
X13375830Y-9776877D01*
X13375830Y-9719734D01*
X13385354Y-9700687D01*
X13394877Y-9691163D01*
X13413925Y-9681639D01*
X13442496Y-9681639D01*
X13461544Y-9691163D01*
X13471068Y-9700687D01*
X13480592Y-9719734D01*
X13480592Y-9776877D01*
X13471068Y-9795925D01*
X13461544Y-9805448D01*
X13442496Y-9814972D01*
X13413925Y-9814972D01*
X13537734Y-9681639D02*
X13613925Y-9681639D01*
X13566306Y-9614972D02*
X13566306Y-9786401D01*
X13575830Y-9805448D01*
X13594877Y-9814972D01*
X13613925Y-9814972D01*
X13671068Y-9805448D02*
X13690115Y-9814972D01*
X13728211Y-9814972D01*
X13747258Y-9805448D01*
X13756782Y-9786401D01*
X13756782Y-9776877D01*
X13747258Y-9757829D01*
X13728211Y-9748306D01*
X13699639Y-9748306D01*
X13680592Y-9738782D01*
X13671068Y-9719734D01*
X13671068Y-9710210D01*
X13680592Y-9691163D01*
X13699639Y-9681639D01*
X13728211Y-9681639D01*
X13747258Y-9691163D01*
X13823449Y-9891163D02*
X13832973Y-9881639D01*
X13852020Y-9853068D01*
X13861544Y-9834020D01*
X13871068Y-9805448D01*
X13880592Y-9757829D01*
X13880592Y-9719734D01*
X13871068Y-9672115D01*
X13861544Y-9643544D01*
X13852020Y-9624496D01*
X13832973Y-9595925D01*
X13823449Y-9586401D01*
M02*
