  0
SECTION
  2
HEADER
  9
$ANGBASE
  50
0.0
  9
$ANGDIR
  70
1
  9
$MEASUREMENT
  70
0
  0
ENDSEC
  0
SECTION
  2
TABLES
  0
TABLE
  2
LTYPE
  70
4
  0
LTYPE
  5
40F
  2
CONTINUOUS
  70
0
  3
Solid line
  72
65
  73
0
  40
0.0
  0
LTYPE
  5
410
  2
DASHDOT
 70
0
  3
Dash Dot ____ _ ____ _
 72
65
 73
4
 40
2.0
 49
1.25
 49
-0.25
 49
0.25
 49
-0.25
  0
LTYPE
  5
411
  2
DASHED
 70
0
  3
Dashed __ __ __ __ __
 72
65
 73
2
 40
0.75
 49
0.5
 49
-0.25
  0
LTYPE
  5
43B
  2
DOTTED
 70
0
  3
Dotted .  .  .  .
 72
65
 73
2
 40
0.2
 49
0.0
 49
-0.2
  0
ENDTAB
  0
TABLE
  2
STYLE
  70
4
  0
STYLE
  2
KICAD
  70
0
  40
0
  41
1
  42
1
  50
0
  71
0
  3
isocp.shx
  0
STYLE
  2
KICADB
  70
0
  40
0
  41
1
  42
1
  50
0
  71
0
  3
isocp.shx
  0
STYLE
  2
KICADI
  70
0
  40
0
  41
1
  42
1
  50
15
  71
0
  3
isocp.shx
  0
STYLE
  2
KICADBI
  70
0
  40
0
  41
1
  42
1
  50
15
  71
0
  3
isocp.shx
  0
ENDTAB
  0
TABLE
  2
LAYER
  70
1
  0
LAYER
  2
BLACK
  70
0
  62
7
  6
CONTINUOUS
  0
ENDTAB
  0
ENDSEC
  0
SECTION
  2
ENTITIES
0
LINE
8
BLACK
6
CONTINUOUS
10
10.9121
20
-0.584247
11
10.9201
21
-0.585999
0
LINE
8
BLACK
6
CONTINUOUS
10
10.9201
20
-0.585999
11
10.9279
21
-0.588878
0
LINE
8
BLACK
6
CONTINUOUS
10
10.9279
20
-0.588878
11
10.9351
21
-0.592826
0
LINE
8
BLACK
6
CONTINUOUS
10
10.9351
20
-0.592826
11
10.9417
21
-0.597764
0
LINE
8
BLACK
6
CONTINUOUS
10
10.9417
20
-0.597764
11
10.9475
21
-0.603589
0
LINE
8
BLACK
6
CONTINUOUS
10
10.9475
20
-0.603589
11
10.9524
21
-0.610185
0
LINE
8
BLACK
6
CONTINUOUS
10
10.9524
20
-0.610185
11
10.9564
21
-0.617415
0
LINE
8
BLACK
6
CONTINUOUS
10
10.9564
20
-0.617415
11
10.9593
21
-0.625134
0
LINE
8
BLACK
6
CONTINUOUS
10
10.9593
20
-0.625134
11
10.961
21
-0.633185
0
LINE
8
BLACK
6
CONTINUOUS
10
10.961
20
-0.633185
11
10.9616
21
-0.641398
0
LINE
8
BLACK
6
CONTINUOUS
10
10.9616
20
-0.641398
11
10.9616
21
-0.641402
0
LINE
8
BLACK
6
CONTINUOUS
10
10.9616
20
-0.641402
11
10.9616
21
-0.641404
0
LINE
8
BLACK
6
CONTINUOUS
10
10.9616
20
-0.641404
11
10.9616
21
-3.20702
0
LINE
8
BLACK
6
CONTINUOUS
10
10.9616
20
-3.20702
11
10.961
21
-3.21524
0
LINE
8
BLACK
6
CONTINUOUS
10
10.961
20
-3.21524
11
10.9593
21
-3.22329
0
LINE
8
BLACK
6
CONTINUOUS
10
10.9593
20
-3.22329
11
10.9564
21
-3.23101
0
LINE
8
BLACK
6
CONTINUOUS
10
10.9564
20
-3.23101
11
10.9524
21
-3.23824
0
LINE
8
BLACK
6
CONTINUOUS
10
10.9524
20
-3.23824
11
10.9475
21
-3.24483
0
LINE
8
BLACK
6
CONTINUOUS
10
10.9475
20
-3.24483
11
10.9417
21
-3.25066
0
LINE
8
BLACK
6
CONTINUOUS
10
10.9417
20
-3.25066
11
10.9351
21
-3.2556
0
LINE
8
BLACK
6
CONTINUOUS
10
10.9351
20
-3.2556
11
10.9279
21
-3.25954
0
LINE
8
BLACK
6
CONTINUOUS
10
10.9279
20
-3.25954
11
10.9201
21
-3.26242
0
LINE
8
BLACK
6
CONTINUOUS
10
10.9201
20
-3.26242
11
10.9121
21
-3.26417
0
LINE
8
BLACK
6
CONTINUOUS
10
10.9121
20
-3.26417
11
10.9039
21
-3.26476
0
LINE
8
BLACK
6
CONTINUOUS
10
10.9039
20
-3.26476
11
10.9039
21
-3.26476
0
LINE
8
BLACK
6
CONTINUOUS
10
10.9039
20
-3.26476
11
2.98393
21
-3.26476
0
LINE
8
BLACK
6
CONTINUOUS
10
2.98393
20
-3.26476
11
2.97571
21
-3.26418
0
LINE
8
BLACK
6
CONTINUOUS
10
2.97571
20
-3.26418
11
2.96766
21
-3.26242
0
LINE
8
BLACK
6
CONTINUOUS
10
2.96766
20
-3.26242
11
2.95994
21
-3.25955
0
LINE
8
BLACK
6
CONTINUOUS
10
2.95994
20
-3.25955
11
2.95271
21
-3.2556
0
LINE
8
BLACK
6
CONTINUOUS
10
2.95271
20
-3.2556
11
2.94611
21
-3.25066
0
LINE
8
BLACK
6
CONTINUOUS
10
2.94611
20
-3.25066
11
2.94028
21
-3.24483
0
LINE
8
BLACK
6
CONTINUOUS
10
2.94028
20
-3.24483
11
2.93535
21
-3.23824
0
LINE
8
BLACK
6
CONTINUOUS
10
2.93535
20
-3.23824
11
2.9314
21
-3.23101
0
LINE
8
BLACK
6
CONTINUOUS
10
2.9314
20
-3.23101
11
2.92852
21
-3.22329
0
LINE
8
BLACK
6
CONTINUOUS
10
2.92852
20
-3.22329
11
2.92677
21
-3.21524
0
LINE
8
BLACK
6
CONTINUOUS
10
2.92677
20
-3.21524
11
2.92618
21
-3.20702
0
LINE
8
BLACK
6
CONTINUOUS
10
2.92618
20
-3.20702
11
2.92618
21
-3.20702
0
LINE
8
BLACK
6
CONTINUOUS
10
2.92618
20
-3.20702
11
2.92618
21
-0.669297
0
LINE
8
BLACK
6
CONTINUOUS
10
2.92618
20
-0.669297
11
2.92618
21
-0.669291
0
LINE
8
BLACK
6
CONTINUOUS
10
2.92618
20
-0.669291
11
2.9268
21
-0.658969
0
LINE
8
BLACK
6
CONTINUOUS
10
2.9268
20
-0.658969
11
2.92867
21
-0.648798
0
LINE
8
BLACK
6
CONTINUOUS
10
2.92867
20
-0.648798
11
2.93174
21
-0.638926
0
LINE
8
BLACK
6
CONTINUOUS
10
2.93174
20
-0.638926
11
2.93599
21
-0.629496
0
LINE
8
BLACK
6
CONTINUOUS
10
2.93599
20
-0.629496
11
2.94134
21
-0.620647
0
LINE
8
BLACK
6
CONTINUOUS
10
2.94134
20
-0.620647
11
2.94771
21
-0.612508
0
LINE
8
BLACK
6
CONTINUOUS
10
2.94771
20
-0.612508
11
2.95503
21
-0.605196
0
LINE
8
BLACK
6
CONTINUOUS
10
2.95503
20
-0.605196
11
2.96317
21
-0.598819
0
LINE
8
BLACK
6
CONTINUOUS
10
2.96317
20
-0.598819
11
2.97202
21
-0.593469
0
LINE
8
BLACK
6
CONTINUOUS
10
2.97202
20
-0.593469
11
2.98144
21
-0.589225
0
LINE
8
BLACK
6
CONTINUOUS
10
2.98144
20
-0.589225
11
2.99132
21
-0.586149
0
LINE
8
BLACK
6
CONTINUOUS
10
2.99132
20
-0.586149
11
3.00149
21
-0.584285
0
LINE
8
BLACK
6
CONTINUOUS
10
3.00149
20
-0.584285
11
3.01181
21
-0.58366
0
LINE
8
BLACK
6
CONTINUOUS
10
3.01181
20
-0.58366
11
3.01181
21
-0.583661
0
LINE
8
BLACK
6
CONTINUOUS
10
3.01181
20
-0.583661
11
3.01181
21
-0.583661
0
LINE
8
BLACK
6
CONTINUOUS
10
3.01181
20
-0.583661
11
4.15518
21
-0.583661
0
LINE
8
BLACK
6
CONTINUOUS
10
4.15518
20
-0.583661
11
4.16814
21
-0.583661
0
LINE
8
BLACK
6
CONTINUOUS
10
4.16814
20
-0.583661
11
4.20938
21
-0.528674
0
LINE
8
BLACK
6
CONTINUOUS
10
4.20938
20
-0.528674
11
4.20951
21
-0.528599
0
LINE
8
BLACK
6
CONTINUOUS
10
4.20951
20
-0.528599
11
4.20956
21
-0.528463
0
LINE
8
BLACK
6
CONTINUOUS
10
4.20956
20
-0.528463
11
4.21014
21
-0.528225
0
LINE
8
BLACK
6
CONTINUOUS
10
4.21014
20
-0.528225
11
4.21068
21
-0.527907
0
LINE
8
BLACK
6
CONTINUOUS
10
4.21068
20
-0.527907
11
4.21082
21
-0.527943
0
LINE
8
BLACK
6
CONTINUOUS
10
4.21082
20
-0.527943
11
4.21096
21
-0.527887
0
LINE
8
BLACK
6
CONTINUOUS
10
4.21096
20
-0.527887
11
4.5456
21
-0.527887
0
LINE
8
BLACK
6
CONTINUOUS
10
4.5456
20
-0.527887
11
4.54574
21
-0.527943
0
LINE
8
BLACK
6
CONTINUOUS
10
4.54574
20
-0.527943
11
4.54588
21
-0.527907
0
LINE
8
BLACK
6
CONTINUOUS
10
4.54588
20
-0.527907
11
4.54642
21
-0.528225
0
LINE
8
BLACK
6
CONTINUOUS
10
4.54642
20
-0.528225
11
4.54699
21
-0.528463
0
LINE
8
BLACK
6
CONTINUOUS
10
4.54699
20
-0.528463
11
4.54705
21
-0.528599
0
LINE
8
BLACK
6
CONTINUOUS
10
4.54705
20
-0.528599
11
4.54718
21
-0.528674
0
LINE
8
BLACK
6
CONTINUOUS
10
4.54718
20
-0.528674
11
4.58842
21
-0.583661
0
LINE
8
BLACK
6
CONTINUOUS
10
4.58842
20
-0.583661
11
4.60138
21
-0.583661
0
LINE
8
BLACK
6
CONTINUOUS
10
4.60138
20
-0.583661
11
10.9039
21
-0.58366
0
LINE
8
BLACK
6
CONTINUOUS
10
10.9039
20
-0.58366
11
10.9039
21
-0.58366
0
LINE
8
BLACK
6
CONTINUOUS
10
10.9039
20
-0.58366
11
10.9121
21
-0.584247
0
LINE
8
BLACK
6
CONTINUOUS
10
3.01144
20
-0.587446
11
3.00112
21
-0.588122
0
LINE
8
BLACK
6
CONTINUOUS
10
3.00112
20
-0.588122
11
2.99062
21
-0.590212
0
LINE
8
BLACK
6
CONTINUOUS
10
2.99062
20
-0.590212
11
2.98048
21
-0.593654
0
LINE
8
BLACK
6
CONTINUOUS
10
2.98048
20
-0.593654
11
2.97088
21
-0.598391
0
LINE
8
BLACK
6
CONTINUOUS
10
2.97088
20
-0.598391
11
2.96197
21
-0.60434
0
LINE
8
BLACK
6
CONTINUOUS
10
2.96197
20
-0.60434
11
2.95392
21
-0.611401
0
LINE
8
BLACK
6
CONTINUOUS
10
2.95392
20
-0.611401
11
2.94686
21
-0.619452
0
LINE
8
BLACK
6
CONTINUOUS
10
2.94686
20
-0.619452
11
2.94091
21
-0.628357
0
LINE
8
BLACK
6
CONTINUOUS
10
2.94091
20
-0.628357
11
2.93617
21
-0.637961
0
LINE
8
BLACK
6
CONTINUOUS
10
2.93617
20
-0.637961
11
2.93273
21
-0.648102
0
LINE
8
BLACK
6
CONTINUOUS
10
2.93273
20
-0.648102
11
2.93064
21
-0.658605
0
LINE
8
BLACK
6
CONTINUOUS
10
2.93064
20
-0.658605
11
2.92997
21
-0.66892
0
LINE
8
BLACK
6
CONTINUOUS
10
2.92997
20
-0.66892
11
2.93012
21
-0.669291
0
LINE
8
BLACK
6
CONTINUOUS
10
2.93012
20
-0.669291
11
2.93012
21
-3.20702
0
LINE
8
BLACK
6
CONTINUOUS
10
2.93012
20
-3.20702
11
2.92998
21
-3.20736
0
LINE
8
BLACK
6
CONTINUOUS
10
2.92998
20
-3.20736
11
2.93061
21
-3.21546
0
LINE
8
BLACK
6
CONTINUOUS
10
2.93061
20
-3.21546
11
2.93259
21
-3.2237
0
LINE
8
BLACK
6
CONTINUOUS
10
2.93259
20
-3.2237
11
2.93583
21
-3.23152
0
LINE
8
BLACK
6
CONTINUOUS
10
2.93583
20
-3.23152
11
2.94026
21
-3.23874
0
LINE
8
BLACK
6
CONTINUOUS
10
2.94026
20
-3.23874
11
2.94576
21
-3.24518
0
LINE
8
BLACK
6
CONTINUOUS
10
2.94576
20
-3.24518
11
2.9522
21
-3.25069
0
LINE
8
BLACK
6
CONTINUOUS
10
2.9522
20
-3.25069
11
2.95942
21
-3.25511
0
LINE
8
BLACK
6
CONTINUOUS
10
2.95942
20
-3.25511
11
2.96725
21
-3.25835
0
LINE
8
BLACK
6
CONTINUOUS
10
2.96725
20
-3.25835
11
2.97548
21
-3.26033
0
LINE
8
BLACK
6
CONTINUOUS
10
2.97548
20
-3.26033
11
2.98359
21
-3.26097
0
LINE
8
BLACK
6
CONTINUOUS
10
2.98359
20
-3.26097
11
2.98392
21
-3.26083
0
LINE
8
BLACK
6
CONTINUOUS
10
2.98392
20
-3.26083
11
2.98393
21
-3.26083
0
LINE
8
BLACK
6
CONTINUOUS
10
2.98393
20
-3.26083
11
2.98393
21
-3.26083
0
LINE
8
BLACK
6
CONTINUOUS
10
2.98393
20
-3.26083
11
10.9039
21
-3.26083
0
LINE
8
BLACK
6
CONTINUOUS
10
10.9039
20
-3.26083
11
10.9042
21
-3.26097
0
LINE
8
BLACK
6
CONTINUOUS
10
10.9042
20
-3.26097
11
10.9123
21
-3.26033
0
LINE
8
BLACK
6
CONTINUOUS
10
10.9123
20
-3.26033
11
10.9205
21
-3.25835
0
LINE
8
BLACK
6
CONTINUOUS
10
10.9205
20
-3.25835
11
10.9284
21
-3.25511
0
LINE
8
BLACK
6
CONTINUOUS
10
10.9284
20
-3.25511
11
10.9356
21
-3.25068
0
LINE
8
BLACK
6
CONTINUOUS
10
10.9356
20
-3.25068
11
10.942
21
-3.24518
0
LINE
8
BLACK
6
CONTINUOUS
10
10.942
20
-3.24518
11
10.9475
21
-3.23874
0
LINE
8
BLACK
6
CONTINUOUS
10
10.9475
20
-3.23874
11
10.952
21
-3.23152
0
LINE
8
BLACK
6
CONTINUOUS
10
10.952
20
-3.23152
11
10.9552
21
-3.2237
0
LINE
8
BLACK
6
CONTINUOUS
10
10.9552
20
-3.2237
11
10.9572
21
-3.21546
0
LINE
8
BLACK
6
CONTINUOUS
10
10.9572
20
-3.21546
11
10.9578
21
-3.20736
0
LINE
8
BLACK
6
CONTINUOUS
10
10.9578
20
-3.20736
11
10.9577
21
-3.20702
0
LINE
8
BLACK
6
CONTINUOUS
10
10.9577
20
-3.20702
11
10.9577
21
-0.641404
0
LINE
8
BLACK
6
CONTINUOUS
10
10.9577
20
-0.641404
11
10.9578
21
-0.641068
0
LINE
8
BLACK
6
CONTINUOUS
10
10.9578
20
-0.641068
11
10.9572
21
-0.632959
0
LINE
8
BLACK
6
CONTINUOUS
10
10.9572
20
-0.632959
11
10.9552
21
-0.624724
0
LINE
8
BLACK
6
CONTINUOUS
10
10.9552
20
-0.624724
11
10.952
21
-0.6169
0
LINE
8
BLACK
6
CONTINUOUS
10
10.952
20
-0.6169
11
10.9475
21
-0.609679
0
LINE
8
BLACK
6
CONTINUOUS
10
10.9475
20
-0.609679
11
10.942
21
-0.603239
0
LINE
8
BLACK
6
CONTINUOUS
10
10.942
20
-0.603239
11
10.9356
21
-0.597738
0
LINE
8
BLACK
6
CONTINUOUS
10
10.9356
20
-0.597738
11
10.9284
21
-0.593313
0
LINE
8
BLACK
6
CONTINUOUS
10
10.9284
20
-0.593313
11
10.9205
21
-0.590072
0
LINE
8
BLACK
6
CONTINUOUS
10
10.9205
20
-0.590072
11
10.9123
21
-0.588095
0
LINE
8
BLACK
6
CONTINUOUS
10
10.9123
20
-0.588095
11
10.9042
21
-0.587457
0
LINE
8
BLACK
6
CONTINUOUS
10
10.9042
20
-0.587457
11
10.9039
21
-0.587597
0
LINE
8
BLACK
6
CONTINUOUS
10
10.9039
20
-0.587597
11
4.60138
21
-0.587598
0
LINE
8
BLACK
6
CONTINUOUS
10
4.60138
20
-0.587598
11
4.58743
21
-0.587598
0
LINE
8
BLACK
6
CONTINUOUS
10
4.58743
20
-0.587598
11
4.5873
21
-0.587542
0
LINE
8
BLACK
6
CONTINUOUS
10
4.5873
20
-0.587542
11
4.58715
21
-0.587578
0
LINE
8
BLACK
6
CONTINUOUS
10
4.58715
20
-0.587578
11
4.58662
21
-0.58726
0
LINE
8
BLACK
6
CONTINUOUS
10
4.58662
20
-0.58726
11
4.58604
21
-0.587022
0
LINE
8
BLACK
6
CONTINUOUS
10
4.58604
20
-0.587022
11
4.58598
21
-0.586886
0
LINE
8
BLACK
6
CONTINUOUS
10
4.58598
20
-0.586886
11
4.58586
21
-0.586811
0
LINE
8
BLACK
6
CONTINUOUS
10
4.58586
20
-0.586811
11
4.54462
21
-0.531824
0
LINE
8
BLACK
6
CONTINUOUS
10
4.54462
20
-0.531824
11
4.21194
21
-0.531824
0
LINE
8
BLACK
6
CONTINUOUS
10
4.21194
20
-0.531824
11
4.1707
21
-0.586811
0
LINE
8
BLACK
6
CONTINUOUS
10
4.1707
20
-0.586811
11
4.17057
21
-0.586886
0
LINE
8
BLACK
6
CONTINUOUS
10
4.17057
20
-0.586886
11
4.17052
21
-0.587022
0
LINE
8
BLACK
6
CONTINUOUS
10
4.17052
20
-0.587022
11
4.16994
21
-0.58726
0
LINE
8
BLACK
6
CONTINUOUS
10
4.16994
20
-0.58726
11
4.1694
21
-0.587578
0
LINE
8
BLACK
6
CONTINUOUS
10
4.1694
20
-0.587578
11
4.16926
21
-0.587542
0
LINE
8
BLACK
6
CONTINUOUS
10
4.16926
20
-0.587542
11
4.16913
21
-0.587598
0
LINE
8
BLACK
6
CONTINUOUS
10
4.16913
20
-0.587598
11
4.15518
21
-0.587598
0
LINE
8
BLACK
6
CONTINUOUS
10
4.15518
20
-0.587598
11
3.01181
21
-0.587598
0
LINE
8
BLACK
6
CONTINUOUS
10
3.01181
20
-0.587598
11
3.01144
21
-0.587446
  0
ENDSEC
  0
EOF
