G04 #@! TF.GenerationSoftware,KiCad,Pcbnew,(6.0.4-0)*
G04 #@! TF.CreationDate,2023-09-21T22:36:29-05:00*
G04 #@! TF.ProjectId,dogema48_cfx,646f6765-6d61-4343-985f-6366782e6b69,rev?*
G04 #@! TF.SameCoordinates,Original*
G04 #@! TF.FileFunction,Copper,L1,Top*
G04 #@! TF.FilePolarity,Positive*
%FSLAX45Y45*%
G04 Gerber Fmt 4.5, Leading zero omitted, Abs format (unit mm)*
G04 Created by KiCad (PCBNEW (6.0.4-0)) date 2023-09-21 22:36:29*
%MOMM*%
%LPD*%
G01*
G04 APERTURE LIST*
G04 #@! TA.AperFunction,ComponentPad*
%ADD10O,1.000000X2.100000*%
G04 #@! TD*
G04 #@! TA.AperFunction,ComponentPad*
%ADD11O,1.000000X1.600000*%
G04 #@! TD*
G04 #@! TA.AperFunction,ViaPad*
%ADD12C,0.800000*%
G04 #@! TD*
G04 #@! TA.AperFunction,Conductor*
%ADD13C,0.200000*%
G04 #@! TD*
G04 #@! TA.AperFunction,Conductor*
%ADD14C,0.250000*%
G04 #@! TD*
G04 APERTURE END LIST*
D10*
G04 #@! TO.P,J1,S1,SHIELD*
G04 #@! TO.N,GND*
X10688828Y-2010499D03*
D11*
X10688828Y-1592499D03*
X11552828Y-1592499D03*
D10*
X11552828Y-2010499D03*
G04 #@! TD*
D12*
G04 #@! TO.N,GND*
X10380000Y-3422450D03*
X12679161Y-2974999D03*
X10676000Y-2422000D03*
X10390000Y-3277550D03*
X12466661Y-2974999D03*
G04 #@! TO.N,Net-(B1-Pad2)*
X11776009Y-3440000D03*
X11583836Y-3463836D03*
G04 #@! TO.N,Net-(C2-Pad2)*
X12193449Y-3752135D03*
X11547445Y-3824998D03*
G04 #@! TO.N,+5V*
X11193898Y-2950000D03*
X10575968Y-4235369D03*
X11540000Y-3161450D03*
X12324994Y-3187498D03*
X10129950Y-3429000D03*
X12749994Y-3399998D03*
G04 #@! TO.N,row1*
X27554154Y-2620832D03*
X11404161Y-1677550D03*
X12340000Y-2720000D03*
X20754157Y-2620832D03*
X14040000Y-2720000D03*
X17354159Y-2620832D03*
X24154155Y-2620832D03*
X11687494Y-1699999D03*
X12260000Y-2640000D03*
X8860000Y-2500000D03*
X15580000Y-2720000D03*
X25854154Y-2549999D03*
X17280000Y-2720000D03*
X19054158Y-2620832D03*
X15740000Y-2720000D03*
X10380000Y-2700000D03*
X22454156Y-2620832D03*
X13880000Y-2720000D03*
G04 #@! TO.N,Net-(D3-Pad2)*
X12254161Y-2833332D03*
X12041661Y-2691665D03*
G04 #@! TO.N,row2*
X24154155Y-4320831D03*
X25854154Y-4320831D03*
X19054158Y-4320831D03*
X22454156Y-4320831D03*
X10635641Y-2979079D03*
X15654159Y-4320831D03*
X27554154Y-4320831D03*
X12254161Y-4320831D03*
X20754157Y-4320831D03*
X11242541Y-4674998D03*
X10766662Y-4674998D03*
X12395827Y-4710098D03*
X8854163Y-4320831D03*
X17354159Y-4320831D03*
X13954160Y-4320831D03*
X12395827Y-5752465D03*
X11262495Y-5454164D03*
X10462618Y-4341542D03*
G04 #@! TO.N,row3*
X9820877Y-5925045D03*
X25854154Y-6020830D03*
X10370360Y-3606149D03*
X20754157Y-6020830D03*
X19054158Y-6020830D03*
X27554154Y-6020830D03*
X10504945Y-3022000D03*
X22454156Y-6020830D03*
X12254161Y-6020830D03*
X9774995Y-4157498D03*
X10554162Y-6020830D03*
X9906000Y-3524250D03*
X17354159Y-6020830D03*
X24154155Y-6020830D03*
X13954160Y-6020830D03*
X15654159Y-6020830D03*
X8854163Y-6020830D03*
G04 #@! TO.N,row4*
X19054158Y-7720830D03*
X12254161Y-7720830D03*
X17354159Y-7720830D03*
X8854163Y-7720830D03*
X9679210Y-7625044D03*
X10554162Y-7720830D03*
X15654159Y-7720830D03*
X25854154Y-7720830D03*
X27554154Y-7720830D03*
X24154155Y-7720830D03*
X13954160Y-7720830D03*
X10026227Y-3148767D03*
X9633329Y-4179165D03*
X22454156Y-7720830D03*
X20754157Y-7720830D03*
G04 #@! TO.N,Net-(D38-Pad2)*
X20060804Y-6855850D03*
X19816678Y-6816643D03*
G04 #@! TO.N,VBUS*
X11375000Y-1850000D03*
X11175000Y-1850000D03*
G04 #@! TO.N,col1*
X9349897Y-3905250D03*
X9114996Y-4102438D03*
G04 #@! TO.N,col3*
X10860000Y-4200000D03*
X10859995Y-2877550D03*
G04 #@! TO.N,col4*
X12820827Y-3329165D03*
X12560000Y-4889950D03*
X10191750Y-4442548D03*
X12891661Y-3824998D03*
G04 #@! TO.N,col5*
X10680000Y-4088550D03*
X14260000Y-4820000D03*
G04 #@! TO.N,col6*
X11340000Y-4960000D03*
X15960000Y-4960000D03*
G04 #@! TO.N,col7*
X11395442Y-5043164D03*
X17287400Y-7154163D03*
X17660000Y-5040000D03*
X17141659Y-7154163D03*
G04 #@! TO.N,col8*
X11474995Y-5113114D03*
X19360000Y-5140000D03*
G04 #@! TO.N,col9*
X21059990Y-5219165D03*
X11546112Y-5183344D03*
G04 #@! TO.N,col10*
X22737489Y-4674998D03*
X11580000Y-4440000D03*
G04 #@! TO.N,col11*
X24459988Y-5334997D03*
X9349897Y-3805300D03*
G04 #@! TO.N,col12*
X26249842Y-5495685D03*
X9349996Y-3683332D03*
G04 #@! TO.N,Net-(D37-Pad2)*
X16052495Y-6658330D03*
X16192395Y-6658330D03*
G04 #@! TD*
D13*
G04 #@! TO.N,GND*
X10380000Y-3287550D02*
X10390000Y-3277550D01*
X10380000Y-3422450D02*
X10380000Y-3287550D01*
D14*
X10676000Y-2422000D02*
X10688828Y-2409172D01*
X10688828Y-1592499D02*
X11552828Y-1592499D01*
X10625093Y-2566901D02*
X10625093Y-2472907D01*
D13*
X12466661Y-2974999D02*
X12679161Y-2974999D01*
D14*
X10625093Y-2566901D02*
X10390000Y-2801994D01*
X10688828Y-2409172D02*
X10688828Y-2010499D01*
X10625093Y-2472907D02*
X10676000Y-2422000D01*
X11552828Y-1592499D02*
X11552828Y-2010499D01*
X10390000Y-2801994D02*
X10390000Y-3277550D01*
D13*
G04 #@! TO.N,Net-(B1-Pad2)*
X11752172Y-3463836D02*
X11776009Y-3440000D01*
X11583836Y-3463836D02*
X11752172Y-3463836D01*
X11756009Y-3460000D02*
X11776009Y-3440000D01*
D14*
G04 #@! TO.N,Net-(C2-Pad2)*
X11404161Y-4052733D02*
X11601426Y-4249998D01*
X11829161Y-4249998D02*
X12193449Y-3885710D01*
X11547445Y-3824998D02*
X11404161Y-3968281D01*
X12193449Y-3885710D02*
X12193449Y-3752135D01*
X11404161Y-3968281D02*
X11404161Y-4052733D01*
X11601426Y-4249998D02*
X11829161Y-4249998D01*
G04 #@! TO.N,+5V*
X10236119Y-4235369D02*
X10575968Y-4235369D01*
X12537494Y-3399998D02*
X12324994Y-3187498D01*
X11328550Y-2950000D02*
X11193898Y-2950000D01*
X10196397Y-4195647D02*
X10236119Y-4235369D01*
X12749994Y-3399998D02*
X12537494Y-3399998D01*
X10129950Y-3429000D02*
X10196397Y-3495447D01*
X11540000Y-3161450D02*
X11328550Y-2950000D01*
X10196397Y-3495447D02*
X10196397Y-4195647D01*
G04 #@! TO.N,row1*
X14979608Y-2525047D02*
X15174562Y-2720000D01*
X18160922Y-2620832D02*
X19054158Y-2620832D01*
X22549941Y-2525047D02*
X23479604Y-2525047D01*
X23575390Y-2620832D02*
X24154155Y-2620832D01*
X25854154Y-2549999D02*
X25879106Y-2525047D01*
X20849942Y-2525047D02*
X21720871Y-2525047D01*
X24249941Y-2525047D02*
X24154155Y-2620832D01*
X15934953Y-2525047D02*
X16645137Y-2525047D01*
X26975388Y-2620832D02*
X27554154Y-2620832D01*
X21720871Y-2525047D02*
X21816656Y-2620832D01*
X12340000Y-2720000D02*
X12519951Y-2899951D01*
X10606376Y-2095317D02*
X10606376Y-1921346D01*
X24249941Y-2525047D02*
X24865133Y-2525047D01*
X18065137Y-2525047D02*
X18160922Y-2620832D01*
X10850173Y-1677550D02*
X11404161Y-1677550D01*
X14234953Y-2525047D02*
X14979608Y-2525047D01*
X24865133Y-2525047D02*
X24890085Y-2549999D01*
X16840091Y-2720000D02*
X17280000Y-2720000D01*
X10054564Y-2700000D02*
X10380000Y-2700000D01*
X15740000Y-2720000D02*
X15934953Y-2525047D01*
X13020049Y-2899951D02*
X13200000Y-2720000D01*
X11687494Y-1699999D02*
X11687494Y-1960800D01*
X20754157Y-2620832D02*
X20849942Y-2525047D01*
X17354159Y-2620832D02*
X17449944Y-2525047D01*
X19054158Y-2620832D02*
X19149943Y-2525047D01*
X24890085Y-2549999D02*
X25854154Y-2549999D01*
X25879106Y-2525047D02*
X26879603Y-2525047D01*
X12260000Y-2533305D02*
X12260000Y-2640000D01*
X23479604Y-2525047D02*
X23575390Y-2620832D01*
X22454156Y-2620832D02*
X22549941Y-2525047D01*
X10380000Y-2321693D02*
X10606376Y-2095317D01*
X17449944Y-2525047D02*
X18065137Y-2525047D01*
X26879603Y-2525047D02*
X26975388Y-2620832D01*
X10606376Y-1921346D02*
X10850173Y-1677550D01*
X9854564Y-2500000D02*
X10054564Y-2700000D01*
X19149943Y-2525047D02*
X20079606Y-2525047D01*
X8860000Y-2500000D02*
X9854564Y-2500000D01*
X21816656Y-2620832D02*
X22454156Y-2620832D01*
X20175391Y-2620832D02*
X20754157Y-2620832D01*
X20079606Y-2525047D02*
X20175391Y-2620832D01*
X12519951Y-2899951D02*
X13020049Y-2899951D01*
X13200000Y-2720000D02*
X13880000Y-2720000D01*
X15174562Y-2720000D02*
X15580000Y-2720000D01*
X10380000Y-2700000D02*
X10380000Y-2321693D01*
X16645137Y-2525047D02*
X16840091Y-2720000D01*
X14040000Y-2720000D02*
X14234953Y-2525047D01*
X11687494Y-1960800D02*
X12260000Y-2533305D01*
G04 #@! TO.N,Net-(D3-Pad2)*
X12183328Y-2833332D02*
X12254161Y-2833332D01*
X12041661Y-2691665D02*
X12183328Y-2833332D01*
G04 #@! TO.N,row2*
X24249941Y-4225046D02*
X24865133Y-4225046D01*
X22454156Y-4320831D02*
X22595823Y-4179165D01*
X8854163Y-4320831D02*
X9336821Y-4803489D01*
X15016660Y-4320831D02*
X15654159Y-4320831D01*
X22595823Y-4179165D02*
X23433723Y-4179165D01*
X10635641Y-2979079D02*
X10766662Y-3110100D01*
X20849942Y-4225046D02*
X21779605Y-4225046D01*
X17354159Y-4320831D02*
X17449944Y-4225046D01*
X12254161Y-4320831D02*
X12395827Y-4462498D01*
X25854154Y-4320831D02*
X25949940Y-4225046D01*
X13375395Y-4320831D02*
X13954160Y-4320831D01*
X26975388Y-4320831D02*
X27554154Y-4320831D01*
X24154155Y-4320831D02*
X24249941Y-4225046D01*
X12395827Y-4462498D02*
X12395827Y-4710098D01*
X21779605Y-4225046D02*
X21875391Y-4320831D01*
X18475392Y-4320831D02*
X19054158Y-4320831D01*
X10766662Y-3110100D02*
X10766662Y-4249998D01*
X16775393Y-4320831D02*
X17354159Y-4320831D01*
X14874993Y-4179165D02*
X15016660Y-4320831D01*
X24960919Y-4320831D02*
X25854154Y-4320831D01*
X19149943Y-4225046D02*
X19765136Y-4225046D01*
X12254161Y-4320831D02*
X12349946Y-4225046D01*
X11262495Y-5454164D02*
X11262495Y-5607930D01*
X23433723Y-4179165D02*
X23575390Y-4320831D01*
X26879603Y-4225046D02*
X26975388Y-4320831D01*
X10766662Y-4674998D02*
X11242541Y-4674998D01*
X11602944Y-5948379D02*
X12199913Y-5948379D01*
X12199913Y-5948379D02*
X12395827Y-5752465D01*
X19054158Y-4320831D02*
X19149943Y-4225046D01*
X16679608Y-4225046D02*
X16775393Y-4320831D01*
X13279609Y-4225046D02*
X13375395Y-4320831D01*
X10013354Y-4341542D02*
X10462618Y-4341542D01*
X19860921Y-4320831D02*
X20754157Y-4320831D01*
X9551407Y-4803489D02*
X10013354Y-4341542D01*
X21875391Y-4320831D02*
X22454156Y-4320831D01*
X17449944Y-4225046D02*
X18379607Y-4225046D01*
X19765136Y-4225046D02*
X19860921Y-4320831D01*
X24865133Y-4225046D02*
X24960919Y-4320831D01*
X10766662Y-4249998D02*
X10766662Y-4674998D01*
X9336821Y-4803489D02*
X9551407Y-4803489D01*
X15654159Y-4320831D02*
X15749945Y-4225046D01*
X25949940Y-4225046D02*
X26879603Y-4225046D01*
X23575390Y-4320831D02*
X24154155Y-4320831D01*
X15749945Y-4225046D02*
X16679608Y-4225046D01*
X11262495Y-5607930D02*
X11602944Y-5948379D01*
X20754157Y-4320831D02*
X20849942Y-4225046D01*
X12349946Y-4225046D02*
X13279609Y-4225046D01*
X18379607Y-4225046D02*
X18475392Y-4320831D01*
X14095827Y-4179165D02*
X14874993Y-4179165D01*
X13954160Y-4320831D02*
X14095827Y-4179165D01*
G04 #@! TO.N,row3*
X15654159Y-6020830D02*
X15749945Y-5925045D01*
X25854154Y-6020830D02*
X26014946Y-5860039D01*
X24154155Y-6020830D02*
X24249941Y-5925045D01*
X18416658Y-6020830D02*
X19054158Y-6020830D01*
X22549941Y-5925045D02*
X23350037Y-5925045D01*
X19149943Y-5925045D02*
X20091705Y-5925045D01*
X9820877Y-5925045D02*
X9916662Y-6020830D01*
X12254161Y-6020830D02*
X12349946Y-5925045D01*
X20187491Y-6020830D02*
X20754157Y-6020830D01*
X16679608Y-5925045D02*
X16775393Y-6020830D01*
X14984075Y-6020830D02*
X15654159Y-6020830D01*
X17354159Y-6020830D02*
X17449944Y-5925045D01*
X16775393Y-6020830D02*
X17354159Y-6020830D01*
X14823284Y-5860039D02*
X14984075Y-6020830D01*
X10397833Y-3606149D02*
X10370360Y-3606149D01*
X24249941Y-5925045D02*
X25050036Y-5925045D01*
X23350037Y-5925045D02*
X23445822Y-6020830D01*
X13279609Y-5925045D02*
X13375395Y-6020830D01*
X20849942Y-5925045D02*
X21745135Y-5925045D01*
X26014946Y-5860039D02*
X26723279Y-5860039D01*
X10649947Y-5925045D02*
X11305830Y-5925045D01*
X26884070Y-6020830D02*
X27554154Y-6020830D01*
X9774995Y-3655255D02*
X9906000Y-3524250D01*
X14114951Y-5860039D02*
X14823284Y-5860039D01*
X10504945Y-3022000D02*
X10504945Y-3499037D01*
X8949948Y-5925045D02*
X9820877Y-5925045D01*
X19054158Y-6020830D02*
X19149943Y-5925045D01*
X21745135Y-5925045D02*
X21840920Y-6020830D01*
X22454156Y-6020830D02*
X22549941Y-5925045D01*
X25050036Y-5925045D02*
X25145821Y-6020830D01*
X17449944Y-5925045D02*
X18320873Y-5925045D01*
X15749945Y-5925045D02*
X16679608Y-5925045D01*
X26723279Y-5860039D02*
X26884070Y-6020830D01*
X21840920Y-6020830D02*
X22454156Y-6020830D01*
X13954160Y-6020830D02*
X14114951Y-5860039D01*
X10554162Y-6020830D02*
X10649947Y-5925045D01*
X8854163Y-6020830D02*
X8949948Y-5925045D01*
X20091705Y-5925045D02*
X20187491Y-6020830D01*
X9916662Y-6020830D02*
X10554162Y-6020830D01*
X25145821Y-6020830D02*
X25854154Y-6020830D01*
X11401615Y-6020830D02*
X12254161Y-6020830D01*
X20754157Y-6020830D02*
X20849942Y-5925045D01*
X18320873Y-5925045D02*
X18416658Y-6020830D01*
X9774995Y-4157498D02*
X9774995Y-3655255D01*
X12349946Y-5925045D02*
X13279609Y-5925045D01*
X11305830Y-5925045D02*
X11401615Y-6020830D01*
X23445822Y-6020830D02*
X24154155Y-6020830D01*
X13375395Y-6020830D02*
X13954160Y-6020830D01*
X10504945Y-3499037D02*
X10397833Y-3606149D01*
G04 #@! TO.N,row4*
X19609845Y-7625044D02*
X20020872Y-7625044D01*
X20116657Y-7720830D02*
X20754157Y-7720830D01*
X19054158Y-7720830D02*
X19514060Y-7720830D01*
X25949940Y-7625044D02*
X26879603Y-7625044D01*
X21875391Y-7720830D02*
X22454156Y-7720830D01*
X9679210Y-7625044D02*
X9879611Y-7625044D01*
X20020872Y-7625044D02*
X20116657Y-7720830D01*
X16114061Y-7720830D02*
X16209847Y-7625044D01*
X8854163Y-7720830D02*
X8949948Y-7625044D01*
X9598453Y-4002622D02*
X9598453Y-3293207D01*
X25120869Y-7625044D02*
X25216655Y-7720830D01*
X12254161Y-7720830D02*
X12349946Y-7625044D01*
X9598453Y-3293207D02*
X9633329Y-3258332D01*
X9916662Y-3258332D02*
X9633329Y-3258332D01*
X18475392Y-7720830D02*
X19054158Y-7720830D01*
X16645825Y-7720830D02*
X17354159Y-7720830D01*
X9879611Y-7625044D02*
X9975396Y-7720830D01*
X21779605Y-7625044D02*
X21875391Y-7720830D01*
X18379607Y-7625044D02*
X17745376Y-7625044D01*
X25854154Y-7720830D02*
X25949940Y-7625044D01*
X25216655Y-7720830D02*
X25854154Y-7720830D01*
X8949948Y-7625044D02*
X9679210Y-7625044D01*
X15040923Y-7720830D02*
X15654159Y-7720830D01*
X26879603Y-7625044D02*
X26975388Y-7720830D01*
X23479604Y-7625044D02*
X23575390Y-7720830D01*
X17745376Y-7625044D02*
X17649591Y-7720830D01*
X20849942Y-7625044D02*
X21779605Y-7625044D01*
X10649947Y-7625044D02*
X11520876Y-7625044D01*
X24249941Y-7625044D02*
X25120869Y-7625044D01*
X16550040Y-7625044D02*
X16645825Y-7720830D01*
X10554162Y-7720830D02*
X10649947Y-7625044D01*
X22549941Y-7625044D02*
X23479604Y-7625044D01*
X24154155Y-7720830D02*
X24249941Y-7625044D01*
X11520876Y-7625044D02*
X11616661Y-7720830D01*
X19514060Y-7720830D02*
X19609845Y-7625044D01*
X10026227Y-3148767D02*
X9916662Y-3258332D01*
X9598453Y-4144289D02*
X9633329Y-4179165D01*
X14945138Y-7625044D02*
X14345378Y-7625044D01*
X22454156Y-7720830D02*
X22549941Y-7625044D01*
X9598453Y-4002622D02*
X9598453Y-4144289D01*
X16209847Y-7625044D02*
X16550040Y-7625044D01*
X15654159Y-7720830D02*
X16114061Y-7720830D01*
X13150042Y-7625044D02*
X13245827Y-7720830D01*
X9975396Y-7720830D02*
X10554162Y-7720830D01*
X17649591Y-7720830D02*
X17354159Y-7720830D01*
X20754157Y-7720830D02*
X20849942Y-7625044D01*
X14249592Y-7720830D02*
X13954160Y-7720830D01*
X13245827Y-7720830D02*
X13954160Y-7720830D01*
X12349946Y-7625044D02*
X13150042Y-7625044D01*
X14945138Y-7625044D02*
X15040923Y-7720830D01*
X23575390Y-7720830D02*
X24154155Y-7720830D01*
X26975388Y-7720830D02*
X27554154Y-7720830D01*
X11616661Y-7720830D02*
X12254161Y-7720830D01*
X18475392Y-7720830D02*
X18379607Y-7625044D01*
X14345378Y-7625044D02*
X14249592Y-7720830D01*
G04 #@! TO.N,Net-(D38-Pad2)*
X19816678Y-6816643D02*
X20021597Y-6816643D01*
X20021597Y-6816643D02*
X20060804Y-6855850D01*
G04 #@! TO.N,VBUS*
X11175000Y-1850000D02*
X11375000Y-1850000D01*
D13*
G04 #@! TO.N,col1*
X9312185Y-3905250D02*
X9114996Y-4102438D01*
X9349897Y-3905250D02*
X9312185Y-3905250D01*
D14*
G04 #@! TO.N,col3*
X10859995Y-4199995D02*
X10860000Y-4200000D01*
X10859995Y-2877550D02*
X10859995Y-4199995D01*
D13*
G04 #@! TO.N,col4*
X10191750Y-4762500D02*
X10289202Y-4859952D01*
X12530002Y-4859952D02*
X12560000Y-4889950D01*
D14*
X12820827Y-3329165D02*
X12891661Y-3399998D01*
D13*
X10191750Y-4442548D02*
X10191750Y-4762500D01*
D14*
X12891661Y-3399998D02*
X12891661Y-3824998D01*
D13*
X10289202Y-4859952D02*
X12530002Y-4859952D01*
G04 #@! TO.N,col5*
X10680000Y-4088550D02*
X10680000Y-4800000D01*
X10680000Y-4800000D02*
X10700000Y-4820000D01*
X10700000Y-4820000D02*
X14260000Y-4820000D01*
G04 #@! TO.N,col6*
X11439901Y-4959901D02*
X15959901Y-4959901D01*
X11439802Y-4960000D02*
X11439901Y-4959901D01*
X11340000Y-4960000D02*
X11439802Y-4960000D01*
X15959901Y-4959901D02*
X15960000Y-4960000D01*
G04 #@! TO.N,col7*
X11395442Y-5043164D02*
X17656836Y-5043164D01*
X17656836Y-5043164D02*
X17660000Y-5040000D01*
D14*
X17141659Y-7154163D02*
X17287400Y-7154163D01*
D13*
G04 #@! TO.N,col8*
X11474995Y-5113114D02*
X19333114Y-5113114D01*
X19333114Y-5113114D02*
X19360000Y-5140000D01*
G04 #@! TO.N,col9*
X21050776Y-5209951D02*
X21059990Y-5219165D01*
X11572719Y-5209951D02*
X21050776Y-5209951D01*
X11546112Y-5183344D02*
X11572719Y-5209951D01*
G04 #@! TO.N,col10*
X12096606Y-4780048D02*
X12978382Y-4780048D01*
X11756558Y-4440000D02*
X12096606Y-4780048D01*
X13310884Y-4447546D02*
X14360979Y-4447546D01*
X14753433Y-4840000D02*
X22572487Y-4840000D01*
X11580000Y-4440000D02*
X11756558Y-4440000D01*
X22572487Y-4840000D02*
X22737489Y-4674998D01*
X14360979Y-4447546D02*
X14753433Y-4840000D01*
X12978382Y-4780048D02*
X13310884Y-4447546D01*
D14*
G04 #@! TO.N,col11*
X8824152Y-4393282D02*
X8863042Y-4393282D01*
X24246137Y-5404479D02*
X24390506Y-5404479D01*
X11664786Y-5404479D02*
X24246137Y-5404479D01*
X11473661Y-5213355D02*
X11664786Y-5404479D01*
X24390506Y-5404479D02*
X24459988Y-5334997D01*
X8781711Y-4290821D02*
X8781711Y-4350842D01*
X9000104Y-4072428D02*
X8781711Y-4290821D01*
X9683114Y-5213355D02*
X11473661Y-5213355D01*
X9309674Y-3805300D02*
X9042545Y-4072428D01*
X8863042Y-4393282D02*
X9683114Y-5213355D01*
X9349897Y-3805300D02*
X9309674Y-3805300D01*
X9042545Y-4072428D02*
X9000104Y-4072428D01*
X8781711Y-4350842D02*
X8824152Y-4393282D01*
G04 #@! TO.N,col12*
X11232484Y-5381713D02*
X11544210Y-5381713D01*
X9118371Y-3914956D02*
X8786737Y-3914956D01*
X26209939Y-5455782D02*
X26249842Y-5495685D01*
X24297440Y-5455782D02*
X26209939Y-5455782D01*
X11160033Y-5454164D02*
X11232484Y-5381713D01*
X24295822Y-5454164D02*
X24297440Y-5455782D01*
X9349996Y-3683332D02*
X9118371Y-3914956D01*
X8786737Y-3914956D02*
X8712496Y-3989197D01*
X11544210Y-5381713D02*
X11616661Y-5454164D01*
X8712496Y-4671027D02*
X9495633Y-5454164D01*
X11616661Y-5454164D02*
X24295822Y-5454164D01*
X8712496Y-3989197D02*
X8712496Y-4671027D01*
X9495633Y-5454164D02*
X11160033Y-5454164D01*
G04 #@! TO.N,Net-(D37-Pad2)*
X16052495Y-6658330D02*
X16192395Y-6658330D01*
G04 #@! TD*
M02*
