%TF.GenerationSoftware,KiCad,Pcbnew,(6.0.4-0)*%
%TF.CreationDate,2023-09-21T22:36:32-05:00*%
%TF.ProjectId,dogema48_cfx,646f6765-6d61-4343-985f-6366782e6b69,rev?*%
%TF.SameCoordinates,Original*%
%TF.FileFunction,Plated,1,2,PTH,Mixed*%
%TF.FilePolarity,Positive*%
%FSLAX46Y46*%
G04 Gerber Fmt 4.6, Leading zero omitted, Abs format (unit mm)*
G04 Created by KiCad (PCBNEW (6.0.4-0)) date 2023-09-21 22:36:32*
%MOMM*%
%LPD*%
G01*
G04 APERTURE LIST*
%TA.AperFunction,ViaDrill*%
%ADD10C,0.400000*%
%TD*%
G04 aperture for slot hole*
%TA.AperFunction,ComponentDrill*%
%ADD11O,0.600000X1.200000*%
%TD*%
G04 aperture for slot hole*
%TA.AperFunction,ComponentDrill*%
%ADD12O,0.600000X1.700000*%
%TD*%
G04 APERTURE END LIST*
D10*
X88541625Y-43208313D03*
X88541625Y-60208305D03*
X88541625Y-77208297D03*
X88600000Y-25000000D03*
X91149961Y-41024385D03*
X93498972Y-38052997D03*
X93498972Y-39052500D03*
X93499956Y-36833316D03*
X96333288Y-41791647D03*
X96792101Y-76250444D03*
X97749954Y-41574981D03*
X98208767Y-59250452D03*
X99060000Y-35242500D03*
X100262268Y-31487670D03*
X101299500Y-34290000D03*
X101917500Y-44425479D03*
X103703597Y-36061495D03*
X103800000Y-27000000D03*
X103800000Y-34224500D03*
X103900000Y-32775500D03*
X104626176Y-43415420D03*
X105049454Y-30220001D03*
X105541617Y-60208305D03*
X105541617Y-77208297D03*
X105759679Y-42353691D03*
X106356406Y-29790789D03*
X106760000Y-24220000D03*
X106800000Y-40885500D03*
X107666616Y-46749978D03*
X108599945Y-28775500D03*
X108600000Y-42000000D03*
X111750000Y-18500000D03*
X111938982Y-29500000D03*
X112425408Y-46749978D03*
X112624947Y-54541641D03*
X113400000Y-49600000D03*
X113750000Y-18500000D03*
X113954424Y-50431636D03*
X114041613Y-16775500D03*
X114749946Y-51131136D03*
X115400000Y-31614500D03*
X115461122Y-51833443D03*
X115474446Y-38249982D03*
X115800000Y-44400000D03*
X115838365Y-34638365D03*
X116874945Y-16999992D03*
X117760089Y-34400000D03*
X120416610Y-26916654D03*
X121934486Y-37521348D03*
X122541609Y-28333320D03*
X122541609Y-43208313D03*
X122541609Y-60208305D03*
X122541609Y-77208297D03*
X122600000Y-26400000D03*
X123249942Y-31874985D03*
X123400000Y-27200000D03*
X123958275Y-47100980D03*
X123958275Y-57524651D03*
X124666608Y-29749986D03*
X125600000Y-48899500D03*
X126791607Y-29749986D03*
X127499940Y-33999984D03*
X128208273Y-33291651D03*
X128916606Y-38249982D03*
X138800000Y-27200000D03*
X139541601Y-43208313D03*
X139541601Y-60208305D03*
X139541601Y-77208297D03*
X140400000Y-27200000D03*
X142600000Y-48200000D03*
X155800000Y-27200000D03*
X156541593Y-43208313D03*
X156541593Y-60208305D03*
X156541593Y-77208297D03*
X157400000Y-27200000D03*
X159600000Y-49600000D03*
X160524946Y-66583302D03*
X161923946Y-66583302D03*
X171416586Y-71541633D03*
X172800000Y-27200000D03*
X172874000Y-71541633D03*
X173541585Y-26208321D03*
X173541585Y-43208313D03*
X173541585Y-60208305D03*
X173541585Y-77208297D03*
X176600000Y-50400000D03*
X190541577Y-26208321D03*
X190541577Y-43208313D03*
X190541577Y-60208305D03*
X190541577Y-77208297D03*
X193600000Y-51400000D03*
X198166776Y-68166432D03*
X200608041Y-68558499D03*
X207541569Y-26208321D03*
X207541569Y-43208313D03*
X207541569Y-60208305D03*
X207541569Y-77208297D03*
X210599897Y-52191646D03*
X224541561Y-26208321D03*
X224541561Y-43208313D03*
X224541561Y-60208305D03*
X224541561Y-77208297D03*
X227374893Y-46749978D03*
X241541553Y-26208321D03*
X241541553Y-43208313D03*
X241541553Y-60208305D03*
X241541553Y-77208297D03*
X244599881Y-53349971D03*
X258541545Y-25499988D03*
X258541545Y-43208313D03*
X258541545Y-60208305D03*
X258541545Y-77208297D03*
X262498421Y-54956852D03*
X275541537Y-26208321D03*
X275541537Y-43208313D03*
X275541537Y-60208305D03*
X275541537Y-77208297D03*
D11*
%TO.C,J1*%
X106888281Y-15924992D03*
D12*
X106888281Y-20104992D03*
D11*
X115528281Y-15924992D03*
D12*
X115528281Y-20104992D03*
M02*
