%FSLAX45Y45*%
G04 Gerber Fmt 4.5, Leading zero omitted, Abs format (unit mm)*
G04 Created by KiCad (PCBNEW (6.0.4-0)) date 2023-09-21 22:36:33*
%MOMM*%
%LPD*%
G01*
G04 APERTURE LIST*
%TA.AperFunction,Profile*%
%ADD10C,0.100000*%
%TD*%
%ADD11C,0.200000*%
%ADD12C,0.040000*%
%ADD13C,0.060000*%
G04 APERTURE END LIST*
D10*
X7649996Y-1487496D02*
G75*
G03*
X7437496Y-1699998I4J-212504D01*
G01*
X11545828Y-1345833D02*
X11652078Y-1487499D01*
X10589578Y-1487499D02*
X10554162Y-1487499D01*
X7437503Y-8145829D02*
X7437503Y-1699999D01*
X27837487Y-8145829D02*
X27837487Y-1629166D01*
X7649996Y-1487498D02*
X10554162Y-1487499D01*
X27837485Y-1629162D02*
G75*
G03*
X27695822Y-1487495I-141665J2D01*
G01*
X27695822Y-1487495D02*
X11687494Y-1487499D01*
X11687494Y-1487499D02*
X11652078Y-1487499D01*
X7579170Y-8287496D02*
X27695820Y-8287496D01*
X10589578Y-1487499D02*
X10695828Y-1345833D01*
X10695828Y-1345833D02*
X11545828Y-1345833D01*
X7437494Y-8145829D02*
G75*
G03*
X7579170Y-8287496I141666J-1D01*
G01*
X27695820Y-8287497D02*
G75*
G03*
X27837487Y-8145829I0J141667D01*
G01*
D11*
D12*
X8834163Y-4300831D02*
X8874163Y-4340831D01*
X8874163Y-4300831D02*
X8834163Y-4340831D01*
X8834163Y-6000830D02*
X8874163Y-6040830D01*
X8874163Y-6000830D02*
X8834163Y-6040830D01*
X8834163Y-7700830D02*
X8874163Y-7740830D01*
X8874163Y-7700830D02*
X8834163Y-7740830D01*
X8840000Y-2480000D02*
X8880000Y-2520000D01*
X8880000Y-2480000D02*
X8840000Y-2520000D01*
X9094996Y-4082438D02*
X9134996Y-4122438D01*
X9134996Y-4082438D02*
X9094996Y-4122438D01*
X9329897Y-3785300D02*
X9369897Y-3825300D01*
X9369897Y-3785300D02*
X9329897Y-3825300D01*
X9329897Y-3885250D02*
X9369897Y-3925250D01*
X9369897Y-3885250D02*
X9329897Y-3925250D01*
X9329996Y-3663332D02*
X9369996Y-3703332D01*
X9369996Y-3663332D02*
X9329996Y-3703332D01*
X9613329Y-4159165D02*
X9653329Y-4199165D01*
X9653329Y-4159165D02*
X9613329Y-4199165D01*
X9659210Y-7605044D02*
X9699210Y-7645044D01*
X9699210Y-7605044D02*
X9659210Y-7645044D01*
X9754995Y-4137498D02*
X9794995Y-4177498D01*
X9794995Y-4137498D02*
X9754995Y-4177498D01*
X9800877Y-5905045D02*
X9840877Y-5945045D01*
X9840877Y-5905045D02*
X9800877Y-5945045D01*
X9886000Y-3504250D02*
X9926000Y-3544250D01*
X9926000Y-3504250D02*
X9886000Y-3544250D01*
X10006227Y-3128767D02*
X10046227Y-3168767D01*
X10046227Y-3128767D02*
X10006227Y-3168767D01*
X10109950Y-3409000D02*
X10149950Y-3449000D01*
X10149950Y-3409000D02*
X10109950Y-3449000D01*
X10171750Y-4422548D02*
X10211750Y-4462548D01*
X10211750Y-4422548D02*
X10171750Y-4462548D01*
X10350360Y-3586149D02*
X10390360Y-3626149D01*
X10390360Y-3586149D02*
X10350360Y-3626149D01*
X10360000Y-2680000D02*
X10400000Y-2720000D01*
X10400000Y-2680000D02*
X10360000Y-2720000D01*
X10360000Y-3402450D02*
X10400000Y-3442450D01*
X10400000Y-3402450D02*
X10360000Y-3442450D01*
X10370000Y-3257550D02*
X10410000Y-3297550D01*
X10410000Y-3257550D02*
X10370000Y-3297550D01*
X10442618Y-4321542D02*
X10482618Y-4361542D01*
X10482618Y-4321542D02*
X10442618Y-4361542D01*
X10484945Y-3002000D02*
X10524945Y-3042000D01*
X10524945Y-3002000D02*
X10484945Y-3042000D01*
X10534162Y-6000830D02*
X10574162Y-6040830D01*
X10574162Y-6000830D02*
X10534162Y-6040830D01*
X10534162Y-7700830D02*
X10574162Y-7740830D01*
X10574162Y-7700830D02*
X10534162Y-7740830D01*
X10555968Y-4215369D02*
X10595968Y-4255369D01*
X10595968Y-4215369D02*
X10555968Y-4255369D01*
X10615641Y-2959079D02*
X10655641Y-2999079D01*
X10655641Y-2959079D02*
X10615641Y-2999079D01*
X10656000Y-2402000D02*
X10696000Y-2442000D01*
X10696000Y-2402000D02*
X10656000Y-2442000D01*
X10660000Y-4068550D02*
X10700000Y-4108550D01*
X10700000Y-4068550D02*
X10660000Y-4108550D01*
X10746662Y-4654998D02*
X10786662Y-4694998D01*
X10786662Y-4654998D02*
X10746662Y-4694998D01*
X10839995Y-2857550D02*
X10879995Y-2897550D01*
X10879995Y-2857550D02*
X10839995Y-2897550D01*
X10840000Y-4180000D02*
X10880000Y-4220000D01*
X10880000Y-4180000D02*
X10840000Y-4220000D01*
X11155000Y-1830000D02*
X11195000Y-1870000D01*
X11195000Y-1830000D02*
X11155000Y-1870000D01*
X11173898Y-2930000D02*
X11213898Y-2970000D01*
X11213898Y-2930000D02*
X11173898Y-2970000D01*
X11222541Y-4654998D02*
X11262541Y-4694998D01*
X11262541Y-4654998D02*
X11222541Y-4694998D01*
X11242495Y-5434164D02*
X11282495Y-5474164D01*
X11282495Y-5434164D02*
X11242495Y-5474164D01*
X11320000Y-4940000D02*
X11360000Y-4980000D01*
X11360000Y-4940000D02*
X11320000Y-4980000D01*
X11355000Y-1830000D02*
X11395000Y-1870000D01*
X11395000Y-1830000D02*
X11355000Y-1870000D01*
X11375442Y-5023164D02*
X11415442Y-5063164D01*
X11415442Y-5023164D02*
X11375442Y-5063164D01*
X11384161Y-1657550D02*
X11424161Y-1697550D01*
X11424161Y-1657550D02*
X11384161Y-1697550D01*
X11454995Y-5093114D02*
X11494995Y-5133114D01*
X11494995Y-5093114D02*
X11454995Y-5133114D01*
X11520000Y-3141450D02*
X11560000Y-3181450D01*
X11560000Y-3141450D02*
X11520000Y-3181450D01*
X11526112Y-5163344D02*
X11566112Y-5203344D01*
X11566112Y-5163344D02*
X11526112Y-5203344D01*
X11527445Y-3804998D02*
X11567445Y-3844998D01*
X11567445Y-3804998D02*
X11527445Y-3844998D01*
X11560000Y-4420000D02*
X11600000Y-4460000D01*
X11600000Y-4420000D02*
X11560000Y-4460000D01*
X11563836Y-3443836D02*
X11603836Y-3483836D01*
X11603836Y-3443836D02*
X11563836Y-3483836D01*
X11667494Y-1679999D02*
X11707494Y-1719999D01*
X11707494Y-1679999D02*
X11667494Y-1719999D01*
X11756009Y-3420000D02*
X11796009Y-3460000D01*
X11796009Y-3420000D02*
X11756009Y-3460000D01*
X12021661Y-2671665D02*
X12061661Y-2711665D01*
X12061661Y-2671665D02*
X12021661Y-2711665D01*
X12173449Y-3732135D02*
X12213449Y-3772135D01*
X12213449Y-3732135D02*
X12173449Y-3772135D01*
X12234161Y-2813332D02*
X12274161Y-2853332D01*
X12274161Y-2813332D02*
X12234161Y-2853332D01*
X12234161Y-4300831D02*
X12274161Y-4340831D01*
X12274161Y-4300831D02*
X12234161Y-4340831D01*
X12234161Y-6000830D02*
X12274161Y-6040830D01*
X12274161Y-6000830D02*
X12234161Y-6040830D01*
X12234161Y-7700830D02*
X12274161Y-7740830D01*
X12274161Y-7700830D02*
X12234161Y-7740830D01*
X12240000Y-2620000D02*
X12280000Y-2660000D01*
X12280000Y-2620000D02*
X12240000Y-2660000D01*
X12304994Y-3167498D02*
X12344994Y-3207498D01*
X12344994Y-3167498D02*
X12304994Y-3207498D01*
X12320000Y-2700000D02*
X12360000Y-2740000D01*
X12360000Y-2700000D02*
X12320000Y-2740000D01*
X12375827Y-4690098D02*
X12415827Y-4730098D01*
X12415827Y-4690098D02*
X12375827Y-4730098D01*
X12375827Y-5732465D02*
X12415827Y-5772465D01*
X12415827Y-5732465D02*
X12375827Y-5772465D01*
X12446661Y-2954999D02*
X12486661Y-2994999D01*
X12486661Y-2954999D02*
X12446661Y-2994999D01*
X12540000Y-4869950D02*
X12580000Y-4909950D01*
X12580000Y-4869950D02*
X12540000Y-4909950D01*
X12659161Y-2954999D02*
X12699161Y-2994999D01*
X12699161Y-2954999D02*
X12659161Y-2994999D01*
X12729994Y-3379998D02*
X12769994Y-3419998D01*
X12769994Y-3379998D02*
X12729994Y-3419998D01*
X12800827Y-3309165D02*
X12840827Y-3349165D01*
X12840827Y-3309165D02*
X12800827Y-3349165D01*
X12871661Y-3804998D02*
X12911661Y-3844998D01*
X12911661Y-3804998D02*
X12871661Y-3844998D01*
X13860000Y-2700000D02*
X13900000Y-2740000D01*
X13900000Y-2700000D02*
X13860000Y-2740000D01*
X13934160Y-4300831D02*
X13974160Y-4340831D01*
X13974160Y-4300831D02*
X13934160Y-4340831D01*
X13934160Y-6000830D02*
X13974160Y-6040830D01*
X13974160Y-6000830D02*
X13934160Y-6040830D01*
X13934160Y-7700830D02*
X13974160Y-7740830D01*
X13974160Y-7700830D02*
X13934160Y-7740830D01*
X14020000Y-2700000D02*
X14060000Y-2740000D01*
X14060000Y-2700000D02*
X14020000Y-2740000D01*
X14240000Y-4800000D02*
X14280000Y-4840000D01*
X14280000Y-4800000D02*
X14240000Y-4840000D01*
X15560000Y-2700000D02*
X15600000Y-2740000D01*
X15600000Y-2700000D02*
X15560000Y-2740000D01*
X15634159Y-4300831D02*
X15674159Y-4340831D01*
X15674159Y-4300831D02*
X15634159Y-4340831D01*
X15634159Y-6000830D02*
X15674159Y-6040830D01*
X15674159Y-6000830D02*
X15634159Y-6040830D01*
X15634159Y-7700830D02*
X15674159Y-7740830D01*
X15674159Y-7700830D02*
X15634159Y-7740830D01*
X15720000Y-2700000D02*
X15760000Y-2740000D01*
X15760000Y-2700000D02*
X15720000Y-2740000D01*
X15940000Y-4940000D02*
X15980000Y-4980000D01*
X15980000Y-4940000D02*
X15940000Y-4980000D01*
X16032495Y-6638330D02*
X16072495Y-6678330D01*
X16072495Y-6638330D02*
X16032495Y-6678330D01*
X16172395Y-6638330D02*
X16212395Y-6678330D01*
X16212395Y-6638330D02*
X16172395Y-6678330D01*
X17121659Y-7134163D02*
X17161659Y-7174163D01*
X17161659Y-7134163D02*
X17121659Y-7174163D01*
X17260000Y-2700000D02*
X17300000Y-2740000D01*
X17300000Y-2700000D02*
X17260000Y-2740000D01*
X17267400Y-7134163D02*
X17307400Y-7174163D01*
X17307400Y-7134163D02*
X17267400Y-7174163D01*
X17334159Y-2600832D02*
X17374159Y-2640832D01*
X17374159Y-2600832D02*
X17334159Y-2640832D01*
X17334159Y-4300831D02*
X17374159Y-4340831D01*
X17374159Y-4300831D02*
X17334159Y-4340831D01*
X17334159Y-6000830D02*
X17374159Y-6040830D01*
X17374159Y-6000830D02*
X17334159Y-6040830D01*
X17334159Y-7700830D02*
X17374159Y-7740830D01*
X17374159Y-7700830D02*
X17334159Y-7740830D01*
X17640000Y-5020000D02*
X17680000Y-5060000D01*
X17680000Y-5020000D02*
X17640000Y-5060000D01*
X19034158Y-2600832D02*
X19074158Y-2640832D01*
X19074158Y-2600832D02*
X19034158Y-2640832D01*
X19034158Y-4300831D02*
X19074158Y-4340831D01*
X19074158Y-4300831D02*
X19034158Y-4340831D01*
X19034158Y-6000830D02*
X19074158Y-6040830D01*
X19074158Y-6000830D02*
X19034158Y-6040830D01*
X19034158Y-7700830D02*
X19074158Y-7740830D01*
X19074158Y-7700830D02*
X19034158Y-7740830D01*
X19340000Y-5120000D02*
X19380000Y-5160000D01*
X19380000Y-5120000D02*
X19340000Y-5160000D01*
X19796678Y-6796643D02*
X19836678Y-6836643D01*
X19836678Y-6796643D02*
X19796678Y-6836643D01*
X20040804Y-6835850D02*
X20080804Y-6875850D01*
X20080804Y-6835850D02*
X20040804Y-6875850D01*
X20734157Y-2600832D02*
X20774157Y-2640832D01*
X20774157Y-2600832D02*
X20734157Y-2640832D01*
X20734157Y-4300831D02*
X20774157Y-4340831D01*
X20774157Y-4300831D02*
X20734157Y-4340831D01*
X20734157Y-6000830D02*
X20774157Y-6040830D01*
X20774157Y-6000830D02*
X20734157Y-6040830D01*
X20734157Y-7700830D02*
X20774157Y-7740830D01*
X20774157Y-7700830D02*
X20734157Y-7740830D01*
X21039990Y-5199165D02*
X21079990Y-5239165D01*
X21079990Y-5199165D02*
X21039990Y-5239165D01*
X22434156Y-2600832D02*
X22474156Y-2640832D01*
X22474156Y-2600832D02*
X22434156Y-2640832D01*
X22434156Y-4300831D02*
X22474156Y-4340831D01*
X22474156Y-4300831D02*
X22434156Y-4340831D01*
X22434156Y-6000830D02*
X22474156Y-6040830D01*
X22474156Y-6000830D02*
X22434156Y-6040830D01*
X22434156Y-7700830D02*
X22474156Y-7740830D01*
X22474156Y-7700830D02*
X22434156Y-7740830D01*
X22717489Y-4654998D02*
X22757489Y-4694998D01*
X22757489Y-4654998D02*
X22717489Y-4694998D01*
X24134155Y-2600832D02*
X24174155Y-2640832D01*
X24174155Y-2600832D02*
X24134155Y-2640832D01*
X24134155Y-4300831D02*
X24174155Y-4340831D01*
X24174155Y-4300831D02*
X24134155Y-4340831D01*
X24134155Y-6000830D02*
X24174155Y-6040830D01*
X24174155Y-6000830D02*
X24134155Y-6040830D01*
X24134155Y-7700830D02*
X24174155Y-7740830D01*
X24174155Y-7700830D02*
X24134155Y-7740830D01*
X24439988Y-5314997D02*
X24479988Y-5354997D01*
X24479988Y-5314997D02*
X24439988Y-5354997D01*
X25834154Y-2529999D02*
X25874154Y-2569999D01*
X25874154Y-2529999D02*
X25834154Y-2569999D01*
X25834154Y-4300831D02*
X25874154Y-4340831D01*
X25874154Y-4300831D02*
X25834154Y-4340831D01*
X25834154Y-6000830D02*
X25874154Y-6040830D01*
X25874154Y-6000830D02*
X25834154Y-6040830D01*
X25834154Y-7700830D02*
X25874154Y-7740830D01*
X25874154Y-7700830D02*
X25834154Y-7740830D01*
X26229842Y-5475685D02*
X26269842Y-5515685D01*
X26269842Y-5475685D02*
X26229842Y-5515685D01*
X27534154Y-2600832D02*
X27574154Y-2640832D01*
X27574154Y-2600832D02*
X27534154Y-2640832D01*
X27534154Y-4300831D02*
X27574154Y-4340831D01*
X27574154Y-4300831D02*
X27534154Y-4340831D01*
X27534154Y-6000830D02*
X27574154Y-6040830D01*
X27574154Y-6000830D02*
X27534154Y-6040830D01*
X27534154Y-7700830D02*
X27574154Y-7740830D01*
X27574154Y-7700830D02*
X27534154Y-7740830D01*
D13*
X10718828Y-1592499D02*
G75*
G03*
X10718828Y-1592499I-30000J0D01*
G01*
D11*
X10668828Y-1562499D02*
X10668828Y-1622499D01*
X10708828Y-1562499D02*
X10708828Y-1622499D01*
X10668828Y-1622499D02*
G75*
G03*
X10708828Y-1622499I20000J0D01*
G01*
X10708828Y-1562499D02*
G75*
G03*
X10668828Y-1562499I-20000J0D01*
G01*
D13*
X10718828Y-2010499D02*
G75*
G03*
X10718828Y-2010499I-30000J0D01*
G01*
D11*
X10668828Y-1955499D02*
X10668828Y-2065499D01*
X10708828Y-1955499D02*
X10708828Y-2065499D01*
X10668828Y-2065499D02*
G75*
G03*
X10708828Y-2065499I20000J0D01*
G01*
X10708828Y-1955499D02*
G75*
G03*
X10668828Y-1955499I-20000J0D01*
G01*
D13*
X11582828Y-1592499D02*
G75*
G03*
X11582828Y-1592499I-30000J0D01*
G01*
D11*
X11532828Y-1562499D02*
X11532828Y-1622499D01*
X11572828Y-1562499D02*
X11572828Y-1622499D01*
X11532828Y-1622499D02*
G75*
G03*
X11572828Y-1622499I20000J0D01*
G01*
X11572828Y-1562499D02*
G75*
G03*
X11532828Y-1562499I-20000J0D01*
G01*
D13*
X11582828Y-2010499D02*
G75*
G03*
X11582828Y-2010499I-30000J0D01*
G01*
D11*
X11532828Y-1955499D02*
X11532828Y-2065499D01*
X11572828Y-1955499D02*
X11572828Y-2065499D01*
X11532828Y-2065499D02*
G75*
G03*
X11572828Y-2065499I20000J0D01*
G01*
X11572828Y-1955499D02*
G75*
G03*
X11532828Y-1955499I-20000J0D01*
G01*
X7690115Y-8602972D02*
X7690115Y-8402972D01*
X7737734Y-8402972D01*
X7766306Y-8412496D01*
X7785354Y-8431544D01*
X7794877Y-8450591D01*
X7804401Y-8488687D01*
X7804401Y-8517258D01*
X7794877Y-8555353D01*
X7785354Y-8574401D01*
X7766306Y-8593448D01*
X7737734Y-8602972D01*
X7690115Y-8602972D01*
X7890115Y-8602972D02*
X7890115Y-8469639D01*
X7890115Y-8507734D02*
X7899639Y-8488687D01*
X7909163Y-8479163D01*
X7928211Y-8469639D01*
X7947258Y-8469639D01*
X8013925Y-8602972D02*
X8013925Y-8469639D01*
X8013925Y-8402972D02*
X8004401Y-8412496D01*
X8013925Y-8422020D01*
X8023449Y-8412496D01*
X8013925Y-8402972D01*
X8013925Y-8422020D01*
X8137734Y-8602972D02*
X8118687Y-8593448D01*
X8109163Y-8574401D01*
X8109163Y-8402972D01*
X8242496Y-8602972D02*
X8223449Y-8593448D01*
X8213925Y-8574401D01*
X8213925Y-8402972D01*
X8471068Y-8602972D02*
X8471068Y-8402972D01*
X8537735Y-8545829D01*
X8604401Y-8402972D01*
X8604401Y-8602972D01*
X8785354Y-8602972D02*
X8785354Y-8498210D01*
X8775830Y-8479163D01*
X8756782Y-8469639D01*
X8718687Y-8469639D01*
X8699639Y-8479163D01*
X8785354Y-8593448D02*
X8766306Y-8602972D01*
X8718687Y-8602972D01*
X8699639Y-8593448D01*
X8690116Y-8574401D01*
X8690116Y-8555353D01*
X8699639Y-8536306D01*
X8718687Y-8526782D01*
X8766306Y-8526782D01*
X8785354Y-8517258D01*
X8880592Y-8469639D02*
X8880592Y-8669639D01*
X8880592Y-8479163D02*
X8899639Y-8469639D01*
X8937735Y-8469639D01*
X8956782Y-8479163D01*
X8966306Y-8488687D01*
X8975830Y-8507734D01*
X8975830Y-8564877D01*
X8966306Y-8583925D01*
X8956782Y-8593448D01*
X8937735Y-8602972D01*
X8899639Y-8602972D01*
X8880592Y-8593448D01*
X9061544Y-8583925D02*
X9071068Y-8593448D01*
X9061544Y-8602972D01*
X9052020Y-8593448D01*
X9061544Y-8583925D01*
X9061544Y-8602972D01*
X9061544Y-8479163D02*
X9071068Y-8488687D01*
X9061544Y-8498210D01*
X9052020Y-8488687D01*
X9061544Y-8479163D01*
X9061544Y-8498210D01*
D12*
X7392496Y-8912496D02*
X7432496Y-8952496D01*
X7432496Y-8912496D02*
X7392496Y-8952496D01*
D11*
X7728211Y-8822972D02*
X7747258Y-8822972D01*
X7766306Y-8832496D01*
X7775830Y-8842020D01*
X7785354Y-8861068D01*
X7794877Y-8899163D01*
X7794877Y-8946782D01*
X7785354Y-8984877D01*
X7775830Y-9003925D01*
X7766306Y-9013448D01*
X7747258Y-9022972D01*
X7728211Y-9022972D01*
X7709163Y-9013448D01*
X7699639Y-9003925D01*
X7690115Y-8984877D01*
X7680592Y-8946782D01*
X7680592Y-8899163D01*
X7690115Y-8861068D01*
X7699639Y-8842020D01*
X7709163Y-8832496D01*
X7728211Y-8822972D01*
X7880592Y-9003925D02*
X7890115Y-9013448D01*
X7880592Y-9022972D01*
X7871068Y-9013448D01*
X7880592Y-9003925D01*
X7880592Y-9022972D01*
X8061544Y-8889639D02*
X8061544Y-9022972D01*
X8013925Y-8813448D02*
X7966306Y-8956306D01*
X8090115Y-8956306D01*
X8204401Y-8822972D02*
X8223449Y-8822972D01*
X8242496Y-8832496D01*
X8252020Y-8842020D01*
X8261544Y-8861068D01*
X8271068Y-8899163D01*
X8271068Y-8946782D01*
X8261544Y-8984877D01*
X8252020Y-9003925D01*
X8242496Y-9013448D01*
X8223449Y-9022972D01*
X8204401Y-9022972D01*
X8185354Y-9013448D01*
X8175830Y-9003925D01*
X8166306Y-8984877D01*
X8156782Y-8946782D01*
X8156782Y-8899163D01*
X8166306Y-8861068D01*
X8175830Y-8842020D01*
X8185354Y-8832496D01*
X8204401Y-8822972D01*
X8394877Y-8822972D02*
X8413925Y-8822972D01*
X8432973Y-8832496D01*
X8442497Y-8842020D01*
X8452020Y-8861068D01*
X8461544Y-8899163D01*
X8461544Y-8946782D01*
X8452020Y-8984877D01*
X8442497Y-9003925D01*
X8432973Y-9013448D01*
X8413925Y-9022972D01*
X8394877Y-9022972D01*
X8375830Y-9013448D01*
X8366306Y-9003925D01*
X8356782Y-8984877D01*
X8347258Y-8946782D01*
X8347258Y-8899163D01*
X8356782Y-8861068D01*
X8366306Y-8842020D01*
X8375830Y-8832496D01*
X8394877Y-8822972D01*
X8547258Y-9022972D02*
X8547258Y-8889639D01*
X8547258Y-8908687D02*
X8556782Y-8899163D01*
X8575830Y-8889639D01*
X8604401Y-8889639D01*
X8623449Y-8899163D01*
X8632973Y-8918210D01*
X8632973Y-9022972D01*
X8632973Y-8918210D02*
X8642497Y-8899163D01*
X8661544Y-8889639D01*
X8690116Y-8889639D01*
X8709163Y-8899163D01*
X8718687Y-8918210D01*
X8718687Y-9022972D01*
X8813925Y-9022972D02*
X8813925Y-8889639D01*
X8813925Y-8908687D02*
X8823449Y-8899163D01*
X8842497Y-8889639D01*
X8871068Y-8889639D01*
X8890116Y-8899163D01*
X8899639Y-8918210D01*
X8899639Y-9022972D01*
X8899639Y-8918210D02*
X8909163Y-8899163D01*
X8928211Y-8889639D01*
X8956782Y-8889639D01*
X8975830Y-8899163D01*
X8985354Y-8918210D01*
X8985354Y-9022972D01*
X9375830Y-8813448D02*
X9204401Y-9070591D01*
X9632973Y-8822972D02*
X9652020Y-8822972D01*
X9671068Y-8832496D01*
X9680592Y-8842020D01*
X9690116Y-8861068D01*
X9699639Y-8899163D01*
X9699639Y-8946782D01*
X9690116Y-8984877D01*
X9680592Y-9003925D01*
X9671068Y-9013448D01*
X9652020Y-9022972D01*
X9632973Y-9022972D01*
X9613925Y-9013448D01*
X9604401Y-9003925D01*
X9594877Y-8984877D01*
X9585354Y-8946782D01*
X9585354Y-8899163D01*
X9594877Y-8861068D01*
X9604401Y-8842020D01*
X9613925Y-8832496D01*
X9632973Y-8822972D01*
X9785354Y-9003925D02*
X9794877Y-9013448D01*
X9785354Y-9022972D01*
X9775830Y-9013448D01*
X9785354Y-9003925D01*
X9785354Y-9022972D01*
X9918687Y-8822972D02*
X9937735Y-8822972D01*
X9956782Y-8832496D01*
X9966306Y-8842020D01*
X9975830Y-8861068D01*
X9985354Y-8899163D01*
X9985354Y-8946782D01*
X9975830Y-8984877D01*
X9966306Y-9003925D01*
X9956782Y-9013448D01*
X9937735Y-9022972D01*
X9918687Y-9022972D01*
X9899639Y-9013448D01*
X9890116Y-9003925D01*
X9880592Y-8984877D01*
X9871068Y-8946782D01*
X9871068Y-8899163D01*
X9880592Y-8861068D01*
X9890116Y-8842020D01*
X9899639Y-8832496D01*
X9918687Y-8822972D01*
X10175830Y-9022972D02*
X10061544Y-9022972D01*
X10118687Y-9022972D02*
X10118687Y-8822972D01*
X10099639Y-8851544D01*
X10080592Y-8870591D01*
X10061544Y-8880115D01*
X10356782Y-8822972D02*
X10261544Y-8822972D01*
X10252020Y-8918210D01*
X10261544Y-8908687D01*
X10280592Y-8899163D01*
X10328211Y-8899163D01*
X10347258Y-8908687D01*
X10356782Y-8918210D01*
X10366306Y-8937258D01*
X10366306Y-8984877D01*
X10356782Y-9003925D01*
X10347258Y-9013448D01*
X10328211Y-9022972D01*
X10280592Y-9022972D01*
X10261544Y-9013448D01*
X10252020Y-9003925D01*
X10432973Y-8822972D02*
X10566306Y-8822972D01*
X10480592Y-9022972D01*
X10632973Y-8822972D02*
X10632973Y-8861068D01*
X10709163Y-8822972D02*
X10709163Y-8861068D01*
X11004401Y-9099163D02*
X10994877Y-9089639D01*
X10975830Y-9061068D01*
X10966306Y-9042020D01*
X10956782Y-9013448D01*
X10947258Y-8965829D01*
X10947258Y-8927734D01*
X10956782Y-8880115D01*
X10966306Y-8851544D01*
X10975830Y-8832496D01*
X10994877Y-8803925D01*
X11004401Y-8794401D01*
X11185354Y-9022972D02*
X11071068Y-9022972D01*
X11128211Y-9022972D02*
X11128211Y-8822972D01*
X11109163Y-8851544D01*
X11090116Y-8870591D01*
X11071068Y-8880115D01*
X11375830Y-9022972D02*
X11261544Y-9022972D01*
X11318687Y-9022972D02*
X11318687Y-8822972D01*
X11299639Y-8851544D01*
X11280592Y-8870591D01*
X11261544Y-8880115D01*
X11442496Y-8822972D02*
X11575830Y-8822972D01*
X11490115Y-9022972D01*
X11804401Y-9022972D02*
X11804401Y-8822972D01*
X11890115Y-9022972D02*
X11890115Y-8918210D01*
X11880592Y-8899163D01*
X11861544Y-8889639D01*
X11832973Y-8889639D01*
X11813925Y-8899163D01*
X11804401Y-8908687D01*
X12013925Y-9022972D02*
X11994877Y-9013448D01*
X11985354Y-9003925D01*
X11975830Y-8984877D01*
X11975830Y-8927734D01*
X11985354Y-8908687D01*
X11994877Y-8899163D01*
X12013925Y-8889639D01*
X12042496Y-8889639D01*
X12061544Y-8899163D01*
X12071068Y-8908687D01*
X12080592Y-8927734D01*
X12080592Y-8984877D01*
X12071068Y-9003925D01*
X12061544Y-9013448D01*
X12042496Y-9022972D01*
X12013925Y-9022972D01*
X12194877Y-9022972D02*
X12175830Y-9013448D01*
X12166306Y-8994401D01*
X12166306Y-8822972D01*
X12347258Y-9013448D02*
X12328211Y-9022972D01*
X12290115Y-9022972D01*
X12271068Y-9013448D01*
X12261544Y-8994401D01*
X12261544Y-8918210D01*
X12271068Y-8899163D01*
X12290115Y-8889639D01*
X12328211Y-8889639D01*
X12347258Y-8899163D01*
X12356782Y-8918210D01*
X12356782Y-8937258D01*
X12261544Y-8956306D01*
X12432973Y-9013448D02*
X12452020Y-9022972D01*
X12490115Y-9022972D01*
X12509163Y-9013448D01*
X12518687Y-8994401D01*
X12518687Y-8984877D01*
X12509163Y-8965829D01*
X12490115Y-8956306D01*
X12461544Y-8956306D01*
X12442496Y-8946782D01*
X12432973Y-8927734D01*
X12432973Y-8918210D01*
X12442496Y-8899163D01*
X12461544Y-8889639D01*
X12490115Y-8889639D01*
X12509163Y-8899163D01*
X12585354Y-9099163D02*
X12594877Y-9089639D01*
X12613925Y-9061068D01*
X12623449Y-9042020D01*
X12632973Y-9013448D01*
X12642496Y-8965829D01*
X12642496Y-8927734D01*
X12632973Y-8880115D01*
X12623449Y-8851544D01*
X12613925Y-8832496D01*
X12594877Y-8803925D01*
X12585354Y-8794401D01*
D13*
X7432496Y-9196496D02*
G75*
G03*
X7432496Y-9196496I-30000J0D01*
G01*
D11*
X7728211Y-9086972D02*
X7747258Y-9086972D01*
X7766306Y-9096496D01*
X7775830Y-9106020D01*
X7785354Y-9125068D01*
X7794877Y-9163163D01*
X7794877Y-9210782D01*
X7785354Y-9248877D01*
X7775830Y-9267925D01*
X7766306Y-9277448D01*
X7747258Y-9286972D01*
X7728211Y-9286972D01*
X7709163Y-9277448D01*
X7699639Y-9267925D01*
X7690115Y-9248877D01*
X7680592Y-9210782D01*
X7680592Y-9163163D01*
X7690115Y-9125068D01*
X7699639Y-9106020D01*
X7709163Y-9096496D01*
X7728211Y-9086972D01*
X7880592Y-9267925D02*
X7890115Y-9277448D01*
X7880592Y-9286972D01*
X7871068Y-9277448D01*
X7880592Y-9267925D01*
X7880592Y-9286972D01*
X8061544Y-9086972D02*
X8023449Y-9086972D01*
X8004401Y-9096496D01*
X7994877Y-9106020D01*
X7975830Y-9134591D01*
X7966306Y-9172687D01*
X7966306Y-9248877D01*
X7975830Y-9267925D01*
X7985354Y-9277448D01*
X8004401Y-9286972D01*
X8042496Y-9286972D01*
X8061544Y-9277448D01*
X8071068Y-9267925D01*
X8080592Y-9248877D01*
X8080592Y-9201258D01*
X8071068Y-9182210D01*
X8061544Y-9172687D01*
X8042496Y-9163163D01*
X8004401Y-9163163D01*
X7985354Y-9172687D01*
X7975830Y-9182210D01*
X7966306Y-9201258D01*
X8204401Y-9086972D02*
X8223449Y-9086972D01*
X8242496Y-9096496D01*
X8252020Y-9106020D01*
X8261544Y-9125068D01*
X8271068Y-9163163D01*
X8271068Y-9210782D01*
X8261544Y-9248877D01*
X8252020Y-9267925D01*
X8242496Y-9277448D01*
X8223449Y-9286972D01*
X8204401Y-9286972D01*
X8185354Y-9277448D01*
X8175830Y-9267925D01*
X8166306Y-9248877D01*
X8156782Y-9210782D01*
X8156782Y-9163163D01*
X8166306Y-9125068D01*
X8175830Y-9106020D01*
X8185354Y-9096496D01*
X8204401Y-9086972D01*
X8394877Y-9086972D02*
X8413925Y-9086972D01*
X8432973Y-9096496D01*
X8442497Y-9106020D01*
X8452020Y-9125068D01*
X8461544Y-9163163D01*
X8461544Y-9210782D01*
X8452020Y-9248877D01*
X8442497Y-9267925D01*
X8432973Y-9277448D01*
X8413925Y-9286972D01*
X8394877Y-9286972D01*
X8375830Y-9277448D01*
X8366306Y-9267925D01*
X8356782Y-9248877D01*
X8347258Y-9210782D01*
X8347258Y-9163163D01*
X8356782Y-9125068D01*
X8366306Y-9106020D01*
X8375830Y-9096496D01*
X8394877Y-9086972D01*
X8547258Y-9286972D02*
X8547258Y-9153639D01*
X8547258Y-9172687D02*
X8556782Y-9163163D01*
X8575830Y-9153639D01*
X8604401Y-9153639D01*
X8623449Y-9163163D01*
X8632973Y-9182210D01*
X8632973Y-9286972D01*
X8632973Y-9182210D02*
X8642497Y-9163163D01*
X8661544Y-9153639D01*
X8690116Y-9153639D01*
X8709163Y-9163163D01*
X8718687Y-9182210D01*
X8718687Y-9286972D01*
X8813925Y-9286972D02*
X8813925Y-9153639D01*
X8813925Y-9172687D02*
X8823449Y-9163163D01*
X8842497Y-9153639D01*
X8871068Y-9153639D01*
X8890116Y-9163163D01*
X8899639Y-9182210D01*
X8899639Y-9286972D01*
X8899639Y-9182210D02*
X8909163Y-9163163D01*
X8928211Y-9153639D01*
X8956782Y-9153639D01*
X8975830Y-9163163D01*
X8985354Y-9182210D01*
X8985354Y-9286972D01*
X9375830Y-9077448D02*
X9204401Y-9334591D01*
X9632973Y-9086972D02*
X9652020Y-9086972D01*
X9671068Y-9096496D01*
X9680592Y-9106020D01*
X9690116Y-9125068D01*
X9699639Y-9163163D01*
X9699639Y-9210782D01*
X9690116Y-9248877D01*
X9680592Y-9267925D01*
X9671068Y-9277448D01*
X9652020Y-9286972D01*
X9632973Y-9286972D01*
X9613925Y-9277448D01*
X9604401Y-9267925D01*
X9594877Y-9248877D01*
X9585354Y-9210782D01*
X9585354Y-9163163D01*
X9594877Y-9125068D01*
X9604401Y-9106020D01*
X9613925Y-9096496D01*
X9632973Y-9086972D01*
X9785354Y-9267925D02*
X9794877Y-9277448D01*
X9785354Y-9286972D01*
X9775830Y-9277448D01*
X9785354Y-9267925D01*
X9785354Y-9286972D01*
X9918687Y-9086972D02*
X9937735Y-9086972D01*
X9956782Y-9096496D01*
X9966306Y-9106020D01*
X9975830Y-9125068D01*
X9985354Y-9163163D01*
X9985354Y-9210782D01*
X9975830Y-9248877D01*
X9966306Y-9267925D01*
X9956782Y-9277448D01*
X9937735Y-9286972D01*
X9918687Y-9286972D01*
X9899639Y-9277448D01*
X9890116Y-9267925D01*
X9880592Y-9248877D01*
X9871068Y-9210782D01*
X9871068Y-9163163D01*
X9880592Y-9125068D01*
X9890116Y-9106020D01*
X9899639Y-9096496D01*
X9918687Y-9086972D01*
X10061544Y-9106020D02*
X10071068Y-9096496D01*
X10090116Y-9086972D01*
X10137735Y-9086972D01*
X10156782Y-9096496D01*
X10166306Y-9106020D01*
X10175830Y-9125068D01*
X10175830Y-9144115D01*
X10166306Y-9172687D01*
X10052020Y-9286972D01*
X10175830Y-9286972D01*
X10242497Y-9086972D02*
X10366306Y-9086972D01*
X10299639Y-9163163D01*
X10328211Y-9163163D01*
X10347258Y-9172687D01*
X10356782Y-9182210D01*
X10366306Y-9201258D01*
X10366306Y-9248877D01*
X10356782Y-9267925D01*
X10347258Y-9277448D01*
X10328211Y-9286972D01*
X10271068Y-9286972D01*
X10252020Y-9277448D01*
X10242497Y-9267925D01*
X10537735Y-9086972D02*
X10499639Y-9086972D01*
X10480592Y-9096496D01*
X10471068Y-9106020D01*
X10452020Y-9134591D01*
X10442496Y-9172687D01*
X10442496Y-9248877D01*
X10452020Y-9267925D01*
X10461544Y-9277448D01*
X10480592Y-9286972D01*
X10518687Y-9286972D01*
X10537735Y-9277448D01*
X10547258Y-9267925D01*
X10556782Y-9248877D01*
X10556782Y-9201258D01*
X10547258Y-9182210D01*
X10537735Y-9172687D01*
X10518687Y-9163163D01*
X10480592Y-9163163D01*
X10461544Y-9172687D01*
X10452020Y-9182210D01*
X10442496Y-9201258D01*
X10632973Y-9086972D02*
X10632973Y-9125068D01*
X10709163Y-9086972D02*
X10709163Y-9125068D01*
X11004401Y-9363163D02*
X10994877Y-9353639D01*
X10975830Y-9325068D01*
X10966306Y-9306020D01*
X10956782Y-9277448D01*
X10947258Y-9229829D01*
X10947258Y-9191734D01*
X10956782Y-9144115D01*
X10966306Y-9115544D01*
X10975830Y-9096496D01*
X10994877Y-9067925D01*
X11004401Y-9058401D01*
X11118687Y-9086972D02*
X11137735Y-9086972D01*
X11156782Y-9096496D01*
X11166306Y-9106020D01*
X11175830Y-9125068D01*
X11185354Y-9163163D01*
X11185354Y-9210782D01*
X11175830Y-9248877D01*
X11166306Y-9267925D01*
X11156782Y-9277448D01*
X11137735Y-9286972D01*
X11118687Y-9286972D01*
X11099639Y-9277448D01*
X11090116Y-9267925D01*
X11080592Y-9248877D01*
X11071068Y-9210782D01*
X11071068Y-9163163D01*
X11080592Y-9125068D01*
X11090116Y-9106020D01*
X11099639Y-9096496D01*
X11118687Y-9086972D01*
X11423449Y-9286972D02*
X11423449Y-9086972D01*
X11509163Y-9286972D02*
X11509163Y-9182210D01*
X11499639Y-9163163D01*
X11480592Y-9153639D01*
X11452020Y-9153639D01*
X11432973Y-9163163D01*
X11423449Y-9172687D01*
X11632973Y-9286972D02*
X11613925Y-9277448D01*
X11604401Y-9267925D01*
X11594877Y-9248877D01*
X11594877Y-9191734D01*
X11604401Y-9172687D01*
X11613925Y-9163163D01*
X11632973Y-9153639D01*
X11661544Y-9153639D01*
X11680592Y-9163163D01*
X11690115Y-9172687D01*
X11699639Y-9191734D01*
X11699639Y-9248877D01*
X11690115Y-9267925D01*
X11680592Y-9277448D01*
X11661544Y-9286972D01*
X11632973Y-9286972D01*
X11813925Y-9286972D02*
X11794877Y-9277448D01*
X11785354Y-9258401D01*
X11785354Y-9086972D01*
X11966306Y-9277448D02*
X11947258Y-9286972D01*
X11909163Y-9286972D01*
X11890115Y-9277448D01*
X11880592Y-9258401D01*
X11880592Y-9182210D01*
X11890115Y-9163163D01*
X11909163Y-9153639D01*
X11947258Y-9153639D01*
X11966306Y-9163163D01*
X11975830Y-9182210D01*
X11975830Y-9201258D01*
X11880592Y-9220306D01*
X12052020Y-9277448D02*
X12071068Y-9286972D01*
X12109163Y-9286972D01*
X12128211Y-9277448D01*
X12137734Y-9258401D01*
X12137734Y-9248877D01*
X12128211Y-9229829D01*
X12109163Y-9220306D01*
X12080592Y-9220306D01*
X12061544Y-9210782D01*
X12052020Y-9191734D01*
X12052020Y-9182210D01*
X12061544Y-9163163D01*
X12080592Y-9153639D01*
X12109163Y-9153639D01*
X12128211Y-9163163D01*
X12375830Y-9210782D02*
X12528211Y-9210782D01*
X12452020Y-9286972D02*
X12452020Y-9134591D01*
X12861544Y-9153639D02*
X12861544Y-9286972D01*
X12813925Y-9077448D02*
X12766306Y-9220306D01*
X12890115Y-9220306D01*
X13109163Y-9277448D02*
X13128211Y-9286972D01*
X13166306Y-9286972D01*
X13185354Y-9277448D01*
X13194877Y-9258401D01*
X13194877Y-9248877D01*
X13185354Y-9229829D01*
X13166306Y-9220306D01*
X13137734Y-9220306D01*
X13118687Y-9210782D01*
X13109163Y-9191734D01*
X13109163Y-9182210D01*
X13118687Y-9163163D01*
X13137734Y-9153639D01*
X13166306Y-9153639D01*
X13185354Y-9163163D01*
X13309163Y-9286972D02*
X13290115Y-9277448D01*
X13280592Y-9258401D01*
X13280592Y-9086972D01*
X13413925Y-9286972D02*
X13394877Y-9277448D01*
X13385354Y-9267925D01*
X13375830Y-9248877D01*
X13375830Y-9191734D01*
X13385354Y-9172687D01*
X13394877Y-9163163D01*
X13413925Y-9153639D01*
X13442496Y-9153639D01*
X13461544Y-9163163D01*
X13471068Y-9172687D01*
X13480592Y-9191734D01*
X13480592Y-9248877D01*
X13471068Y-9267925D01*
X13461544Y-9277448D01*
X13442496Y-9286972D01*
X13413925Y-9286972D01*
X13537734Y-9153639D02*
X13613925Y-9153639D01*
X13566306Y-9086972D02*
X13566306Y-9258401D01*
X13575830Y-9277448D01*
X13594877Y-9286972D01*
X13613925Y-9286972D01*
X13671068Y-9277448D02*
X13690115Y-9286972D01*
X13728211Y-9286972D01*
X13747258Y-9277448D01*
X13756782Y-9258401D01*
X13756782Y-9248877D01*
X13747258Y-9229829D01*
X13728211Y-9220306D01*
X13699639Y-9220306D01*
X13680592Y-9210782D01*
X13671068Y-9191734D01*
X13671068Y-9182210D01*
X13680592Y-9163163D01*
X13699639Y-9153639D01*
X13728211Y-9153639D01*
X13747258Y-9163163D01*
X13823449Y-9363163D02*
X13832973Y-9353639D01*
X13852020Y-9325068D01*
X13861544Y-9306020D01*
X13871068Y-9277448D01*
X13880592Y-9229829D01*
X13880592Y-9191734D01*
X13871068Y-9144115D01*
X13861544Y-9115544D01*
X13852020Y-9096496D01*
X13832973Y-9067925D01*
X13823449Y-9058401D01*
M02*
