%TF.GenerationSoftware,KiCad,Pcbnew,(6.0.4-0)*%
%TF.CreationDate,2022-10-29T19:27:29-05:00*%
%TF.ProjectId,dogema48_cfx,646f6765-6d61-4343-985f-6366782e6b69,rev?*%
%TF.SameCoordinates,Original*%
%TF.FileFunction,Copper,L1,Top*%
%TF.FilePolarity,Positive*%
%FSLAX46Y46*%
G04 Gerber Fmt 4.6, Leading zero omitted, Abs format (unit mm)*
G04 Created by KiCad (PCBNEW (6.0.4-0)) date 2022-10-29 19:27:29*
%MOMM*%
%LPD*%
G01*
G04 APERTURE LIST*
%TA.AperFunction,ComponentPad*%
%ADD10O,1.000000X2.100000*%
%TD*%
%TA.AperFunction,ComponentPad*%
%ADD11O,1.000000X1.600000*%
%TD*%
%TA.AperFunction,ViaPad*%
%ADD12C,0.800000*%
%TD*%
%TA.AperFunction,Conductor*%
%ADD13C,0.200000*%
%TD*%
%TA.AperFunction,Conductor*%
%ADD14C,0.250000*%
%TD*%
G04 APERTURE END LIST*
D10*
%TO.P,J1,S1,SHIELD*%
%TO.N,GND*%
X106888281Y-20104992D03*
D11*
X106888281Y-15924992D03*
X115528281Y-15924992D03*
D10*
X115528281Y-20104992D03*
%TD*%
D12*
%TO.N,GND*%
X103800000Y-34224500D03*
X126791607Y-29749986D03*
X106760000Y-24220000D03*
X103900000Y-32775500D03*
X124666608Y-29749986D03*
%TO.N,Net-(B1-Pad2)*%
X117760089Y-34400000D03*
X115838365Y-34638365D03*
%TO.N,Net-(C2-Pad2)*%
X121934486Y-37521348D03*
X115474446Y-38249982D03*
%TO.N,+5V*%
X111938982Y-29500000D03*
X105759679Y-42353691D03*
X115400000Y-31614500D03*
X123249942Y-31874985D03*
X101299500Y-34290000D03*
X127499940Y-33999984D03*
%TO.N,row1*%
X275541537Y-26208321D03*
X114041613Y-16775500D03*
X123400000Y-27200000D03*
X207541569Y-26208321D03*
X140400000Y-27200000D03*
X173541585Y-26208321D03*
X241541553Y-26208321D03*
X116874945Y-16999992D03*
X122600000Y-26400000D03*
X88600000Y-25000000D03*
X155800000Y-27200000D03*
X258541545Y-25499988D03*
X172800000Y-27200000D03*
X190541577Y-26208321D03*
X157400000Y-27200000D03*
X103800000Y-27000000D03*
X224541561Y-26208321D03*
X138800000Y-27200000D03*
%TO.N,Net-(D3-Pad2)*%
X122541609Y-28333320D03*
X120416610Y-26916654D03*
%TO.N,row2*%
X241541553Y-43208313D03*
X258541545Y-43208313D03*
X190541577Y-43208313D03*
X224541561Y-43208313D03*
X106356406Y-29790789D03*
X156541593Y-43208313D03*
X275541537Y-43208313D03*
X122541609Y-43208313D03*
X207541569Y-43208313D03*
X112425408Y-46749978D03*
X107666616Y-46749978D03*
X123958275Y-47100980D03*
X88541625Y-43208313D03*
X173541585Y-43208313D03*
X139541601Y-43208313D03*
X123958275Y-57524651D03*
X112624947Y-54541641D03*
X104626176Y-43415420D03*
%TO.N,row3*%
X98208767Y-59250452D03*
X258541545Y-60208305D03*
X103703597Y-36061495D03*
X207541569Y-60208305D03*
X190541577Y-60208305D03*
X275541537Y-60208305D03*
X105049454Y-30220001D03*
X224541561Y-60208305D03*
X122541609Y-60208305D03*
X97749954Y-41574981D03*
X105541617Y-60208305D03*
X99060000Y-35242500D03*
X173541585Y-60208305D03*
X241541553Y-60208305D03*
X139541601Y-60208305D03*
X156541593Y-60208305D03*
X88541625Y-60208305D03*
%TO.N,row4*%
X190541577Y-77208297D03*
X122541609Y-77208297D03*
X173541585Y-77208297D03*
X88541625Y-77208297D03*
X96792101Y-76250444D03*
X105541617Y-77208297D03*
X156541593Y-77208297D03*
X258541545Y-77208297D03*
X275541537Y-77208297D03*
X241541553Y-77208297D03*
X139541601Y-77208297D03*
X100262268Y-31487670D03*
X96333288Y-41791647D03*
X224541561Y-77208297D03*
X207541569Y-77208297D03*
%TO.N,Net-(D38-Pad2)*%
X200608041Y-68558499D03*
X198166776Y-68166432D03*
%TO.N,VBUS*%
X113750000Y-18500000D03*
X111750000Y-18500000D03*
%TO.N,col1*%
X93498972Y-39052500D03*
X91149961Y-41024385D03*
%TO.N,col3*%
X108600000Y-42000000D03*
X108599945Y-28775500D03*
%TO.N,col4*%
X128208273Y-33291651D03*
X125600000Y-48899500D03*
X101917500Y-44425479D03*
X128916606Y-38249982D03*
%TO.N,col5*%
X106800000Y-40885500D03*
X142600000Y-48200000D03*
%TO.N,col6*%
X113400000Y-49600000D03*
X159600000Y-49600000D03*
%TO.N,col7*%
X113954424Y-50431636D03*
X172874000Y-71541633D03*
X176600000Y-50400000D03*
X171416586Y-71541633D03*
%TO.N,col8*%
X114749946Y-51131136D03*
X193600000Y-51400000D03*
%TO.N,col9*%
X210599897Y-52191646D03*
X115461122Y-51833443D03*
%TO.N,col10*%
X227374893Y-46749978D03*
X115800000Y-44400000D03*
%TO.N,col11*%
X244599881Y-53349971D03*
X93498972Y-38052997D03*
%TO.N,col12*%
X262498421Y-54956852D03*
X93499956Y-36833316D03*
%TO.N,Net-(D37-Pad2)*%
X160524946Y-66583302D03*
X161923946Y-66583302D03*
%TD*%
D13*
%TO.N,GND*%
X103800000Y-32875500D02*
X103900000Y-32775500D01*
X103800000Y-34224500D02*
X103800000Y-32875500D01*
D14*
X106760000Y-24220000D02*
X106888281Y-24091719D01*
X106888281Y-15924992D02*
X115528281Y-15924992D01*
X106250934Y-25669011D02*
X106250934Y-24729066D01*
D13*
X124666608Y-29749986D02*
X126791607Y-29749986D01*
D14*
X106250934Y-25669011D02*
X103900000Y-28019945D01*
X106888281Y-24091719D02*
X106888281Y-20104992D01*
X106250934Y-24729066D02*
X106760000Y-24220000D01*
X115528281Y-15924992D02*
X115528281Y-20104992D01*
X103900000Y-28019945D02*
X103900000Y-32775500D01*
D13*
%TO.N,Net-(B1-Pad2)*%
X117521724Y-34638365D02*
X117760089Y-34400000D01*
X115838365Y-34638365D02*
X117521724Y-34638365D01*
X117560089Y-34600000D02*
X117760089Y-34400000D01*
D14*
%TO.N,Net-(C2-Pad2)*%
X114041613Y-40527331D02*
X116014262Y-42499980D01*
X118291611Y-42499980D02*
X121934486Y-38857105D01*
X115474446Y-38249982D02*
X114041613Y-39682815D01*
X121934486Y-38857105D02*
X121934486Y-37521348D01*
X114041613Y-39682815D02*
X114041613Y-40527331D01*
X116014262Y-42499980D02*
X118291611Y-42499980D01*
%TO.N,+5V*%
X102361191Y-42353691D02*
X105759679Y-42353691D01*
X125374941Y-33999984D02*
X123249942Y-31874985D01*
X113285500Y-29500000D02*
X111938982Y-29500000D01*
X101963974Y-41956474D02*
X102361191Y-42353691D01*
X127499940Y-33999984D02*
X125374941Y-33999984D01*
X101299500Y-34290000D02*
X101963974Y-34954474D01*
X115400000Y-31614500D02*
X113285500Y-29500000D01*
X101963974Y-34954474D02*
X101963974Y-41956474D01*
%TO.N,row1*%
X149796085Y-25250468D02*
X151745617Y-27200000D01*
X181609219Y-26208321D02*
X190541577Y-26208321D01*
X225499414Y-25250468D02*
X234796045Y-25250468D01*
X235753898Y-26208321D02*
X241541553Y-26208321D01*
X258541545Y-25499988D02*
X258791065Y-25250468D01*
X208499422Y-25250468D02*
X217208711Y-25250468D01*
X242499406Y-25250468D02*
X241541553Y-26208321D01*
X159349532Y-25250468D02*
X166451374Y-25250468D01*
X269753882Y-26208321D02*
X275541537Y-26208321D01*
X217208711Y-25250468D02*
X218166564Y-26208321D01*
X123400000Y-27200000D02*
X125199510Y-28999510D01*
X106063761Y-20953173D02*
X106063761Y-19213465D01*
X242499406Y-25250468D02*
X248651334Y-25250468D01*
X180651366Y-25250468D02*
X181609219Y-26208321D01*
X108501726Y-16775500D02*
X114041613Y-16775500D01*
X142349532Y-25250468D02*
X149796085Y-25250468D01*
X248651334Y-25250468D02*
X248900854Y-25499988D01*
X168400906Y-27200000D02*
X172800000Y-27200000D01*
X100545641Y-27000000D02*
X103800000Y-27000000D01*
X157400000Y-27200000D02*
X159349532Y-25250468D01*
X130200490Y-28999510D02*
X132000000Y-27200000D01*
X116874945Y-16999992D02*
X116874945Y-19607997D01*
X207541569Y-26208321D02*
X208499422Y-25250468D01*
X173541585Y-26208321D02*
X174499438Y-25250468D01*
X190541577Y-26208321D02*
X191499430Y-25250468D01*
X248900854Y-25499988D02*
X258541545Y-25499988D01*
X258791065Y-25250468D02*
X268796029Y-25250468D01*
X122600000Y-25333052D02*
X122600000Y-26400000D01*
X234796045Y-25250468D02*
X235753898Y-26208321D01*
X224541561Y-26208321D02*
X225499414Y-25250468D01*
X103800000Y-23216934D02*
X106063761Y-20953173D01*
X174499438Y-25250468D02*
X180651366Y-25250468D01*
X268796029Y-25250468D02*
X269753882Y-26208321D01*
X106063761Y-19213465D02*
X108501726Y-16775500D01*
X98545641Y-25000000D02*
X100545641Y-27000000D01*
X191499430Y-25250468D02*
X200796061Y-25250468D01*
X88600000Y-25000000D02*
X98545641Y-25000000D01*
X218166564Y-26208321D02*
X224541561Y-26208321D01*
X201753914Y-26208321D02*
X207541569Y-26208321D01*
X200796061Y-25250468D02*
X201753914Y-26208321D01*
X125199510Y-28999510D02*
X130200490Y-28999510D01*
X132000000Y-27200000D02*
X138800000Y-27200000D01*
X151745617Y-27200000D02*
X155800000Y-27200000D01*
X103800000Y-27000000D02*
X103800000Y-23216934D01*
X166451374Y-25250468D02*
X168400906Y-27200000D01*
X140400000Y-27200000D02*
X142349532Y-25250468D01*
X116874945Y-19607997D02*
X122600000Y-25333052D01*
%TO.N,Net-(D3-Pad2)*%
X121833276Y-28333320D02*
X122541609Y-28333320D01*
X120416610Y-26916654D02*
X121833276Y-28333320D01*
%TO.N,row2*%
X242499406Y-42250460D02*
X248651334Y-42250460D01*
X224541561Y-43208313D02*
X225958227Y-41791647D01*
X88541625Y-43208313D02*
X93368205Y-48034893D01*
X150166596Y-43208313D02*
X156541593Y-43208313D01*
X225958227Y-41791647D02*
X234337232Y-41791647D01*
X106356406Y-29790789D02*
X107666616Y-31100999D01*
X208499422Y-42250460D02*
X217796053Y-42250460D01*
X173541585Y-43208313D02*
X174499438Y-42250460D01*
X122541609Y-43208313D02*
X123958275Y-44624979D01*
X258541545Y-43208313D02*
X259499398Y-42250460D01*
X133753946Y-43208313D02*
X139541601Y-43208313D01*
X269753882Y-43208313D02*
X275541537Y-43208313D01*
X241541553Y-43208313D02*
X242499406Y-42250460D01*
X123958275Y-44624979D02*
X123958275Y-47100980D01*
X217796053Y-42250460D02*
X218753906Y-43208313D01*
X184753922Y-43208313D02*
X190541577Y-43208313D01*
X107666616Y-31100999D02*
X107666616Y-42499980D01*
X167753930Y-43208313D02*
X173541585Y-43208313D01*
X148749930Y-41791647D02*
X150166596Y-43208313D01*
X249609187Y-43208313D02*
X258541545Y-43208313D01*
X191499430Y-42250460D02*
X197651358Y-42250460D01*
X122541609Y-43208313D02*
X123499462Y-42250460D01*
X112624947Y-54541641D02*
X112624947Y-56079298D01*
X234337232Y-41791647D02*
X235753898Y-43208313D01*
X268796029Y-42250460D02*
X269753882Y-43208313D01*
X107666616Y-46749978D02*
X112425408Y-46749978D01*
X116029443Y-59483794D02*
X121999132Y-59483794D01*
X121999132Y-59483794D02*
X123958275Y-57524651D01*
X190541577Y-43208313D02*
X191499430Y-42250460D01*
X166796077Y-42250460D02*
X167753930Y-43208313D01*
X132796093Y-42250460D02*
X133753946Y-43208313D01*
X100133540Y-43415420D02*
X104626176Y-43415420D01*
X198609211Y-43208313D02*
X207541569Y-43208313D01*
X95514067Y-48034893D02*
X100133540Y-43415420D01*
X218753906Y-43208313D02*
X224541561Y-43208313D01*
X174499438Y-42250460D02*
X183796069Y-42250460D01*
X197651358Y-42250460D02*
X198609211Y-43208313D01*
X248651334Y-42250460D02*
X249609187Y-43208313D01*
X107666616Y-42499980D02*
X107666616Y-46749978D01*
X93368205Y-48034893D02*
X95514067Y-48034893D01*
X156541593Y-43208313D02*
X157499446Y-42250460D01*
X259499398Y-42250460D02*
X268796029Y-42250460D01*
X235753898Y-43208313D02*
X241541553Y-43208313D01*
X157499446Y-42250460D02*
X166796077Y-42250460D01*
X112624947Y-56079298D02*
X116029443Y-59483794D01*
X207541569Y-43208313D02*
X208499422Y-42250460D01*
X123499462Y-42250460D02*
X132796093Y-42250460D01*
X183796069Y-42250460D02*
X184753922Y-43208313D01*
X140958267Y-41791647D02*
X148749930Y-41791647D01*
X139541601Y-43208313D02*
X140958267Y-41791647D01*
%TO.N,row3*%
X156541593Y-60208305D02*
X157499446Y-59250452D01*
X258541545Y-60208305D02*
X260149456Y-58600394D01*
X241541553Y-60208305D02*
X242499406Y-59250452D01*
X184166580Y-60208305D02*
X190541577Y-60208305D01*
X225499414Y-59250452D02*
X233500370Y-59250452D01*
X191499430Y-59250452D02*
X200917052Y-59250452D01*
X98208767Y-59250452D02*
X99166620Y-60208305D01*
X122541609Y-60208305D02*
X123499462Y-59250452D01*
X201874905Y-60208305D02*
X207541569Y-60208305D01*
X166796077Y-59250452D02*
X167753930Y-60208305D01*
X149840753Y-60208305D02*
X156541593Y-60208305D01*
X173541585Y-60208305D02*
X174499438Y-59250452D01*
X167753930Y-60208305D02*
X173541585Y-60208305D01*
X148232842Y-58600394D02*
X149840753Y-60208305D01*
X103978325Y-36061495D02*
X103703597Y-36061495D01*
X242499406Y-59250452D02*
X250500362Y-59250452D01*
X233500370Y-59250452D02*
X234458223Y-60208305D01*
X132796093Y-59250452D02*
X133753946Y-60208305D01*
X208499422Y-59250452D02*
X217451350Y-59250452D01*
X260149456Y-58600394D02*
X267232786Y-58600394D01*
X106499470Y-59250452D02*
X113058296Y-59250452D01*
X268840697Y-60208305D02*
X275541537Y-60208305D01*
X97749954Y-36552546D02*
X99060000Y-35242500D01*
X141149512Y-58600394D02*
X148232842Y-58600394D01*
X105049454Y-30220001D02*
X105049454Y-34990366D01*
X89499478Y-59250452D02*
X98208767Y-59250452D01*
X190541577Y-60208305D02*
X191499430Y-59250452D01*
X217451350Y-59250452D02*
X218409203Y-60208305D01*
X224541561Y-60208305D02*
X225499414Y-59250452D01*
X250500362Y-59250452D02*
X251458215Y-60208305D01*
X174499438Y-59250452D02*
X183208727Y-59250452D01*
X157499446Y-59250452D02*
X166796077Y-59250452D01*
X267232786Y-58600394D02*
X268840697Y-60208305D01*
X218409203Y-60208305D02*
X224541561Y-60208305D01*
X139541601Y-60208305D02*
X141149512Y-58600394D01*
X105541617Y-60208305D02*
X106499470Y-59250452D01*
X88541625Y-60208305D02*
X89499478Y-59250452D01*
X200917052Y-59250452D02*
X201874905Y-60208305D01*
X99166620Y-60208305D02*
X105541617Y-60208305D01*
X251458215Y-60208305D02*
X258541545Y-60208305D01*
X114016149Y-60208305D02*
X122541609Y-60208305D01*
X207541569Y-60208305D02*
X208499422Y-59250452D01*
X183208727Y-59250452D02*
X184166580Y-60208305D01*
X97749954Y-41574981D02*
X97749954Y-36552546D01*
X123499462Y-59250452D02*
X132796093Y-59250452D01*
X113058296Y-59250452D02*
X114016149Y-60208305D01*
X234458223Y-60208305D02*
X241541553Y-60208305D01*
X133753946Y-60208305D02*
X139541601Y-60208305D01*
X105049454Y-34990366D02*
X103978325Y-36061495D01*
%TO.N,row4*%
X196098452Y-76250444D02*
X200208719Y-76250444D01*
X201166572Y-77208297D02*
X207541569Y-77208297D01*
X190541577Y-77208297D02*
X195140599Y-77208297D01*
X259499398Y-76250444D02*
X268796029Y-76250444D01*
X218753906Y-77208297D02*
X224541561Y-77208297D01*
X96792101Y-76250444D02*
X98796109Y-76250444D01*
X200208719Y-76250444D02*
X201166572Y-77208297D01*
X161140615Y-77208297D02*
X162098468Y-76250444D01*
X88541625Y-77208297D02*
X89499478Y-76250444D01*
X95984531Y-40026225D02*
X95984531Y-32932075D01*
X251208695Y-76250444D02*
X252166548Y-77208297D01*
X122541609Y-77208297D02*
X123499462Y-76250444D01*
X95984531Y-32932075D02*
X96333288Y-32583318D01*
X99166620Y-32583318D02*
X96333288Y-32583318D01*
X184753922Y-77208297D02*
X190541577Y-77208297D01*
X166458255Y-77208297D02*
X173541585Y-77208297D01*
X98796109Y-76250444D02*
X99753962Y-77208297D01*
X217796053Y-76250444D02*
X218753906Y-77208297D01*
X183796069Y-76250444D02*
X177453761Y-76250444D01*
X258541545Y-77208297D02*
X259499398Y-76250444D01*
X252166548Y-77208297D02*
X258541545Y-77208297D01*
X89499478Y-76250444D02*
X96792101Y-76250444D01*
X150409235Y-77208297D02*
X156541593Y-77208297D01*
X268796029Y-76250444D02*
X269753882Y-77208297D01*
X234796045Y-76250444D02*
X235753898Y-77208297D01*
X177453761Y-76250444D02*
X176495908Y-77208297D01*
X208499422Y-76250444D02*
X217796053Y-76250444D01*
X106499470Y-76250444D02*
X115208759Y-76250444D01*
X242499406Y-76250444D02*
X251208695Y-76250444D01*
X165500402Y-76250444D02*
X166458255Y-77208297D01*
X105541617Y-77208297D02*
X106499470Y-76250444D01*
X225499414Y-76250444D02*
X234796045Y-76250444D01*
X241541553Y-77208297D02*
X242499406Y-76250444D01*
X115208759Y-76250444D02*
X116166612Y-77208297D01*
X195140599Y-77208297D02*
X196098452Y-76250444D01*
X100262268Y-31487670D02*
X99166620Y-32583318D01*
X95984531Y-41442890D02*
X96333288Y-41791647D01*
X149451382Y-76250444D02*
X143453777Y-76250444D01*
X224541561Y-77208297D02*
X225499414Y-76250444D01*
X95984531Y-40026225D02*
X95984531Y-41442890D01*
X162098468Y-76250444D02*
X165500402Y-76250444D01*
X156541593Y-77208297D02*
X161140615Y-77208297D01*
X131500418Y-76250444D02*
X132458271Y-77208297D01*
X99753962Y-77208297D02*
X105541617Y-77208297D01*
X176495908Y-77208297D02*
X173541585Y-77208297D01*
X207541569Y-77208297D02*
X208499422Y-76250444D01*
X142495924Y-77208297D02*
X139541601Y-77208297D01*
X132458271Y-77208297D02*
X139541601Y-77208297D01*
X123499462Y-76250444D02*
X131500418Y-76250444D01*
X149451382Y-76250444D02*
X150409235Y-77208297D01*
X235753898Y-77208297D02*
X241541553Y-77208297D01*
X269753882Y-77208297D02*
X275541537Y-77208297D01*
X116166612Y-77208297D02*
X122541609Y-77208297D01*
X184753922Y-77208297D02*
X183796069Y-76250444D01*
X143453777Y-76250444D02*
X142495924Y-77208297D01*
%TO.N,Net-(D38-Pad2)*%
X198166776Y-68166432D02*
X200215974Y-68166432D01*
X200215974Y-68166432D02*
X200608041Y-68558499D01*
%TO.N,VBUS*%
X111750000Y-18500000D02*
X113750000Y-18500000D01*
D13*
%TO.N,col1*%
X93121846Y-39052500D02*
X91149961Y-41024385D01*
X93498972Y-39052500D02*
X93121846Y-39052500D01*
D14*
%TO.N,col3*%
X108599945Y-41999945D02*
X108600000Y-42000000D01*
X108599945Y-28775500D02*
X108599945Y-41999945D01*
D13*
%TO.N,col4*%
X101917500Y-47625000D02*
X102892019Y-48599519D01*
X125300019Y-48599519D02*
X125600000Y-48899500D01*
D14*
X128208273Y-33291651D02*
X128916606Y-33999984D01*
D13*
X101917500Y-44425479D02*
X101917500Y-47625000D01*
D14*
X128916606Y-33999984D02*
X128916606Y-38249982D01*
D13*
X102892019Y-48599519D02*
X125300019Y-48599519D01*
%TO.N,col5*%
X106800000Y-40885500D02*
X106800000Y-48000000D01*
X106800000Y-48000000D02*
X107000000Y-48200000D01*
X107000000Y-48200000D02*
X142600000Y-48200000D01*
%TO.N,col6*%
X114399011Y-49599011D02*
X159599011Y-49599011D01*
X114398022Y-49600000D02*
X114399011Y-49599011D01*
X113400000Y-49600000D02*
X114398022Y-49600000D01*
X159599011Y-49599011D02*
X159600000Y-49600000D01*
%TO.N,col7*%
X113954424Y-50431636D02*
X176568364Y-50431636D01*
X176568364Y-50431636D02*
X176600000Y-50400000D01*
D14*
X171416586Y-71541633D02*
X172874000Y-71541633D01*
D13*
%TO.N,col8*%
X114749946Y-51131136D02*
X193331136Y-51131136D01*
X193331136Y-51131136D02*
X193600000Y-51400000D01*
%TO.N,col9*%
X210507762Y-52099511D02*
X210599897Y-52191646D01*
X115727190Y-52099511D02*
X210507762Y-52099511D01*
X115461122Y-51833443D02*
X115727190Y-52099511D01*
%TO.N,col10*%
X120966063Y-47800480D02*
X129783819Y-47800480D01*
X117565583Y-44400000D02*
X120966063Y-47800480D01*
X133108839Y-44475460D02*
X143609789Y-44475460D01*
X147534329Y-48400000D02*
X225724871Y-48400000D01*
X115800000Y-44400000D02*
X117565583Y-44400000D01*
X225724871Y-48400000D02*
X227374893Y-46749978D01*
X143609789Y-44475460D02*
X147534329Y-48400000D01*
X129783819Y-47800480D02*
X133108839Y-44475460D01*
D14*
%TO.N,col11*%
X88241522Y-43932824D02*
X88630418Y-43932824D01*
X242461372Y-54044794D02*
X243905058Y-54044794D01*
X116647859Y-54044794D02*
X242461372Y-54044794D01*
X114736611Y-52133546D02*
X116647859Y-54044794D01*
X243905058Y-54044794D02*
X244599881Y-53349971D01*
X87817114Y-42908210D02*
X87817114Y-43508416D01*
X90001042Y-40724282D02*
X87817114Y-42908210D01*
X96831140Y-52133546D02*
X114736611Y-52133546D01*
X93096735Y-38052997D02*
X90425450Y-40724282D01*
X88630418Y-43932824D02*
X96831140Y-52133546D01*
X93498972Y-38052997D02*
X93096735Y-38052997D01*
X90425450Y-40724282D02*
X90001042Y-40724282D01*
X87817114Y-43508416D02*
X88241522Y-43932824D01*
%TO.N,col12*%
X112324844Y-53817130D02*
X115442101Y-53817130D01*
X91183712Y-39149560D02*
X87867374Y-39149560D01*
X262099388Y-54557819D02*
X262498421Y-54956852D01*
X242974397Y-54557819D02*
X262099388Y-54557819D01*
X111600333Y-54541641D02*
X112324844Y-53817130D01*
X242958219Y-54541641D02*
X242974397Y-54557819D01*
X93499956Y-36833316D02*
X91183712Y-39149560D01*
X87867374Y-39149560D02*
X87124959Y-39891975D01*
X115442101Y-53817130D02*
X116166612Y-54541641D01*
X87124959Y-46710268D02*
X94956332Y-54541641D01*
X116166612Y-54541641D02*
X242958219Y-54541641D01*
X87124959Y-39891975D02*
X87124959Y-46710268D01*
X94956332Y-54541641D02*
X111600333Y-54541641D01*
%TO.N,Net-(D37-Pad2)*%
X160524946Y-66583302D02*
X161923946Y-66583302D01*
%TD*%
M02*
