%TF.GenerationSoftware,KiCad,Pcbnew,(6.0.4-0)*%
%TF.CreationDate,2023-09-21T22:36:32-05:00*%
%TF.ProjectId,dogema48_cfx,646f6765-6d61-4343-985f-6366782e6b69,rev?*%
%TF.SameCoordinates,Original*%
%TF.FileFunction,NonPlated,1,2,NPTH,Drill*%
%TF.FilePolarity,Positive*%
%FSLAX46Y46*%
G04 Gerber Fmt 4.6, Leading zero omitted, Abs format (unit mm)*
G04 Created by KiCad (PCBNEW (6.0.4-0)) date 2023-09-21 22:36:32*
%MOMM*%
%LPD*%
G01*
G04 APERTURE LIST*
%TA.AperFunction,ComponentDrill*%
%ADD10C,0.650000*%
%TD*%
%TA.AperFunction,ComponentDrill*%
%ADD11C,0.990600*%
%TD*%
%TA.AperFunction,ComponentDrill*%
%ADD12C,1.701800*%
%TD*%
%TA.AperFunction,ComponentDrill*%
%ADD13C,2.200000*%
%TD*%
%TA.AperFunction,ComponentDrill*%
%ADD14C,3.000000*%
%TD*%
%TA.AperFunction,ComponentDrill*%
%ADD15C,3.429000*%
%TD*%
G04 APERTURE END LIST*
D10*
%TO.C,J1*%
X108318281Y-19604992D03*
X114098281Y-19604992D03*
D11*
%TO.C,SW1*%
X77654961Y-27574989D03*
%TO.C,SW11*%
X77654961Y-44574981D03*
%TO.C,SW21*%
X77654961Y-61574973D03*
%TO.C,SW31*%
X77654961Y-78574965D03*
%TO.C,SW2*%
X105094953Y-19174989D03*
%TO.C,SW12*%
X105094953Y-36174981D03*
%TO.C,SW22*%
X105094953Y-53174973D03*
%TO.C,SW32*%
X105094953Y-70174965D03*
%TO.C,SW3*%
X122094945Y-19174989D03*
%TO.C,SW13*%
X122094945Y-36174981D03*
%TO.C,SW23*%
X122094945Y-53174973D03*
%TO.C,SW33*%
X122094945Y-70174965D03*
%TO.C,SW4*%
X139094937Y-19174989D03*
%TO.C,SW14*%
X139094937Y-36174981D03*
%TO.C,SW24*%
X139094937Y-53174973D03*
%TO.C,SW34*%
X139094937Y-70174965D03*
%TO.C,SW50*%
X154154925Y-78574965D03*
%TO.C,SW5*%
X156094929Y-19174989D03*
%TO.C,SW15*%
X156094929Y-36174981D03*
%TO.C,SW25*%
X156094929Y-53174973D03*
%TO.C,SW35*%
X156094929Y-70174965D03*
%TO.C,SW47*%
X171154917Y-78574965D03*
%TO.C,SW6*%
X173094921Y-19174989D03*
%TO.C,SW16*%
X173094921Y-36174981D03*
%TO.C,SW26*%
X173094921Y-53174973D03*
%TO.C,SW36*%
X173094921Y-70174965D03*
%TO.C,SW51*%
X188154909Y-78574965D03*
%TO.C,SW7*%
X190094913Y-19174989D03*
%TO.C,SW17*%
X190094913Y-36174981D03*
%TO.C,SW27*%
X190094913Y-53174973D03*
%TO.C,SW37*%
X190094913Y-70174965D03*
%TO.C,SW8*%
X207094905Y-19174989D03*
%TO.C,SW18*%
X207094905Y-36174981D03*
%TO.C,SW28*%
X207094905Y-53174973D03*
%TO.C,SW38*%
X207094905Y-70174965D03*
%TO.C,SW9*%
X224094897Y-19174989D03*
%TO.C,SW19*%
X224094897Y-36174981D03*
%TO.C,SW29*%
X224094897Y-53174973D03*
%TO.C,SW39*%
X224094897Y-70174965D03*
%TO.C,SW10*%
X241094889Y-19174989D03*
%TO.C,SW20*%
X241094889Y-36174981D03*
%TO.C,SW30*%
X241094889Y-53174973D03*
%TO.C,SW40*%
X241094889Y-70174965D03*
%TO.C,SW41*%
X258094881Y-19174989D03*
%TO.C,SW43*%
X258094881Y-36174981D03*
%TO.C,SW45*%
X258094881Y-53174973D03*
%TO.C,SW48*%
X258094881Y-70174965D03*
%TO.C,SW42*%
X275094873Y-19174989D03*
%TO.C,SW44*%
X275094873Y-36174981D03*
%TO.C,SW46*%
X275094873Y-53174973D03*
%TO.C,SW49*%
X275094873Y-70174965D03*
D12*
%TO.C,SW1*%
X77374961Y-23374989D03*
%TO.C,SW11*%
X77374961Y-40374981D03*
%TO.C,SW21*%
X77374961Y-57374973D03*
%TO.C,SW31*%
X77374961Y-74374965D03*
%TO.C,SW1*%
X88374961Y-23374989D03*
%TO.C,SW11*%
X88374961Y-40374981D03*
%TO.C,SW21*%
X88374961Y-57374973D03*
%TO.C,SW31*%
X88374961Y-74374965D03*
%TO.C,SW2*%
X94374953Y-23374989D03*
%TO.C,SW12*%
X94374953Y-40374981D03*
%TO.C,SW22*%
X94374953Y-57374973D03*
%TO.C,SW32*%
X94374953Y-74374965D03*
%TO.C,SW2*%
X105374953Y-23374989D03*
%TO.C,SW12*%
X105374953Y-40374981D03*
%TO.C,SW22*%
X105374953Y-57374973D03*
%TO.C,SW32*%
X105374953Y-74374965D03*
%TO.C,SW3*%
X111374945Y-23374989D03*
%TO.C,SW13*%
X111374945Y-40374981D03*
%TO.C,SW23*%
X111374945Y-57374973D03*
%TO.C,SW33*%
X111374945Y-74374965D03*
%TO.C,SW3*%
X122374945Y-23374989D03*
%TO.C,SW13*%
X122374945Y-40374981D03*
%TO.C,SW23*%
X122374945Y-57374973D03*
%TO.C,SW33*%
X122374945Y-74374965D03*
%TO.C,SW4*%
X128374937Y-23374989D03*
%TO.C,SW14*%
X128374937Y-40374981D03*
%TO.C,SW24*%
X128374937Y-57374973D03*
%TO.C,SW34*%
X128374937Y-74374965D03*
%TO.C,SW4*%
X139374937Y-23374989D03*
%TO.C,SW14*%
X139374937Y-40374981D03*
%TO.C,SW24*%
X139374937Y-57374973D03*
%TO.C,SW34*%
X139374937Y-74374965D03*
%TO.C,SW5*%
X145374929Y-23374989D03*
%TO.C,SW15*%
X145374929Y-40374981D03*
%TO.C,SW25*%
X145374929Y-57374973D03*
%TO.C,SW35*%
X145374929Y-74374965D03*
%TO.C,SW50*%
X153874925Y-74374965D03*
%TO.C,SW5*%
X156374929Y-23374989D03*
%TO.C,SW15*%
X156374929Y-40374981D03*
%TO.C,SW25*%
X156374929Y-57374973D03*
%TO.C,SW35*%
X156374929Y-74374965D03*
%TO.C,SW6*%
X162374921Y-23374989D03*
%TO.C,SW16*%
X162374921Y-40374981D03*
%TO.C,SW26*%
X162374921Y-57374973D03*
%TO.C,SW36*%
X162374921Y-74374965D03*
%TO.C,SW50*%
X164874925Y-74374965D03*
%TO.C,SW47*%
X170874917Y-74374965D03*
%TO.C,SW6*%
X173374921Y-23374989D03*
%TO.C,SW16*%
X173374921Y-40374981D03*
%TO.C,SW26*%
X173374921Y-57374973D03*
%TO.C,SW36*%
X173374921Y-74374965D03*
%TO.C,SW7*%
X179374913Y-23374989D03*
%TO.C,SW17*%
X179374913Y-40374981D03*
%TO.C,SW27*%
X179374913Y-57374973D03*
%TO.C,SW37*%
X179374913Y-74374965D03*
%TO.C,SW47*%
X181874917Y-74374965D03*
%TO.C,SW51*%
X187874909Y-74374965D03*
%TO.C,SW7*%
X190374913Y-23374989D03*
%TO.C,SW17*%
X190374913Y-40374981D03*
%TO.C,SW27*%
X190374913Y-57374973D03*
%TO.C,SW37*%
X190374913Y-74374965D03*
%TO.C,SW8*%
X196374905Y-23374989D03*
%TO.C,SW18*%
X196374905Y-40374981D03*
%TO.C,SW28*%
X196374905Y-57374973D03*
%TO.C,SW38*%
X196374905Y-74374965D03*
%TO.C,SW51*%
X198874909Y-74374965D03*
%TO.C,SW8*%
X207374905Y-23374989D03*
%TO.C,SW18*%
X207374905Y-40374981D03*
%TO.C,SW28*%
X207374905Y-57374973D03*
%TO.C,SW38*%
X207374905Y-74374965D03*
%TO.C,SW9*%
X213374897Y-23374989D03*
%TO.C,SW19*%
X213374897Y-40374981D03*
%TO.C,SW29*%
X213374897Y-57374973D03*
%TO.C,SW39*%
X213374897Y-74374965D03*
%TO.C,SW9*%
X224374897Y-23374989D03*
%TO.C,SW19*%
X224374897Y-40374981D03*
%TO.C,SW29*%
X224374897Y-57374973D03*
%TO.C,SW39*%
X224374897Y-74374965D03*
%TO.C,SW10*%
X230374889Y-23374989D03*
%TO.C,SW20*%
X230374889Y-40374981D03*
%TO.C,SW30*%
X230374889Y-57374973D03*
%TO.C,SW40*%
X230374889Y-74374965D03*
%TO.C,SW10*%
X241374889Y-23374989D03*
%TO.C,SW20*%
X241374889Y-40374981D03*
%TO.C,SW30*%
X241374889Y-57374973D03*
%TO.C,SW40*%
X241374889Y-74374965D03*
%TO.C,SW41*%
X247374881Y-23374989D03*
%TO.C,SW43*%
X247374881Y-40374981D03*
%TO.C,SW45*%
X247374881Y-57374973D03*
%TO.C,SW48*%
X247374881Y-74374965D03*
%TO.C,SW41*%
X258374881Y-23374989D03*
%TO.C,SW43*%
X258374881Y-40374981D03*
%TO.C,SW45*%
X258374881Y-57374973D03*
%TO.C,SW48*%
X258374881Y-74374965D03*
%TO.C,SW42*%
X264374873Y-23374989D03*
%TO.C,SW44*%
X264374873Y-40374981D03*
%TO.C,SW46*%
X264374873Y-57374973D03*
%TO.C,SW49*%
X264374873Y-74374965D03*
%TO.C,SW42*%
X275374873Y-23374989D03*
%TO.C,SW44*%
X275374873Y-40374981D03*
%TO.C,SW46*%
X275374873Y-57374973D03*
%TO.C,SW49*%
X275374873Y-74374965D03*
D13*
%TO.C,H3*%
X91374957Y-48874977D03*
%TO.C,H1*%
X125374941Y-31874985D03*
%TO.C,H5*%
X125374941Y-65874969D03*
%TO.C,H2*%
X227374893Y-31874985D03*
%TO.C,H6*%
X227374893Y-65874969D03*
%TO.C,H4*%
X261374877Y-48874977D03*
D14*
%TO.C,SW1*%
X82874961Y-17424989D03*
%TO.C,SW11*%
X82874961Y-34424981D03*
%TO.C,SW21*%
X82874961Y-51424973D03*
%TO.C,SW31*%
X82874961Y-68424965D03*
%TO.C,SW1*%
X87874961Y-19624989D03*
%TO.C,SW11*%
X87874961Y-36624981D03*
%TO.C,SW21*%
X87874961Y-53624973D03*
%TO.C,SW31*%
X87874961Y-70624965D03*
%TO.C,SW2*%
X94874953Y-27124989D03*
%TO.C,SW12*%
X94874953Y-44124981D03*
%TO.C,SW22*%
X94874953Y-61124973D03*
%TO.C,SW32*%
X94874953Y-78124965D03*
%TO.C,SW2*%
X99874953Y-29324989D03*
%TO.C,SW12*%
X99874953Y-46324981D03*
%TO.C,SW22*%
X99874953Y-63324973D03*
%TO.C,SW32*%
X99874953Y-80324965D03*
%TO.C,SW3*%
X111874945Y-27124989D03*
%TO.C,SW13*%
X111874945Y-44124981D03*
%TO.C,SW23*%
X111874945Y-61124973D03*
%TO.C,SW33*%
X111874945Y-78124965D03*
%TO.C,SW3*%
X116874945Y-29324989D03*
%TO.C,SW13*%
X116874945Y-46324981D03*
%TO.C,SW23*%
X116874945Y-63324973D03*
%TO.C,SW33*%
X116874945Y-80324965D03*
%TO.C,SW4*%
X128874937Y-27124989D03*
%TO.C,SW14*%
X128874937Y-44124981D03*
%TO.C,SW24*%
X128874937Y-61124973D03*
%TO.C,SW34*%
X128874937Y-78124965D03*
%TO.C,SW4*%
X133874937Y-29324989D03*
%TO.C,SW14*%
X133874937Y-46324981D03*
%TO.C,SW24*%
X133874937Y-63324973D03*
%TO.C,SW34*%
X133874937Y-80324965D03*
%TO.C,SW5*%
X145874929Y-27124989D03*
%TO.C,SW15*%
X145874929Y-44124981D03*
%TO.C,SW25*%
X145874929Y-61124973D03*
%TO.C,SW35*%
X145874929Y-78124965D03*
%TO.C,SW5*%
X150874929Y-29324989D03*
%TO.C,SW15*%
X150874929Y-46324981D03*
%TO.C,SW25*%
X150874929Y-63324973D03*
%TO.C,SW35*%
X150874929Y-80324965D03*
%TO.C,SW50*%
X159374925Y-68424965D03*
%TO.C,SW6*%
X162874921Y-27124989D03*
%TO.C,SW16*%
X162874921Y-44124981D03*
%TO.C,SW26*%
X162874921Y-61124973D03*
%TO.C,SW36*%
X162874921Y-78124965D03*
%TO.C,SW50*%
X164374925Y-70624965D03*
%TO.C,SW6*%
X167874921Y-29324989D03*
%TO.C,SW16*%
X167874921Y-46324981D03*
%TO.C,SW26*%
X167874921Y-63324973D03*
%TO.C,SW36*%
X167874921Y-80324965D03*
%TO.C,SW47*%
X176374917Y-68424965D03*
%TO.C,SW7*%
X179874913Y-27124989D03*
%TO.C,SW17*%
X179874913Y-44124981D03*
%TO.C,SW27*%
X179874913Y-61124973D03*
%TO.C,SW37*%
X179874913Y-78124965D03*
%TO.C,SW47*%
X181374917Y-70624965D03*
%TO.C,SW7*%
X184874913Y-29324989D03*
%TO.C,SW17*%
X184874913Y-46324981D03*
%TO.C,SW27*%
X184874913Y-63324973D03*
%TO.C,SW37*%
X184874913Y-80324965D03*
%TO.C,SW51*%
X193374909Y-68424965D03*
%TO.C,SW8*%
X196874905Y-27124989D03*
%TO.C,SW18*%
X196874905Y-44124981D03*
%TO.C,SW28*%
X196874905Y-61124973D03*
%TO.C,SW38*%
X196874905Y-78124965D03*
%TO.C,SW51*%
X198374909Y-70624965D03*
%TO.C,SW8*%
X201874905Y-29324989D03*
%TO.C,SW18*%
X201874905Y-46324981D03*
%TO.C,SW28*%
X201874905Y-63324973D03*
%TO.C,SW38*%
X201874905Y-80324965D03*
%TO.C,SW9*%
X213874897Y-27124989D03*
%TO.C,SW19*%
X213874897Y-44124981D03*
%TO.C,SW29*%
X213874897Y-61124973D03*
%TO.C,SW39*%
X213874897Y-78124965D03*
%TO.C,SW9*%
X218874897Y-29324989D03*
%TO.C,SW19*%
X218874897Y-46324981D03*
%TO.C,SW29*%
X218874897Y-63324973D03*
%TO.C,SW39*%
X218874897Y-80324965D03*
%TO.C,SW10*%
X230874889Y-27124989D03*
%TO.C,SW20*%
X230874889Y-44124981D03*
%TO.C,SW30*%
X230874889Y-61124973D03*
%TO.C,SW40*%
X230874889Y-78124965D03*
%TO.C,SW10*%
X235874889Y-29324989D03*
%TO.C,SW20*%
X235874889Y-46324981D03*
%TO.C,SW30*%
X235874889Y-63324973D03*
%TO.C,SW40*%
X235874889Y-80324965D03*
%TO.C,SW41*%
X247874881Y-27124989D03*
%TO.C,SW43*%
X247874881Y-44124981D03*
%TO.C,SW45*%
X247874881Y-61124973D03*
%TO.C,SW48*%
X247874881Y-78124965D03*
%TO.C,SW41*%
X252874881Y-29324989D03*
%TO.C,SW43*%
X252874881Y-46324981D03*
%TO.C,SW45*%
X252874881Y-63324973D03*
%TO.C,SW48*%
X252874881Y-80324965D03*
%TO.C,SW42*%
X264874873Y-27124989D03*
%TO.C,SW44*%
X264874873Y-44124981D03*
%TO.C,SW46*%
X264874873Y-61124973D03*
%TO.C,SW49*%
X264874873Y-78124965D03*
%TO.C,SW42*%
X269874873Y-29324989D03*
%TO.C,SW44*%
X269874873Y-46324981D03*
%TO.C,SW46*%
X269874873Y-63324973D03*
%TO.C,SW49*%
X269874873Y-80324965D03*
D15*
%TO.C,SW1*%
X82874961Y-23374989D03*
%TO.C,SW11*%
X82874961Y-40374981D03*
%TO.C,SW21*%
X82874961Y-57374973D03*
%TO.C,SW31*%
X82874961Y-74374965D03*
%TO.C,SW2*%
X99874953Y-23374989D03*
%TO.C,SW12*%
X99874953Y-40374981D03*
%TO.C,SW22*%
X99874953Y-57374973D03*
%TO.C,SW32*%
X99874953Y-74374965D03*
%TO.C,SW3*%
X116874945Y-23374989D03*
%TO.C,SW13*%
X116874945Y-40374981D03*
%TO.C,SW23*%
X116874945Y-57374973D03*
%TO.C,SW33*%
X116874945Y-74374965D03*
%TO.C,SW4*%
X133874937Y-23374989D03*
%TO.C,SW14*%
X133874937Y-40374981D03*
%TO.C,SW24*%
X133874937Y-57374973D03*
%TO.C,SW34*%
X133874937Y-74374965D03*
%TO.C,SW5*%
X150874929Y-23374989D03*
%TO.C,SW15*%
X150874929Y-40374981D03*
%TO.C,SW25*%
X150874929Y-57374973D03*
%TO.C,SW35*%
X150874929Y-74374965D03*
%TO.C,SW50*%
X159374925Y-74374965D03*
%TO.C,SW6*%
X167874921Y-23374989D03*
%TO.C,SW16*%
X167874921Y-40374981D03*
%TO.C,SW26*%
X167874921Y-57374973D03*
%TO.C,SW36*%
X167874921Y-74374965D03*
%TO.C,SW47*%
X176374917Y-74374965D03*
%TO.C,SW7*%
X184874913Y-23374989D03*
%TO.C,SW17*%
X184874913Y-40374981D03*
%TO.C,SW27*%
X184874913Y-57374973D03*
%TO.C,SW37*%
X184874913Y-74374965D03*
%TO.C,SW51*%
X193374909Y-74374965D03*
%TO.C,SW8*%
X201874905Y-23374989D03*
%TO.C,SW18*%
X201874905Y-40374981D03*
%TO.C,SW28*%
X201874905Y-57374973D03*
%TO.C,SW38*%
X201874905Y-74374965D03*
%TO.C,SW9*%
X218874897Y-23374989D03*
%TO.C,SW19*%
X218874897Y-40374981D03*
%TO.C,SW29*%
X218874897Y-57374973D03*
%TO.C,SW39*%
X218874897Y-74374965D03*
%TO.C,SW10*%
X235874889Y-23374989D03*
%TO.C,SW20*%
X235874889Y-40374981D03*
%TO.C,SW30*%
X235874889Y-57374973D03*
%TO.C,SW40*%
X235874889Y-74374965D03*
%TO.C,SW41*%
X252874881Y-23374989D03*
%TO.C,SW43*%
X252874881Y-40374981D03*
%TO.C,SW45*%
X252874881Y-57374973D03*
%TO.C,SW48*%
X252874881Y-74374965D03*
%TO.C,SW42*%
X269874873Y-23374989D03*
%TO.C,SW44*%
X269874873Y-40374981D03*
%TO.C,SW46*%
X269874873Y-57374973D03*
%TO.C,SW49*%
X269874873Y-74374965D03*
M02*
