%FSLAX45Y45*%
G04 Gerber Fmt 4.5, Leading zero omitted, Abs format (unit mm)*
G04 Created by KiCad (PCBNEW (6.0.4-0)) date 2023-09-21 22:36:33*
%MOMM*%
%LPD*%
G01*
G04 APERTURE LIST*
%TA.AperFunction,Profile*%
%ADD10C,0.100000*%
%TD*%
%ADD11C,0.200000*%
%ADD12C,0.065000*%
%ADD13C,0.099060*%
%ADD14C,0.170180*%
%ADD15C,0.220000*%
%ADD16C,0.300000*%
%ADD17C,0.342900*%
G04 APERTURE END LIST*
D10*
X7649996Y-1487496D02*
G75*
G03*
X7437496Y-1699998I4J-212504D01*
G01*
X11545828Y-1345833D02*
X11652078Y-1487499D01*
X10589578Y-1487499D02*
X10554162Y-1487499D01*
X7437503Y-8145829D02*
X7437503Y-1699999D01*
X27837487Y-8145829D02*
X27837487Y-1629166D01*
X7649996Y-1487498D02*
X10554162Y-1487499D01*
X27837485Y-1629162D02*
G75*
G03*
X27695822Y-1487495I-141665J2D01*
G01*
X27695822Y-1487495D02*
X11687494Y-1487499D01*
X11687494Y-1487499D02*
X11652078Y-1487499D01*
X7579170Y-8287496D02*
X27695820Y-8287496D01*
X10589578Y-1487499D02*
X10695828Y-1345833D01*
X10695828Y-1345833D02*
X11545828Y-1345833D01*
X7437494Y-8145829D02*
G75*
G03*
X7579170Y-8287496I141666J-1D01*
G01*
X27695820Y-8287497D02*
G75*
G03*
X27837487Y-8145829I0J141667D01*
G01*
D11*
D12*
X10799328Y-1927999D02*
X10864328Y-1992999D01*
X10864328Y-1927999D02*
X10799328Y-1992999D01*
X11377328Y-1927999D02*
X11442328Y-1992999D01*
X11442328Y-1927999D02*
X11377328Y-1992999D01*
D13*
X7815026Y-2757499D02*
G75*
G03*
X7815026Y-2757499I-49530J0D01*
G01*
X7815026Y-4457498D02*
G75*
G03*
X7815026Y-4457498I-49530J0D01*
G01*
X7815026Y-6157497D02*
G75*
G03*
X7815026Y-6157497I-49530J0D01*
G01*
X7815026Y-7857496D02*
G75*
G03*
X7815026Y-7857496I-49530J0D01*
G01*
X10559025Y-1917499D02*
G75*
G03*
X10559025Y-1917499I-49530J0D01*
G01*
X10559025Y-3617498D02*
G75*
G03*
X10559025Y-3617498I-49530J0D01*
G01*
X10559025Y-5317497D02*
G75*
G03*
X10559025Y-5317497I-49530J0D01*
G01*
X10559025Y-7017496D02*
G75*
G03*
X10559025Y-7017496I-49530J0D01*
G01*
X12259024Y-1917499D02*
G75*
G03*
X12259024Y-1917499I-49530J0D01*
G01*
X12259024Y-3617498D02*
G75*
G03*
X12259024Y-3617498I-49530J0D01*
G01*
X12259024Y-5317497D02*
G75*
G03*
X12259024Y-5317497I-49530J0D01*
G01*
X12259024Y-7017496D02*
G75*
G03*
X12259024Y-7017496I-49530J0D01*
G01*
X13959024Y-1917499D02*
G75*
G03*
X13959024Y-1917499I-49530J0D01*
G01*
X13959024Y-3617498D02*
G75*
G03*
X13959024Y-3617498I-49530J0D01*
G01*
X13959024Y-5317497D02*
G75*
G03*
X13959024Y-5317497I-49530J0D01*
G01*
X13959024Y-7017496D02*
G75*
G03*
X13959024Y-7017496I-49530J0D01*
G01*
X15465022Y-7857496D02*
G75*
G03*
X15465022Y-7857496I-49530J0D01*
G01*
X15659023Y-1917499D02*
G75*
G03*
X15659023Y-1917499I-49530J0D01*
G01*
X15659023Y-3617498D02*
G75*
G03*
X15659023Y-3617498I-49530J0D01*
G01*
X15659023Y-5317497D02*
G75*
G03*
X15659023Y-5317497I-49530J0D01*
G01*
X15659023Y-7017496D02*
G75*
G03*
X15659023Y-7017496I-49530J0D01*
G01*
X17165022Y-7857496D02*
G75*
G03*
X17165022Y-7857496I-49530J0D01*
G01*
X17359022Y-1917499D02*
G75*
G03*
X17359022Y-1917499I-49530J0D01*
G01*
X17359022Y-3617498D02*
G75*
G03*
X17359022Y-3617498I-49530J0D01*
G01*
X17359022Y-5317497D02*
G75*
G03*
X17359022Y-5317497I-49530J0D01*
G01*
X17359022Y-7017496D02*
G75*
G03*
X17359022Y-7017496I-49530J0D01*
G01*
X18865021Y-7857496D02*
G75*
G03*
X18865021Y-7857496I-49530J0D01*
G01*
X19059021Y-1917499D02*
G75*
G03*
X19059021Y-1917499I-49530J0D01*
G01*
X19059021Y-3617498D02*
G75*
G03*
X19059021Y-3617498I-49530J0D01*
G01*
X19059021Y-5317497D02*
G75*
G03*
X19059021Y-5317497I-49530J0D01*
G01*
X19059021Y-7017496D02*
G75*
G03*
X19059021Y-7017496I-49530J0D01*
G01*
X20759021Y-1917499D02*
G75*
G03*
X20759021Y-1917499I-49530J0D01*
G01*
X20759021Y-3617498D02*
G75*
G03*
X20759021Y-3617498I-49530J0D01*
G01*
X20759021Y-5317497D02*
G75*
G03*
X20759021Y-5317497I-49530J0D01*
G01*
X20759021Y-7017496D02*
G75*
G03*
X20759021Y-7017496I-49530J0D01*
G01*
X22459020Y-1917499D02*
G75*
G03*
X22459020Y-1917499I-49530J0D01*
G01*
X22459020Y-3617498D02*
G75*
G03*
X22459020Y-3617498I-49530J0D01*
G01*
X22459020Y-5317497D02*
G75*
G03*
X22459020Y-5317497I-49530J0D01*
G01*
X22459020Y-7017496D02*
G75*
G03*
X22459020Y-7017496I-49530J0D01*
G01*
X24159019Y-1917499D02*
G75*
G03*
X24159019Y-1917499I-49530J0D01*
G01*
X24159019Y-3617498D02*
G75*
G03*
X24159019Y-3617498I-49530J0D01*
G01*
X24159019Y-5317497D02*
G75*
G03*
X24159019Y-5317497I-49530J0D01*
G01*
X24159019Y-7017496D02*
G75*
G03*
X24159019Y-7017496I-49530J0D01*
G01*
X25859018Y-1917499D02*
G75*
G03*
X25859018Y-1917499I-49530J0D01*
G01*
X25859018Y-3617498D02*
G75*
G03*
X25859018Y-3617498I-49530J0D01*
G01*
X25859018Y-5317497D02*
G75*
G03*
X25859018Y-5317497I-49530J0D01*
G01*
X25859018Y-7017496D02*
G75*
G03*
X25859018Y-7017496I-49530J0D01*
G01*
X27559017Y-1917499D02*
G75*
G03*
X27559017Y-1917499I-49530J0D01*
G01*
X27559017Y-3617498D02*
G75*
G03*
X27559017Y-3617498I-49530J0D01*
G01*
X27559017Y-5317497D02*
G75*
G03*
X27559017Y-5317497I-49530J0D01*
G01*
X27559017Y-7017496D02*
G75*
G03*
X27559017Y-7017496I-49530J0D01*
G01*
D14*
X7737496Y-2252409D02*
X7737496Y-2422589D01*
X7652406Y-2337499D02*
X7822586Y-2337499D01*
X7737496Y-3952408D02*
X7737496Y-4122588D01*
X7652406Y-4037498D02*
X7822586Y-4037498D01*
X7737496Y-5652407D02*
X7737496Y-5822587D01*
X7652406Y-5737497D02*
X7822586Y-5737497D01*
X7737496Y-7352406D02*
X7737496Y-7522586D01*
X7652406Y-7437496D02*
X7822586Y-7437496D01*
X8837496Y-2252409D02*
X8837496Y-2422589D01*
X8752406Y-2337499D02*
X8922586Y-2337499D01*
X8837496Y-3952408D02*
X8837496Y-4122588D01*
X8752406Y-4037498D02*
X8922586Y-4037498D01*
X8837496Y-5652407D02*
X8837496Y-5822587D01*
X8752406Y-5737497D02*
X8922586Y-5737497D01*
X8837496Y-7352406D02*
X8837496Y-7522586D01*
X8752406Y-7437496D02*
X8922586Y-7437496D01*
X9437495Y-2252409D02*
X9437495Y-2422589D01*
X9352405Y-2337499D02*
X9522585Y-2337499D01*
X9437495Y-3952408D02*
X9437495Y-4122588D01*
X9352405Y-4037498D02*
X9522585Y-4037498D01*
X9437495Y-5652407D02*
X9437495Y-5822587D01*
X9352405Y-5737497D02*
X9522585Y-5737497D01*
X9437495Y-7352406D02*
X9437495Y-7522586D01*
X9352405Y-7437496D02*
X9522585Y-7437496D01*
X10537495Y-2252409D02*
X10537495Y-2422589D01*
X10452405Y-2337499D02*
X10622585Y-2337499D01*
X10537495Y-3952408D02*
X10537495Y-4122588D01*
X10452405Y-4037498D02*
X10622585Y-4037498D01*
X10537495Y-5652407D02*
X10537495Y-5822587D01*
X10452405Y-5737497D02*
X10622585Y-5737497D01*
X10537495Y-7352406D02*
X10537495Y-7522586D01*
X10452405Y-7437496D02*
X10622585Y-7437496D01*
X11137495Y-2252409D02*
X11137495Y-2422589D01*
X11052405Y-2337499D02*
X11222584Y-2337499D01*
X11137495Y-3952408D02*
X11137495Y-4122588D01*
X11052405Y-4037498D02*
X11222584Y-4037498D01*
X11137495Y-5652407D02*
X11137495Y-5822587D01*
X11052405Y-5737497D02*
X11222584Y-5737497D01*
X11137495Y-7352406D02*
X11137495Y-7522586D01*
X11052405Y-7437496D02*
X11222584Y-7437496D01*
X12237494Y-2252409D02*
X12237494Y-2422589D01*
X12152404Y-2337499D02*
X12322584Y-2337499D01*
X12237494Y-3952408D02*
X12237494Y-4122588D01*
X12152404Y-4037498D02*
X12322584Y-4037498D01*
X12237494Y-5652407D02*
X12237494Y-5822587D01*
X12152404Y-5737497D02*
X12322584Y-5737497D01*
X12237494Y-7352406D02*
X12237494Y-7522586D01*
X12152404Y-7437496D02*
X12322584Y-7437496D01*
X12837494Y-2252409D02*
X12837494Y-2422589D01*
X12752404Y-2337499D02*
X12922584Y-2337499D01*
X12837494Y-3952408D02*
X12837494Y-4122588D01*
X12752404Y-4037498D02*
X12922584Y-4037498D01*
X12837494Y-5652407D02*
X12837494Y-5822587D01*
X12752404Y-5737497D02*
X12922584Y-5737497D01*
X12837494Y-7352406D02*
X12837494Y-7522586D01*
X12752404Y-7437496D02*
X12922584Y-7437496D01*
X13937494Y-2252409D02*
X13937494Y-2422589D01*
X13852404Y-2337499D02*
X14022584Y-2337499D01*
X13937494Y-3952408D02*
X13937494Y-4122588D01*
X13852404Y-4037498D02*
X14022584Y-4037498D01*
X13937494Y-5652407D02*
X13937494Y-5822587D01*
X13852404Y-5737497D02*
X14022584Y-5737497D01*
X13937494Y-7352406D02*
X13937494Y-7522586D01*
X13852404Y-7437496D02*
X14022584Y-7437496D01*
X14537493Y-2252409D02*
X14537493Y-2422589D01*
X14452403Y-2337499D02*
X14622583Y-2337499D01*
X14537493Y-3952408D02*
X14537493Y-4122588D01*
X14452403Y-4037498D02*
X14622583Y-4037498D01*
X14537493Y-5652407D02*
X14537493Y-5822587D01*
X14452403Y-5737497D02*
X14622583Y-5737497D01*
X14537493Y-7352406D02*
X14537493Y-7522586D01*
X14452403Y-7437496D02*
X14622583Y-7437496D01*
X15387492Y-7352406D02*
X15387492Y-7522586D01*
X15302402Y-7437496D02*
X15472582Y-7437496D01*
X15637493Y-2252409D02*
X15637493Y-2422589D01*
X15552403Y-2337499D02*
X15722583Y-2337499D01*
X15637493Y-3952408D02*
X15637493Y-4122588D01*
X15552403Y-4037498D02*
X15722583Y-4037498D01*
X15637493Y-5652407D02*
X15637493Y-5822587D01*
X15552403Y-5737497D02*
X15722583Y-5737497D01*
X15637493Y-7352406D02*
X15637493Y-7522586D01*
X15552403Y-7437496D02*
X15722583Y-7437496D01*
X16237492Y-2252409D02*
X16237492Y-2422589D01*
X16152402Y-2337499D02*
X16322582Y-2337499D01*
X16237492Y-3952408D02*
X16237492Y-4122588D01*
X16152402Y-4037498D02*
X16322582Y-4037498D01*
X16237492Y-5652407D02*
X16237492Y-5822587D01*
X16152402Y-5737497D02*
X16322582Y-5737497D01*
X16237492Y-7352406D02*
X16237492Y-7522586D01*
X16152402Y-7437496D02*
X16322582Y-7437496D01*
X16487492Y-7352406D02*
X16487492Y-7522586D01*
X16402402Y-7437496D02*
X16572582Y-7437496D01*
X17087492Y-7352406D02*
X17087492Y-7522586D01*
X17002402Y-7437496D02*
X17172582Y-7437496D01*
X17337492Y-2252409D02*
X17337492Y-2422589D01*
X17252402Y-2337499D02*
X17422582Y-2337499D01*
X17337492Y-3952408D02*
X17337492Y-4122588D01*
X17252402Y-4037498D02*
X17422582Y-4037498D01*
X17337492Y-5652407D02*
X17337492Y-5822587D01*
X17252402Y-5737497D02*
X17422582Y-5737497D01*
X17337492Y-7352406D02*
X17337492Y-7522586D01*
X17252402Y-7437496D02*
X17422582Y-7437496D01*
X17937491Y-2252409D02*
X17937491Y-2422589D01*
X17852401Y-2337499D02*
X18022581Y-2337499D01*
X17937491Y-3952408D02*
X17937491Y-4122588D01*
X17852401Y-4037498D02*
X18022581Y-4037498D01*
X17937491Y-5652407D02*
X17937491Y-5822587D01*
X17852401Y-5737497D02*
X18022581Y-5737497D01*
X17937491Y-7352406D02*
X17937491Y-7522586D01*
X17852401Y-7437496D02*
X18022581Y-7437496D01*
X18187492Y-7352406D02*
X18187492Y-7522586D01*
X18102402Y-7437496D02*
X18272582Y-7437496D01*
X18787491Y-7352406D02*
X18787491Y-7522586D01*
X18702401Y-7437496D02*
X18872581Y-7437496D01*
X19037491Y-2252409D02*
X19037491Y-2422589D01*
X18952401Y-2337499D02*
X19122581Y-2337499D01*
X19037491Y-3952408D02*
X19037491Y-4122588D01*
X18952401Y-4037498D02*
X19122581Y-4037498D01*
X19037491Y-5652407D02*
X19037491Y-5822587D01*
X18952401Y-5737497D02*
X19122581Y-5737497D01*
X19037491Y-7352406D02*
X19037491Y-7522586D01*
X18952401Y-7437496D02*
X19122581Y-7437496D01*
X19637491Y-2252409D02*
X19637491Y-2422589D01*
X19552401Y-2337499D02*
X19722581Y-2337499D01*
X19637491Y-3952408D02*
X19637491Y-4122588D01*
X19552401Y-4037498D02*
X19722581Y-4037498D01*
X19637491Y-5652407D02*
X19637491Y-5822587D01*
X19552401Y-5737497D02*
X19722581Y-5737497D01*
X19637491Y-7352406D02*
X19637491Y-7522586D01*
X19552401Y-7437496D02*
X19722581Y-7437496D01*
X19887491Y-7352406D02*
X19887491Y-7522586D01*
X19802401Y-7437496D02*
X19972581Y-7437496D01*
X20737491Y-2252409D02*
X20737491Y-2422589D01*
X20652401Y-2337499D02*
X20822581Y-2337499D01*
X20737491Y-3952408D02*
X20737491Y-4122588D01*
X20652401Y-4037498D02*
X20822581Y-4037498D01*
X20737491Y-5652407D02*
X20737491Y-5822587D01*
X20652401Y-5737497D02*
X20822581Y-5737497D01*
X20737491Y-7352406D02*
X20737491Y-7522586D01*
X20652401Y-7437496D02*
X20822581Y-7437496D01*
X21337490Y-2252409D02*
X21337490Y-2422589D01*
X21252400Y-2337499D02*
X21422580Y-2337499D01*
X21337490Y-3952408D02*
X21337490Y-4122588D01*
X21252400Y-4037498D02*
X21422580Y-4037498D01*
X21337490Y-5652407D02*
X21337490Y-5822587D01*
X21252400Y-5737497D02*
X21422580Y-5737497D01*
X21337490Y-7352406D02*
X21337490Y-7522586D01*
X21252400Y-7437496D02*
X21422580Y-7437496D01*
X22437490Y-2252409D02*
X22437490Y-2422589D01*
X22352400Y-2337499D02*
X22522580Y-2337499D01*
X22437490Y-3952408D02*
X22437490Y-4122588D01*
X22352400Y-4037498D02*
X22522580Y-4037498D01*
X22437490Y-5652407D02*
X22437490Y-5822587D01*
X22352400Y-5737497D02*
X22522580Y-5737497D01*
X22437490Y-7352406D02*
X22437490Y-7522586D01*
X22352400Y-7437496D02*
X22522580Y-7437496D01*
X23037489Y-2252409D02*
X23037489Y-2422589D01*
X22952399Y-2337499D02*
X23122579Y-2337499D01*
X23037489Y-3952408D02*
X23037489Y-4122588D01*
X22952399Y-4037498D02*
X23122579Y-4037498D01*
X23037489Y-5652407D02*
X23037489Y-5822587D01*
X22952399Y-5737497D02*
X23122579Y-5737497D01*
X23037489Y-7352406D02*
X23037489Y-7522586D01*
X22952399Y-7437496D02*
X23122579Y-7437496D01*
X24137489Y-2252409D02*
X24137489Y-2422589D01*
X24052399Y-2337499D02*
X24222579Y-2337499D01*
X24137489Y-3952408D02*
X24137489Y-4122588D01*
X24052399Y-4037498D02*
X24222579Y-4037498D01*
X24137489Y-5652407D02*
X24137489Y-5822587D01*
X24052399Y-5737497D02*
X24222579Y-5737497D01*
X24137489Y-7352406D02*
X24137489Y-7522586D01*
X24052399Y-7437496D02*
X24222579Y-7437496D01*
X24737488Y-2252409D02*
X24737488Y-2422589D01*
X24652398Y-2337499D02*
X24822578Y-2337499D01*
X24737488Y-3952408D02*
X24737488Y-4122588D01*
X24652398Y-4037498D02*
X24822578Y-4037498D01*
X24737488Y-5652407D02*
X24737488Y-5822587D01*
X24652398Y-5737497D02*
X24822578Y-5737497D01*
X24737488Y-7352406D02*
X24737488Y-7522586D01*
X24652398Y-7437496D02*
X24822578Y-7437496D01*
X25837488Y-2252409D02*
X25837488Y-2422589D01*
X25752398Y-2337499D02*
X25922578Y-2337499D01*
X25837488Y-3952408D02*
X25837488Y-4122588D01*
X25752398Y-4037498D02*
X25922578Y-4037498D01*
X25837488Y-5652407D02*
X25837488Y-5822587D01*
X25752398Y-5737497D02*
X25922578Y-5737497D01*
X25837488Y-7352406D02*
X25837488Y-7522586D01*
X25752398Y-7437496D02*
X25922578Y-7437496D01*
X26437487Y-2252409D02*
X26437487Y-2422589D01*
X26352397Y-2337499D02*
X26522577Y-2337499D01*
X26437487Y-3952408D02*
X26437487Y-4122588D01*
X26352397Y-4037498D02*
X26522577Y-4037498D01*
X26437487Y-5652407D02*
X26437487Y-5822587D01*
X26352397Y-5737497D02*
X26522577Y-5737497D01*
X26437487Y-7352406D02*
X26437487Y-7522586D01*
X26352397Y-7437496D02*
X26522577Y-7437496D01*
X27537487Y-2252409D02*
X27537487Y-2422589D01*
X27452397Y-2337499D02*
X27622577Y-2337499D01*
X27537487Y-3952408D02*
X27537487Y-4122588D01*
X27452397Y-4037498D02*
X27622577Y-4037498D01*
X27537487Y-5652407D02*
X27537487Y-5822587D01*
X27452397Y-5737497D02*
X27622577Y-5737497D01*
X27537487Y-7352406D02*
X27537487Y-7522586D01*
X27452397Y-7437496D02*
X27622577Y-7437496D01*
D15*
X9215278Y-4965280D02*
X9215278Y-4809715D01*
X9059713Y-4809715D01*
X9059713Y-4965280D01*
X9215278Y-4965280D01*
X12615277Y-3265281D02*
X12615277Y-3109716D01*
X12459712Y-3109716D01*
X12459712Y-3265281D01*
X12615277Y-3265281D01*
X12615277Y-6665279D02*
X12615277Y-6509714D01*
X12459712Y-6509714D01*
X12459712Y-6665279D01*
X12615277Y-6665279D01*
X22815272Y-3265281D02*
X22815272Y-3109716D01*
X22659707Y-3109716D01*
X22659707Y-3265281D01*
X22815272Y-3265281D01*
X22815272Y-6665279D02*
X22815272Y-6509714D01*
X22659707Y-6509714D01*
X22659707Y-6665279D01*
X22815272Y-6665279D01*
X26215270Y-4965280D02*
X26215270Y-4809715D01*
X26059705Y-4809715D01*
X26059705Y-4965280D01*
X26215270Y-4965280D01*
D16*
X8287496Y-1892499D02*
X8437496Y-1742499D01*
X8287496Y-1592499D01*
X8137496Y-1742499D01*
X8287496Y-1892499D01*
X8287496Y-3592498D02*
X8437496Y-3442498D01*
X8287496Y-3292498D01*
X8137496Y-3442498D01*
X8287496Y-3592498D01*
X8287496Y-5292497D02*
X8437496Y-5142497D01*
X8287496Y-4992497D01*
X8137496Y-5142497D01*
X8287496Y-5292497D01*
X8287496Y-6992496D02*
X8437496Y-6842496D01*
X8287496Y-6692496D01*
X8137496Y-6842496D01*
X8287496Y-6992496D01*
X8787496Y-2112499D02*
X8937496Y-1962499D01*
X8787496Y-1812499D01*
X8637496Y-1962499D01*
X8787496Y-2112499D01*
X8787496Y-3812498D02*
X8937496Y-3662498D01*
X8787496Y-3512498D01*
X8637496Y-3662498D01*
X8787496Y-3812498D01*
X8787496Y-5512497D02*
X8937496Y-5362497D01*
X8787496Y-5212497D01*
X8637496Y-5362497D01*
X8787496Y-5512497D01*
X8787496Y-7212496D02*
X8937496Y-7062496D01*
X8787496Y-6912496D01*
X8637496Y-7062496D01*
X8787496Y-7212496D01*
X9487495Y-2862499D02*
X9637495Y-2712499D01*
X9487495Y-2562499D01*
X9337495Y-2712499D01*
X9487495Y-2862499D01*
X9487495Y-4562498D02*
X9637495Y-4412498D01*
X9487495Y-4262498D01*
X9337495Y-4412498D01*
X9487495Y-4562498D01*
X9487495Y-6262497D02*
X9637495Y-6112497D01*
X9487495Y-5962497D01*
X9337495Y-6112497D01*
X9487495Y-6262497D01*
X9487495Y-7962496D02*
X9637495Y-7812496D01*
X9487495Y-7662496D01*
X9337495Y-7812496D01*
X9487495Y-7962496D01*
X9987495Y-3082499D02*
X10137495Y-2932499D01*
X9987495Y-2782499D01*
X9837495Y-2932499D01*
X9987495Y-3082499D01*
X9987495Y-4782498D02*
X10137495Y-4632498D01*
X9987495Y-4482498D01*
X9837495Y-4632498D01*
X9987495Y-4782498D01*
X9987495Y-6482497D02*
X10137495Y-6332497D01*
X9987495Y-6182497D01*
X9837495Y-6332497D01*
X9987495Y-6482497D01*
X9987495Y-8182496D02*
X10137495Y-8032496D01*
X9987495Y-7882496D01*
X9837495Y-8032496D01*
X9987495Y-8182496D01*
X11187494Y-2862499D02*
X11337494Y-2712499D01*
X11187494Y-2562499D01*
X11037495Y-2712499D01*
X11187494Y-2862499D01*
X11187494Y-4562498D02*
X11337494Y-4412498D01*
X11187494Y-4262498D01*
X11037495Y-4412498D01*
X11187494Y-4562498D01*
X11187494Y-6262497D02*
X11337494Y-6112497D01*
X11187494Y-5962497D01*
X11037495Y-6112497D01*
X11187494Y-6262497D01*
X11187494Y-7962496D02*
X11337494Y-7812496D01*
X11187494Y-7662496D01*
X11037495Y-7812496D01*
X11187494Y-7962496D01*
X11687494Y-3082499D02*
X11837494Y-2932499D01*
X11687494Y-2782499D01*
X11537494Y-2932499D01*
X11687494Y-3082499D01*
X11687494Y-4782498D02*
X11837494Y-4632498D01*
X11687494Y-4482498D01*
X11537494Y-4632498D01*
X11687494Y-4782498D01*
X11687494Y-6482497D02*
X11837494Y-6332497D01*
X11687494Y-6182497D01*
X11537494Y-6332497D01*
X11687494Y-6482497D01*
X11687494Y-8182496D02*
X11837494Y-8032496D01*
X11687494Y-7882496D01*
X11537494Y-8032496D01*
X11687494Y-8182496D01*
X12887494Y-2862499D02*
X13037494Y-2712499D01*
X12887494Y-2562499D01*
X12737494Y-2712499D01*
X12887494Y-2862499D01*
X12887494Y-4562498D02*
X13037494Y-4412498D01*
X12887494Y-4262498D01*
X12737494Y-4412498D01*
X12887494Y-4562498D01*
X12887494Y-6262497D02*
X13037494Y-6112497D01*
X12887494Y-5962497D01*
X12737494Y-6112497D01*
X12887494Y-6262497D01*
X12887494Y-7962496D02*
X13037494Y-7812496D01*
X12887494Y-7662496D01*
X12737494Y-7812496D01*
X12887494Y-7962496D01*
X13387494Y-3082499D02*
X13537494Y-2932499D01*
X13387494Y-2782499D01*
X13237494Y-2932499D01*
X13387494Y-3082499D01*
X13387494Y-4782498D02*
X13537494Y-4632498D01*
X13387494Y-4482498D01*
X13237494Y-4632498D01*
X13387494Y-4782498D01*
X13387494Y-6482497D02*
X13537494Y-6332497D01*
X13387494Y-6182497D01*
X13237494Y-6332497D01*
X13387494Y-6482497D01*
X13387494Y-8182496D02*
X13537494Y-8032496D01*
X13387494Y-7882496D01*
X13237494Y-8032496D01*
X13387494Y-8182496D01*
X14587493Y-2862499D02*
X14737493Y-2712499D01*
X14587493Y-2562499D01*
X14437493Y-2712499D01*
X14587493Y-2862499D01*
X14587493Y-4562498D02*
X14737493Y-4412498D01*
X14587493Y-4262498D01*
X14437493Y-4412498D01*
X14587493Y-4562498D01*
X14587493Y-6262497D02*
X14737493Y-6112497D01*
X14587493Y-5962497D01*
X14437493Y-6112497D01*
X14587493Y-6262497D01*
X14587493Y-7962496D02*
X14737493Y-7812496D01*
X14587493Y-7662496D01*
X14437493Y-7812496D01*
X14587493Y-7962496D01*
X15087493Y-3082499D02*
X15237493Y-2932499D01*
X15087493Y-2782499D01*
X14937493Y-2932499D01*
X15087493Y-3082499D01*
X15087493Y-4782498D02*
X15237493Y-4632498D01*
X15087493Y-4482498D01*
X14937493Y-4632498D01*
X15087493Y-4782498D01*
X15087493Y-6482497D02*
X15237493Y-6332497D01*
X15087493Y-6182497D01*
X14937493Y-6332497D01*
X15087493Y-6482497D01*
X15087493Y-8182496D02*
X15237493Y-8032496D01*
X15087493Y-7882496D01*
X14937493Y-8032496D01*
X15087493Y-8182496D01*
X15937492Y-6992496D02*
X16087492Y-6842496D01*
X15937492Y-6692496D01*
X15787492Y-6842496D01*
X15937492Y-6992496D01*
X16287492Y-2862499D02*
X16437492Y-2712499D01*
X16287492Y-2562499D01*
X16137492Y-2712499D01*
X16287492Y-2862499D01*
X16287492Y-4562498D02*
X16437492Y-4412498D01*
X16287492Y-4262498D01*
X16137492Y-4412498D01*
X16287492Y-4562498D01*
X16287492Y-6262497D02*
X16437492Y-6112497D01*
X16287492Y-5962497D01*
X16137492Y-6112497D01*
X16287492Y-6262497D01*
X16287492Y-7962496D02*
X16437492Y-7812496D01*
X16287492Y-7662496D01*
X16137492Y-7812496D01*
X16287492Y-7962496D01*
X16437492Y-7212496D02*
X16587492Y-7062496D01*
X16437492Y-6912496D01*
X16287492Y-7062496D01*
X16437492Y-7212496D01*
X16787492Y-3082499D02*
X16937492Y-2932499D01*
X16787492Y-2782499D01*
X16637492Y-2932499D01*
X16787492Y-3082499D01*
X16787492Y-4782498D02*
X16937492Y-4632498D01*
X16787492Y-4482498D01*
X16637492Y-4632498D01*
X16787492Y-4782498D01*
X16787492Y-6482497D02*
X16937492Y-6332497D01*
X16787492Y-6182497D01*
X16637492Y-6332497D01*
X16787492Y-6482497D01*
X16787492Y-8182496D02*
X16937492Y-8032496D01*
X16787492Y-7882496D01*
X16637492Y-8032496D01*
X16787492Y-8182496D01*
X17637492Y-6992496D02*
X17787492Y-6842496D01*
X17637492Y-6692496D01*
X17487492Y-6842496D01*
X17637492Y-6992496D01*
X17987491Y-2862499D02*
X18137491Y-2712499D01*
X17987491Y-2562499D01*
X17837491Y-2712499D01*
X17987491Y-2862499D01*
X17987491Y-4562498D02*
X18137491Y-4412498D01*
X17987491Y-4262498D01*
X17837491Y-4412498D01*
X17987491Y-4562498D01*
X17987491Y-6262497D02*
X18137491Y-6112497D01*
X17987491Y-5962497D01*
X17837491Y-6112497D01*
X17987491Y-6262497D01*
X17987491Y-7962496D02*
X18137491Y-7812496D01*
X17987491Y-7662496D01*
X17837491Y-7812496D01*
X17987491Y-7962496D01*
X18137492Y-7212496D02*
X18287492Y-7062496D01*
X18137492Y-6912496D01*
X17987492Y-7062496D01*
X18137492Y-7212496D01*
X18487491Y-3082499D02*
X18637491Y-2932499D01*
X18487491Y-2782499D01*
X18337491Y-2932499D01*
X18487491Y-3082499D01*
X18487491Y-4782498D02*
X18637491Y-4632498D01*
X18487491Y-4482498D01*
X18337491Y-4632498D01*
X18487491Y-4782498D01*
X18487491Y-6482497D02*
X18637491Y-6332497D01*
X18487491Y-6182497D01*
X18337491Y-6332497D01*
X18487491Y-6482497D01*
X18487491Y-8182496D02*
X18637491Y-8032496D01*
X18487491Y-7882496D01*
X18337491Y-8032496D01*
X18487491Y-8182496D01*
X19337491Y-6992496D02*
X19487491Y-6842496D01*
X19337491Y-6692496D01*
X19187491Y-6842496D01*
X19337491Y-6992496D01*
X19687491Y-2862499D02*
X19837491Y-2712499D01*
X19687491Y-2562499D01*
X19537491Y-2712499D01*
X19687491Y-2862499D01*
X19687491Y-4562498D02*
X19837491Y-4412498D01*
X19687491Y-4262498D01*
X19537491Y-4412498D01*
X19687491Y-4562498D01*
X19687491Y-6262497D02*
X19837491Y-6112497D01*
X19687491Y-5962497D01*
X19537491Y-6112497D01*
X19687491Y-6262497D01*
X19687491Y-7962496D02*
X19837491Y-7812496D01*
X19687491Y-7662496D01*
X19537491Y-7812496D01*
X19687491Y-7962496D01*
X19837491Y-7212496D02*
X19987491Y-7062496D01*
X19837491Y-6912496D01*
X19687491Y-7062496D01*
X19837491Y-7212496D01*
X20187491Y-3082499D02*
X20337491Y-2932499D01*
X20187491Y-2782499D01*
X20037491Y-2932499D01*
X20187491Y-3082499D01*
X20187491Y-4782498D02*
X20337491Y-4632498D01*
X20187491Y-4482498D01*
X20037491Y-4632498D01*
X20187491Y-4782498D01*
X20187491Y-6482497D02*
X20337491Y-6332497D01*
X20187491Y-6182497D01*
X20037491Y-6332497D01*
X20187491Y-6482497D01*
X20187491Y-8182496D02*
X20337491Y-8032496D01*
X20187491Y-7882496D01*
X20037491Y-8032496D01*
X20187491Y-8182496D01*
X21387490Y-2862499D02*
X21537490Y-2712499D01*
X21387490Y-2562499D01*
X21237490Y-2712499D01*
X21387490Y-2862499D01*
X21387490Y-4562498D02*
X21537490Y-4412498D01*
X21387490Y-4262498D01*
X21237490Y-4412498D01*
X21387490Y-4562498D01*
X21387490Y-6262497D02*
X21537490Y-6112497D01*
X21387490Y-5962497D01*
X21237490Y-6112497D01*
X21387490Y-6262497D01*
X21387490Y-7962496D02*
X21537490Y-7812496D01*
X21387490Y-7662496D01*
X21237490Y-7812496D01*
X21387490Y-7962496D01*
X21887490Y-3082499D02*
X22037490Y-2932499D01*
X21887490Y-2782499D01*
X21737490Y-2932499D01*
X21887490Y-3082499D01*
X21887490Y-4782498D02*
X22037490Y-4632498D01*
X21887490Y-4482498D01*
X21737490Y-4632498D01*
X21887490Y-4782498D01*
X21887490Y-6482497D02*
X22037490Y-6332497D01*
X21887490Y-6182497D01*
X21737490Y-6332497D01*
X21887490Y-6482497D01*
X21887490Y-8182496D02*
X22037490Y-8032496D01*
X21887490Y-7882496D01*
X21737490Y-8032496D01*
X21887490Y-8182496D01*
X23087489Y-2862499D02*
X23237489Y-2712499D01*
X23087489Y-2562499D01*
X22937489Y-2712499D01*
X23087489Y-2862499D01*
X23087489Y-4562498D02*
X23237489Y-4412498D01*
X23087489Y-4262498D01*
X22937489Y-4412498D01*
X23087489Y-4562498D01*
X23087489Y-6262497D02*
X23237489Y-6112497D01*
X23087489Y-5962497D01*
X22937489Y-6112497D01*
X23087489Y-6262497D01*
X23087489Y-7962496D02*
X23237489Y-7812496D01*
X23087489Y-7662496D01*
X22937489Y-7812496D01*
X23087489Y-7962496D01*
X23587489Y-3082499D02*
X23737489Y-2932499D01*
X23587489Y-2782499D01*
X23437489Y-2932499D01*
X23587489Y-3082499D01*
X23587489Y-4782498D02*
X23737489Y-4632498D01*
X23587489Y-4482498D01*
X23437489Y-4632498D01*
X23587489Y-4782498D01*
X23587489Y-6482497D02*
X23737489Y-6332497D01*
X23587489Y-6182497D01*
X23437489Y-6332497D01*
X23587489Y-6482497D01*
X23587489Y-8182496D02*
X23737489Y-8032496D01*
X23587489Y-7882496D01*
X23437489Y-8032496D01*
X23587489Y-8182496D01*
X24787488Y-2862499D02*
X24937488Y-2712499D01*
X24787488Y-2562499D01*
X24637488Y-2712499D01*
X24787488Y-2862499D01*
X24787488Y-4562498D02*
X24937488Y-4412498D01*
X24787488Y-4262498D01*
X24637488Y-4412498D01*
X24787488Y-4562498D01*
X24787488Y-6262497D02*
X24937488Y-6112497D01*
X24787488Y-5962497D01*
X24637488Y-6112497D01*
X24787488Y-6262497D01*
X24787488Y-7962496D02*
X24937488Y-7812496D01*
X24787488Y-7662496D01*
X24637488Y-7812496D01*
X24787488Y-7962496D01*
X25287488Y-3082499D02*
X25437488Y-2932499D01*
X25287488Y-2782499D01*
X25137488Y-2932499D01*
X25287488Y-3082499D01*
X25287488Y-4782498D02*
X25437488Y-4632498D01*
X25287488Y-4482498D01*
X25137488Y-4632498D01*
X25287488Y-4782498D01*
X25287488Y-6482497D02*
X25437488Y-6332497D01*
X25287488Y-6182497D01*
X25137488Y-6332497D01*
X25287488Y-6482497D01*
X25287488Y-8182496D02*
X25437488Y-8032496D01*
X25287488Y-7882496D01*
X25137488Y-8032496D01*
X25287488Y-8182496D01*
X26487487Y-2862499D02*
X26637487Y-2712499D01*
X26487487Y-2562499D01*
X26337487Y-2712499D01*
X26487487Y-2862499D01*
X26487487Y-4562498D02*
X26637487Y-4412498D01*
X26487487Y-4262498D01*
X26337487Y-4412498D01*
X26487487Y-4562498D01*
X26487487Y-6262497D02*
X26637487Y-6112497D01*
X26487487Y-5962497D01*
X26337487Y-6112497D01*
X26487487Y-6262497D01*
X26487487Y-7962496D02*
X26637487Y-7812496D01*
X26487487Y-7662496D01*
X26337487Y-7812496D01*
X26487487Y-7962496D01*
X26987487Y-3082499D02*
X27137487Y-2932499D01*
X26987487Y-2782499D01*
X26837487Y-2932499D01*
X26987487Y-3082499D01*
X26987487Y-4782498D02*
X27137487Y-4632498D01*
X26987487Y-4482498D01*
X26837487Y-4632498D01*
X26987487Y-4782498D01*
X26987487Y-6482497D02*
X27137487Y-6332497D01*
X26987487Y-6182497D01*
X26837487Y-6332497D01*
X26987487Y-6482497D01*
X26987487Y-8182496D02*
X27137487Y-8032496D01*
X26987487Y-7882496D01*
X26837487Y-8032496D01*
X26987487Y-8182496D01*
D17*
X8116046Y-2166049D02*
X8458946Y-2508949D01*
X8458946Y-2166049D02*
X8116046Y-2508949D01*
X8458946Y-2337499D02*
G75*
G03*
X8458946Y-2337499I-171450J0D01*
G01*
X8116046Y-3866048D02*
X8458946Y-4208948D01*
X8458946Y-3866048D02*
X8116046Y-4208948D01*
X8458946Y-4037498D02*
G75*
G03*
X8458946Y-4037498I-171450J0D01*
G01*
X8116046Y-5566047D02*
X8458946Y-5908947D01*
X8458946Y-5566047D02*
X8116046Y-5908947D01*
X8458946Y-5737497D02*
G75*
G03*
X8458946Y-5737497I-171450J0D01*
G01*
X8116046Y-7266046D02*
X8458946Y-7608946D01*
X8458946Y-7266046D02*
X8116046Y-7608946D01*
X8458946Y-7437496D02*
G75*
G03*
X8458946Y-7437496I-171450J0D01*
G01*
X9816045Y-2166049D02*
X10158945Y-2508949D01*
X10158945Y-2166049D02*
X9816045Y-2508949D01*
X10158945Y-2337499D02*
G75*
G03*
X10158945Y-2337499I-171450J0D01*
G01*
X9816045Y-3866048D02*
X10158945Y-4208948D01*
X10158945Y-3866048D02*
X9816045Y-4208948D01*
X10158945Y-4037498D02*
G75*
G03*
X10158945Y-4037498I-171450J0D01*
G01*
X9816045Y-5566047D02*
X10158945Y-5908947D01*
X10158945Y-5566047D02*
X9816045Y-5908947D01*
X10158945Y-5737497D02*
G75*
G03*
X10158945Y-5737497I-171450J0D01*
G01*
X9816045Y-7266046D02*
X10158945Y-7608946D01*
X10158945Y-7266046D02*
X9816045Y-7608946D01*
X10158945Y-7437496D02*
G75*
G03*
X10158945Y-7437496I-171450J0D01*
G01*
X11516044Y-2166049D02*
X11858944Y-2508949D01*
X11858944Y-2166049D02*
X11516044Y-2508949D01*
X11858944Y-2337499D02*
G75*
G03*
X11858944Y-2337499I-171450J0D01*
G01*
X11516044Y-3866048D02*
X11858944Y-4208948D01*
X11858944Y-3866048D02*
X11516044Y-4208948D01*
X11858944Y-4037498D02*
G75*
G03*
X11858944Y-4037498I-171450J0D01*
G01*
X11516044Y-5566047D02*
X11858944Y-5908947D01*
X11858944Y-5566047D02*
X11516044Y-5908947D01*
X11858944Y-5737497D02*
G75*
G03*
X11858944Y-5737497I-171450J0D01*
G01*
X11516044Y-7266046D02*
X11858944Y-7608946D01*
X11858944Y-7266046D02*
X11516044Y-7608946D01*
X11858944Y-7437496D02*
G75*
G03*
X11858944Y-7437496I-171450J0D01*
G01*
X13216044Y-2166049D02*
X13558944Y-2508949D01*
X13558944Y-2166049D02*
X13216044Y-2508949D01*
X13558944Y-2337499D02*
G75*
G03*
X13558944Y-2337499I-171450J0D01*
G01*
X13216044Y-3866048D02*
X13558944Y-4208948D01*
X13558944Y-3866048D02*
X13216044Y-4208948D01*
X13558944Y-4037498D02*
G75*
G03*
X13558944Y-4037498I-171450J0D01*
G01*
X13216044Y-5566047D02*
X13558944Y-5908947D01*
X13558944Y-5566047D02*
X13216044Y-5908947D01*
X13558944Y-5737497D02*
G75*
G03*
X13558944Y-5737497I-171450J0D01*
G01*
X13216044Y-7266046D02*
X13558944Y-7608946D01*
X13558944Y-7266046D02*
X13216044Y-7608946D01*
X13558944Y-7437496D02*
G75*
G03*
X13558944Y-7437496I-171450J0D01*
G01*
X14916043Y-2166049D02*
X15258943Y-2508949D01*
X15258943Y-2166049D02*
X14916043Y-2508949D01*
X15258943Y-2337499D02*
G75*
G03*
X15258943Y-2337499I-171450J0D01*
G01*
X14916043Y-3866048D02*
X15258943Y-4208948D01*
X15258943Y-3866048D02*
X14916043Y-4208948D01*
X15258943Y-4037498D02*
G75*
G03*
X15258943Y-4037498I-171450J0D01*
G01*
X14916043Y-5566047D02*
X15258943Y-5908947D01*
X15258943Y-5566047D02*
X14916043Y-5908947D01*
X15258943Y-5737497D02*
G75*
G03*
X15258943Y-5737497I-171450J0D01*
G01*
X14916043Y-7266046D02*
X15258943Y-7608946D01*
X15258943Y-7266046D02*
X14916043Y-7608946D01*
X15258943Y-7437496D02*
G75*
G03*
X15258943Y-7437496I-171450J0D01*
G01*
X15766042Y-7266046D02*
X16108942Y-7608946D01*
X16108942Y-7266046D02*
X15766042Y-7608946D01*
X16108942Y-7437496D02*
G75*
G03*
X16108942Y-7437496I-171450J0D01*
G01*
X16616042Y-2166049D02*
X16958942Y-2508949D01*
X16958942Y-2166049D02*
X16616042Y-2508949D01*
X16958942Y-2337499D02*
G75*
G03*
X16958942Y-2337499I-171450J0D01*
G01*
X16616042Y-3866048D02*
X16958942Y-4208948D01*
X16958942Y-3866048D02*
X16616042Y-4208948D01*
X16958942Y-4037498D02*
G75*
G03*
X16958942Y-4037498I-171450J0D01*
G01*
X16616042Y-5566047D02*
X16958942Y-5908947D01*
X16958942Y-5566047D02*
X16616042Y-5908947D01*
X16958942Y-5737497D02*
G75*
G03*
X16958942Y-5737497I-171450J0D01*
G01*
X16616042Y-7266046D02*
X16958942Y-7608946D01*
X16958942Y-7266046D02*
X16616042Y-7608946D01*
X16958942Y-7437496D02*
G75*
G03*
X16958942Y-7437496I-171450J0D01*
G01*
X17466042Y-7266046D02*
X17808942Y-7608946D01*
X17808942Y-7266046D02*
X17466042Y-7608946D01*
X17808942Y-7437496D02*
G75*
G03*
X17808942Y-7437496I-171450J0D01*
G01*
X18316041Y-2166049D02*
X18658941Y-2508949D01*
X18658941Y-2166049D02*
X18316041Y-2508949D01*
X18658941Y-2337499D02*
G75*
G03*
X18658941Y-2337499I-171450J0D01*
G01*
X18316041Y-3866048D02*
X18658941Y-4208948D01*
X18658941Y-3866048D02*
X18316041Y-4208948D01*
X18658941Y-4037498D02*
G75*
G03*
X18658941Y-4037498I-171450J0D01*
G01*
X18316041Y-5566047D02*
X18658941Y-5908947D01*
X18658941Y-5566047D02*
X18316041Y-5908947D01*
X18658941Y-5737497D02*
G75*
G03*
X18658941Y-5737497I-171450J0D01*
G01*
X18316041Y-7266046D02*
X18658941Y-7608946D01*
X18658941Y-7266046D02*
X18316041Y-7608946D01*
X18658941Y-7437496D02*
G75*
G03*
X18658941Y-7437496I-171450J0D01*
G01*
X19166041Y-7266046D02*
X19508941Y-7608946D01*
X19508941Y-7266046D02*
X19166041Y-7608946D01*
X19508941Y-7437496D02*
G75*
G03*
X19508941Y-7437496I-171450J0D01*
G01*
X20016041Y-2166049D02*
X20358941Y-2508949D01*
X20358941Y-2166049D02*
X20016041Y-2508949D01*
X20358941Y-2337499D02*
G75*
G03*
X20358941Y-2337499I-171450J0D01*
G01*
X20016041Y-3866048D02*
X20358941Y-4208948D01*
X20358941Y-3866048D02*
X20016041Y-4208948D01*
X20358941Y-4037498D02*
G75*
G03*
X20358941Y-4037498I-171450J0D01*
G01*
X20016041Y-5566047D02*
X20358941Y-5908947D01*
X20358941Y-5566047D02*
X20016041Y-5908947D01*
X20358941Y-5737497D02*
G75*
G03*
X20358941Y-5737497I-171450J0D01*
G01*
X20016041Y-7266046D02*
X20358941Y-7608946D01*
X20358941Y-7266046D02*
X20016041Y-7608946D01*
X20358941Y-7437496D02*
G75*
G03*
X20358941Y-7437496I-171450J0D01*
G01*
X21716040Y-2166049D02*
X22058940Y-2508949D01*
X22058940Y-2166049D02*
X21716040Y-2508949D01*
X22058940Y-2337499D02*
G75*
G03*
X22058940Y-2337499I-171450J0D01*
G01*
X21716040Y-3866048D02*
X22058940Y-4208948D01*
X22058940Y-3866048D02*
X21716040Y-4208948D01*
X22058940Y-4037498D02*
G75*
G03*
X22058940Y-4037498I-171450J0D01*
G01*
X21716040Y-5566047D02*
X22058940Y-5908947D01*
X22058940Y-5566047D02*
X21716040Y-5908947D01*
X22058940Y-5737497D02*
G75*
G03*
X22058940Y-5737497I-171450J0D01*
G01*
X21716040Y-7266046D02*
X22058940Y-7608946D01*
X22058940Y-7266046D02*
X21716040Y-7608946D01*
X22058940Y-7437496D02*
G75*
G03*
X22058940Y-7437496I-171450J0D01*
G01*
X23416039Y-2166049D02*
X23758939Y-2508949D01*
X23758939Y-2166049D02*
X23416039Y-2508949D01*
X23758939Y-2337499D02*
G75*
G03*
X23758939Y-2337499I-171450J0D01*
G01*
X23416039Y-3866048D02*
X23758939Y-4208948D01*
X23758939Y-3866048D02*
X23416039Y-4208948D01*
X23758939Y-4037498D02*
G75*
G03*
X23758939Y-4037498I-171450J0D01*
G01*
X23416039Y-5566047D02*
X23758939Y-5908947D01*
X23758939Y-5566047D02*
X23416039Y-5908947D01*
X23758939Y-5737497D02*
G75*
G03*
X23758939Y-5737497I-171450J0D01*
G01*
X23416039Y-7266046D02*
X23758939Y-7608946D01*
X23758939Y-7266046D02*
X23416039Y-7608946D01*
X23758939Y-7437496D02*
G75*
G03*
X23758939Y-7437496I-171450J0D01*
G01*
X25116038Y-2166049D02*
X25458938Y-2508949D01*
X25458938Y-2166049D02*
X25116038Y-2508949D01*
X25458938Y-2337499D02*
G75*
G03*
X25458938Y-2337499I-171450J0D01*
G01*
X25116038Y-3866048D02*
X25458938Y-4208948D01*
X25458938Y-3866048D02*
X25116038Y-4208948D01*
X25458938Y-4037498D02*
G75*
G03*
X25458938Y-4037498I-171450J0D01*
G01*
X25116038Y-5566047D02*
X25458938Y-5908947D01*
X25458938Y-5566047D02*
X25116038Y-5908947D01*
X25458938Y-5737497D02*
G75*
G03*
X25458938Y-5737497I-171450J0D01*
G01*
X25116038Y-7266046D02*
X25458938Y-7608946D01*
X25458938Y-7266046D02*
X25116038Y-7608946D01*
X25458938Y-7437496D02*
G75*
G03*
X25458938Y-7437496I-171450J0D01*
G01*
X26816037Y-2166049D02*
X27158937Y-2508949D01*
X27158937Y-2166049D02*
X26816037Y-2508949D01*
X27158937Y-2337499D02*
G75*
G03*
X27158937Y-2337499I-171450J0D01*
G01*
X26816037Y-3866048D02*
X27158937Y-4208948D01*
X27158937Y-3866048D02*
X26816037Y-4208948D01*
X27158937Y-4037498D02*
G75*
G03*
X27158937Y-4037498I-171450J0D01*
G01*
X26816037Y-5566047D02*
X27158937Y-5908947D01*
X27158937Y-5566047D02*
X26816037Y-5908947D01*
X27158937Y-5737497D02*
G75*
G03*
X27158937Y-5737497I-171450J0D01*
G01*
X26816037Y-7266046D02*
X27158937Y-7608946D01*
X27158937Y-7266046D02*
X26816037Y-7608946D01*
X27158937Y-7437496D02*
G75*
G03*
X27158937Y-7437496I-171450J0D01*
G01*
D11*
X7690115Y-8602972D02*
X7690115Y-8402972D01*
X7737734Y-8402972D01*
X7766306Y-8412496D01*
X7785354Y-8431544D01*
X7794877Y-8450591D01*
X7804401Y-8488687D01*
X7804401Y-8517258D01*
X7794877Y-8555353D01*
X7785354Y-8574401D01*
X7766306Y-8593448D01*
X7737734Y-8602972D01*
X7690115Y-8602972D01*
X7890115Y-8602972D02*
X7890115Y-8469639D01*
X7890115Y-8507734D02*
X7899639Y-8488687D01*
X7909163Y-8479163D01*
X7928211Y-8469639D01*
X7947258Y-8469639D01*
X8013925Y-8602972D02*
X8013925Y-8469639D01*
X8013925Y-8402972D02*
X8004401Y-8412496D01*
X8013925Y-8422020D01*
X8023449Y-8412496D01*
X8013925Y-8402972D01*
X8013925Y-8422020D01*
X8137734Y-8602972D02*
X8118687Y-8593448D01*
X8109163Y-8574401D01*
X8109163Y-8402972D01*
X8242496Y-8602972D02*
X8223449Y-8593448D01*
X8213925Y-8574401D01*
X8213925Y-8402972D01*
X8471068Y-8602972D02*
X8471068Y-8402972D01*
X8537735Y-8545829D01*
X8604401Y-8402972D01*
X8604401Y-8602972D01*
X8785354Y-8602972D02*
X8785354Y-8498210D01*
X8775830Y-8479163D01*
X8756782Y-8469639D01*
X8718687Y-8469639D01*
X8699639Y-8479163D01*
X8785354Y-8593448D02*
X8766306Y-8602972D01*
X8718687Y-8602972D01*
X8699639Y-8593448D01*
X8690116Y-8574401D01*
X8690116Y-8555353D01*
X8699639Y-8536306D01*
X8718687Y-8526782D01*
X8766306Y-8526782D01*
X8785354Y-8517258D01*
X8880592Y-8469639D02*
X8880592Y-8669639D01*
X8880592Y-8479163D02*
X8899639Y-8469639D01*
X8937735Y-8469639D01*
X8956782Y-8479163D01*
X8966306Y-8488687D01*
X8975830Y-8507734D01*
X8975830Y-8564877D01*
X8966306Y-8583925D01*
X8956782Y-8593448D01*
X8937735Y-8602972D01*
X8899639Y-8602972D01*
X8880592Y-8593448D01*
X9061544Y-8583925D02*
X9071068Y-8593448D01*
X9061544Y-8602972D01*
X9052020Y-8593448D01*
X9061544Y-8583925D01*
X9061544Y-8602972D01*
X9061544Y-8479163D02*
X9071068Y-8488687D01*
X9061544Y-8498210D01*
X9052020Y-8488687D01*
X9061544Y-8479163D01*
X9061544Y-8498210D01*
D12*
X7367496Y-8899996D02*
X7432496Y-8964996D01*
X7432496Y-8899996D02*
X7367496Y-8964996D01*
D11*
X7728211Y-8822972D02*
X7747258Y-8822972D01*
X7766306Y-8832496D01*
X7775830Y-8842020D01*
X7785354Y-8861068D01*
X7794877Y-8899163D01*
X7794877Y-8946782D01*
X7785354Y-8984877D01*
X7775830Y-9003925D01*
X7766306Y-9013448D01*
X7747258Y-9022972D01*
X7728211Y-9022972D01*
X7709163Y-9013448D01*
X7699639Y-9003925D01*
X7690115Y-8984877D01*
X7680592Y-8946782D01*
X7680592Y-8899163D01*
X7690115Y-8861068D01*
X7699639Y-8842020D01*
X7709163Y-8832496D01*
X7728211Y-8822972D01*
X7880592Y-9003925D02*
X7890115Y-9013448D01*
X7880592Y-9022972D01*
X7871068Y-9013448D01*
X7880592Y-9003925D01*
X7880592Y-9022972D01*
X8061544Y-8822972D02*
X8023449Y-8822972D01*
X8004401Y-8832496D01*
X7994877Y-8842020D01*
X7975830Y-8870591D01*
X7966306Y-8908687D01*
X7966306Y-8984877D01*
X7975830Y-9003925D01*
X7985354Y-9013448D01*
X8004401Y-9022972D01*
X8042496Y-9022972D01*
X8061544Y-9013448D01*
X8071068Y-9003925D01*
X8080592Y-8984877D01*
X8080592Y-8937258D01*
X8071068Y-8918210D01*
X8061544Y-8908687D01*
X8042496Y-8899163D01*
X8004401Y-8899163D01*
X7985354Y-8908687D01*
X7975830Y-8918210D01*
X7966306Y-8937258D01*
X8261544Y-8822972D02*
X8166306Y-8822972D01*
X8156782Y-8918210D01*
X8166306Y-8908687D01*
X8185354Y-8899163D01*
X8232973Y-8899163D01*
X8252020Y-8908687D01*
X8261544Y-8918210D01*
X8271068Y-8937258D01*
X8271068Y-8984877D01*
X8261544Y-9003925D01*
X8252020Y-9013448D01*
X8232973Y-9022972D01*
X8185354Y-9022972D01*
X8166306Y-9013448D01*
X8156782Y-9003925D01*
X8394877Y-8822972D02*
X8413925Y-8822972D01*
X8432973Y-8832496D01*
X8442497Y-8842020D01*
X8452020Y-8861068D01*
X8461544Y-8899163D01*
X8461544Y-8946782D01*
X8452020Y-8984877D01*
X8442497Y-9003925D01*
X8432973Y-9013448D01*
X8413925Y-9022972D01*
X8394877Y-9022972D01*
X8375830Y-9013448D01*
X8366306Y-9003925D01*
X8356782Y-8984877D01*
X8347258Y-8946782D01*
X8347258Y-8899163D01*
X8356782Y-8861068D01*
X8366306Y-8842020D01*
X8375830Y-8832496D01*
X8394877Y-8822972D01*
X8547258Y-9022972D02*
X8547258Y-8889639D01*
X8547258Y-8908687D02*
X8556782Y-8899163D01*
X8575830Y-8889639D01*
X8604401Y-8889639D01*
X8623449Y-8899163D01*
X8632973Y-8918210D01*
X8632973Y-9022972D01*
X8632973Y-8918210D02*
X8642497Y-8899163D01*
X8661544Y-8889639D01*
X8690116Y-8889639D01*
X8709163Y-8899163D01*
X8718687Y-8918210D01*
X8718687Y-9022972D01*
X8813925Y-9022972D02*
X8813925Y-8889639D01*
X8813925Y-8908687D02*
X8823449Y-8899163D01*
X8842497Y-8889639D01*
X8871068Y-8889639D01*
X8890116Y-8899163D01*
X8899639Y-8918210D01*
X8899639Y-9022972D01*
X8899639Y-8918210D02*
X8909163Y-8899163D01*
X8928211Y-8889639D01*
X8956782Y-8889639D01*
X8975830Y-8899163D01*
X8985354Y-8918210D01*
X8985354Y-9022972D01*
X9375830Y-8813448D02*
X9204401Y-9070591D01*
X9632973Y-8822972D02*
X9652020Y-8822972D01*
X9671068Y-8832496D01*
X9680592Y-8842020D01*
X9690116Y-8861068D01*
X9699639Y-8899163D01*
X9699639Y-8946782D01*
X9690116Y-8984877D01*
X9680592Y-9003925D01*
X9671068Y-9013448D01*
X9652020Y-9022972D01*
X9632973Y-9022972D01*
X9613925Y-9013448D01*
X9604401Y-9003925D01*
X9594877Y-8984877D01*
X9585354Y-8946782D01*
X9585354Y-8899163D01*
X9594877Y-8861068D01*
X9604401Y-8842020D01*
X9613925Y-8832496D01*
X9632973Y-8822972D01*
X9785354Y-9003925D02*
X9794877Y-9013448D01*
X9785354Y-9022972D01*
X9775830Y-9013448D01*
X9785354Y-9003925D01*
X9785354Y-9022972D01*
X9918687Y-8822972D02*
X9937735Y-8822972D01*
X9956782Y-8832496D01*
X9966306Y-8842020D01*
X9975830Y-8861068D01*
X9985354Y-8899163D01*
X9985354Y-8946782D01*
X9975830Y-8984877D01*
X9966306Y-9003925D01*
X9956782Y-9013448D01*
X9937735Y-9022972D01*
X9918687Y-9022972D01*
X9899639Y-9013448D01*
X9890116Y-9003925D01*
X9880592Y-8984877D01*
X9871068Y-8946782D01*
X9871068Y-8899163D01*
X9880592Y-8861068D01*
X9890116Y-8842020D01*
X9899639Y-8832496D01*
X9918687Y-8822972D01*
X10061544Y-8842020D02*
X10071068Y-8832496D01*
X10090116Y-8822972D01*
X10137735Y-8822972D01*
X10156782Y-8832496D01*
X10166306Y-8842020D01*
X10175830Y-8861068D01*
X10175830Y-8880115D01*
X10166306Y-8908687D01*
X10052020Y-9022972D01*
X10175830Y-9022972D01*
X10356782Y-8822972D02*
X10261544Y-8822972D01*
X10252020Y-8918210D01*
X10261544Y-8908687D01*
X10280592Y-8899163D01*
X10328211Y-8899163D01*
X10347258Y-8908687D01*
X10356782Y-8918210D01*
X10366306Y-8937258D01*
X10366306Y-8984877D01*
X10356782Y-9003925D01*
X10347258Y-9013448D01*
X10328211Y-9022972D01*
X10280592Y-9022972D01*
X10261544Y-9013448D01*
X10252020Y-9003925D01*
X10537735Y-8822972D02*
X10499639Y-8822972D01*
X10480592Y-8832496D01*
X10471068Y-8842020D01*
X10452020Y-8870591D01*
X10442496Y-8908687D01*
X10442496Y-8984877D01*
X10452020Y-9003925D01*
X10461544Y-9013448D01*
X10480592Y-9022972D01*
X10518687Y-9022972D01*
X10537735Y-9013448D01*
X10547258Y-9003925D01*
X10556782Y-8984877D01*
X10556782Y-8937258D01*
X10547258Y-8918210D01*
X10537735Y-8908687D01*
X10518687Y-8899163D01*
X10480592Y-8899163D01*
X10461544Y-8908687D01*
X10452020Y-8918210D01*
X10442496Y-8937258D01*
X10632973Y-8822972D02*
X10632973Y-8861068D01*
X10709163Y-8822972D02*
X10709163Y-8861068D01*
X11004401Y-9099163D02*
X10994877Y-9089639D01*
X10975830Y-9061068D01*
X10966306Y-9042020D01*
X10956782Y-9013448D01*
X10947258Y-8965829D01*
X10947258Y-8927734D01*
X10956782Y-8880115D01*
X10966306Y-8851544D01*
X10975830Y-8832496D01*
X10994877Y-8803925D01*
X11004401Y-8794401D01*
X11071068Y-8842020D02*
X11080592Y-8832496D01*
X11099639Y-8822972D01*
X11147258Y-8822972D01*
X11166306Y-8832496D01*
X11175830Y-8842020D01*
X11185354Y-8861068D01*
X11185354Y-8880115D01*
X11175830Y-8908687D01*
X11061544Y-9022972D01*
X11185354Y-9022972D01*
X11423449Y-9022972D02*
X11423449Y-8822972D01*
X11509163Y-9022972D02*
X11509163Y-8918210D01*
X11499639Y-8899163D01*
X11480592Y-8889639D01*
X11452020Y-8889639D01*
X11432973Y-8899163D01*
X11423449Y-8908687D01*
X11632973Y-9022972D02*
X11613925Y-9013448D01*
X11604401Y-9003925D01*
X11594877Y-8984877D01*
X11594877Y-8927734D01*
X11604401Y-8908687D01*
X11613925Y-8899163D01*
X11632973Y-8889639D01*
X11661544Y-8889639D01*
X11680592Y-8899163D01*
X11690115Y-8908687D01*
X11699639Y-8927734D01*
X11699639Y-8984877D01*
X11690115Y-9003925D01*
X11680592Y-9013448D01*
X11661544Y-9022972D01*
X11632973Y-9022972D01*
X11813925Y-9022972D02*
X11794877Y-9013448D01*
X11785354Y-8994401D01*
X11785354Y-8822972D01*
X11966306Y-9013448D02*
X11947258Y-9022972D01*
X11909163Y-9022972D01*
X11890115Y-9013448D01*
X11880592Y-8994401D01*
X11880592Y-8918210D01*
X11890115Y-8899163D01*
X11909163Y-8889639D01*
X11947258Y-8889639D01*
X11966306Y-8899163D01*
X11975830Y-8918210D01*
X11975830Y-8937258D01*
X11880592Y-8956306D01*
X12052020Y-9013448D02*
X12071068Y-9022972D01*
X12109163Y-9022972D01*
X12128211Y-9013448D01*
X12137734Y-8994401D01*
X12137734Y-8984877D01*
X12128211Y-8965829D01*
X12109163Y-8956306D01*
X12080592Y-8956306D01*
X12061544Y-8946782D01*
X12052020Y-8927734D01*
X12052020Y-8918210D01*
X12061544Y-8899163D01*
X12080592Y-8889639D01*
X12109163Y-8889639D01*
X12128211Y-8899163D01*
X12204401Y-9099163D02*
X12213925Y-9089639D01*
X12232973Y-9061068D01*
X12242496Y-9042020D01*
X12252020Y-9013448D01*
X12261544Y-8965829D01*
X12261544Y-8927734D01*
X12252020Y-8880115D01*
X12242496Y-8851544D01*
X12232973Y-8832496D01*
X12213925Y-8803925D01*
X12204401Y-8794401D01*
X12566306Y-9099163D02*
X12556782Y-9089639D01*
X12537734Y-9061068D01*
X12528211Y-9042020D01*
X12518687Y-9013448D01*
X12509163Y-8965829D01*
X12509163Y-8927734D01*
X12518687Y-8880115D01*
X12528211Y-8851544D01*
X12537734Y-8832496D01*
X12556782Y-8803925D01*
X12566306Y-8794401D01*
X12642496Y-8889639D02*
X12642496Y-9022972D01*
X12642496Y-8908687D02*
X12652020Y-8899163D01*
X12671068Y-8889639D01*
X12699639Y-8889639D01*
X12718687Y-8899163D01*
X12728211Y-8918210D01*
X12728211Y-9022972D01*
X12852020Y-9022972D02*
X12832973Y-9013448D01*
X12823449Y-9003925D01*
X12813925Y-8984877D01*
X12813925Y-8927734D01*
X12823449Y-8908687D01*
X12832973Y-8899163D01*
X12852020Y-8889639D01*
X12880592Y-8889639D01*
X12899639Y-8899163D01*
X12909163Y-8908687D01*
X12918687Y-8927734D01*
X12918687Y-8984877D01*
X12909163Y-9003925D01*
X12899639Y-9013448D01*
X12880592Y-9022972D01*
X12852020Y-9022972D01*
X12975830Y-8889639D02*
X13052020Y-8889639D01*
X13004401Y-8822972D02*
X13004401Y-8994401D01*
X13013925Y-9013448D01*
X13032973Y-9022972D01*
X13052020Y-9022972D01*
X13271068Y-8889639D02*
X13271068Y-9089639D01*
X13271068Y-8899163D02*
X13290115Y-8889639D01*
X13328211Y-8889639D01*
X13347258Y-8899163D01*
X13356782Y-8908687D01*
X13366306Y-8927734D01*
X13366306Y-8984877D01*
X13356782Y-9003925D01*
X13347258Y-9013448D01*
X13328211Y-9022972D01*
X13290115Y-9022972D01*
X13271068Y-9013448D01*
X13480592Y-9022972D02*
X13461544Y-9013448D01*
X13452020Y-8994401D01*
X13452020Y-8822972D01*
X13642496Y-9022972D02*
X13642496Y-8918210D01*
X13632973Y-8899163D01*
X13613925Y-8889639D01*
X13575830Y-8889639D01*
X13556782Y-8899163D01*
X13642496Y-9013448D02*
X13623449Y-9022972D01*
X13575830Y-9022972D01*
X13556782Y-9013448D01*
X13547258Y-8994401D01*
X13547258Y-8975353D01*
X13556782Y-8956306D01*
X13575830Y-8946782D01*
X13623449Y-8946782D01*
X13642496Y-8937258D01*
X13709163Y-8889639D02*
X13785354Y-8889639D01*
X13737734Y-8822972D02*
X13737734Y-8994401D01*
X13747258Y-9013448D01*
X13766306Y-9022972D01*
X13785354Y-9022972D01*
X13928211Y-9013448D02*
X13909163Y-9022972D01*
X13871068Y-9022972D01*
X13852020Y-9013448D01*
X13842496Y-8994401D01*
X13842496Y-8918210D01*
X13852020Y-8899163D01*
X13871068Y-8889639D01*
X13909163Y-8889639D01*
X13928211Y-8899163D01*
X13937734Y-8918210D01*
X13937734Y-8937258D01*
X13842496Y-8956306D01*
X14109163Y-9022972D02*
X14109163Y-8822972D01*
X14109163Y-9013448D02*
X14090115Y-9022972D01*
X14052020Y-9022972D01*
X14032973Y-9013448D01*
X14023449Y-9003925D01*
X14013925Y-8984877D01*
X14013925Y-8927734D01*
X14023449Y-8908687D01*
X14032973Y-8899163D01*
X14052020Y-8889639D01*
X14090115Y-8889639D01*
X14109163Y-8899163D01*
X14185354Y-9099163D02*
X14194877Y-9089639D01*
X14213925Y-9061068D01*
X14223449Y-9042020D01*
X14232973Y-9013448D01*
X14242496Y-8965829D01*
X14242496Y-8927734D01*
X14232973Y-8880115D01*
X14223449Y-8851544D01*
X14213925Y-8832496D01*
X14194877Y-8803925D01*
X14185354Y-8794401D01*
D13*
X7432496Y-9196496D02*
G75*
G03*
X7432496Y-9196496I-49530J0D01*
G01*
D11*
X7728211Y-9086972D02*
X7747258Y-9086972D01*
X7766306Y-9096496D01*
X7775830Y-9106020D01*
X7785354Y-9125068D01*
X7794877Y-9163163D01*
X7794877Y-9210782D01*
X7785354Y-9248877D01*
X7775830Y-9267925D01*
X7766306Y-9277448D01*
X7747258Y-9286972D01*
X7728211Y-9286972D01*
X7709163Y-9277448D01*
X7699639Y-9267925D01*
X7690115Y-9248877D01*
X7680592Y-9210782D01*
X7680592Y-9163163D01*
X7690115Y-9125068D01*
X7699639Y-9106020D01*
X7709163Y-9096496D01*
X7728211Y-9086972D01*
X7880592Y-9267925D02*
X7890115Y-9277448D01*
X7880592Y-9286972D01*
X7871068Y-9277448D01*
X7880592Y-9267925D01*
X7880592Y-9286972D01*
X7985354Y-9286972D02*
X8023449Y-9286972D01*
X8042496Y-9277448D01*
X8052020Y-9267925D01*
X8071068Y-9239353D01*
X8080592Y-9201258D01*
X8080592Y-9125068D01*
X8071068Y-9106020D01*
X8061544Y-9096496D01*
X8042496Y-9086972D01*
X8004401Y-9086972D01*
X7985354Y-9096496D01*
X7975830Y-9106020D01*
X7966306Y-9125068D01*
X7966306Y-9172687D01*
X7975830Y-9191734D01*
X7985354Y-9201258D01*
X8004401Y-9210782D01*
X8042496Y-9210782D01*
X8061544Y-9201258D01*
X8071068Y-9191734D01*
X8080592Y-9172687D01*
X8175830Y-9286972D02*
X8213925Y-9286972D01*
X8232973Y-9277448D01*
X8242496Y-9267925D01*
X8261544Y-9239353D01*
X8271068Y-9201258D01*
X8271068Y-9125068D01*
X8261544Y-9106020D01*
X8252020Y-9096496D01*
X8232973Y-9086972D01*
X8194877Y-9086972D01*
X8175830Y-9096496D01*
X8166306Y-9106020D01*
X8156782Y-9125068D01*
X8156782Y-9172687D01*
X8166306Y-9191734D01*
X8175830Y-9201258D01*
X8194877Y-9210782D01*
X8232973Y-9210782D01*
X8252020Y-9201258D01*
X8261544Y-9191734D01*
X8271068Y-9172687D01*
X8461544Y-9286972D02*
X8347258Y-9286972D01*
X8404401Y-9286972D02*
X8404401Y-9086972D01*
X8385354Y-9115544D01*
X8366306Y-9134591D01*
X8347258Y-9144115D01*
X8547258Y-9286972D02*
X8547258Y-9153639D01*
X8547258Y-9172687D02*
X8556782Y-9163163D01*
X8575830Y-9153639D01*
X8604401Y-9153639D01*
X8623449Y-9163163D01*
X8632973Y-9182210D01*
X8632973Y-9286972D01*
X8632973Y-9182210D02*
X8642497Y-9163163D01*
X8661544Y-9153639D01*
X8690116Y-9153639D01*
X8709163Y-9163163D01*
X8718687Y-9182210D01*
X8718687Y-9286972D01*
X8813925Y-9286972D02*
X8813925Y-9153639D01*
X8813925Y-9172687D02*
X8823449Y-9163163D01*
X8842497Y-9153639D01*
X8871068Y-9153639D01*
X8890116Y-9163163D01*
X8899639Y-9182210D01*
X8899639Y-9286972D01*
X8899639Y-9182210D02*
X8909163Y-9163163D01*
X8928211Y-9153639D01*
X8956782Y-9153639D01*
X8975830Y-9163163D01*
X8985354Y-9182210D01*
X8985354Y-9286972D01*
X9375830Y-9077448D02*
X9204401Y-9334591D01*
X9632973Y-9086972D02*
X9652020Y-9086972D01*
X9671068Y-9096496D01*
X9680592Y-9106020D01*
X9690116Y-9125068D01*
X9699639Y-9163163D01*
X9699639Y-9210782D01*
X9690116Y-9248877D01*
X9680592Y-9267925D01*
X9671068Y-9277448D01*
X9652020Y-9286972D01*
X9632973Y-9286972D01*
X9613925Y-9277448D01*
X9604401Y-9267925D01*
X9594877Y-9248877D01*
X9585354Y-9210782D01*
X9585354Y-9163163D01*
X9594877Y-9125068D01*
X9604401Y-9106020D01*
X9613925Y-9096496D01*
X9632973Y-9086972D01*
X9785354Y-9267925D02*
X9794877Y-9277448D01*
X9785354Y-9286972D01*
X9775830Y-9277448D01*
X9785354Y-9267925D01*
X9785354Y-9286972D01*
X9918687Y-9086972D02*
X9937735Y-9086972D01*
X9956782Y-9096496D01*
X9966306Y-9106020D01*
X9975830Y-9125068D01*
X9985354Y-9163163D01*
X9985354Y-9210782D01*
X9975830Y-9248877D01*
X9966306Y-9267925D01*
X9956782Y-9277448D01*
X9937735Y-9286972D01*
X9918687Y-9286972D01*
X9899639Y-9277448D01*
X9890116Y-9267925D01*
X9880592Y-9248877D01*
X9871068Y-9210782D01*
X9871068Y-9163163D01*
X9880592Y-9125068D01*
X9890116Y-9106020D01*
X9899639Y-9096496D01*
X9918687Y-9086972D01*
X10052020Y-9086972D02*
X10175830Y-9086972D01*
X10109163Y-9163163D01*
X10137735Y-9163163D01*
X10156782Y-9172687D01*
X10166306Y-9182210D01*
X10175830Y-9201258D01*
X10175830Y-9248877D01*
X10166306Y-9267925D01*
X10156782Y-9277448D01*
X10137735Y-9286972D01*
X10080592Y-9286972D01*
X10061544Y-9277448D01*
X10052020Y-9267925D01*
X10271068Y-9286972D02*
X10309163Y-9286972D01*
X10328211Y-9277448D01*
X10337735Y-9267925D01*
X10356782Y-9239353D01*
X10366306Y-9201258D01*
X10366306Y-9125068D01*
X10356782Y-9106020D01*
X10347258Y-9096496D01*
X10328211Y-9086972D01*
X10290116Y-9086972D01*
X10271068Y-9096496D01*
X10261544Y-9106020D01*
X10252020Y-9125068D01*
X10252020Y-9172687D01*
X10261544Y-9191734D01*
X10271068Y-9201258D01*
X10290116Y-9210782D01*
X10328211Y-9210782D01*
X10347258Y-9201258D01*
X10356782Y-9191734D01*
X10366306Y-9172687D01*
X10490116Y-9086972D02*
X10509163Y-9086972D01*
X10528211Y-9096496D01*
X10537735Y-9106020D01*
X10547258Y-9125068D01*
X10556782Y-9163163D01*
X10556782Y-9210782D01*
X10547258Y-9248877D01*
X10537735Y-9267925D01*
X10528211Y-9277448D01*
X10509163Y-9286972D01*
X10490116Y-9286972D01*
X10471068Y-9277448D01*
X10461544Y-9267925D01*
X10452020Y-9248877D01*
X10442496Y-9210782D01*
X10442496Y-9163163D01*
X10452020Y-9125068D01*
X10461544Y-9106020D01*
X10471068Y-9096496D01*
X10490116Y-9086972D01*
X10632973Y-9086972D02*
X10632973Y-9125068D01*
X10709163Y-9086972D02*
X10709163Y-9125068D01*
X11004401Y-9363163D02*
X10994877Y-9353639D01*
X10975830Y-9325068D01*
X10966306Y-9306020D01*
X10956782Y-9277448D01*
X10947258Y-9229829D01*
X10947258Y-9191734D01*
X10956782Y-9144115D01*
X10966306Y-9115544D01*
X10975830Y-9096496D01*
X10994877Y-9067925D01*
X11004401Y-9058401D01*
X11175830Y-9086972D02*
X11080592Y-9086972D01*
X11071068Y-9182210D01*
X11080592Y-9172687D01*
X11099639Y-9163163D01*
X11147258Y-9163163D01*
X11166306Y-9172687D01*
X11175830Y-9182210D01*
X11185354Y-9201258D01*
X11185354Y-9248877D01*
X11175830Y-9267925D01*
X11166306Y-9277448D01*
X11147258Y-9286972D01*
X11099639Y-9286972D01*
X11080592Y-9277448D01*
X11071068Y-9267925D01*
X11375830Y-9286972D02*
X11261544Y-9286972D01*
X11318687Y-9286972D02*
X11318687Y-9086972D01*
X11299639Y-9115544D01*
X11280592Y-9134591D01*
X11261544Y-9144115D01*
X11613925Y-9286972D02*
X11613925Y-9086972D01*
X11699639Y-9286972D02*
X11699639Y-9182210D01*
X11690115Y-9163163D01*
X11671068Y-9153639D01*
X11642496Y-9153639D01*
X11623449Y-9163163D01*
X11613925Y-9172687D01*
X11823449Y-9286972D02*
X11804401Y-9277448D01*
X11794877Y-9267925D01*
X11785354Y-9248877D01*
X11785354Y-9191734D01*
X11794877Y-9172687D01*
X11804401Y-9163163D01*
X11823449Y-9153639D01*
X11852020Y-9153639D01*
X11871068Y-9163163D01*
X11880592Y-9172687D01*
X11890115Y-9191734D01*
X11890115Y-9248877D01*
X11880592Y-9267925D01*
X11871068Y-9277448D01*
X11852020Y-9286972D01*
X11823449Y-9286972D01*
X12004401Y-9286972D02*
X11985354Y-9277448D01*
X11975830Y-9258401D01*
X11975830Y-9086972D01*
X12156782Y-9277448D02*
X12137734Y-9286972D01*
X12099639Y-9286972D01*
X12080592Y-9277448D01*
X12071068Y-9258401D01*
X12071068Y-9182210D01*
X12080592Y-9163163D01*
X12099639Y-9153639D01*
X12137734Y-9153639D01*
X12156782Y-9163163D01*
X12166306Y-9182210D01*
X12166306Y-9201258D01*
X12071068Y-9220306D01*
X12242496Y-9277448D02*
X12261544Y-9286972D01*
X12299639Y-9286972D01*
X12318687Y-9277448D01*
X12328211Y-9258401D01*
X12328211Y-9248877D01*
X12318687Y-9229829D01*
X12299639Y-9220306D01*
X12271068Y-9220306D01*
X12252020Y-9210782D01*
X12242496Y-9191734D01*
X12242496Y-9182210D01*
X12252020Y-9163163D01*
X12271068Y-9153639D01*
X12299639Y-9153639D01*
X12318687Y-9163163D01*
X12394877Y-9363163D02*
X12404401Y-9353639D01*
X12423449Y-9325068D01*
X12432973Y-9306020D01*
X12442496Y-9277448D01*
X12452020Y-9229829D01*
X12452020Y-9191734D01*
X12442496Y-9144115D01*
X12432973Y-9115544D01*
X12423449Y-9096496D01*
X12404401Y-9067925D01*
X12394877Y-9058401D01*
X12756782Y-9363163D02*
X12747258Y-9353639D01*
X12728211Y-9325068D01*
X12718687Y-9306020D01*
X12709163Y-9277448D01*
X12699639Y-9229829D01*
X12699639Y-9191734D01*
X12709163Y-9144115D01*
X12718687Y-9115544D01*
X12728211Y-9096496D01*
X12747258Y-9067925D01*
X12756782Y-9058401D01*
X12832973Y-9153639D02*
X12832973Y-9286972D01*
X12832973Y-9172687D02*
X12842496Y-9163163D01*
X12861544Y-9153639D01*
X12890115Y-9153639D01*
X12909163Y-9163163D01*
X12918687Y-9182210D01*
X12918687Y-9286972D01*
X13042496Y-9286972D02*
X13023449Y-9277448D01*
X13013925Y-9267925D01*
X13004401Y-9248877D01*
X13004401Y-9191734D01*
X13013925Y-9172687D01*
X13023449Y-9163163D01*
X13042496Y-9153639D01*
X13071068Y-9153639D01*
X13090115Y-9163163D01*
X13099639Y-9172687D01*
X13109163Y-9191734D01*
X13109163Y-9248877D01*
X13099639Y-9267925D01*
X13090115Y-9277448D01*
X13071068Y-9286972D01*
X13042496Y-9286972D01*
X13166306Y-9153639D02*
X13242496Y-9153639D01*
X13194877Y-9086972D02*
X13194877Y-9258401D01*
X13204401Y-9277448D01*
X13223449Y-9286972D01*
X13242496Y-9286972D01*
X13461544Y-9153639D02*
X13461544Y-9353639D01*
X13461544Y-9163163D02*
X13480592Y-9153639D01*
X13518687Y-9153639D01*
X13537734Y-9163163D01*
X13547258Y-9172687D01*
X13556782Y-9191734D01*
X13556782Y-9248877D01*
X13547258Y-9267925D01*
X13537734Y-9277448D01*
X13518687Y-9286972D01*
X13480592Y-9286972D01*
X13461544Y-9277448D01*
X13671068Y-9286972D02*
X13652020Y-9277448D01*
X13642496Y-9258401D01*
X13642496Y-9086972D01*
X13832973Y-9286972D02*
X13832973Y-9182210D01*
X13823449Y-9163163D01*
X13804401Y-9153639D01*
X13766306Y-9153639D01*
X13747258Y-9163163D01*
X13832973Y-9277448D02*
X13813925Y-9286972D01*
X13766306Y-9286972D01*
X13747258Y-9277448D01*
X13737734Y-9258401D01*
X13737734Y-9239353D01*
X13747258Y-9220306D01*
X13766306Y-9210782D01*
X13813925Y-9210782D01*
X13832973Y-9201258D01*
X13899639Y-9153639D02*
X13975830Y-9153639D01*
X13928211Y-9086972D02*
X13928211Y-9258401D01*
X13937734Y-9277448D01*
X13956782Y-9286972D01*
X13975830Y-9286972D01*
X14118687Y-9277448D02*
X14099639Y-9286972D01*
X14061544Y-9286972D01*
X14042496Y-9277448D01*
X14032973Y-9258401D01*
X14032973Y-9182210D01*
X14042496Y-9163163D01*
X14061544Y-9153639D01*
X14099639Y-9153639D01*
X14118687Y-9163163D01*
X14128211Y-9182210D01*
X14128211Y-9201258D01*
X14032973Y-9220306D01*
X14299639Y-9286972D02*
X14299639Y-9086972D01*
X14299639Y-9277448D02*
X14280592Y-9286972D01*
X14242496Y-9286972D01*
X14223449Y-9277448D01*
X14213925Y-9267925D01*
X14204401Y-9248877D01*
X14204401Y-9191734D01*
X14213925Y-9172687D01*
X14223449Y-9163163D01*
X14242496Y-9153639D01*
X14280592Y-9153639D01*
X14299639Y-9163163D01*
X14375830Y-9363163D02*
X14385354Y-9353639D01*
X14404401Y-9325068D01*
X14413925Y-9306020D01*
X14423449Y-9277448D01*
X14432973Y-9229829D01*
X14432973Y-9191734D01*
X14423449Y-9144115D01*
X14413925Y-9115544D01*
X14404401Y-9096496D01*
X14385354Y-9067925D01*
X14375830Y-9058401D01*
D14*
X7347406Y-9375406D02*
X7347406Y-9545586D01*
X7262316Y-9460496D02*
X7432496Y-9460496D01*
D11*
X7794877Y-9550972D02*
X7680592Y-9550972D01*
X7737734Y-9550972D02*
X7737734Y-9350972D01*
X7718687Y-9379544D01*
X7699639Y-9398591D01*
X7680592Y-9408115D01*
X7880592Y-9531925D02*
X7890115Y-9541448D01*
X7880592Y-9550972D01*
X7871068Y-9541448D01*
X7880592Y-9531925D01*
X7880592Y-9550972D01*
X7956782Y-9350972D02*
X8090115Y-9350972D01*
X8004401Y-9550972D01*
X8204401Y-9350972D02*
X8223449Y-9350972D01*
X8242496Y-9360496D01*
X8252020Y-9370020D01*
X8261544Y-9389068D01*
X8271068Y-9427163D01*
X8271068Y-9474782D01*
X8261544Y-9512877D01*
X8252020Y-9531925D01*
X8242496Y-9541448D01*
X8223449Y-9550972D01*
X8204401Y-9550972D01*
X8185354Y-9541448D01*
X8175830Y-9531925D01*
X8166306Y-9512877D01*
X8156782Y-9474782D01*
X8156782Y-9427163D01*
X8166306Y-9389068D01*
X8175830Y-9370020D01*
X8185354Y-9360496D01*
X8204401Y-9350972D01*
X8347258Y-9370020D02*
X8356782Y-9360496D01*
X8375830Y-9350972D01*
X8423449Y-9350972D01*
X8442497Y-9360496D01*
X8452020Y-9370020D01*
X8461544Y-9389068D01*
X8461544Y-9408115D01*
X8452020Y-9436687D01*
X8337734Y-9550972D01*
X8461544Y-9550972D01*
X8547258Y-9550972D02*
X8547258Y-9417639D01*
X8547258Y-9436687D02*
X8556782Y-9427163D01*
X8575830Y-9417639D01*
X8604401Y-9417639D01*
X8623449Y-9427163D01*
X8632973Y-9446210D01*
X8632973Y-9550972D01*
X8632973Y-9446210D02*
X8642497Y-9427163D01*
X8661544Y-9417639D01*
X8690116Y-9417639D01*
X8709163Y-9427163D01*
X8718687Y-9446210D01*
X8718687Y-9550972D01*
X8813925Y-9550972D02*
X8813925Y-9417639D01*
X8813925Y-9436687D02*
X8823449Y-9427163D01*
X8842497Y-9417639D01*
X8871068Y-9417639D01*
X8890116Y-9427163D01*
X8899639Y-9446210D01*
X8899639Y-9550972D01*
X8899639Y-9446210D02*
X8909163Y-9427163D01*
X8928211Y-9417639D01*
X8956782Y-9417639D01*
X8975830Y-9427163D01*
X8985354Y-9446210D01*
X8985354Y-9550972D01*
X9375830Y-9341448D02*
X9204401Y-9598591D01*
X9632973Y-9350972D02*
X9652020Y-9350972D01*
X9671068Y-9360496D01*
X9680592Y-9370020D01*
X9690116Y-9389068D01*
X9699639Y-9427163D01*
X9699639Y-9474782D01*
X9690116Y-9512877D01*
X9680592Y-9531925D01*
X9671068Y-9541448D01*
X9652020Y-9550972D01*
X9632973Y-9550972D01*
X9613925Y-9541448D01*
X9604401Y-9531925D01*
X9594877Y-9512877D01*
X9585354Y-9474782D01*
X9585354Y-9427163D01*
X9594877Y-9389068D01*
X9604401Y-9370020D01*
X9613925Y-9360496D01*
X9632973Y-9350972D01*
X9785354Y-9531925D02*
X9794877Y-9541448D01*
X9785354Y-9550972D01*
X9775830Y-9541448D01*
X9785354Y-9531925D01*
X9785354Y-9550972D01*
X9918687Y-9350972D02*
X9937735Y-9350972D01*
X9956782Y-9360496D01*
X9966306Y-9370020D01*
X9975830Y-9389068D01*
X9985354Y-9427163D01*
X9985354Y-9474782D01*
X9975830Y-9512877D01*
X9966306Y-9531925D01*
X9956782Y-9541448D01*
X9937735Y-9550972D01*
X9918687Y-9550972D01*
X9899639Y-9541448D01*
X9890116Y-9531925D01*
X9880592Y-9512877D01*
X9871068Y-9474782D01*
X9871068Y-9427163D01*
X9880592Y-9389068D01*
X9890116Y-9370020D01*
X9899639Y-9360496D01*
X9918687Y-9350972D01*
X10156782Y-9350972D02*
X10118687Y-9350972D01*
X10099639Y-9360496D01*
X10090116Y-9370020D01*
X10071068Y-9398591D01*
X10061544Y-9436687D01*
X10061544Y-9512877D01*
X10071068Y-9531925D01*
X10080592Y-9541448D01*
X10099639Y-9550972D01*
X10137735Y-9550972D01*
X10156782Y-9541448D01*
X10166306Y-9531925D01*
X10175830Y-9512877D01*
X10175830Y-9465258D01*
X10166306Y-9446210D01*
X10156782Y-9436687D01*
X10137735Y-9427163D01*
X10099639Y-9427163D01*
X10080592Y-9436687D01*
X10071068Y-9446210D01*
X10061544Y-9465258D01*
X10242497Y-9350972D02*
X10375830Y-9350972D01*
X10290116Y-9550972D01*
X10490116Y-9350972D02*
X10509163Y-9350972D01*
X10528211Y-9360496D01*
X10537735Y-9370020D01*
X10547258Y-9389068D01*
X10556782Y-9427163D01*
X10556782Y-9474782D01*
X10547258Y-9512877D01*
X10537735Y-9531925D01*
X10528211Y-9541448D01*
X10509163Y-9550972D01*
X10490116Y-9550972D01*
X10471068Y-9541448D01*
X10461544Y-9531925D01*
X10452020Y-9512877D01*
X10442496Y-9474782D01*
X10442496Y-9427163D01*
X10452020Y-9389068D01*
X10461544Y-9370020D01*
X10471068Y-9360496D01*
X10490116Y-9350972D01*
X10632973Y-9350972D02*
X10632973Y-9389068D01*
X10709163Y-9350972D02*
X10709163Y-9389068D01*
X11004401Y-9627163D02*
X10994877Y-9617639D01*
X10975830Y-9589068D01*
X10966306Y-9570020D01*
X10956782Y-9541448D01*
X10947258Y-9493829D01*
X10947258Y-9455734D01*
X10956782Y-9408115D01*
X10966306Y-9379544D01*
X10975830Y-9360496D01*
X10994877Y-9331925D01*
X11004401Y-9322401D01*
X11185354Y-9550972D02*
X11071068Y-9550972D01*
X11128211Y-9550972D02*
X11128211Y-9350972D01*
X11109163Y-9379544D01*
X11090116Y-9398591D01*
X11071068Y-9408115D01*
X11309163Y-9350972D02*
X11328211Y-9350972D01*
X11347258Y-9360496D01*
X11356782Y-9370020D01*
X11366306Y-9389068D01*
X11375830Y-9427163D01*
X11375830Y-9474782D01*
X11366306Y-9512877D01*
X11356782Y-9531925D01*
X11347258Y-9541448D01*
X11328211Y-9550972D01*
X11309163Y-9550972D01*
X11290115Y-9541448D01*
X11280592Y-9531925D01*
X11271068Y-9512877D01*
X11261544Y-9474782D01*
X11261544Y-9427163D01*
X11271068Y-9389068D01*
X11280592Y-9370020D01*
X11290115Y-9360496D01*
X11309163Y-9350972D01*
X11452020Y-9370020D02*
X11461544Y-9360496D01*
X11480592Y-9350972D01*
X11528211Y-9350972D01*
X11547258Y-9360496D01*
X11556782Y-9370020D01*
X11566306Y-9389068D01*
X11566306Y-9408115D01*
X11556782Y-9436687D01*
X11442496Y-9550972D01*
X11566306Y-9550972D01*
X11804401Y-9550972D02*
X11804401Y-9350972D01*
X11890115Y-9550972D02*
X11890115Y-9446210D01*
X11880592Y-9427163D01*
X11861544Y-9417639D01*
X11832973Y-9417639D01*
X11813925Y-9427163D01*
X11804401Y-9436687D01*
X12013925Y-9550972D02*
X11994877Y-9541448D01*
X11985354Y-9531925D01*
X11975830Y-9512877D01*
X11975830Y-9455734D01*
X11985354Y-9436687D01*
X11994877Y-9427163D01*
X12013925Y-9417639D01*
X12042496Y-9417639D01*
X12061544Y-9427163D01*
X12071068Y-9436687D01*
X12080592Y-9455734D01*
X12080592Y-9512877D01*
X12071068Y-9531925D01*
X12061544Y-9541448D01*
X12042496Y-9550972D01*
X12013925Y-9550972D01*
X12194877Y-9550972D02*
X12175830Y-9541448D01*
X12166306Y-9522401D01*
X12166306Y-9350972D01*
X12347258Y-9541448D02*
X12328211Y-9550972D01*
X12290115Y-9550972D01*
X12271068Y-9541448D01*
X12261544Y-9522401D01*
X12261544Y-9446210D01*
X12271068Y-9427163D01*
X12290115Y-9417639D01*
X12328211Y-9417639D01*
X12347258Y-9427163D01*
X12356782Y-9446210D01*
X12356782Y-9465258D01*
X12261544Y-9484306D01*
X12432973Y-9541448D02*
X12452020Y-9550972D01*
X12490115Y-9550972D01*
X12509163Y-9541448D01*
X12518687Y-9522401D01*
X12518687Y-9512877D01*
X12509163Y-9493829D01*
X12490115Y-9484306D01*
X12461544Y-9484306D01*
X12442496Y-9474782D01*
X12432973Y-9455734D01*
X12432973Y-9446210D01*
X12442496Y-9427163D01*
X12461544Y-9417639D01*
X12490115Y-9417639D01*
X12509163Y-9427163D01*
X12585354Y-9627163D02*
X12594877Y-9617639D01*
X12613925Y-9589068D01*
X12623449Y-9570020D01*
X12632973Y-9541448D01*
X12642496Y-9493829D01*
X12642496Y-9455734D01*
X12632973Y-9408115D01*
X12623449Y-9379544D01*
X12613925Y-9360496D01*
X12594877Y-9331925D01*
X12585354Y-9322401D01*
X12947258Y-9627163D02*
X12937734Y-9617639D01*
X12918687Y-9589068D01*
X12909163Y-9570020D01*
X12899639Y-9541448D01*
X12890115Y-9493829D01*
X12890115Y-9455734D01*
X12899639Y-9408115D01*
X12909163Y-9379544D01*
X12918687Y-9360496D01*
X12937734Y-9331925D01*
X12947258Y-9322401D01*
X13023449Y-9417639D02*
X13023449Y-9550972D01*
X13023449Y-9436687D02*
X13032973Y-9427163D01*
X13052020Y-9417639D01*
X13080592Y-9417639D01*
X13099639Y-9427163D01*
X13109163Y-9446210D01*
X13109163Y-9550972D01*
X13232973Y-9550972D02*
X13213925Y-9541448D01*
X13204401Y-9531925D01*
X13194877Y-9512877D01*
X13194877Y-9455734D01*
X13204401Y-9436687D01*
X13213925Y-9427163D01*
X13232973Y-9417639D01*
X13261544Y-9417639D01*
X13280592Y-9427163D01*
X13290115Y-9436687D01*
X13299639Y-9455734D01*
X13299639Y-9512877D01*
X13290115Y-9531925D01*
X13280592Y-9541448D01*
X13261544Y-9550972D01*
X13232973Y-9550972D01*
X13356782Y-9417639D02*
X13432973Y-9417639D01*
X13385354Y-9350972D02*
X13385354Y-9522401D01*
X13394877Y-9541448D01*
X13413925Y-9550972D01*
X13432973Y-9550972D01*
X13652020Y-9417639D02*
X13652020Y-9617639D01*
X13652020Y-9427163D02*
X13671068Y-9417639D01*
X13709163Y-9417639D01*
X13728211Y-9427163D01*
X13737734Y-9436687D01*
X13747258Y-9455734D01*
X13747258Y-9512877D01*
X13737734Y-9531925D01*
X13728211Y-9541448D01*
X13709163Y-9550972D01*
X13671068Y-9550972D01*
X13652020Y-9541448D01*
X13861544Y-9550972D02*
X13842496Y-9541448D01*
X13832973Y-9522401D01*
X13832973Y-9350972D01*
X14023449Y-9550972D02*
X14023449Y-9446210D01*
X14013925Y-9427163D01*
X13994877Y-9417639D01*
X13956782Y-9417639D01*
X13937734Y-9427163D01*
X14023449Y-9541448D02*
X14004401Y-9550972D01*
X13956782Y-9550972D01*
X13937734Y-9541448D01*
X13928211Y-9522401D01*
X13928211Y-9503353D01*
X13937734Y-9484306D01*
X13956782Y-9474782D01*
X14004401Y-9474782D01*
X14023449Y-9465258D01*
X14090115Y-9417639D02*
X14166306Y-9417639D01*
X14118687Y-9350972D02*
X14118687Y-9522401D01*
X14128211Y-9541448D01*
X14147258Y-9550972D01*
X14166306Y-9550972D01*
X14309163Y-9541448D02*
X14290115Y-9550972D01*
X14252020Y-9550972D01*
X14232973Y-9541448D01*
X14223449Y-9522401D01*
X14223449Y-9446210D01*
X14232973Y-9427163D01*
X14252020Y-9417639D01*
X14290115Y-9417639D01*
X14309163Y-9427163D01*
X14318687Y-9446210D01*
X14318687Y-9465258D01*
X14223449Y-9484306D01*
X14490115Y-9550972D02*
X14490115Y-9350972D01*
X14490115Y-9541448D02*
X14471068Y-9550972D01*
X14432973Y-9550972D01*
X14413925Y-9541448D01*
X14404401Y-9531925D01*
X14394877Y-9512877D01*
X14394877Y-9455734D01*
X14404401Y-9436687D01*
X14413925Y-9427163D01*
X14432973Y-9417639D01*
X14471068Y-9417639D01*
X14490115Y-9427163D01*
X14566306Y-9627163D02*
X14575830Y-9617639D01*
X14594877Y-9589068D01*
X14604401Y-9570020D01*
X14613925Y-9541448D01*
X14623449Y-9493829D01*
X14623449Y-9455734D01*
X14613925Y-9408115D01*
X14604401Y-9379544D01*
X14594877Y-9360496D01*
X14575830Y-9331925D01*
X14566306Y-9322401D01*
X7403208Y-9821388D02*
X7403208Y-9679965D01*
X7261785Y-9679965D01*
X7261785Y-9821388D01*
X7403208Y-9821388D01*
X7680592Y-9660200D02*
X7690115Y-9650676D01*
X7709163Y-9641152D01*
X7756782Y-9641152D01*
X7775830Y-9650676D01*
X7785354Y-9660200D01*
X7794877Y-9679248D01*
X7794877Y-9698295D01*
X7785354Y-9726867D01*
X7671068Y-9841152D01*
X7794877Y-9841152D01*
X7880592Y-9822105D02*
X7890115Y-9831628D01*
X7880592Y-9841152D01*
X7871068Y-9831628D01*
X7880592Y-9822105D01*
X7880592Y-9841152D01*
X7966306Y-9660200D02*
X7975830Y-9650676D01*
X7994877Y-9641152D01*
X8042496Y-9641152D01*
X8061544Y-9650676D01*
X8071068Y-9660200D01*
X8080592Y-9679248D01*
X8080592Y-9698295D01*
X8071068Y-9726867D01*
X7956782Y-9841152D01*
X8080592Y-9841152D01*
X8204401Y-9641152D02*
X8223449Y-9641152D01*
X8242496Y-9650676D01*
X8252020Y-9660200D01*
X8261544Y-9679248D01*
X8271068Y-9717343D01*
X8271068Y-9764962D01*
X8261544Y-9803057D01*
X8252020Y-9822105D01*
X8242496Y-9831628D01*
X8223449Y-9841152D01*
X8204401Y-9841152D01*
X8185354Y-9831628D01*
X8175830Y-9822105D01*
X8166306Y-9803057D01*
X8156782Y-9764962D01*
X8156782Y-9717343D01*
X8166306Y-9679248D01*
X8175830Y-9660200D01*
X8185354Y-9650676D01*
X8204401Y-9641152D01*
X8394877Y-9641152D02*
X8413925Y-9641152D01*
X8432973Y-9650676D01*
X8442497Y-9660200D01*
X8452020Y-9679248D01*
X8461544Y-9717343D01*
X8461544Y-9764962D01*
X8452020Y-9803057D01*
X8442497Y-9822105D01*
X8432973Y-9831628D01*
X8413925Y-9841152D01*
X8394877Y-9841152D01*
X8375830Y-9831628D01*
X8366306Y-9822105D01*
X8356782Y-9803057D01*
X8347258Y-9764962D01*
X8347258Y-9717343D01*
X8356782Y-9679248D01*
X8366306Y-9660200D01*
X8375830Y-9650676D01*
X8394877Y-9641152D01*
X8547258Y-9841152D02*
X8547258Y-9707819D01*
X8547258Y-9726867D02*
X8556782Y-9717343D01*
X8575830Y-9707819D01*
X8604401Y-9707819D01*
X8623449Y-9717343D01*
X8632973Y-9736390D01*
X8632973Y-9841152D01*
X8632973Y-9736390D02*
X8642497Y-9717343D01*
X8661544Y-9707819D01*
X8690116Y-9707819D01*
X8709163Y-9717343D01*
X8718687Y-9736390D01*
X8718687Y-9841152D01*
X8813925Y-9841152D02*
X8813925Y-9707819D01*
X8813925Y-9726867D02*
X8823449Y-9717343D01*
X8842497Y-9707819D01*
X8871068Y-9707819D01*
X8890116Y-9717343D01*
X8899639Y-9736390D01*
X8899639Y-9841152D01*
X8899639Y-9736390D02*
X8909163Y-9717343D01*
X8928211Y-9707819D01*
X8956782Y-9707819D01*
X8975830Y-9717343D01*
X8985354Y-9736390D01*
X8985354Y-9841152D01*
X9375830Y-9631628D02*
X9204401Y-9888771D01*
X9632973Y-9641152D02*
X9652020Y-9641152D01*
X9671068Y-9650676D01*
X9680592Y-9660200D01*
X9690116Y-9679248D01*
X9699639Y-9717343D01*
X9699639Y-9764962D01*
X9690116Y-9803057D01*
X9680592Y-9822105D01*
X9671068Y-9831628D01*
X9652020Y-9841152D01*
X9632973Y-9841152D01*
X9613925Y-9831628D01*
X9604401Y-9822105D01*
X9594877Y-9803057D01*
X9585354Y-9764962D01*
X9585354Y-9717343D01*
X9594877Y-9679248D01*
X9604401Y-9660200D01*
X9613925Y-9650676D01*
X9632973Y-9641152D01*
X9785354Y-9822105D02*
X9794877Y-9831628D01*
X9785354Y-9841152D01*
X9775830Y-9831628D01*
X9785354Y-9822105D01*
X9785354Y-9841152D01*
X9918687Y-9641152D02*
X9937735Y-9641152D01*
X9956782Y-9650676D01*
X9966306Y-9660200D01*
X9975830Y-9679248D01*
X9985354Y-9717343D01*
X9985354Y-9764962D01*
X9975830Y-9803057D01*
X9966306Y-9822105D01*
X9956782Y-9831628D01*
X9937735Y-9841152D01*
X9918687Y-9841152D01*
X9899639Y-9831628D01*
X9890116Y-9822105D01*
X9880592Y-9803057D01*
X9871068Y-9764962D01*
X9871068Y-9717343D01*
X9880592Y-9679248D01*
X9890116Y-9660200D01*
X9899639Y-9650676D01*
X9918687Y-9641152D01*
X10099639Y-9726867D02*
X10080592Y-9717343D01*
X10071068Y-9707819D01*
X10061544Y-9688771D01*
X10061544Y-9679248D01*
X10071068Y-9660200D01*
X10080592Y-9650676D01*
X10099639Y-9641152D01*
X10137735Y-9641152D01*
X10156782Y-9650676D01*
X10166306Y-9660200D01*
X10175830Y-9679248D01*
X10175830Y-9688771D01*
X10166306Y-9707819D01*
X10156782Y-9717343D01*
X10137735Y-9726867D01*
X10099639Y-9726867D01*
X10080592Y-9736390D01*
X10071068Y-9745914D01*
X10061544Y-9764962D01*
X10061544Y-9803057D01*
X10071068Y-9822105D01*
X10080592Y-9831628D01*
X10099639Y-9841152D01*
X10137735Y-9841152D01*
X10156782Y-9831628D01*
X10166306Y-9822105D01*
X10175830Y-9803057D01*
X10175830Y-9764962D01*
X10166306Y-9745914D01*
X10156782Y-9736390D01*
X10137735Y-9726867D01*
X10347258Y-9641152D02*
X10309163Y-9641152D01*
X10290116Y-9650676D01*
X10280592Y-9660200D01*
X10261544Y-9688771D01*
X10252020Y-9726867D01*
X10252020Y-9803057D01*
X10261544Y-9822105D01*
X10271068Y-9831628D01*
X10290116Y-9841152D01*
X10328211Y-9841152D01*
X10347258Y-9831628D01*
X10356782Y-9822105D01*
X10366306Y-9803057D01*
X10366306Y-9755438D01*
X10356782Y-9736390D01*
X10347258Y-9726867D01*
X10328211Y-9717343D01*
X10290116Y-9717343D01*
X10271068Y-9726867D01*
X10261544Y-9736390D01*
X10252020Y-9755438D01*
X10537735Y-9641152D02*
X10499639Y-9641152D01*
X10480592Y-9650676D01*
X10471068Y-9660200D01*
X10452020Y-9688771D01*
X10442496Y-9726867D01*
X10442496Y-9803057D01*
X10452020Y-9822105D01*
X10461544Y-9831628D01*
X10480592Y-9841152D01*
X10518687Y-9841152D01*
X10537735Y-9831628D01*
X10547258Y-9822105D01*
X10556782Y-9803057D01*
X10556782Y-9755438D01*
X10547258Y-9736390D01*
X10537735Y-9726867D01*
X10518687Y-9717343D01*
X10480592Y-9717343D01*
X10461544Y-9726867D01*
X10452020Y-9736390D01*
X10442496Y-9755438D01*
X10632973Y-9641152D02*
X10632973Y-9679248D01*
X10709163Y-9641152D02*
X10709163Y-9679248D01*
X11004401Y-9917343D02*
X10994877Y-9907819D01*
X10975830Y-9879248D01*
X10966306Y-9860200D01*
X10956782Y-9831628D01*
X10947258Y-9784009D01*
X10947258Y-9745914D01*
X10956782Y-9698295D01*
X10966306Y-9669724D01*
X10975830Y-9650676D01*
X10994877Y-9622105D01*
X11004401Y-9612581D01*
X11166306Y-9641152D02*
X11128211Y-9641152D01*
X11109163Y-9650676D01*
X11099639Y-9660200D01*
X11080592Y-9688771D01*
X11071068Y-9726867D01*
X11071068Y-9803057D01*
X11080592Y-9822105D01*
X11090116Y-9831628D01*
X11109163Y-9841152D01*
X11147258Y-9841152D01*
X11166306Y-9831628D01*
X11175830Y-9822105D01*
X11185354Y-9803057D01*
X11185354Y-9755438D01*
X11175830Y-9736390D01*
X11166306Y-9726867D01*
X11147258Y-9717343D01*
X11109163Y-9717343D01*
X11090116Y-9726867D01*
X11080592Y-9736390D01*
X11071068Y-9755438D01*
X11423449Y-9841152D02*
X11423449Y-9641152D01*
X11509163Y-9841152D02*
X11509163Y-9736390D01*
X11499639Y-9717343D01*
X11480592Y-9707819D01*
X11452020Y-9707819D01*
X11432973Y-9717343D01*
X11423449Y-9726867D01*
X11632973Y-9841152D02*
X11613925Y-9831628D01*
X11604401Y-9822105D01*
X11594877Y-9803057D01*
X11594877Y-9745914D01*
X11604401Y-9726867D01*
X11613925Y-9717343D01*
X11632973Y-9707819D01*
X11661544Y-9707819D01*
X11680592Y-9717343D01*
X11690115Y-9726867D01*
X11699639Y-9745914D01*
X11699639Y-9803057D01*
X11690115Y-9822105D01*
X11680592Y-9831628D01*
X11661544Y-9841152D01*
X11632973Y-9841152D01*
X11813925Y-9841152D02*
X11794877Y-9831628D01*
X11785354Y-9812581D01*
X11785354Y-9641152D01*
X11966306Y-9831628D02*
X11947258Y-9841152D01*
X11909163Y-9841152D01*
X11890115Y-9831628D01*
X11880592Y-9812581D01*
X11880592Y-9736390D01*
X11890115Y-9717343D01*
X11909163Y-9707819D01*
X11947258Y-9707819D01*
X11966306Y-9717343D01*
X11975830Y-9736390D01*
X11975830Y-9755438D01*
X11880592Y-9774486D01*
X12052020Y-9831628D02*
X12071068Y-9841152D01*
X12109163Y-9841152D01*
X12128211Y-9831628D01*
X12137734Y-9812581D01*
X12137734Y-9803057D01*
X12128211Y-9784009D01*
X12109163Y-9774486D01*
X12080592Y-9774486D01*
X12061544Y-9764962D01*
X12052020Y-9745914D01*
X12052020Y-9736390D01*
X12061544Y-9717343D01*
X12080592Y-9707819D01*
X12109163Y-9707819D01*
X12128211Y-9717343D01*
X12204401Y-9917343D02*
X12213925Y-9907819D01*
X12232973Y-9879248D01*
X12242496Y-9860200D01*
X12252020Y-9831628D01*
X12261544Y-9784009D01*
X12261544Y-9745914D01*
X12252020Y-9698295D01*
X12242496Y-9669724D01*
X12232973Y-9650676D01*
X12213925Y-9622105D01*
X12204401Y-9612581D01*
X12566306Y-9917343D02*
X12556782Y-9907819D01*
X12537734Y-9879248D01*
X12528211Y-9860200D01*
X12518687Y-9831628D01*
X12509163Y-9784009D01*
X12509163Y-9745914D01*
X12518687Y-9698295D01*
X12528211Y-9669724D01*
X12537734Y-9650676D01*
X12556782Y-9622105D01*
X12566306Y-9612581D01*
X12642496Y-9707819D02*
X12642496Y-9841152D01*
X12642496Y-9726867D02*
X12652020Y-9717343D01*
X12671068Y-9707819D01*
X12699639Y-9707819D01*
X12718687Y-9717343D01*
X12728211Y-9736390D01*
X12728211Y-9841152D01*
X12852020Y-9841152D02*
X12832973Y-9831628D01*
X12823449Y-9822105D01*
X12813925Y-9803057D01*
X12813925Y-9745914D01*
X12823449Y-9726867D01*
X12832973Y-9717343D01*
X12852020Y-9707819D01*
X12880592Y-9707819D01*
X12899639Y-9717343D01*
X12909163Y-9726867D01*
X12918687Y-9745914D01*
X12918687Y-9803057D01*
X12909163Y-9822105D01*
X12899639Y-9831628D01*
X12880592Y-9841152D01*
X12852020Y-9841152D01*
X12975830Y-9707819D02*
X13052020Y-9707819D01*
X13004401Y-9641152D02*
X13004401Y-9812581D01*
X13013925Y-9831628D01*
X13032973Y-9841152D01*
X13052020Y-9841152D01*
X13271068Y-9707819D02*
X13271068Y-9907819D01*
X13271068Y-9717343D02*
X13290115Y-9707819D01*
X13328211Y-9707819D01*
X13347258Y-9717343D01*
X13356782Y-9726867D01*
X13366306Y-9745914D01*
X13366306Y-9803057D01*
X13356782Y-9822105D01*
X13347258Y-9831628D01*
X13328211Y-9841152D01*
X13290115Y-9841152D01*
X13271068Y-9831628D01*
X13480592Y-9841152D02*
X13461544Y-9831628D01*
X13452020Y-9812581D01*
X13452020Y-9641152D01*
X13642496Y-9841152D02*
X13642496Y-9736390D01*
X13632973Y-9717343D01*
X13613925Y-9707819D01*
X13575830Y-9707819D01*
X13556782Y-9717343D01*
X13642496Y-9831628D02*
X13623449Y-9841152D01*
X13575830Y-9841152D01*
X13556782Y-9831628D01*
X13547258Y-9812581D01*
X13547258Y-9793533D01*
X13556782Y-9774486D01*
X13575830Y-9764962D01*
X13623449Y-9764962D01*
X13642496Y-9755438D01*
X13709163Y-9707819D02*
X13785354Y-9707819D01*
X13737734Y-9641152D02*
X13737734Y-9812581D01*
X13747258Y-9831628D01*
X13766306Y-9841152D01*
X13785354Y-9841152D01*
X13928211Y-9831628D02*
X13909163Y-9841152D01*
X13871068Y-9841152D01*
X13852020Y-9831628D01*
X13842496Y-9812581D01*
X13842496Y-9736390D01*
X13852020Y-9717343D01*
X13871068Y-9707819D01*
X13909163Y-9707819D01*
X13928211Y-9717343D01*
X13937734Y-9736390D01*
X13937734Y-9755438D01*
X13842496Y-9774486D01*
X14109163Y-9841152D02*
X14109163Y-9641152D01*
X14109163Y-9831628D02*
X14090115Y-9841152D01*
X14052020Y-9841152D01*
X14032973Y-9831628D01*
X14023449Y-9822105D01*
X14013925Y-9803057D01*
X14013925Y-9745914D01*
X14023449Y-9726867D01*
X14032973Y-9717343D01*
X14052020Y-9707819D01*
X14090115Y-9707819D01*
X14109163Y-9717343D01*
X14185354Y-9917343D02*
X14194877Y-9907819D01*
X14213925Y-9879248D01*
X14223449Y-9860200D01*
X14232973Y-9831628D01*
X14242496Y-9784009D01*
X14242496Y-9745914D01*
X14232973Y-9698295D01*
X14223449Y-9669724D01*
X14213925Y-9650676D01*
X14194877Y-9622105D01*
X14185354Y-9612581D01*
X7332496Y-10170676D02*
X7432496Y-10070676D01*
X7332496Y-9970676D01*
X7232496Y-10070676D01*
X7332496Y-10170676D01*
X7671068Y-9961152D02*
X7794877Y-9961152D01*
X7728211Y-10037343D01*
X7756782Y-10037343D01*
X7775830Y-10046867D01*
X7785354Y-10056390D01*
X7794877Y-10075438D01*
X7794877Y-10123057D01*
X7785354Y-10142105D01*
X7775830Y-10151628D01*
X7756782Y-10161152D01*
X7699639Y-10161152D01*
X7680592Y-10151628D01*
X7671068Y-10142105D01*
X7880592Y-10142105D02*
X7890115Y-10151628D01*
X7880592Y-10161152D01*
X7871068Y-10151628D01*
X7880592Y-10142105D01*
X7880592Y-10161152D01*
X8013925Y-9961152D02*
X8032973Y-9961152D01*
X8052020Y-9970676D01*
X8061544Y-9980200D01*
X8071068Y-9999248D01*
X8080592Y-10037343D01*
X8080592Y-10084962D01*
X8071068Y-10123057D01*
X8061544Y-10142105D01*
X8052020Y-10151628D01*
X8032973Y-10161152D01*
X8013925Y-10161152D01*
X7994877Y-10151628D01*
X7985354Y-10142105D01*
X7975830Y-10123057D01*
X7966306Y-10084962D01*
X7966306Y-10037343D01*
X7975830Y-9999248D01*
X7985354Y-9980200D01*
X7994877Y-9970676D01*
X8013925Y-9961152D01*
X8204401Y-9961152D02*
X8223449Y-9961152D01*
X8242496Y-9970676D01*
X8252020Y-9980200D01*
X8261544Y-9999248D01*
X8271068Y-10037343D01*
X8271068Y-10084962D01*
X8261544Y-10123057D01*
X8252020Y-10142105D01*
X8242496Y-10151628D01*
X8223449Y-10161152D01*
X8204401Y-10161152D01*
X8185354Y-10151628D01*
X8175830Y-10142105D01*
X8166306Y-10123057D01*
X8156782Y-10084962D01*
X8156782Y-10037343D01*
X8166306Y-9999248D01*
X8175830Y-9980200D01*
X8185354Y-9970676D01*
X8204401Y-9961152D01*
X8394877Y-9961152D02*
X8413925Y-9961152D01*
X8432973Y-9970676D01*
X8442497Y-9980200D01*
X8452020Y-9999248D01*
X8461544Y-10037343D01*
X8461544Y-10084962D01*
X8452020Y-10123057D01*
X8442497Y-10142105D01*
X8432973Y-10151628D01*
X8413925Y-10161152D01*
X8394877Y-10161152D01*
X8375830Y-10151628D01*
X8366306Y-10142105D01*
X8356782Y-10123057D01*
X8347258Y-10084962D01*
X8347258Y-10037343D01*
X8356782Y-9999248D01*
X8366306Y-9980200D01*
X8375830Y-9970676D01*
X8394877Y-9961152D01*
X8547258Y-10161152D02*
X8547258Y-10027819D01*
X8547258Y-10046867D02*
X8556782Y-10037343D01*
X8575830Y-10027819D01*
X8604401Y-10027819D01*
X8623449Y-10037343D01*
X8632973Y-10056390D01*
X8632973Y-10161152D01*
X8632973Y-10056390D02*
X8642497Y-10037343D01*
X8661544Y-10027819D01*
X8690116Y-10027819D01*
X8709163Y-10037343D01*
X8718687Y-10056390D01*
X8718687Y-10161152D01*
X8813925Y-10161152D02*
X8813925Y-10027819D01*
X8813925Y-10046867D02*
X8823449Y-10037343D01*
X8842497Y-10027819D01*
X8871068Y-10027819D01*
X8890116Y-10037343D01*
X8899639Y-10056390D01*
X8899639Y-10161152D01*
X8899639Y-10056390D02*
X8909163Y-10037343D01*
X8928211Y-10027819D01*
X8956782Y-10027819D01*
X8975830Y-10037343D01*
X8985354Y-10056390D01*
X8985354Y-10161152D01*
X9375830Y-9951628D02*
X9204401Y-10208771D01*
X9632973Y-9961152D02*
X9652020Y-9961152D01*
X9671068Y-9970676D01*
X9680592Y-9980200D01*
X9690116Y-9999248D01*
X9699639Y-10037343D01*
X9699639Y-10084962D01*
X9690116Y-10123057D01*
X9680592Y-10142105D01*
X9671068Y-10151628D01*
X9652020Y-10161152D01*
X9632973Y-10161152D01*
X9613925Y-10151628D01*
X9604401Y-10142105D01*
X9594877Y-10123057D01*
X9585354Y-10084962D01*
X9585354Y-10037343D01*
X9594877Y-9999248D01*
X9604401Y-9980200D01*
X9613925Y-9970676D01*
X9632973Y-9961152D01*
X9785354Y-10142105D02*
X9794877Y-10151628D01*
X9785354Y-10161152D01*
X9775830Y-10151628D01*
X9785354Y-10142105D01*
X9785354Y-10161152D01*
X9985354Y-10161152D02*
X9871068Y-10161152D01*
X9928211Y-10161152D02*
X9928211Y-9961152D01*
X9909163Y-9989724D01*
X9890116Y-10008771D01*
X9871068Y-10018295D01*
X10175830Y-10161152D02*
X10061544Y-10161152D01*
X10118687Y-10161152D02*
X10118687Y-9961152D01*
X10099639Y-9989724D01*
X10080592Y-10008771D01*
X10061544Y-10018295D01*
X10290116Y-10046867D02*
X10271068Y-10037343D01*
X10261544Y-10027819D01*
X10252020Y-10008771D01*
X10252020Y-9999248D01*
X10261544Y-9980200D01*
X10271068Y-9970676D01*
X10290116Y-9961152D01*
X10328211Y-9961152D01*
X10347258Y-9970676D01*
X10356782Y-9980200D01*
X10366306Y-9999248D01*
X10366306Y-10008771D01*
X10356782Y-10027819D01*
X10347258Y-10037343D01*
X10328211Y-10046867D01*
X10290116Y-10046867D01*
X10271068Y-10056390D01*
X10261544Y-10065914D01*
X10252020Y-10084962D01*
X10252020Y-10123057D01*
X10261544Y-10142105D01*
X10271068Y-10151628D01*
X10290116Y-10161152D01*
X10328211Y-10161152D01*
X10347258Y-10151628D01*
X10356782Y-10142105D01*
X10366306Y-10123057D01*
X10366306Y-10084962D01*
X10356782Y-10065914D01*
X10347258Y-10056390D01*
X10328211Y-10046867D01*
X10556782Y-10161152D02*
X10442496Y-10161152D01*
X10499639Y-10161152D02*
X10499639Y-9961152D01*
X10480592Y-9989724D01*
X10461544Y-10008771D01*
X10442496Y-10018295D01*
X10632973Y-9961152D02*
X10632973Y-9999248D01*
X10709163Y-9961152D02*
X10709163Y-9999248D01*
X11004401Y-10237343D02*
X10994877Y-10227819D01*
X10975830Y-10199248D01*
X10966306Y-10180200D01*
X10956782Y-10151628D01*
X10947258Y-10104009D01*
X10947258Y-10065914D01*
X10956782Y-10018295D01*
X10966306Y-9989724D01*
X10975830Y-9970676D01*
X10994877Y-9942105D01*
X11004401Y-9932581D01*
X11185354Y-10161152D02*
X11071068Y-10161152D01*
X11128211Y-10161152D02*
X11128211Y-9961152D01*
X11109163Y-9989724D01*
X11090116Y-10008771D01*
X11071068Y-10018295D01*
X11309163Y-9961152D02*
X11328211Y-9961152D01*
X11347258Y-9970676D01*
X11356782Y-9980200D01*
X11366306Y-9999248D01*
X11375830Y-10037343D01*
X11375830Y-10084962D01*
X11366306Y-10123057D01*
X11356782Y-10142105D01*
X11347258Y-10151628D01*
X11328211Y-10161152D01*
X11309163Y-10161152D01*
X11290115Y-10151628D01*
X11280592Y-10142105D01*
X11271068Y-10123057D01*
X11261544Y-10084962D01*
X11261544Y-10037343D01*
X11271068Y-9999248D01*
X11280592Y-9980200D01*
X11290115Y-9970676D01*
X11309163Y-9961152D01*
X11452020Y-9980200D02*
X11461544Y-9970676D01*
X11480592Y-9961152D01*
X11528211Y-9961152D01*
X11547258Y-9970676D01*
X11556782Y-9980200D01*
X11566306Y-9999248D01*
X11566306Y-10018295D01*
X11556782Y-10046867D01*
X11442496Y-10161152D01*
X11566306Y-10161152D01*
X11804401Y-10161152D02*
X11804401Y-9961152D01*
X11890115Y-10161152D02*
X11890115Y-10056390D01*
X11880592Y-10037343D01*
X11861544Y-10027819D01*
X11832973Y-10027819D01*
X11813925Y-10037343D01*
X11804401Y-10046867D01*
X12013925Y-10161152D02*
X11994877Y-10151628D01*
X11985354Y-10142105D01*
X11975830Y-10123057D01*
X11975830Y-10065914D01*
X11985354Y-10046867D01*
X11994877Y-10037343D01*
X12013925Y-10027819D01*
X12042496Y-10027819D01*
X12061544Y-10037343D01*
X12071068Y-10046867D01*
X12080592Y-10065914D01*
X12080592Y-10123057D01*
X12071068Y-10142105D01*
X12061544Y-10151628D01*
X12042496Y-10161152D01*
X12013925Y-10161152D01*
X12194877Y-10161152D02*
X12175830Y-10151628D01*
X12166306Y-10132581D01*
X12166306Y-9961152D01*
X12347258Y-10151628D02*
X12328211Y-10161152D01*
X12290115Y-10161152D01*
X12271068Y-10151628D01*
X12261544Y-10132581D01*
X12261544Y-10056390D01*
X12271068Y-10037343D01*
X12290115Y-10027819D01*
X12328211Y-10027819D01*
X12347258Y-10037343D01*
X12356782Y-10056390D01*
X12356782Y-10075438D01*
X12261544Y-10094486D01*
X12432973Y-10151628D02*
X12452020Y-10161152D01*
X12490115Y-10161152D01*
X12509163Y-10151628D01*
X12518687Y-10132581D01*
X12518687Y-10123057D01*
X12509163Y-10104009D01*
X12490115Y-10094486D01*
X12461544Y-10094486D01*
X12442496Y-10084962D01*
X12432973Y-10065914D01*
X12432973Y-10056390D01*
X12442496Y-10037343D01*
X12461544Y-10027819D01*
X12490115Y-10027819D01*
X12509163Y-10037343D01*
X12585354Y-10237343D02*
X12594877Y-10227819D01*
X12613925Y-10199248D01*
X12623449Y-10180200D01*
X12632973Y-10151628D01*
X12642496Y-10104009D01*
X12642496Y-10065914D01*
X12632973Y-10018295D01*
X12623449Y-9989724D01*
X12613925Y-9970676D01*
X12594877Y-9942105D01*
X12585354Y-9932581D01*
X12947258Y-10237343D02*
X12937734Y-10227819D01*
X12918687Y-10199248D01*
X12909163Y-10180200D01*
X12899639Y-10151628D01*
X12890115Y-10104009D01*
X12890115Y-10065914D01*
X12899639Y-10018295D01*
X12909163Y-9989724D01*
X12918687Y-9970676D01*
X12937734Y-9942105D01*
X12947258Y-9932581D01*
X13023449Y-10027819D02*
X13023449Y-10161152D01*
X13023449Y-10046867D02*
X13032973Y-10037343D01*
X13052020Y-10027819D01*
X13080592Y-10027819D01*
X13099639Y-10037343D01*
X13109163Y-10056390D01*
X13109163Y-10161152D01*
X13232973Y-10161152D02*
X13213925Y-10151628D01*
X13204401Y-10142105D01*
X13194877Y-10123057D01*
X13194877Y-10065914D01*
X13204401Y-10046867D01*
X13213925Y-10037343D01*
X13232973Y-10027819D01*
X13261544Y-10027819D01*
X13280592Y-10037343D01*
X13290115Y-10046867D01*
X13299639Y-10065914D01*
X13299639Y-10123057D01*
X13290115Y-10142105D01*
X13280592Y-10151628D01*
X13261544Y-10161152D01*
X13232973Y-10161152D01*
X13356782Y-10027819D02*
X13432973Y-10027819D01*
X13385354Y-9961152D02*
X13385354Y-10132581D01*
X13394877Y-10151628D01*
X13413925Y-10161152D01*
X13432973Y-10161152D01*
X13652020Y-10027819D02*
X13652020Y-10227819D01*
X13652020Y-10037343D02*
X13671068Y-10027819D01*
X13709163Y-10027819D01*
X13728211Y-10037343D01*
X13737734Y-10046867D01*
X13747258Y-10065914D01*
X13747258Y-10123057D01*
X13737734Y-10142105D01*
X13728211Y-10151628D01*
X13709163Y-10161152D01*
X13671068Y-10161152D01*
X13652020Y-10151628D01*
X13861544Y-10161152D02*
X13842496Y-10151628D01*
X13832973Y-10132581D01*
X13832973Y-9961152D01*
X14023449Y-10161152D02*
X14023449Y-10056390D01*
X14013925Y-10037343D01*
X13994877Y-10027819D01*
X13956782Y-10027819D01*
X13937734Y-10037343D01*
X14023449Y-10151628D02*
X14004401Y-10161152D01*
X13956782Y-10161152D01*
X13937734Y-10151628D01*
X13928211Y-10132581D01*
X13928211Y-10113533D01*
X13937734Y-10094486D01*
X13956782Y-10084962D01*
X14004401Y-10084962D01*
X14023449Y-10075438D01*
X14090115Y-10027819D02*
X14166306Y-10027819D01*
X14118687Y-9961152D02*
X14118687Y-10132581D01*
X14128211Y-10151628D01*
X14147258Y-10161152D01*
X14166306Y-10161152D01*
X14309163Y-10151628D02*
X14290115Y-10161152D01*
X14252020Y-10161152D01*
X14232973Y-10151628D01*
X14223449Y-10132581D01*
X14223449Y-10056390D01*
X14232973Y-10037343D01*
X14252020Y-10027819D01*
X14290115Y-10027819D01*
X14309163Y-10037343D01*
X14318687Y-10056390D01*
X14318687Y-10075438D01*
X14223449Y-10094486D01*
X14490115Y-10161152D02*
X14490115Y-9961152D01*
X14490115Y-10151628D02*
X14471068Y-10161152D01*
X14432973Y-10161152D01*
X14413925Y-10151628D01*
X14404401Y-10142105D01*
X14394877Y-10123057D01*
X14394877Y-10065914D01*
X14404401Y-10046867D01*
X14413925Y-10037343D01*
X14432973Y-10027819D01*
X14471068Y-10027819D01*
X14490115Y-10037343D01*
X14566306Y-10237343D02*
X14575830Y-10227819D01*
X14594877Y-10199248D01*
X14604401Y-10180200D01*
X14613925Y-10151628D01*
X14623449Y-10104009D01*
X14623449Y-10065914D01*
X14613925Y-10018295D01*
X14604401Y-9989724D01*
X14594877Y-9970676D01*
X14575830Y-9942105D01*
X14566306Y-9932581D01*
X7232496Y-10290676D02*
X7432496Y-10490676D01*
X7432496Y-10290676D02*
X7232496Y-10490676D01*
X7432496Y-10390676D02*
G75*
G03*
X7432496Y-10390676I-100000J0D01*
G01*
X7671068Y-10281152D02*
X7794877Y-10281152D01*
X7728211Y-10357343D01*
X7756782Y-10357343D01*
X7775830Y-10366867D01*
X7785354Y-10376390D01*
X7794877Y-10395438D01*
X7794877Y-10443057D01*
X7785354Y-10462105D01*
X7775830Y-10471628D01*
X7756782Y-10481152D01*
X7699639Y-10481152D01*
X7680592Y-10471628D01*
X7671068Y-10462105D01*
X7880592Y-10462105D02*
X7890115Y-10471628D01*
X7880592Y-10481152D01*
X7871068Y-10471628D01*
X7880592Y-10462105D01*
X7880592Y-10481152D01*
X8061544Y-10347819D02*
X8061544Y-10481152D01*
X8013925Y-10271628D02*
X7966306Y-10414486D01*
X8090115Y-10414486D01*
X8156782Y-10300200D02*
X8166306Y-10290676D01*
X8185354Y-10281152D01*
X8232973Y-10281152D01*
X8252020Y-10290676D01*
X8261544Y-10300200D01*
X8271068Y-10319248D01*
X8271068Y-10338295D01*
X8261544Y-10366867D01*
X8147258Y-10481152D01*
X8271068Y-10481152D01*
X8366306Y-10481152D02*
X8404401Y-10481152D01*
X8423449Y-10471628D01*
X8432973Y-10462105D01*
X8452020Y-10433533D01*
X8461544Y-10395438D01*
X8461544Y-10319248D01*
X8452020Y-10300200D01*
X8442497Y-10290676D01*
X8423449Y-10281152D01*
X8385354Y-10281152D01*
X8366306Y-10290676D01*
X8356782Y-10300200D01*
X8347258Y-10319248D01*
X8347258Y-10366867D01*
X8356782Y-10385914D01*
X8366306Y-10395438D01*
X8385354Y-10404962D01*
X8423449Y-10404962D01*
X8442497Y-10395438D01*
X8452020Y-10385914D01*
X8461544Y-10366867D01*
X8547258Y-10481152D02*
X8547258Y-10347819D01*
X8547258Y-10366867D02*
X8556782Y-10357343D01*
X8575830Y-10347819D01*
X8604401Y-10347819D01*
X8623449Y-10357343D01*
X8632973Y-10376390D01*
X8632973Y-10481152D01*
X8632973Y-10376390D02*
X8642497Y-10357343D01*
X8661544Y-10347819D01*
X8690116Y-10347819D01*
X8709163Y-10357343D01*
X8718687Y-10376390D01*
X8718687Y-10481152D01*
X8813925Y-10481152D02*
X8813925Y-10347819D01*
X8813925Y-10366867D02*
X8823449Y-10357343D01*
X8842497Y-10347819D01*
X8871068Y-10347819D01*
X8890116Y-10357343D01*
X8899639Y-10376390D01*
X8899639Y-10481152D01*
X8899639Y-10376390D02*
X8909163Y-10357343D01*
X8928211Y-10347819D01*
X8956782Y-10347819D01*
X8975830Y-10357343D01*
X8985354Y-10376390D01*
X8985354Y-10481152D01*
X9375830Y-10271628D02*
X9204401Y-10528771D01*
X9632973Y-10281152D02*
X9652020Y-10281152D01*
X9671068Y-10290676D01*
X9680592Y-10300200D01*
X9690116Y-10319248D01*
X9699639Y-10357343D01*
X9699639Y-10404962D01*
X9690116Y-10443057D01*
X9680592Y-10462105D01*
X9671068Y-10471628D01*
X9652020Y-10481152D01*
X9632973Y-10481152D01*
X9613925Y-10471628D01*
X9604401Y-10462105D01*
X9594877Y-10443057D01*
X9585354Y-10404962D01*
X9585354Y-10357343D01*
X9594877Y-10319248D01*
X9604401Y-10300200D01*
X9613925Y-10290676D01*
X9632973Y-10281152D01*
X9785354Y-10462105D02*
X9794877Y-10471628D01*
X9785354Y-10481152D01*
X9775830Y-10471628D01*
X9785354Y-10462105D01*
X9785354Y-10481152D01*
X9985354Y-10481152D02*
X9871068Y-10481152D01*
X9928211Y-10481152D02*
X9928211Y-10281152D01*
X9909163Y-10309724D01*
X9890116Y-10328771D01*
X9871068Y-10338295D01*
X10052020Y-10281152D02*
X10175830Y-10281152D01*
X10109163Y-10357343D01*
X10137735Y-10357343D01*
X10156782Y-10366867D01*
X10166306Y-10376390D01*
X10175830Y-10395438D01*
X10175830Y-10443057D01*
X10166306Y-10462105D01*
X10156782Y-10471628D01*
X10137735Y-10481152D01*
X10080592Y-10481152D01*
X10061544Y-10471628D01*
X10052020Y-10462105D01*
X10356782Y-10281152D02*
X10261544Y-10281152D01*
X10252020Y-10376390D01*
X10261544Y-10366867D01*
X10280592Y-10357343D01*
X10328211Y-10357343D01*
X10347258Y-10366867D01*
X10356782Y-10376390D01*
X10366306Y-10395438D01*
X10366306Y-10443057D01*
X10356782Y-10462105D01*
X10347258Y-10471628D01*
X10328211Y-10481152D01*
X10280592Y-10481152D01*
X10261544Y-10471628D01*
X10252020Y-10462105D01*
X10490116Y-10281152D02*
X10509163Y-10281152D01*
X10528211Y-10290676D01*
X10537735Y-10300200D01*
X10547258Y-10319248D01*
X10556782Y-10357343D01*
X10556782Y-10404962D01*
X10547258Y-10443057D01*
X10537735Y-10462105D01*
X10528211Y-10471628D01*
X10509163Y-10481152D01*
X10490116Y-10481152D01*
X10471068Y-10471628D01*
X10461544Y-10462105D01*
X10452020Y-10443057D01*
X10442496Y-10404962D01*
X10442496Y-10357343D01*
X10452020Y-10319248D01*
X10461544Y-10300200D01*
X10471068Y-10290676D01*
X10490116Y-10281152D01*
X10632973Y-10281152D02*
X10632973Y-10319248D01*
X10709163Y-10281152D02*
X10709163Y-10319248D01*
X11004401Y-10557343D02*
X10994877Y-10547819D01*
X10975830Y-10519248D01*
X10966306Y-10500200D01*
X10956782Y-10471628D01*
X10947258Y-10424009D01*
X10947258Y-10385914D01*
X10956782Y-10338295D01*
X10966306Y-10309724D01*
X10975830Y-10290676D01*
X10994877Y-10262105D01*
X11004401Y-10252581D01*
X11175830Y-10281152D02*
X11080592Y-10281152D01*
X11071068Y-10376390D01*
X11080592Y-10366867D01*
X11099639Y-10357343D01*
X11147258Y-10357343D01*
X11166306Y-10366867D01*
X11175830Y-10376390D01*
X11185354Y-10395438D01*
X11185354Y-10443057D01*
X11175830Y-10462105D01*
X11166306Y-10471628D01*
X11147258Y-10481152D01*
X11099639Y-10481152D01*
X11080592Y-10471628D01*
X11071068Y-10462105D01*
X11375830Y-10481152D02*
X11261544Y-10481152D01*
X11318687Y-10481152D02*
X11318687Y-10281152D01*
X11299639Y-10309724D01*
X11280592Y-10328771D01*
X11261544Y-10338295D01*
X11613925Y-10481152D02*
X11613925Y-10281152D01*
X11699639Y-10481152D02*
X11699639Y-10376390D01*
X11690115Y-10357343D01*
X11671068Y-10347819D01*
X11642496Y-10347819D01*
X11623449Y-10357343D01*
X11613925Y-10366867D01*
X11823449Y-10481152D02*
X11804401Y-10471628D01*
X11794877Y-10462105D01*
X11785354Y-10443057D01*
X11785354Y-10385914D01*
X11794877Y-10366867D01*
X11804401Y-10357343D01*
X11823449Y-10347819D01*
X11852020Y-10347819D01*
X11871068Y-10357343D01*
X11880592Y-10366867D01*
X11890115Y-10385914D01*
X11890115Y-10443057D01*
X11880592Y-10462105D01*
X11871068Y-10471628D01*
X11852020Y-10481152D01*
X11823449Y-10481152D01*
X12004401Y-10481152D02*
X11985354Y-10471628D01*
X11975830Y-10452581D01*
X11975830Y-10281152D01*
X12156782Y-10471628D02*
X12137734Y-10481152D01*
X12099639Y-10481152D01*
X12080592Y-10471628D01*
X12071068Y-10452581D01*
X12071068Y-10376390D01*
X12080592Y-10357343D01*
X12099639Y-10347819D01*
X12137734Y-10347819D01*
X12156782Y-10357343D01*
X12166306Y-10376390D01*
X12166306Y-10395438D01*
X12071068Y-10414486D01*
X12242496Y-10471628D02*
X12261544Y-10481152D01*
X12299639Y-10481152D01*
X12318687Y-10471628D01*
X12328211Y-10452581D01*
X12328211Y-10443057D01*
X12318687Y-10424009D01*
X12299639Y-10414486D01*
X12271068Y-10414486D01*
X12252020Y-10404962D01*
X12242496Y-10385914D01*
X12242496Y-10376390D01*
X12252020Y-10357343D01*
X12271068Y-10347819D01*
X12299639Y-10347819D01*
X12318687Y-10357343D01*
X12394877Y-10557343D02*
X12404401Y-10547819D01*
X12423449Y-10519248D01*
X12432973Y-10500200D01*
X12442496Y-10471628D01*
X12452020Y-10424009D01*
X12452020Y-10385914D01*
X12442496Y-10338295D01*
X12432973Y-10309724D01*
X12423449Y-10290676D01*
X12404401Y-10262105D01*
X12394877Y-10252581D01*
X12756782Y-10557343D02*
X12747258Y-10547819D01*
X12728211Y-10519248D01*
X12718687Y-10500200D01*
X12709163Y-10471628D01*
X12699639Y-10424009D01*
X12699639Y-10385914D01*
X12709163Y-10338295D01*
X12718687Y-10309724D01*
X12728211Y-10290676D01*
X12747258Y-10262105D01*
X12756782Y-10252581D01*
X12832973Y-10347819D02*
X12832973Y-10481152D01*
X12832973Y-10366867D02*
X12842496Y-10357343D01*
X12861544Y-10347819D01*
X12890115Y-10347819D01*
X12909163Y-10357343D01*
X12918687Y-10376390D01*
X12918687Y-10481152D01*
X13042496Y-10481152D02*
X13023449Y-10471628D01*
X13013925Y-10462105D01*
X13004401Y-10443057D01*
X13004401Y-10385914D01*
X13013925Y-10366867D01*
X13023449Y-10357343D01*
X13042496Y-10347819D01*
X13071068Y-10347819D01*
X13090115Y-10357343D01*
X13099639Y-10366867D01*
X13109163Y-10385914D01*
X13109163Y-10443057D01*
X13099639Y-10462105D01*
X13090115Y-10471628D01*
X13071068Y-10481152D01*
X13042496Y-10481152D01*
X13166306Y-10347819D02*
X13242496Y-10347819D01*
X13194877Y-10281152D02*
X13194877Y-10452581D01*
X13204401Y-10471628D01*
X13223449Y-10481152D01*
X13242496Y-10481152D01*
X13461544Y-10347819D02*
X13461544Y-10547819D01*
X13461544Y-10357343D02*
X13480592Y-10347819D01*
X13518687Y-10347819D01*
X13537734Y-10357343D01*
X13547258Y-10366867D01*
X13556782Y-10385914D01*
X13556782Y-10443057D01*
X13547258Y-10462105D01*
X13537734Y-10471628D01*
X13518687Y-10481152D01*
X13480592Y-10481152D01*
X13461544Y-10471628D01*
X13671068Y-10481152D02*
X13652020Y-10471628D01*
X13642496Y-10452581D01*
X13642496Y-10281152D01*
X13832973Y-10481152D02*
X13832973Y-10376390D01*
X13823449Y-10357343D01*
X13804401Y-10347819D01*
X13766306Y-10347819D01*
X13747258Y-10357343D01*
X13832973Y-10471628D02*
X13813925Y-10481152D01*
X13766306Y-10481152D01*
X13747258Y-10471628D01*
X13737734Y-10452581D01*
X13737734Y-10433533D01*
X13747258Y-10414486D01*
X13766306Y-10404962D01*
X13813925Y-10404962D01*
X13832973Y-10395438D01*
X13899639Y-10347819D02*
X13975830Y-10347819D01*
X13928211Y-10281152D02*
X13928211Y-10452581D01*
X13937734Y-10471628D01*
X13956782Y-10481152D01*
X13975830Y-10481152D01*
X14118687Y-10471628D02*
X14099639Y-10481152D01*
X14061544Y-10481152D01*
X14042496Y-10471628D01*
X14032973Y-10452581D01*
X14032973Y-10376390D01*
X14042496Y-10357343D01*
X14061544Y-10347819D01*
X14099639Y-10347819D01*
X14118687Y-10357343D01*
X14128211Y-10376390D01*
X14128211Y-10395438D01*
X14032973Y-10414486D01*
X14299639Y-10481152D02*
X14299639Y-10281152D01*
X14299639Y-10471628D02*
X14280592Y-10481152D01*
X14242496Y-10481152D01*
X14223449Y-10471628D01*
X14213925Y-10462105D01*
X14204401Y-10443057D01*
X14204401Y-10385914D01*
X14213925Y-10366867D01*
X14223449Y-10357343D01*
X14242496Y-10347819D01*
X14280592Y-10347819D01*
X14299639Y-10357343D01*
X14375830Y-10557343D02*
X14385354Y-10547819D01*
X14404401Y-10519248D01*
X14413925Y-10500200D01*
X14423449Y-10471628D01*
X14432973Y-10424009D01*
X14432973Y-10385914D01*
X14423449Y-10338295D01*
X14413925Y-10309724D01*
X14404401Y-10290676D01*
X14385354Y-10262105D01*
X14375830Y-10252581D01*
M02*
