<?xml version="1.0" encoding="UTF-8" standalone="no"?>
<!-- Generator: Fusion 360, Shaper Origin Export Add-In, Version 1.6.3  -->

<svg
   shaper:fusionaddin="version:1.6.3"
   width="17.52cm"
   height="7.32cm"
   version="1.1"
   x="0cm"
   y="0cm"
   viewBox="0 0 17.52 7.32"
   enable-background="new 0 0 17.52 7.32"
   xml:space="preserve"
   id="svg974"
   sodipodi:docname="bancouver40_case_foam.svg"
   inkscape:version="1.1.1 (c3084ef, 2021-09-22)"
   xmlns:inkscape="http://www.inkscape.org/namespaces/inkscape"
   xmlns:sodipodi="http://sodipodi.sourceforge.net/DTD/sodipodi-0.dtd"
   xmlns="http://www.w3.org/2000/svg"
   xmlns:svg="http://www.w3.org/2000/svg"
   xmlns:shaper="http://www.shapertools.com/namespaces/shaper"><defs
     id="defs978" /><sodipodi:namedview
     id="namedview976"
     pagecolor="#505050"
     bordercolor="#eeeeee"
     borderopacity="1"
     inkscape:pageshadow="0"
     inkscape:pageopacity="0"
     inkscape:pagecheckerboard="0"
     inkscape:document-units="cm"
     showgrid="false"
     inkscape:zoom="1.7019715"
     inkscape:cx="389.84201"
     inkscape:cy="123.97387"
     inkscape:window-width="1296"
     inkscape:window-height="872"
     inkscape:window-x="0"
     inkscape:window-y="0"
     inkscape:window-maximized="0"
     inkscape:current-layer="svg974" /><path
     d="M17.02,6.82 L17.02,0.1 A0.1,0.1 0 0,0 16.92,-0 L13.87,0 13.87,0.65 A0.1,0.1 0 0,1 13.77,0.75 L12.81,0.75 A0.1,0.1 90 0,1 12.71,0.65 L12.71,0 0,0 A0.1,0.1 270 0,0 -0.1,0.1 L-0.1,6.82 A0.1,0.1 180 0,0 -0,6.92 L16.92,6.92 A0.1,0.1 90 0,0 17.02,6.82z M11.68,1.76 a0.18,0.18 0 1,1 0.36,0 a0.18,0.18 0 1,1 -0.36,0z M4.88,1.76 a0.18,0.18 0 1,1 0.36,0 a0.18,0.18 0 1,1 -0.36,0z M4.88,5.16 a0.18,0.18 0 1,1 0.36,0 a0.18,0.18 0 1,1 -0.36,0z M15.08,3.46 a0.18,0.18 0 1,1 0.36,0 a0.18,0.18 0 1,1 -0.36,0z M11.68,5.16 a0.18,0.18 0 1,1 0.36,0 a0.18,0.18 0 1,1 -0.36,0z M1.48,3.46 a0.18,0.18 0 1,1 0.36,0 a0.18,0.18 0 1,1 -0.36,0z"
     transform="matrix(1,0,0,-1,0.3,7.12)"
     fill="rgb(184,184,184)"
     fill-rule="nonzero"
     shaper:cutDepth="0.0105"
     stroke-linecap="round"
     stroke-linejoin="round"
     id="path944"
     style="stroke:#000000;stroke-opacity:1;stroke-width:0.01;stroke-miterlimit:4;stroke-dasharray:none;fill:none" /><path
     d="M10.91,2.16 a0.1,0.1 0 1,1 0.2,0 a0.1,0.1 0 1,1 -0.2,0z"
     transform="matrix(1,0,0,-1,0.3,7.12)"
     fill="rgb(255,255,255)"
     stroke="rgb(0,0,0)"
     stroke-width="0.0010cm"
     stroke-linecap="round"
     stroke-linejoin="round"
     shaper:cutDepth="0.0125"
     id="path972"
     style="stroke:#000000;stroke-opacity:1;fill:none;fill-opacity:1;stroke-width:0.01;stroke-miterlimit:4;stroke-dasharray:none" /></svg>
