<?xml version="1.0" encoding="UTF-8" standalone="no"?>
<svg
   width="170mm"
   height="68mm"
   viewBox="0 0 170 68"
   version="1.1"
   id="svg916"
   sodipodi:docname="plate-2022-10-10T04 27 36.693Z_k40_whisp.svg"
   inkscape:version="1.1.1 (c3084ef, 2021-09-22)"
   xmlns:inkscape="http://www.inkscape.org/namespaces/inkscape"
   xmlns:sodipodi="http://sodipodi.sourceforge.net/DTD/sodipodi-0.dtd"
   xmlns="http://www.w3.org/2000/svg"
   xmlns:svg="http://www.w3.org/2000/svg">
  <defs
     id="defs920" />
  <sodipodi:namedview
     id="namedview918"
     pagecolor="#505050"
     bordercolor="#eeeeee"
     borderopacity="1"
     inkscape:pageshadow="0"
     inkscape:pageopacity="0"
     inkscape:pagecheckerboard="0"
     inkscape:document-units="mm"
     showgrid="false"
     inkscape:zoom="1.7540319"
     inkscape:cx="92.073584"
     inkscape:cy="173.8851"
     inkscape:window-width="1296"
     inkscape:window-height="872"
     inkscape:window-x="2913"
     inkscape:window-y="697"
     inkscape:window-maximized="0"
     inkscape:current-layer="svg916" />
  <g
     id="svgGroup"
     stroke-linecap="round"
     fill-rule="evenodd"
     font-size="9pt"
     stroke="#000"
     stroke-width="0.25mm"
     fill="none"
     style="stroke:#ff0000;stroke-width:2.245;fill:none;stroke-opacity:1;stroke-miterlimit:4;stroke-dasharray:none">
    <path
       d="M 0 68 L 170 68 L 170 0 L 0 0 L 0 68 Z M 2 1.5 L 15 1.5 A 0.5 0.5 0 0 1 15.5 2 L 15.5 15 A 0.5 0.5 0 0 1 15 15.5 L 2 15.5 A 0.5 0.5 0 0 1 1.5 15 L 1.5 2 A 0.5 0.5 0 0 1 2 1.5 Z M 19 1.5 L 32 1.5 A 0.5 0.5 0 0 1 32.5 2 L 32.5 15 A 0.5 0.5 0 0 1 32 15.5 L 19 15.5 A 0.5 0.5 0 0 1 18.5 15 L 18.5 2 A 0.5 0.5 0 0 1 19 1.5 Z M 36 1.5 L 49 1.5 A 0.5 0.5 0 0 1 49.5 2 L 49.5 15 A 0.5 0.5 0 0 1 49 15.5 L 36 15.5 A 0.5 0.5 0 0 1 35.5 15 L 35.5 2 A 0.5 0.5 0 0 1 36 1.5 Z M 53 1.5 L 66 1.5 A 0.5 0.5 0 0 1 66.5 2 L 66.5 15 A 0.5 0.5 0 0 1 66 15.5 L 53 15.5 A 0.5 0.5 0 0 1 52.5 15 L 52.5 2 A 0.5 0.5 0 0 1 53 1.5 Z M 70 1.5 L 83 1.5 A 0.5 0.5 0 0 1 83.5 2 L 83.5 15 A 0.5 0.5 0 0 1 83 15.5 L 70 15.5 A 0.5 0.5 0 0 1 69.5 15 L 69.5 2 A 0.5 0.5 0 0 1 70 1.5 Z M 87 1.5 L 100 1.5 A 0.5 0.5 0 0 1 100.5 2 L 100.5 15 A 0.5 0.5 0 0 1 100 15.5 L 87 15.5 A 0.5 0.5 0 0 1 86.5 15 L 86.5 2 A 0.5 0.5 0 0 1 87 1.5 Z M 104 1.5 L 117 1.5 A 0.5 0.5 0 0 1 117.5 2 L 117.5 15 A 0.5 0.5 0 0 1 117 15.5 L 104 15.5 A 0.5 0.5 0 0 1 103.5 15 L 103.5 2 A 0.5 0.5 0 0 1 104 1.5 Z M 121 1.5 L 134 1.5 A 0.5 0.5 0 0 1 134.5 2 L 134.5 15 A 0.5 0.5 0 0 1 134 15.5 L 121 15.5 A 0.5 0.5 0 0 1 120.5 15 L 120.5 2 A 0.5 0.5 0 0 1 121 1.5 Z M 138 1.5 L 151 1.5 A 0.5 0.5 0 0 1 151.5 2 L 151.5 15 A 0.5 0.5 0 0 1 151 15.5 L 138 15.5 A 0.5 0.5 0 0 1 137.5 15 L 137.5 2 A 0.5 0.5 0 0 1 138 1.5 Z M 155 1.5 L 168 1.5 A 0.5 0.5 0 0 1 168.5 2 L 168.5 15 A 0.5 0.5 0 0 1 168 15.5 L 155 15.5 A 0.5 0.5 0 0 1 154.5 15 L 154.5 2 A 0.5 0.5 0 0 1 155 1.5 Z M 2 18.5 L 15 18.5 A 0.5 0.5 0 0 1 15.5 19 L 15.5 32 A 0.5 0.5 0 0 1 15 32.5 L 2 32.5 A 0.5 0.5 0 0 1 1.5 32 L 1.5 19 A 0.5 0.5 0 0 1 2 18.5 Z M 19 18.5 L 32 18.5 A 0.5 0.5 0 0 1 32.5 19 L 32.5 32 A 0.5 0.5 0 0 1 32 32.5 L 19 32.5 A 0.5 0.5 0 0 1 18.5 32 L 18.5 19 A 0.5 0.5 0 0 1 19 18.5 Z M 36 18.5 L 49 18.5 A 0.5 0.5 0 0 1 49.5 19 L 49.5 32 A 0.5 0.5 0 0 1 49 32.5 L 36 32.5 A 0.5 0.5 0 0 1 35.5 32 L 35.5 19 A 0.5 0.5 0 0 1 36 18.5 Z M 53 18.5 L 66 18.5 A 0.5 0.5 0 0 1 66.5 19 L 66.5 32 A 0.5 0.5 0 0 1 66 32.5 L 53 32.5 A 0.5 0.5 0 0 1 52.5 32 L 52.5 19 A 0.5 0.5 0 0 1 53 18.5 Z M 70 18.5 L 83 18.5 A 0.5 0.5 0 0 1 83.5 19 L 83.5 32 A 0.5 0.5 0 0 1 83 32.5 L 70 32.5 A 0.5 0.5 0 0 1 69.5 32 L 69.5 19 A 0.5 0.5 0 0 1 70 18.5 Z M 87 18.5 L 100 18.5 A 0.5 0.5 0 0 1 100.5 19 L 100.5 32 A 0.5 0.5 0 0 1 100 32.5 L 87 32.5 A 0.5 0.5 0 0 1 86.5 32 L 86.5 19 A 0.5 0.5 0 0 1 87 18.5 Z M 104 18.5 L 117 18.5 A 0.5 0.5 0 0 1 117.5 19 L 117.5 32 A 0.5 0.5 0 0 1 117 32.5 L 104 32.5 A 0.5 0.5 0 0 1 103.5 32 L 103.5 19 A 0.5 0.5 0 0 1 104 18.5 Z M 121 18.5 L 134 18.5 A 0.5 0.5 0 0 1 134.5 19 L 134.5 32 A 0.5 0.5 0 0 1 134 32.5 L 121 32.5 A 0.5 0.5 0 0 1 120.5 32 L 120.5 19 A 0.5 0.5 0 0 1 121 18.5 Z M 138 18.5 L 151 18.5 A 0.5 0.5 0 0 1 151.5 19 L 151.5 32 A 0.5 0.5 0 0 1 151 32.5 L 138 32.5 A 0.5 0.5 0 0 1 137.5 32 L 137.5 19 A 0.5 0.5 0 0 1 138 18.5 Z M 155 18.5 L 168 18.5 A 0.5 0.5 0 0 1 168.5 19 L 168.5 32 A 0.5 0.5 0 0 1 168 32.5 L 155 32.5 A 0.5 0.5 0 0 1 154.5 32 L 154.5 19 A 0.5 0.5 0 0 1 155 18.5 Z M 2 35.5 L 15 35.5 A 0.5 0.5 0 0 1 15.5 36 L 15.5 49 A 0.5 0.5 0 0 1 15 49.5 L 2 49.5 A 0.5 0.5 0 0 1 1.5 49 L 1.5 36 A 0.5 0.5 0 0 1 2 35.5 Z M 19 35.5 L 32 35.5 A 0.5 0.5 0 0 1 32.5 36 L 32.5 49 A 0.5 0.5 0 0 1 32 49.5 L 19 49.5 A 0.5 0.5 0 0 1 18.5 49 L 18.5 36 A 0.5 0.5 0 0 1 19 35.5 Z M 36 35.5 L 49 35.5 A 0.5 0.5 0 0 1 49.5 36 L 49.5 49 A 0.5 0.5 0 0 1 49 49.5 L 36 49.5 A 0.5 0.5 0 0 1 35.5 49 L 35.5 36 A 0.5 0.5 0 0 1 36 35.5 Z M 53 35.5 L 66 35.5 A 0.5 0.5 0 0 1 66.5 36 L 66.5 49 A 0.5 0.5 0 0 1 66 49.5 L 53 49.5 A 0.5 0.5 0 0 1 52.5 49 L 52.5 36 A 0.5 0.5 0 0 1 53 35.5 Z M 70 35.5 L 83 35.5 A 0.5 0.5 0 0 1 83.5 36 L 83.5 49 A 0.5 0.5 0 0 1 83 49.5 L 70 49.5 A 0.5 0.5 0 0 1 69.5 49 L 69.5 36 A 0.5 0.5 0 0 1 70 35.5 Z M 87 35.5 L 100 35.5 A 0.5 0.5 0 0 1 100.5 36 L 100.5 49 A 0.5 0.5 0 0 1 100 49.5 L 87 49.5 A 0.5 0.5 0 0 1 86.5 49 L 86.5 36 A 0.5 0.5 0 0 1 87 35.5 Z M 104 35.5 L 117 35.5 A 0.5 0.5 0 0 1 117.5 36 L 117.5 49 A 0.5 0.5 0 0 1 117 49.5 L 104 49.5 A 0.5 0.5 0 0 1 103.5 49 L 103.5 36 A 0.5 0.5 0 0 1 104 35.5 Z M 121 35.5 L 134 35.5 A 0.5 0.5 0 0 1 134.5 36 L 134.5 49 A 0.5 0.5 0 0 1 134 49.5 L 121 49.5 A 0.5 0.5 0 0 1 120.5 49 L 120.5 36 A 0.5 0.5 0 0 1 121 35.5 Z M 138 35.5 L 151 35.5 A 0.5 0.5 0 0 1 151.5 36 L 151.5 49 A 0.5 0.5 0 0 1 151 49.5 L 138 49.5 A 0.5 0.5 0 0 1 137.5 49 L 137.5 36 A 0.5 0.5 0 0 1 138 35.5 Z M 155 35.5 L 168 35.5 A 0.5 0.5 0 0 1 168.5 36 L 168.5 49 A 0.5 0.5 0 0 1 168 49.5 L 155 49.5 A 0.5 0.5 0 0 1 154.5 49 L 154.5 36 A 0.5 0.5 0 0 1 155 35.5 Z M 2 52.5 L 15 52.5 A 0.5 0.5 0 0 1 15.5 53 L 15.5 66 A 0.5 0.5 0 0 1 15 66.5 L 2 66.5 A 0.5 0.5 0 0 1 1.5 66 L 1.5 53 A 0.5 0.5 0 0 1 2 52.5 Z M 19 52.5 L 32 52.5 A 0.5 0.5 0 0 1 32.5 53 L 32.5 66 A 0.5 0.5 0 0 1 32 66.5 L 19 66.5 A 0.5 0.5 0 0 1 18.5 66 L 18.5 53 A 0.5 0.5 0 0 1 19 52.5 Z M 36 52.5 L 49 52.5 A 0.5 0.5 0 0 1 49.5 53 L 49.5 66 A 0.5 0.5 0 0 1 49 66.5 L 36 66.5 A 0.5 0.5 0 0 1 35.5 66 L 35.5 53 A 0.5 0.5 0 0 1 36 52.5 Z M 53 52.5 L 66 52.5 A 0.5 0.5 0 0 1 66.5 53 L 66.5 66 A 0.5 0.5 0 0 1 66 66.5 L 53 66.5 A 0.5 0.5 0 0 1 52.5 66 L 52.5 53 A 0.5 0.5 0 0 1 53 52.5 Z M 70 52.5 L 83 52.5 A 0.5 0.5 0 0 1 83.5 53 L 83.5 66 A 0.5 0.5 0 0 1 83 66.5 L 70 66.5 A 0.5 0.5 0 0 1 69.5 66 L 69.5 53 A 0.5 0.5 0 0 1 70 52.5 Z M 87 52.5 L 100 52.5 A 0.5 0.5 0 0 1 100.5 53 L 100.5 66 A 0.5 0.5 0 0 1 100 66.5 L 87 66.5 A 0.5 0.5 0 0 1 86.5 66 L 86.5 53 A 0.5 0.5 0 0 1 87 52.5 Z M 104 52.5 L 117 52.5 A 0.5 0.5 0 0 1 117.5 53 L 117.5 66 A 0.5 0.5 0 0 1 117 66.5 L 104 66.5 A 0.5 0.5 0 0 1 103.5 66 L 103.5 53 A 0.5 0.5 0 0 1 104 52.5 Z M 121 52.5 L 134 52.5 A 0.5 0.5 0 0 1 134.5 53 L 134.5 66 A 0.5 0.5 0 0 1 134 66.5 L 121 66.5 A 0.5 0.5 0 0 1 120.5 66 L 120.5 53 A 0.5 0.5 0 0 1 121 52.5 Z M 138 52.5 L 151 52.5 A 0.5 0.5 0 0 1 151.5 53 L 151.5 66 A 0.5 0.5 0 0 1 151 66.5 L 138 66.5 A 0.5 0.5 0 0 1 137.5 66 L 137.5 53 A 0.5 0.5 0 0 1 138 52.5 Z M 155 52.5 L 168 52.5 A 0.5 0.5 0 0 1 168.5 53 L 168.5 66 A 0.5 0.5 0 0 1 168 66.5 L 155 66.5 A 0.5 0.5 0 0 1 154.5 66 L 154.5 53 A 0.5 0.5 0 0 1 155 52.5 Z"
       vector-effect="non-scaling-stroke"
       id="path913"
       style="fill:none;stroke:#ff0000;stroke-opacity:1;stroke-width:2.245;stroke-miterlimit:4;stroke-dasharray:none" />
  </g>
</svg>
