0
SECTION
2
HEADER
9
$INSUNITS
70
4
0
ENDSEC
0
SECTION
2
TABLES
0
TABLE
2
LTYPE
0
LTYPE
72
65
70
64
2
CONTINUOUS
3
______
73
0
40
0
0
ENDTAB
0
TABLE
2
LAYER
0
ENDTAB
0
ENDSEC
0
SECTION
2
ENTITIES
0
LINE
8
0
10
2
20
-1.5
11
15
21
-1.5
0
LINE
8
0
10
2
20
-15.5
11
15
21
-15.5
0
LINE
8
0
10
1.5
20
-2
11
1.5
21
-15
0
LINE
8
0
10
15.5
20
-2
11
15.5
21
-15
0
ARC
8
0
10
2
20
-2
40
0.5
50
90
51
180
0
ARC
8
0
10
15
20
-2
40
0.5
50
0
51
90
0
ARC
8
0
10
2
20
-15
40
0.5
50
180
51
270
0
ARC
8
0
10
15
20
-15
40
0.5
50
270
51
0
0
LINE
8
0
10
19
20
-1.5
11
32
21
-1.5
0
LINE
8
0
10
19
20
-15.5
11
32
21
-15.5
0
LINE
8
0
10
18.5
20
-2
11
18.5
21
-15
0
LINE
8
0
10
32.5
20
-2
11
32.5
21
-15
0
ARC
8
0
10
19
20
-2
40
0.5
50
90
51
180
0
ARC
8
0
10
32
20
-2
40
0.5
50
0
51
90
0
ARC
8
0
10
19
20
-15
40
0.5
50
180
51
270
0
ARC
8
0
10
32
20
-15
40
0.5
50
270
51
0
0
LINE
8
0
10
36
20
-1.5
11
49
21
-1.5
0
LINE
8
0
10
36
20
-15.5
11
49
21
-15.5
0
LINE
8
0
10
35.5
20
-2
11
35.5
21
-15
0
LINE
8
0
10
49.5
20
-2
11
49.5
21
-15
0
ARC
8
0
10
36
20
-2
40
0.5
50
90
51
180
0
ARC
8
0
10
49
20
-2
40
0.5
50
0
51
90
0
ARC
8
0
10
36
20
-15
40
0.5
50
180
51
270
0
ARC
8
0
10
49
20
-15
40
0.5
50
270
51
0
0
LINE
8
0
10
53
20
-1.5
11
66
21
-1.5
0
LINE
8
0
10
53
20
-15.5
11
66
21
-15.5
0
LINE
8
0
10
52.5
20
-2
11
52.5
21
-15
0
LINE
8
0
10
66.5
20
-2
11
66.5
21
-15
0
ARC
8
0
10
53
20
-2
40
0.5
50
90
51
180
0
ARC
8
0
10
66
20
-2
40
0.5
50
0
51
90
0
ARC
8
0
10
53
20
-15
40
0.5
50
180
51
270
0
ARC
8
0
10
66
20
-15
40
0.5
50
270
51
0
0
LINE
8
0
10
70
20
-1.5
11
83
21
-1.5
0
LINE
8
0
10
70
20
-15.5
11
83
21
-15.5
0
LINE
8
0
10
69.5
20
-2
11
69.5
21
-15
0
LINE
8
0
10
83.5
20
-2
11
83.5
21
-15
0
ARC
8
0
10
70
20
-2
40
0.5
50
90
51
180
0
ARC
8
0
10
83
20
-2
40
0.5
50
0
51
90
0
ARC
8
0
10
70
20
-15
40
0.5
50
180
51
270
0
ARC
8
0
10
83
20
-15
40
0.5
50
270
51
0
0
LINE
8
0
10
87
20
-1.5
11
100
21
-1.5
0
LINE
8
0
10
87
20
-15.5
11
100
21
-15.5
0
LINE
8
0
10
86.5
20
-2
11
86.5
21
-15
0
LINE
8
0
10
100.5
20
-2
11
100.5
21
-15
0
ARC
8
0
10
87
20
-2
40
0.5
50
90
51
180
0
ARC
8
0
10
100
20
-2
40
0.5
50
0
51
90
0
ARC
8
0
10
87
20
-15
40
0.5
50
180
51
270
0
ARC
8
0
10
100
20
-15
40
0.5
50
270
51
0
0
LINE
8
0
10
104
20
-1.5
11
117
21
-1.5
0
LINE
8
0
10
104
20
-15.5
11
117
21
-15.5
0
LINE
8
0
10
103.5
20
-2
11
103.5
21
-15
0
LINE
8
0
10
117.5
20
-2
11
117.5
21
-15
0
ARC
8
0
10
104
20
-2
40
0.5
50
90
51
180
0
ARC
8
0
10
117
20
-2
40
0.5
50
0
51
90
0
ARC
8
0
10
104
20
-15
40
0.5
50
180
51
270
0
ARC
8
0
10
117
20
-15
40
0.5
50
270
51
0
0
LINE
8
0
10
121
20
-1.5
11
134
21
-1.5
0
LINE
8
0
10
121
20
-15.5
11
134
21
-15.5
0
LINE
8
0
10
120.5
20
-2
11
120.5
21
-15
0
LINE
8
0
10
134.5
20
-2
11
134.5
21
-15
0
ARC
8
0
10
121
20
-2
40
0.5
50
90
51
180
0
ARC
8
0
10
134
20
-2
40
0.5
50
0
51
90
0
ARC
8
0
10
121
20
-15
40
0.5
50
180
51
270
0
ARC
8
0
10
134
20
-15
40
0.5
50
270
51
0
0
LINE
8
0
10
138
20
-1.5
11
151
21
-1.5
0
LINE
8
0
10
138
20
-15.5
11
151
21
-15.5
0
LINE
8
0
10
137.5
20
-2
11
137.5
21
-15
0
LINE
8
0
10
151.5
20
-2
11
151.5
21
-15
0
ARC
8
0
10
138
20
-2
40
0.5
50
90
51
180
0
ARC
8
0
10
151
20
-2
40
0.5
50
0
51
90
0
ARC
8
0
10
138
20
-15
40
0.5
50
180
51
270
0
ARC
8
0
10
151
20
-15
40
0.5
50
270
51
0
0
LINE
8
0
10
155
20
-1.5
11
168
21
-1.5
0
LINE
8
0
10
155
20
-15.5
11
168
21
-15.5
0
LINE
8
0
10
154.5
20
-2
11
154.5
21
-15
0
LINE
8
0
10
168.5
20
-2
11
168.5
21
-15
0
ARC
8
0
10
155
20
-2
40
0.5
50
90
51
180
0
ARC
8
0
10
168
20
-2
40
0.5
50
0
51
90
0
ARC
8
0
10
155
20
-15
40
0.5
50
180
51
270
0
ARC
8
0
10
168
20
-15
40
0.5
50
270
51
0
0
LINE
8
0
10
2
20
-18.5
11
15
21
-18.5
0
LINE
8
0
10
2
20
-32.5
11
15
21
-32.5
0
LINE
8
0
10
1.5
20
-19
11
1.5
21
-32
0
LINE
8
0
10
15.5
20
-19
11
15.5
21
-32
0
ARC
8
0
10
2
20
-19
40
0.5
50
90
51
180
0
ARC
8
0
10
15
20
-19
40
0.5
50
0
51
90
0
ARC
8
0
10
2
20
-32
40
0.5
50
180
51
270
0
ARC
8
0
10
15
20
-32
40
0.5
50
270
51
0
0
LINE
8
0
10
19
20
-18.5
11
32
21
-18.5
0
LINE
8
0
10
19
20
-32.5
11
32
21
-32.5
0
LINE
8
0
10
18.5
20
-19
11
18.5
21
-32
0
LINE
8
0
10
32.5
20
-19
11
32.5
21
-32
0
ARC
8
0
10
19
20
-19
40
0.5
50
90
51
180
0
ARC
8
0
10
32
20
-19
40
0.5
50
0
51
90
0
ARC
8
0
10
19
20
-32
40
0.5
50
180
51
270
0
ARC
8
0
10
32
20
-32
40
0.5
50
270
51
0
0
LINE
8
0
10
36
20
-18.5
11
49
21
-18.5
0
LINE
8
0
10
36
20
-32.5
11
49
21
-32.5
0
LINE
8
0
10
35.5
20
-19
11
35.5
21
-32
0
LINE
8
0
10
49.5
20
-19
11
49.5
21
-32
0
ARC
8
0
10
36
20
-19
40
0.5
50
90
51
180
0
ARC
8
0
10
49
20
-19
40
0.5
50
0
51
90
0
ARC
8
0
10
36
20
-32
40
0.5
50
180
51
270
0
ARC
8
0
10
49
20
-32
40
0.5
50
270
51
0
0
LINE
8
0
10
53
20
-18.5
11
66
21
-18.5
0
LINE
8
0
10
53
20
-32.5
11
66
21
-32.5
0
LINE
8
0
10
52.5
20
-19
11
52.5
21
-32
0
LINE
8
0
10
66.5
20
-19
11
66.5
21
-32
0
ARC
8
0
10
53
20
-19
40
0.5
50
90
51
180
0
ARC
8
0
10
66
20
-19
40
0.5
50
0
51
90
0
ARC
8
0
10
53
20
-32
40
0.5
50
180
51
270
0
ARC
8
0
10
66
20
-32
40
0.5
50
270
51
0
0
LINE
8
0
10
70
20
-18.5
11
83
21
-18.5
0
LINE
8
0
10
70
20
-32.5
11
83
21
-32.5
0
LINE
8
0
10
69.5
20
-19
11
69.5
21
-32
0
LINE
8
0
10
83.5
20
-19
11
83.5
21
-32
0
ARC
8
0
10
70
20
-19
40
0.5
50
90
51
180
0
ARC
8
0
10
83
20
-19
40
0.5
50
0
51
90
0
ARC
8
0
10
70
20
-32
40
0.5
50
180
51
270
0
ARC
8
0
10
83
20
-32
40
0.5
50
270
51
0
0
LINE
8
0
10
87
20
-18.5
11
100
21
-18.5
0
LINE
8
0
10
87
20
-32.5
11
100
21
-32.5
0
LINE
8
0
10
86.5
20
-19
11
86.5
21
-32
0
LINE
8
0
10
100.5
20
-19
11
100.5
21
-32
0
ARC
8
0
10
87
20
-19
40
0.5
50
90
51
180
0
ARC
8
0
10
100
20
-19
40
0.5
50
0
51
90
0
ARC
8
0
10
87
20
-32
40
0.5
50
180
51
270
0
ARC
8
0
10
100
20
-32
40
0.5
50
270
51
0
0
LINE
8
0
10
104
20
-18.5
11
117
21
-18.5
0
LINE
8
0
10
104
20
-32.5
11
117
21
-32.5
0
LINE
8
0
10
103.5
20
-19
11
103.5
21
-32
0
LINE
8
0
10
117.5
20
-19
11
117.5
21
-32
0
ARC
8
0
10
104
20
-19
40
0.5
50
90
51
180
0
ARC
8
0
10
117
20
-19
40
0.5
50
0
51
90
0
ARC
8
0
10
104
20
-32
40
0.5
50
180
51
270
0
ARC
8
0
10
117
20
-32
40
0.5
50
270
51
0
0
LINE
8
0
10
121
20
-18.5
11
134
21
-18.5
0
LINE
8
0
10
121
20
-32.5
11
134
21
-32.5
0
LINE
8
0
10
120.5
20
-19
11
120.5
21
-32
0
LINE
8
0
10
134.5
20
-19
11
134.5
21
-32
0
ARC
8
0
10
121
20
-19
40
0.5
50
90
51
180
0
ARC
8
0
10
134
20
-19
40
0.5
50
0
51
90
0
ARC
8
0
10
121
20
-32
40
0.5
50
180
51
270
0
ARC
8
0
10
134
20
-32
40
0.5
50
270
51
0
0
LINE
8
0
10
138
20
-18.5
11
151
21
-18.5
0
LINE
8
0
10
138
20
-32.5
11
151
21
-32.5
0
LINE
8
0
10
137.5
20
-19
11
137.5
21
-32
0
LINE
8
0
10
151.5
20
-19
11
151.5
21
-32
0
ARC
8
0
10
138
20
-19
40
0.5
50
90
51
180
0
ARC
8
0
10
151
20
-19
40
0.5
50
0
51
90
0
ARC
8
0
10
138
20
-32
40
0.5
50
180
51
270
0
ARC
8
0
10
151
20
-32
40
0.5
50
270
51
0
0
LINE
8
0
10
155
20
-18.5
11
168
21
-18.5
0
LINE
8
0
10
155
20
-32.5
11
168
21
-32.5
0
LINE
8
0
10
154.5
20
-19
11
154.5
21
-32
0
LINE
8
0
10
168.5
20
-19
11
168.5
21
-32
0
ARC
8
0
10
155
20
-19
40
0.5
50
90
51
180
0
ARC
8
0
10
168
20
-19
40
0.5
50
0
51
90
0
ARC
8
0
10
155
20
-32
40
0.5
50
180
51
270
0
ARC
8
0
10
168
20
-32
40
0.5
50
270
51
0
0
LINE
8
0
10
2
20
-35.5
11
15
21
-35.5
0
LINE
8
0
10
2
20
-49.5
11
15
21
-49.5
0
LINE
8
0
10
1.5
20
-36
11
1.5
21
-49
0
LINE
8
0
10
15.5
20
-36
11
15.5
21
-49
0
ARC
8
0
10
2
20
-36
40
0.5
50
90
51
180
0
ARC
8
0
10
15
20
-36
40
0.5
50
0
51
90
0
ARC
8
0
10
2
20
-49
40
0.5
50
180
51
270
0
ARC
8
0
10
15
20
-49
40
0.5
50
270
51
0
0
LINE
8
0
10
19
20
-35.5
11
32
21
-35.5
0
LINE
8
0
10
19
20
-49.5
11
32
21
-49.5
0
LINE
8
0
10
18.5
20
-36
11
18.5
21
-49
0
LINE
8
0
10
32.5
20
-36
11
32.5
21
-49
0
ARC
8
0
10
19
20
-36
40
0.5
50
90
51
180
0
ARC
8
0
10
32
20
-36
40
0.5
50
0
51
90
0
ARC
8
0
10
19
20
-49
40
0.5
50
180
51
270
0
ARC
8
0
10
32
20
-49
40
0.5
50
270
51
0
0
LINE
8
0
10
36
20
-35.5
11
49
21
-35.5
0
LINE
8
0
10
36
20
-49.5
11
49
21
-49.5
0
LINE
8
0
10
35.5
20
-36
11
35.5
21
-49
0
LINE
8
0
10
49.5
20
-36
11
49.5
21
-49
0
ARC
8
0
10
36
20
-36
40
0.5
50
90
51
180
0
ARC
8
0
10
49
20
-36
40
0.5
50
0
51
90
0
ARC
8
0
10
36
20
-49
40
0.5
50
180
51
270
0
ARC
8
0
10
49
20
-49
40
0.5
50
270
51
0
0
LINE
8
0
10
53
20
-35.5
11
66
21
-35.5
0
LINE
8
0
10
53
20
-49.5
11
66
21
-49.5
0
LINE
8
0
10
52.5
20
-36
11
52.5
21
-49
0
LINE
8
0
10
66.5
20
-36
11
66.5
21
-49
0
ARC
8
0
10
53
20
-36
40
0.5
50
90
51
180
0
ARC
8
0
10
66
20
-36
40
0.5
50
0
51
90
0
ARC
8
0
10
53
20
-49
40
0.5
50
180
51
270
0
ARC
8
0
10
66
20
-49
40
0.5
50
270
51
0
0
LINE
8
0
10
70
20
-35.5
11
83
21
-35.5
0
LINE
8
0
10
70
20
-49.5
11
83
21
-49.5
0
LINE
8
0
10
69.5
20
-36
11
69.5
21
-49
0
LINE
8
0
10
83.5
20
-36
11
83.5
21
-49
0
ARC
8
0
10
70
20
-36
40
0.5
50
90
51
180
0
ARC
8
0
10
83
20
-36
40
0.5
50
0
51
90
0
ARC
8
0
10
70
20
-49
40
0.5
50
180
51
270
0
ARC
8
0
10
83
20
-49
40
0.5
50
270
51
0
0
LINE
8
0
10
87
20
-35.5
11
100
21
-35.5
0
LINE
8
0
10
87
20
-49.5
11
100
21
-49.5
0
LINE
8
0
10
86.5
20
-36
11
86.5
21
-49
0
LINE
8
0
10
100.5
20
-36
11
100.5
21
-49
0
ARC
8
0
10
87
20
-36
40
0.5
50
90
51
180
0
ARC
8
0
10
100
20
-36
40
0.5
50
0
51
90
0
ARC
8
0
10
87
20
-49
40
0.5
50
180
51
270
0
ARC
8
0
10
100
20
-49
40
0.5
50
270
51
0
0
LINE
8
0
10
104
20
-35.5
11
117
21
-35.5
0
LINE
8
0
10
104
20
-49.5
11
117
21
-49.5
0
LINE
8
0
10
103.5
20
-36
11
103.5
21
-49
0
LINE
8
0
10
117.5
20
-36
11
117.5
21
-49
0
ARC
8
0
10
104
20
-36
40
0.5
50
90
51
180
0
ARC
8
0
10
117
20
-36
40
0.5
50
0
51
90
0
ARC
8
0
10
104
20
-49
40
0.5
50
180
51
270
0
ARC
8
0
10
117
20
-49
40
0.5
50
270
51
0
0
LINE
8
0
10
121
20
-35.5
11
134
21
-35.5
0
LINE
8
0
10
121
20
-49.5
11
134
21
-49.5
0
LINE
8
0
10
120.5
20
-36
11
120.5
21
-49
0
LINE
8
0
10
134.5
20
-36
11
134.5
21
-49
0
ARC
8
0
10
121
20
-36
40
0.5
50
90
51
180
0
ARC
8
0
10
134
20
-36
40
0.5
50
0
51
90
0
ARC
8
0
10
121
20
-49
40
0.5
50
180
51
270
0
ARC
8
0
10
134
20
-49
40
0.5
50
270
51
0
0
LINE
8
0
10
138
20
-35.5
11
151
21
-35.5
0
LINE
8
0
10
138
20
-49.5
11
151
21
-49.5
0
LINE
8
0
10
137.5
20
-36
11
137.5
21
-49
0
LINE
8
0
10
151.5
20
-36
11
151.5
21
-49
0
ARC
8
0
10
138
20
-36
40
0.5
50
90
51
180
0
ARC
8
0
10
151
20
-36
40
0.5
50
0
51
90
0
ARC
8
0
10
138
20
-49
40
0.5
50
180
51
270
0
ARC
8
0
10
151
20
-49
40
0.5
50
270
51
0
0
LINE
8
0
10
155
20
-35.5
11
168
21
-35.5
0
LINE
8
0
10
155
20
-49.5
11
168
21
-49.5
0
LINE
8
0
10
154.5
20
-36
11
154.5
21
-49
0
LINE
8
0
10
168.5
20
-36
11
168.5
21
-49
0
ARC
8
0
10
155
20
-36
40
0.5
50
90
51
180
0
ARC
8
0
10
168
20
-36
40
0.5
50
0
51
90
0
ARC
8
0
10
155
20
-49
40
0.5
50
180
51
270
0
ARC
8
0
10
168
20
-49
40
0.5
50
270
51
0
0
LINE
8
0
10
2
20
-52.5
11
15
21
-52.5
0
LINE
8
0
10
2
20
-66.5
11
15
21
-66.5
0
LINE
8
0
10
1.5
20
-53
11
1.5
21
-66
0
LINE
8
0
10
15.5
20
-53
11
15.5
21
-66
0
ARC
8
0
10
2
20
-53
40
0.5
50
90
51
180
0
ARC
8
0
10
15
20
-53
40
0.5
50
0
51
90
0
ARC
8
0
10
2
20
-66
40
0.5
50
180
51
270
0
ARC
8
0
10
15
20
-66
40
0.5
50
270
51
0
0
LINE
8
0
10
19
20
-52.5
11
32
21
-52.5
0
LINE
8
0
10
19
20
-66.5
11
32
21
-66.5
0
LINE
8
0
10
18.5
20
-53
11
18.5
21
-66
0
LINE
8
0
10
32.5
20
-53
11
32.5
21
-66
0
ARC
8
0
10
19
20
-53
40
0.5
50
90
51
180
0
ARC
8
0
10
32
20
-53
40
0.5
50
0
51
90
0
ARC
8
0
10
19
20
-66
40
0.5
50
180
51
270
0
ARC
8
0
10
32
20
-66
40
0.5
50
270
51
0
0
LINE
8
0
10
36
20
-52.5
11
49
21
-52.5
0
LINE
8
0
10
36
20
-66.5
11
49
21
-66.5
0
LINE
8
0
10
35.5
20
-53
11
35.5
21
-66
0
LINE
8
0
10
49.5
20
-53
11
49.5
21
-66
0
ARC
8
0
10
36
20
-53
40
0.5
50
90
51
180
0
ARC
8
0
10
49
20
-53
40
0.5
50
0
51
90
0
ARC
8
0
10
36
20
-66
40
0.5
50
180
51
270
0
ARC
8
0
10
49
20
-66
40
0.5
50
270
51
0
0
LINE
8
0
10
53
20
-52.5
11
66
21
-52.5
0
LINE
8
0
10
53
20
-66.5
11
66
21
-66.5
0
LINE
8
0
10
52.5
20
-53
11
52.5
21
-66
0
LINE
8
0
10
66.5
20
-53
11
66.5
21
-66
0
ARC
8
0
10
53
20
-53
40
0.5
50
90
51
180
0
ARC
8
0
10
66
20
-53
40
0.5
50
0
51
90
0
ARC
8
0
10
53
20
-66
40
0.5
50
180
51
270
0
ARC
8
0
10
66
20
-66
40
0.5
50
270
51
0
0
LINE
8
0
10
70
20
-52.5
11
83
21
-52.5
0
LINE
8
0
10
70
20
-66.5
11
83
21
-66.5
0
LINE
8
0
10
69.5
20
-53
11
69.5
21
-66
0
LINE
8
0
10
83.5
20
-53
11
83.5
21
-66
0
ARC
8
0
10
70
20
-53
40
0.5
50
90
51
180
0
ARC
8
0
10
83
20
-53
40
0.5
50
0
51
90
0
ARC
8
0
10
70
20
-66
40
0.5
50
180
51
270
0
ARC
8
0
10
83
20
-66
40
0.5
50
270
51
0
0
LINE
8
0
10
87
20
-52.5
11
100
21
-52.5
0
LINE
8
0
10
87
20
-66.5
11
100
21
-66.5
0
LINE
8
0
10
86.5
20
-53
11
86.5
21
-66
0
LINE
8
0
10
100.5
20
-53
11
100.5
21
-66
0
ARC
8
0
10
87
20
-53
40
0.5
50
90
51
180
0
ARC
8
0
10
100
20
-53
40
0.5
50
0
51
90
0
ARC
8
0
10
87
20
-66
40
0.5
50
180
51
270
0
ARC
8
0
10
100
20
-66
40
0.5
50
270
51
0
0
LINE
8
0
10
104
20
-52.5
11
117
21
-52.5
0
LINE
8
0
10
104
20
-66.5
11
117
21
-66.5
0
LINE
8
0
10
103.5
20
-53
11
103.5
21
-66
0
LINE
8
0
10
117.5
20
-53
11
117.5
21
-66
0
ARC
8
0
10
104
20
-53
40
0.5
50
90
51
180
0
ARC
8
0
10
117
20
-53
40
0.5
50
0
51
90
0
ARC
8
0
10
104
20
-66
40
0.5
50
180
51
270
0
ARC
8
0
10
117
20
-66
40
0.5
50
270
51
0
0
LINE
8
0
10
121
20
-52.5
11
134
21
-52.5
0
LINE
8
0
10
121
20
-66.5
11
134
21
-66.5
0
LINE
8
0
10
120.5
20
-53
11
120.5
21
-66
0
LINE
8
0
10
134.5
20
-53
11
134.5
21
-66
0
ARC
8
0
10
121
20
-53
40
0.5
50
90
51
180
0
ARC
8
0
10
134
20
-53
40
0.5
50
0
51
90
0
ARC
8
0
10
121
20
-66
40
0.5
50
180
51
270
0
ARC
8
0
10
134
20
-66
40
0.5
50
270
51
0
0
LINE
8
0
10
138
20
-52.5
11
151
21
-52.5
0
LINE
8
0
10
138
20
-66.5
11
151
21
-66.5
0
LINE
8
0
10
137.5
20
-53
11
137.5
21
-66
0
LINE
8
0
10
151.5
20
-53
11
151.5
21
-66
0
ARC
8
0
10
138
20
-53
40
0.5
50
90
51
180
0
ARC
8
0
10
151
20
-53
40
0.5
50
0
51
90
0
ARC
8
0
10
138
20
-66
40
0.5
50
180
51
270
0
ARC
8
0
10
151
20
-66
40
0.5
50
270
51
0
0
LINE
8
0
10
155
20
-52.5
11
168
21
-52.5
0
LINE
8
0
10
155
20
-66.5
11
168
21
-66.5
0
LINE
8
0
10
154.5
20
-53
11
154.5
21
-66
0
LINE
8
0
10
168.5
20
-53
11
168.5
21
-66
0
ARC
8
0
10
155
20
-53
40
0.5
50
90
51
180
0
ARC
8
0
10
168
20
-53
40
0.5
50
0
51
90
0
ARC
8
0
10
155
20
-66
40
0.5
50
180
51
270
0
ARC
8
0
10
168
20
-66
40
0.5
50
270
51
0
0
LINE
8
0
10
0
20
-68
11
170
21
-68
0
LINE
8
0
10
0
20
0
11
170
21
0
0
LINE
8
0
10
0
20
-68
11
0
21
0
0
LINE
8
0
10
170
20
-68
11
170
21
0
0
ENDSEC
0
EOF